<svg xmlns="http://www.w3.org/2000/svg" width="203.785" height="135.341" viewBox="0 0 203.785 135.341">
    <g data-name="그룹 103">
        <g data-name="그룹 102">
            <path data-name="사각형 79" style="fill:#231f20" d="M0 0h21.463v73.657H0z" transform="translate(108.591 8.197)"/>
            <path data-name="패스 29" d="m2834.369 764.344 14.314-22.942h-25.311l-12.11 19.409-.134.215a5.432 5.432 0 0 0-.717 2.1 5.49 5.49 0 0 0-.044.678c0 .137.007.272.017.406a5.4 5.4 0 0 0 .866 2.573l13.755 24.407h24.5z" transform="translate(-2679.376 -709.341)" style="fill:#231f20"/>
        </g>
        <path data-name="패스 30" d="M2709.115 700.272a13.266 13.266 0 1 1-13.266-13.266 13.266 13.266 0 0 1 13.266 13.266z" transform="translate(-2607.653 -678.809)" style="fill:#be3455"/>
        <path data-name="사각형 80" transform="translate(77.465 40.927)" style="fill:#231f20" d="M0 0h21.463v40.927H0z"/>
        <path data-name="패스 31" d="M2942.347 700.272a13.266 13.266 0 1 1-13.266-13.266 13.266 13.266 0 0 1 13.266 13.266z" transform="translate(-2738.562 -678.809)" style="fill:#be3455"/>
        <path data-name="사각형 81" transform="translate(179.787 40.927)" style="fill:#231f20" d="M0 0h21.463v40.927H0z"/>
        <path data-name="패스 32" d="M2546.516 668.321a34.727 34.727 0 0 0-34.722 34.206h-.007v47.648l21.463-12.392h13.266a34.729 34.729 0 1 0 0-69.459zm0 48h-13.266V703.05a13.266 13.266 0 1 1 13.266 13.266z" transform="translate(-2511.787 -668.321)" style="fill:#231f20"/>
    </g>
    <g data-name="그룹 104">
        <path data-name="패스 33" d="M2511.787 894.2h13.6a10.766 10.766 0 0 1 5.586 1.515 11.232 11.232 0 0 1 4.047 4.071 10.809 10.809 0 0 1 1.49 5.537 10.558 10.558 0 0 1-1.118 4.742 11.034 11.034 0 0 1-3.1 3.823 10.423 10.423 0 0 1-4.42 2.061l10.328 14.1h-4.369l-10.131-13.857h-8.292v13.853h-3.625zm17.527 17.577a7.722 7.722 0 0 0 2.756-2.806 7.471 7.471 0 0 0 1.018-3.8 7.344 7.344 0 0 0-1.018-3.773 7.588 7.588 0 0 0-2.756-2.755 7.43 7.43 0 0 0-3.823-1.018h-10.079v15.193h10.079a7.294 7.294 0 0 0 3.823-1.045z" transform="translate(-2511.787 -795.102)" style="fill:#231f20"/>
        <path data-name="패스 34" d="M2627.082 902.426a17.4 17.4 0 0 1 30.735 0 19.852 19.852 0 0 1 0 18.4 17.425 17.425 0 0 1-30.735 0 19.853 19.853 0 0 1 0-18.4zm22.592 21.922a13.646 13.646 0 0 0 4.99-5.313 16.2 16.2 0 0 0 0-14.8 14.065 14.065 0 0 0-19.439-5.338 13.462 13.462 0 0 0-4.99 5.288 16.306 16.306 0 0 0 0 14.846 14.016 14.016 0 0 0 19.438 5.313z" transform="translate(-2575.232 -794.593)" style="fill:#231f20"/>
        <path data-name="패스 35" d="M2760.6 902.426a17.4 17.4 0 0 1 30.734 0 19.85 19.85 0 0 1 0 18.4 17.425 17.425 0 0 1-30.734 0 19.853 19.853 0 0 1 0-18.4zm22.591 21.922a13.648 13.648 0 0 0 4.99-5.313 16.2 16.2 0 0 0 0-14.8 14.065 14.065 0 0 0-19.439-5.338 13.464 13.464 0 0 0-4.99 5.288 16.306 16.306 0 0 0 0 14.846 14.016 14.016 0 0 0 19.438 5.313z" transform="translate(-2650.176 -794.593)" style="fill:#231f20"/>
        <path data-name="패스 36" d="M2928.479 930.045h-3.579v-28.4l-11.217 20.455h-2.983l-11.321-20.457v28.4h-3.575V894.2h3.575l12.811 23.088 12.661-23.088h3.625z" transform="translate(-2727.333 -795.102)" style="fill:#231f20"/>
    </g>
</svg>
