<svg xmlns="http://www.w3.org/2000/svg" width="206.133" height="35" viewBox="0 0 206.133 35">
  <g id="logo" transform="translate(-199.8 -403.3)">
    <g id="그룹_8" data-name="그룹 8" transform="translate(244.098 412.3)">
      <g id="그룹_6" data-name="그룹 6">
        <path id="패스_1" data-name="패스 1" d="M250.14,413.661a2.675,2.675,0,0,0-1.985-.836,3.012,3.012,0,0,0-1.985.627,2.2,2.2,0,0,0-.731,1.463c0,.836.522,1.358,1.463,1.672a24.065,24.065,0,0,1,2.612.94,22.446,22.446,0,0,1,2.716,1.463,3.457,3.457,0,0,1,1.358,3.134,4.545,4.545,0,0,1-1.672,3.448,5.109,5.109,0,0,1-3.97,1.463A5.527,5.527,0,0,1,242.2,421.6h2.925a2.917,2.917,0,0,0,.836,2.09,2.854,2.854,0,0,0,1.985.836,2.592,2.592,0,0,0,2.09-.836,2.226,2.226,0,0,0,.731-1.672,1.417,1.417,0,0,0-.731-1.358,9.111,9.111,0,0,0-1.776-.94c-1.149-.522-2.3-.94-3.761-1.567a3.319,3.319,0,0,1-2.09-3.448,4.347,4.347,0,0,1,1.672-3.343,5.935,5.935,0,0,1,3.866-1.463,5.624,5.624,0,0,1,3.97,1.463,5.542,5.542,0,0,1,1.567,3.239h-2.821C250.767,414.706,250.558,414.184,250.14,413.661Z" transform="translate(-242.2 -409.9)" fill="#dedede"/>
        <path id="패스_2" data-name="패스 2" d="M256.2,410.8h2.925v16.089H256.2Z" transform="translate(-241.573 -409.86)" fill="#dedede"/>
        <path id="패스_3" data-name="패스 3" d="M276,416.155a5.868,5.868,0,0,0-1.985-2.3,5.451,5.451,0,0,0-3.239-1.045,5.683,5.683,0,0,0-4.179,1.776,5.754,5.754,0,0,0-1.672,4.179,5.925,5.925,0,0,0,1.672,4.179,5.683,5.683,0,0,0,4.179,1.776,4.808,4.808,0,0,0,3.657-1.358,7,7,0,0,0,1.881-2.925h-6.373v-2.507h9.3c.1,3.239-.836,5.537-2.716,7a9.45,9.45,0,0,1-5.746,2.194,8.368,8.368,0,0,1-6.06-2.507,7.855,7.855,0,0,1-2.612-5.955,7.7,7.7,0,0,1,2.612-5.955,8.543,8.543,0,0,1,6.06-2.507,8.964,8.964,0,0,1,5.119,1.567,8.076,8.076,0,0,1,3.03,4.179H276Z" transform="translate(-241.309 -409.887)" fill="#dedede"/>
        <path id="패스_4" data-name="패스 4" d="M281.7,410.8h3.97l4.806,12.015,4.806-12.015h3.97v16.089h-2.925V415.5l-4.492,11.388h-2.612l-4.493-11.284v11.284H281.8V410.8Z" transform="translate(-240.432 -409.86)" fill="#dedede"/>
        <path id="패스_5" data-name="패스 5" d="M308.1,410.8h2.821l7,16.089H315l-1.776-4.075H305.7l-1.776,4.075H301Zm1.463,3.134-2.716,6.269h5.433Z" transform="translate(-239.568 -409.86)" fill="#dedede"/>
      </g>
      <g id="그룹_7" data-name="그룹 7" transform="translate(84.94 0.418)">
        <path id="패스_6" data-name="패스 6" d="M337.4,416.151a7.371,7.371,0,0,0-1.776-2.194,5.637,5.637,0,0,0-7.418.522,5.748,5.748,0,0,0-1.776,4.284,5.917,5.917,0,0,0,1.776,4.284,5.456,5.456,0,0,0,3.97,1.672,5.224,5.224,0,0,0,3.448-1.045,8.788,8.788,0,0,0,1.881-2.194h2.821a7.543,7.543,0,0,1-3.03,4.179,8.729,8.729,0,0,1-5.119,1.567,8.368,8.368,0,0,1-6.06-2.507,7.855,7.855,0,0,1-2.612-5.955,7.7,7.7,0,0,1,2.612-5.955,9.007,9.007,0,0,1,6.06-2.507,8.73,8.73,0,0,1,5.119,1.567,8.077,8.077,0,0,1,3.03,4.179H337.4Z" transform="translate(-323.5 -410.3)" fill="#dedede"/>
        <path id="패스_7" data-name="패스 7" d="M342.8,410.8h2.925v6.373h7.731V410.8h2.925v16.089h-2.925v-7.209h-7.731v7.209H342.8V410.8Z" transform="translate(-322.636 -410.278)" fill="#dedede"/>
        <path id="패스_8" data-name="패스 8" d="M365.7,410.8h2.821l7,16.089H372.6l-1.776-4.075H363.3l-1.776,4.075H358.6Zm1.463,3.134-2.716,6.269h5.433Z" transform="translate(-321.929 -410.278)" fill="#dedede"/>
        <path id="패스_9" data-name="패스 9" d="M377.6,410.8h2.925v16.089H377.6Z" transform="translate(-321.078 -410.278)" fill="#dedede"/>
        <path id="패스_10" data-name="패스 10" d="M383.9,410.8h3.134l7.731,11.388V410.8h2.925v16.089h-3.134L386.825,415.5v11.388H383.9Z" transform="translate(-320.796 -410.278)" fill="#dedede"/>
      </g>
    </g>
    <g id="그룹_11" data-name="그룹 11" transform="translate(199.8 403.3)">
      <g id="그룹_9" data-name="그룹 9">
        <path id="패스_11" data-name="패스 11" d="M199.8,423.777v-17.03a3.478,3.478,0,0,1,3.448-3.448h17.03a3.478,3.478,0,0,1,3.448,3.448v2.925a.731.731,0,1,1-1.463,0v-2.925a1.873,1.873,0,0,0-1.881-1.881H203.143a1.873,1.873,0,0,0-1.881,1.881l2.925,7.731-2.925,9.3a1.873,1.873,0,0,0,1.881,1.881h17.03a1.873,1.873,0,0,0,1.881-1.881v-2.925a.731.731,0,0,1,1.463,0v2.925a3.478,3.478,0,0,1-3.448,3.448H203.143A3.39,3.39,0,0,1,199.8,423.777Z" transform="translate(-199.8 -403.3)" fill="#dedede"/>
      </g>
      <g id="그룹_10" data-name="그룹 10" transform="translate(8.358 11.075)">
        <path id="패스_12" data-name="패스 12" d="M207.8,434.377v-2.925a.731.731,0,0,1,1.463,0v2.925a1.873,1.873,0,0,0,1.881,1.881h17.03a1.873,1.873,0,0,0,1.881-1.881v-17.03a1.873,1.873,0,0,0-1.881-1.881h-17.03a1.873,1.873,0,0,0-1.881,1.881v2.925a.731.731,0,0,1-1.463,0v-2.925a3.478,3.478,0,0,1,3.448-3.448h17.03a3.478,3.478,0,0,1,3.448,3.448v17.03a3.478,3.478,0,0,1-3.448,3.448H211.143A3.39,3.39,0,0,1,207.8,434.377Z" transform="translate(-207.8 -413.9)" fill="#dedede"/>
      </g>
    </g>
  </g>
</svg>
