<?xml version="1.0" encoding="utf-8"?>
<!-- Generator: Adobe Illustrator 24.0.2, SVG Export Plug-In . SVG Version: 6.00 Build 0)  -->
<svg version="1.1" id="Layer_1" xmlns="http://www.w3.org/2000/svg" xmlns:xlink="http://www.w3.org/1999/xlink" x="0px" y="0px"
	 viewBox="0 0 197.3 33.5" style="enable-background:new 0 0 197.3 33.5;" xml:space="preserve">
<style type="text/css">
	.st0{fill:#FFFFFF;}
	.st1{fill:url(#SVGID_1_);}
	.st2{fill:url(#SVGID_2_);}
</style>
<g>
	<g>
		<path class="st0" d="M50,10.2c-0.5-0.5-1.1-0.8-1.9-0.8s-1.4,0.2-1.9,0.6c-0.4,0.4-0.7,0.9-0.7,1.4c0,0.8,0.5,1.3,1.4,1.6
			c1,0.3,1.8,0.6,2.5,0.9c0.9,0.4,1.8,0.9,2.6,1.4s1.3,1.5,1.3,3c0,1.2-0.5,2.3-1.6,3.3s-2.3,1.5-3.8,1.4c-1.8,0-3.2-0.6-4.1-1.7
			c-1-1.1-1.4-2.3-1.4-3.5h2.8c0,0.8,0.3,1.5,0.8,2s1.2,0.8,1.9,0.8c0.9,0,1.6-0.3,2-0.8c0.5-0.5,0.7-1,0.7-1.6s-0.2-1-0.7-1.3
			c-0.4-0.3-1-0.6-1.7-0.9c-1.1-0.5-2.2-0.9-3.6-1.5c-1.3-0.5-2-1.6-2-3.3c0-1.2,0.5-2.2,1.6-3.2c1.1-0.9,2.3-1.4,3.7-1.4
			c1.6,0,2.8,0.5,3.8,1.4c0.9,1,1.4,2,1.5,3.1h-2.7C50.6,11.2,50.4,10.7,50,10.2z"/>
		<path class="st0" d="M56.4,7.5h2.8v15.4h-2.8V7.5z"/>
		<path class="st0" d="M75.6,12.6c-0.4-0.8-1-1.6-1.9-2.2c-0.8-0.6-1.9-1-3.1-1c-1.6,0-2.9,0.6-4,1.7s-1.6,2.5-1.6,4s0.5,2.8,1.6,4
			c1.1,1.1,2.4,1.7,4,1.7c1.5,0,2.6-0.4,3.5-1.3s1.5-1.8,1.8-2.8h-6.1v-2.4h8.9c0.1,3.1-0.8,5.3-2.6,6.7c-1.8,1.4-3.7,2.1-5.5,2.1
			c-2.2,0-4.2-0.8-5.8-2.4c-1.7-1.6-2.5-3.5-2.5-5.7s0.8-4.2,2.5-5.7c1.7-1.6,3.6-2.4,5.8-2.4c1.8,0,3.4,0.5,4.9,1.5
			c1.4,1,2.4,2.4,2.9,4h-2.8V12.6z"/>
		<path class="st0" d="M81.9,7.5h3.8L90.3,19l4.6-11.5h3.8v15.4h-2.8V12l-4.3,10.9h-2.5l-4.3-10.8v10.8H82V7.5H81.9z"/>
		<path class="st0" d="M108,7.5h2.7l6.7,15.4h-2.8l-1.7-3.9h-7.2l-1.7,3.9h-2.8L108,7.5z M109.4,10.5l-2.6,6h5.2L109.4,10.5z"/>
	</g>
	<g>
		<path class="st0" d="M137,12.6c-0.3-0.6-0.8-1.3-1.7-2.1c-0.9-0.7-2-1.1-3.3-1.1c-1.4,0-2.7,0.5-3.8,1.6c-1.1,1.1-1.7,2.4-1.7,4.1
			c0,1.6,0.6,3,1.7,4.1s2.4,1.6,3.8,1.6s2.4-0.3,3.3-1c0.8-0.7,1.4-1.4,1.8-2.1h2.7c-0.5,1.6-1.4,3-2.9,4c-1.4,1-3.1,1.5-4.9,1.5
			c-2.2,0-4.2-0.8-5.8-2.4c-1.7-1.6-2.5-3.5-2.5-5.7s0.8-4.2,2.5-5.7S129.8,7,132,7c1.8,0,3.5,0.5,4.9,1.5s2.4,2.4,2.9,4H137V12.6z"
			/>
		<path class="st0" d="M143,7.5h2.8v6.1h7.4V7.5h2.8v15.4h-2.8V16h-7.4v6.9H143L143,7.5L143,7.5z"/>
		<path class="st0" d="M165.6,7.5h2.7l6.7,15.4h-2.8l-1.7-3.9h-7.2l-1.7,3.9h-2.8L165.6,7.5z M167,10.5l-2.6,6h5.2L167,10.5z"/>
		<path class="st0" d="M177.8,7.5h2.8v15.4h-2.8V7.5z"/>
		<path class="st0" d="M184.1,7.5h3l7.4,10.9V7.5h2.8v15.4h-3L186.9,12v10.9h-2.8V7.5z"/>
	</g>
</g>
<g>
	<g>
		
			<linearGradient id="SVGID_1_" gradientUnits="userSpaceOnUse" x1="-515.4521" y1="43.2967" x2="-478.8548" y2="79.8941" gradientTransform="matrix(0 1 1 0 -45.8867 512.8877)">
			<stop  offset="0" style="stop-color:#F7ED6C"/>
			<stop  offset="0.5" style="stop-color:#ED2929"/>
			<stop  offset="0.9" style="stop-color:#5BCAF4"/>
		</linearGradient>
		<path class="st1" d="M0,19.6v-8.9V3.3C0,1.5,1.5,0,3.3,0h16.3c1.8,0,3.3,1.5,3.3,3.3v2.8c0,0.4-0.3,0.7-0.7,0.7s-0.7-0.3-0.7-0.7
			V3.3c0-1-0.8-1.8-1.8-1.8H3.2c-1,0-1.8,0.8-1.8,1.8l2.8,7.4l-2.8,8.9c0,1,0.8,1.8,1.8,1.8h16.3c1,0,1.8-0.8,1.8-1.8v-2.8
			c0-0.4,0.3-0.7,0.7-0.7s0.7,0.3,0.7,0.7v2.8c0,1.8-1.5,3.3-3.3,3.3H3.2C1.4,22.9,0,21.4,0,19.6z"/>
	</g>
	<g>
		
			<linearGradient id="SVGID_2_" gradientUnits="userSpaceOnUse" x1="-514.1518" y1="41.9971" x2="-477.5557" y2="78.5932" gradientTransform="matrix(0 1 1 0 -45.8867 512.8877)">
			<stop  offset="0" style="stop-color:#F7ED6C"/>
			<stop  offset="0.5" style="stop-color:#ED2929"/>
			<stop  offset="0.9" style="stop-color:#5BCAF4"/>
		</linearGradient>
		<path class="st2" d="M8,30.2v-2.8c0-0.4,0.3-0.7,0.7-0.7s0.7,0.3,0.7,0.7v2.8c0,1,0.8,1.8,1.8,1.8h16.3c1,0,1.8-0.8,1.8-1.8V13.9
			c0-1-0.8-1.8-1.8-1.8H11.2c-1,0-1.8,0.8-1.8,1.8v2.8c0,0.4-0.3,0.7-0.7,0.7S8,17.1,8,16.7v-2.8c0-1.8,1.5-3.3,3.3-3.3h16.3
			c1.8,0,3.3,1.5,3.3,3.3v16.3c0,1.8-1.5,3.3-3.3,3.3H11.2C9.4,33.5,8,32,8,30.2z"/>
	</g>
</g>
</svg>
