<svg xmlns="http://www.w3.org/2000/svg" width="138.354" height="89.703" viewBox="0 0 138.354 89.703">
  <g id="icon_nfp" transform="translate(-900 -600.905)">
    <g id="그룹_25" data-name="그룹 25" transform="translate(391.445 422.676)">
      <path id="패스_17" data-name="패스 17" d="M526.3,237.421h38.476a1.23,1.23,0,0,0,1.228-1.231V197.244c0-.039,0-.078-.006-.114v-.006h0a1.293,1.293,0,0,0-.039-.213h0v-.006a1.263,1.263,0,0,0-.3-.521l0,0-.006,0v0l0,0h0l0,0-13.131-13.263,0,0h0l0,0,0,0,0,0a1.1,1.1,0,0,0-.871-.353H526.3a1.23,1.23,0,0,0-1.228,1.228V236.19A1.23,1.23,0,0,0,526.3,237.421Zm26.57-50.463,8.96,9.049h-8.96ZM527.533,185.2h22.884v12.035a1.226,1.226,0,0,0,1.228,1.228h11.9v36.5H527.533Z" transform="translate(32.947 8.995)" fill="#8cbee6"/>
      <path id="패스_18" data-name="패스 18" d="M581.143,179.869a5.053,5.053,0,0,0-4.1,7.893l-14.5,16.571h-22.3a1.228,1.228,0,1,0,0,2.455H563.1a1.232,1.232,0,0,0,.925-.419l14.859-16.979a4.924,4.924,0,0,0,2.261.548,5.035,5.035,0,0,0,0-10.07Zm0,7.615a2.57,2.57,0,0,1-2.515-2.554,2.542,2.542,0,1,1,5.081,0A2.565,2.565,0,0,1,581.143,187.484Z" transform="translate(60.744 3.271)" fill="#8cbee6"/>
      <path id="패스_19" data-name="패스 19" d="M567.234,202.745a5,5,0,0,0-3.456,1.38l-9.112-5.851a1.212,1.212,0,0,0-.662-.195H540.239a1.228,1.228,0,1,0,0,2.455h13.4l8.819,5.663a4.963,4.963,0,0,0-.249,1.557,5,5,0,1,0,5.022-5.01Zm0,7.615a2.58,2.58,0,1,1,2.518-2.605A2.59,2.59,0,0,1,567.234,210.36Z" transform="translate(60.744 39.592)" fill="#8cbee6"/>
      <path id="패스_20" data-name="패스 20" d="M518.6,188.3a4.841,4.841,0,0,0,1.342-.189l9.9,17.209a1.232,1.232,0,0,0,1.066.617h13.763a1.229,1.229,0,0,0,0-2.458H531.613l-9.555-16.607a5.1,5.1,0,0,0,1.512-3.632A5,5,0,1,0,518.6,188.3Zm0-7.615a2.571,2.571,0,0,1,2.518,2.554A2.649,2.649,0,0,1,520,185.383a1.12,1.12,0,0,0-.171.084,1.162,1.162,0,0,0-.189.129,2.359,2.359,0,0,1-1.048.249,2.58,2.58,0,0,1,0-5.16Z" transform="translate(10.01 0)" fill="#8cbee6"/>
      <path id="패스_21" data-name="패스 21" d="M548.974,199.159a1.229,1.229,0,0,0,0-2.458H526.066a1.229,1.229,0,0,0-1.027.557l-6.944,10.589a4.914,4.914,0,0,0-1.659-.288,5,5,0,1,0,3.7,1.662l6.6-10.061Zm-32.538,16.014a2.58,2.58,0,1,1,2.518-2.6A2.587,2.587,0,0,1,516.436,215.174Z" transform="translate(5.702 36.842)" fill="#8cbee6"/>
      <path id="패스_22" data-name="패스 22" d="M588.228,215.132H559.834a5.117,5.117,0,0,0-3.7-3.731v-8.648a1.228,1.228,0,1,0-2.455,0V211.4a5.116,5.116,0,0,0-3.7,3.731H521.592a1.228,1.228,0,0,0,0,2.455h28.4a5.164,5.164,0,0,0,4.92,3.881,5.091,5.091,0,0,0,4.923-3.881h28.394a1.228,1.228,0,1,0,0-2.455Zm-33.316,3.881a2.671,2.671,0,0,1-2.617-2.653,2.639,2.639,0,0,1,2.617-2.653,2.606,2.606,0,0,1,2.614,2.653A2.637,2.637,0,0,1,554.911,219.013Z" transform="translate(23.553 46.463)" fill="#8cbee6"/>
      <path id="패스_23" data-name="패스 23" d="M574.675,194.24a5.031,5.031,0,0,0-4.869,3.785H540.239a1.228,1.228,0,1,0,0,2.456H569.8a5,5,0,1,0,4.872-6.241Zm0,7.618a2.58,2.58,0,1,1,2.518-2.605A2.589,2.589,0,0,1,574.675,201.858Z" transform="translate(60.744 31.934)" fill="#8cbee6"/>
      <path id="패스_24" data-name="패스 24" d="M554.676,198.2a1.228,1.228,0,1,0,0-2.455H518.4a5.016,5.016,0,1,0,0,2.455Zm-41.1,1.327a2.535,2.535,0,0,1-2.566-2.554,2.543,2.543,0,1,1,5.085,0A2.54,2.54,0,0,1,513.577,199.526Z" transform="translate(0 27.288)" fill="#8cbee6"/>
      <path id="패스_25" data-name="패스 25" d="M540.239,196.525h12.828a5.016,5.016,0,1,0,0-2.455H540.239a1.228,1.228,0,1,0,0,2.455Zm17.655-3.782a2.581,2.581,0,1,1-2.518,2.554A2.594,2.594,0,0,1,557.894,192.742Z" transform="translate(60.744 24.049)" fill="#8cbee6"/>
      <path id="패스_26" data-name="패스 26" d="M515.77,198a5.029,5.029,0,0,0,4.869-3.782h29.567a1.228,1.228,0,1,0,0-2.455H520.639A5,5,0,1,0,515.77,198Zm0-7.564a2.555,2.555,0,1,1-2.515,2.554A2.533,2.533,0,0,1,515.77,190.431Z" transform="translate(4.47 19.434)" fill="#8cbee6"/>
      <circle id="타원_2" data-name="타원 2" cx="3.964" cy="3.964" r="3.964" transform="translate(524.618 179.299)" fill="#8cbee6"/>
      <circle id="타원_3" data-name="타원 3" cx="3.964" cy="3.964" r="3.964" transform="translate(516.3 208.456)" fill="#8cbee6"/>
      <circle id="타원_4" data-name="타원 4" cx="3.964" cy="3.964" r="3.964" transform="translate(509.589 220.442)" fill="#8cbee6"/>
      <circle id="타원_5" data-name="타원 5" cx="3.964" cy="3.964" r="3.964" transform="translate(518.149 245.472)" fill="#8cbee6"/>
      <circle id="타원_6" data-name="타원 6" cx="3.964" cy="3.964" r="3.964" transform="translate(574.522 258.859)" fill="#8cbee6"/>
      <circle id="타원_7" data-name="타원 7" cx="3.964" cy="3.964" r="3.964" transform="translate(623.989 243.409)" fill="#8cbee6"/>
      <circle id="타원_8" data-name="타원 8" cx="3.964" cy="3.964" r="3.964" transform="translate(631.431 227.247)" fill="#8cbee6"/>
      <circle id="타원_9" data-name="타원 9" cx="3.964" cy="3.964" r="3.964" transform="translate(614.698 215.234)" fill="#8cbee6"/>
      <circle id="타원_10" data-name="타원 10" cx="3.964" cy="3.964" r="3.964" transform="translate(638.478 184.211)" fill="#8cbee6"/>
    </g>
    <text id="_" data-name="***" transform="translate(969 653)" fill="#fff" font-size="16" font-family="Poppins-Regular, Poppins"><tspan x="-11.664" y="0">***</tspan></text>
  </g>
</svg>
