<svg xmlns="http://www.w3.org/2000/svg" width="20" height="19.998" viewBox="0 0 20 19.998">
    <path data-name="icon lang" d="M81.989 33.493a10.061 10.061 0 0 0-1.939-5.915l-.1-.135h.007l-.251-.3a9.97 9.97 0 0 0-7.719-3.642 10.092 10.092 0 0 0-2.2.243c-.208.047-.428.106-.7.187a9.964 9.964 0 0 0-4.821 3.212l-.251.3h.007l-.1.135a9.989 9.989 0 0 0 0 11.828l.1.135h-.007l.249.3a9.97 9.97 0 0 0 7.719 3.642 10.118 10.118 0 0 0 1.662-.137 9.92 9.92 0 0 0 5.3-2.685 10.043 10.043 0 0 0 .757-.821l.251-.3h-.007l.1-.135a10.064 10.064 0 0 0 1.943-5.912zm-16.76-6.351c.063-.067.129-.134.194-.2l.047-.047a5.037 5.037 0 0 1 .391-.367l.05-.046c.122-.107.251-.213.383-.314l.063-.047.044-.033a5.92 5.92 0 0 1 .288-.212l.1-.067.06-.039c.083-.055.168-.112.252-.164l.12-.073.049-.028c.083-.049.168-.1.254-.147.047-.026.1-.05.145-.077l.036-.02.254-.129c.06-.029.122-.057.19-.088a7.145 7.145 0 0 1 .457-.192l.22-.083.177.262a8.546 8.546 0 0 0-1.359 2.183c-.124.277-.244.583-.357.907l-.054.153-.155-.054a10.3 10.3 0 0 1-1.81-.83l-.174-.1zm-2.5 5.816a9.248 9.248 0 0 1 1.807-4.987l.088-.12.127.078a10.963 10.963 0 0 0 2.123.99l.143.049-.039.147a16.8 16.8 0 0 0-.549 3.859v.158H62.72zm2.022 6.1-.127.078-.088-.12a9.248 9.248 0 0 1-1.807-4.989l-.01-.171h3.706v.158a16.816 16.816 0 0 0 .549 3.859l.039.147-.143.049a10.867 10.867 0 0 0-2.118.987zm4.07 3.154-.22-.081c-.073-.027-.132-.052-.2-.08a8.54 8.54 0 0 1-.267-.117c-.06-.028-.12-.055-.181-.085a7.417 7.417 0 0 1-.252-.127l-.034-.018-.148-.078c-.086-.047-.169-.1-.254-.147l-.05-.031a3.387 3.387 0 0 1-.119-.07c-.086-.054-.171-.111-.26-.169l-.052-.034-.1-.067a5.592 5.592 0 0 1-.288-.21l-.042-.033-.065-.049a6.349 6.349 0 0 1-.383-.314l-.055-.049c-.1-.093-.208-.187-.309-.287q-.042-.039-.078-.078l-.047-.047c-.063-.065-.129-.13-.192-.2l-.138-.148.174-.1a10.3 10.3 0 0 1 1.81-.83l.155-.054.054.153c.112.324.233.63.357.907A8.546 8.546 0 0 0 69 41.95zm2.805.539-.2-.046c-1.211-.275-2.322-1.423-3.128-3.232a11.538 11.538 0 0 1-.321-.808l-.059-.168.171-.044a15.337 15.337 0 0 1 3.367-.474h.168zm0-5.5h-.158a16.016 16.016 0 0 0-3.6.51l-.156.041-.042-.156a16.073 16.073 0 0 1-.513-3.627v-.168h4.477zm0-4.121H67.15v-.168a16.073 16.073 0 0 1 .513-3.627l.042-.158.156.042a16.016 16.016 0 0 0 3.6.51h.158zm0-4.119h-.168a15.337 15.337 0 0 1-3.367-.474l-.171-.044.059-.168c.1-.29.212-.562.321-.808.806-1.81 1.916-2.957 3.128-3.232l.2-.046zm7.6-1.083.127-.078.09.12a9.259 9.259 0 0 1 1.806 4.987l.01.173h-3.707v-.158A16.8 16.8 0 0 0 77 29.113l-.039-.147.143-.049a10.963 10.963 0 0 0 2.122-.989zm-4.07-3.155.217.081c.068.028.137.054.2.083.085.034.168.072.251.109l.2.091.247.125.034.018a7.26 7.26 0 0 1 .4.223l.05.029.125.075c.083.052.164.107.254.166l.054.036.1.068c.094.067.187.137.28.207l.044.033c.024.016.049.034.072.052.13.1.259.208.381.314l.054.049a6.996 6.996 0 0 1 .389.364l.044.046.2.2.14.148-.176.1a10.3 10.3 0 0 1-1.81.83l-.153.054-.054-.153c-.114-.324-.234-.63-.358-.907a8.546 8.546 0 0 0-1.359-2.183zm-2.805-.537.2.046c1.211.274 2.322 1.421 3.128 3.232.109.246.218.518.321.808l.059.168-.171.044a15.337 15.337 0 0 1-3.367.474h-.168zm0 5.5h.158a16.016 16.016 0 0 0 3.6-.51l.158-.042.041.158a16.06 16.06 0 0 1 .513 3.627v.168H72.35zm0 4.121h4.477v.168a16.073 16.073 0 0 1-.513 3.627l-.041.156-.158-.041a16.016 16.016 0 0 0-3.6-.51h-.158zm.2 8.849-.2.046v-4.778h.168a15.337 15.337 0 0 1 3.367.474l.171.044-.057.172c-.1.29-.212.562-.321.808-.808 1.81-1.919 2.956-3.13 3.228zm6.2-2.862a7.343 7.343 0 0 1-.194.2l-.044.046c-.026.026-.052.054-.08.08-.1.094-.2.186-.3.277l-.063.059c-.122.106-.251.21-.381.313-.024.02-.049.037-.075.055l-.047.034c-.091.068-.181.137-.274.2l-.109.073-.063.042c-.078.052-.156.1-.236.153-.044.028-.088.052-.132.078l-.05.029-.241.14-.158.083-.033.018-.244.124c-.081.041-.132.062-.2.091-.083.037-.164.075-.249.109-.067.029-.135.055-.2.083s-.143.054-.217.08l-.177-.261a8.546 8.546 0 0 0 1.359-2.183c.124-.278.244-.583.358-.907l.054-.153.153.054a10.3 10.3 0 0 1 1.81.83l.176.1zm.694-.827-.09.12-.127-.078a10.867 10.867 0 0 0-2.123-.99l-.143-.049.038-.149a16.8 16.8 0 0 0 .549-3.859v-.158h3.706l-.01.171a9.26 9.26 0 0 1-1.802 4.989z" transform="translate(-61.989 -23.493)" style="fill:#fff"/>
</svg>
