<svg xmlns="http://www.w3.org/2000/svg" width="99" height="110.028" viewBox="0 0 99 110.028">
  <g id="icon_mw" transform="translate(-2263.139 -961.562)">
    <g id="그룹_23" data-name="그룹 23" transform="translate(2270.047 968.469)">
      <path id="패스_5" data-name="패스 5" d="M2362.96,1049.968v-49.181L2320.367,976.2l-42.592,24.591v49.181l42.592,24.591Z" transform="translate(-2277.775 -976.196)" fill="none" stroke="#2b53e2" stroke-miterlimit="10" stroke-width="1"/>
      <path id="패스_6" data-name="패스 6" d="M2277.775,1028.3h85.185l-42.593,73.772Z" transform="translate(-2277.775 -1003.706)" fill="none" stroke="#2b53e2" stroke-miterlimit="10" stroke-width="1"/>
      <path id="패스_7" data-name="패스 7" d="M2320.367,976.2l-42.593,73.772h85.185Z" transform="translate(-2277.775 -976.196)" fill="none" stroke="#2b53e2" stroke-miterlimit="10" stroke-width="1"/>
      <line id="선_1" data-name="선 1" x2="85.185" y2="49.181" transform="translate(0 24.591)" fill="none" stroke="#2b53e2" stroke-miterlimit="10" stroke-width="1"/>
      <line id="선_2" data-name="선 2" y1="49.181" x2="85.185" transform="translate(0 24.591)" fill="none" stroke="#2b53e2" stroke-miterlimit="10" stroke-width="1"/>
      <line id="선_3" data-name="선 3" y1="98.363" transform="translate(42.593 0)" fill="none" stroke="#2b53e2" stroke-miterlimit="10" stroke-width="1"/>
    </g>
    <path id="패스_8" data-name="패스 8" d="M2398.219,1127.174a4.759,4.759,0,1,1-4.759-4.758,4.758,4.758,0,0,1,4.759,4.758" transform="translate(-66.299 -84.933)" fill="#d4d4d4"/>
    <path id="패스_9" data-name="패스 9" d="M2337.84,1022.973a4.759,4.759,0,1,1-4.758-4.758,4.758,4.758,0,0,1,4.758,4.758" transform="translate(-34.418 -29.914)" fill="#d4d4d4"/>
    <path id="패스_10" data-name="패스 10" d="M2367.168,1072.419a7.132,7.132,0,1,1-7.132-7.132,7.132,7.132,0,0,1,7.132,7.132" transform="translate(-47.397 -54.768)" fill="#2b53e2"/>
    <path id="패스_11" data-name="패스 11" d="M2367.45,1179.275a4.759,4.759,0,1,1-4.758-4.759,4.758,4.758,0,0,1,4.758,4.759" transform="translate(-50.053 -112.443)" fill="#2b53e2"/>
    <path id="패스_12" data-name="패스 12" d="M2457.691,1022.973a4.759,4.759,0,1,1-4.758-4.758,4.758,4.758,0,0,1,4.758,4.758" transform="translate(-97.701 -29.914)" fill="#2b53e2"/>
    <path id="패스_13" data-name="패스 13" d="M2277.209,1022.973a4.759,4.759,0,1,1-4.759-4.758,4.758,4.758,0,0,1,4.759,4.758" transform="translate(-2.404 -29.914)" fill="#2b53e2"/>
    <path id="패스_14" data-name="패스 14" d="M2457.436,1124.77a6.907,6.907,0,1,1-6.907-6.907,6.906,6.906,0,0,1,6.907,6.907" transform="translate(-95.297 -82.529)" fill="#8cbee6"/>
    <path id="패스_15" data-name="패스 15" d="M2276.954,1124.77a6.907,6.907,0,1,1-6.908-6.907,6.907,6.907,0,0,1,6.908,6.907" transform="translate(0 -82.529)" fill="#8cbee6"/>
    <path id="패스_16" data-name="패스 16" d="M2367.2,968.469a6.908,6.908,0,1,1-6.907-6.907,6.907,6.907,0,0,1,6.907,6.907" transform="translate(-47.65)" fill="#8cbee6"/>
  </g>
</svg>
