<svg xmlns="http://www.w3.org/2000/svg" width="104" height="87" viewBox="0 0 104 87">
  <g id="service_did" transform="translate(-61 -38)">
    <g id="사각형_37" data-name="사각형 37" transform="translate(61 38)" fill="#fff" stroke="#707070" stroke-width="1" opacity="0">
      <rect width="104" height="87" stroke="none"/>
      <rect x="0.5" y="0.5" width="103" height="86" fill="none"/>
    </g>
    <g id="그룹_67" data-name="그룹 67" transform="translate(346.095 -286.68)">
      <g id="그룹_54" data-name="그룹 54">
        <rect id="사각형_25" data-name="사각형 25" width="24.636" height="23.026" transform="translate(-246.888 383.309)" fill="none" stroke="#14316a" stroke-linejoin="round" stroke-width="2"/>
        <path id="패스_922" data-name="패스 922" d="M-234.49,383.309v-2.65a1.742,1.742,0,0,0-1.741-1.741H-239.4a1.741,1.741,0,0,1-1.741-1.741h0a1.742,1.742,0,0,1,1.741-1.741h10.192a1.74,1.74,0,0,0,1.741-1.741v-.23a1.741,1.741,0,0,0-1.741-1.741h-3.355a1.741,1.741,0,0,1-1.741-1.741V364.53" fill="none" stroke="#14316a" stroke-linejoin="round" stroke-width="2"/>
        <rect id="사각형_27" data-name="사각형 27" width="3.423" height="3.423" transform="translate(-242.169 387.392)" fill="none" stroke="#14316a" stroke-linejoin="round" stroke-width="2"/>
        <rect id="사각형_28" data-name="사각형 28" width="3.423" height="3.423" transform="translate(-236.033 387.392)" fill="none" stroke="#14316a" stroke-linejoin="round" stroke-width="2"/>
        <rect id="사각형_29" data-name="사각형 29" width="3.423" height="3.423" transform="translate(-229.897 387.392)" fill="none" stroke="#14316a" stroke-linejoin="round" stroke-width="2"/>
        <rect id="사각형_30" data-name="사각형 30" width="3.423" height="3.423" transform="translate(-242.169 393.245)" fill="none" stroke="#14316a" stroke-linejoin="round" stroke-width="2"/>
        <rect id="사각형_31" data-name="사각형 31" width="3.423" height="3.423" transform="translate(-236.033 393.245)" fill="none" stroke="#14316a" stroke-linejoin="round" stroke-width="2"/>
        <rect id="사각형_32" data-name="사각형 32" width="3.423" height="3.423" transform="translate(-229.897 393.245)" fill="none" stroke="#14316a" stroke-linejoin="round" stroke-width="2"/>
        <rect id="사각형_33" data-name="사각형 33" width="3.423" height="3.423" transform="translate(-242.169 399.098)" fill="none" stroke="#14316a" stroke-linejoin="round" stroke-width="2"/>
        <rect id="사각형_34" data-name="사각형 34" width="3.423" height="3.423" transform="translate(-236.033 399.098)" fill="none" stroke="#14316a" stroke-linejoin="round" stroke-width="2"/>
        <rect id="사각형_35" data-name="사각형 35" width="3.423" height="3.423" transform="translate(-229.897 399.098)" fill="none" stroke="#14316a" stroke-linejoin="round" stroke-width="2"/>
      </g>
      <rect id="사각형_36" data-name="사각형 36" width="51.488" height="36.938" transform="translate(-259.955 329.68)" fill="none" stroke="#14316a" stroke-linejoin="round" stroke-width="2"/>
      <line id="선_4" data-name="선 4" x2="7.607" transform="translate(-251.369 355.997)" fill="none" stroke="#14316a" stroke-linejoin="round" stroke-width="2"/>
      <line id="선_5" data-name="선 5" x2="7.607" transform="translate(-242.202 355.997)" fill="none" stroke="#14316a" stroke-linejoin="round" stroke-width="2"/>
      <line id="선_6" data-name="선 6" x2="7.607" transform="translate(-233.035 355.997)" fill="none" stroke="#14316a" stroke-linejoin="round" stroke-width="2"/>
      <line id="선_7" data-name="선 7" x2="7.607" transform="translate(-223.868 355.997)" fill="none" stroke="#14316a" stroke-linejoin="round" stroke-width="2"/>
      <circle id="타원_17" data-name="타원 17" cx="2.616" cy="2.616" r="2.616" transform="translate(-280.096 343.489)" fill="none" stroke="#14316a" stroke-linejoin="round" stroke-width="2"/>
      <circle id="타원_18" data-name="타원 18" cx="2.616" cy="2.616" r="2.616" transform="translate(-279.013 382.159)" fill="none" stroke="#14316a" stroke-linejoin="round" stroke-width="2"/>
      <g id="그룹_58" data-name="그룹 58">
        <g id="그룹_57" data-name="그룹 57">
          <g id="그룹_55" data-name="그룹 55">
            <line id="선_8" data-name="선 8" y2="6.77" transform="translate(-275.227 362.857)" fill="none" stroke="#14316a" stroke-miterlimit="10" stroke-width="2"/>
          </g>
          <g id="그룹_56" data-name="그룹 56">
            <line id="선_9" data-name="선 9" x2="6.77" transform="translate(-278.612 366.242)" fill="none" stroke="#14316a" stroke-miterlimit="10" stroke-width="2"/>
          </g>
        </g>
      </g>
      <circle id="타원_19" data-name="타원 19" cx="2.616" cy="2.616" r="2.616" transform="translate(-197.298 364.53)" fill="none" stroke="#14316a" stroke-linejoin="round" stroke-width="2"/>
      <g id="그룹_62" data-name="그룹 62">
        <g id="그룹_61" data-name="그룹 61">
          <g id="그룹_59" data-name="그룹 59">
            <line id="선_10" data-name="선 10" y2="6.77" transform="translate(-189.54 347.89)" fill="none" stroke="#14316a" stroke-miterlimit="10" stroke-width="2"/>
          </g>
          <g id="그룹_60" data-name="그룹 60">
            <line id="선_11" data-name="선 11" x2="6.77" transform="translate(-192.925 351.275)" fill="none" stroke="#14316a" stroke-miterlimit="10" stroke-width="2"/>
          </g>
        </g>
      </g>
      <g id="그룹_66" data-name="그룹 66">
        <g id="그룹_65" data-name="그룹 65">
          <g id="그룹_63" data-name="그룹 63">
            <line id="선_12" data-name="선 12" y2="6.77" transform="translate(-193.912 381.39)" fill="none" stroke="#14316a" stroke-miterlimit="10" stroke-width="2"/>
          </g>
          <g id="그룹_64" data-name="그룹 64">
            <line id="선_13" data-name="선 13" x2="6.77" transform="translate(-197.298 384.775)" fill="none" stroke="#14316a" stroke-miterlimit="10" stroke-width="2"/>
          </g>
        </g>
      </g>
      <path id="패스_923" data-name="패스 923" d="M-85.393,119.424l-.386-.48-.387.48a5.315,5.315,0,0,1-4.321,1.984v5.034c0,2.124,1.241,4.722,3.173,5.6l1.534.7,1.533-.7c1.933-.88,3.173-3.478,3.173-5.6v-5.034A5.315,5.315,0,0,1-85.393,119.424Z" transform="translate(-147.716 215.918)" fill="none" stroke="#14316a" stroke-linejoin="round" stroke-width="2"/>
    </g>
  </g>
</svg>
