<svg xmlns="http://www.w3.org/2000/svg" width="67" height="78" viewBox="0 0 67 78">
  <path id="icon_audit" d="M-657.232,681.888l-21.93,0a2.476,2.476,0,0,1-1.768-.737,2.512,2.512,0,0,1-.732-1.777v-58.3a2.519,2.519,0,0,1,.732-1.78,2.485,2.485,0,0,1,1.768-.734h31.544L-640.21,626l7.408,7.444V653.3a1.276,1.276,0,0,0,1.273,1.278,1.275,1.275,0,0,0,1.271-1.278V632.92a1.284,1.284,0,0,0-.373-.9l-7.781-7.822-7.781-7.821a1.278,1.278,0,0,0-.9-.374h-32.069a5.033,5.033,0,0,0-3.566,1.483,5.075,5.075,0,0,0-1.477,3.587l0,26.307v32a5.091,5.091,0,0,0,1.477,3.586,5.024,5.024,0,0,0,3.568,1.484l21.93,0a1.275,1.275,0,0,0,1.272-1.279A1.275,1.275,0,0,0-657.232,681.888Zm21.079-48.969a1.276,1.276,0,0,0-1.272-1.278h-5.895a2.48,2.48,0,0,1-1.77-.736,2.512,2.512,0,0,1-.732-1.776V623.2a1.274,1.274,0,0,0-1.271-1.278,1.275,1.275,0,0,0-1.272,1.278v5.925a5.068,5.068,0,0,0,1.478,3.584,5.017,5.017,0,0,0,3.566,1.485h5.895A1.276,1.276,0,0,0-636.153,632.919Zm17.639,53.434-8.381-8.422a15.471,15.471,0,0,0,1.807-7.264,15.4,15.4,0,0,0-4.487-10.893,15.245,15.245,0,0,0-10.841-4.514,15.244,15.244,0,0,0-10.841,4.514h0a15.407,15.407,0,0,0-4.489,10.9,15.416,15.416,0,0,0,4.489,10.9,15.248,15.248,0,0,0,10.841,4.511,15.282,15.282,0,0,0,7.224-1.817l8.382,8.426a4.446,4.446,0,0,0,3.152,1.31h.007a4.441,4.441,0,0,0,3.141-1.309,4.486,4.486,0,0,0,1.306-3.17A4.468,4.468,0,0,0-618.513,686.353Zm-15.145-4.769a12.742,12.742,0,0,1-6.761,1.938,12.7,12.7,0,0,1-9.04-3.761,12.85,12.85,0,0,1-3.747-9.091,12.844,12.844,0,0,1,3.745-9.087l-.9-.906.9.9a12.7,12.7,0,0,1,9.043-3.764,12.692,12.692,0,0,1,9.043,3.767,12.824,12.824,0,0,1,3.743,9.084,12.889,12.889,0,0,1-1.93,6.8,12.805,12.805,0,0,1-1.813,2.3A12.909,12.909,0,0,1-633.658,681.584Zm13.346,9.3a1.91,1.91,0,0,1-1.35.56,1.9,1.9,0,0,1-1.354-.562l-8-8.04c.024-.018.046-.039.07-.057.045-.036.088-.075.133-.112a14.746,14.746,0,0,0,1.225-1.1l.009-.009.007-.008a15.268,15.268,0,0,0,1.1-1.237c.034-.043.07-.083.1-.125.019-.026.041-.049.06-.073l8,8.036a1.9,1.9,0,0,1,.559,1.359A1.918,1.918,0,0,1-620.311,690.883Zm-13.768-26.442a1.274,1.274,0,0,0-1.272,1.278v8.519a1.275,1.275,0,0,0,1.272,1.278,1.274,1.274,0,0,0,1.271-1.278V665.72A1.273,1.273,0,0,0-634.079,664.441Zm-11.879,5.335a1.277,1.277,0,0,0-1.272,1.279v3.183a1.276,1.276,0,0,0,1.272,1.278,1.276,1.276,0,0,0,1.273-1.278v-3.183A1.277,1.277,0,0,0-645.958,669.776Zm5.939-2.666a1.273,1.273,0,0,0-1.271,1.277v5.851a1.275,1.275,0,0,0,1.271,1.278,1.275,1.275,0,0,0,1.272-1.278v-5.851A1.274,1.274,0,0,0-640.019,667.11Zm-1.558-25.81a1.274,1.274,0,0,0-1.271-1.278H-665.2a1.273,1.273,0,0,0-1.272,1.278,1.274,1.274,0,0,0,1.272,1.279h22.353A1.275,1.275,0,0,0-641.577,641.3Zm-30.5-4.446A4.438,4.438,0,0,0-676.5,641.3a4.439,4.439,0,0,0,4.425,4.448,4.439,4.439,0,0,0,4.424-4.448A4.437,4.437,0,0,0-672.079,636.855Zm0,6.337a1.887,1.887,0,0,1-1.88-1.891,1.886,1.886,0,0,1,1.88-1.89,1.888,1.888,0,0,1,1.879,1.89A1.887,1.887,0,0,1-672.079,643.192Zm0,6.3a4.437,4.437,0,0,0-4.423,4.447,4.438,4.438,0,0,0,4.423,4.448,4.439,4.439,0,0,0,4.425-4.448A4.439,4.439,0,0,0-672.08,649.487Zm0,6.337a1.887,1.887,0,0,1-1.879-1.89,1.887,1.887,0,0,1,1.879-1.89,1.887,1.887,0,0,1,1.881,1.89A1.888,1.888,0,0,1-672.08,655.824Zm19.812-1.889a1.274,1.274,0,0,0-1.272-1.279H-665.2a1.274,1.274,0,0,0-1.272,1.279,1.275,1.275,0,0,0,1.272,1.278h11.662A1.275,1.275,0,0,0-652.268,653.935ZM-676.5,666.566a4.437,4.437,0,0,0,4.423,4.447,4.436,4.436,0,0,0,4.423-4.447,4.434,4.434,0,0,0-4.423-4.447A4.435,4.435,0,0,0-676.5,666.566Zm6.3,0a1.889,1.889,0,0,1-1.881,1.89,1.889,1.889,0,0,1-1.881-1.89,1.89,1.89,0,0,1,1.881-1.891A1.89,1.89,0,0,1-670.2,666.566Zm5-1.277a1.273,1.273,0,0,0-1.272,1.278,1.275,1.275,0,0,0,1.272,1.279h6.16a1.276,1.276,0,0,0,1.271-1.279,1.274,1.274,0,0,0-1.271-1.278Z" transform="translate(684.207 -615.999)" fill="#14316a"/>
</svg>
