<svg xmlns="http://www.w3.org/2000/svg" width="225.262" height="178.775" viewBox="0 0 225.262 178.775">
  <g id="그룹_169" data-name="그룹 169" transform="translate(-842 -2038.279)">
    <path id="패스_103" data-name="패스 103" d="M1293.081,575.311a19.879,19.879,0,0,0-9.035-4.571l.042.049-2.638-2.9-.014.009a6.4,6.4,0,0,1-.817-1.815h0a17.982,17.982,0,0,0,1.43-1.263c1.543-1.513,3.753-4.287,4-6.617a13.236,13.236,0,0,0,2.947-4.4,4.546,4.546,0,0,0-.171-4.118,3.273,3.273,0,0,0-1.152-1.053c.559-3.554,1.384-15.359-12.389-15.359-16.215,0-12.9,10.448-12.9,13.093a4.424,4.424,0,0,0,.4,2.323,3.275,3.275,0,0,0-1.053,1,4.547,4.547,0,0,0-.171,4.118,13.242,13.242,0,0,0,2.949,4.4c.242,2.33,2.45,5.1,3.993,6.617a17.949,17.949,0,0,0,1.545,1.351l-.035-.023a7.262,7.262,0,0,1-.908,1.744l.037.025-.041-.028-2.638,2.9.042-.049a19.874,19.874,0,0,0-9.033,4.571,17.085,17.085,0,0,0-5.146,13.52h45.9a17.087,17.087,0,0,0-5.144-13.52" transform="translate(-410.276 1628.224)" fill="#a5a5a5" fill-rule="evenodd"/>
    <g id="그룹_156" data-name="그룹 156" transform="translate(-444.322 1577.394)">
      <path id="패스_96" data-name="패스 96" d="M1321.963,557V555.1a4.607,4.607,0,0,0-3.155-4.372l-3.617-1.2a4.6,4.6,0,0,1-3.14-3.986l-.278-3.319h-4.9l-.279,3.319a4.6,4.6,0,0,1-3.139,3.986l-3.617,1.2a4.606,4.606,0,0,0-3.155,4.372V557" fill="#fff" stroke="#000" stroke-linejoin="bevel" stroke-width="1.5"/>
      <rect id="사각형_90" data-name="사각형 90" width="9.734" height="14.154" rx="4.867" transform="translate(1304.455 530.891)" fill="#fff" stroke="#000" stroke-linejoin="bevel" stroke-width="1.5"/>
    </g>
    <g id="그룹_155" data-name="그룹 155" transform="translate(-634.433 1767.82)">
      <path id="패스_97" data-name="패스 97" d="M1512.654,278.218H1489.7l11.475-7.01Z" fill="#fff" stroke="#000" stroke-linejoin="bevel" stroke-width="1.5"/>
      <rect id="사각형_91" data-name="사각형 91" width="30.332" height="3.584" transform="translate(1486.012 294.595)" fill="#fff" stroke="#000" stroke-linejoin="bevel" stroke-width="1.5"/>
      <rect id="사각형_92" data-name="사각형 92" width="30.332" height="3.584" transform="translate(1486.012 278.218)" fill="#fff" stroke="#000" stroke-linejoin="bevel" stroke-width="1.5"/>
      <rect id="사각형_93" data-name="사각형 93" width="3.301" height="12.793" transform="translate(1488.861 281.802)" fill="#fff" stroke="#000" stroke-linejoin="bevel" stroke-width="1.5"/>
      <rect id="사각형_94" data-name="사각형 94" width="3.301" height="12.793" transform="translate(1496.241 281.802)" fill="#fff" stroke="#000" stroke-linejoin="bevel" stroke-width="1.5"/>
      <rect id="사각형_95" data-name="사각형 95" width="3.301" height="12.793" transform="translate(1503.622 281.802)" fill="#fff" stroke="#000" stroke-linejoin="bevel" stroke-width="1.5"/>
      <rect id="사각형_96" data-name="사각형 96" width="3.301" height="12.793" transform="translate(1511.003 281.802)" fill="#fff" stroke="#000" stroke-linejoin="bevel" stroke-width="1.5"/>
    </g>
    <g id="그룹_159" data-name="그룹 159" transform="translate(-1331.491 1966.402)">
      <path id="패스_98" data-name="패스 98" d="M2393.64,90.986h-20.731l-3.325-15.021h27.38Z" fill="#fff" stroke="#000" stroke-linejoin="bevel" stroke-width="1.5"/>
      <path id="패스_99" data-name="패스 99" d="M2372.909,90.986l-4.064-18.36h-4.265" fill="#fff" stroke="#000" stroke-linejoin="bevel" stroke-width="1.5"/>
      <circle id="타원_44" data-name="타원 44" cx="1.913" cy="1.913" r="1.913" transform="translate(2372.909 93.481)" fill="#fff" stroke="#000" stroke-linejoin="bevel" stroke-width="1.5"/>
      <circle id="타원_45" data-name="타원 45" cx="1.913" cy="1.913" r="1.913" transform="translate(2389.923 93.481)" fill="#fff" stroke="#000" stroke-linejoin="bevel" stroke-width="1.5"/>
      <line id="선_54" data-name="선 54" y2="7.244" transform="translate(2383.274 79.926)" fill="#fff" stroke="#000" stroke-linejoin="bevel" stroke-width="1.5"/>
      <line id="선_55" data-name="선 55" x2="0.868" y2="7.244" transform="translate(2377.223 79.926)" fill="#fff" stroke="#000" stroke-linejoin="bevel" stroke-width="1.5"/>
      <line id="선_56" data-name="선 56" x1="0.868" y2="7.244" transform="translate(2388.457 79.926)" fill="#fff" stroke="#000" stroke-linejoin="bevel" stroke-width="1.5"/>
    </g>
    <g id="그룹_158" data-name="그룹 158" transform="translate(-379.951 1848.101)">
      <rect id="사각형_98" data-name="사각형 98" width="34.462" height="22.788" transform="translate(1412.001 267.61)" fill="#fff" stroke="#000" stroke-linejoin="bevel" stroke-width="1.5"/>
      <rect id="사각형_99" data-name="사각형 99" width="7.482" height="6.619" transform="translate(1425.491 290.398)" fill="#fff" stroke="#000" stroke-linejoin="bevel" stroke-width="1.5"/>
      <line id="선_58" data-name="선 58" x2="17.273" transform="translate(1420.595 297.017)" fill="#fff" stroke="#000" stroke-linejoin="bevel" stroke-width="1.5"/>
      <rect id="사각형_100" data-name="사각형 100" width="34.462" height="19.051" transform="translate(1412.001 267.61)" fill="#fff" stroke="#000" stroke-linejoin="bevel" stroke-width="1.5"/>
    </g>
    <line id="선_69" data-name="선 69" x2="150.371" y2="68.5" transform="translate(882.129 2062)" fill="none" stroke="#4c5c7e" stroke-width="1"/>
    <line id="선_70" data-name="선 70" y1="79" x2="163" transform="translate(877.5 2051.5)" fill="none" stroke="#4c5c7e" stroke-width="1"/>
    <line id="선_71" data-name="선 71" y1="20" transform="translate(960.5 2161.5)" fill="none" stroke="#4c5c7e" stroke-width="1"/>
    <g id="그룹_157" data-name="그룹 157" transform="translate(-400.195 1911.73)">
      <path id="패스_100" data-name="패스 100" d="M1375.195,292.8c0,8.285-6.716,6.924-15,6.924s-15,1.361-15-6.924a15,15,0,0,1,30,0Z" fill="#fff" stroke="#000" stroke-linejoin="bevel" stroke-width="1.5"/>
      <rect id="사각형_97" data-name="사각형 97" width="16.154" height="3.462" transform="translate(1352.118 275.497)" fill="#fff" stroke="#000" stroke-linejoin="bevel" stroke-width="1.5"/>
      <path id="패스_101" data-name="패스 101" d="M1367.069,275.5h-13.748l-3.511-5.769h20.769Z" fill="#fff" stroke="#000" stroke-linejoin="bevel" stroke-width="1.5"/>
      <path id="패스_102" data-name="패스 102" d="M1363.8,286.133h-5.4a1.8,1.8,0,0,0-1.8,1.8h0a1.8,1.8,0,0,0,1.8,1.8h3.6a1.8,1.8,0,0,1,1.8,1.8h0a1.8,1.8,0,0,1-1.8,1.8h-5.4" fill="#fff" stroke="#000" stroke-linejoin="bevel" stroke-width="1.5"/>
      <line id="선_57" data-name="선 57" y2="12" transform="translate(1360.195 283.733)" fill="#fff" stroke="#000" stroke-linejoin="bevel" stroke-width="1.5"/>
    </g>
    <circle id="타원_46" data-name="타원 46" cx="57.5" cy="57.5" r="57.5" transform="translate(900 2047)" fill="#4c5c7e"/>
    <g id="그룹_165" data-name="그룹 165" transform="translate(192.057 1406.324)">
      <path id="path2998" d="M750.892,662.222h-6.6v1.957h4.678c-.231,2.745-2.514,3.915-4.67,3.915a5.228,5.228,0,0,1,.006-10.455,5.078,5.078,0,0,1,3.527,1.415l1.37-1.419a6.966,6.966,0,0,0-4.967-1.959,7.191,7.191,0,1,0,.1,14.38,6.331,6.331,0,0,0,6.668-6.537,5.847,5.847,0,0,0-.12-1.3Z" fill="#fff"/>
      <path id="path3000" d="M756.295,660.8a4.622,4.622,0,1,0,4.638,4.638,4.567,4.567,0,0,0-4.638-4.638Zm.027,1.816a2.812,2.812,0,1,1-2.644,2.8,2.658,2.658,0,0,1,2.644-2.8Z" fill="#fff"/>
      <path id="path3005" d="M766.4,660.8a4.622,4.622,0,1,0,4.638,4.638A4.567,4.567,0,0,0,766.4,660.8Zm.027,1.816a2.812,2.812,0,1,1-2.645,2.8,2.657,2.657,0,0,1,2.645-2.8Z" fill="#fff"/>
      <path id="path3007" d="M776.311,660.809a4.627,4.627,0,0,0-.043,9.245,3.054,3.054,0,0,0,2.535-1.123v.911a2.319,2.319,0,0,1-2.429,2.549,2.562,2.562,0,0,1-2.366-1.645l-1.777.743a4.448,4.448,0,0,0,4.157,2.721c2.47,0,4.353-1.555,4.353-4.818v-8.305H778.8v.783a3.27,3.27,0,0,0-2.492-1.061Zm.18,1.812a2.614,2.614,0,0,1,2.469,2.816,2.583,2.583,0,0,1-2.5,2.8,2.626,2.626,0,0,1-2.557-2.783,2.664,2.664,0,0,1,2.584-2.833Z" fill="#fff"/>
      <path id="path3011" d="M789.356,660.8a4.371,4.371,0,0,0-4.311,4.616,4.47,4.47,0,0,0,4.536,4.637,4.689,4.689,0,0,0,3.872-2.028l-1.6-1.063a2.588,2.588,0,0,1-2.265,1.272,2.378,2.378,0,0,1-2.267-1.4l6.2-2.571-.321-.753a4.185,4.185,0,0,0-3.843-2.709Zm.081,1.778a1.843,1.843,0,0,1,1.71.987l-4.138,1.73a2.566,2.566,0,0,1,2.428-2.717Z" fill="#fff"/>
      <path id="path3015" d="M782.091,669.777h2.036V656.154h-2.036Z" fill="#fff"/>
    </g>
    <g id="그룹_166" data-name="그룹 166" transform="translate(829.071 1958.474)">
      <path id="패스_105" data-name="패스 105" d="M130.862,133.319a3.426,3.426,0,0,0-1.516.408v4.666a9.606,9.606,0,0,0,1.092.042c1.484,0,1.687-.679,1.687-1.626v-2.229c0-.7-.232-1.261-1.263-1.261m-9.853-.255c-1.03,0-1.264.564-1.264,1.263v.392h2.528v-.392c0-.7-.235-1.263-1.263-1.263m-19.087,4.857a.737.737,0,0,0,.838.839,3.074,3.074,0,0,0,1.436-.408v-1.106h-1.352c-.641,0-.921.118-.921.675m38.525-4.6c-1.031,0-1.388.562-1.388,1.261v2.554c0,.7.358,1.265,1.388,1.265s1.388-.563,1.388-1.265v-2.554c0-.7-.36-1.261-1.388-1.261m-43.578,7.465h-3.03v-7.326H92.323v-2.525h1.515v-1.515c0-2.06.855-3.285,3.284-3.285h2.023v2.525H97.881c-.946,0-1.008.353-1.008,1.012l0,1.264H99.16l-.269,2.525H96.868Zm10.359.019H104.7l-.109-.638a5.8,5.8,0,0,1-2.862.742,2.686,2.686,0,0,1-2.839-2.945c0-2.016,1.151-2.736,3.209-2.736h2.1v-.436c0-1.03-.118-1.332-1.7-1.332H99.9l.254-2.525h2.832c3.478,0,4.24,1.1,4.24,3.877Zm8.59-7.16a14.513,14.513,0,0,0-2.78-.328c-1.358,0-1.769.3-1.769,1.451v2.18c0,1.152.411,1.453,1.769,1.453a14.412,14.412,0,0,0,2.78-.33v2.462a13.408,13.408,0,0,1-3.032.39c-3.254,0-4.547-1.709-4.547-4.178v-1.768c0-2.471,1.293-4.183,4.547-4.183a13.418,13.418,0,0,1,3.032.391Zm9.485,3.1h-5.558v.2c0,1.152.411,1.453,1.769,1.453a17.667,17.667,0,0,0,3.535-.33v2.462a15.939,15.939,0,0,1-3.787.39c-3.255,0-4.548-1.709-4.548-4.178v-2.022c0-2.16.961-3.929,4.295-3.929s4.294,1.749,4.294,3.929Zm9.852.046c0,2.386-.683,4.127-4.82,4.127a22.922,22.922,0,0,1-4.019-.385V126.89l3.03-.5v4.771a6.872,6.872,0,0,1,2.274-.366c3.031,0,3.535,1.357,3.535,3.537Zm9.713.052c0,2.059-.851,4.055-4.412,4.055s-4.429-2-4.429-4.055v-1.988c0-2.059.867-4.056,4.429-4.056s4.412,2,4.412,4.056Zm9.706,0c0,2.059-.852,4.055-4.411,4.055s-4.429-2-4.429-4.055v-1.988c0-2.059.867-4.056,4.429-4.056s4.411,2,4.411,4.056Zm9.961,3.943h-3.285l-2.777-4.63v4.63h-3.03V126.89l3.03-.5v8.944l2.777-4.4h3.285l-3.032,4.8Zm-14.383-7.465c-1.03,0-1.387.562-1.387,1.261v2.554c0,.7.357,1.265,1.387,1.265s1.392-.563,1.392-1.265v-2.554c0-.7-.364-1.261-1.392-1.261" fill="#fff"/>
    </g>
    <path id="패스_106" data-name="패스 106" d="M145.282,302.88V300.8h3.044v2.082Zm.134,8.57v-7.422h2.83v7.422Zm63.622-6.541a2.723,2.723,0,0,1,0,5.447,2.723,2.723,0,1,1,0-5.447Zm0,6.728a3.991,3.991,0,1,0-4-4,3.994,3.994,0,0,0,4,4Zm-14.55-.187h1.255V310.3h-1.255v1.148Zm9.531-.961a3.908,3.908,0,0,1-2.776,1.148,3.991,3.991,0,0,1,0-7.983,4.09,4.09,0,0,1,2.776,1.148,5.83,5.83,0,0,0-.561,1.282,2.658,2.658,0,0,0-2.215-1.175,2.737,2.737,0,0,0,0,5.473,2.784,2.784,0,0,0,2.242-1.175,5.312,5.312,0,0,0,.535,1.282Zm10.786.961v-7.422h1.122v1.041a2.684,2.684,0,0,1,2.268-1.228,2.531,2.531,0,0,1,1.335.347,1.9,1.9,0,0,1,.748.961,2.714,2.714,0,0,1,2.3-1.308,2.236,2.236,0,0,1,1.681.614,2.647,2.647,0,0,1,.613,1.9v5.1h-1.254v-4.672a3.393,3.393,0,0,0-.134-1.094,1.031,1.031,0,0,0-.427-.534,1.453,1.453,0,0,0-.774-.214,1.753,1.753,0,0,0-1.281.535,2.276,2.276,0,0,0-.534,1.655v4.325H219.21v-4.833a2.234,2.234,0,0,0-.293-1.255,1.248,1.248,0,0,0-1.015-.427,1.929,1.929,0,0,0-.988.294,1.6,1.6,0,0,0-.639.8,4.731,4.731,0,0,0-.215,1.575v3.844Zm9.585-9.05v-1.415h-.534V300.8h1.281v.187H224.6V302.4Zm.935,0v-1.6h.32l.4,1.147a1.253,1.253,0,0,0,.079.24.716.716,0,0,1,.081-.267l.374-1.121h.294v1.6h-.214v-1.335l-.454,1.335h-.214l-.454-1.362V302.4Zm-36.15,7.956a2.807,2.807,0,0,1-1.335.935,2.413,2.413,0,0,1-.4.133,6.694,6.694,0,0,1-1.708.187,3.418,3.418,0,0,1-2.163-.588,1.881,1.881,0,0,1-.774-1.655,2.507,2.507,0,0,1,.293-1.2,2.449,2.449,0,0,1,.855-.881,3.3,3.3,0,0,1,1.255-.4,20.631,20.631,0,0,1,2.242-.107h1.681v-.213a1.129,1.129,0,0,0-.347-.908,1.523,1.523,0,0,0-1.041-.32h-.293a2.212,2.212,0,0,0-.854.213.93.93,0,0,0-.454.668h-2.857a2.219,2.219,0,0,1,1.228-1.789,6.885,6.885,0,0,1,2.937-.56,1.423,1.423,0,0,1,.348-.027,5.426,5.426,0,0,1,3.07.694,2.468,2.468,0,0,1,1.014,2.163v3.764a2.963,2.963,0,0,0,.028.534,2.2,2.2,0,0,0,.107.454h-2.644a2.27,2.27,0,0,1-.134-.454,2.975,2.975,0,0,1-.053-.507v-.133Zm-1.736-.347a2.028,2.028,0,0,0,1.175-.454,1.567,1.567,0,0,0,.506-1.255v-.16h-.239a11.718,11.718,0,0,0-1.442.053,4.062,4.062,0,0,0-1.014.187.832.832,0,0,0-.668.8.655.655,0,0,0,.347.614,2.209,2.209,0,0,0,1.068.214Zm-8.543-2.483a2.261,2.261,0,0,0-.56-1.6,1.9,1.9,0,0,0-1.469-.587h-.027a1.9,1.9,0,0,0-1.522.587,2.959,2.959,0,0,0,0,3.391,1.911,1.911,0,0,0,1.5.587h.027a1.894,1.894,0,0,0,1.5-.614,2.591,2.591,0,0,0,.56-1.762Zm-2.056-3.551a3.987,3.987,0,0,1,1.148-.133,3.585,3.585,0,0,1,3.818,3.844,4.1,4.1,0,0,1-.988,2.884,3.683,3.683,0,0,1-2.776,1.041,4.333,4.333,0,0,1-1.2-.16,2.479,2.479,0,0,1-.615-.24,3.9,3.9,0,0,1-1.414-1.147v.213a4.153,4.153,0,0,1-.027.587,4.4,4.4,0,0,1-.054.588h-2.857q.04-.48.08-.881c.026-.294.026-.56.026-.8V300.8h2.831v4.3a3.833,3.833,0,0,1,1.441-.934,2.144,2.144,0,0,1,.588-.187Zm-9.478,6.381a2.89,2.89,0,0,1-1.361.935,1.427,1.427,0,0,1-.4.133,6.476,6.476,0,0,1-1.682.187,3.5,3.5,0,0,1-2.189-.588,1.945,1.945,0,0,1-.774-1.655,2.242,2.242,0,0,1,.321-1.2,2.442,2.442,0,0,1,.855-.881,3.151,3.151,0,0,1,1.228-.4,21.455,21.455,0,0,1,2.243-.107h1.682a.161.161,0,0,1,.027-.107v-.107a1.225,1.225,0,0,0-.347-.908,1.522,1.522,0,0,0-1.041-.32H165.6a2.078,2.078,0,0,0-.828.213.865.865,0,0,0-.454.668h-2.884a2.252,2.252,0,0,1,1.255-1.789,6.747,6.747,0,0,1,2.91-.56,1.65,1.65,0,0,1,.347-.027,5.527,5.527,0,0,1,3.1.694,2.45,2.45,0,0,1,.988,2.163v3.764c0,.214.027.4.027.534a2.268,2.268,0,0,0,.134.454h-2.644a1.3,1.3,0,0,1-.133-.454,2.97,2.97,0,0,1-.054-.507v-.133Zm-1.762-.347a1.892,1.892,0,0,0,1.175-.454,1.487,1.487,0,0,0,.507-1.255v-.16h-.214a12.166,12.166,0,0,0-1.468.053,3.836,3.836,0,0,0-.988.187c-.454.16-.694.427-.694.8a.7.7,0,0,0,.347.614,2.2,2.2,0,0,0,1.068.214Zm-8.544-2.483a2.242,2.242,0,0,0-.534-1.6,1.892,1.892,0,0,0-1.469-.587H155a1.873,1.873,0,0,0-1.5.587,2.956,2.956,0,0,0,0,3.391,1.873,1.873,0,0,0,1.5.587,1.912,1.912,0,0,0,1.522-.614,2.577,2.577,0,0,0,.534-1.762ZM155,303.975a4.174,4.174,0,0,1,1.174-.133,3.726,3.726,0,0,1,2.777,1.041,3.8,3.8,0,0,1,1.015,2.8,3.982,3.982,0,0,1-.988,2.884,3.62,3.62,0,0,1-2.749,1.041,4.676,4.676,0,0,1-1.228-.16,3.629,3.629,0,0,1-.614-.24A3.816,3.816,0,0,1,153,310.062v.213c0,.213-.027.4-.027.587-.027.187-.053.4-.08.588h-2.857a5.424,5.424,0,0,0,.08-.881c.027-.294.054-.56.054-.8V300.8H153v4.3a3.944,3.944,0,0,1,1.415-.934,2.454,2.454,0,0,1,.588-.187ZM132.974,300.8H135l5.206,10.652h-3.418l-.934-2.163h-5.794l-.988,2.163h-3.2L131.4,300.8Zm0,6.434h1.9l-1.816-4.085-.081.187-1.922,3.9Zm7.717,4.218V300.8h2.829V311.45Z" transform="translate(783.627 1807.486)" fill="#fff" fill-rule="evenodd"/>
    <g id="그룹_167" data-name="그룹 167" transform="translate(790.658 1746.017)">
      <path id="패스_107" data-name="패스 107" d="M212.075,449.378a24,24,0,0,1-13.552,4.142,24.526,24.526,0,0,1-16.555-6.315c-.342-.309-.036-.734.376-.493a33.313,33.313,0,0,0,16.564,4.4,32.942,32.942,0,0,0,12.634-2.586c.62-.262,1.139.409.534.856" transform="translate(-37.64 -51.442)" fill="#fff" fill-rule="evenodd"/>
      <path id="패스_108" data-name="패스 108" d="M328.966,444.846c-.469-.6-3.1-.285-4.28-.143-.357.043-.412-.269-.09-.5,2.1-1.474,5.533-1.048,5.934-.556s-.105,3.944-2.071,5.589c-.3.254-.59.117-.456-.216.442-1.1,1.433-3.578.963-4.179" transform="translate(-153.006 -48.649)" fill="#fff" fill-rule="evenodd"/>
      <path id="패스_109" data-name="패스 109" d="M324.859,386.342v-1.431a.356.356,0,0,1,.363-.364h6.417a.358.358,0,0,1,.369.362v1.227a2,2,0,0,1-.483.9l-3.323,4.746a7.11,7.11,0,0,1,3.659.785.653.653,0,0,1,.34.559v1.527c0,.211-.23.454-.471.326a7.388,7.388,0,0,0-6.779.014c-.224.118-.457-.122-.457-.333v-1.452a1.721,1.721,0,0,1,.238-.984l3.851-5.525h-3.352a.358.358,0,0,1-.371-.361" transform="translate(-153.095 -1.193)" fill="#fff" fill-rule="evenodd"/>
      <path id="패스_110" data-name="패스 110" d="M193.963,394.5h-1.952a.366.366,0,0,1-.349-.33V384.156a.369.369,0,0,1,.378-.361h1.817a.368.368,0,0,1,.355.337v1.308h.036a2.681,2.681,0,0,1,5.1,0,2.882,2.882,0,0,1,4.955-.759c.62.842.494,2.066.494,3.141l0,6.322a.369.369,0,0,1-.376.361h-1.95a.365.365,0,0,1-.35-.359v-5.312a12.76,12.76,0,0,0-.055-1.876,1.018,1.018,0,0,0-1.148-.865,1.293,1.293,0,0,0-1.167.823,6.061,6.061,0,0,0-.181,1.918v5.311a.369.369,0,0,1-.376.361h-1.95a.365.365,0,0,1-.35-.359l0-5.312c0-1.117.181-2.762-1.2-2.762-1.4,0-1.348,1.6-1.348,2.762l0,5.311a.367.367,0,0,1-.376.361" transform="translate(-45.604 -0.414)" fill="#fff" fill-rule="evenodd"/>
      <path id="패스_111" data-name="패스 111" d="M374.21,383.58c2.9,0,4.465,2.489,4.465,5.651,0,3.057-1.731,5.482-4.465,5.482-2.842,0-4.391-2.489-4.391-5.587,0-3.12,1.567-5.546,4.391-5.546m.019,2.045c-1.44,0-1.531,1.961-1.531,3.183s-.017,3.838,1.512,3.838c1.514,0,1.586-2.109,1.586-3.395a9.242,9.242,0,0,0-.292-2.656,1.222,1.222,0,0,0-1.275-.97" transform="translate(-189.774 -0.41)" fill="#fff" fill-rule="evenodd"/>
      <path id="패스_112" data-name="패스 112" d="M426.184,394.5h-1.945a.366.366,0,0,1-.35-.359l0-10.024a.371.371,0,0,1,.376-.326h1.811a.372.372,0,0,1,.347.28v1.533h.036a2.654,2.654,0,0,1,2.66-2.023,2.559,2.559,0,0,1,2.278,1.181,6.367,6.367,0,0,1,.511,3.12v6.3a.371.371,0,0,1-.375.316h-1.957a.367.367,0,0,1-.347-.316v-5.44c0-1.1.128-2.7-1.222-2.7a1.275,1.275,0,0,0-1.129.8,4.457,4.457,0,0,0-.311,1.9v5.4a.374.374,0,0,1-.38.361" transform="translate(-233.526 -0.414)" fill="#fff" fill-rule="evenodd"/>
      <path id="패스_113" data-name="패스 113" d="M275.2,389.305a3.838,3.838,0,0,1-.366,2.071,1.586,1.586,0,0,1-1.352.887c-.749,0-1.188-.57-1.188-1.416,0-1.662,1.491-1.964,2.9-1.964Zm1.968,4.76a.4.4,0,0,1-.461.045,4.738,4.738,0,0,1-1.119-1.3,3.872,3.872,0,0,1-3.219,1.419,2.771,2.771,0,0,1-2.922-3.043A3.318,3.318,0,0,1,271.528,388a13.489,13.489,0,0,1,3.671-.675v-.254a2.494,2.494,0,0,0-.238-1.415,1.3,1.3,0,0,0-1.1-.507,1.488,1.488,0,0,0-1.569,1.172.411.411,0,0,1-.338.359l-1.892-.206a.342.342,0,0,1-.291-.407c.435-2.3,2.508-2.989,4.365-2.989a4.427,4.427,0,0,1,2.939.972c.951.887.86,2.071.86,3.36v3.041a2.664,2.664,0,0,0,.737,1.809.367.367,0,0,1-.007.518c-.4.335-1.108.951-1.5,1.3Z" transform="translate(-108.549 0)" fill="#fff" fill-rule="evenodd"/>
      <path id="패스_114" data-name="패스 114" d="M141.06,389.305a3.835,3.835,0,0,1-.366,2.071,1.585,1.585,0,0,1-1.351.887c-.749,0-1.188-.57-1.188-1.416,0-1.662,1.493-1.964,2.9-1.964Zm1.968,4.76a.4.4,0,0,1-.461.045,4.784,4.784,0,0,1-1.12-1.3,3.867,3.867,0,0,1-3.217,1.419,2.771,2.771,0,0,1-2.922-3.043A3.318,3.318,0,0,1,137.389,388a13.489,13.489,0,0,1,3.671-.675v-.254a2.491,2.491,0,0,0-.238-1.415,1.3,1.3,0,0,0-1.1-.507,1.486,1.486,0,0,0-1.569,1.172.412.412,0,0,1-.339.359l-1.891-.206a.343.343,0,0,1-.292-.407c.435-2.3,2.508-2.989,4.365-2.989a4.435,4.435,0,0,1,2.941.972c.949.887.858,2.071.858,3.36v3.041a2.664,2.664,0,0,0,.737,1.809.367.367,0,0,1-.007.518c-.4.335-1.108.951-1.5,1.3Z" transform="translate(0 0)" fill="#fff" fill-rule="evenodd"/>
    </g>
  </g>
</svg>
