<svg xmlns="http://www.w3.org/2000/svg" width="224.883" height="173.992" viewBox="0 0 224.883 173.992">
  <g id="그룹_170" data-name="그룹 170" transform="translate(-1192.829 -2038.279)">
    <g id="그룹_161" data-name="그룹 161" transform="translate(-102.322 1577.394)">
      <path id="패스_96" data-name="패스 96" d="M1321.963,557V555.1a4.607,4.607,0,0,0-3.155-4.372l-3.617-1.2a4.6,4.6,0,0,1-3.14-3.986l-.278-3.319h-4.9l-.279,3.319a4.6,4.6,0,0,1-3.139,3.986l-3.617,1.2a4.606,4.606,0,0,0-3.155,4.372V557" fill="#fff" stroke="#000" stroke-linejoin="bevel" stroke-width="1.5"/>
      <rect id="사각형_90" data-name="사각형 90" width="9.734" height="14.154" rx="4.867" transform="translate(1304.455 530.891)" fill="#fff" stroke="#000" stroke-linejoin="bevel" stroke-width="1.5"/>
    </g>
    <g id="그룹_160" data-name="그룹 160" transform="translate(-292.433 1767.82)">
      <path id="패스_97" data-name="패스 97" d="M1512.654,278.218H1489.7l11.475-7.01Z" fill="#fff" stroke="#000" stroke-linejoin="bevel" stroke-width="1.5"/>
      <rect id="사각형_91" data-name="사각형 91" width="30.332" height="3.584" transform="translate(1486.012 294.595)" fill="#fff" stroke="#000" stroke-linejoin="bevel" stroke-width="1.5"/>
      <rect id="사각형_92" data-name="사각형 92" width="30.332" height="3.584" transform="translate(1486.012 278.218)" fill="#fff" stroke="#000" stroke-linejoin="bevel" stroke-width="1.5"/>
      <rect id="사각형_93" data-name="사각형 93" width="3.301" height="12.793" transform="translate(1488.861 281.802)" fill="#fff" stroke="#000" stroke-linejoin="bevel" stroke-width="1.5"/>
      <rect id="사각형_94" data-name="사각형 94" width="3.301" height="12.793" transform="translate(1496.241 281.802)" fill="#fff" stroke="#000" stroke-linejoin="bevel" stroke-width="1.5"/>
      <rect id="사각형_95" data-name="사각형 95" width="3.301" height="12.793" transform="translate(1503.622 281.802)" fill="#fff" stroke="#000" stroke-linejoin="bevel" stroke-width="1.5"/>
      <rect id="사각형_96" data-name="사각형 96" width="3.301" height="12.793" transform="translate(1511.003 281.802)" fill="#fff" stroke="#000" stroke-linejoin="bevel" stroke-width="1.5"/>
    </g>
    <g id="그룹_162" data-name="그룹 162" transform="translate(-989.491 1966.402)">
      <path id="패스_98" data-name="패스 98" d="M2393.64,90.986h-20.731l-3.325-15.021h27.38Z" fill="#fff" stroke="#000" stroke-linejoin="bevel" stroke-width="1.5"/>
      <path id="패스_99" data-name="패스 99" d="M2372.909,90.986l-4.064-18.36h-4.265" fill="#fff" stroke="#000" stroke-linejoin="bevel" stroke-width="1.5"/>
      <circle id="타원_44" data-name="타원 44" cx="1.913" cy="1.913" r="1.913" transform="translate(2372.909 93.481)" fill="#fff" stroke="#000" stroke-linejoin="bevel" stroke-width="1.5"/>
      <circle id="타원_45" data-name="타원 45" cx="1.913" cy="1.913" r="1.913" transform="translate(2389.923 93.481)" fill="#fff" stroke="#000" stroke-linejoin="bevel" stroke-width="1.5"/>
      <line id="선_54" data-name="선 54" y2="7.244" transform="translate(2383.274 79.926)" fill="#fff" stroke="#000" stroke-linejoin="bevel" stroke-width="1.5"/>
      <line id="선_55" data-name="선 55" x2="0.868" y2="7.244" transform="translate(2377.223 79.926)" fill="#fff" stroke="#000" stroke-linejoin="bevel" stroke-width="1.5"/>
      <line id="선_56" data-name="선 56" x1="0.868" y2="7.244" transform="translate(2388.457 79.926)" fill="#fff" stroke="#000" stroke-linejoin="bevel" stroke-width="1.5"/>
    </g>
    <g id="그룹_163" data-name="그룹 163" transform="translate(-29.501 1852.188)">
      <rect id="사각형_98" data-name="사각형 98" width="34.462" height="22.788" transform="translate(1412.001 267.61)" fill="#fff" stroke="#000" stroke-linejoin="bevel" stroke-width="1.5"/>
      <rect id="사각형_99" data-name="사각형 99" width="7.482" height="6.619" transform="translate(1425.491 290.398)" fill="#fff" stroke="#000" stroke-linejoin="bevel" stroke-width="1.5"/>
      <line id="선_58" data-name="선 58" x2="17.273" transform="translate(1420.595 297.017)" fill="#fff" stroke="#000" stroke-linejoin="bevel" stroke-width="1.5"/>
      <rect id="사각형_100" data-name="사각형 100" width="34.462" height="19.051" transform="translate(1412.001 267.61)" fill="#fff" stroke="#000" stroke-linejoin="bevel" stroke-width="1.5"/>
    </g>
    <line id="선_73" data-name="선 73" x2="158.371" y2="72.5" transform="translate(1224.129 2062)" fill="none" stroke="#021949" stroke-width="1"/>
    <line id="선_72" data-name="선 72" y1="79" x2="163" transform="translate(1219.5 2051.5)" fill="none" stroke="#021949" stroke-width="1"/>
    <line id="선_74" data-name="선 74" y1="20" transform="translate(1302.5 2161.5)" fill="none" stroke="#021949" stroke-width="1"/>
    <g id="그룹_164" data-name="그룹 164" transform="translate(-58.195 1911.73)">
      <path id="패스_100" data-name="패스 100" d="M1375.195,292.8c0,8.285-6.716,6.924-15,6.924s-15,1.361-15-6.924a15,15,0,0,1,30,0Z" fill="#fff" stroke="#000" stroke-linejoin="bevel" stroke-width="1.5"/>
      <rect id="사각형_97" data-name="사각형 97" width="16.154" height="3.462" transform="translate(1352.118 275.497)" fill="#fff" stroke="#000" stroke-linejoin="bevel" stroke-width="1.5"/>
      <path id="패스_101" data-name="패스 101" d="M1367.069,275.5h-13.748l-3.511-5.769h20.769Z" fill="#fff" stroke="#000" stroke-linejoin="bevel" stroke-width="1.5"/>
      <path id="패스_102" data-name="패스 102" d="M1363.8,286.133h-5.4a1.8,1.8,0,0,0-1.8,1.8h0a1.8,1.8,0,0,0,1.8,1.8h3.6a1.8,1.8,0,0,1,1.8,1.8h0a1.8,1.8,0,0,1-1.8,1.8h-5.4" fill="#fff" stroke="#000" stroke-linejoin="bevel" stroke-width="1.5"/>
      <line id="선_57" data-name="선 57" y2="12" transform="translate(1360.195 283.733)" fill="#fff" stroke="#000" stroke-linejoin="bevel" stroke-width="1.5"/>
    </g>
    <g id="타원_47" data-name="타원 47" transform="translate(1247 2047)" fill="#fff" stroke="#021949" stroke-width="10">
      <circle cx="57.5" cy="57.5" r="57.5" stroke="none"/>
      <circle cx="57.5" cy="57.5" r="52.5" fill="none"/>
    </g>
    <path id="패스_104" data-name="패스 104" d="M1293.081,575.311a19.879,19.879,0,0,0-9.035-4.571l.042.049-2.638-2.9-.014.009a6.4,6.4,0,0,1-.817-1.815h0a17.982,17.982,0,0,0,1.43-1.263c1.543-1.513,3.753-4.287,4-6.617a13.236,13.236,0,0,0,2.947-4.4,4.546,4.546,0,0,0-.171-4.118,3.273,3.273,0,0,0-1.152-1.053c.559-3.554,1.384-15.359-12.389-15.359-16.215,0-12.9,10.448-12.9,13.093a4.424,4.424,0,0,0,.4,2.323,3.275,3.275,0,0,0-1.053,1,4.547,4.547,0,0,0-.171,4.118,13.242,13.242,0,0,0,2.949,4.4c.242,2.33,2.45,5.1,3.993,6.617a17.949,17.949,0,0,0,1.545,1.351l-.035-.023a7.262,7.262,0,0,1-.908,1.744l.037.025-.041-.028-2.638,2.9.042-.049a19.874,19.874,0,0,0-9.033,4.571,17.085,17.085,0,0,0-5.146,13.52h45.9a17.087,17.087,0,0,0-5.144-13.52" transform="translate(30.224 1543.447)" fill="#a5a5a5" fill-rule="evenodd"/>
  </g>
</svg>
