<svg xmlns="http://www.w3.org/2000/svg" width="20" height="20" viewBox="0 0 20 20">
    <g data-name="그룹 2237">
        <g data-name="그룹 2236">
            <path data-name="패스 2508" d="M532.806 242.365a9.631 9.631 0 0 0 1.419.329 9.847 9.847 0 0 0 2.984 0 9.714 9.714 0 0 0 2.752-.857 9.725 9.725 0 0 0 1.227-.711 9.731 9.731 0 0 0 2.073-1.9 9.706 9.706 0 0 0 1.453-2.427 9.729 9.729 0 0 0-1.453-2.427 9.85 9.85 0 0 0-.967-1.024" transform="translate(-525.719 -227.034)" style="fill:none;stroke:#333;stroke-linecap:round;stroke-linejoin:round;stroke-width:1.2px"/>
            <path data-name="패스 2509" d="M532.558 228.682a9.737 9.737 0 0 0-7.155.528 9.766 9.766 0 0 0-3.3 2.611 9.669 9.669 0 0 0-.813 1.156 9.832 9.832 0 0 0-.641 1.271 9.838 9.838 0 0 0 .641 1.271 9.663 9.663 0 0 0 .813 1.156 9.844 9.844 0 0 0 .967 1.025" transform="translate(-519.649 -224.483)" style="fill:none;stroke:#333;stroke-linecap:round;stroke-linejoin:round;stroke-width:1.2px"/>
            <path data-name="패스 2510" d="M533.24 237.555a2.694 2.694 0 0 1 2.694-2.694" transform="translate(-525.936 -227.79)" style="fill:none;stroke:#333;stroke-linecap:round;stroke-linejoin:round;stroke-width:1.2px"/>
            <path data-name="패스 2511" d="M541.314 240.241a2.694 2.694 0 0 1-2.693 2.694" transform="translate(-528.623 -230.476)" style="fill:none;stroke:#333;stroke-linecap:round;stroke-linejoin:round;stroke-width:1.2px"/>
        </g>
        <path data-name="선 1" transform="translate(3.232 3)" style="fill:none;stroke:#333;stroke-linecap:round;stroke-linejoin:round;stroke-width:1.5px" d="M13.532 0 0 13.531"/>
    </g>
</svg>
