<svg xmlns="http://www.w3.org/2000/svg" viewBox="0 0 132 132"><defs><style>.cls-1{fill:#3199d5;}.cls-2{fill:#fff;}</style></defs><title>Asset 10</title><g id="Layer_2" data-name="Layer 2"><g id="Layer_1-2" data-name="Layer 1"><rect class="cls-1" width="132" height="132" rx="17.8"/><path class="cls-2" d="M50.7,99.52c31.13,0,48.15-25.79,48.15-48.15,0-.74,0-1.47,0-2.19a34.5,34.5,0,0,0,8.44-8.77,33.73,33.73,0,0,1-9.72,2.67A17,17,0,0,0,105,33.71a33.91,33.91,0,0,1-10.74,4.11A16.94,16.94,0,0,0,65.38,53.26,48.07,48.07,0,0,1,30.49,35.58a16.94,16.94,0,0,0,5.24,22.59,16.72,16.72,0,0,1-7.66-2.12,1.62,1.62,0,0,0,0,.22A16.93,16.93,0,0,0,41.64,72.86a16.84,16.84,0,0,1-4.46.6A16.65,16.65,0,0,1,34,73.15,16.94,16.94,0,0,0,49.81,84.91a34.1,34.1,0,0,1-25.06,7,47.93,47.93,0,0,0,26,7.6"/></g></g></svg>