<svg xmlns="http://www.w3.org/2000/svg" viewBox="0 0 132 132"><defs><style>.cls-1{fill:#4373b9;}</style></defs><title>Asset 7</title><g id="Layer_2" data-name="Layer 2"><g id="Layer_1-2" data-name="Layer 1"><path class="cls-1" d="M121.08,0H10.92A10.92,10.92,0,0,0,0,10.92V121.08A10.92,10.92,0,0,0,10.92,132H55.76V86.21H39.12V67.27H55.76V52.83c0-16.42,9.78-25.49,24.75-25.49a100.78,100.78,0,0,1,14.67,1.28V44.75H86.92c-8.14,0-10.68,5-10.68,10.23V67.27H94.41l-2.9,18.94H76.24V132h44.84A10.92,10.92,0,0,0,132,121.08V10.92A10.92,10.92,0,0,0,121.08,0Z"/></g></g></svg>