<svg xmlns="http://www.w3.org/2000/svg" xmlns:xlink="http://www.w3.org/1999/xlink" viewBox="0 0 147.24 148.08"><defs><style>.cls-1{fill:#f8e000;}.cls-2{fill:#381c1d;}.cls-3{clip-path:url(#clip-path);}.cls-4{clip-path:url(#clip-path-2);}.cls-5{clip-path:url(#clip-path-3);}.cls-6{clip-path:url(#clip-path-4);}</style><clipPath id="clip-path"><path class="cls-1" d="M36.21,62h5.45s0,15,0,18.46c0,2.55,5.67,2.59,5.66,0l0-18.3h5.43c3.39,0,3.39-5.32,0-5.33-3.82,0-16.58-.1-16.58-.1C33,56.81,33,62,36.21,62"/></clipPath><clipPath id="clip-path-2"><path class="cls-1" d="M62.3,63l3,9.51H59Zm-3.4-4.45c-1.34,3-6.18,16.9-7.79,20.61-1.17,2.67,3.85,4.85,5,2.18l1.09-3.82h10s-.35.16,1,3.65c1.07,2.83,6.25.87,5.18-2-1.54-4-6.83-18.6-7.8-20.66-.44-.95-2-1.63-3.59-1.63a3.15,3.15,0,0,0-3.06,1.63"/></clipPath><clipPath id="clip-path-3"><path class="cls-1" d="M75.26,59.42c0,4.75,0,20,0,20s-.43,3,2.17,3l10.94,0c2.56,0,2.55-5.45,0-5.45l-7.24,0s0-14.14,0-17.57c0-1.66-1.48-2.49-3-2.49s-3,.84-2.95,2.5"/></clipPath><clipPath id="clip-path-4"><path class="cls-1" d="M91.64,58.67c0,2.08-.07,20.88-.07,22.27,0,2.2,5.6,2.19,5.6,0v-7.4l1.64-1.32L106,82c1.45,1.91,6-1.55,4.57-3.46l-7.63-10s5.18-5.61,7.22-7.64c1.19-1.18-2.5-4.89-3.69-3.71L97.2,66.44s.08-5.1,0-7.92c0-1.07-1.34-1.59-2.68-1.59s-2.91.59-2.88,1.74"/></clipPath></defs><title>Asset 6</title><g id="Layer_2" data-name="Layer 2"><g id="Layer_1-2" data-name="Layer 1"><path class="cls-1" d="M147.24,115.13a32.86,32.86,0,0,1-32.76,33H32.76A32.86,32.86,0,0,1,0,115.13V33A32.86,32.86,0,0,1,32.76,0h81.72a32.86,32.86,0,0,1,32.76,33Z"/><path class="cls-2" d="M73.16,27.88c-29.25,0-53,18.74-53,41.86,0,15.05,10,28.24,25.12,35.62-1.11,4.14-4,15-4.59,17.3-.72,2.88,1.05,2.84,2.22,2.07l20.38-13.85a65.91,65.91,0,0,0,9.83.73c29.24,0,53-18.74,53-41.87S102.4,27.88,73.16,27.88"/><path class="cls-1" d="M36.21,62h5.45s0,15,0,18.46c0,2.55,5.67,2.59,5.66,0l0-18.3h5.43c3.39,0,3.39-5.32,0-5.33-3.82,0-16.58-.1-16.58-.1C33,56.81,33,62,36.21,62"/><g class="cls-3"><rect class="cls-1" x="33" y="56.81" width="23.16" height="26.27"/></g><path class="cls-1" d="M62.3,63l3,9.51H59Zm-3.4-4.45c-1.34,3-6.18,16.9-7.79,20.61-1.17,2.67,3.85,4.85,5,2.18l1.09-3.82h10s-.35.16,1,3.65c1.07,2.83,6.25.87,5.18-2-1.54-4-6.83-18.6-7.8-20.66-.44-.95-2-1.63-3.59-1.63a3.15,3.15,0,0,0-3.06,1.63"/><g class="cls-4"><rect class="cls-1" x="49.94" y="56.92" width="24.48" height="27.1"/></g><path class="cls-1" d="M75.26,59.42c0,4.75,0,20,0,20s-.43,3,2.17,3l10.94,0c2.56,0,2.55-5.45,0-5.45l-7.24,0s0-14.14,0-17.57c0-1.66-1.48-2.49-3-2.49s-3,.84-2.95,2.5"/><g class="cls-5"><rect class="cls-1" x="74.85" y="56.92" width="16.11" height="25.56"/></g><path class="cls-1" d="M91.64,58.67c0,2.08-.07,20.88-.07,22.27,0,2.2,5.6,2.19,5.6,0v-7.4l1.64-1.32L106,82c1.45,1.91,6-1.55,4.57-3.46l-7.63-10s5.18-5.61,7.22-7.64c1.19-1.18-2.5-4.89-3.69-3.71L97.2,66.44s.08-5.1,0-7.92c0-1.07-1.34-1.59-2.68-1.59s-2.91.59-2.88,1.74"/><g class="cls-6"><rect class="cls-1" x="91.57" y="55.99" width="20.45" height="27.96"/></g></g></g></svg>