<svg xmlns="http://www.w3.org/2000/svg" viewBox="0 0 139.21 123.06"><defs><style>.cls-1{fill:#ed2224;}.cls-2{fill:#fff;}</style></defs><title>Asset 8</title><g id="Layer_2" data-name="Layer 2"><g id="Layer_1-2" data-name="Layer 1"><path class="cls-1" d="M136.3,19.22C134.7,11.65,130,5.7,124,3.67,113.13,0,69.6,0,69.6,0S26.07,0,15.22,3.67c-6,2-10.71,8-12.31,15.55C0,32.92,0,61.53,0,61.53s0,28.6,2.91,42.31c1.6,7.56,6.32,13.52,12.31,15.54,10.85,3.68,54.38,3.68,54.38,3.68s43.53,0,54.39-3.68c6-2,10.71-8,12.31-15.54,2.91-13.71,2.91-42.31,2.91-42.31s0-28.61-2.91-42.31"/><polygon class="cls-2" points="51.21 89.12 99 61.53 51.21 33.93 51.21 89.12"/></g></g></svg>