<svg xmlns="http://www.w3.org/2000/svg" viewBox="0 0 132 132"><defs><style>.cls-1{fill:#2e72b0;fill-rule:evenodd;}</style></defs><title>Asset 3</title><g id="Layer_2" data-name="Layer 2"><g id="Layer_1-2" data-name="Layer 1"><path class="cls-1" d="M122.44,0H10A9.81,9.81,0,0,0,0,9.5v113c0,5.24,3,9.5,8.38,9.5H120.87c5.38,0,11.13-4.26,11.13-9.5V9.5A9.46,9.46,0,0,0,122.44,0ZM50.29,50.29H68.06v9.05h.19C71,54.46,79,49.5,88.85,49.5c19,0,24.29,10.08,24.29,28.76v34.88H94.29V81.7C94.29,73.34,91,66,83.14,66c-9.48,0-14,6.42-14,17v30.19H50.29ZM18.86,113.14H37.71V50.29H18.86ZM40.07,28.29A11.79,11.79,0,1,1,28.29,16.5,11.77,11.77,0,0,1,40.07,28.29Z"/></g></g></svg>