<svg xmlns="http://www.w3.org/2000/svg" xmlns:xlink="http://www.w3.org/1999/xlink" viewBox="0 0 131 131"><defs><style>.cls-1{fill:url(#linear-gradient);}.cls-2{fill:#fff;}.cls-3{fill:#c7dfeb;}.cls-4{fill:#a8c9de;}</style><linearGradient id="linear-gradient" x1="65.5" x2="65.5" y2="130.52" gradientUnits="userSpaceOnUse"><stop offset="0" stop-color="#2ebfe8"/><stop offset="1" stop-color="#13a9dc"/></linearGradient></defs><title>Asset 9</title><g id="Layer_2" data-name="Layer 2"><g id="Layer_1-2" data-name="Layer 1"><rect class="cls-1" width="131" height="131" rx="17.21"/><path class="cls-2" d="M99.46,37.84,87.38,98.73s-1.69,4.22-6.33,2.19L53.18,79.56,43,74.66,26,68.91s-2.62-.92-2.88-3,3-3.13,3-3.13l67.81-26.6S99.46,33.78,99.46,37.84Z"/><path class="cls-3" d="M51,98s-.82-.07-1.83-3.28S43,74.66,43,74.66l41-26s2.37-1.44,2.28,0c0,0,.43.25-.84,1.43s-32.18,29-32.18,29"/><path class="cls-4" d="M63.86,87.75l-11,10A1.93,1.93,0,0,1,51,98l2.11-18.67"/></g></g></svg>