<svg xmlns="http://www.w3.org/2000/svg" width="11" height="11" viewBox="0 0 11 11">
    <g data-name="Group 2908">
        <path data-name="Path 1251" d="M4.476 4.756a.756.756 0 0 1-.49-.21l-5.18-4.76a.75.75 0 0 1-.07-.98.75.75 0 0 1 .98-.07L4.9 3.5a.75.75 0 0 1 .07.98.528.528 0 0 1-.494.276z" transform="translate(3.414 1.414)" style="fill:#fff"/>
        <path data-name="Path 1252" d="M-.7 11.63a.635.635 0 0 1-.49-.21.677.677 0 0 1 0-.98l5.18-4.83a.693.693 0 1 1 .98.98l-5.18 4.83a.756.756 0 0 1-.49.21z" transform="translate(3.41 -.63)" style="fill:#fff"/>
    </g>
</svg>
