<svg xmlns="http://www.w3.org/2000/svg" x="0px"	y="0px" width="40" height="40" viewBox="0 0 40 40">
<style type="text/css">
	.st0{fill:#FFFFFF;}
	.st1{fill-opacity:0.1;}
	.st2{fill:url(#SVGID_1_);}
	.st3{fill:url(#SVGID_2_);}
	.st4{fill:url(#SVGID_3_);}
	.st5{fill:url(#SVGID_4_);}
	.st6{fill:url(#SVGID_5_);}
	.st7{fill:url(#SVGID_6_);}
	.st8{fill:url(#SVGID_7_);}
</style>
<circle class="st0" cx="20" cy="20.1" r="19.7"/>
<path class="st1" d="M32.6,23.7c0-6.9-5.6-12.5-12.5-12.5c-6.9,0-12.5,5.6-12.5,12.5h3.6c0-4.9,4-9,9-9s9,4,9,9"/>
<circle class="st1" cx="20.9" cy="22.6" r="6.8"/>
<linearGradient id="SVGID_1_" gradientUnits="userSpaceOnUse" x1="480.9164" y1="488.6653" x2="480.9164" y2="488.6192" gradientTransform="matrix(318.7238 0 0 -318.7238 -153259.4844 155762.0313)">
	<stop  offset="0" style="stop-color:#81B4E0"/>
	<stop  offset="1" style="stop-color:#0C5A94"/>
</linearGradient>
<circle class="st2" cx="20" cy="20.1" r="7.3"/>
<linearGradient id="SVGID_2_" gradientUnits="userSpaceOnUse" x1="272.9638" y1="-270.813" x2="272.9638" y2="-275.0046" gradientTransform="matrix(3.8869 0 0 -3.8869 -1040.302 -1052.5854)">
	<stop  offset="0" style="stop-color:#F06B59"/>
	<stop  offset="1" style="stop-color:#DF2227"/>
</linearGradient>
<path class="st3" d="M38,11.1c-4.9-9.9-17-14-26.9-9C8,3.6,5.3,5.9,3.4,8.8l8.1,14c-1.5-4.7,1.1-9.7,5.9-11.2
	c0.8-0.3,1.7-0.4,2.6-0.4"/>
<linearGradient id="SVGID_3_" gradientUnits="userSpaceOnUse" x1="268.8999" y1="-279.6388" x2="271.0187" y2="-276.1382" gradientTransform="matrix(3.8869 0 0 -3.8869 -1040.302 -1052.5854)">
	<stop  offset="0" style="stop-color:#388B41"/>
	<stop  offset="1" style="stop-color:#4CB749"/>
</linearGradient>
<path class="st4" d="M3.4,8.8C-2.8,18-0.3,30.5,8.9,36.6c2.8,1.9,6.1,3.1,9.5,3.3l8.4-14.3c-3.1,3.8-8.8,4.4-12.6,1.2
	c-1.3-1.1-2.3-2.5-2.8-4.1"/>
<linearGradient id="SVGID_4_" gradientUnits="userSpaceOnUse" x1="275.9977" y1="-280.0111" x2="273.7407" y2="-274.576" gradientTransform="matrix(3.8869 0 0 -3.8869 -1040.302 -1052.5854)">
	<stop  offset="0" style="stop-color:#E4B022"/>
	<stop  offset="0.3" style="stop-color:#FCD209"/>
</linearGradient>
<path class="st5" d="M18.4,40c11,0.8,20.7-7.4,21.5-18.5c0.3-3.6-0.4-7.1-2-10.3H19.9c4.9,0,8.9,4,8.9,9c0,2-0.7,3.9-1.9,5.5"/>
<linearGradient id="SVGID_5_" gradientUnits="userSpaceOnUse" x1="269.6014" y1="-276.5247" x2="269.6014" y2="-272.8399" gradientTransform="matrix(3.8869 0 0 -3.8869 -1040.302 -1052.5854)">
	<stop  offset="0" style="stop-color:#000000;stop-opacity:0.15"/>
	<stop  offset="0.3" style="stop-color:#000000;stop-opacity:6.000000e-02"/>
	<stop  offset="1" style="stop-color:#000000;stop-opacity:3.000000e-02"/>
</linearGradient>
<path class="st6" d="M3.4,8.8l8.1,14c-0.6-2-0.5-4.2,0.4-6.1L3.8,8.3"/>
<linearGradient id="SVGID_6_" gradientUnits="userSpaceOnUse" x1="274.6875" y1="-277.7145" x2="272.1543" y2="-280.2939" gradientTransform="matrix(3.8869 0 0 -3.8869 -1040.302 -1052.5854)">
	<stop  offset="0" style="stop-color:#000000;stop-opacity:0.15"/>
	<stop  offset="0.3" style="stop-color:#000000;stop-opacity:6.000000e-02"/>
	<stop  offset="1" style="stop-color:#000000;stop-opacity:3.000000e-02"/>
</linearGradient>
<path class="st7" d="M18.4,40l8.4-14.3c-1.3,1.6-3.2,2.7-5.2,3L18.1,40"/>
<linearGradient id="SVGID_7_" gradientUnits="userSpaceOnUse" x1="274.6508" y1="-278.4566" x2="275.0193" y2="-274.818" gradientTransform="matrix(3.8869 0 0 -3.8869 -1040.302 -1052.5854)">
	<stop  offset="0" style="stop-color:#000000;stop-opacity:0.15"/>
	<stop  offset="0.3" style="stop-color:#000000;stop-opacity:6.000000e-02"/>
	<stop  offset="1" style="stop-color:#000000;stop-opacity:3.000000e-02"/>
</linearGradient>
<path class="st8" d="M38,11.1H19.9c2.7,0,5.3,1.3,7,3.4l11.5-2.9"/>
</svg>
