<svg xmlns="http://www.w3.org/2000/svg" xmlns:xlink="http://www.w3.org/1999/xlink" width="100" height="35.192" viewBox="0 0 100 35.192">
  <defs>
    <clipPath id="clip-path">
      <rect id="사각형_2" data-name="사각형 2" width="100" height="35.192" transform="translate(0 0)" fill="none"/>
    </clipPath>
  </defs>
  <g id="그룹_1" data-name="그룹 1" clip-path="url(#clip-path)">
    <path id="패스_1" data-name="패스 1" d="M0,3.873V5.209l.065.334c.125.051.068.123.066.4a2.4,2.4,0,0,0,.032.535l.058.242c.051.163.013.311.063.471L.3,7.238a3.436,3.436,0,0,1,.111.488L.505,7.9c.046.135.016.249.086.379l.054.113.006.027A1.006,1.006,0,0,0,.7,8.706c.122.252.053.3.168.531l.217.714.009.024.28,1.051c.011.031.012.043.024.075l.131.534.009.024.081.452.009.024a3.8,3.8,0,0,0,.172.593c.061.125.019.273.132.6l.04.16c0,.033,0,.061,0,.1.019.135.02.076.029.1l.024.075c.011.048.007.067.019.116l.006.026.16.607a3.661,3.661,0,0,0,.123.509c.072.209,0,.482.074.693a14.091,14.091,0,0,1,0,2.024c0,.01-.017.036-.02.047-.077.23.05.279-.1.495a.371.371,0,0,0-.04.06c-.005.009-.018.036-.023.044l-.172.192c-.092.1-.021.063-.175.324L1.84,19c0,.009,0,.019-.006.027l-.008.025a1.562,1.562,0,0,0-.176.39l-.05.149-.008.026-.056.242-.009.025-.006.027a.276.276,0,0,0-.005.029l-.063.236a.862.862,0,0,0-.008.159,1.97,1.97,0,0,1-.063.9l-.012.022a2.482,2.482,0,0,1-.2.4l-.055.079c-.079.11-.018-.034-.064.1-.026.166.038.123.093.205l.026.041c.078.14.075.12.25.18l.379.082c.318.108.165.117.417.31.116.088.108.042.23.168a1.151,1.151,0,0,0,.2.193l.469.359a1.735,1.735,0,0,0,.536.356.271.271,0,0,0,.071.029c.037.013.041.012.076.022.424.134.416.206.471.624l.244.687c.011.032.012.045.023.077l.091.274.009.025.066.2.008.025.116.282a3.008,3.008,0,0,0,.085.315c.007.016.035.064.035.064l.056.245c.022.081,0,.006.028.071L5.5,27.895a.223.223,0,0,1,.008.026c.011.035.008.039.021.078l.1.2c.027.081.006.013.019.082l.081.252a3.111,3.111,0,0,1,.085.315l.286.711.012.022.057.142c.009.039.005.053.011.089l.169.529.036.064c.064.124.057.262.119.379l.012.022.046.12c.008.039.005.053.011.089l.086.213c.057.12.036.2.131.4l.291.672.007.027a.532.532,0,0,0,.021.079c.03.074-.005,0,.036.063l.1.16a.174.174,0,0,0,.011.022l.011.023.033.067c.181.377.286.3.629.529.116.078.158.049.266.131a4.069,4.069,0,0,0,.56.264,2.087,2.087,0,0,0,.333.1c.415.144.425.048.657.133l.146.051c.01,0,.037.016.048.019L10.2,34c.074.019.011,0,.07.029,0,0,.047.03.062.038l.147.05a1.415,1.415,0,0,1,.53.3,2.484,2.484,0,0,0,.8.385c.129.028.017,0,.076.022a1.465,1.465,0,0,0,.426.1l.165.032a5.968,5.968,0,0,0,.858.129c.064.028.1.043.126.106h1.9c.063-.15.286-.116.415-.147l.025-.009c.008,0,.016-.006.024-.009l.268-.094c.059-.012.1,0,.153-.012l.177-.054.028-.005.16-.038a4.861,4.861,0,0,0,.609-.116l.443-.151.024-.01c.284-.107.309-.126.3-.459,0-.307.2-.393.2-.7l-.17-.094a6.392,6.392,0,0,1-.549-.341l0-.2c.059-.053.141-.151.2-.2l.237-.16.065-.034.37-.125c.078-.022.009,0,.071-.029,0,0,.045-.027.062-.036l.6-.193c.064-.011.008.007.081-.018l.024-.009.13-.068.022-.011a2,2,0,0,0,.489-.372c.066-.065.1-.084.133-.165l.123-.377a1.127,1.127,0,0,0,.019-.411l-.068-.332c-.023-.169-.064-.16-.064-.335a7.419,7.419,0,0,0,0-.831c-.035-.174-.011.022-.05-.149-.019-.078-.009-.09-.032-.169l-.059-.175c0-.008-.005-.016-.008-.024a5.572,5.572,0,0,0-.206-.626.323.323,0,0,1-.026-.074l-.116-.282c-.066-.194.046-.094-.1-.3-.079-.112-.022-.186-.1-.3-.1-.143-.043,0-.093-.24l-.166-.433s-.032-.056-.035-.064-.009-.014-.011-.022a.874.874,0,0,1,.012-.669c.086-.159.066-.342.144-.489l.05-.116c0-.009,0-.018.006-.027l.125-.239a.5.5,0,0,1,.161-.272c.213-.2.428.045.576.217l.146.22a.49.49,0,0,1,.039.06l.145.221.011.022.25.782c.008.05-.005.029.014.086.039.114.085.075.112.186.014.057,0,.079.02.146a3.056,3.056,0,0,1,.126.373c.031.144,0,0,.023.077l.01.024.05.149c0,.008.006.016.009.024l.14.626a2.148,2.148,0,0,1,.022.478,2.548,2.548,0,0,0,.007.36,1.131,1.131,0,0,1,.059.341c.019.264.057,0,.068.3a1.229,1.229,0,0,0,.04.393l.057.242c.044.133.035.388.072.494l.191.708.009.024.253.844.009.023.292.706c.043.134.156.206.273.324a3.446,3.446,0,0,0,.412.348c.12-.117.08-.014.183-.115.043-.043.023-.024.052-.08l.02-.046.093-.206c.011-.036.011-.044.021-.078l.008-.025.009-.025.045-.188a.258.258,0,0,1,.005-.028l.042-.124a1.566,1.566,0,0,0,.013-.387c0-.338.038-1.255,0-1.534-.027-.195-.041-.007-.064-.269a.428.428,0,0,0-.014-.119l-.168-.764c-.04-.147.01-.318-.036-.465l-.019-.048a.933.933,0,0,1-.093-.405c0-.526-.065-.372-.063-.837A2.312,2.312,0,0,1,23,26.579c.007-.082,0-.214,0-.3s0-.2,0-.3l.117-.582.006-.028c.031-.146.047-.229.186-.312l.261-.2.041-.024.021-.012a.652.652,0,0,1,.32-.043.928.928,0,0,1,.387.042l.106.059.023.01.026.008.163.067a.723.723,0,0,0,.076.057c.086.043.128.032.207.091l.317.177a.959.959,0,0,0,.1.03l.328.134.025.008.025.009.447.113c.219.031-.019.035.235.062l.243.054a2.984,2.984,0,0,0,.61.014,2.717,2.717,0,0,1,.818.069l.89.03a2.231,2.231,0,0,0,.591.034,6.877,6.877,0,0,1,1.072.013l.242.088c.058.02-.049,0,.076.023.048.011.07.006.116.017l.118.046c.262.143.3.027.523.1.192.065.459,0,.673.05l.026.007,3.4.053a1.828,1.828,0,0,1,.638.119l.283.013c.065.005,0,0,.058.007a.8.8,0,0,0,.336.059c.277,0,.444.171.831.046l.637-.187.022-.012c.164-.087-.11.056.043-.022l.195-.1a.161.161,0,0,1,.021-.012l.045-.022a.9.9,0,0,1,.654.126l.044.022c.009.005.029.023.037.03l1.083.6c.081.013.031-.006.111.022a1.083,1.083,0,0,0,.347.113,1.758,1.758,0,0,1,.352.11l.272.025a1.734,1.734,0,0,1,.261.068c.153.031.032.036.2.061a4.185,4.185,0,0,1,.754.035c.115.041.4.02.526.067l.484.074a.475.475,0,0,0,.271.093,1.255,1.255,0,0,1,.13,0,3.137,3.137,0,0,0,.658.132c.155,0,.455.018.591,0a1.167,1.167,0,0,1,.56-.065,1.71,1.71,0,0,0,.663-.06.7.7,0,0,1,.156-.009l1.217-.333.138.06c.3.091.149.2.495.3h.115a.32.32,0,0,0,.239-.363c-.005-.067,0,0-.007-.059l-.073-.227-.008-.024-.253-.411a1.217,1.217,0,0,1-.076-.124l-.131-.2c-.019-.031-.056-.074-.07-.1l-.049-.083L48.6,26l-.229-.334c-.182-.286-.1-.448-.167-.735l.035-.239c.029-.07-.022,0,.07-.1l.663-.428.022-.011c.089-.044.285-.123.284-.246a1.816,1.816,0,0,0-.394-.435l-1.005-.68-.131-.067a2.428,2.428,0,0,0-.4-.129c-.232-.082-.507-.108-.739-.184-.314-.1-.255.02-.662-.094a1.439,1.439,0,0,0-.318-.012,3.175,3.175,0,0,0-.589-.069,4.833,4.833,0,0,1-.721,0,1.158,1.158,0,0,0-.462-.065,9.094,9.094,0,0,1-1.05,0,1.817,1.817,0,0,0-.363-.065c-.172-.014-.086-.021-.155-.043a1.462,1.462,0,0,0-.163-.033c-.177-.043.033-.029-.176-.055-.062-.008-.13,0-.193-.005l-.149-.048-.024-.009c-.031-.011-.043-.013-.075-.024l-.071-.028a.513.513,0,0,0-.207-.023,21.445,21.445,0,0,1-2.4-.031,2.184,2.184,0,0,1-.287-.076l-.1-.065a1.376,1.376,0,0,0-.417-.244c-.164-.053-.213-.1-.385-.061l-.166.036-.023.01c-.021.007.015.007-.073.026-.195.042-.194-.03-.5.059-.162.048-.184-.034-.526.067-.228.067-.385-.056-.576-.055-.062,0-.141.006-.2,0a3.145,3.145,0,0,0-.558-.066l-.2-.035a.608.608,0,0,0-.295-.1.481.481,0,0,1-.207-.022,2.932,2.932,0,0,0-.5-.126c-.1-.025.016.005-.071-.027l-.565-.194-.023-.01-.5-.123c-.389-.134-1.727.076-2.192-.076l-.985-.2c-.028-.009,0-.01-.078-.021a2.768,2.768,0,0,1-.377-.016c-.123-.036.044-.028-.18-.051-.109-.012-.069.008-.172-.026-.244-.079-.549-.013-.769-.086-.29-.1-1.529.048-1.876-.03a1.229,1.229,0,0,0-.369-.059c-.269,0-.593.015-.856,0s-.055-.058-.326-.07c-.208-.008-.153-.051-.361-.067l-.282-.013-.024-.009L23.5,19.99a.471.471,0,0,0-.109-.023c-.149-.027-.038.013-.153-.044l-.131-.067c-.063-.025-.087-.022-.152-.047l-.045-.021c-.007,0-.015-.008-.022-.012l-.857-.33c-.137-.047-.04.018-.162-.069l-.469-.258a2.164,2.164,0,0,1-.355-.306c-.079-.062.016.013-.062-.039-.128-.087-.011,0-.1-.094l-.033-.033-.018-.015-.049-.051A1.706,1.706,0,0,1,20.5,18.2c-.059-.186-.228-.343-.264-.566l-.078-.222a.165.165,0,0,0-.011-.022c-.065-.136-.037-.208-.131-.4-.054-.108-.027.005-.041-.158,0-.033,0-.063,0-.1-.011-.1,0-.037-.026-.107,0-.01-.032-.059-.034-.065l-.012-.021-.048-.118c-.011-.036-.008-.04-.021-.08a.25.25,0,0,0-.028-.071c-.092-.2-.081-.315-.136-.4l-.108-.223-.009-.025-.009-.024-.049-.151c0-.01-.015-.037-.019-.048l-.025-.275c-.022-.176-.033-.09-.067-.266a.435.435,0,0,0-.019-.081c0-.011-.015-.039-.018-.049l-.073-.193c-.092-.136-.046-.015-.093-.239l-.032-.1c-.131-.391-.04-.185-.1-.5-.015-.087-.011-.044-.024-.075l-.069-.13a.964.964,0,0,0-.137-.295c-.032-.048-.019-.04-.049-.085-.129-.205-.341-.276-.422-.511l.045-.246a.638.638,0,0,1,.245-.152l.263-.134.021-.012.022-.011.416-.246a10.764,10.764,0,0,0,.944-.944l.213-.217c.122-.124.186-.236.34-.288l.913-.342c.148-.085.249-.248.392-.334l.22-.177.021-.012.043-.023.019-.013.243-.187a.6.6,0,0,0,.123-.108l.293-.3c.031-.03-.008,0,.051-.048.083-.067.108-.048.2-.133l.788-.735a2.2,2.2,0,0,1,.215-.215L24.4,7.7l.021-.012.021-.013c.209-.125.2-.177.492-.134.163.023.037.007.188.109l.469.157c.237-.373.168-.12.164-.767.2-.186.267-.444.593-.634.006,0,.015-.007.021-.012l.042-.024c.092-.064.15-.163.243-.22l.458-.369.019-.013.57-.389.022-.012.023-.01.025-.008.418.022c.128.048.049.055.219-.008l.283-.115c.193-.125.179-.166.234-.331l.159-.473a3.226,3.226,0,0,1,.715-.842l.558-.668c.084-.142.086-.1.137-.262A2.96,2.96,0,0,0,30.61,2.4c.013-.064.006-.079.023-.145l.076-.222.01-.024.033-.167a.887.887,0,0,0-.091-.48c-.106-.221.029-.359-.325-.471C30.228.853,30.16.879,30.05.845L29.807.755a.2.2,0,0,0-.025-.009.282.282,0,0,0-.114-.012,1.014,1.014,0,0,0-.3.1,3.405,3.405,0,0,0-.355.074c-.169.084-.309.1-.478.182l-.046.021-.415.178c-.273.142-.155.108-.422.053a1.37,1.37,0,0,1-.232-.032c-.259-.084-.325.029-.58-.245l-.254-.51c-.056-.122-.041-.219-.154-.309l-.364-.2a.7.7,0,0,0-.422-.025l-.812.31-.021.011-.5.292L24.257.68l-.63.429-.02.013-.064.035-.02.013-.579.514c-.212.272-.638.549-.793.83l-.381.714a1.884,1.884,0,0,1-.449.511c-.093.082-.132.053-.254.11l-.021.011-.063.037a2.666,2.666,0,0,1-.312.084l-1.307.541c-.07.047-.026.028-.073.059s-.038.019-.084.049l-.217.146-.019.014-.292.2a.172.172,0,0,1-.022.012c-.143.086-.141.134-.39.3L18,5.5l-.019.013-.347.248a1.975,1.975,0,0,0-.157.141l-.282.181a1.808,1.808,0,0,0-.546.615,1.38,1.38,0,0,1-.251.309.686.686,0,0,0-.342.055l-.131.068a.74.74,0,0,1-.393-.009L15.5,7.113c-.186-.082-.273-.261-.433-.36l-1.1-.588c-.212-.1-.234-.054-.415-.113l-.046-.02-.024-.009a2.061,2.061,0,0,0-.581-.015c-.156.006-1.081.317-1.462-.312l-.076-.124a.746.746,0,0,1-.078-.121L10.582,4.3c-.146-.2-.266-.49-.408-.687a3.639,3.639,0,0,0-.35-.479c-.111-.114-.174-.252-.276-.355l-.126-.1a4.062,4.062,0,0,1-.646-.612c-.1-.092-.033-.024-.121-.079a.6.6,0,0,1-.124-.107l-.491-.335a2.17,2.17,0,0,0-.386-.013c-.249,0-.273.069-.384.246a.731.731,0,0,1-.336.292.67.67,0,0,0-.077.022l-.228.1a1.263,1.263,0,0,0-.167.031l-.242.088a.63.63,0,0,1-.375-.01c-.126-.056-.163-.142-.279-.216A.631.631,0,0,0,5.5,2.054l-.046-.021-.272-.091a4.09,4.09,0,0,0-.947-.006c-.147.02-.043-.008-.136.063-.049.039-.011.015-.055.045l-.326.269L3.7,2.324l-.189.143a.253.253,0,0,0-.046.053l-.231.4c-.012.036-.011.044-.022.078L3.2,3.022l-.009.025-.1.463c-.007.035,0,.048-.013.087l-.006.027c0,.008-.006.017-.008.025l-.034.1c-.009.04-.005.051-.012.087a.712.712,0,0,1-.45.515c-.113.037-.132.046-.224.016L1.186,3.836l-.024-.009-.026-.008L.945,3.782l-.024-.01a1.145,1.145,0,0,0-.614-.088l-.176.121c-.044.049-.04.068-.131.068M25.555,9.413c.044-.1.015-.025.045-.088.1-.218.055-.135.33-.2.006,0,.015-.005.02-.006l.036-.007c.072,0,.064.035.163.039,0,.192.031.252.288.41.368.225.256.462.138.725l-.019.047a1.018,1.018,0,0,0-.012.29c0,.178,0,.354-.2.4a1,1,0,0,1-.741-.142,1.751,1.751,0,0,1-.4-.324l-.071-.18c0-.024.006-.012.013-.039.059-.225,0-.251.038-.4l.046-.121c.026-.134-.034-.293.068-.365.069-.048.157-.028.264-.032m-4.6,5.112c0,.184.074.677-.253.63l-.123-.046c-.428-.16-.222,0-.5-.192-.1-.073-.146-.051-.228-.2l-.065-.134c0-.009-.019-.034-.023-.044a.751.751,0,0,1-.005-.6c.011-.015.044-.051.046-.054l.06-.1c.073-.117-.043.053.026-.04l.345-.317.021-.012c.341-.2.349-.6.834-.522.108.035.126.1.2.166.337.332.109.422.231.77,0,.007.072.029,0,.2l-.023.047c-.1.2-.176.2-.324.273l-.1.064a.391.391,0,0,0-.034.031c-.021.02-.066.067-.084.083M27.99,7.613A1.084,1.084,0,0,1,28,7.324c0-.008.005-.016.008-.024a.186.186,0,0,1,.011-.023l.164-.3a2.424,2.424,0,0,1,.549-.477l.02-.012.111-.055.022-.012.657-.333.021-.012.081-.051a3.718,3.718,0,0,1,.382-.313l.28-.182.023-.011.044-.022.022-.011,1.008-.445.022-.011.022-.012a1.872,1.872,0,0,0,.363-.332c.116-.111.06-.04.16-.1a4.716,4.716,0,0,0,.374-.354c.272-.174.6-.506.753-.108,0,.007.005.017.009.025l.013.054.007.026.117.248c.042.073.09.1.111.153a.629.629,0,0,1,.019.281L33.3,5.1c0,.007-.007.015-.011.022l-.078.155c-.263.536-.264.369-.806.516-.28.075-.149-.022-.377.217l-.134.2c-.005.008-.023.03-.028.038a.575.575,0,0,0-.055.078c-.022.037-.011.026-.035.065l-.027.039c-.342.486-.6.605-.826.963-.051.082-.071.073-.124.142l-.072.125a2.744,2.744,0,0,1-.527.533c-.314.2-.116.18-.481.313-.069.025-.08.048-.176,0l-.183-.081c-.235-.07-.256-.169-.256-.408-.211-.006-.052,0-.2-.067L28.8,8l-.021.012-.131.066-.1.6a.186.186,0,0,1-.011.023l-.09.143a.494.494,0,0,1-.07.064c0,.292.079.627-.292.637H27.4c-.158-.016-.082.022-.137-.062-.12-.073-.019.022-.066-.134l-.043-.123c-.08-.143-.407-.21-.244-.687,0-.008.007-.015.01-.023l.009-.024c.1-.4-.14-.164.271-.46a.764.764,0,0,1,.341-.154l.224-.008c.041-.046.08-.082.131-.133.09-.09.065-.038.1-.133m34.625.567c.04-.025,0-.014.074-.029a.413.413,0,0,1,.19.026L63,8.22c.113.041.011-.022.1.06l.282.38c.045.167-.025.5.022.646.037.117.38.333.5.46.01.01.041.046.046.053s.01.014.013.02l.066.134c.005.01.025.045.034.065l.012.022c0,.007.008.015.011.022.016.039.005-.03.025.075l.047.352c.082.261.1.508.2.8l.077.222a2.182,2.182,0,0,1-.01.665c0,.007-.008.015-.011.023s-.007.015-.01.023l-.044.355c0,.011-.015.038-.019.048l-.462,1.066c0,.006-.008.015-.012.022l-.225.272-.053.047-.2.132-.019.013c-.271.178-.3.307-.524.437a1.494,1.494,0,0,0-.274.255l-.476.618c-.005.007-.025.028-.031.034s-.064.063-.084.082l-.258.3a2.1,2.1,0,0,1-.409.419l-.1.061-.034.031-.253.21a2.752,2.752,0,0,1-.621.372l-.026.006-.122.043c-.417.2-.265.02-.546.114l-.023.01-.723.134-.023.01-.025.008-.568.124c-.008,0-.016.007-.024.009l-.5.2c-.111.039-.22.022-.332.062l-.368.094c-.268.028,0,.045-.265.065a4.667,4.667,0,0,1-.922.069l-.481-.113-.025-.008a2.724,2.724,0,0,1-.609-.216c-.09-.053-.022-.014-.1-.069l-.385-.244-.022-.011-.529-.429a1.259,1.259,0,0,1-.239-.426l-.066-.133a.847.847,0,0,1,.007-.607l.06-.173a2.21,2.21,0,0,1,.064-.335,1.1,1.1,0,0,0,.1-.33c.02-.075,0-.008.029-.071.12-.247.051-.316.154-.511l.165-.333.011-.022.143-.222c.05-.085-.011-.011.062-.1.1-.125.236-.2.321-.341a4.934,4.934,0,0,1,.7-.761l.64-.652,1.008-.946.02-.012.27-.227.019-.014c.005,0,.014-.009.019-.013s.033-.021.041-.027l.133-.132c.007-.005.032-.02.04-.026l.509-.35.021-.013.02-.012.482-.312.022-.012.11-.056.043-.022.131-.066.022-.011.921-.434c.215-.082.2-.113.363-.165l.365-.129c.065-.012.005.008.081-.018.011,0,.036-.016.046-.021l.084-.048a.253.253,0,0,1,.07-.03l.4-.133.026-.006.213-.051c.261-.126.28-.055.438-.122l.175-.09a1.047,1.047,0,0,0,.3-.092l.35-.079c0-.009.016,0,.023-.01m-16.95,3.639c-.058.152-.02-.015-.056.112a.384.384,0,0,0-.014.119,1.484,1.484,0,0,1-.028.439l-.1.332a.446.446,0,0,1-.014.086l-.063.136-.011.022-.035.1c-.018.057-.009.047-.03.1l-.615.81-.021.012-.083.05-.034.031-.211.186-.022.011a.273.273,0,0,0-.061.039l-.034.031-.064.069a5.9,5.9,0,0,0-.637.654l-.024.043c0,.006-.008.015-.011.022l-.182.216a1.644,1.644,0,0,0-.263.334c-.08.1-.219.2-.294.3l-.178.186-.019.013-.355.307c-.116.056.063-.031-.045.021l-.209.155a.436.436,0,0,1-.185.112l-.567.259-.023.01-.678.112c-.324.106-.191-.032-.631.126l-.213.051a.8.8,0,0,0-.385.109l-.049.017-.026.007-.457.137a.325.325,0,0,0-.079.019l-.049.018-.1.034-.025.008-.024.009-.047.02c-.009,0-.016.006-.025.008a4.6,4.6,0,0,0-.7.125,2.045,2.045,0,0,1-.758.015c-.081-.018-.051-.02-.072-.027-.158-.055-.374-.065-.544-.114l-.049-.018-.021-.012-.233-.1a3.052,3.052,0,0,1-.534-.358l-.415-.281a1.081,1.081,0,0,1-.415-.512,1.625,1.625,0,0,1-.09-.646,1.083,1.083,0,0,1,.075-.391l.071-.362a2.811,2.811,0,0,0,.122-.343l.052-.148.012-.022c0-.009.019-.033.024-.042A2.609,2.609,0,0,1,35.131,14l.055-.111.011-.023.549-.677a.671.671,0,0,0,.082-.084c.054-.072-.034.056.026-.04,0-.006.009-.015.012-.022a9.058,9.058,0,0,1,1.192-1.224,5.823,5.823,0,0,0,.756-.735c.1-.089,0-.008.1-.067l.328-.266c.07-.04,0,.01.083-.05l.326-.269.056-.044.477-.316a.269.269,0,0,0,.06-.039l.594-.366.023-.01.728-.362a.214.214,0,0,0,.026-.008L42,8.734c.078-.021.009,0,.071-.028L43.1,8.381l.024-.009.125-.04.556-.171c.268-.078.417.1.592.272a.517.517,0,0,1,.175.29c.039.112.005-.063.037.1.019.1.009.161-.063.191,0,.28-.011.368.241.523a.684.684,0,0,1,.083.05l.32.274c.026.082,0,.1.034.2l.079.153c.044.1.033.047.031.236l.162.77c.111.273.059.047.1.431.023.205-.006,0,.066.168M100,16.294c-.132.051-.168.212-.243.288l-.527.532-.249.582c0,.008-.007.016-.01.023l-.009.025a.352.352,0,0,0-.016.117,3.307,3.307,0,0,1-.02.815,15.9,15.9,0,0,0-.049,1.619,1.232,1.232,0,0,1-.2.5l-.04.06a.591.591,0,0,1-.187.211l-.019.014-.73.226a3.314,3.314,0,0,1-1.223-.093l-.048-.018-.026-.008c-.06-.015-.062-.007-.115-.018a2.229,2.229,0,0,1-.565-.359c-.056-.039-.033-.017-.084-.049-.123-.077-.078-.054-.131-.167l-.033-.067c-.009-.018-.033-.061-.034-.065l-.048-.219a.921.921,0,0,0-.362-.433l-.477-.169c-.15.035-.016.011-.1.038-.108.037-.213.008-.325.038L93.365,20l-.024.009-.239.057a16.963,16.963,0,0,1-2.069.03c-.228-.034.032-.03-.2-.064a4.464,4.464,0,0,1-.731-.025l-1.767-.045a.326.326,0,0,0-.116.016l-.023.01-.046.02a1.928,1.928,0,0,1-.536.023c-.415,0-.611.151-.929.043a4.357,4.357,0,0,0-.477-.05c-.145-.031-.011-.009-.1-.036a.368.368,0,0,0-.108-.023,1.17,1.17,0,0,1-.285-.112l-.526-.133a4.473,4.473,0,0,1-.536-.091l-.691-.2a.575.575,0,0,1-.3-.092c-.107-.053-.2-.03-.311-.084l-.13-.069c-.149-.056-.085.008-.211-.086-.168-.125-.458-.208-.527-.266a1.969,1.969,0,0,1-.467-.427c-.085-.139-.213-.234-.287-.376l-.086-.18c-.079-.162.059.12-.022-.044l-.138-.294c-.058-.181-.12-.2-.15-.381l-.01-.057-.008-.025-.16-.472-.008-.025-.034-.1a2.662,2.662,0,0,0-.093-.4l-.168-.53c-.044-.123,0,.061-.034-.1a.588.588,0,0,1-.009-.125,1.889,1.889,0,0,0-.064-.469L80.7,14.11a1.352,1.352,0,0,1-.015-.252c-.022-.2.006,0-.064-.169-.109.041-.02,0-.114.085-.029.027-.061.062-.084.082a4.292,4.292,0,0,0,.025.944c.029.09.014-.059.04.125a6.026,6.026,0,0,0,.035.833l.019.048a2.16,2.16,0,0,1,.018.454.661.661,0,0,1,.209.251l.011.022.041.159a5.522,5.522,0,0,0,.041,1.094.827.827,0,0,1,.027.206c.032.22.018,0,.055.177l0,.59c-.019.1-.04.094-.082.183,0,.007-.008.015-.011.022-.091.213.016.136-.166.3,0,.357-.018.8-.458.836a6.939,6.939,0,0,0-.923.03l-.022.012-.042.023-.064.034-.294.236c-.066.068-.131.134-.2.2a.6.6,0,0,1-.123.108l-.122.077c-.143.111.039.052-.152.079-.333.047-.359,0-.519-.108l-.469-.358a1.407,1.407,0,0,1-.344-.419.289.289,0,0,0-.049-.05,6.5,6.5,0,0,1-.785-.938l-.288-.374c0-.006-.008-.016-.011-.022l-.168-.264-.044-.056-.3-.394L75.3,17.9l-.011-.022-.011-.022-.013-.021c-.056-.081-.151-.136-.2-.225-.34-.561-1-.675-1.437-1.111-.295-.294-.077-.182-.192-.472-.04-.1-.057-.148-.167-.2-.08.034-.089.053-.133.133-.108.192-.022.419-.078.622l-.055.212a1.081,1.081,0,0,0,.134.7l.2.631c.032.22.019,0,.056.177a6.31,6.31,0,0,1-.033,1.356l-.368.628c-.213.234-.159.153-.422.238l-.024.01c-.581.2-.575-.186-.986-.369l-.131.068-.066.034c-.021.011.005.007-.065.033a1.155,1.155,0,0,1-.008.193l-.033.1c-.061.181,0,.122-.138.262L70.8,21.1a.234.234,0,0,1-.106.059c-.021.007-.049.013-.078.022l-.025.008-.91.244c-.131-.024-.051.025-.108-.061-.094-.056-.033.042-.059-.107-.022-.128.044-.362,0-.468a.93.93,0,0,0-.375-.286c-.28-.115-.175-.1-.331-.3-.166-.218-.036-.063-.088-.311-.041-.189-.023.058-.056-.177a.721.721,0,0,0-.026-.207,3.8,3.8,0,0,1-.042-1.025V13.221c-.133.056-.138.186-.181.317l-.146.419L68.244,14l-.148.317a1.261,1.261,0,0,0-.182.35l-.054.079c-.147.207-.176.331-.291.506l-.367.562a.459.459,0,0,0-.051.081l-.094.138c-.038.056-.015.028-.049.084l-1.221,1.4a1.039,1.039,0,0,1-.189.209c-.127.09-.213.231-.336.325l-2.207,1.563-.088.045-.529.3-.025.007-.214.117-.023.01a.215.215,0,0,1-.026.008l-.026.007-.557.235-.024.01-1.144.339-.026.007c-.048.011-.066.007-.114.018l-.026.007-.312.051c-.1.007-.037,0-.108.023l-.3.058c-.4.108-.4,0-.639.085a.876.876,0,0,1-.3.031l-.185.046-.024.009c-.278.08-.615-.052-.892.028a5.807,5.807,0,0,1-1.394.054l-.342-.054c-.17-.048-.385,0-.567-.057l-.888-.167-.026-.006-.025-.009c-.011,0-.037-.016-.047-.019a3.6,3.6,0,0,1-.544-.116l-.386-.108-.025-.008-.025-.008-.151-.047A.805.805,0,0,1,52.7,20.4l-.023-.01c-.1-.033-.166-.007-.264-.033a1.528,1.528,0,0,1-.153-.078l-.2-.066c-.161-.06-.283-.179-.425-.235-.108-.043-.116-.1-.229-.168l-.34-.189c-.071-.052-.078-.047-.141-.09l-.075-.058c-.051-.036-.027-.015-.082-.05s-.1-.075-.155-.109a2.9,2.9,0,0,1-.579-.479c-.1-.086-.089-.043-.161-.1-.132-.108-.016-.015-.092-.141l-.648-1.345a.252.252,0,0,1-.041-.059l-.232-.466-.012-.022a2.323,2.323,0,0,1-.149-.315c-.076-.152.053.106-.024-.043s-.047-.064-.053-.281a.372.372,0,0,0-.011-.121c-.027-.116-.019-.209-.186-.178-.066.013-.077.093-.116.15l-.1.162c-.015.024-.033.044-.056.076a.524.524,0,0,0-.051.082l-.011.022-.406.557c-.06.1.029-.033-.026.039a8.051,8.051,0,0,1-.64.652,3.583,3.583,0,0,1-.536.489l-.2.193-.019.013-2.028,1.412-.018.014c-.119.089-.006.03-.153.08l-.026.006-.788.4-.026.008-.4.162-.021.013-.109.055-.025.009-.422.139c-.3.066-.626.208-.918.269a3.258,3.258,0,0,0-.576.082l-.05.015c-.186.061-.467.008-.635.056l-.34.055c-.161.022-.049.013-.1.031-.258.092-.7-.022-.979.04-.18.039.049.039-.2.061a11.223,11.223,0,0,1-1.374-.008c-.147-.032-.011-.009-.1-.037a2.288,2.288,0,0,0-.5-.022l-.415-.112c-.127-.041-.329-.023-.461-.065l-.4-.091a1.261,1.261,0,0,1-.13,0,.145.145,0,0,1-.027,0l-.122-.044-.025-.008-.05-.015-.025-.009-.025-.008-.024-.009-.024-.009-.025-.009-.388-.107c-.008,0-.016-.006-.024-.009l-.944-.276a5.4,5.4,0,0,1-.983-.57l-.622-.4a.42.42,0,0,0-.08-.053l-.213-.183c-.291-.306-.316-.152-.6-.594l-.479-1.116a3.978,3.978,0,0,1-.28-.45l-.03-.1-.012-.022-.243-.622c0-.008-.005-.016-.008-.025l-.018-.048c-.026-.086-.021-.135-.048-.219s0,.056-.035-.1c-.042-.2.033-.454-.03-.638a.416.416,0,0,1-.039-.214c.034-.169.055.041.06-.479l.11-.421c.032-.107.019-.19.086-.281l.09-.142c.134-.279.507-.32.778-.779l.407-.688.012-.022L31.251,12l.01-.023c.023-.056.007-.048.028-.1.031-.081-.006-.005.049-.083.036-.051.013-.011.043-.056l.353-.444.041-.025.106-.092a.64.64,0,0,1,.138-.126c.22-.139.264-.23.526-.4l.1-.062c.008-.006.028-.025.036-.03.072-.053.007-.02.082-.049a3.057,3.057,0,0,0,.5-.295l.02-.013.4-.326c.082-.064-.077.047.039-.026l.386-.342c.109-.1.044-.036.139-.093l.368-.294s.06-.049.073-.058l.144-.088c.061-.051.063-.079.138-.126a3.448,3.448,0,0,1,.35-.246c.1-.048-.062.031.045-.021a.737.737,0,0,0,.086-.047l.218-.178.022-.012.421-.239c.008,0,.018,0,.026-.008l.026-.006.026-.006.379-.217a1.421,1.421,0,0,0,.315-.247l.3-.163.022-.012,1.1-.489a1.842,1.842,0,0,1,.334-.194c.248-.057.1-.025.28-.117l.242-.122.021-.013.175-.056c.482-.21.172,0,.566-.193l.221-.041a.639.639,0,0,0,.124-.007l.3-.064c.236-.034-.035-.029.2-.061.078-.012.183.007.259,0,.238-.034-.038-.029.2-.064a2.1,2.1,0,0,0,.426-.035.177.177,0,0,1,.023-.01l.024-.01a8.342,8.342,0,0,0,1.192-.09l.026-.007.071-.028a1.844,1.844,0,0,1,.982.059l.572.22.037.029c.069.051.125.073.161.1a.831.831,0,0,1,.2.333c.058.178-.011.012.1.169s.138.366.37.394a.7.7,0,0,0,.3-.088l.647-.107c.156.023.072.032.176.056.259.06.174.076.379.149a3.978,3.978,0,0,1,.444.282l.131.068c.071.044.078.062.155.108l.444.384c.006.007.021.031.027.039.135.191.28.293.4.489l.307.456c.1.143.034.008.065.2.017.1,0,.036.028.106,0,.007.007.015.011.022s.009.014.011.021.01.014.013.022.008.014.011.021c.056.1.034.28.1.4a.166.166,0,0,0,.011.022c.011.02.046.085.046.087l.055.178.01.024.011.022.176.422a4.448,4.448,0,0,0,.378.651c.094.128.046.016.06.205l.052.215a2.076,2.076,0,0,1,.014.487h.2c0-.254.034-.173.13-.335l.011-.022.251-.311a2.084,2.084,0,0,1,.634-.558l.327-.269c.213-.143.169-.074.283-.146l.282-.147c.008-.005.027-.025.035-.03a.412.412,0,0,1,.06-.04c.147-.091.28-.267.415-.346l.2-.162.021-.013.02-.012.072-.06c.005-.005.011-.013.015-.019l.086-.081a.156.156,0,0,0,.02-.013L54.292,8.5l.021-.012c.037-.022.022-.007.064-.035a1.1,1.1,0,0,1,.242-.189l.022-.01.167-.1c.088-.067.124-.051.225-.1l.115-.083c.076-.037.056-.009.126-.039s0,0,.063-.037l.334-.228.021-.012.572-.353a1.662,1.662,0,0,0,.286-.143l.654-.271.022-.011.022-.012.152-.079a.265.265,0,0,1,.071-.028l.521-.239.022-.01.049-.019a2.958,2.958,0,0,1,.384-.144l.309-.086.024-.01c.008,0,.016-.006.024-.009l.495-.1c.162-.014.087-.04.264-.065a1.771,1.771,0,0,0,.407-.055l.026-.007a2.777,2.777,0,0,1,.324-.005c.254-.022,0-.058.292-.071.272-.012.554.027.825,0a.265.265,0,0,0,.084-.014l.289-.108.026-.006a2.429,2.429,0,0,1,.785.023l.422.1c.172.023.08.056.216.115.161.07.063-.049.216.115a2.242,2.242,0,0,1,.392.637,1.09,1.09,0,0,0,.328.334c.063.013.1-.023.156-.042l.219-.078.026-.006L64.775,7c.155-.032,0,0,.1-.036a.627.627,0,0,1,.242-.027,1.131,1.131,0,0,1,.372.092l1.191.727.063.069c.053.057.076.078.131.134l.676.848a.885.885,0,0,1,.146.286l.174.592a3.491,3.491,0,0,0,.172.526l.449.845c.047.07.079.082.174.091,0-.112,0-.223,0-.335l.044-.29a2.247,2.247,0,0,0,.023-.611,1.358,1.358,0,0,1,.063-.6l.016-.25c.1-.362.015-.311.093-.473.2-.4.005-.217.143-.489l.1-.264.011-.022.555-.772a1.8,1.8,0,0,0,.161-.169l.131-.2.013-.02a.155.155,0,0,1,.012-.021l.1-.16.013-.021a.884.884,0,0,1,.309-.288.783.783,0,0,1,.934.18c.361.387.305.2.684.274.121.025.125.06.266.063.1,0,.2,0,.3,0a1.17,1.17,0,0,1,.773.182c.09.094.008.012.063.1a.833.833,0,0,0,.069.1l.05.082.011.021a.319.319,0,0,0,.041.058,1.178,1.178,0,0,1,.146.554c.026.176.048.114.062.271l.131.5a2.887,2.887,0,0,0,.125.341l.116.282.009.025.02.079.008.026.123.308a.374.374,0,0,0,.026.074c.176.412.057.226.131.4l.1.233.007.025c.069.184.087.057.128.3a1.766,1.766,0,0,0,.114.286c.056.168.1.168.141.29l.245.551a.629.629,0,0,1,.037.13.252.252,0,0,0,.028.072l.4.867.011.022.022.045.055.111c.058.1-.008-.005.055.078a1.109,1.109,0,0,1,.1.229l.189.275a.482.482,0,0,1,.037.063c.056.1-.037-.057.021.045.168.294.362-.015.385-.154s.038-.06.063-.237l-.065-1.4a5.669,5.669,0,0,0-.049-1.22l-.039-.2c0-.008-.006-.016-.009-.024l-.291-.806A2.8,2.8,0,0,0,76.2,9.4l-.047-.509a3.171,3.171,0,0,1,.826-.93c.037-.022.023-.008.065-.035l.1-.093.131-.134a2.269,2.269,0,0,1,.422-.405,1.85,1.85,0,0,0,.416-.378l.213-.25.016-.018a.145.145,0,0,0,.017-.016l.366-.3c.2-.13.075-.078.3-.129a.88.88,0,0,1,.369-.056l.1.03a.575.575,0,0,1,.358.237l.22.344a1.522,1.522,0,0,1,.209.655,1.934,1.934,0,0,0,.065.535,8.96,8.96,0,0,1-.067,1.1c0,.241-.1.406-.064.664.021.134.021.07.032.1s.006-.022.026.074l.05.55c0,.009.006.017.008.025a.436.436,0,0,1,.014.119c.023.246.03.088.059.24.019.1-.006.175.021.28l.116.316c.046.069-.017.03.066.066.092-.038.014,0,.064-.068.25-.347.739-.686.921-1l.344-.452c.076-.1.019-.037.073-.126s.17-.168.228-.268c0-.006.007-.015.011-.022l.022-.044c0-.006.009-.015.013-.021l.293-.3a3.544,3.544,0,0,1,.262-.335c.4-.4.409-.373.858-.368.183,0,.124.056.325.069l.041-.359a1.713,1.713,0,0,1,.5-.7c.131-.125.025-.04.176-.088.21-.066.32-.1.4.174l.023.077s0,.017.009.024c.1,0,.1.019.167-.03l.019-.015c.1-.1.017.036.041-.092.01-.049,0-.107.007-.16a.466.466,0,0,1,.191-.34,2.662,2.662,0,0,1,.439-.422l.218-.145.045-.022.022-.011.22-.111.02-.013.072-.059A.4.4,0,0,1,86.7,6.22l.176-.09.022-.011.071-.028c.168-.056.179-.12.316-.146a.592.592,0,0,0,.138-.027,1.387,1.387,0,0,1,.6-.021l.048.018.024.009.077.022c.078.026.036-.022.128.071a.355.355,0,0,1,.065.1l.085.182.377.039c.1-.021.037-.01.073-.026L88.92,6.3l.4-.133a1.566,1.566,0,0,1,.632-.091,1.628,1.628,0,0,1,.629.062l.351.078c.118.028.027-.005.127.07s.16.063.241.189c.071.111.149.177.164.3a1.342,1.342,0,0,1-.052.616c-.1.188-.1.342-.208.558l-.287.308-.588.238L90.3,8.5l-.293.1c-.076.015-.147,0-.221.009-.156.022-.054.015-.1.031-.242.084-.442.038-.661.2l-.589.6-.02.013-.723.6-.021.012-.505.388c-.231.151-.259.208-.43.331l-.019.013c-.029.022-.056.043-.077.056l-.217.146c-.008.005-.034.019-.043.023l-.066.032-.132.066a1.689,1.689,0,0,1-.273.156c-.135.044-.146.113-.273.189a2.246,2.246,0,0,0-.635.657l-.273.49-.011.022-.109.223a4.922,4.922,0,0,0-.257.507c-.029.075.005.005-.034.065l-.223.442-.008.025-.074.225A3.2,3.2,0,0,0,84,15.292l.091.342a.89.89,0,0,0,.117.416c.161.316.244.232.434.359l.291.139c.155.08.295.09.457.169s.153-.011.34.123c.093.067.13.048.233.1l.063.036.021.013L86.07,17a.178.178,0,0,0,.023.011,4.077,4.077,0,0,0,.958.015c.183-.04-.056-.025.172-.058a3.491,3.491,0,0,0,.534-.025,8.912,8.912,0,0,1,1.106-.045c.226-.034-.012-.019.172-.059a.952.952,0,0,1,.19-.007c.114,0,.326-.012.427,0,.218.03,0,.019.173.057.269.06.263-.057.456.272l.1.16a.6.6,0,0,0,.037.063c.048.058-.013,0,.053.048.123.093.229.182.36.065.027-.025.049-.051.081-.083.056-.057.1-.115.162-.169l.919-.7c.188-.288.542-.446.319-.85l-.136-.162c-.1-.119-.13-.241-.285-.344a.7.7,0,0,1-.19-.14l-.45-.279c-.022-.008-.03-.005-.052-.013-.111-.039-.013.013-.108-.057-.075-.056.011-.008-.094-.07-.184-.108-.176-.058-.288-.242l-.22-.517.11-.311c.265-.208.214-.084.484-.175.183-.061.436.013.611-.047l.1-.037a.7.7,0,0,1,.156-.008,5.511,5.511,0,0,0,.788,0c.152-.023.057-.017.1-.032.108-.038.115,0,.281-.048a3.61,3.61,0,0,1,.526-.066l.31-.053c.273-.022-.011-.047.262-.068A.922.922,0,0,0,94.524,13a2.236,2.236,0,0,1,.581-.043,1.929,1.929,0,0,1,.9.082l.64.218.024.008.025.009.22.11c.109.068.02.01.12.046.176.064.078.129.331.132a2.07,2.07,0,0,1,.325,0c.122.026.125.062.266.063a1.228,1.228,0,0,1,.287.009,1.045,1.045,0,0,1,.506.454,2.621,2.621,0,0,0,.394.566c.092.108.039.091.131.2.057.068.1.1.145.153s.1.1.165.167c.035.034.06.051.085.08.069.079.024.029.054.079a.573.573,0,0,0,.064.1l.042.056c.062.1.053.148.166.2Z" transform="translate(0 0)" fill="#ed1c24" fill-rule="evenodd"/>
  </g>
</svg>
