<?xml version="1.0" encoding="utf-8"?>
<!-- Generator: Adobe Illustrator 24.0.2, SVG Export Plug-In . SVG Version: 6.00 Build 0)  -->
<svg version="1.1" id="Ñëîé_1" xmlns="http://www.w3.org/2000/svg" xmlns:xlink="http://www.w3.org/1999/xlink" x="0px" y="0px"
	 viewBox="0 0 960 560" style="enable-background:new 0 0 960 560;" xml:space="preserve">
<style type="text/css">
	.st0{fill:#101125;}
	.st1{opacity:0.19;}
	.st2{opacity:0.14;fill:#6D76A0;}
	.st3{fill:#6D76A0;}
	.st4{opacity:0.57;fill:#6D76A0;}
	.st5{opacity:0.31;fill:#6D76A0;}
	.st6{enable-background:new    ;}
	.st7{opacity:0.14;}
	.st8{fill:#FF557A;}
	.st9{fill:#1C202B;}
	.st10{fill:#2A2E3A;}
	.st11{fill:#454C5B;}
	.st12{fill:#EDEDED;}
	.st13{fill:#393F4F;}
	.st14{fill:#6EE4FF;}
	.st15{opacity:0.5216;fill:#6EE4FF;}
	.st16{opacity:0.2;fill:#6EE4FF;}
	.st17{opacity:0.4;fill:#6EE4FF;}
	.st18{fill:#0EC4BF;}
	.st19{opacity:0.64;}
	.st20{opacity:0.32;}
	.st21{fill:#CCCCCC;}
	.st22{fill:#A4A4A5;}
	.st23{fill:#FFFFFF;}
	.st24{filter:url(#Adobe_OpacityMaskFilter);}
	.st25{filter:url(#Adobe_OpacityMaskFilter_1_);}
	.st26{mask:url(#SVGID_1_);fill:url(#SVGID_2_);}
	.st27{fill:url(#SVGID_3_);}
	.st28{filter:url(#Adobe_OpacityMaskFilter_2_);}
	.st29{filter:url(#Adobe_OpacityMaskFilter_3_);}
	.st30{mask:url(#SVGID_4_);fill:url(#SVGID_5_);}
	.st31{fill:url(#SVGID_6_);}
	.st32{filter:url(#Adobe_OpacityMaskFilter_4_);}
	.st33{filter:url(#Adobe_OpacityMaskFilter_5_);}
	.st34{mask:url(#SVGID_7_);fill:url(#SVGID_8_);}
	.st35{fill:url(#SVGID_9_);}
	.st36{filter:url(#Adobe_OpacityMaskFilter_6_);}
	.st37{filter:url(#Adobe_OpacityMaskFilter_7_);}
	.st38{mask:url(#SVGID_10_);fill:url(#SVGID_11_);}
	.st39{fill:url(#SVGID_12_);}
</style>
<g>
	<g>
		<g>
			<rect x="0" y="0" class="st0" width="960" height="560"/>
		</g>
	</g>
</g>
<g class="st1">
	<g>
		<polygon class="st2" points="534.14,132.94 502.09,151.57 469.83,132.94 501.87,114.32 		"/>
	</g>
	<g>
		<polygon class="st3" points="575.08,156.58 543.03,175.2 510.78,156.58 542.82,137.96 		"/>
	</g>
	<g>
		<polygon class="st3" points="616.02,180.22 583.97,198.84 551.72,180.22 583.76,161.59 		"/>
	</g>
	<g>
		<polygon class="st3" points="697.9,227.49 665.85,246.12 633.6,227.49 665.64,208.87 		"/>
	</g>
	<g>
		<polygon class="st3" points="533.85,227.97 501.8,246.59 469.55,227.97 501.59,209.35 		"/>
	</g>
	<g>
		<polygon class="st4" points="574.93,204.09 542.89,222.72 510.63,204.09 542.68,185.47 		"/>
	</g>
	<g>
		<polygon class="st5" points="779.78,274.77 747.74,293.39 715.48,274.77 747.53,256.14 		"/>
	</g>
	<g>
		<polygon class="st5" points="738.42,393.67 706.36,412.3 674.11,393.68 706.16,375.05 		"/>
	</g>
	<g>
		<polygon class="st5" points="779.5,369.8 747.46,388.42 715.2,369.8 747.25,351.17 		"/>
	</g>
	<g>
		<polygon class="st4" points="820.59,345.92 788.54,364.54 756.28,345.92 788.33,327.3 		"/>
	</g>
	<g>
		<polygon class="st5" points="861.67,322.05 829.62,340.67 797.37,322.05 829.42,303.42 		"/>
	</g>
	<g>
		<polygon class="st3" points="820.73,298.41 788.68,317.03 756.43,298.41 788.47,279.79 		"/>
	</g>
	<g>
		<polygon class="st4" points="656.53,346.39 624.47,365.02 592.22,346.4 624.27,327.77 		"/>
	</g>
	<g>
		<polygon class="st2" points="697.33,417.55 665.28,436.18 633.02,417.55 665.07,398.93 		"/>
	</g>
	<g>
		<polygon class="st4" points="656.39,393.92 624.34,412.54 592.08,393.92 624.13,375.29 		"/>
	</g>
	<g>
		<polygon class="st5" points="697.48,370.04 665.42,388.66 633.17,370.04 665.22,351.41 		"/>
	</g>
	<g>
		<polygon class="st3" points="738.56,346.16 706.51,364.78 674.26,346.16 706.31,327.54 		"/>
	</g>
	<g>
		<polygon class="st2" points="779.65,322.28 747.6,340.91 715.34,322.28 747.39,303.66 		"/>
	</g>
	<g>
		<polygon class="st5" points="738.7,298.64 706.65,317.27 674.4,298.64 706.44,280.02 		"/>
	</g>
	<g>
		<polygon class="st3" points="615.44,370.27 583.39,388.9 551.13,370.27 583.18,351.65 		"/>
	</g>
	<g class="st6">
		<g>
			<polygon class="st5" points="410.29,394.63 378.25,413.25 345.99,394.63 378.04,376.01 			"/>
		</g>
		<g>
			<polygon class="st3" points="451.24,418.27 419.19,436.89 386.93,418.27 418.98,399.65 			"/>
		</g>
		<g>
			<polygon class="st3" points="369.21,418.51 337.16,437.13 304.91,418.51 336.95,399.88 			"/>
		</g>
		<g>
			<polygon class="st2" points="492.18,441.91 460.13,460.53 427.87,441.91 459.92,423.28 			"/>
		</g>
		<g>
			<polygon class="st2" points="410.15,442.14 378.1,460.77 345.85,442.14 377.89,423.52 			"/>
		</g>
		<g>
			<polygon class="st2" points="451.09,465.78 419.04,484.4 386.79,465.78 418.83,447.16 			"/>
		</g>
	</g>
	<g>
		<polygon class="st3" points="492.33,394.39 460.28,413.01 428.02,394.39 460.07,375.77 		"/>
	</g>
	<g>
		<polygon class="st2" points="533.41,370.51 501.36,389.14 469.11,370.51 501.16,351.89 		"/>
	</g>
	<g>
		<polygon class="st2" points="574.5,346.64 542.45,365.26 510.19,346.64 542.24,328.01 		"/>
	</g>
	<g>
		<polygon class="st3" points="615.59,322.76 583.53,341.38 551.28,322.76 583.33,304.13 		"/>
	</g>
	<g class="st6">
		<g>
			<polygon class="st3" points="697.76,275.01 665.71,293.63 633.45,275.01 665.5,256.38 			"/>
		</g>
		<g>
			<polygon class="st3" points="656.67,298.88 624.63,317.5 592.37,298.88 624.42,280.26 			"/>
		</g>
	</g>
	<g>
		<polygon class="st5" points="328.41,347.36 296.37,365.98 264.11,347.36 296.16,328.73 		"/>
	</g>
	<g>
		<polygon class="st5" points="328.27,394.87 296.22,413.49 263.97,394.87 296.01,376.25 		"/>
	</g>
	<g>
		<polygon class="st3" points="369.35,370.99 337.31,389.62 305.05,370.99 337.1,352.37 		"/>
	</g>
	<g class="st6">
		<g>
			<polygon class="st4" points="492.61,299.36 460.57,317.99 428.31,299.36 460.36,280.74 			"/>
		</g>
		<g>
			<polygon class="st2" points="410.59,299.6 378.54,318.22 346.29,299.6 378.33,280.98 			"/>
		</g>
		<g>
			<polygon class="st3" points="533.56,323 501.51,341.62 469.25,323 501.3,304.38 			"/>
		</g>
		<g>
			<polygon class="st2" points="451.53,323.24 419.48,341.86 387.23,323.24 419.27,304.62 			"/>
		</g>
		<g>
			<polygon class="st3" points="369.5,323.48 337.46,342.1 305.2,323.48 337.25,304.85 			"/>
		</g>
		<g>
			<polygon class="st2" points="492.47,346.88 460.42,365.5 428.17,346.88 460.21,328.25 			"/>
		</g>
		<g>
			<polygon class="st3" points="410.45,347.11 378.4,365.74 346.14,347.11 378.19,328.49 			"/>
		</g>
		<g>
			<polygon class="st4" points="451.39,370.75 419.34,389.37 387.08,370.75 419.13,352.13 			"/>
		</g>
	</g>
	<g>
		<polygon class="st4" points="574.65,299.12 542.59,317.75 510.34,299.12 542.39,280.5 		"/>
	</g>
	<g>
		<polygon class="st5" points="615.73,275.24 583.68,293.87 551.43,275.24 583.48,256.62 		"/>
	</g>
	<g>
		<polygon class="st3" points="656.82,251.37 624.77,269.99 592.51,251.37 624.56,232.75 		"/>
	</g>
	<g>
		<polygon class="st4" points="615.88,227.73 583.83,246.35 551.57,227.73 583.62,209.11 		"/>
	</g>
	<g class="st7">
		<polygon class="st2" points="656.96,203.86 624.91,222.48 592.66,203.86 624.7,185.23 		"/>
	</g>
	<g>
		<polygon class="st4" points="738.84,251.13 706.79,269.75 674.54,251.13 706.59,232.51 		"/>
	</g>
	<g>
		<polygon class="st3" points="410.88,204.57 378.83,223.2 346.57,204.57 378.62,185.94 		"/>
	</g>
	<g>
		<polygon class="st5" points="451.97,180.7 419.92,199.32 387.66,180.69 419.7,162.07 		"/>
	</g>
	<g>
		<polygon class="st3" points="493.05,156.82 461.01,175.44 428.74,156.82 460.79,138.19 		"/>
	</g>
	<g>
		<polygon class="st2" points="533.99,180.46 501.95,199.08 469.69,180.46 501.74,161.83 		"/>
	</g>
	<g>
		<polygon class="st3" points="574.79,251.61 542.74,270.23 510.49,251.61 542.53,232.98 		"/>
	</g>
	<g>
		<polygon class="st5" points="533.71,275.48 501.65,294.11 469.4,275.49 501.45,256.86 		"/>
	</g>
	<g>
		<polygon class="st5" points="492.77,251.85 460.71,270.47 428.46,251.85 460.51,233.22 		"/>
	</g>
	<g>
		<polygon class="st4" points="287.33,371.23 255.28,389.86 223.02,371.23 255.07,352.61 		"/>
	</g>
	<g>
		<polygon class="st5" points="246.39,347.6 214.34,366.22 182.08,347.6 214.13,328.97 		"/>
	</g>
	<g>
		<polygon class="st3" points="287.47,323.72 255.43,342.34 223.17,323.72 255.22,305.1 		"/>
	</g>
	<g>
		<polygon class="st4" points="205.45,323.96 173.4,342.58 141.14,323.95 173.18,305.33 		"/>
	</g>
	<g>
		<polygon class="st4" points="246.53,300.08 214.48,318.71 182.22,300.08 214.27,281.46 		"/>
	</g>
	<g>
		<polygon class="st2" points="287.62,276.2 255.58,294.83 223.31,276.2 255.36,257.58 		"/>
	</g>
	<g>
		<polygon class="st5" points="328.56,299.84 296.52,318.46 264.26,299.84 296.31,281.22 		"/>
	</g>
	<g>
		<polygon class="st5" points="369.65,275.96 337.6,294.59 305.35,275.96 337.39,257.34 		"/>
	</g>
	<g>
		<polygon class="st4" points="328.71,252.33 296.66,270.95 264.4,252.32 296.44,233.7 		"/>
	</g>
	<g>
		<polygon class="st4" points="369.79,228.45 337.75,247.07 305.48,228.45 337.53,209.82 		"/>
	</g>
	<g>
		<polygon class="st3" points="451.67,275.73 419.63,294.35 387.37,275.73 419.42,257.1 		"/>
	</g>
	<g>
		<polygon class="st2" points="410.73,252.09 378.69,270.71 346.43,252.09 378.48,233.46 		"/>
	</g>
	<g>
		<polygon class="st5" points="451.82,228.21 419.77,246.84 387.51,228.21 419.57,209.59 		"/>
	</g>
	<g>
		<polygon class="st3" points="492.91,204.33 460.86,222.96 428.61,204.33 460.65,185.71 		"/>
	</g>
	<g>
		<polygon class="st4" points="697.61,322.52 665.57,341.14 633.31,322.52 665.36,303.9 		"/>
	</g>
	<g>
		<polygon class="st3" points="574.35,394.15 542.31,412.77 510.05,394.15 542.1,375.53 		"/>
	</g>
	<g>
		<polygon class="st3" points="615.3,417.79 583.25,436.41 551,417.79 583.04,399.17 		"/>
	</g>
	<g>
		<polygon class="st5" points="574.22,441.67 542.17,460.29 509.91,441.67 541.96,423.04 		"/>
	</g>
	<g class="st6">
		<g>
			<polygon class="st4" points="615.16,465.3 583.11,483.93 550.85,465.3 582.9,446.68 			"/>
		</g>
		<g>
			<polygon class="st4" points="533.12,465.55 501.08,484.17 468.82,465.55 500.87,446.92 			"/>
		</g>
		<g>
			<polygon class="st2" points="574.06,489.18 542.02,507.81 509.76,489.18 541.81,470.56 			"/>
		</g>
		<g>
			<polygon class="st2" points="492.04,489.42 459.99,508.05 427.74,489.42 459.78,470.8 			"/>
		</g>
		<g>
			<polygon class="st2" points="532.98,513.06 500.93,531.68 468.68,513.06 500.72,494.44 			"/>
		</g>
	</g>
	<g>
		<polygon class="st3" points="656.24,441.43 624.19,460.05 591.94,441.43 623.98,422.81 		"/>
	</g>
	<g>
		<polygon class="st5" points="533.27,418.03 501.22,436.65 468.96,418.03 501.01,399.4 		"/>
	</g>
</g>
<g>
	<g>
		<path class="st8" d="M690.98,176.7c-0.49-0.28-0.88-0.05-0.88,0.5c0,0.56,0.39,1.23,0.88,1.52l8.14,4.7
			c0.49,0.28,0.88,0.05,0.88-0.5c0-0.56-0.39-1.23-0.88-1.52L690.98,176.7z"/>
	</g>
	<g>
		<path class="st8" d="M691.68,170.67c-0.49-0.28-0.89-0.06-0.89,0.5c0,0.56,0.39,1.24,0.88,1.52l13.58,7.84
			c0.48,0.28,0.88,0.06,0.88-0.5c0-0.56-0.39-1.24-0.88-1.52L691.68,170.67z"/>
	</g>
	<g>
		<path class="st8" d="M683.75,166.1c-0.49-0.28-0.89-0.06-0.89,0.5c0,0.56,0.39,1.24,0.88,1.52l2.6,1.5
			c0.48,0.28,0.88,0.06,0.88-0.5c0-0.56-0.39-1.24-0.88-1.52L683.75,166.1z"/>
	</g>
	<g>
		<path class="st8" d="M661.91,153.49c-0.48-0.28-0.88-0.05-0.88,0.5c0,0.56,0.39,1.24,0.88,1.52l15.84,9.15
			c0.49,0.28,0.88,0.06,0.88-0.5c0-0.56-0.39-1.23-0.88-1.52L661.91,153.49z"/>
	</g>
	<g>
		<path class="st8" d="M653.99,148.92c-0.48-0.28-0.88-0.05-0.88,0.5c0,0.56,0.39,1.24,0.88,1.52l4.19,2.42
			c0.48,0.28,0.88,0.06,0.88-0.5c0-0.56-0.39-1.24-0.88-1.52L653.99,148.92z"/>
	</g>
	<g>
		<path class="st8" d="M643.81,143.04c-0.49-0.28-0.88-0.05-0.88,0.5c0,0.56,0.39,1.23,0.88,1.52l4.3,2.48
			c0.48,0.28,0.88,0.06,0.88-0.5c0-0.56-0.39-1.24-0.88-1.52L643.81,143.04z"/>
	</g>
	<g>
		<path class="st8" d="M683.74,172.52c-0.49-0.28-0.89-0.06-0.89,0.5c0,0.56,0.39,1.24,0.88,1.52l3.62,2.09
			c0.48,0.28,0.88,0.05,0.88-0.5c0-0.56-0.39-1.24-0.88-1.52L683.74,172.52z"/>
	</g>
	<g>
		<path class="st8" d="M657.03,157.1c-0.48-0.28-0.88-0.05-0.88,0.5c0,0.56,0.39,1.24,0.88,1.52l13.81,7.97
			c0.48,0.28,0.88,0.05,0.88-0.5c0-0.56-0.39-1.24-0.88-1.52L657.03,157.1z"/>
	</g>
	<g>
		<path class="st8" d="M648.09,151.94c-0.49-0.28-0.89-0.06-0.89,0.5c0,0.56,0.39,1.24,0.88,1.52l3.96,2.29
			c0.48,0.28,0.88,0.05,0.88-0.5c0-0.56-0.39-1.24-0.88-1.52L648.09,151.94z"/>
	</g>
	<g>
		<path class="st8" d="M702.59,196.43c-0.48-0.28-0.88-0.06-0.88,0.5c0,0.56,0.39,1.24,0.88,1.52l7.47,4.31
			c0.48,0.28,0.88,0.05,0.88-0.5c0-0.56-0.39-1.24-0.88-1.52L702.59,196.43z"/>
	</g>
	<g>
		<path class="st8" d="M691.62,190.1c-0.49-0.28-0.89-0.07-0.89,0.5c0,0.56,0.39,1.24,0.88,1.52l6.79,3.92
			c0.48,0.28,0.88,0.05,0.88-0.5c0-0.56-0.39-1.24-0.88-1.52L691.62,190.1z"/>
	</g>
	<g>
		<path class="st8" d="M659.34,181.35c-0.48-0.28-0.88-0.05-0.88,0.5c0,0.56,0.39,1.25,0.88,1.53l3.85,2.22
			c0.48,0.28,0.88,0.05,0.88-0.51c0-0.56-0.39-1.24-0.88-1.52L659.34,181.35z"/>
	</g>
	<g>
		<path class="st8" d="M651.42,176.78c-0.48-0.28-0.88-0.05-0.88,0.5c0,0.56,0.39,1.25,0.88,1.53l4.59,2.65
			c0.48,0.28,0.88,0.05,0.88-0.51c0-0.56-0.39-1.24-0.88-1.52L651.42,176.78z"/>
	</g>
	<g>
		<path class="st8" d="M674.36,198.89c-0.48-0.28-0.88-0.05-0.88,0.5c0,0.56,0.39,1.24,0.88,1.52l7.81,4.51
			c0.48,0.28,0.88,0.05,0.88-0.5c0-0.56-0.39-1.24-0.88-1.52L674.36,198.89z"/>
	</g>
	<g>
		<path class="st8" d="M685.45,205.29c-0.48-0.28-0.88-0.05-0.88,0.5c0,0.56,0.39,1.24,0.88,1.52l5.43,3.14
			c0.48,0.28,0.88,0.05,0.88-0.5c0-0.56-0.39-1.24-0.88-1.52L685.45,205.29z"/>
	</g>
	<g>
		<path class="st8" d="M663.12,208.29c-0.49-0.28-0.88-0.06-0.88,0.5c0,0.56,0.39,1.23,0.88,1.52l4.18,2.41
			c0.49,0.28,0.88,0.05,0.88-0.5c0-0.56-0.39-1.23-0.88-1.52L663.12,208.29z"/>
	</g>
	<g>
		<path class="st8" d="M653.83,202.93c-0.48-0.28-0.88-0.06-0.88,0.5c0,0.56,0.39,1.24,0.88,1.52l5.43,3.14
			c0.48,0.28,0.88,0.05,0.88-0.5c0-0.56-0.39-1.24-0.88-1.52L653.83,202.93z"/>
	</g>
	<g>
		<path class="st8" d="M654.65,193.89c-0.48-0.28-0.88-0.06-0.88,0.5c0,0.56,0.39,1.24,0.88,1.52l3.4,1.96
			c0.48,0.28,0.88,0.05,0.88-0.5c0-0.56-0.39-1.24-0.88-1.52L654.65,193.89z"/>
	</g>
	<g>
		<path class="st8" d="M702.5,229.58c-0.48-0.28-0.88-0.05-0.88,0.51c0,0.56,0.39,1.24,0.88,1.52l4.75,2.74
			c0.49,0.28,0.88,0.05,0.88-0.5c0-0.56-0.39-1.24-0.88-1.53L702.5,229.58z"/>
	</g>
</g>
<g>
	<g>
		<path class="st8" d="M319.89,176.7c0.49-0.28,0.88-0.05,0.88,0.5c0,0.56-0.39,1.23-0.88,1.52l-8.14,4.7
			c-0.49,0.28-0.88,0.05-0.88-0.5c0-0.56,0.39-1.23,0.88-1.52L319.89,176.7z"/>
	</g>
	<g>
		<path class="st8" d="M319.19,170.67c0.49-0.28,0.89-0.06,0.89,0.5c0,0.56-0.39,1.24-0.88,1.52l-13.58,7.84
			c-0.48,0.28-0.88,0.06-0.88-0.5c0-0.56,0.39-1.24,0.88-1.52L319.19,170.67z"/>
	</g>
	<g>
		<path class="st8" d="M327.11,166.1c0.49-0.28,0.89-0.06,0.89,0.5c0,0.56-0.39,1.24-0.88,1.52l-2.6,1.5
			c-0.48,0.28-0.88,0.06-0.88-0.5c0-0.56,0.39-1.24,0.88-1.52L327.11,166.1z"/>
	</g>
	<g>
		<path class="st8" d="M348.95,153.49c0.48-0.28,0.88-0.05,0.88,0.5c0,0.56-0.39,1.24-0.88,1.52l-15.84,9.15
			c-0.49,0.28-0.88,0.06-0.88-0.5c0-0.56,0.39-1.23,0.88-1.52L348.95,153.49z"/>
	</g>
	<g>
		<path class="st8" d="M356.87,148.92c0.48-0.28,0.88-0.05,0.88,0.5c0,0.56-0.39,1.24-0.88,1.52l-4.19,2.42
			c-0.48,0.28-0.88,0.06-0.88-0.5c0-0.56,0.39-1.24,0.88-1.52L356.87,148.92z"/>
	</g>
	<g>
		<path class="st8" d="M367.05,143.04c0.49-0.28,0.88-0.05,0.88,0.5c0,0.56-0.39,1.23-0.88,1.52l-4.3,2.48
			c-0.48,0.28-0.88,0.06-0.88-0.5c0-0.56,0.39-1.24,0.88-1.52L367.05,143.04z"/>
	</g>
	<g>
		<path class="st8" d="M327.13,172.52c0.49-0.28,0.89-0.06,0.89,0.5c0,0.56-0.39,1.24-0.88,1.52l-3.62,2.09
			c-0.48,0.28-0.88,0.05-0.88-0.5c0-0.56,0.39-1.24,0.88-1.52L327.13,172.52z"/>
	</g>
	<g>
		<path class="st8" d="M353.83,157.1c0.48-0.28,0.88-0.05,0.88,0.5c0,0.56-0.39,1.24-0.88,1.52l-13.81,7.97
			c-0.48,0.28-0.88,0.05-0.88-0.5c0-0.56,0.39-1.24,0.88-1.52L353.83,157.1z"/>
	</g>
	<g>
		<path class="st8" d="M362.77,151.94c0.49-0.28,0.89-0.06,0.89,0.5c0,0.56-0.39,1.24-0.88,1.52l-3.96,2.29
			c-0.48,0.28-0.88,0.05-0.88-0.5c0-0.56,0.39-1.24,0.88-1.52L362.77,151.94z"/>
	</g>
	<g>
		<path class="st8" d="M308.27,196.43c0.48-0.28,0.88-0.06,0.88,0.5c0,0.56-0.39,1.24-0.88,1.52l-7.47,4.31
			c-0.48,0.28-0.88,0.05-0.88-0.5c0-0.56,0.39-1.24,0.88-1.52L308.27,196.43z"/>
	</g>
	<g>
		<path class="st8" d="M319.24,190.1c0.49-0.28,0.89-0.07,0.89,0.5c0,0.56-0.39,1.24-0.88,1.52l-6.79,3.92
			c-0.48,0.28-0.88,0.05-0.88-0.5c0-0.56,0.39-1.24,0.88-1.52L319.24,190.1z"/>
	</g>
	<g>
		<path class="st8" d="M351.52,181.35c0.48-0.28,0.88-0.05,0.88,0.5c0,0.56-0.39,1.25-0.88,1.53l-3.85,2.22
			c-0.48,0.28-0.88,0.05-0.88-0.51c0-0.56,0.39-1.24,0.88-1.52L351.52,181.35z"/>
	</g>
	<g>
		<path class="st8" d="M359.44,176.78c0.48-0.28,0.88-0.05,0.88,0.5c0,0.56-0.39,1.25-0.88,1.53l-4.59,2.65
			c-0.48,0.28-0.88,0.05-0.88-0.51c0-0.56,0.39-1.24,0.88-1.52L359.44,176.78z"/>
	</g>
	<g>
		<path class="st8" d="M336.5,198.89c0.48-0.28,0.88-0.05,0.88,0.5c0,0.56-0.39,1.24-0.88,1.52l-7.81,4.51
			c-0.48,0.28-0.88,0.05-0.88-0.5c0-0.56,0.39-1.24,0.88-1.52L336.5,198.89z"/>
	</g>
	<g>
		<path class="st8" d="M325.41,205.29c0.48-0.28,0.88-0.05,0.88,0.5c0,0.56-0.39,1.24-0.88,1.52l-5.43,3.14
			c-0.48,0.28-0.88,0.05-0.88-0.5c0-0.56,0.39-1.24,0.88-1.52L325.41,205.29z"/>
	</g>
	<g>
		<path class="st8" d="M347.74,208.29c0.49-0.28,0.88-0.06,0.88,0.5c0,0.56-0.39,1.23-0.88,1.52l-4.18,2.41
			c-0.49,0.28-0.88,0.05-0.88-0.5c0-0.56,0.39-1.23,0.88-1.52L347.74,208.29z"/>
	</g>
	<g>
		<path class="st8" d="M357.03,202.93c0.48-0.28,0.88-0.06,0.88,0.5c0,0.56-0.39,1.24-0.88,1.52l-5.43,3.14
			c-0.48,0.28-0.88,0.05-0.88-0.5c0-0.56,0.39-1.24,0.88-1.52L357.03,202.93z"/>
	</g>
	<g>
		<path class="st8" d="M356.21,193.89c0.48-0.28,0.88-0.06,0.88,0.5c0,0.56-0.39,1.24-0.88,1.52l-3.4,1.96
			c-0.48,0.28-0.88,0.05-0.88-0.5c0-0.56,0.39-1.24,0.88-1.52L356.21,193.89z"/>
	</g>
	<g>
		<path class="st8" d="M308.36,229.58c0.48-0.28,0.88-0.05,0.88,0.51c0,0.56-0.39,1.24-0.88,1.52l-4.75,2.74
			c-0.49,0.28-0.88,0.05-0.88-0.5c0-0.56,0.39-1.24,0.88-1.53L308.36,229.58z"/>
	</g>
</g>
<g id="XMLID_24_">
	<path class="st9" d="M498.9,351.69c-49.17-27.46-98.34-54.91-147.51-82.37c49.38-28.95,98.77-57.89,148.14-86.83
		c1.61-0.95,4.23-0.99,5.83-0.09c49.17,27.46,98.34,54.91,147.51,82.37c-49.37,28.95-98.76,57.88-148.14,86.83
		C503.12,352.55,500.51,352.59,498.9,351.69z"/>
	<path class="st10" d="M351.39,269.32c-3.53-1.97-7.06-3.94-10.59-5.91c-0.7-0.39-1.1-0.9-1.19-1.44c0-0.06-0.01-0.12-0.01-0.18
		c-0.01-0.62,0.39-1.25,1.21-1.72c52.8-30.94,105.59-61.88,158.38-92.83c1.61-0.95,4.23-0.99,5.84-0.08
		c52.7,29.43,105.4,58.86,158.09,88.28c1.61,0.9,1.6,2.4-0.01,3.34c-3.4,2-6.82,4-10.23,6l-0.01-0.01
		c-49.17-27.46-98.34-54.91-147.51-82.37c-1.6-0.9-4.22-0.86-5.83,0.09C450.15,211.43,400.77,240.38,351.39,269.32z"/>
	<path class="st11" d="M663.11,258.78c1.61-0.95,1.62-2.44,0.01-3.34c-52.69-29.42-105.39-58.85-158.09-88.28
		c-1.61-0.9-4.23-0.86-5.84,0.08c-52.79,30.95-105.58,61.89-158.38,92.83c-0.82,0.48-1.22,1.1-1.21,1.72c0,0.06,0.01,0.12,0.01,0.18
		c0.09,0.54,0.49,1.05,1.19,1.44c3.53,1.97,7.06,3.94,10.59,5.91c49.17,27.46,98.34,54.91,147.51,82.37
		c1.61,0.9,4.22,0.86,5.83-0.09c49.38-28.95,98.77-57.88,148.14-86.83l0.01,0.01C656.29,262.78,659.71,260.78,663.11,258.78z
		 M480.33,362.57c-52.7-29.43-105.4-58.86-158.1-88.28c-5.72-3.19-8.67-7.4-8.87-11.71c0-0.07-0.01-0.14,0-0.21
		c-0.11-4.53,2.87-9.11,8.91-12.65c52.8-30.94,105.58-61.89,158.38-92.83c11.87-6.96,31.09-7.23,42.94-0.62
		c52.7,29.43,105.4,58.86,158.1,88.28c5.82,3.25,8.78,7.55,8.87,11.92c0,0.13,0.01,0.25,0,0.37c-0.07,4.4-3.04,8.83-8.91,12.28
		c-52.8,30.94-105.58,61.89-158.38,92.83C511.4,368.91,492.18,369.19,480.33,362.57z"/>
	<path class="st8" d="M327.11,265.56c-2.95-1.65-3.69-3.1-3.75-3.4l0-0.03c0.01-0.3,0.76-1.91,3.97-3.79l3.72-2.18
		c-0.97,1.75-1.49,3.72-1.45,5.78l0.01,0.4l0.01,0.13l0.01,0.48l0.11,0.67c0.26,1.56,0.84,3.04,1.69,4.36L327.11,265.56z
		 M672.85,262.7c0.98-1.74,1.49-3.7,1.47-5.74c-0.02-2.19-0.67-4.28-1.83-6.09l4.33,2.42c3.03,1.69,3.74,3.18,3.75,3.4v0.01
		c-0.03,0.3-0.78,1.93-3.98,3.8L672.85,262.7z"/>
	<path class="st12" d="M690.84,273.06c0.02-0.21,0.04-0.42,0.04-0.63C690.88,272.63,690.86,272.85,690.84,273.06z"/>
	<path class="st12" d="M690.89,272.43c0.02-0.23,0.02-0.47,0.01-0.71c0,0.11,0,0.24,0,0.35
		C690.91,272.19,690.9,272.31,690.89,272.43z"/>
	<path class="st12" d="M689.82,276.57c0.08-0.16,0.15-0.32,0.21-0.49C689.97,276.25,689.9,276.4,689.82,276.57z"/>
	<path class="st12" d="M690.27,275.47c0.09-0.22,0.16-0.45,0.22-0.68C690.44,275.02,690.36,275.25,690.27,275.47z"/>
	<path class="st10" d="M482,437.95c-52.7-29.43-105.4-58.86-158.1-88.28c-5.68-3.17-8.63-7.35-8.86-11.61
		c0.12,5.62,0.25,11.23,0.37,16.84l0.01,0c-0.11,4.52,2.85,9.01,8.88,12.37c52.7,29.43,105.39,58.85,158.09,88.28
		c2.56,1.43,5.47,2.52,8.57,3.3v-17.49C487.71,440.56,484.66,439.44,482,437.95z"/>
	<path class="st13" d="M490.95,441.35v17.49c3.59,0.91,7.44,1.4,11.31,1.46v-17.59C498.4,442.68,494.55,442.23,490.95,441.35z"/>
	<path class="st13" d="M692.61,349.08L692.61,349.08c-0.12-5.64-0.24-11.29-0.38-16.93c-0.03,4.42-3.01,8.89-8.91,12.35
		c-52.79,30.95-105.58,61.89-158.39,92.84c-2.67,1.56-5.71,2.76-8.95,3.65v17.7c3.39-0.89,6.58-2.13,9.35-3.75
		c52.79-30.95,105.58-61.89,158.38-92.83C689.92,358.47,692.88,353.72,692.61,349.08z"/>
	<path class="st10" d="M502.27,442.71v17.59c4.66,0.08,9.36-0.48,13.71-1.62v-17.7C511.64,442.16,506.94,442.75,502.27,442.71z"/>
	<path class="st9" d="M315.03,337.74c-0.05-2.27,0.66-4.54,2.15-6.7l0.01-0.01c1.47,1.95,3.62,3.77,6.42,5.33
		c52.7,29.43,105.4,58.86,158.1,88.28c11.85,6.61,31.07,6.34,42.94-0.62c52.8-30.94,105.58-61.89,158.38-92.83
		c3.02-1.77,5.27-3.79,6.75-5.95c1.58,2.09,2.4,4.33,2.44,6.59c0.01,0.1,0,0.2,0.01,0.3c-0.03,4.42-3.01,8.89-8.91,12.35
		c-52.79,30.95-105.58,61.89-158.39,92.84c-11.87,6.96-31.09,7.23-42.94,0.62c-52.7-29.43-105.4-58.86-158.1-88.28
		c-5.68-3.17-8.63-7.35-8.86-11.61C315.03,337.95,315.03,337.84,315.03,337.74z"/>
	<path class="st10" d="M481.31,407.05c-52.69-29.42-105.39-58.85-158.09-88.28c-5.68-3.17-8.64-7.36-8.86-11.61
		c0.11,5.61,0.24,11.23,0.37,16.85c-0.01,0.14,0,0.28,0,0.43c0.06,2.26,0.87,4.51,2.45,6.58c1.47,1.95,3.62,3.77,6.42,5.33
		c52.7,29.43,105.4,58.86,158.1,88.28c2.74,1.53,5.89,2.68,9.24,3.47v-17.49C487.45,409.83,484.16,408.65,481.31,407.05z"/>
	<path class="st13" d="M490.95,410.63v17.49c3.6,0.85,7.45,1.28,11.31,1.29v-17.59C498.41,411.84,494.56,411.45,490.95,410.63z"/>
	<path class="st10" d="M502.27,411.83v17.59c4.68,0.02,9.38-0.6,13.71-1.81v-17.7C511.66,411.16,506.96,411.81,502.27,411.83z"/>
	<path class="st13" d="M691.93,318.22c-0.12-5.75-0.25-11.52-0.38-17.26c0.1,4.52-2.87,9.1-8.91,12.65
		c-52.8,30.94-105.6,61.89-158.39,92.84c-2.48,1.45-5.29,2.6-8.28,3.46v17.7c3.13-0.88,6.08-2.05,8.67-3.57
		c52.8-30.94,105.58-61.89,158.38-92.83c3.02-1.77,5.27-3.79,6.75-5.95C691.34,322.99,692.05,320.6,691.93,318.22z"/>
	<path class="st9" d="M315.96,300.98c1.46,2.27,3.8,4.37,6.99,6.16c52.7,29.43,105.4,58.86,158.09,88.28
		c11.86,6.62,31.08,6.34,42.95-0.61c52.79-30.95,105.59-61.9,158.39-92.84c3.41-1.99,5.85-4.33,7.29-6.79
		c1.2,1.85,1.83,3.82,1.88,5.78c0.1,4.52-2.87,9.1-8.91,12.65c-52.8,30.94-105.6,61.89-158.39,92.84
		c-11.87,6.96-31.09,7.23-42.95,0.61c-52.69-29.42-105.39-58.85-158.09-88.28c-5.68-3.17-8.64-7.36-8.86-11.61
		c-0.01-0.1,0-0.21-0.01-0.31C314.3,304.88,314.84,302.89,315.96,300.98L315.96,300.98z"/>
	<path class="st12" d="M313.72,278.04c-0.01-0.05-0.01-0.11-0.02-0.16c0-0.09,0-0.17,0-0.26c-0.01-0.08,0-0.16,0.01-0.23
		C313.69,277.6,313.7,277.82,313.72,278.04z"/>
	<path class="st12" d="M313.79,278.77c0.04,0.3,0.09,0.61,0.16,0.92C313.88,279.37,313.83,279.07,313.79,278.77z"/>
	<path class="st12" d="M314.23,280.65c0.09,0.28,0.2,0.55,0.32,0.83C314.43,281.22,314.32,280.93,314.23,280.65z"/>
	<path class="st12" d="M314.55,281.48c0.11,0.28,0.25,0.56,0.39,0.84C314.8,282.05,314.66,281.77,314.55,281.48z"/>
	<path class="st12" d="M315.07,282.53c0.1,0.22,0.23,0.42,0.36,0.63C315.3,282.97,315.18,282.76,315.07,282.53z"/>
	<path class="st12" d="M315.57,283.38c0.13,0.22,0.29,0.45,0.46,0.66C315.86,283.83,315.71,283.62,315.57,283.38z"/>
	<path class="st12" d="M316.15,284.19c0.16,0.22,0.33,0.44,0.52,0.66C316.48,284.64,316.3,284.43,316.15,284.19z"/>
	<path class="st12" d="M316.85,285.07c0.15,0.18,0.3,0.34,0.47,0.51C317.15,285.42,317,285.25,316.85,285.07z"/>
	<path class="st12" d="M317.32,285.58c0.11,0.12,0.21,0.24,0.34,0.35C317.54,285.81,317.43,285.7,317.32,285.58z"/>
	<path class="st12" d="M317.66,285.92c0.13,0.14,0.27,0.27,0.42,0.39C317.92,286.19,317.79,286.06,317.66,285.92z"/>
	<path class="st12" d="M318.08,286.32c0.17,0.17,0.34,0.32,0.52,0.48C318.41,286.64,318.24,286.48,318.08,286.32z"/>
	<path class="st12" d="M318.75,286.91c0.21,0.19,0.44,0.38,0.69,0.56C319.19,287.3,318.96,287.11,318.75,286.91z"/>
	<path class="st12" d="M320.82,288.46c0.21,0.15,0.44,0.29,0.66,0.43C321.25,288.75,321.03,288.62,320.82,288.46z"/>
	<path class="st10" d="M480.33,362.57c-52.7-29.43-105.4-58.86-158.1-88.28c-5.72-3.19-8.67-7.4-8.87-11.71
		c0.12,5.01,0.21,10.02,0.33,15.03c-0.01-0.08,0-0.16,0.01-0.23c-0.01,0.22,0,0.43,0.02,0.65c-0.01-0.05-0.01-0.11-0.02-0.16
		c0.13,5.78,0.27,11.55,0.4,17.34c0.04,1.97,0.66,3.93,1.87,5.77c1.46,2.27,3.8,4.37,7,6.16c52.7,29.43,105.4,58.86,158.09,88.28
		c2.92,1.63,6.3,2.84,9.9,3.64v-32.7C487.08,365.56,483.45,364.31,480.33,362.57z"/>
	<path class="st13" d="M490.95,366.35v32.7c3.62,0.8,7.46,1.17,11.31,1.14v-32.87C498.43,367.41,494.58,367.1,490.95,366.35z"/>
	<path class="st10" d="M502.27,367.33v32.87c4.7-0.04,9.4-0.72,13.71-2v-33.06C511.7,366.49,506.99,367.22,502.27,367.33z"/>
	<path class="st13" d="M691.28,288.96L691.28,288.96c-0.12-5.63-0.25-11.26-0.37-16.89c0,0.13,0,0.25-0.02,0.36
		c0.02-0.23,0.02-0.47,0.01-0.71c-0.1-4.95-0.21-9.91-0.33-14.88c-0.07,4.4-3.04,8.83-8.91,12.28
		c-52.8,30.94-105.58,61.89-158.38,92.83c-2.21,1.29-4.67,2.35-7.29,3.18v33.06c2.89-0.86,5.61-1.98,8.02-3.39
		c52.79-30.95,105.59-61.9,158.39-92.84c3.41-1.99,5.85-4.33,7.29-6.79C690.86,293.16,691.4,291.05,691.28,288.96z"/>
</g>
<g>
	<g>
		<path class="st14" d="M620.55,376.59c-0.41,0.23-0.74,0.04-0.74-0.43c0-0.47,0.34-1.04,0.75-1.27l3.53-1.99
			c0.41-0.23,0.74-0.04,0.74,0.43c0,0.47-0.34,1.03-0.75,1.26L620.55,376.59z"/>
	</g>
	<g>
		<path class="st14" d="M620.89,333.14c-0.41,0.23-0.74,0.04-0.74-0.43c0-0.47,0.34-1.04,0.75-1.27l3.53-1.99
			c0.41-0.23,0.74-0.04,0.74,0.43c0,0.47-0.34,1.04-0.75,1.27L620.89,333.14z"/>
	</g>
	<g class="st6">
		<g>
			<path class="st14" d="M671.32,326.36c-0.41,0.23-0.74,0.04-0.74-0.43c0-0.47,0.34-1.04,0.75-1.27l3.53-1.99
				c0.41-0.23,0.74-0.04,0.74,0.43c0,0.47-0.34,1.04-0.75,1.27L671.32,326.36z"/>
		</g>
		<g>
			<path class="st15" d="M662.42,355.02c-0.98,0.55-1.77,0.09-1.76-1.03l0.35-45.16c0.01-1.12,0.81-2.47,1.79-3.02
				c0.98-0.55,1.77-0.1,1.76,1.02L664.21,352C664.2,353.11,663.4,354.47,662.42,355.02z M661.44,339.15l-0.08,9.94
				c-0.01,0.69,0.49,0.98,1.1,0.64c0.61-0.35,1.11-1.19,1.11-1.88l0.08-9.94c0.01-0.69-0.48-0.98-1.09-0.64
				C661.95,337.62,661.45,338.46,661.44,339.15"/>
		</g>
		<g>
			<path class="st14" d="M662.46,349.73c-0.61,0.34-1.1,0.06-1.1-0.64l0.08-9.94c0.01-0.69,0.5-1.54,1.12-1.88
				c0.61-0.34,1.1-0.06,1.09,0.64l-0.08,9.94C663.57,348.54,663.07,349.38,662.46,349.73z"/>
		</g>
		<g>
			<path class="st14" d="M671.41,315.5c-0.41,0.23-0.74,0.04-0.74-0.43c0-0.47,0.34-1.04,0.75-1.27l3.53-1.99
				c0.41-0.23,0.74-0.04,0.74,0.43c0,0.47-0.34,1.04-0.75,1.27L671.41,315.5z"/>
		</g>
		<g>
			<path class="st16" d="M654.66,360.68c-1.47,0.83-2.66,0.14-2.65-1.55l0.35-45.67c0.01-1.68,1.22-3.73,2.7-4.56
				c1.48-0.83,2.66-0.14,2.65,1.55l-0.35,45.67C657.35,357.8,656.14,359.84,654.66,360.68z M653.27,313.2l-0.35,45.16
				c-0.01,1.12,0.78,1.58,1.76,1.03c0.98-0.55,1.78-1.91,1.79-3.03l0.35-45.16c0.01-1.12-0.78-1.57-1.76-1.02
				C654.08,310.73,653.28,312.08,653.27,313.2"/>
		</g>
		<g>
			<path class="st14" d="M654.78,345.41c-0.61,0.34-1.1,0.06-1.09-0.64l0.08-9.94c0.01-0.69,0.5-1.54,1.11-1.88
				c0.61-0.35,1.1-0.06,1.1,0.64l-0.08,9.94C655.89,344.22,655.39,345.07,654.78,345.41z"/>
		</g>
		<g>
			<path class="st16" d="M646.92,365.04c-1.48,0.83-2.66,0.14-2.65-1.55l0.35-45.67c0.01-1.68,1.22-3.73,2.7-4.56
				c1.47-0.83,2.66-0.14,2.65,1.55l-0.35,45.67C649.61,362.16,648.4,364.21,646.92,365.04z M645.52,317.57l-0.35,45.16
				c-0.01,1.12,0.78,1.58,1.76,1.03c0.98-0.55,1.78-1.91,1.79-3.03l0.35-45.16c0.01-1.12-0.78-1.58-1.76-1.02
				C646.33,315.1,645.53,316.45,645.52,317.57"/>
		</g>
		<g>
			<path class="st14" d="M647.08,344.4c-0.61,0.35-1.1,0.06-1.1-0.64l0.08-9.93c0.01-0.7,0.5-1.54,1.12-1.89
				c0.61-0.34,1.1-0.06,1.09,0.64l-0.08,9.93C648.19,343.21,647.69,344.06,647.08,344.4z"/>
		</g>
		<g>
			<path class="st14" d="M639.28,355.97c-0.61,0.35-1.1,0.06-1.1-0.64l0.08-9.93c0.01-0.7,0.5-1.54,1.12-1.89
				c0.61-0.34,1.1-0.06,1.09,0.64l-0.08,9.93C640.39,354.78,639.89,355.62,639.28,355.97z"/>
		</g>
		<g>
			<path class="st16" d="M662.41,356.31c-1.47,0.83-2.66,0.14-2.65-1.55l0.35-45.67c0.01-1.68,1.22-3.73,2.7-4.56
				c1.47-0.83,2.66-0.14,2.65,1.55l-0.35,45.67C665.1,353.44,663.89,355.48,662.41,356.31z M661.01,308.84L660.66,354
				c-0.01,1.12,0.78,1.58,1.76,1.03c0.98-0.55,1.78-1.91,1.79-3.03l0.35-45.16c0.01-1.12-0.78-1.57-1.76-1.02
				C661.82,306.37,661.02,307.72,661.01,308.84"/>
		</g>
		<g>
			<path class="st15" d="M654.67,359.39c-0.98,0.55-1.76,0.09-1.76-1.03l0.35-45.16c0.01-1.12,0.81-2.47,1.79-3.02
				c0.98-0.55,1.77-0.1,1.76,1.02l-0.35,45.16C656.46,357.48,655.65,358.84,654.67,359.39z M653.77,334.84l-0.08,9.94
				c-0.01,0.69,0.49,0.98,1.09,0.64c0.61-0.35,1.11-1.19,1.12-1.88l0.08-9.94c0.01-0.69-0.49-0.98-1.1-0.64
				C654.27,333.3,653.77,334.14,653.77,334.84"/>
		</g>
		<g>
			<path class="st14" d="M620.63,365.73c-0.41,0.23-0.74,0.04-0.74-0.43c0-0.47,0.34-1.04,0.75-1.27l3.53-1.99
				c0.41-0.23,0.74-0.04,0.74,0.43c0,0.47-0.34,1.04-0.75,1.27L620.63,365.73z"/>
		</g>
		<g>
			<path class="st14" d="M631.59,353.12c-0.61,0.34-1.1,0.06-1.09-0.64l0.08-9.93c0.01-0.7,0.5-1.54,1.11-1.89
				c0.61-0.34,1.1-0.06,1.1,0.64l-0.08,9.93C632.71,351.93,632.21,352.78,631.59,353.12z"/>
		</g>
		<g>
			<path class="st15" d="M646.93,363.75c-0.98,0.55-1.77,0.09-1.76-1.03l0.35-45.16c0.01-1.12,0.81-2.47,1.79-3.02
				c0.98-0.55,1.76-0.09,1.76,1.02l-0.35,45.16C648.71,361.84,647.91,363.2,646.93,363.75z M646.06,333.83l-0.08,9.93
				c-0.01,0.69,0.49,0.98,1.1,0.64c0.61-0.34,1.11-1.19,1.11-1.88l0.08-9.93c0.01-0.7-0.49-0.99-1.09-0.64
				C646.57,332.29,646.07,333.13,646.06,333.83"/>
		</g>
		<g>
			<path class="st14" d="M620.72,354.87c-0.41,0.23-0.74,0.04-0.74-0.43c0-0.47,0.34-1.04,0.75-1.27l3.53-1.99
				c0.41-0.23,0.74-0.04,0.74,0.43c0,0.47-0.34,1.04-0.75,1.27L620.72,354.87z"/>
		</g>
		<g>
			<path class="st16" d="M639.18,369.4c-1.48,0.83-2.66,0.14-2.65-1.55l0.35-45.67c0.01-1.68,1.22-3.73,2.7-4.56
				c1.47-0.83,2.66-0.14,2.65,1.55l-0.35,45.67C641.86,366.53,640.65,368.57,639.18,369.4z M637.78,321.93l-0.35,45.16
				c-0.01,1.12,0.78,1.58,1.76,1.03c0.98-0.55,1.78-1.91,1.79-3.03l0.35-45.16c0.01-1.12-0.78-1.58-1.76-1.02
				C638.59,319.46,637.78,320.81,637.78,321.93"/>
		</g>
		<g>
			<path class="st15" d="M639.19,368.11c-0.98,0.55-1.77,0.09-1.76-1.03l0.35-45.16c0.01-1.12,0.81-2.47,1.79-3.02
				c0.98-0.55,1.76-0.09,1.76,1.02l-0.35,45.16C640.96,366.21,640.17,367.56,639.19,368.11z M638.26,345.4l-0.08,9.93
				c-0.01,0.69,0.49,0.98,1.1,0.64c0.61-0.34,1.11-1.19,1.11-1.88l0.08-9.93c0.01-0.7-0.49-0.99-1.09-0.64
				C638.76,343.86,638.26,344.7,638.26,345.4"/>
		</g>
		<g>
			<path class="st14" d="M620.8,344c-0.41,0.23-0.74,0.04-0.74-0.43c0-0.47,0.34-1.04,0.75-1.27l3.53-1.99
				c0.41-0.23,0.74-0.03,0.74,0.43c0,0.47-0.34,1.04-0.75,1.27L620.8,344z"/>
		</g>
		<g>
			<path class="st15" d="M631.44,372.48c-0.98,0.55-1.77,0.09-1.76-1.03l0.35-45.16c0.01-1.12,0.81-2.47,1.79-3.02
				c0.98-0.55,1.77-0.1,1.76,1.02l-0.35,45.16C633.22,370.57,632.42,371.93,631.44,372.48z M630.58,342.55l-0.08,9.93
				c-0.01,0.69,0.49,0.98,1.09,0.64c0.61-0.35,1.11-1.19,1.12-1.88l0.08-9.93c0.01-0.7-0.49-0.99-1.1-0.64
				C631.08,341.01,630.58,341.85,630.58,342.55"/>
		</g>
		<g>
			<path class="st16" d="M631.43,373.77c-1.47,0.83-2.66,0.14-2.65-1.55l0.35-45.67c0.01-1.68,1.22-3.73,2.7-4.56
				c1.48-0.83,2.66-0.14,2.65,1.55l-0.35,45.67C634.11,370.89,632.91,372.93,631.43,373.77z M630.03,326.29l-0.35,45.16
				c-0.01,1.12,0.78,1.58,1.76,1.03c0.98-0.55,1.78-1.91,1.79-3.03l0.35-45.16c0.01-1.12-0.78-1.57-1.76-1.02
				C630.84,323.82,630.04,325.18,630.03,326.29"/>
		</g>
	</g>
	<g>
		<path class="st14" d="M671.15,348.09c-0.41,0.23-0.74,0.04-0.74-0.43c0-0.47,0.34-1.04,0.75-1.27l3.53-1.99
			c0.41-0.23,0.74-0.04,0.74,0.43c0,0.47-0.34,1.03-0.75,1.26L671.15,348.09z"/>
	</g>
	<g>
		<path class="st14" d="M671.24,337.23c-0.41,0.23-0.74,0.04-0.74-0.43c0-0.47,0.34-1.04,0.75-1.27l3.53-1.99
			c0.41-0.23,0.74-0.04,0.74,0.43c0,0.47-0.34,1.04-0.75,1.27L671.24,337.23z"/>
	</g>
	<g>
		<path class="st14" d="M671.49,304.63c-0.41,0.23-0.74,0.04-0.74-0.43c0-0.47,0.34-1.04,0.75-1.27l3.53-1.99
			c0.41-0.23,0.74-0.04,0.74,0.43c0,0.47-0.34,1.04-0.75,1.27L671.49,304.63z"/>
	</g>
</g>
<g>
	<g>
		<path class="st17" d="M542.53,390.07c-0.33,0.18-0.58,0.02-0.57-0.35c0.01-0.37,0.27-0.81,0.6-0.99l5.39-2.94
			c-0.06,0.24-0.1,0.49-0.11,0.72c0,0.23,0.02,0.44,0.08,0.62L542.53,390.07z"/>
	</g>
	<g class="st6">
		<g>
			<path class="st17" d="M585.83,375.13c0.06-0.24,0.1-0.48,0.11-0.72c0.01-0.23-0.02-0.44-0.08-0.62l6.2-3.38
				c0.32-0.18,0.58-0.02,0.57,0.35c-0.01,0.37-0.27,0.81-0.6,0.99L585.83,375.13z"/>
		</g>
		<g>
			<path class="st17" d="M576.12,389.11c0.06-0.24,0.1-0.48,0.11-0.72c0.01-0.23-0.02-0.44-0.08-0.62l15.72-8.58
				c0.32-0.18,0.58-0.02,0.57,0.35c-0.01,0.37-0.27,0.81-0.6,0.99L576.12,389.11z"/>
		</g>
		<g>
			<path class="st14" d="M576.67,381.61c-0.85,0.46-1.56,0.23-1.79-0.51c-0.06-0.18-0.08-0.38-0.08-0.62
				c0.01-0.23,0.04-0.48,0.11-0.72c0.27-1,1-2.02,1.85-2.49l7.31-3.99c0.85-0.46,1.55-0.23,1.78,0.5c0.06,0.18,0.08,0.38,0.08,0.62
				c-0.01,0.23-0.04,0.47-0.11,0.72c-0.27,1.01-1,2.03-1.85,2.49L576.67,381.61z"/>
		</g>
		<g>
			<path class="st14" d="M574.83,365.25c-0.85,0.46-1.56,0.23-1.79-0.51c-0.06-0.18-0.08-0.38-0.08-0.62
				c0.01-0.23,0.04-0.47,0.11-0.72c0.27-1.01,1-2.03,1.85-2.49l12.09-6.6c0.85-0.46,1.56-0.23,1.79,0.51
				c0.06,0.18,0.08,0.38,0.08,0.62c-0.01,0.23-0.04,0.47-0.11,0.72c-0.27,1.01-1,2.03-1.85,2.49L574.83,365.25z"/>
		</g>
		<g>
			<path class="st17" d="M563.19,378.8c0.06-0.24,0.1-0.48,0.11-0.72c0-0.23-0.02-0.44-0.08-0.62l29.02-15.83
				c0.32-0.18,0.58-0.02,0.57,0.35c-0.01,0.37-0.27,0.81-0.6,0.99L563.19,378.8z"/>
		</g>
		<g>
			<path class="st14" d="M549.32,405.2c-0.85,0.46-1.56,0.23-1.79-0.51c-0.06-0.18-0.08-0.38-0.08-0.62c0-0.23,0.04-0.47,0.11-0.72
				c0.27-1,1-2.02,1.85-2.49l24.95-13.61c0.85-0.46,1.55-0.23,1.78,0.5c0.06,0.18,0.08,0.38,0.08,0.62c0,0.23-0.04,0.47-0.11,0.72
				c-0.27,1.01-1,2.03-1.85,2.49L549.32,405.2z"/>
		</g>
		<g>
			<path class="st17" d="M542.34,398.85c-0.33,0.18-0.58,0.03-0.57-0.35c0.01-0.37,0.27-0.81,0.6-0.99l32.55-17.76
				c-0.07,0.24-0.1,0.49-0.11,0.72c-0.01,0.23,0.02,0.44,0.08,0.62L542.34,398.85z"/>
		</g>
		<g>
			<path class="st14" d="M549.7,387.64c-0.85,0.46-1.56,0.23-1.79-0.51c-0.06-0.18-0.08-0.38-0.08-0.62
				c0.01-0.23,0.04-0.47,0.11-0.72c0.27-1,1-2.03,1.85-2.49l11.64-6.35c0.85-0.46,1.56-0.23,1.79,0.51
				c0.06,0.18,0.08,0.38,0.08,0.62c-0.01,0.23-0.04,0.47-0.11,0.72c-0.27,1.01-1,2.03-1.85,2.49L549.7,387.64z"/>
		</g>
		<g>
			<path class="st17" d="M542.71,381.29c-0.33,0.18-0.58,0.02-0.57-0.35c0.01-0.37,0.27-0.81,0.6-0.99l30.33-16.55
				c-0.06,0.24-0.1,0.48-0.11,0.72c0,0.23,0.02,0.44,0.08,0.62L542.71,381.29z"/>
		</g>
	</g>
	<g>
		<path class="st17" d="M542.15,407.63c-0.33,0.18-0.58,0.03-0.57-0.35c0.01-0.37,0.27-0.81,0.6-0.99l5.39-2.94
			c-0.06,0.24-0.1,0.49-0.11,0.72c-0.01,0.23,0.02,0.44,0.08,0.62L542.15,407.63z"/>
	</g>
	<g>
		<path class="st14" d="M533.62,404.06c-0.56,0.31-1.01,0.04-1-0.6c0.01-0.64,0.48-1.4,1.05-1.71l4.31-2.35
			c0.56-0.31,1.01-0.04,1,0.59c-0.01,0.64-0.48,1.41-1.05,1.71L533.62,404.06z"/>
	</g>
	<g>
		<path class="st17" d="M533.43,412.84c-0.56,0.31-1.01,0.04-1-0.59c0.01-0.64,0.48-1.41,1.05-1.71l4.31-2.35
			c0.56-0.31,1.01-0.04,1,0.6c-0.01,0.64-0.48,1.4-1.05,1.71L533.43,412.84z"/>
	</g>
	<g>
		<polygon class="st17" points="588.32,396.07 588.46,389.5 601.51,382.38 601.37,388.95 		"/>
	</g>
	<g>
		<path class="st14" d="M596.32,378.54c-0.56,0.31-1.01,0.04-1-0.59c0.01-0.64,0.48-1.41,1.05-1.71l4.31-2.35
			c0.56-0.31,1.01-0.04,1,0.6c-0.01,0.64-0.48,1.4-1.05,1.71L596.32,378.54z"/>
	</g>
	<g>
		<path class="st14" d="M596.51,369.76c-0.56,0.31-1.01,0.04-1-0.6c0.01-0.64,0.48-1.4,1.05-1.71l4.31-2.35
			c0.56-0.31,1.01-0.04,1,0.59c-0.01,0.64-0.48,1.41-1.05,1.71L596.51,369.76z"/>
	</g>
	<g>
		<path class="st14" d="M534,386.5c-0.56,0.31-1.01,0.04-1-0.6c0.01-0.64,0.48-1.41,1.05-1.71l4.31-2.35c0.56-0.31,1.01-0.04,1,0.6
			s-0.48,1.41-1.05,1.71L534,386.5z"/>
	</g>
	<g>
		<path class="st14" d="M533.81,395.28c-0.56,0.31-1.01,0.04-1-0.6s0.48-1.41,1.05-1.71l4.31-2.35c0.56-0.31,1.01-0.04,1,0.6
			c-0.01,0.64-0.48,1.41-1.05,1.71L533.81,395.28z"/>
	</g>
	<g>
		<path class="st17" d="M596.7,360.98c-0.56,0.31-1.01,0.04-1-0.6c0.01-0.64,0.48-1.41,1.05-1.71l4.31-2.35
			c0.56-0.31,1.01-0.04,1,0.6s-0.48,1.41-1.05,1.71L596.7,360.98z"/>
	</g>
	<g>
		<path class="st17" d="M592.4,354.19l-3.63,1.98c0.06-0.24,0.1-0.48,0.11-0.72c0.01-0.23-0.02-0.44-0.08-0.62l3.63-1.98
			c0.32-0.18,0.58-0.02,0.57,0.35C592.99,353.57,592.72,354.01,592.4,354.19z"/>
	</g>
	<g>
		<path class="st14" d="M596.89,352.2c-0.56,0.31-1.01,0.04-1-0.6c0.01-0.64,0.48-1.41,1.05-1.71l4.31-2.35
			c0.56-0.31,1.01-0.04,1,0.6s-0.48,1.41-1.05,1.71L596.89,352.2z"/>
	</g>
	<g>
		<polygon class="st17" points="598.53,342.34 598.61,338.44 602.49,336.32 602.41,340.22 		"/>
	</g>
	<g>
		<polygon class="st14" points="533.57,377.78 533.65,373.88 537.54,371.76 537.45,375.66 		"/>
	</g>
	<g>
		<polygon class="st14" points="538.48,423.26 538.62,416.69 547.64,411.77 547.5,418.34 		"/>
	</g>
	<g>
		<polygon class="st17" points="532.13,426.72 532.27,420.16 536.95,417.6 536.81,424.17 		"/>
	</g>
</g>
<g>
	<g>
		<path class="st14" d="M383.49,376.59c0.41,0.23,0.74,0.04,0.74-0.43c0-0.47-0.34-1.04-0.75-1.27l-3.53-1.99
			c-0.41-0.23-0.74-0.04-0.74,0.43c0,0.47,0.34,1.03,0.75,1.26L383.49,376.59z"/>
	</g>
	<g>
		<path class="st14" d="M383.16,333.14c0.41,0.23,0.74,0.04,0.74-0.43c0-0.47-0.34-1.04-0.75-1.27l-3.53-1.99
			c-0.41-0.23-0.74-0.04-0.74,0.43c0,0.47,0.34,1.04,0.75,1.27L383.16,333.14z"/>
	</g>
	<g class="st6">
		<g>
			<path class="st14" d="M332.72,326.36c0.41,0.23,0.74,0.04,0.74-0.43c0-0.47-0.34-1.04-0.75-1.27l-3.53-1.99
				c-0.41-0.23-0.74-0.04-0.74,0.43c0,0.47,0.34,1.04,0.75,1.27L332.72,326.36z"/>
		</g>
		<g>
			<path class="st15" d="M339.83,352l-0.35-45.16c-0.01-1.12,0.78-1.57,1.76-1.02c0.98,0.55,1.78,1.9,1.79,3.02l0.35,45.16
				c0.01,1.12-0.78,1.58-1.76,1.03C340.64,354.47,339.84,353.11,339.83,352z M342.6,339.15c-0.01-0.69-0.5-1.54-1.12-1.88
				c-0.61-0.34-1.1-0.06-1.09,0.64l0.08,9.94c0.01,0.69,0.5,1.54,1.11,1.88c0.61,0.34,1.1,0.06,1.1-0.64L342.6,339.15"/>
		</g>
		<g>
			<path class="st14" d="M341.58,349.73c0.61,0.34,1.1,0.06,1.1-0.64l-0.08-9.94c-0.01-0.69-0.5-1.54-1.12-1.88
				c-0.61-0.34-1.1-0.06-1.09,0.64l0.08,9.94C340.47,348.54,340.97,349.38,341.58,349.73z"/>
		</g>
		<g>
			<path class="st14" d="M332.64,315.5c0.41,0.23,0.74,0.04,0.74-0.43c0-0.47-0.34-1.04-0.75-1.27l-3.53-1.99
				c-0.41-0.23-0.74-0.04-0.74,0.43c0,0.47,0.34,1.04,0.75,1.27L332.64,315.5z"/>
		</g>
		<g>
			<path class="st16" d="M346.68,356.12l-0.35-45.67c-0.01-1.68,1.17-2.38,2.65-1.55c1.47,0.83,2.68,2.88,2.7,4.56l0.35,45.67
				c0.01,1.68-1.18,2.38-2.65,1.55C347.9,359.84,346.69,357.8,346.68,356.12z M350.77,313.2c-0.01-1.12-0.81-2.47-1.79-3.02
				c-0.98-0.55-1.77-0.1-1.76,1.02l0.35,45.16c0.01,1.12,0.81,2.48,1.79,3.03c0.98,0.55,1.76,0.09,1.76-1.03L350.77,313.2"/>
		</g>
		<g>
			<path class="st14" d="M349.26,345.41c0.61,0.34,1.1,0.06,1.09-0.64l-0.08-9.94c-0.01-0.69-0.5-1.54-1.11-1.88
				c-0.61-0.35-1.1-0.06-1.1,0.64l0.08,9.94C348.15,344.22,348.65,345.07,349.26,345.41z"/>
		</g>
		<g>
			<path class="st16" d="M354.42,360.48l-0.35-45.67c-0.01-1.68,1.18-2.38,2.65-1.55c1.48,0.83,2.68,2.88,2.7,4.56l0.35,45.67
				c0.01,1.68-1.17,2.38-2.65,1.55C355.64,364.21,354.43,362.16,354.42,360.48z M358.52,317.57c-0.01-1.12-0.81-2.47-1.79-3.02
				c-0.98-0.55-1.76-0.09-1.76,1.02l0.35,45.16c0.01,1.12,0.81,2.47,1.79,3.03c0.98,0.55,1.77,0.09,1.76-1.03L358.52,317.57"/>
		</g>
		<g>
			<path class="st14" d="M356.96,344.4c0.61,0.35,1.1,0.06,1.1-0.64l-0.08-9.93c-0.01-0.7-0.5-1.54-1.12-1.89
				c-0.61-0.34-1.1-0.06-1.09,0.64l0.08,9.93C355.85,343.21,356.35,344.06,356.96,344.4z"/>
		</g>
		<g>
			<path class="st14" d="M364.76,355.97c0.61,0.35,1.1,0.06,1.1-0.64l-0.08-9.93c-0.01-0.7-0.5-1.54-1.12-1.89
				c-0.61-0.34-1.1-0.06-1.09,0.64l0.08,9.93C363.66,354.78,364.15,355.62,364.76,355.97z"/>
		</g>
		<g>
			<path class="st16" d="M338.93,351.75l-0.35-45.67c-0.01-1.68,1.18-2.38,2.65-1.55c1.47,0.83,2.68,2.88,2.7,4.56l0.35,45.67
				c0.01,1.68-1.18,2.38-2.65,1.55C340.16,355.48,338.95,353.44,338.93,351.75z M343.03,308.84c-0.01-1.12-0.81-2.47-1.79-3.02
				c-0.98-0.55-1.77-0.1-1.76,1.02l0.35,45.16c0.01,1.12,0.81,2.48,1.79,3.03c0.98,0.55,1.77,0.09,1.76-1.03L343.03,308.84"/>
		</g>
		<g>
			<path class="st15" d="M347.58,356.36l-0.35-45.16c-0.01-1.12,0.78-1.57,1.76-1.02c0.98,0.55,1.78,1.9,1.79,3.02l0.35,45.16
				c0.01,1.12-0.78,1.58-1.76,1.03C348.39,358.84,347.58,357.48,347.58,356.36z M350.27,334.84c-0.01-0.69-0.5-1.54-1.11-1.88
				c-0.61-0.35-1.1-0.06-1.1,0.64l0.08,9.94c0.01,0.69,0.5,1.54,1.12,1.88c0.61,0.34,1.1,0.06,1.09-0.64L350.27,334.84"/>
		</g>
		<g>
			<path class="st14" d="M383.41,365.73c0.41,0.23,0.74,0.04,0.74-0.43c0-0.47-0.34-1.04-0.75-1.27l-3.53-1.99
				c-0.41-0.23-0.74-0.04-0.74,0.43c0,0.47,0.34,1.04,0.75,1.27L383.41,365.73z"/>
		</g>
		<g>
			<path class="st14" d="M372.45,353.12c0.61,0.34,1.1,0.06,1.09-0.64l-0.08-9.93c-0.01-0.7-0.5-1.54-1.11-1.89
				c-0.61-0.34-1.1-0.06-1.1,0.64l0.08,9.93C371.34,351.93,371.84,352.78,372.45,353.12z"/>
		</g>
		<g>
			<path class="st15" d="M355.32,360.72l-0.35-45.16c-0.01-1.12,0.78-1.58,1.76-1.02c0.98,0.55,1.78,1.9,1.79,3.02l0.35,45.16
				c0.01,1.12-0.78,1.58-1.76,1.03C356.13,363.2,355.33,361.84,355.32,360.72z M357.98,333.83c-0.01-0.7-0.5-1.54-1.12-1.89
				c-0.61-0.34-1.1-0.06-1.09,0.64l0.08,9.93c0.01,0.69,0.5,1.54,1.11,1.88c0.61,0.35,1.1,0.06,1.1-0.64L357.98,333.83"/>
		</g>
		<g>
			<path class="st14" d="M383.33,354.87c0.41,0.23,0.74,0.04,0.74-0.43c0-0.47-0.34-1.04-0.75-1.27l-3.53-1.99
				c-0.41-0.23-0.74-0.04-0.74,0.43c0,0.47,0.34,1.04,0.75,1.27L383.33,354.87z"/>
		</g>
		<g>
			<path class="st16" d="M362.17,364.84l-0.35-45.67c-0.01-1.68,1.18-2.38,2.65-1.55c1.48,0.83,2.68,2.88,2.7,4.56l0.35,45.67
				c0.01,1.68-1.17,2.38-2.65,1.55C363.39,368.57,362.18,366.53,362.17,364.84z M366.27,321.93c-0.01-1.12-0.81-2.47-1.79-3.02
				c-0.98-0.55-1.76-0.09-1.76,1.02l0.35,45.16c0.01,1.12,0.81,2.47,1.79,3.03c0.98,0.55,1.77,0.09,1.76-1.03L366.27,321.93"/>
		</g>
		<g>
			<path class="st15" d="M363.07,365.09l-0.35-45.16c-0.01-1.12,0.78-1.58,1.76-1.02c0.98,0.55,1.78,1.9,1.79,3.02l0.35,45.16
				c0.01,1.12-0.78,1.58-1.76,1.03C363.88,367.56,363.08,366.21,363.07,365.09z M365.78,345.4c-0.01-0.7-0.5-1.54-1.12-1.89
				c-0.61-0.34-1.1-0.06-1.09,0.64l0.08,9.93c0.01,0.69,0.5,1.54,1.11,1.88c0.61,0.35,1.1,0.06,1.1-0.64L365.78,345.4"/>
		</g>
		<g>
			<path class="st14" d="M383.24,344c0.41,0.23,0.74,0.04,0.74-0.43c0-0.47-0.34-1.04-0.75-1.27l-3.53-1.99
				c-0.41-0.23-0.74-0.03-0.74,0.43c0,0.47,0.34,1.04,0.75,1.27L383.24,344z"/>
		</g>
		<g>
			<path class="st15" d="M370.81,369.45l-0.35-45.16c-0.01-1.12,0.78-1.57,1.76-1.02c0.98,0.55,1.78,1.9,1.79,3.02l0.35,45.16
				c0.01,1.12-0.78,1.58-1.76,1.03C371.62,371.93,370.82,370.57,370.81,369.45z M373.46,342.55c-0.01-0.7-0.5-1.54-1.11-1.89
				c-0.61-0.34-1.1-0.06-1.1,0.64l0.08,9.93c0.01,0.69,0.5,1.54,1.12,1.88c0.61,0.34,1.1,0.06,1.09-0.64L373.46,342.55"/>
		</g>
		<g>
			<path class="st16" d="M369.92,369.21l-0.35-45.67c-0.01-1.68,1.17-2.38,2.65-1.55c1.47,0.83,2.68,2.88,2.7,4.56l0.35,45.67
				c0.01,1.68-1.18,2.38-2.65,1.55C371.13,372.93,369.93,370.89,369.92,369.21z M374.01,326.29c-0.01-1.12-0.81-2.47-1.79-3.02
				c-0.98-0.55-1.77-0.1-1.76,1.02l0.35,45.16c0.01,1.12,0.81,2.48,1.79,3.03c0.98,0.55,1.77,0.09,1.76-1.03L374.01,326.29"/>
		</g>
	</g>
	<g>
		<path class="st14" d="M332.89,348.09c0.41,0.23,0.74,0.04,0.74-0.43c0-0.47-0.34-1.04-0.75-1.27l-3.53-1.99
			c-0.41-0.23-0.74-0.04-0.74,0.43c0,0.47,0.34,1.03,0.75,1.26L332.89,348.09z"/>
	</g>
	<g>
		<path class="st14" d="M332.8,337.23c0.41,0.23,0.74,0.04,0.74-0.43c0-0.47-0.34-1.04-0.75-1.27l-3.53-1.99
			c-0.41-0.23-0.74-0.04-0.74,0.43c0,0.47,0.34,1.04,0.75,1.27L332.8,337.23z"/>
	</g>
	<g>
		<path class="st14" d="M332.55,304.63c0.41,0.23,0.74,0.04,0.74-0.43c0-0.47-0.34-1.04-0.75-1.27l-3.53-1.99
			c-0.41-0.23-0.74-0.04-0.74,0.43c0,0.47,0.34,1.04,0.75,1.27L332.55,304.63z"/>
	</g>
</g>
<g>
	<g>
		<path class="st17" d="M461.52,390.07c0.33,0.18,0.58,0.02,0.57-0.35c-0.01-0.37-0.27-0.81-0.6-0.99l-5.39-2.94
			c0.06,0.24,0.1,0.49,0.11,0.72c0,0.23-0.02,0.44-0.08,0.62L461.52,390.07z"/>
	</g>
	<g class="st6">
		<g>
			<path class="st17" d="M418.22,375.13c-0.06-0.24-0.1-0.48-0.11-0.72c0-0.23,0.02-0.44,0.08-0.62l-6.2-3.38
				c-0.32-0.18-0.58-0.02-0.57,0.35c0.01,0.37,0.27,0.81,0.6,0.99L418.22,375.13z"/>
		</g>
		<g>
			<path class="st17" d="M427.93,389.11c-0.06-0.24-0.1-0.48-0.11-0.72c-0.01-0.23,0.02-0.44,0.08-0.62l-15.72-8.58
				c-0.32-0.18-0.58-0.02-0.57,0.35c0.01,0.37,0.27,0.81,0.6,0.99L427.93,389.11z"/>
		</g>
		<g>
			<path class="st14" d="M427.37,381.61c0.85,0.46,1.56,0.23,1.79-0.51c0.06-0.18,0.08-0.38,0.08-0.62
				c-0.01-0.23-0.04-0.48-0.11-0.72c-0.27-1-1-2.02-1.85-2.49l-7.31-3.99c-0.85-0.46-1.55-0.23-1.78,0.5
				c-0.06,0.18-0.08,0.38-0.08,0.62c0.01,0.23,0.04,0.47,0.11,0.72c0.27,1.01,1,2.03,1.85,2.49L427.37,381.61z"/>
		</g>
		<g>
			<path class="st14" d="M429.21,365.25c0.85,0.46,1.56,0.23,1.79-0.51c0.06-0.18,0.08-0.38,0.08-0.62
				c-0.01-0.23-0.04-0.47-0.11-0.72c-0.27-1.01-1-2.03-1.85-2.49l-12.09-6.6c-0.85-0.46-1.56-0.23-1.79,0.51
				c-0.06,0.18-0.08,0.38-0.08,0.62c0,0.23,0.04,0.47,0.11,0.72c0.27,1.01,1,2.03,1.85,2.49L429.21,365.25z"/>
		</g>
		<g>
			<path class="st17" d="M440.85,378.8c-0.06-0.24-0.1-0.48-0.11-0.72c0-0.23,0.02-0.44,0.08-0.62l-29.02-15.83
				c-0.32-0.18-0.58-0.02-0.57,0.35c0.01,0.37,0.27,0.81,0.6,0.99L440.85,378.8z"/>
		</g>
		<g>
			<path class="st14" d="M454.72,405.2c0.85,0.46,1.56,0.23,1.79-0.51c0.06-0.18,0.08-0.38,0.08-0.62c0-0.23-0.04-0.47-0.11-0.72
				c-0.27-1-1-2.02-1.85-2.49l-24.95-13.61c-0.85-0.46-1.55-0.23-1.78,0.5c-0.06,0.18-0.08,0.38-0.08,0.62
				c0.01,0.23,0.04,0.47,0.11,0.72c0.27,1.01,1,2.03,1.85,2.49L454.72,405.2z"/>
		</g>
		<g>
			<path class="st17" d="M461.7,398.85c0.33,0.18,0.58,0.03,0.57-0.35c-0.01-0.37-0.27-0.81-0.6-0.99l-32.55-17.76
				c0.07,0.24,0.1,0.49,0.11,0.72c0.01,0.23-0.02,0.44-0.08,0.62L461.7,398.85z"/>
		</g>
		<g>
			<path class="st14" d="M454.34,387.64c0.85,0.46,1.56,0.23,1.79-0.51c0.06-0.18,0.08-0.38,0.08-0.62c0-0.23-0.04-0.47-0.11-0.72
				c-0.27-1-1-2.03-1.85-2.49l-11.64-6.35c-0.85-0.46-1.56-0.23-1.79,0.51c-0.06,0.18-0.08,0.38-0.08,0.62
				c0.01,0.23,0.04,0.47,0.11,0.72c0.27,1.01,1,2.03,1.85,2.49L454.34,387.64z"/>
		</g>
		<g>
			<path class="st17" d="M461.33,381.29c0.33,0.18,0.58,0.02,0.57-0.35c-0.01-0.37-0.27-0.81-0.6-0.99l-30.33-16.55
				c0.06,0.24,0.1,0.48,0.11,0.72c0,0.23-0.02,0.44-0.08,0.62L461.33,381.29z"/>
		</g>
	</g>
	<g>
		<path class="st17" d="M461.89,407.63c0.33,0.18,0.58,0.03,0.57-0.35c-0.01-0.37-0.27-0.81-0.6-0.99l-5.39-2.94
			c0.06,0.24,0.1,0.49,0.11,0.72c0.01,0.23-0.02,0.44-0.08,0.62L461.89,407.63z"/>
	</g>
	<g>
		<path class="st14" d="M470.42,404.06c0.56,0.31,1.01,0.04,1-0.6c-0.01-0.64-0.48-1.4-1.05-1.71l-4.31-2.35
			c-0.56-0.31-1.01-0.04-1,0.59c0.01,0.64,0.48,1.41,1.05,1.71L470.42,404.06z"/>
	</g>
	<g>
		<path class="st17" d="M470.61,412.84c0.56,0.31,1.01,0.04,1-0.59c-0.01-0.64-0.48-1.41-1.05-1.71l-4.31-2.35
			c-0.56-0.31-1.01-0.04-1,0.6c0.01,0.64,0.48,1.4,1.05,1.71L470.61,412.84z"/>
	</g>
	<g>
		<polygon class="st17" points="415.72,396.07 415.58,389.5 402.53,382.38 402.67,388.95 		"/>
	</g>
	<g>
		<path class="st14" d="M407.72,378.54c0.56,0.31,1.01,0.04,1-0.59c-0.01-0.64-0.48-1.41-1.05-1.71l-4.31-2.35
			c-0.56-0.31-1.01-0.04-1,0.6c0.01,0.64,0.48,1.4,1.05,1.71L407.72,378.54z"/>
	</g>
	<g>
		<path class="st14" d="M407.53,369.76c0.56,0.31,1.01,0.04,1-0.6c-0.01-0.64-0.48-1.4-1.05-1.71l-4.31-2.35
			c-0.56-0.31-1.01-0.04-1,0.59c0.01,0.64,0.48,1.41,1.05,1.71L407.53,369.76z"/>
	</g>
	<g>
		<path class="st14" d="M470.04,386.5c0.56,0.31,1.01,0.04,1-0.6c-0.01-0.64-0.48-1.41-1.05-1.71l-4.31-2.35
			c-0.56-0.31-1.01-0.04-1,0.6c0.01,0.64,0.48,1.41,1.05,1.71L470.04,386.5z"/>
	</g>
	<g>
		<path class="st14" d="M470.23,395.28c0.56,0.31,1.01,0.04,1-0.6c-0.01-0.64-0.48-1.41-1.05-1.71l-4.31-2.35
			c-0.56-0.31-1.01-0.04-1,0.6c0.01,0.64,0.48,1.41,1.05,1.71L470.23,395.28z"/>
	</g>
	<g>
		<path class="st17" d="M407.34,360.98c0.56,0.31,1.01,0.04,1-0.6c-0.01-0.64-0.48-1.41-1.05-1.71l-4.31-2.35
			c-0.56-0.31-1.01-0.04-1,0.6c0.01,0.64,0.48,1.41,1.05,1.71L407.34,360.98z"/>
	</g>
	<g>
		<path class="st17" d="M411.64,354.19l3.63,1.98c-0.06-0.24-0.1-0.48-0.11-0.72c-0.01-0.23,0.02-0.44,0.08-0.62l-3.63-1.98
			c-0.32-0.18-0.58-0.02-0.57,0.35C411.05,353.57,411.32,354.01,411.64,354.19z"/>
	</g>
	<g>
		<path class="st14" d="M407.16,352.2c0.56,0.31,1.01,0.04,1-0.6c-0.01-0.64-0.48-1.41-1.05-1.71l-4.31-2.35
			c-0.56-0.31-1.01-0.04-1,0.6c0.01,0.64,0.48,1.41,1.05,1.71L407.16,352.2z"/>
	</g>
	<g>
		<polygon class="st17" points="405.51,342.34 405.43,338.44 401.55,336.32 401.63,340.22 		"/>
	</g>
	<g>
		<polygon class="st14" points="470.47,377.78 470.39,373.88 466.51,371.76 466.59,375.66 		"/>
	</g>
	<g>
		<polygon class="st14" points="465.56,423.26 465.42,416.69 456.4,411.77 456.54,418.34 		"/>
	</g>
	<g>
		<polygon class="st17" points="471.91,426.72 471.77,420.16 467.09,417.6 467.23,424.17 		"/>
	</g>
</g>
<g>
	<g>
		<path class="st18" d="M499.54,270.13c-0.4,0-0.8-0.1-1.15-0.31c-0.72-0.41-1.17-1.19-1.17-2.02v-95.74c0-0.82,0.44-1.59,1.15-2
			l85.3-50.16c0.72-0.42,1.61-0.43,2.33-0.01c0.72,0.41,1.17,1.18,1.17,2.02v95.76c0,0.83-0.44,1.59-1.15,2.01l-85.3,50.14
			C500.35,270.03,499.95,270.13,499.54,270.13z M501.86,173.4v90.35l80.65-47.41v-90.37L501.86,173.4z M584.84,217.67h0.02H584.84z"
			/>
		<path class="st18" d="M499.54,270.13c-0.41,0-0.81-0.11-1.18-0.32l-85.33-50.14c-0.71-0.42-1.14-1.18-1.14-2v-95.76
			c0-0.83,0.45-1.6,1.17-2.02c0.72-0.41,1.61-0.41,2.33,0.01l85.32,50.16c0.71,0.42,1.15,1.18,1.15,2.01v95.74
			c0,0.83-0.45,1.6-1.17,2.02C500.34,270.03,499.94,270.13,499.54,270.13z M416.54,216.34l80.67,47.4V173.4l-80.67-47.43V216.34z"/>
		<path class="st18" d="M499.54,174.39c-0.41,0-0.81-0.11-1.18-0.32l-85.32-50.16c-0.71-0.42-1.15-1.18-1.15-2
			c0-0.82,0.44-1.59,1.15-2.01l85.34-50.15c0.73-0.42,1.62-0.42,2.34,0.01l85.3,50.14c0.71,0.42,1.15,1.18,1.15,2.01
			c0,0.82-0.44,1.59-1.15,2l-85.3,50.16C500.35,174.28,499.95,174.39,499.54,174.39z M418.8,121.91l80.73,47.46l80.71-47.46
			l-80.72-47.45l-0.31,0.18L418.8,121.91z"/>
	</g>
	<g class="st19">
		<path class="st18" d="M499.53,233.35c-0.25,0-0.5-0.06-0.73-0.19c-0.46-0.26-0.74-0.75-0.74-1.28v-60.64c0-0.52,0.28-1,0.73-1.27
			l54.03-31.77c0.46-0.27,1.02-0.27,1.48-0.01c0.46,0.26,0.74,0.75,0.74,1.28v60.66c0,0.52-0.28,1.01-0.73,1.27l-54.03,31.76
			C500.05,233.28,499.79,233.35,499.53,233.35z M501.01,172.07v57.23l51.08-30.03v-57.24L501.01,172.07z M553.56,200.12h0.01H553.56
			z"/>
		<path class="st18" d="M499.53,233.35c-0.26,0-0.52-0.07-0.75-0.2l-54.05-31.76c-0.45-0.26-0.73-0.75-0.73-1.27v-60.66
			c0-0.53,0.28-1.02,0.74-1.28c0.46-0.26,1.02-0.26,1.48,0.01l54.04,31.77c0.45,0.26,0.73,0.75,0.73,1.27v60.64
			c0,0.53-0.28,1.02-0.74,1.28C500.04,233.28,499.79,233.35,499.53,233.35z M446.96,199.27l51.1,30.03v-57.23l-51.1-30.04V199.27z"
			/>
		<path class="st18" d="M499.53,172.7c-0.26,0-0.52-0.07-0.75-0.2l-54.04-31.77c-0.45-0.26-0.73-0.75-0.73-1.27
			c0-0.52,0.28-1.01,0.73-1.27l54.05-31.76c0.46-0.27,1.03-0.26,1.48,0.01l54.03,31.76c0.45,0.26,0.73,0.75,0.73,1.27
			c0,0.52-0.28,1-0.73,1.27l-54.03,31.77C500.05,172.64,499.79,172.7,499.53,172.7z M448.4,139.46l51.14,30.06l51.12-30.06
			l-51.13-30.05l-0.2,0.12L448.4,139.46z"/>
	</g>
	<g class="st20">
		<path class="st18" d="M499.53,205.64c-0.14,0-0.28-0.04-0.41-0.11c-0.26-0.15-0.42-0.42-0.42-0.72V170.6
			c0-0.29,0.16-0.57,0.41-0.72l30.48-17.92c0.26-0.15,0.57-0.15,0.83-0.01c0.26,0.15,0.42,0.42,0.42,0.72v34.21
			c0,0.29-0.16,0.57-0.41,0.72l-30.47,17.91C499.82,205.6,499.68,205.64,499.53,205.64z M500.36,171.08v32.28l28.81-16.94v-32.29
			L500.36,171.08z M530.01,186.89L530.01,186.89L530.01,186.89z"/>
		<path class="st18" d="M499.53,205.64c-0.15,0-0.29-0.04-0.42-0.11l-30.48-17.91c-0.25-0.15-0.41-0.42-0.41-0.72v-34.21
			c0-0.3,0.16-0.57,0.42-0.72c0.26-0.15,0.58-0.15,0.83,0l30.48,17.92c0.25,0.15,0.41,0.42,0.41,0.72v34.21
			c0,0.3-0.16,0.57-0.42,0.72C499.82,205.6,499.67,205.64,499.53,205.64z M469.88,186.42l28.82,16.94v-32.28l-28.82-16.94V186.42z"
			/>
		<path class="st18" d="M499.53,171.43c-0.15,0-0.29-0.04-0.42-0.11l-30.48-17.92c-0.25-0.15-0.41-0.42-0.41-0.72
			c0-0.29,0.16-0.57,0.41-0.72l30.49-17.92c0.26-0.15,0.58-0.15,0.84,0l30.48,17.91c0.25,0.15,0.41,0.42,0.41,0.72
			c0,0.29-0.16,0.57-0.41,0.72l-30.48,17.92C499.82,171.39,499.68,171.43,499.53,171.43z M470.69,152.68l28.84,16.96l28.84-16.96
			l-28.84-16.95l-0.11,0.06L470.69,152.68z"/>
	</g>
</g>
<g>
	<g class="st6">
		<g>
			<polygon class="st21" points="663.41,408.93 656.42,404.49 714.84,370.54 714.81,379.06 			"/>
		</g>
		<g>
			<polygon class="st22" points="714.81,379.06 714.84,370.54 773.98,404.69 766.56,408.93 			"/>
		</g>
		<g>
			<polygon class="st23" points="663.41,408.93 714.81,379.06 766.56,408.93 715.15,438.81 			"/>
			<path class="st13" d="M715.13,424.99l-27.86-16.09l27.56-16.02l27.86,16.09L715.13,424.99z M695.79,408.89l19.33,11.16
				l19.05-11.07l-19.33-11.16L695.79,408.89z"/>
		</g>
	</g>
</g>
<defs>
	<filter id="Adobe_OpacityMaskFilter" filterUnits="userSpaceOnUse" x="656.42" y="300.79" width="117.56" height="138.02">
		<feFlood  style="flood-color:white;flood-opacity:1" result="back"/>
		<feBlend  in="SourceGraphic" in2="back" mode="normal"/>
	</filter>
</defs>
<mask maskUnits="userSpaceOnUse" x="656.42" y="300.79" width="117.56" height="138.02" id="SVGID_1_">
	<g class="st24">
		<defs>
			<filter id="Adobe_OpacityMaskFilter_1_" filterUnits="userSpaceOnUse" x="656.42" y="300.79" width="117.56" height="138.02">
				<feFlood  style="flood-color:white;flood-opacity:1" result="back"/>
				<feBlend  in="SourceGraphic" in2="back" mode="normal"/>
			</filter>
		</defs>
		<mask maskUnits="userSpaceOnUse" x="656.42" y="300.79" width="117.56" height="138.02" id="SVGID_1_">
			<g class="st25">
			</g>
		</mask>
		<linearGradient id="SVGID_2_" gradientUnits="userSpaceOnUse" x1="717.3906" y1="448.7398" x2="714.3149" y2="313.8513">
			<stop  offset="0" style="stop-color:#FFFFFF"/>
			<stop  offset="0.0144" style="stop-color:#FAFAFA"/>
			<stop  offset="0.2989" style="stop-color:#A3A3A3"/>
			<stop  offset="0.5494" style="stop-color:#5D5D5D"/>
			<stop  offset="0.7567" style="stop-color:#2B2B2B"/>
			<stop  offset="0.9128" style="stop-color:#0C0C0C"/>
			<stop  offset="1" style="stop-color:#000000"/>
		</linearGradient>
		<polygon class="st26" points="656.42,404.49 656.42,300.79 773.98,300.79 773.98,404.69 715.15,438.81 		"/>
	</g>
</mask>
<linearGradient id="SVGID_3_" gradientUnits="userSpaceOnUse" x1="717.3906" y1="448.7398" x2="714.3149" y2="313.8513">
	<stop  offset="0" style="stop-color:#29ABE2"/>
	<stop  offset="0.4164" style="stop-color:#15D5F0"/>
	<stop  offset="0.7908" style="stop-color:#06F3FB"/>
	<stop  offset="1" style="stop-color:#00FFFF"/>
</linearGradient>
<polygon class="st27" points="656.42,404.49 656.42,300.79 773.98,300.79 773.98,404.69 715.15,438.81 "/>
<g>
	<g class="st6">
		<g>
			<polygon class="st21" points="540.83,480.8 533.84,476.36 592.26,442.41 592.24,450.93 			"/>
		</g>
		<g>
			<polygon class="st22" points="592.24,450.93 592.26,442.41 651.41,476.56 643.98,480.8 			"/>
		</g>
		<g>
			<polygon class="st23" points="540.83,480.8 592.24,450.93 643.98,480.8 592.58,510.68 			"/>
			<path class="st13" d="M592.56,496.86l-27.86-16.09l27.56-16.02l27.86,16.09L592.56,496.86z M573.22,480.76l19.33,11.16
				l19.05-11.07l-19.33-11.16L573.22,480.76z"/>
		</g>
	</g>
</g>
<defs>
	<filter id="Adobe_OpacityMaskFilter_2_" filterUnits="userSpaceOnUse" x="533.84" y="372.66" width="117.56" height="138.02">
		<feFlood  style="flood-color:white;flood-opacity:1" result="back"/>
		<feBlend  in="SourceGraphic" in2="back" mode="normal"/>
	</filter>
</defs>
<mask maskUnits="userSpaceOnUse" x="533.84" y="372.66" width="117.56" height="138.02" id="SVGID_4_">
	<g class="st28">
		<defs>
			<filter id="Adobe_OpacityMaskFilter_3_" filterUnits="userSpaceOnUse" x="533.84" y="372.66" width="117.56" height="138.02">
				<feFlood  style="flood-color:white;flood-opacity:1" result="back"/>
				<feBlend  in="SourceGraphic" in2="back" mode="normal"/>
			</filter>
		</defs>
		<mask maskUnits="userSpaceOnUse" x="533.84" y="372.66" width="117.56" height="138.02" id="SVGID_4_">
			<g class="st29">
			</g>
		</mask>
		<linearGradient id="SVGID_5_" gradientUnits="userSpaceOnUse" x1="594.8144" y1="520.6099" x2="591.7387" y2="385.7213">
			<stop  offset="0" style="stop-color:#FFFFFF"/>
			<stop  offset="0.0144" style="stop-color:#FAFAFA"/>
			<stop  offset="0.2989" style="stop-color:#A3A3A3"/>
			<stop  offset="0.5494" style="stop-color:#5D5D5D"/>
			<stop  offset="0.7567" style="stop-color:#2B2B2B"/>
			<stop  offset="0.9128" style="stop-color:#0C0C0C"/>
			<stop  offset="1" style="stop-color:#000000"/>
		</linearGradient>
		<polygon class="st30" points="533.84,476.36 533.84,372.66 651.41,372.66 651.41,476.56 592.58,510.68 		"/>
	</g>
</mask>
<linearGradient id="SVGID_6_" gradientUnits="userSpaceOnUse" x1="594.8144" y1="520.6099" x2="591.7387" y2="385.7213">
	<stop  offset="0" style="stop-color:#29ABE2"/>
	<stop  offset="0.4164" style="stop-color:#15D5F0"/>
	<stop  offset="0.7908" style="stop-color:#06F3FB"/>
	<stop  offset="1" style="stop-color:#00FFFF"/>
</linearGradient>
<polygon class="st31" points="533.84,476.36 533.84,372.66 651.41,372.66 651.41,476.56 592.58,510.68 "/>
<g>
	<g class="st6">
		<g>
			<polygon class="st21" points="356.55,480.8 349.56,476.36 407.98,442.41 407.95,450.93 			"/>
		</g>
		<g>
			<polygon class="st22" points="407.95,450.93 407.98,442.41 467.12,476.56 459.7,480.8 			"/>
		</g>
		<g>
			<polygon class="st23" points="356.55,480.8 407.95,450.93 459.7,480.8 408.29,510.68 			"/>
			<path class="st13" d="M408.27,496.86l-27.86-16.09l27.56-16.02l27.86,16.09L408.27,496.86z M388.93,480.76l19.33,11.16
				l19.05-11.07l-19.33-11.16L388.93,480.76z"/>
		</g>
	</g>
</g>
<defs>
	<filter id="Adobe_OpacityMaskFilter_4_" filterUnits="userSpaceOnUse" x="349.56" y="372.66" width="117.56" height="138.02">
		<feFlood  style="flood-color:white;flood-opacity:1" result="back"/>
		<feBlend  in="SourceGraphic" in2="back" mode="normal"/>
	</filter>
</defs>
<mask maskUnits="userSpaceOnUse" x="349.56" y="372.66" width="117.56" height="138.02" id="SVGID_7_">
	<g class="st32">
		<defs>
			<filter id="Adobe_OpacityMaskFilter_5_" filterUnits="userSpaceOnUse" x="349.56" y="372.66" width="117.56" height="138.02">
				<feFlood  style="flood-color:white;flood-opacity:1" result="back"/>
				<feBlend  in="SourceGraphic" in2="back" mode="normal"/>
			</filter>
		</defs>
		<mask maskUnits="userSpaceOnUse" x="349.56" y="372.66" width="117.56" height="138.02" id="SVGID_7_">
			<g class="st33">
			</g>
		</mask>
		<linearGradient id="SVGID_8_" gradientUnits="userSpaceOnUse" x1="410.5309" y1="520.6099" x2="407.4552" y2="385.7213">
			<stop  offset="0" style="stop-color:#FFFFFF"/>
			<stop  offset="0.0144" style="stop-color:#FAFAFA"/>
			<stop  offset="0.2989" style="stop-color:#A3A3A3"/>
			<stop  offset="0.5494" style="stop-color:#5D5D5D"/>
			<stop  offset="0.7567" style="stop-color:#2B2B2B"/>
			<stop  offset="0.9128" style="stop-color:#0C0C0C"/>
			<stop  offset="1" style="stop-color:#000000"/>
		</linearGradient>
		<polygon class="st34" points="349.56,476.36 349.56,372.66 467.12,372.66 467.12,476.56 408.29,510.68 		"/>
	</g>
</mask>
<linearGradient id="SVGID_9_" gradientUnits="userSpaceOnUse" x1="410.5309" y1="520.6099" x2="407.4552" y2="385.7213">
	<stop  offset="0" style="stop-color:#29ABE2"/>
	<stop  offset="0.4164" style="stop-color:#15D5F0"/>
	<stop  offset="0.7908" style="stop-color:#06F3FB"/>
	<stop  offset="1" style="stop-color:#00FFFF"/>
</linearGradient>
<polygon class="st35" points="349.56,476.36 349.56,372.66 467.12,372.66 467.12,476.56 408.29,510.68 "/>
<g>
	<g class="st6">
		<g>
			<polygon class="st21" points="235.83,410.37 228.84,405.93 287.26,371.98 287.24,380.5 			"/>
		</g>
		<g>
			<polygon class="st22" points="287.24,380.5 287.26,371.98 346.4,406.12 338.98,410.37 			"/>
		</g>
		<g>
			<polygon class="st23" points="235.83,410.37 287.24,380.5 338.98,410.37 287.57,440.24 			"/>
			<path class="st13" d="M287.56,426.42l-27.86-16.09l27.56-16.02l27.86,16.09L287.56,426.42z M268.22,410.32l19.33,11.16
				l19.05-11.07l-19.33-11.16L268.22,410.32z"/>
		</g>
	</g>
</g>
<defs>
	<filter id="Adobe_OpacityMaskFilter_6_" filterUnits="userSpaceOnUse" x="228.84" y="302.22" width="117.56" height="138.02">
		<feFlood  style="flood-color:white;flood-opacity:1" result="back"/>
		<feBlend  in="SourceGraphic" in2="back" mode="normal"/>
	</filter>
</defs>
<mask maskUnits="userSpaceOnUse" x="228.84" y="302.22" width="117.56" height="138.02" id="SVGID_10_">
	<g class="st36">
		<defs>
			<filter id="Adobe_OpacityMaskFilter_7_" filterUnits="userSpaceOnUse" x="228.84" y="302.22" width="117.56" height="138.02">
				<feFlood  style="flood-color:white;flood-opacity:1" result="back"/>
				<feBlend  in="SourceGraphic" in2="back" mode="normal"/>
			</filter>
		</defs>
		<mask maskUnits="userSpaceOnUse" x="228.84" y="302.22" width="117.56" height="138.02" id="SVGID_10_">
			<g class="st37">
			</g>
		</mask>
		<linearGradient id="SVGID_11_" gradientUnits="userSpaceOnUse" x1="289.8138" y1="450.1754" x2="286.7381" y2="315.2867">
			<stop  offset="0" style="stop-color:#FFFFFF"/>
			<stop  offset="0.0144" style="stop-color:#FAFAFA"/>
			<stop  offset="0.2989" style="stop-color:#A3A3A3"/>
			<stop  offset="0.5494" style="stop-color:#5D5D5D"/>
			<stop  offset="0.7567" style="stop-color:#2B2B2B"/>
			<stop  offset="0.9128" style="stop-color:#0C0C0C"/>
			<stop  offset="1" style="stop-color:#000000"/>
		</linearGradient>
		<polygon class="st38" points="228.84,405.93 228.84,302.22 346.4,302.22 346.4,406.12 287.57,440.24 		"/>
	</g>
</mask>
<linearGradient id="SVGID_12_" gradientUnits="userSpaceOnUse" x1="289.8138" y1="450.1754" x2="286.7381" y2="315.2867">
	<stop  offset="0" style="stop-color:#29ABE2"/>
	<stop  offset="0.4164" style="stop-color:#15D5F0"/>
	<stop  offset="0.7908" style="stop-color:#06F3FB"/>
	<stop  offset="1" style="stop-color:#00FFFF"/>
</linearGradient>
<polygon class="st39" points="228.84,405.93 228.84,302.22 346.4,302.22 346.4,406.12 287.57,440.24 "/>
<g>
	<g>
		<polygon class="st23" points="727.54,451.18 727.54,453.88 724,455.93 723.99,453.22 		"/>
	</g>
	<g>
		<polygon class="st23" points="727.55,455.63 727.56,458.33 724.01,460.38 724,457.68 		"/>
	</g>
	<g>
		<polygon class="st23" points="733.24,447.89 733.24,450.59 729.7,452.64 729.69,449.93 		"/>
	</g>
	<g>
		<polygon class="st23" points="733.25,452.34 733.26,455.04 729.71,457.09 729.7,454.38 		"/>
	</g>
	<g>
		<polygon class="st23" points="744.33,441.48 744.34,444.18 735.39,449.35 735.38,446.65 		"/>
	</g>
	<g>
		<polygon class="st23" points="744.34,445.93 744.35,448.64 735.4,453.8 735.4,451.1 		"/>
	</g>
</g>
<g>
	<g>
		<polygon class="st23" points="724.49,268.49 724.5,271.19 717.76,275.08 717.75,272.38 		"/>
	</g>
	<g>
		<polygon class="st23" points="724.47,263.83 724.48,266.53 717.75,270.42 717.74,267.72 		"/>
	</g>
	<g>
		<polygon class="st23" points="728.55,261.48 728.55,264.18 725.77,265.79 725.77,263.09 		"/>
	</g>
	<g>
		<polygon class="st23" points="733.92,258.38 733.93,261.08 731.99,262.2 731.98,259.5 		"/>
	</g>
	<g>
		<polygon class="st23" points="737.35,256.39 737.36,259.1 735.43,260.21 735.42,257.51 		"/>
	</g>
	<g>
		<polygon class="st23" points="728.56,266.14 728.57,268.84 725.79,270.45 725.78,267.74 		"/>
	</g>
	<g>
		<polygon class="st23" points="733.94,263.03 733.95,265.74 732,266.86 732,264.15 		"/>
	</g>
	<g>
		<polygon class="st23" points="737.37,261.05 737.38,263.76 735.44,264.87 735.43,262.17 		"/>
	</g>
</g>
<g>
	<g>
		<polygon class="st23" points="389.96,124.79 389.95,127.48 396.68,131.37 396.69,128.68 		"/>
	</g>
	<g>
		<polygon class="st23" points="389.97,120.46 389.96,123.16 396.7,127.05 396.7,124.35 		"/>
	</g>
	<g>
		<polygon class="st23" points="399.24,130.15 399.23,132.84 402.6,134.78 402.6,132.09 		"/>
	</g>
	<g>
		<polygon class="st23" points="399.25,125.82 399.25,128.52 402.61,130.46 402.62,127.76 		"/>
	</g>
	<g>
		<polygon class="st23" points="384.24,121.49 384.23,124.18 387.6,126.13 387.61,123.43 		"/>
	</g>
	<g>
		<polygon class="st23" points="384.25,117.16 384.24,119.86 387.62,121.81 387.62,119.1 		"/>
	</g>
</g>
<g>
	<g>
		<polygon class="st23" points="292.81,263.13 292.8,265.83 299.54,269.72 299.54,267.02 		"/>
	</g>
	<g>
		<polygon class="st23" points="283.9,262.45 283.9,265.15 290.63,269.04 290.64,266.34 		"/>
	</g>
	<g>
		<polygon class="st23" points="283.92,258 283.91,260.7 290.64,264.59 290.65,261.89 		"/>
	</g>
	<g>
		<polygon class="st23" points="275.41,257.55 275.4,260.25 278.95,262.29 278.95,259.59 		"/>
	</g>
	<g>
		<polygon class="st23" points="275.42,253.09 275.41,255.8 278.96,257.84 278.97,255.14 		"/>
	</g>
	<g>
		<polygon class="st23" points="292.79,267.58 292.79,270.29 299.52,274.17 299.53,271.47 		"/>
	</g>
</g>
<g>
	<g>
		<polygon class="st23" points="618.23,149.04 618.22,151.75 621.77,153.79 621.78,151.09 		"/>
	</g>
	<g>
		<polygon class="st23" points="618.22,153.5 618.21,156.2 621.76,158.25 621.76,155.54 		"/>
	</g>
	<g>
		<polygon class="st23" points="612.53,145.75 612.52,148.46 616.07,150.5 616.08,147.8 		"/>
	</g>
	<g>
		<polygon class="st23" points="612.52,150.21 612.51,152.91 616.06,154.95 616.06,152.25 		"/>
	</g>
	<g>
		<polygon class="st23" points="601.44,139.35 601.43,142.05 610.38,147.22 610.38,144.51 		"/>
	</g>
	<g>
		<polygon class="st23" points="601.42,143.8 601.42,146.5 610.36,151.67 610.37,148.97 		"/>
	</g>
</g>
<g>
	<g>
		<polygon class="st23" points="381.07,416.56 381.06,419.26 387.8,423.15 387.8,420.45 		"/>
	</g>
	<g>
		<polygon class="st23" points="381.08,411.9 381.07,414.6 387.81,418.49 387.82,415.79 		"/>
	</g>
	<g>
		<polygon class="st23" points="377.01,409.55 377,412.25 379.78,413.86 379.79,411.15 		"/>
	</g>
	<g>
		<polygon class="st23" points="371.63,406.44 371.62,409.15 373.56,410.27 373.57,407.56 		"/>
	</g>
	<g>
		<polygon class="st23" points="368.2,404.46 368.19,407.17 370.13,408.28 370.13,405.58 		"/>
	</g>
	<g>
		<polygon class="st23" points="377,414.21 376.99,416.91 379.77,418.51 379.78,415.81 		"/>
	</g>
	<g>
		<polygon class="st23" points="371.62,411.1 371.61,413.8 373.55,414.92 373.56,412.22 		"/>
	</g>
	<g>
		<polygon class="st23" points="368.19,409.12 368.18,411.82 370.11,412.94 370.12,410.24 		"/>
	</g>
</g>
</svg>
