<svg xmlns="http://www.w3.org/2000/svg" width="307.251" height="300.252" viewBox="0 0 307.251 300.252">
  <g id="tech_img_01" data-name="tech img 01" transform="translate(-66.971 -174.957)">
    <path id="패스_1523" data-name="패스 1523" d="M243.722,658.237l145.034-83.593a17.761,17.761,0,0,1,15.946,0l57.974,33.69c1.859,1.081,2.882,2.441,2.88,3.829s-1.044,2.774-2.932,3.864L317.589,699.617a17.76,17.76,0,0,1-15.948,0l-57.974-33.691c-1.857-1.08-2.879-2.438-2.877-3.827S241.834,659.327,243.722,658.237Z" transform="translate(-133.301 -226.3)" opacity="0.1"/>
    <g id="그룹_1443" data-name="그룹 1443" transform="translate(106.968 305.02)">
      <g id="그룹_1397" data-name="그룹 1397" transform="translate(0 4.5)">
        <path id="패스_1524" data-name="패스 1524" d="M243.391,567.078c-5.67,3.274-4.716,11.78.917,15.053l55.517,32.263c5.633,3.273,14.825,3.273,20.494,0l139.813-80.721c5.67-3.273,6.573-11.945.94-15.219l-56.39-28.916c-5.632-3.273-14.825-3.273-20.494,0Z" transform="translate(-239.582 -487.084)" fill="#fff"/>
      </g>
      <g id="그룹_1398" data-name="그룹 1398" transform="translate(0.521)">
        <path id="패스_1525" data-name="패스 1525" d="M245.061,559.822c-5.669,3.273-5.7,8.6-.067,11.871l55.517,32.263c5.633,3.274,14.825,3.274,20.494,0l139.813-80.721c5.67-3.273,5.7-8.6.067-11.871L405.369,479.1c-5.633-3.273-14.825-3.273-20.494,0Z" transform="translate(-240.79 -476.646)" fill="#f2f2f2"/>
      </g>
      <g id="그룹_1399" data-name="그룹 1399" transform="translate(5.072 2.122)" opacity="0.5">
        <path id="패스_1526" data-name="패스 1526" d="M254.715,572.454l55.07,32c4.515,2.624,11.884,2.624,16.428,0l137.768-79.4c4.544-2.623,4.568-6.892.053-9.516l-55.07-32c-4.512-2.622-11.882-2.622-16.425,0l-137.768,79.4C250.227,565.563,250.2,569.832,254.715,572.454Zm-2.093-4.738c0-1.331.991-2.635,2.785-3.671l137.769-79.4a16.869,16.869,0,0,1,15.147,0l55.07,32c1.766,1.027,2.738,2.318,2.735,3.637s-.991,2.635-2.785,3.671l-137.77,79.405a16.87,16.87,0,0,1-15.149,0l-55.07-32C253.591,570.326,252.62,569.035,252.622,567.716Z" transform="translate(-251.347 -481.567)" fill="#e6e6e6"/>
        <path id="패스_1527" data-name="패스 1527" d="M257.091,565.728l137.769-79.4a16.869,16.869,0,0,1,15.147,0l55.07,32c1.766,1.026,2.738,2.318,2.735,3.637s-.991,2.635-2.785,3.671L327.258,605.036a16.871,16.871,0,0,1-15.149,0l-55.07-32c-1.765-1.026-2.735-2.316-2.733-3.635S255.3,566.764,257.091,565.728Z" transform="translate(-253.03 -483.25)" fill="#d9dee5"/>
      </g>
      <g id="그룹_1401" data-name="그룹 1401" transform="translate(60.715 126.269)" opacity="0.7">
        <g id="그룹_1400" data-name="그룹 1400">
          <path id="패스_1528" data-name="패스 1528" d="M380.414,769.535" transform="translate(-380.414 -769.535)" fill="#fff"/>
        </g>
      </g>
      <g id="그룹_1417" data-name="그룹 1417" transform="translate(153.259 7.298)">
        <g id="그룹_1402" data-name="그룹 1402" transform="translate(13.424 7.081)">
          <path id="패스_1529" data-name="패스 1529" d="M626.218,510l0,.713c2.056,0,3.717.967,3.712,2.157h1.231C631.166,511.283,628.955,510,626.218,510Z" transform="translate(-626.214 -509.998)" fill="#fff"/>
        </g>
        <g id="그룹_1403" data-name="그룹 1403" transform="translate(13.412 9.654)">
          <path id="패스_1530" data-name="패스 1530" d="M626.188,515.968l0,.3h.512C626.7,516.1,626.47,515.97,626.188,515.968Z" transform="translate(-626.186 -515.968)" fill="#fff"/>
        </g>
        <g id="그룹_1404" data-name="그룹 1404" transform="translate(13.419 7.992)">
          <path id="패스_1531" data-name="패스 1531" d="M626.206,512.111l0,.677c1.223,0,2.213.574,2.206,1.282h1.169C629.587,512.987,628.077,512.11,626.206,512.111Z" transform="translate(-626.203 -512.111)" fill="#fff"/>
        </g>
        <g id="그룹_1405" data-name="그룹 1405" transform="translate(13.414 8.831)">
          <path id="패스_1532" data-name="패스 1532" d="M626.2,514.057l0,.674c.424,0,.769.2.768.446h1.163C628.125,514.559,627.264,514.058,626.2,514.057Z" transform="translate(-626.192 -514.057)" fill="#fff"/>
        </g>
        <g id="그룹_1409" data-name="그룹 1409" transform="translate(18.668 11.258)" style="isolation: isolate">
          <g id="그룹_1406" data-name="그룹 1406">
            <path id="패스_1533" data-name="패스 1533" d="M638.379,521.435l.639.372,3.028-1.748-.639-.372Z" transform="translate(-638.379 -519.687)" fill="#fff"/>
          </g>
          <g id="그룹_1407" data-name="그룹 1407" transform="translate(1.044 0.888)">
            <path id="패스_1534" data-name="패스 1534" d="M640.8,523.214l.639.372,2.54-1.467-.639-.371Z" transform="translate(-640.801 -521.747)" fill="#fff"/>
          </g>
          <g id="그룹_1408" data-name="그룹 1408" transform="translate(2.088 1.777)">
            <path id="패스_1535" data-name="패스 1535" d="M643.222,524.993l.639.372,2.053-1.185-.639-.371Z" transform="translate(-643.222 -523.808)" fill="#fff"/>
          </g>
        </g>
        <g id="그룹_1410" data-name="그룹 1410" transform="translate(17.624 10.369)">
          <path id="패스_1536" data-name="패스 1536" d="M635.957,519.656l.639.371,3.516-2.03-.639-.371Z" transform="translate(-635.957 -517.626)" fill="#fff"/>
        </g>
        <g id="그룹_1411" data-name="그룹 1411" transform="translate(9.341 5.058)">
          <path id="패스_1537" data-name="패스 1537" d="M616.966,506.153a1.19,1.19,0,0,0,1.081,0l.382-.22-1.077-.626-.382.22A.331.331,0,0,0,616.966,506.153Z" transform="translate(-616.745 -505.307)" fill="#fff"/>
        </g>
        <g id="그룹_1412" data-name="그룹 1412" transform="translate(0.015 0.006)">
          <path id="패스_1538" data-name="패스 1538" d="M595.157,494.34c-.06.035-.06.091,0,.125l.33.191a.24.24,0,0,0,.215,0l1.258-.727c.06-.034.06-.091,0-.124l-.33-.192a.241.241,0,0,0-.215,0Z" transform="translate(-595.112 -493.587)" fill="#fff"/>
        </g>
        <g id="그룹_1413" data-name="그룹 1413">
          <path id="패스_1539" data-name="패스 1539" d="M597.774,493.658a.779.779,0,0,1,.7,0l4.947,2.875a.217.217,0,0,1,0,.409l-2.551,1.473a.782.782,0,0,1-.706,0l-4.947-2.875a.216.216,0,0,1,0-.408Zm2.61,4.631a.3.3,0,0,0,.274,0l2.551-1.473a.084.084,0,0,0,0-.159l-4.947-2.875a.3.3,0,0,0-.274,0l-2.55,1.473a.084.084,0,0,0,0,.159l4.947,2.875" transform="translate(-595.076 -493.574)" fill="#fff"/>
        </g>
        <g id="그룹_1414" data-name="그룹 1414" transform="translate(9.037 4.533)">
          <path id="패스_1540" data-name="패스 1540" d="M616.735,504.489l.379-.219a1.669,1.669,0,0,1,1.513,0,.464.464,0,0,1-.005.878l-.379.219-.381.22a1.669,1.669,0,0,1-1.513,0,.462.462,0,0,1,0-.875Zm.91.971.382-.22.379-.219a.33.33,0,0,0,0-.626,1.192,1.192,0,0,0-1.081,0l-.379.219-.381.22a.331.331,0,0,0,0,.626,1.19,1.19,0,0,0,1.081,0" transform="translate(-616.039 -504.088)" fill="#fff"/>
        </g>
        <g id="그룹_1415" data-name="그룹 1415" transform="translate(7.009 4.795)">
          <path id="패스_1541" data-name="패스 1541" d="M611.506,505.75a.254.254,0,0,0,0,.481l1.642.955a.913.913,0,0,0,.828,0l1.653-.955c.23-.133.234-.347.005-.481l-.067-.039-.381.22a1.669,1.669,0,0,1-1.513,0,.462.462,0,0,1,0-.875l.382-.22-.067-.039a.918.918,0,0,0-.833,0Z" transform="translate(-611.334 -504.696)" fill="#fff"/>
        </g>
        <g id="그룹_1416" data-name="그룹 1416" transform="translate(1.827 1.06)">
          <path id="패스_1542" data-name="패스 1542" d="M599.4,497.17c-.114.066-.118.172,0,.238l3.333,1.937a.453.453,0,0,0,.411,0l1.881-1.086c.114-.066.117-.172,0-.238l-3.333-1.937a.452.452,0,0,0-.411,0Z" transform="translate(-599.315 -496.033)" fill="#fff"/>
        </g>
      </g>
      <g id="그룹_1418" data-name="그룹 1418" transform="translate(71.483 95.753)">
        <path id="패스_1543" data-name="패스 1543" d="M410.842,699.294c1.253.723,1.259,1.9.015,2.619a4.982,4.982,0,0,1-4.522,0c-1.253-.723-1.259-1.9-.015-2.619A4.981,4.981,0,0,1,410.842,699.294Z" transform="translate(-405.392 -698.751)" fill="#fff"/>
      </g>
      <g id="그룹_1419" data-name="그룹 1419" transform="translate(91.961 69.275)">
        <path id="패스_1544" data-name="패스 1544" d="M458.342,637.877c1.253.723,1.259,1.9.015,2.619a4.982,4.982,0,0,1-4.521,0c-1.253-.723-1.259-1.9-.015-2.619A4.982,4.982,0,0,1,458.342,637.877Z" transform="translate(-452.892 -637.334)" fill="#fff"/>
      </g>
      <g id="그룹_1420" data-name="그룹 1420" transform="translate(145.287 56.951)">
        <path id="패스_1545" data-name="패스 1545" d="M582.034,609.29c1.253.723,1.26,1.9.015,2.619a4.981,4.981,0,0,1-4.521,0c-1.253-.723-1.259-1.9-.015-2.619A4.981,4.981,0,0,1,582.034,609.29Z" transform="translate(-576.584 -608.748)" fill="#fff"/>
      </g>
      <g id="그룹_1421" data-name="그룹 1421" transform="translate(171.841 45.005)">
        <path id="패스_1546" data-name="패스 1546" d="M643.63,581.581c1.253.723,1.26,1.9.015,2.619a4.981,4.981,0,0,1-4.521,0c-1.253-.723-1.26-1.9-.015-2.619A4.981,4.981,0,0,1,643.63,581.581Z" transform="translate(-638.179 -581.038)" fill="#fff"/>
      </g>
      <g id="그룹_1422" data-name="그룹 1422" transform="translate(165.408 63.113)">
        <path id="패스_1547" data-name="패스 1547" d="M628.707,623.583c1.253.724,1.26,1.9.015,2.619a4.98,4.98,0,0,1-4.521,0c-1.253-.723-1.26-1.9-.015-2.619A4.979,4.979,0,0,1,628.707,623.583Z" transform="translate(-623.257 -623.04)" fill="#fff"/>
      </g>
      <g id="그룹_1423" data-name="그룹 1423" transform="translate(175.952 54.51)">
        <path id="패스_1548" data-name="패스 1548" d="M653.165,603.628c1.253.723,1.259,1.9.015,2.619a4.981,4.981,0,0,1-4.521,0c-1.253-.723-1.26-1.9-.015-2.619A4.981,4.981,0,0,1,653.165,603.628Z" transform="translate(-647.715 -603.085)" fill="#fff"/>
      </g>
      <g id="그룹_1424" data-name="그룹 1424" transform="translate(197.308 30.292)">
        <path id="패스_1549" data-name="패스 1549" d="M702.7,547.452c1.253.723,1.26,1.9.015,2.619a4.979,4.979,0,0,1-4.521,0c-1.253-.724-1.26-1.9-.015-2.619A4.981,4.981,0,0,1,702.7,547.452Z" transform="translate(-697.25 -546.909)" fill="#fff"/>
      </g>
      <g id="그룹_1425" data-name="그룹 1425" transform="translate(200.505 42.695)">
        <path id="패스_1550" data-name="패스 1550" d="M710.117,576.223c1.253.723,1.259,1.9.015,2.619a4.98,4.98,0,0,1-4.521,0c-1.253-.724-1.26-1.9-.015-2.619A4.981,4.981,0,0,1,710.117,576.223Z" transform="translate(-704.667 -575.68)" fill="#fff"/>
      </g>
      <g id="그룹_1426" data-name="그룹 1426" transform="translate(185.642 44.547)">
        <path id="패스_1551" data-name="패스 1551" d="M675.641,580.519c1.253.723,1.259,1.9.015,2.619a4.979,4.979,0,0,1-4.521,0c-1.253-.724-1.26-1.9-.015-2.619A4.981,4.981,0,0,1,675.641,580.519Z" transform="translate(-670.191 -579.976)" fill="#fff"/>
      </g>
      <g id="그룹_1427" data-name="그룹 1427" transform="translate(135.23 79.272)">
        <path id="패스_1552" data-name="패스 1552" d="M558.707,661.064c1.253.723,1.259,1.9.015,2.619a4.982,4.982,0,0,1-4.522,0c-1.253-.723-1.259-1.9-.015-2.619A4.981,4.981,0,0,1,558.707,661.064Z" transform="translate(-553.257 -660.521)" fill="#fff"/>
      </g>
      <g id="그룹_1428" data-name="그룹 1428" transform="translate(106.798 81.83)">
        <path id="패스_1553" data-name="패스 1553" d="M492.758,667c1.253.724,1.26,1.9.015,2.619a4.98,4.98,0,0,1-4.521,0c-1.253-.723-1.26-1.9-.015-2.619A4.981,4.981,0,0,1,492.758,667Z" transform="translate(-487.308 -666.455)" fill="#fff"/>
      </g>
      <g id="그룹_1429" data-name="그룹 1429" transform="translate(98.079 102.54)">
        <path id="패스_1554" data-name="패스 1554" d="M472.534,715.037c1.253.724,1.26,1.9.015,2.619a4.981,4.981,0,0,1-4.521,0c-1.253-.723-1.259-1.9-.015-2.619A4.98,4.98,0,0,1,472.534,715.037Z" transform="translate(-467.084 -714.494)" fill="#fff"/>
      </g>
      <g id="그룹_1430" data-name="그룹 1430" transform="translate(103.601 50.706)">
        <path id="패스_1555" data-name="패스 1555" d="M485.342,594.805c1.253.723,1.259,1.9.015,2.619a4.981,4.981,0,0,1-4.522,0c-1.253-.723-1.259-1.9-.015-2.619A4.981,4.981,0,0,1,485.342,594.805Z" transform="translate(-479.892 -594.262)" fill="#fff"/>
      </g>
      <g id="그룹_1431" data-name="그룹 1431" transform="translate(139.878 28.44)">
        <path id="패스_1556" data-name="패스 1556" d="M569.489,543.156c1.253.723,1.259,1.9.015,2.619a4.981,4.981,0,0,1-4.522,0c-1.253-.723-1.259-1.9-.015-2.619A4.982,4.982,0,0,1,569.489,543.156Z" transform="translate(-564.039 -542.613)" fill="#fff"/>
      </g>
      <g id="그룹_1432" data-name="그룹 1432" transform="translate(70.515 54.51)">
        <path id="패스_1557" data-name="패스 1557" d="M408.6,603.628c1.253.723,1.26,1.9.015,2.619a4.982,4.982,0,0,1-4.522,0c-1.253-.723-1.259-1.9-.015-2.619A4.98,4.98,0,0,1,408.6,603.628Z" transform="translate(-403.146 -603.085)" fill="#fff"/>
      </g>
      <g id="그룹_1433" data-name="그룹 1433" transform="translate(103.601 32.144)">
        <path id="패스_1558" data-name="패스 1558" d="M485.342,551.748c1.253.723,1.259,1.9.015,2.619a4.981,4.981,0,0,1-4.522,0c-1.253-.723-1.259-1.9-.015-2.619A4.981,4.981,0,0,1,485.342,551.748Z" transform="translate(-479.892 -551.205)" fill="#fff"/>
      </g>
      <g id="그룹_1434" data-name="그룹 1434" transform="translate(133.775 15.815)">
        <path id="패스_1559" data-name="패스 1559" d="M555.333,513.873c1.253.723,1.26,1.9.015,2.619a4.982,4.982,0,0,1-4.522,0c-1.253-.724-1.259-1.9-.015-2.619A4.98,4.98,0,0,1,555.333,513.873Z" transform="translate(-549.883 -513.331)" fill="#fff"/>
      </g>
      <g id="그룹_1435" data-name="그룹 1435" transform="translate(180.366 25.889)">
        <ellipse id="타원_5" data-name="타원 5" cx="1.852" cy="3.197" rx="1.852" ry="3.197" transform="translate(0 3.704) rotate(-89.838)" fill="#fff"/>
      </g>
      <g id="그룹_1436" data-name="그룹 1436" transform="translate(151.663 17.667)">
        <path id="패스_1560" data-name="패스 1560" d="M596.824,518.169c1.253.723,1.26,1.9.015,2.619a4.98,4.98,0,0,1-4.521,0c-1.253-.723-1.26-1.9-.015-2.619A4.979,4.979,0,0,1,596.824,518.169Z" transform="translate(-591.374 -517.626)" fill="#fff"/>
      </g>
      <g id="그룹_1437" data-name="그룹 1437" transform="translate(68.762 115.8)">
        <path id="패스_1561" data-name="패스 1561" d="M404.53,745.794c1.253.724,1.26,1.9.015,2.619a4.98,4.98,0,0,1-4.521,0c-1.253-.723-1.26-1.9-.015-2.619A4.98,4.98,0,0,1,404.53,745.794Z" transform="translate(-399.08 -745.251)" fill="#fff"/>
      </g>
      <g id="그룹_1438" data-name="그룹 1438" transform="translate(46.775 94.993)">
        <path id="패스_1562" data-name="패스 1562" d="M353.53,697.531c1.253.723,1.26,1.9.015,2.619a4.98,4.98,0,0,1-4.521,0c-1.253-.723-1.26-1.9-.015-2.619A4.98,4.98,0,0,1,353.53,697.531Z" transform="translate(-348.08 -696.988)" fill="#fff"/>
      </g>
      <g id="그룹_1439" data-name="그룹 1439" transform="translate(31.902 75.592)">
        <path id="패스_1563" data-name="패스 1563" d="M319.03,652.528c1.253.723,1.26,1.9.015,2.619a4.978,4.978,0,0,1-4.521,0c-1.253-.723-1.26-1.9-.015-2.619A4.98,4.98,0,0,1,319.03,652.528Z" transform="translate(-313.58 -651.985)" fill="#fff"/>
      </g>
      <g id="그룹_1440" data-name="그룹 1440" transform="translate(24.249 86.154)">
        <path id="패스_1564" data-name="패스 1564" d="M301.281,677.028c1.253.724,1.26,1.9.015,2.619a4.978,4.978,0,0,1-4.521,0c-1.253-.723-1.26-1.9-.015-2.619A4.98,4.98,0,0,1,301.281,677.028Z" transform="translate(-295.83 -676.485)" fill="#fff"/>
      </g>
      <g id="그룹_1441" data-name="그룹 1441" transform="translate(11.21 88.006)">
        <path id="패스_1565" data-name="패스 1565" d="M271.034,681.324c1.253.723,1.26,1.9.015,2.619a4.982,4.982,0,0,1-4.521,0c-1.253-.724-1.259-1.9-.015-2.619A4.981,4.981,0,0,1,271.034,681.324Z" transform="translate(-265.584 -680.781)" fill="#fff"/>
      </g>
      <g id="그룹_1442" data-name="그룹 1442" transform="translate(59.001 75.201)">
        <path id="패스_1566" data-name="패스 1566" d="M381.888,651.621c1.253.724,1.26,1.9.015,2.619a4.98,4.98,0,0,1-4.521,0c-1.253-.724-1.26-1.9-.015-2.619A4.98,4.98,0,0,1,381.888,651.621Z" transform="translate(-376.438 -651.078)" fill="#fff"/>
      </g>
      <line id="선_7" data-name="선 7" x2="23.126" y2="0.76" transform="translate(49.973 96.845)" fill="none" stroke="#fff" stroke-miterlimit="10" stroke-width="1"/>
      <path id="패스_1567" data-name="패스 1567" d="M330.552,696.347l2.721-21.18-12.482-19.793-12.226,19.793-22.632-8.745L273,668.039" transform="translate(-258.593 -578.322)" fill="none" stroke="#fff" stroke-miterlimit="10" stroke-width="1" opacity="0.5"/>
      <line id="선_8" data-name="선 8" x1="25.075" transform="translate(35.639 77.444)" fill="none" stroke="#fff" stroke-miterlimit="10" stroke-width="1" opacity="0.5"/>
      <path id="패스_1568" data-name="패스 1568" d="M382.613,622.058l12.6-20.16,33.481-3.34-12.961,19.016Z" transform="translate(-320.95 -546)" fill="none" stroke="#fff" stroke-miterlimit="10" stroke-width="1" opacity="0.5"/>
      <line id="선_9" data-name="선 9" x2="14.91" y2="12.555" transform="translate(95.086 71.127)" fill="none" stroke="#fff" stroke-miterlimit="10" stroke-width="1"/>
      <line id="선_10" data-name="선 10" x1="8.719" y2="20.711" transform="translate(101.277 83.682)" fill="none" stroke="#fff" stroke-miterlimit="10" stroke-width="1" opacity="0.5"/>
      <line id="선_11" data-name="선 11" y1="25.718" x2="20.405" transform="translate(74.68 71.127)" fill="none" stroke="#fff" stroke-miterlimit="10" stroke-width="1" opacity="0.5"/>
      <line id="선_12" data-name="선 12" x1="35.315" y2="13.163" transform="translate(74.68 83.682)" fill="none" stroke="#fff" stroke-miterlimit="10" stroke-width="1" opacity="0.5"/>
      <line id="선_13" data-name="선 13" y1="17.568" transform="translate(107.205 33.996)" fill="none" stroke="#fff" stroke-miterlimit="10" stroke-width="1"/>
      <path id="패스_1569" data-name="패스 1569" d="M488.25,532.664l35.387-3.952-6.323-13.355" transform="translate(-381.045 -498.668)" fill="none" stroke="#fff" stroke-miterlimit="10" stroke-width="1" opacity="0.5"/>
      <path id="패스_1570" data-name="패스 1570" d="M489.491,569.176l36.146-22.267,4.6,28.511Z" transform="translate(-381.751 -516.618)" fill="none" stroke="#fff" stroke-miterlimit="10" stroke-width="1" opacity="0.5"/>
      <line id="선_14" data-name="선 14" y1="12.324" x2="53.398" transform="translate(95.086 58.803)" fill="none" stroke="#fff" stroke-miterlimit="10" stroke-width="1" opacity="0.5"/>
      <line id="선_15" data-name="선 15" y1="24.879" x2="38.488" transform="translate(109.996 58.803)" fill="none" stroke="#fff" stroke-miterlimit="10" stroke-width="1" opacity="0.5"/>
      <path id="패스_1571" data-name="패스 1571" d="M494.724,622.159l29.147-2.623,9.341-22.256,26.555-11.946" transform="translate(-384.729 -538.477)" fill="none" stroke="#fff" stroke-miterlimit="10" stroke-width="1" opacity="0.5"/>
      <line id="선_16" data-name="선 16" x1="31.153" y1="16.566" transform="translate(143.885 30.292)" fill="none" stroke="#fff" stroke-miterlimit="10" stroke-width="1" opacity="0.5"/>
      <line id="선_17" data-name="선 17" y1="9.975" x2="11.628" transform="translate(142.592 20.069)" fill="none" stroke="#fff" stroke-miterlimit="10" stroke-width="1" opacity="0.5"/>
      <line id="선_18" data-name="선 18" x2="19.952" y2="27.989" transform="translate(155.087 18.868)" fill="none" stroke="#fff" stroke-miterlimit="10" stroke-width="1" opacity="0.5"/>
      <line id="선_19" data-name="선 19" y1="18.418" x2="8.222" transform="translate(175.039 28.44)" fill="none" stroke="#fff" stroke-miterlimit="10" stroke-width="1" opacity="0.5"/>
      <line id="선_20" data-name="선 20" x2="16.937" y2="4.974" transform="translate(183.568 27.17)" fill="none" stroke="#fff" stroke-miterlimit="10" stroke-width="1" opacity="0.5"/>
      <path id="패스_1572" data-name="패스 1572" d="M584,609.822l20.122,6.162,10.544-8.6" transform="translate(-435.516 -551.019)" fill="none" stroke="#fff" stroke-miterlimit="10" stroke-width="1" opacity="0.5"/>
      <path id="패스_1573" data-name="패스 1573" d="M665.38,539.668l5.872,19.688,14.263-2.31" transform="translate(-481.812 -512.498)" fill="none" stroke="#fff" stroke-miterlimit="10" stroke-width="1" opacity="0.5"/>
      <line id="선_21" data-name="선 21" x1="37.866" y2="23.333" transform="translate(101.277 81.059)" fill="none" stroke="#fff" stroke-miterlimit="10" stroke-width="1" opacity="0.5"/>
      <line id="선_22" data-name="선 22" x1="26.596" y1="7.547" transform="translate(74.68 96.845)" fill="none" stroke="#fff" stroke-miterlimit="10" stroke-width="1" opacity="0.5"/>
    </g>
    <path id="패스_1574" data-name="패스 1574" d="M225.257,395.195s12.549-11.338,25.1-12.928V408.71s-16.448,5.654-24.55,14.642Z" transform="translate(-124.464 -117.935)" fill="none" stroke="#fff" stroke-linecap="round" stroke-linejoin="round" stroke-width="1" stroke-dasharray="4"/>
    <g id="그룹_1445" data-name="그룹 1445" transform="translate(6.47 174.957)">
      <g id="그룹_1444" data-name="그룹 1444" opacity="0.4">
        <path id="패스_1575" data-name="패스 1575" d="M857.337,478.233c.311-.334.627-.666.93-1C857.964,477.567,857.648,477.9,857.337,478.233Z" transform="translate(-490.515 -346.916)" fill="none" opacity="0.1"/>
        <path id="패스_1576" data-name="패스 1576" d="M191.659,480.146c-.3-.308-.582-.619-.873-.929C191.077,479.526,191.362,479.838,191.659,480.146Z" transform="translate(-111.324 -348.046)" fill="none" opacity="0.1"/>
        <path id="패스_1577" data-name="패스 1577" d="M153.675,418.809c-.116-.345-.221-.691-.33-1.036C153.454,418.118,153.559,418.464,153.675,418.809Z" transform="translate(-90.025 -313.091)" fill="none" opacity="0.1"/>
        <path id="패스_1578" data-name="패스 1578" d="M155.366,423.694c-.131-.344-.25-.69-.374-1.034C155.115,423,155.235,423.35,155.366,423.694Z" transform="translate(-90.962 -315.871)" fill="none" opacity="0.1"/>
        <path id="패스_1579" data-name="패스 1579" d="M187.505,475.647c-.285-.313-.557-.628-.834-.942C186.949,475.019,187.221,475.334,187.505,475.647Z" transform="translate(-108.984 -345.479)" fill="none" opacity="0.1"/>
        <path id="패스_1580" data-name="패스 1580" d="M857.218,482.677c.328-.332.661-.662.981-1C857.879,482.016,857.546,482.346,857.218,482.677Z" transform="translate(-490.447 -349.448)" fill="none" opacity="0.1"/>
        <path id="패스_1581" data-name="패스 1581" d="M157.263,428.563c-.145-.341-.278-.684-.416-1.026C156.985,427.879,157.118,428.222,157.263,428.563Z" transform="translate(-92.017 -318.646)" fill="none" opacity="0.1"/>
        <path id="패스_1582" data-name="패스 1582" d="M200.586,489c-.322-.3-.631-.6-.947-.9C199.955,488.4,200.264,488.705,200.586,489Z" transform="translate(-116.361 -353.102)" fill="none" opacity="0.1"/>
        <path id="패스_1583" data-name="패스 1583" d="M196.015,484.6c-.311-.3-.61-.612-.914-.917C195.406,483.984,195.7,484.291,196.015,484.6Z" transform="translate(-113.779 -350.583)" fill="none" opacity="0.1"/>
        <path id="패스_1584" data-name="패스 1584" d="M164.183,443.027c-.187-.335-.363-.671-.543-1.007C163.82,442.356,164,442.692,164.183,443.027Z" transform="translate(-95.882 -326.885)" fill="none" opacity="0.1"/>
        <path id="패스_1585" data-name="패스 1585" d="M176.278,461.89c-.244-.323-.475-.649-.712-.974C175.8,461.241,176.034,461.567,176.278,461.89Z" transform="translate(-102.666 -337.634)" fill="none" opacity="0.1"/>
        <path id="패스_1586" data-name="패스 1586" d="M152.188,413.905c-.1-.346-.192-.692-.286-1.038C152,413.213,152.087,413.559,152.188,413.905Z" transform="translate(-89.204 -310.3)" fill="none" opacity="0.1"/>
        <path id="패스_1587" data-name="패스 1587" d="M147.83,389.2c-.029-.35-.048-.7-.071-1.05C147.781,388.5,147.8,388.847,147.83,389.2Z" transform="translate(-86.847 -296.237)" fill="none"/>
        <path id="패스_1588" data-name="패스 1588" d="M172.946,457.224c-.23-.327-.448-.657-.671-.985C172.5,456.568,172.716,456.9,172.946,457.224Z" transform="translate(-100.794 -334.974)" fill="none" opacity="0.1"/>
        <path id="패스_1589" data-name="패스 1589" d="M148.291,394.154c-.044-.35-.077-.7-.114-1.05C148.214,393.454,148.247,393.8,148.291,394.154Z" transform="translate(-87.085 -299.057)" fill="none"/>
        <path id="패스_1590" data-name="패스 1590" d="M169.82,452.525c-.216-.33-.419-.662-.629-.993C169.4,451.863,169.6,452.2,169.82,452.525Z" transform="translate(-99.039 -332.296)" fill="none" opacity="0.1"/>
        <path id="패스_1591" data-name="패스 1591" d="M149.83,404.052c-.072-.348-.135-.7-.2-1.044C149.7,403.356,149.758,403.7,149.83,404.052Z" transform="translate(-87.911 -304.692)" fill="none" opacity="0.1"/>
        <path id="패스_1592" data-name="패스 1592" d="M148.958,399.106c-.059-.349-.106-.7-.157-1.048C148.852,398.407,148.9,398.757,148.958,399.106Z" transform="translate(-87.44 -301.876)" fill="none"/>
        <path id="패스_1593" data-name="패스 1593" d="M147.573,384.235c-.015-.351-.019-.7-.028-1.051C147.553,383.534,147.558,383.884,147.573,384.235Z" transform="translate(-86.725 -293.414)" fill="none"/>
        <path id="패스_1594" data-name="패스 1594" d="M161.672,438.232c-.173-.337-.335-.675-.5-1.013C161.337,437.557,161.5,437.9,161.672,438.232Z" transform="translate(-94.477 -324.154)" fill="none" opacity="0.1"/>
        <path id="패스_1595" data-name="패스 1595" d="M856.881,495.7c.376-.322.758-.642,1.127-.967C857.639,495.061,857.257,495.381,856.881,495.7Z" transform="translate(-490.255 -356.875)" fill="none" opacity="0.1"/>
        <path id="패스_1596" data-name="패스 1596" d="M183.557,471.1c-.272-.316-.53-.636-.795-.954C183.026,470.466,183.285,470.785,183.557,471.1Z" transform="translate(-106.76 -342.886)" fill="none" opacity="0.1"/>
        <path id="패스_1597" data-name="패스 1597" d="M856.754,499.942c.395-.32.795-.638,1.181-.961C857.549,499.3,857.149,499.623,856.754,499.942Z" transform="translate(-490.183 -359.29)" fill="none" opacity="0.1"/>
        <path id="패스_1598" data-name="패스 1598" d="M856.98,491.417c.362-.328.73-.653,1.084-.982C857.71,490.764,857.342,491.09,856.98,491.417Z" transform="translate(-490.312 -354.427)" fill="none" opacity="0.1"/>
        <path id="패스_1599" data-name="패스 1599" d="M214.479,501.054c.148.119.294.238.443.357h0C214.773,501.292,214.627,501.173,214.479,501.054Z" transform="translate(-124.803 -360.468)" fill="none" opacity="0.1"/>
        <path id="패스_1600" data-name="패스 1600" d="M179.813,466.515c-.258-.321-.5-.644-.754-.967C179.31,465.87,179.556,466.194,179.813,466.515Z" transform="translate(-104.653 -340.27)" fill="none" opacity="0.1"/>
        <path id="패스_1601" data-name="패스 1601" d="M166.9,447.792c-.2-.332-.391-.666-.585-1C166.509,447.127,166.7,447.461,166.9,447.792Z" transform="translate(-97.403 -329.601)" fill="none" opacity="0.1"/>
        <path id="패스_1602" data-name="패스 1602" d="M210.337,497.653c-.346-.286-.678-.576-1.017-.865C209.659,497.076,209.992,497.367,210.337,497.653Z" transform="translate(-121.868 -358.042)" fill="none" opacity="0.1"/>
        <path id="패스_1603" data-name="패스 1603" d="M858.126,486.084c-.339.333-.69.663-1.037.994C857.435,486.747,857.787,486.417,858.126,486.084Z" transform="translate(-490.374 -351.952)" fill="none" opacity="0.1"/>
        <path id="패스_1604" data-name="패스 1604" d="M150.907,408.985c-.087-.347-.163-.695-.244-1.042C150.743,408.29,150.819,408.638,150.907,408.985Z" transform="translate(-88.499 -307.499)" fill="none" opacity="0.1"/>
        <path id="패스_1605" data-name="패스 1605" d="M159.365,433.412c-.159-.338-.306-.679-.457-1.018C159.06,432.734,159.207,433.074,159.365,433.412Z" transform="translate(-93.19 -321.409)" fill="none" opacity="0.1"/>
        <path id="패스_1606" data-name="패스 1606" d="M205.362,493.358c-.334-.292-.654-.587-.981-.88C204.708,492.771,205.028,493.066,205.362,493.358Z" transform="translate(-119.058 -355.59)" fill="none" opacity="0.1"/>
        <path id="패스_1607" data-name="패스 1607" d="M857.416,515.367c-.516.35-1.048.694-1.575,1.04C856.368,516.061,856.9,515.717,857.416,515.367Z" transform="translate(-489.664 -368.611)" fill="#fff" opacity="0.1"/>
        <path id="패스_1608" data-name="패스 1608" d="M857.575,511.365c-.476.34-.968.674-1.454,1.011C856.607,512.039,857.1,511.7,857.575,511.365Z" transform="translate(-489.823 -366.334)" fill="#fff" opacity="0.1"/>
        <path id="패스_1609" data-name="패스 1609" d="M857.724,507.3c-.439.33-.893.655-1.342.982C856.83,507.952,857.284,507.627,857.724,507.3Z" transform="translate(-489.972 -364.02)" fill="#fff" opacity="0.1"/>
        <path id="패스_1610" data-name="패스 1610" d="M215.506,501.882c.2.162.4.325.6.486-.205-.161-.4-.325-.6-.487Z" transform="translate(-125.387 -360.939)" fill="#fff" opacity="0.1"/>
        <path id="패스_1611" data-name="패스 1611" d="M857.833,503.17c-.412.326-.838.648-1.258.97C857,503.818,857.422,503.5,857.833,503.17Z" transform="translate(-490.081 -361.672)" fill="#fff" opacity="0.1"/>
        <path id="패스_1612" data-name="패스 1612" d="M857.207,519.307c-.568.366-1.152.726-1.733,1.087C856.055,520.033,856.639,519.673,857.207,519.307Z" transform="translate(-489.456 -370.852)" fill="#fff" opacity="0.1"/>
        <path id="패스_1613" data-name="패스 1613" d="M232.38,514.3c-.372-.25-.729-.5-1.1-.755C231.651,513.8,232.008,514.05,232.38,514.3Z" transform="translate(-134.364 -367.574)" fill="#fff" opacity="0.1"/>
        <path id="패스_1614" data-name="패스 1614" d="M238.447,518.326c-.366-.234-.719-.472-1.08-.707C237.728,517.854,238.081,518.093,238.447,518.326Z" transform="translate(-137.824 -369.892)" fill="#fff" opacity="0.1"/>
        <path id="패스_1615" data-name="패스 1615" d="M855.87,523.177q-1.351.826-2.747,1.637Q854.518,524,855.87,523.177Z" transform="translate(-488.118 -373.054)" fill="#fff" opacity="0.1"/>
        <path id="패스_1616" data-name="패스 1616" d="M244.794,522.326c-.342-.208-.672-.419-1.01-.629C244.122,521.907,244.452,522.119,244.794,522.326Z" transform="translate(-141.474 -372.212)" fill="#fff" opacity="0.1"/>
        <path id="패스_1617" data-name="패스 1617" d="M220.93,506.089c-.363-.271-.713-.546-1.07-.818C220.217,505.543,220.567,505.818,220.93,506.089Z" transform="translate(-127.864 -362.867)" fill="#fff" opacity="0.1"/>
        <path id="패스_1618" data-name="패스 1618" d="M226.553,510.228c-.367-.26-.72-.523-1.081-.785C225.833,509.7,226.186,509.968,226.553,510.228Z" transform="translate(-131.057 -365.241)" fill="#fff" opacity="0.1"/>
        <path id="패스_1619" data-name="패스 1619" d="M176.423,432.634c-.149-.119-.295-.238-.443-.357-.4-.325-.812-.648-1.207-.974-.346-.286-.678-.576-1.017-.865-.384-.326-.773-.65-1.148-.978-.334-.292-.654-.587-.981-.88-.367-.329-.739-.656-1.1-.987-.322-.3-.631-.6-.947-.9-.348-.33-.7-.659-1.042-.991-.311-.3-.61-.612-.914-.917-.33-.331-.665-.661-.987-.995-.3-.308-.582-.619-.873-.929-.314-.334-.634-.667-.94-1-.285-.313-.557-.628-.834-.942-.3-.337-.6-.672-.891-1.011-.272-.317-.53-.636-.795-.954-.281-.339-.568-.676-.842-1.017-.258-.321-.5-.644-.754-.967-.266-.341-.536-.68-.794-1.023-.244-.323-.475-.649-.712-.974-.25-.344-.506-.686-.748-1.031-.23-.327-.448-.657-.671-.985-.235-.345-.474-.69-.7-1.036-.216-.33-.42-.662-.629-.993-.219-.348-.444-.695-.655-1.044-.2-.332-.391-.666-.585-1-.2-.351-.414-.7-.61-1.052-.187-.335-.363-.671-.543-1.007-.189-.352-.383-.7-.564-1.057-.173-.337-.335-.675-.5-1.013-.174-.354-.352-.707-.518-1.062-.159-.338-.306-.679-.457-1.018-.159-.356-.322-.711-.473-1.068-.145-.341-.278-.684-.416-1.026s-.291-.712-.426-1.068-.25-.69-.374-1.034-.26-.713-.38-1.071-.221-.691-.33-1.036-.23-.717-.336-1.077-.192-.692-.286-1.038-.2-.72-.291-1.081-.163-.695-.244-1.042-.169-.722-.245-1.084-.135-.7-.2-1.044-.14-.724-.2-1.086-.106-.7-.157-1.048-.109-.723-.155-1.086-.077-.7-.114-1.05-.079-.725-.11-1.087-.048-.7-.071-1.05-.049-.726-.065-1.089-.019-.7-.028-1.051-.019-.726-.019-1.089c0-.072,0-.144,0-.217l-.3,104.227c-.041,14.36,5.891,28.733,17.781,41.764C137.854,496.548,141.767,460.11,176.423,432.634Z" transform="translate(-86.305 -291.691)" fill="#fff" opacity="0.1"/>
        <path id="패스_1620" data-name="패스 1620" d="M165.509,445.406c-.2-.351-.414-.7-.61-1.052C165.1,444.706,165.3,445.056,165.509,445.406Z" transform="translate(-96.598 -328.213)" fill="#fff" opacity="0.1"/>
        <path id="패스_1621" data-name="패스 1621" d="M168.326,450.154c-.219-.348-.444-.695-.655-1.044C167.883,449.459,168.107,449.806,168.326,450.154Z" transform="translate(-98.175 -330.918)" fill="#fff" opacity="0.1"/>
        <path id="패스_1622" data-name="패스 1622" d="M162.9,440.626c-.189-.352-.383-.7-.564-1.057C162.513,439.922,162.707,440.273,162.9,440.626Z" transform="translate(-95.137 -325.491)" fill="#fff" opacity="0.1"/>
        <path id="패스_1623" data-name="패스 1623" d="M181.651,468.807c-.282-.339-.568-.676-.842-1.017C181.083,468.13,181.369,468.468,181.651,468.807Z" transform="translate(-105.649 -341.545)" fill="#fff" opacity="0.1"/>
        <path id="패스_1624" data-name="패스 1624" d="M198.264,486.8c-.348-.33-.7-.659-1.042-.991C197.562,486.138,197.916,486.467,198.264,486.8Z" transform="translate(-114.986 -351.794)" fill="#fff" opacity="0.1"/>
        <path id="패스_1625" data-name="패스 1625" d="M202.933,491.175c-.367-.329-.739-.656-1.1-.987C202.194,490.519,202.566,490.846,202.933,491.175Z" transform="translate(-117.61 -354.287)" fill="#fff" opacity="0.1"/>
        <path id="패스_1626" data-name="패스 1626" d="M212.887,499.768c-.4-.325-.812-.648-1.207-.974C212.075,499.121,212.484,499.444,212.887,499.768Z" transform="translate(-123.211 -359.183)" fill="#fff" opacity="0.1"/>
        <path id="패스_1627" data-name="패스 1627" d="M207.8,495.5c-.384-.326-.773-.65-1.148-.978C207.031,494.847,207.421,495.171,207.8,495.5Z" transform="translate(-120.353 -356.751)" fill="#fff" opacity="0.1"/>
        <path id="패스_1628" data-name="패스 1628" d="M454.037,265.155c.45-23.182-14.651-46.471-45.289-64.16-60.132-34.717-157.3-34.717-217.045,0-29.775,17.3-44.628,39.964-44.6,62.642,0-.072,0-.144,0-.217l-.3,104.227c-.041,14.36,5.891,28.733,17.781,41.764-26.733-29.6-22.82-66.037,11.836-93.512-.149-.119-.295-.238-.443-.357l.443.357A128.45,128.45,0,0,1,191.7,305.553c59.741-34.718,156.913-34.718,217.045,0a129.559,129.559,0,0,1,15.985,10.821c.319-.253.628-.51.942-.764-.314.255-.621.511-.941.765,17.658,14.069,27.342,30.444,29.042,47.033l.281-99.111C454.056,264.583,454.042,264.869,454.037,265.155Z" transform="translate(-86.305 -174.957)" fill="#90d5fd" opacity="0.5"/>
        <path id="패스_1629" data-name="패스 1629" d="M171.35,454.871c-.235-.345-.474-.69-.7-1.036C170.876,454.182,171.115,454.526,171.35,454.871Z" transform="translate(-99.869 -333.606)" fill="#fff" opacity="0.1"/>
        <path id="패스_1630" data-name="패스 1630" d="M189.546,477.893c-.314-.334-.634-.667-.94-1C188.912,477.226,189.232,477.559,189.546,477.893Z" transform="translate(-110.084 -346.722)" fill="#fff" opacity="0.1"/>
        <path id="패스_1631" data-name="패스 1631" d="M178.011,464.2c-.266-.341-.536-.68-.794-1.023C177.475,463.518,177.746,463.858,178.011,464.2Z" transform="translate(-103.605 -338.92)" fill="#fff" opacity="0.1"/>
        <path id="패스_1632" data-name="패스 1632" d="M174.579,459.555c-.25-.344-.506-.686-.748-1.031C174.073,458.869,174.329,459.212,174.579,459.555Z" transform="translate(-101.679 -336.274)" fill="#fff" opacity="0.1"/>
        <path id="패스_1633" data-name="패스 1633" d="M185.5,473.372c-.3-.337-.6-.672-.891-1.011C184.895,472.7,185.2,473.035,185.5,473.372Z" transform="translate(-107.808 -344.145)" fill="#fff" opacity="0.1"/>
        <path id="패스_1634" data-name="패스 1634" d="M147.519,381.747c-.008-.363-.019-.726-.019-1.089C147.5,381.021,147.512,381.384,147.519,381.747Z" transform="translate(-86.7 -291.977)" fill="#fff"/>
        <path id="패스_1635" data-name="패스 1635" d="M858.317,483.991c-.3.3-.588.6-.892.9C857.729,484.594,858.02,484.292,858.317,483.991Z" transform="translate(-490.565 -350.762)" fill="#fff" opacity="0.1"/>
        <path id="패스_1636" data-name="패스 1636" d="M857.509,480.471c.292-.3.571-.611.856-.917C858.08,479.86,857.8,480.167,857.509,480.471Z" transform="translate(-490.613 -348.237)" fill="#fff" opacity="0.1"/>
        <path id="패스_1637" data-name="패스 1637" d="M149.366,401.575c-.068-.362-.14-.724-.2-1.086C149.226,400.851,149.3,401.213,149.366,401.575Z" transform="translate(-87.647 -303.259)" fill="#fff" opacity="0.1"/>
        <path id="패스_1638" data-name="패스 1638" d="M148.6,396.625c-.053-.362-.109-.723-.155-1.086C148.487,395.9,148.544,396.264,148.6,396.625Z" transform="translate(-87.236 -300.443)" fill="#fff"/>
        <path id="패스_1639" data-name="패스 1639" d="M158.284,430.985c-.159-.356-.322-.711-.473-1.068C157.962,430.273,158.125,430.629,158.284,430.985Z" transform="translate(-92.565 -320)" fill="#fff" opacity="0.1"/>
        <path id="패스_1640" data-name="패스 1640" d="M148.033,391.67c-.038-.362-.079-.725-.11-1.087C147.954,390.945,147.995,391.308,148.033,391.67Z" transform="translate(-86.94 -297.623)" fill="#fff"/>
        <path id="패스_1641" data-name="패스 1641" d="M151.519,411.441c-.1-.36-.2-.72-.291-1.081C151.319,410.721,151.42,411.08,151.519,411.441Z" transform="translate(-88.821 -308.874)" fill="#fff" opacity="0.1"/>
        <path id="패스_1642" data-name="패스 1642" d="M147.674,386.71c-.023-.363-.049-.726-.065-1.089C147.625,385.985,147.65,386.348,147.674,386.71Z" transform="translate(-86.762 -294.801)" fill="#fff"/>
        <path id="패스_1643" data-name="패스 1643" d="M154.49,421.247c-.128-.357-.26-.714-.38-1.071C154.23,420.533,154.362,420.89,154.49,421.247Z" transform="translate(-90.46 -314.458)" fill="#fff" opacity="0.1"/>
        <path id="패스_1644" data-name="패스 1644" d="M156.285,426.127c-.143-.356-.291-.712-.426-1.068C155.994,425.415,156.142,425.771,156.285,426.127Z" transform="translate(-91.455 -317.236)" fill="#fff" opacity="0.1"/>
        <path id="패스_1645" data-name="패스 1645" d="M150.339,406.513c-.083-.361-.169-.722-.245-1.084C150.17,405.791,150.256,406.152,150.339,406.513Z" transform="translate(-88.175 -306.069)" fill="#fff" opacity="0.1"/>
        <path id="패스_1646" data-name="패스 1646" d="M152.9,416.352c-.113-.359-.23-.717-.336-1.077C152.672,415.635,152.788,415.993,152.9,416.352Z" transform="translate(-89.582 -311.67)" fill="#fff" opacity="0.1"/>
        <path id="패스_1647" data-name="패스 1647" d="M857.352,489.271c.314-.292.616-.588.924-.882C857.968,488.683,857.666,488.979,857.352,489.271Z" transform="translate(-490.523 -353.264)" fill="#fff" opacity="0.1"/>
        <path id="패스_1648" data-name="패스 1648" d="M160.487,435.818c-.174-.354-.352-.707-.518-1.062C160.135,435.111,160.313,435.464,160.487,435.818Z" transform="translate(-93.793 -322.753)" fill="#fff" opacity="0.1"/>
        <path id="패스_1649" data-name="패스 1649" d="M857.255,493.586c.329-.289.644-.582.965-.872C857.9,493,857.583,493.3,857.255,493.586Z" transform="translate(-490.468 -355.724)" fill="#fff" opacity="0.1"/>
        <path id="패스_1650" data-name="패스 1650" d="M857.154,497.842c.343-.286.673-.576,1.009-.864C857.827,497.267,857.5,497.557,857.154,497.842Z" transform="translate(-490.411 -358.15)" fill="#fff" opacity="0.1"/>
        <path id="패스_1651" data-name="패스 1651" d="M857.31,501.974h0c.319-.254.627-.51.941-.765C857.938,501.465,857.629,501.721,857.31,501.974Z" transform="translate(-490.5 -360.557)" fill="#fff" opacity="0.1"/>
        <path id="패스_1652" data-name="패스 1652" d="M858.1,509.575c-.353.257-.7.516-1.056.772C857.4,510.091,857.747,509.832,858.1,509.575Z" transform="translate(-490.348 -365.316)" fill="#fff" opacity="0.1"/>
        <path id="패스_1653" data-name="패스 1653" d="M858.135,513.71c-.344.237-.68.478-1.029.714C857.455,514.188,857.791,513.947,858.135,513.71Z" transform="translate(-490.383 -367.668)" fill="#fff" opacity="0.1"/>
        <path id="패스_1654" data-name="패스 1654" d="M223.691,508.149c-.451-.326-.907-.651-1.349-.98C222.784,507.5,223.24,507.823,223.691,508.149Z" transform="translate(-129.276 -363.947)" fill="#fff" opacity="0.1"/>
        <path id="패스_1655" data-name="패스 1655" d="M218.181,503.985c-.425-.325-.856-.647-1.272-.974C217.325,503.338,217.756,503.661,218.181,503.985Z" transform="translate(-126.185 -361.582)" fill="#fff" opacity="0.1"/>
        <path id="패스_1656" data-name="패스 1656" d="M858.27,521.828c-.311.194-.613.39-.928.582C857.656,522.218,857.959,522.021,858.27,521.828Z" transform="translate(-490.518 -372.286)" fill="#fff" opacity="0.1"/>
        <path id="패스_1657" data-name="패스 1657" d="M241.559,520.311c-.565-.35-1.133-.7-1.687-1.051C240.425,519.614,240.994,519.961,241.559,520.311Z" transform="translate(-139.249 -370.826)" fill="#fff" opacity="0.1"/>
        <path id="패스_1658" data-name="패스 1658" d="M215.575,740.325a114.438,114.438,0,0,1-27.524-21.534,114,114,0,0,0,27.819,21.864q4.957,2.862,10.242,5.4v-.187Q220.683,743.26,215.575,740.325Z" transform="translate(-109.769 -484.335)" fill="#fff" opacity="0.1"/>
      </g>
      <path id="패스_1660" data-name="패스 1660" d="M785.806,380.155c0,.286-.014.573-.02.858-.007.349-.01.7-.024,1.047s-.039.72-.061,1.079-.039.7-.067,1.045-.069.721-.105,1.082-.067.695-.109,1.042-.1.72-.15,1.08-.1.692-.152,1.039-.128.721-.2,1.082c-.063.344-.123.689-.194,1.034s-.158.719-.24,1.078-.152.689-.237,1.033-.188.717-.285,1.076c-.092.343-.18.686-.279,1.029s-.218.714-.329,1.07-.209.685-.322,1.028-.248.712-.374,1.067c-.121.341-.237.682-.365,1.022-.133.356-.278.71-.419,1.064-.135.339-.265.679-.407,1.017-.148.354-.308.707-.464,1.06-.149.337-.293.675-.449,1.011-.164.354-.339.7-.511,1.057-.162.335-.32.669-.49,1-.179.351-.369.7-.556,1.051-.177.332-.349.666-.532,1-.194.35-.4.7-.6,1.047-.191.329-.376.66-.573.988-.21.349-.431.7-.648,1.043-.2.327-.4.654-.614.979-.225.347-.462.691-.694,1.036-.218.324-.431.648-.655.971-.241.345-.494.688-.742,1.032-.231.32-.457.641-.695.959-.257.345-.527.687-.792,1.03-.243.315-.482.631-.732.945-.272.342-.558.681-.838,1.021-.258.313-.51.626-.774.937-.287.337-.586.672-.881,1.007-.272.31-.539.622-.818.931-.3.335-.619.667-.93,1-.285.306-.564.613-.856.917-.32.334-.653.664-.981,1-.3.3-.589.6-.892.9-.339.333-.691.663-1.037.994-.308.294-.609.59-.923.882-.354.329-.722.655-1.084.982-.322.291-.637.583-.966.873-.368.324-.75.645-1.127.967-.336.288-.666.578-1.009.864-.386.322-.787.641-1.181.96-.314.255-.621.511-.941.765l-.1.08c-.412.326-.838.648-1.258.97-.351.269-.694.541-1.051.809-.439.33-.893.655-1.342.982-.353.257-.7.516-1.056.772-.477.34-.968.674-1.455,1.011-.344.238-.681.478-1.03.714-.516.35-1.048.694-1.575,1.04-.334.219-.66.441-1,.659-.568.366-1.152.726-1.733,1.087-.311.194-.614.39-.928.582q-1.352.826-2.747,1.637-5.423,3.152-11.245,5.92V553.053q5.81-2.77,11.245-5.92c32.063-18.632,46.815-43.478,44.317-67.867Z" transform="translate(-418.054 -291.691)" fill="#90d5fd" opacity="0.5"/>
      <path id="패스_1661" data-name="패스 1661" d="M192.406,443.453q-1.413-.816-2.782-1.648c-.342-.208-.672-.419-1.01-.629-.565-.35-1.133-.7-1.687-1.051-.366-.234-.719-.472-1.08-.707-.51-.333-1.027-.665-1.527-1-.372-.25-.729-.5-1.1-.755-.476-.328-.958-.653-1.425-.983-.367-.26-.72-.523-1.081-.785-.451-.327-.908-.651-1.349-.981-.363-.271-.713-.546-1.07-.818-.425-.324-.856-.647-1.272-.974-.205-.161-.4-.325-.6-.486-.149-.119-.295-.238-.443-.357-.4-.325-.812-.648-1.207-.974-.346-.286-.678-.576-1.017-.865-.384-.326-.773-.65-1.148-.978-.334-.292-.654-.587-.981-.88-.367-.329-.739-.657-1.1-.987-.322-.3-.631-.6-.947-.9-.348-.33-.7-.659-1.042-.991-.311-.3-.61-.612-.914-.917-.33-.332-.665-.661-.987-.995-.3-.308-.582-.619-.873-.929-.314-.334-.634-.667-.94-1-.285-.313-.557-.628-.834-.942-.3-.337-.6-.672-.891-1.011-.272-.317-.53-.636-.795-.954-.281-.339-.568-.676-.842-1.017-.258-.321-.5-.644-.754-.967-.266-.341-.536-.68-.794-1.023-.244-.323-.475-.65-.712-.974-.25-.344-.506-.686-.748-1.031-.23-.327-.448-.657-.671-.985-.235-.345-.474-.69-.7-1.036-.216-.33-.419-.662-.629-.993-.219-.348-.444-.695-.655-1.044-.2-.332-.391-.666-.585-1-.2-.351-.414-.7-.61-1.052-.187-.335-.363-.671-.543-1.007-.189-.352-.383-.7-.564-1.057-.173-.337-.335-.675-.5-1.013-.174-.353-.352-.707-.518-1.062-.159-.338-.306-.679-.457-1.018-.159-.356-.322-.711-.473-1.068-.145-.341-.278-.684-.416-1.026s-.291-.712-.426-1.068-.25-.689-.374-1.035-.26-.713-.38-1.07-.221-.691-.33-1.036-.23-.717-.336-1.077-.192-.692-.286-1.038-.2-.72-.291-1.081-.163-.695-.244-1.042-.169-.722-.245-1.084-.135-.7-.2-1.044-.14-.724-.2-1.086-.106-.7-.157-1.048-.109-.723-.155-1.086-.077-.7-.114-1.05-.079-.724-.11-1.087-.048-.7-.071-1.05-.049-.726-.065-1.089-.019-.7-.028-1.051-.019-.726-.019-1.089c0-.072,0-.144,0-.217l-.3,104.227c-.039,13.765,5.426,27.539,16.35,40.135q-1.1-1.281-2.127-2.577,1.025,1.3,2.128,2.578h0c.468.545.942,1.088,1.431,1.629a114.434,114.434,0,0,0,27.524,21.534q5.1,2.942,10.537,5.545V448.855Q197.375,446.308,192.406,443.453ZM152.782,508.88q1.072,2.222,2.345,4.417Q153.854,511.1,152.782,508.88Z" transform="translate(-86.305 -291.691)" fill="#90d5fd" opacity="0.5"/>
      <path id="패스_1662" data-name="패스 1662" d="M164.139,380s7.131-17.482,18.848-23.009v38.191s-14.661,10.516-18.947,27.774Z" transform="translate(-96.109 -278.512)" fill="none" stroke="#fff" stroke-linecap="round" stroke-linejoin="round" stroke-width="1" stroke-dasharray="4"/>
      <path id="패스_1663" data-name="패스 1663" d="M184.612,416.524a15.6,15.6,0,0,0-4.678,5.774" transform="translate(-105.151 -312.381)" fill="none" stroke="#fff" stroke-linecap="round" stroke-linejoin="round" stroke-width="1"/>
      <line id="선_23" data-name="선 23" y2="10.508" transform="translate(76.797 102.026)" fill="none" stroke="#fff" stroke-linecap="round" stroke-linejoin="round" stroke-width="1"/>
      <path id="패스_1664" data-name="패스 1664" d="M775.333,415.438v16.194a40.068,40.068,0,0,1,12.933,10.911V426.315S781.8,418.842,775.333,415.438Z" transform="translate(-443.864 -311.763)" fill="#fff" opacity="0.4"/>
      <path id="패스_1665" data-name="패스 1665" d="M800.628,452.556V468.75a40.061,40.061,0,0,1,12.933,10.911V463.433S807.095,455.96,800.628,452.556Z" transform="translate(-458.254 -332.879)" fill="#fff" opacity="0.4"/>
    </g>
    <path id="패스_1666" data-name="패스 1666" d="M310.827,231.988V299.11s57.624-22.582,132.518-7.2v-68.9S369.487,206.7,310.827,231.988Z" transform="translate(-173.144 -24.391)" fill="#fff" opacity="0.5"/>
    <g id="그룹_1446" data-name="그룹 1446" transform="translate(149.543 209.062)">
      <path id="패스_1667" data-name="패스 1667" d="M338.337,311.9v27.779q2.411-.686,5.33-1.436V310.467C341.722,310.964,339.945,311.446,338.337,311.9Z" transform="translate(-338.337 -286.152)" fill="#68c2ac"/>
      <path id="패스_1668" data-name="패스 1668" d="M362.337,278.1v39.851q2.53-.584,5.33-1.166V276.936Q364.867,277.515,362.337,278.1Z" transform="translate(-351.99 -267.077)" fill="#68c2ac"/>
      <path id="패스_1669" data-name="패스 1669" d="M386.337,286.43v34.246q2.575-.478,5.33-.93V285.5Q388.912,285.951,386.337,286.43Z" transform="translate(-365.643 -271.949)" fill="#68c2ac"/>
      <path id="패스_1670" data-name="패스 1670" d="M410.337,254.777V301.1q2.6-.373,5.33-.71V254.067Q412.935,254.4,410.337,254.777Z" transform="translate(-379.297 -254.067)" fill="#68c2ac"/>
      <path id="패스_1671" data-name="패스 1671" d="M434.337,267.093v39.851q2.613-.271,5.33-.5V266.594Q436.95,266.821,434.337,267.093Z" transform="translate(-392.95 -261.193)" fill="#68c2ac"/>
      <path id="패스_1672" data-name="패스 1672" d="M458.337,291.355V320q2.623-.17,5.33-.29V291.064Q460.96,291.185,458.337,291.355Z" transform="translate(-406.603 -275.114)" fill="#68c2ac"/>
      <path id="패스_1673" data-name="패스 1673" d="M482.337,298.541v25.192q2.631-.069,5.33-.086V298.455Q484.967,298.471,482.337,298.541Z" transform="translate(-420.256 -279.319)" fill="#68c2ac"/>
      <path id="패스_1674" data-name="패스 1674" d="M506.337,281.491v32.522q2.635.034,5.33.123V281.614Q508.974,281.527,506.337,281.491Z" transform="translate(-433.91 -269.668)" fill="#68c2ac"/>
      <path id="패스_1675" data-name="패스 1675" d="M530.337,265.263v39.851q2.641.137,5.33.327V265.59Q532.976,265.4,530.337,265.263Z" transform="translate(-447.563 -260.436)" fill="#68c2ac"/>
      <path id="패스_1676" data-name="패스 1676" d="M554.337,305.978v23.036q2.645.241,5.33.535V306.513Q556.979,306.214,554.337,305.978Z" transform="translate(-461.216 -283.598)" fill="#68c2ac"/>
      <path id="패스_1677" data-name="패스 1677" d="M578.337,337.933q2.648.347,5.33.751V320.39q-2.684-.407-5.33-.751Z" transform="translate(-474.869 -291.37)" fill="#68c2ac"/>
    </g>
    <path id="패스_1678" data-name="패스 1678" d="M644.488,237v29.737s30.836,5.6,46.569,21.991V260.308S680.06,244.474,644.488,237Z" transform="translate(-362.958 -35.296)" fill="#90d5fd" opacity="0.5"/>
    <path id="패스_1679" data-name="패스 1679" d="M644.488,319.352v33.207s25.082,5.648,46.569,20.7v-30.6S680.06,326.824,644.488,319.352Z" transform="translate(-362.958 -82.144)" fill="#90d5fd" opacity="0.5"/>
    <path id="패스_1680" data-name="패스 1680" d="M652.667,277.087,656.978,262l1.437,7.543,4.024-5.563,1.437,13.106,6.61-7.543,3.449,7.543,4.024-4.955,2.766,2.371,3.233-2.694,2.032,17.911,3.177-5.564,1.437,2.694,3.829-5.89" transform="translate(-367.611 -49.518)" fill="none" stroke="#8a99d4" stroke-miterlimit="10" stroke-width="1"/>
    <path id="패스_1681" data-name="패스 1681" d="M652.667,357.521l2.3,5.642,5.173-7.415,4.024,4.206,2.587-1.564v4.148l4.311-2.584,2.489,5.541,2.4-2.331,2.3,3.835,2.3-2.861,2.587,4.763,2.858-7.533,1.453,7.533,2.587-5.737,2.012,15.108" transform="translate(-367.611 -102.849)" fill="none" stroke="#8a99d4" stroke-miterlimit="10" stroke-width="1"/>
    <path id="패스_1682" data-name="패스 1682" d="M749.548,618.384s4.218-57.577,21.463-43.159c0,0,7.76,6.407,7.473-6.976,0,0,1.724-40.19,8.622-33.109s6.036,31.359,6.036,31.359" transform="translate(-422.725 -204.426)" fill="none" stroke="#fff" stroke-miterlimit="10" stroke-width="1"/>
    <path id="패스_1683" data-name="패스 1683" d="M752.507,615.984s7.254,19.814,13.577,12.629c0,0,4.024-12.7,8.622-34.228,0,0,3.736-20.632,13.508,3.349,0,0,3.155,6.12,6.645,2.852" transform="translate(-424.409 -233.912)" fill="none" stroke="#8a99d4" stroke-miterlimit="10" stroke-width="1"/>
    <path id="패스_1684" data-name="패스 1684" d="M652.667,379.3l3.161-1.293,2.8,2.587,3.449-1.293,3.88,4.939,5.389-3.116,1.077,3.807,2.156-.814,1.509,5.642,1.724-4.572,3.664,3.947,4.511-2.584,3.249,2.584,3.664,4.46" transform="translate(-367.611 -115.514)" fill="none" stroke="#fff" stroke-miterlimit="10" stroke-width="1"/>
    <path id="패스_1685" data-name="패스 1685" d="M652.667,272.294l3.377,9.913,2.156-4.957,2.8,2.4,4.958-5.632,3.449,6.962L675.659,271l3.88,3.449,4.958-.431,3.664,10.347,4.742-1.529" transform="translate(-367.611 -54.638)" fill="none" stroke="#fff" stroke-miterlimit="10" stroke-width="1"/>
    <g id="그룹_1447" data-name="그룹 1447" transform="translate(93.439 324.859)">
      <path id="패스_1686" data-name="패스 1686" d="M229.2,537.142a165.825,165.825,0,0,1-21-14.478v4.5a171.384,171.384,0,0,0,21,14.02Z" transform="translate(-208.201 -522.664)" fill="#fff"/>
      <path id="패스_1687" data-name="패스 1687" d="M229.2,557.869a165.824,165.824,0,0,1-21-14.507v4.508a171.43,171.43,0,0,0,21,14.045Z" transform="translate(-208.201 -534.439)" fill="#fff"/>
      <path id="패스_1688" data-name="패스 1688" d="M229.2,578.6a165.805,165.805,0,0,1-21-14.536v4.513a171.5,171.5,0,0,0,21,14.07Z" transform="translate(-208.201 -546.213)" fill="#fff"/>
      <path id="패스_1689" data-name="패스 1689" d="M229.2,599.322a165.735,165.735,0,0,1-21-14.566v4.514a171.578,171.578,0,0,0,21,14.1Z" transform="translate(-208.201 -557.987)" fill="#fff"/>
      <path id="패스_1690" data-name="패스 1690" d="M208.205,605.457l0,0v4.514a171.616,171.616,0,0,0,21,14.126v-4.046A165.7,165.7,0,0,1,208.205,605.457Z" transform="translate(-208.201 -569.762)" fill="#fff"/>
    </g>
    <g id="그룹_1448" data-name="그룹 1448" transform="translate(72.336 333.401)">
      <path id="패스_1691" data-name="패스 1691" d="M171.822,557.381c-6.769-3.943-6.484-9.967-12.572-14.9v4.143c6.115,4.764,5.819,10.664,12.572,14.481Z" transform="translate(-159.25 -542.478)" fill="#fff"/>
      <path id="패스_1692" data-name="패스 1692" d="M171.822,576.445c-6.769-3.951-6.484-9.984-12.572-14.93v4.146c6.114,4.773,5.819,10.679,12.572,14.5Z" transform="translate(-159.25 -553.308)" fill="#fff"/>
      <path id="패스_1693" data-name="패스 1693" d="M171.822,595.507c-6.77-3.959-6.485-10-12.572-14.956v4.15c6.113,4.781,5.819,10.693,12.572,14.527Z" transform="translate(-159.25 -564.137)" fill="#fff"/>
      <path id="패스_1694" data-name="패스 1694" d="M171.822,614.571c-6.771-3.968-6.486-10.019-12.572-14.983v4.152c6.112,4.79,5.818,10.71,12.572,14.552Z" transform="translate(-159.25 -574.967)" fill="#fff"/>
      <path id="패스_1695" data-name="패스 1695" d="M159.254,618.628l0,0v4.151c6.112,4.8,5.817,10.729,12.572,14.579v-3.721C165.052,629.659,165.337,623.6,159.254,618.628Z" transform="translate(-159.25 -585.797)" fill="#fff"/>
    </g>
    <g id="그룹_1449" data-name="그룹 1449" transform="translate(101.898 223.751)">
      <path id="패스_1696" data-name="패스 1696" d="M244.929,288.138l11.446,17-9.107,5.073Z" transform="translate(-237.554 -288.138)" fill="none" stroke="#fff" stroke-linecap="round" stroke-linejoin="round" stroke-width="1"/>
      <path id="패스_1697" data-name="패스 1697" d="M246.643,323.489l-9.107,5.073-9.715-.489,8.849-7.677Z" transform="translate(-227.822 -306.489)" fill="none" stroke="#fff" stroke-linecap="round" stroke-linejoin="round" stroke-width="1"/>
      <path id="패스_1698" data-name="패스 1698" d="M227.822,309.722l7.375-21.584,2.339,22.073Z" transform="translate(-227.822 -288.138)" fill="none" stroke="#fff" stroke-linecap="round" stroke-linejoin="round" stroke-width="1"/>
      <path id="패스_1699" data-name="패스 1699" d="M227.881,342.27l10.665.519.752,14.59Z" transform="translate(-227.855 -318.933)" fill="none" stroke="#fff" stroke-linecap="round" stroke-linejoin="round" stroke-width="1"/>
      <path id="패스_1700" data-name="패스 1700" d="M252.62,336.731l8.156-5.11-7.4,19.7Z" transform="translate(-241.929 -312.874)" fill="none" stroke="#fff" stroke-linecap="round" stroke-linejoin="round" stroke-width="1"/>
    </g>
    <path id="패스_1701" data-name="패스 1701" d="M248.41,428.266a16.729,16.729,0,0,1,5.663-2.887" transform="translate(-137.636 -142.461)" fill="none" stroke="#fff" stroke-linecap="round" stroke-linejoin="round" stroke-width="1"/>
    <line id="선_24" data-name="선 24" y2="6.281" transform="translate(113.605 281.221)" fill="none" stroke="#fff" stroke-linecap="round" stroke-linejoin="round" stroke-width="1"/>
    <path id="패스_1702" data-name="패스 1702" d="M778,327.208V333s10.455,8.671,12.933,14.123v-7.153S784.467,331.457,778,327.208Z" transform="translate(-438.911 -86.613)" fill="none" stroke="#fff" stroke-linecap="round" stroke-linejoin="round" stroke-width="1"/>
    <path id="패스_1703" data-name="패스 1703" d="M785.628,364.652V377.2s12.071,10.5,12.933,14.554V377.843A113.373,113.373,0,0,0,785.628,364.652Z" transform="translate(-443.251 -107.915)" fill="none" stroke="#fff" stroke-linecap="round" stroke-linejoin="round" stroke-width="1"/>
    <path id="패스_1704" data-name="패스 1704" d="M778,303.614v5.79s12.071,10.067,12.933,14.123v-7.153S784.467,307.863,778,303.614Z" transform="translate(-438.911 -73.191)" fill="none" stroke="#fff" stroke-linecap="round" stroke-linejoin="round" stroke-width="1"/>
  </g>
</svg>
