<svg xmlns="http://www.w3.org/2000/svg" xmlns:xlink="http://www.w3.org/1999/xlink" width="322.5" height="313.413" viewBox="0 0 322.5 313.413">
  <defs>
    <linearGradient id="linear-gradient" x1="0.953" y1="0.713" x2="0.091" y2="0.234" gradientUnits="objectBoundingBox">
      <stop offset="0" stop-color="#c7d0da"/>
      <stop offset="1" stop-color="#b5c1ce"/>
    </linearGradient>
  </defs>
  <g id="tech_img_03" data-name="tech img 03" transform="translate(-106.653 -114.641)">
    <g id="그룹_1464" data-name="그룹 1464" transform="translate(146.67 114.641)">
      <g id="그룹_1454" data-name="그룹 1454" transform="translate(42.742 97.693)">
        <g id="그룹_1453" data-name="그룹 1453" style="isolation: isolate">
          <path id="패스_1705" data-name="패스 1705" d="M373.66,411.944,350.034,398.3a4,4,0,0,1-.921-.747,5.584,5.584,0,0,1-1.019-1.574,4.328,4.328,0,0,1-.385-1.694,2.487,2.487,0,0,1,.084-.661l8.115-29.474-29.134,16.93-8.115,29.474a2.49,2.49,0,0,0-.084.661,4.334,4.334,0,0,0,.385,1.694,5.582,5.582,0,0,0,1.019,1.574,3.993,3.993,0,0,0,.921.747l23.625,13.64a2.632,2.632,0,0,1,1.193,2.07.841.841,0,0,1-.35.77l29.133-16.93a.84.84,0,0,0,.35-.771A2.631,2.631,0,0,0,373.66,411.944Z" transform="translate(-316.177 -361.583)" fill="url(#linear-gradient)"/>
          <g id="그룹_1450" data-name="그룹 1450" transform="translate(8.592)">
            <path id="패스_1706" data-name="패스 1706" d="M333.987,374.769l29.134-16.93a.85.85,0,0,1,.853.082l-29.133,16.93A.852.852,0,0,0,333.987,374.769Z" transform="translate(-333.987 -357.758)" fill="#fff"/>
          </g>
          <g id="그룹_1451" data-name="그룹 1451" transform="translate(9.445 0.163)">
            <path id="패스_1707" data-name="패스 1707" d="M336.11,375.094l29.133-16.93a1.941,1.941,0,0,1,.313.229,2.457,2.457,0,0,1,.84,2.178L337.263,377.5a2.457,2.457,0,0,0-.84-2.178A1.942,1.942,0,0,0,336.11,375.094Z" transform="translate(-336.11 -358.164)" fill="#fff"/>
          </g>
          <g id="그룹_1452" data-name="그룹 1452" transform="translate(0 16.93)">
            <path id="패스_1708" data-name="패스 1708" d="M322.051,400.054a1.942,1.942,0,0,1,.313.229,2.457,2.457,0,0,1,.84,2.178l-8.115,29.474a2.489,2.489,0,0,0-.084.661,4.335,4.335,0,0,0,.385,1.694,5.582,5.582,0,0,0,1.019,1.574,3.993,3.993,0,0,0,.921.747l23.625,13.64a2.632,2.632,0,0,1,1.193,2.07c0,.761-.539,1.069-1.2.687l-23.625-13.64a8.244,8.244,0,0,1-1.87-1.519,11.09,11.09,0,0,1-1.5-2.053,9.582,9.582,0,0,1-1.347-4.586,5.015,5.015,0,0,1,.17-1.33l8.115-29.474C321.036,399.875,321.521,399.749,322.051,400.054Z" transform="translate(-312.606 -399.891)" fill="#a2b1c2"/>
          </g>
        </g>
      </g>
      <g id="그룹_1463" data-name="그룹 1463" transform="translate(0 0)" style="isolation: isolate">
        <g id="그룹_1455" data-name="그룹 1455" transform="translate(114.918 3.821)">
          <path id="패스_1709" data-name="패스 1709" d="M494.78,205.745l-2.34-1.36-.217-80.235,2.34,1.36Z" transform="translate(-492.223 -124.15)" fill="#333"/>
        </g>
        <g id="그룹_1456" data-name="그룹 1456" transform="translate(3.169 84.057)">
          <path id="패스_1710" data-name="패스 1710" d="M216.464,389.827l-2.34-1.36,111.967-64.644,2.34,1.36Z" transform="translate(-214.125 -323.823)" fill="#333"/>
        </g>
        <g id="그룹_1457" data-name="그룹 1457" transform="translate(0.228 85.668)">
          <path id="패스_1711" data-name="패스 1711" d="M209.145,397.179l-2.34-1.36,117.753-67.985,2.34,1.36Z" transform="translate(-206.805 -327.834)" fill="#f2f2f2"/>
        </g>
        <g id="그룹_1458" data-name="그룹 1458" transform="translate(2.952 3.821)">
          <path id="패스_1712" data-name="패스 1712" d="M215.924,190.154l-2.34-1.36L325.551,124.15l2.34,1.36Z" transform="translate(-213.584 -124.15)" fill="#4d4d4d"/>
        </g>
        <g id="그룹_1459" data-name="그룹 1459" transform="translate(2.952 68.465)">
          <path id="패스_1713" data-name="패스 1713" d="M216.141,366.618l-2.34-1.36-.217-80.236,2.34,1.36Z" transform="translate(-213.584 -285.022)" fill="#4d4d4d"/>
        </g>
        <g id="그룹_1460" data-name="그룹 1460" transform="translate(2.339 71.056)">
          <path id="패스_1714" data-name="패스 1714" d="M212.061,291.469l.228,83.957,117.753-67.985.029,10.215a5.3,5.3,0,0,1-2.406,4.168l-112.925,65.2c-1.333.77-2.418.152-2.422-1.38Z" transform="translate(-212.061 -291.469)" fill="#b5c1ce"/>
        </g>
        <path id="패스_1715" data-name="패스 1715" d="M323.288,114.8a1.7,1.7,0,0,0-1.718.168l-112.925,65.2a5.3,5.3,0,0,0-2.406,4.168l.256,94.172a1.69,1.69,0,0,0,.7,1.548l2.34,1.36a1.69,1.69,0,0,1-.7-1.549l-.257-94.172a5.3,5.3,0,0,1,2.406-4.168l112.925-65.2a1.7,1.7,0,0,1,1.717-.168Z" transform="translate(-206.239 -114.641)" fill="#a2b1c2"/>
        <g id="그룹_1461" data-name="그룹 1461" transform="translate(2.339 1.36)">
          <path id="패스_1716" data-name="패스 1716" d="M327.392,118.356c1.333-.77,2.417-.152,2.422,1.38l.227,83.957L212.289,271.678l-.228-83.957a5.3,5.3,0,0,1,2.406-4.168Zm-.2,83.725-.217-80.235L215.013,186.49l.217,80.235L327.2,202.081" transform="translate(-212.061 -118.025)"/>
        </g>
        <g id="그룹_1462" data-name="그룹 1462" transform="translate(5.291 5.181)">
          <path id="패스_1717" data-name="패스 1717" d="M331.374,127.534l.217,80.236L219.624,272.413l-.217-80.236Z" transform="translate(-219.407 -127.534)" fill="#82a6f4"/>
        </g>
      </g>
    </g>
    <g id="그룹_1498" data-name="그룹 1498" transform="translate(161.72 172.825)">
      <g id="그룹_1475" data-name="그룹 1475" transform="translate(0 35.693)">
        <g id="그룹_1468" data-name="그룹 1468" style="isolation: isolate">
          <g id="그룹_1465" data-name="그룹 1465" transform="translate(26.831 15.593)">
            <path id="패스_1718" data-name="패스 1718" d="M345.841,387.065l.047,16.448L310.51,423.938l-.047-16.448Z" transform="translate(-310.464 -387.065)" fill="#cee2ff"/>
          </g>
          <g id="그룹_1466" data-name="그룹 1466" transform="translate(0 20.425)">
            <path id="패스_1719" data-name="패스 1719" d="M270.57,431.132l-26.831-15.593-.047-16.448,26.831,15.593Z" transform="translate(-243.692 -399.092)" fill="#b4d4fc"/>
          </g>
          <g id="그룹_1467" data-name="그룹 1467">
            <path id="패스_1720" data-name="패스 1720" d="M270.523,384.279l-26.831-15.593,35.377-20.425L305.9,363.854Z" transform="translate(-243.692 -348.262)" fill="#e2eeff"/>
          </g>
        </g>
        <path id="패스_1721" data-name="패스 1721" d="M273.634,383.925l38.145-22.079v4.61l-34.263,19.7Z" transform="translate(-261.602 -356.388)" fill="#ffb9ac"/>
        <path id="패스_1722" data-name="패스 1722" d="M282.626,389.015l38.145-22.079v4.61l-34.263,19.7Z" transform="translate(-266.981 -359.432)" fill="#f6db96"/>
        <path id="패스_1723" data-name="패스 1723" d="M323.835,384.821v-2.745a1.724,1.724,0,0,1,.853-1.487l8.338-4.883a.52.52,0,0,1,.783.448v2.9Z" transform="translate(-291.631 -364.634)" fill="#f6db96"/>
        <path id="패스_1724" data-name="패스 1724" d="M291.438,394.083v-2.745a1.723,1.723,0,0,1,.853-1.487l8.339-4.884a.52.52,0,0,1,.782.449v2.9L329.583,372v4.61l-34.262,19.7Z" transform="translate(-272.252 -362.464)" fill="#ffb9ac"/>
        <path id="패스_1725" data-name="패스 1725" d="M300.6,399.3V396.55a1.724,1.724,0,0,1,.853-1.487l8.339-4.883a.52.52,0,0,1,.782.448v2.9l28.172-16.311v4.61l-34.263,19.7Z" transform="translate(-277.73 -365.582)" fill="#f6db96"/>
        <g id="그룹_1474" data-name="그룹 1474" transform="translate(40.947 26.576)">
          <g id="그룹_1473" data-name="그룹 1473" style="isolation: isolate">
            <g id="그룹_1469" data-name="그룹 1469" transform="translate(7.512 0.313)">
              <path id="패스_1726" data-name="패스 1726" d="M365.369,415.8l0,.931-1.079-.623,0-.931Z" transform="translate(-364.287 -415.178)" fill="#617287"/>
            </g>
            <g id="그룹_1470" data-name="그룹 1470" transform="translate(0.003)">
              <path id="패스_1727" data-name="패스 1727" d="M355.271,415.335l-8.051,4.679-1.621-.936.536-.312,1.079.623,6.976-4.054-1.079-.623.538-.313Z" transform="translate(-345.599 -414.399)" fill="#9bb7d9"/>
            </g>
            <g id="그룹_1471" data-name="그룹 1471" transform="translate(1.621 0.936)">
              <path id="패스_1728" data-name="패스 1728" d="M357.68,416.728l0,.931-8.051,4.679,0-.931Z" transform="translate(-349.627 -416.728)" fill="#8ba4c2"/>
            </g>
            <g id="그룹_1472" data-name="그룹 1472" transform="translate(0 4.679)">
              <path id="패스_1729" data-name="패스 1729" d="M347.216,426.979l0,.931-1.621-.936,0-.931Z" transform="translate(-345.592 -426.043)" fill="#617287"/>
            </g>
          </g>
        </g>
      </g>
      <g id="그룹_1480" data-name="그룹 1480" transform="translate(0 17.89)">
        <g id="그룹_1479" data-name="그룹 1479" style="isolation: isolate">
          <g id="그룹_1476" data-name="그룹 1476" transform="translate(13.416 7.796)">
            <path id="패스_1730" data-name="패스 1730" d="M312.455,323.36l.047,16.448-35.377,20.425-.047-16.448Z" transform="translate(-277.078 -323.36)" fill="#cee2ff"/>
          </g>
          <g id="그룹_1477" data-name="그룹 1477" transform="translate(0 20.425)">
            <path id="패스_1731" data-name="패스 1731" d="M257.154,379.032l-13.416-7.8-.047-16.448,13.416,7.8Z" transform="translate(-243.692 -354.788)" fill="#b4d4fc"/>
          </g>
          <g id="그룹_1478" data-name="그룹 1478">
            <path id="패스_1732" data-name="패스 1732" d="M257.107,332.18l-13.416-7.8,35.377-20.425,13.416,7.8Z" transform="translate(-243.692 -303.958)" fill="#e2eeff"/>
          </g>
        </g>
      </g>
      <g id="그룹_1485" data-name="그룹 1485" transform="translate(0)">
        <g id="그룹_1484" data-name="그룹 1484" style="isolation: isolate">
          <g id="그룹_1481" data-name="그룹 1481" transform="translate(13.416 7.796)">
            <path id="패스_1733" data-name="패스 1733" d="M312.455,278.838l.047,16.448-35.377,20.425-.047-16.448Z" transform="translate(-277.078 -278.838)" fill="#cee2ff"/>
          </g>
          <g id="그룹_1482" data-name="그룹 1482" transform="translate(0 20.425)">
            <path id="패스_1734" data-name="패스 1734" d="M257.154,334.51l-13.416-7.8-.047-16.448,13.416,7.8Z" transform="translate(-243.692 -310.267)" fill="#b4d4fc"/>
          </g>
          <g id="그룹_1483" data-name="그룹 1483">
            <path id="패스_1735" data-name="패스 1735" d="M257.107,287.658l-13.416-7.8,35.377-20.425,13.416,7.8Z" transform="translate(-243.692 -259.436)" fill="#e2eeff"/>
          </g>
        </g>
      </g>
      <g id="그룹_1491" data-name="그룹 1491" transform="translate(27.242 18.109)">
        <g id="그룹_1490" data-name="그룹 1490" style="isolation: isolate">
          <g id="그룹_1486" data-name="그룹 1486" transform="translate(7.512 0.313)">
            <path id="패스_1736" data-name="패스 1736" d="M331.263,305.9l0,.931-1.079-.623,0-.931Z" transform="translate(-330.181 -305.28)" fill="#617287"/>
          </g>
          <g id="그룹_1487" data-name="그룹 1487" transform="translate(0.003)">
            <path id="패스_1737" data-name="패스 1737" d="M321.165,305.438l-8.051,4.679-1.621-.936.536-.312,1.079.623,6.976-4.054L319,304.815l.539-.313Z" transform="translate(-311.492 -304.502)" fill="#9bb7d9"/>
          </g>
          <g id="그룹_1488" data-name="그룹 1488" transform="translate(1.621 0.936)">
            <path id="패스_1738" data-name="패스 1738" d="M323.574,306.831l0,.931-8.051,4.679,0-.931Z" transform="translate(-315.52 -306.831)" fill="#8ba4c2"/>
          </g>
          <g id="그룹_1489" data-name="그룹 1489" transform="translate(0 4.679)">
            <path id="패스_1739" data-name="패스 1739" d="M313.11,317.081l0,.931-1.621-.936,0-.931Z" transform="translate(-311.486 -316.145)" fill="#617287"/>
          </g>
        </g>
      </g>
      <g id="그룹_1497" data-name="그룹 1497" transform="translate(27.242 36.001)">
        <g id="그룹_1496" data-name="그룹 1496" style="isolation: isolate">
          <g id="그룹_1492" data-name="그룹 1492" transform="translate(7.512 0.313)">
            <path id="패스_1740" data-name="패스 1740" d="M331.263,350.431l0,.931-1.079-.623,0-.931Z" transform="translate(-330.181 -349.808)" fill="#617287"/>
          </g>
          <g id="그룹_1493" data-name="그룹 1493" transform="translate(0.003)">
            <path id="패스_1741" data-name="패스 1741" d="M321.165,349.965l-8.051,4.679-1.621-.936.536-.312,1.079.623,6.976-4.054L319,349.342l.539-.313Z" transform="translate(-311.492 -349.029)" fill="#9bb7d9"/>
          </g>
          <g id="그룹_1494" data-name="그룹 1494" transform="translate(1.621 0.936)">
            <path id="패스_1742" data-name="패스 1742" d="M323.574,351.358l0,.931-8.051,4.679,0-.931Z" transform="translate(-315.52 -351.358)" fill="#8ba4c2"/>
          </g>
          <g id="그룹_1495" data-name="그룹 1495" transform="translate(0 4.679)">
            <path id="패스_1743" data-name="패스 1743" d="M313.11,361.608l0,.931-1.621-.936,0-.931Z" transform="translate(-311.486 -360.672)" fill="#617287"/>
          </g>
        </g>
      </g>
      <path id="패스_1744" data-name="패스 1744" d="M294.789,392.274v-2.745a1.724,1.724,0,0,1,.853-1.487l8.338-4.883a.52.52,0,0,1,.783.448v2.9Z" transform="translate(-274.256 -333.399)" fill="#ffb9ac"/>
    </g>
    <line id="선_25" data-name="선 25" x2="34.391" y2="19.253" transform="translate(241.139 275.193)" fill="none" stroke="#f6ede3" stroke-linecap="round" stroke-linejoin="round" stroke-width="3" stroke-dasharray="1 8"/>
    <g id="그룹_1532" data-name="그룹 1532" transform="translate(215.755 141.608)">
      <g id="그룹_1509" data-name="그룹 1509" transform="translate(0.023 35.783)">
        <g id="그룹_1502" data-name="그룹 1502" style="isolation: isolate">
          <g id="그룹_1499" data-name="그룹 1499" transform="translate(13.416 7.796)">
            <path id="패스_1745" data-name="패스 1745" d="M446.985,290.2l.047,16.448-35.377,20.425-.047-16.448Z" transform="translate(-411.607 -290.201)" fill="#cee2ff"/>
          </g>
          <g id="그룹_1500" data-name="그룹 1500" transform="translate(0 20.425)">
            <path id="패스_1746" data-name="패스 1746" d="M391.684,345.873l-13.416-7.8-.047-16.448,13.416,7.8Z" transform="translate(-378.221 -321.629)" fill="#b4d4fc"/>
          </g>
          <g id="그룹_1501" data-name="그룹 1501">
            <path id="패스_1747" data-name="패스 1747" d="M391.637,299.021l-13.416-7.8L413.6,270.8l13.416,7.8Z" transform="translate(-378.221 -270.8)" fill="#e2eeff"/>
          </g>
        </g>
        <g id="그룹_1508" data-name="그룹 1508" transform="translate(27.242 18.111)">
          <g id="그룹_1507" data-name="그룹 1507" style="isolation: isolate">
            <g id="그룹_1503" data-name="그룹 1503" transform="translate(7.512 0.313)">
              <path id="패스_1748" data-name="패스 1748" d="M465.793,317.272l0,.931-1.079-.623,0-.931Z" transform="translate(-464.711 -316.649)" fill="#617287"/>
            </g>
            <g id="그룹_1504" data-name="그룹 1504" transform="translate(0.003)">
              <path id="패스_1749" data-name="패스 1749" d="M455.694,316.806l-8.051,4.679-1.621-.936.536-.312,1.079.623,6.976-4.054-1.079-.623.539-.313Z" transform="translate(-446.022 -315.87)" fill="#9bb7d9"/>
            </g>
            <g id="그룹_1505" data-name="그룹 1505" transform="translate(1.621 0.936)">
              <path id="패스_1750" data-name="패스 1750" d="M458.1,318.2l0,.931-8.051,4.679,0-.931Z" transform="translate(-450.05 -318.2)" fill="#8ba4c2"/>
            </g>
            <g id="그룹_1506" data-name="그룹 1506" transform="translate(0 4.679)">
              <path id="패스_1751" data-name="패스 1751" d="M447.639,328.45l0,.931-1.621-.936,0-.931Z" transform="translate(-446.016 -327.514)" fill="#617287"/>
            </g>
          </g>
        </g>
      </g>
      <g id="그룹_1520" data-name="그룹 1520" transform="translate(0 17.856)">
        <g id="그룹_1513" data-name="그룹 1513" style="isolation: isolate">
          <g id="그룹_1510" data-name="그룹 1510" transform="translate(26.831 15.593)">
            <path id="패스_1752" data-name="패스 1752" d="M480.313,264.991l.047,16.448-35.377,20.425-.047-16.448Z" transform="translate(-444.935 -264.991)" fill="#cee2ff"/>
          </g>
          <g id="그룹_1511" data-name="그룹 1511" transform="translate(0 20.425)">
            <path id="패스_1753" data-name="패스 1753" d="M405.041,309.057,378.21,293.465l-.047-16.448,26.831,15.593Z" transform="translate(-378.163 -277.017)" fill="#b4d4fc"/>
          </g>
          <g id="그룹_1512" data-name="그룹 1512">
            <path id="패스_1754" data-name="패스 1754" d="M404.995,262.2l-26.831-15.593,35.377-20.425,26.831,15.593Z" transform="translate(-378.163 -226.187)" fill="#e2eeff"/>
          </g>
        </g>
        <path id="패스_1755" data-name="패스 1755" d="M408.105,261.85l38.145-22.079v4.61l-34.263,19.7Z" transform="translate(-396.074 -234.313)" fill="#ffb9ac"/>
        <path id="패스_1756" data-name="패스 1756" d="M449.314,257.656v-2.745a1.723,1.723,0,0,1,.853-1.487l8.338-4.884a.52.52,0,0,1,.783.449v2.9Z" transform="translate(-420.723 -239.515)" fill="#ffb9ac"/>
        <path id="패스_1757" data-name="패스 1757" d="M417.1,266.94l38.145-22.079v4.61l-34.262,19.7Z" transform="translate(-401.453 -237.357)" fill="#f6db96"/>
        <path id="패스_1758" data-name="패스 1758" d="M458.307,262.746V260a1.723,1.723,0,0,1,.853-1.487l8.338-4.883a.52.52,0,0,1,.783.449v2.9Z" transform="translate(-426.103 -242.559)" fill="#f6db96"/>
        <path id="패스_1759" data-name="패스 1759" d="M425.91,272.008v-2.745a1.723,1.723,0,0,1,.853-1.487l8.338-4.884a.52.52,0,0,1,.783.448v2.9l28.171-16.311v4.61l-34.262,19.7Z" transform="translate(-406.724 -240.389)" fill="#ffb9ac"/>
        <path id="패스_1760" data-name="패스 1760" d="M435.068,277.22v-2.745a1.724,1.724,0,0,1,.853-1.487l8.338-4.883a.52.52,0,0,1,.783.448v2.9l28.171-16.311v4.61l-34.262,19.7Z" transform="translate(-412.202 -243.507)" fill="#f6db96"/>
        <g id="그룹_1519" data-name="그룹 1519" transform="translate(40.947 26.576)">
          <g id="그룹_1518" data-name="그룹 1518" style="isolation: isolate">
            <g id="그룹_1514" data-name="그룹 1514" transform="translate(7.512 0.313)">
              <path id="패스_1761" data-name="패스 1761" d="M499.841,293.726l0,.931-1.079-.623,0-.931Z" transform="translate(-498.759 -293.103)" fill="#617287"/>
            </g>
            <g id="그룹_1515" data-name="그룹 1515" transform="translate(0.003)">
              <path id="패스_1762" data-name="패스 1762" d="M489.742,293.26l-8.051,4.679L480.07,297l.536-.311,1.079.623,6.976-4.054-1.079-.623.539-.313Z" transform="translate(-480.07 -292.324)" fill="#9bb7d9"/>
            </g>
            <g id="그룹_1516" data-name="그룹 1516" transform="translate(1.621 0.936)">
              <path id="패스_1763" data-name="패스 1763" d="M492.152,294.654l0,.931-8.051,4.679,0-.931Z" transform="translate(-484.098 -294.654)" fill="#8ba4c2"/>
            </g>
            <g id="그룹_1517" data-name="그룹 1517" transform="translate(0 4.679)">
              <path id="패스_1764" data-name="패스 1764" d="M481.688,304.9l0,.931-1.621-.936,0-.931Z" transform="translate(-480.064 -303.968)" fill="#617287"/>
            </g>
          </g>
        </g>
      </g>
      <g id="그룹_1531" data-name="그룹 1531" transform="translate(0.023 0)">
        <g id="그룹_1524" data-name="그룹 1524" style="isolation: isolate">
          <g id="그룹_1521" data-name="그룹 1521" transform="translate(13.416 7.796)">
            <path id="패스_1765" data-name="패스 1765" d="M446.985,201.152l.047,16.448-35.377,20.425-.047-16.448Z" transform="translate(-411.607 -201.152)" fill="#cee2ff"/>
          </g>
          <g id="그룹_1522" data-name="그룹 1522" transform="translate(0 20.425)">
            <path id="패스_1766" data-name="패스 1766" d="M391.684,256.824l-13.416-7.8-.047-16.448,13.416,7.8Z" transform="translate(-378.221 -232.58)" fill="#b4d4fc"/>
          </g>
          <g id="그룹_1523" data-name="그룹 1523">
            <path id="패스_1767" data-name="패스 1767" d="M391.637,209.972l-13.416-7.8L413.6,181.75l13.416,7.8Z" transform="translate(-378.221 -181.75)" fill="#e2eeff"/>
          </g>
        </g>
        <g id="그룹_1530" data-name="그룹 1530" transform="translate(27.242 18.109)">
          <g id="그룹_1529" data-name="그룹 1529" style="isolation: isolate">
            <g id="그룹_1525" data-name="그룹 1525" transform="translate(7.512 0.313)">
              <path id="패스_1768" data-name="패스 1768" d="M465.793,228.217l0,.931-1.079-.623,0-.931Z" transform="translate(-464.711 -227.594)" fill="#617287"/>
            </g>
            <g id="그룹_1526" data-name="그룹 1526" transform="translate(0.003)">
              <path id="패스_1769" data-name="패스 1769" d="M455.694,227.751l-8.051,4.679-1.621-.936.536-.312,1.079.623,6.976-4.054-1.079-.623.539-.313Z" transform="translate(-446.022 -226.815)" fill="#9bb7d9"/>
            </g>
            <g id="그룹_1527" data-name="그룹 1527" transform="translate(1.621 0.936)">
              <path id="패스_1770" data-name="패스 1770" d="M458.1,229.145l0,.931-8.051,4.679,0-.931Z" transform="translate(-450.05 -229.145)" fill="#8ba4c2"/>
            </g>
            <g id="그룹_1528" data-name="그룹 1528" transform="translate(0 4.679)">
              <path id="패스_1771" data-name="패스 1771" d="M447.639,239.395l0,.931-1.621-.936,0-.931Z" transform="translate(-446.016 -238.459)" fill="#617287"/>
            </g>
          </g>
        </g>
      </g>
    </g>
    <g id="그룹_1536" data-name="그룹 1536" transform="translate(337.049 207.055)">
      <g id="그룹_1535" data-name="그룹 1535" style="isolation: isolate">
        <g id="그룹_1533" data-name="그룹 1533" transform="translate(0 18.104)">
          <path id="패스_1772" data-name="패스 1772" d="M680.015,401.272l.032-11.595a7.412,7.412,0,0,0,2.521,5.317l-.033,11.594A7.41,7.41,0,0,1,680.015,401.272Z" transform="translate(-680.015 -389.677)" fill="#cee2ff"/>
        </g>
        <path id="패스_1773" data-name="패스 1773" d="M743.337,376.955l-32.645,19.032c-6.929,4.026-18.2,4.027-25.17,0-3.51-2.026-5.262-4.686-5.254-7.341l-.032,11.595c-.008,2.655,1.744,5.315,5.254,7.342,6.972,4.025,18.241,4.025,25.17,0L743.3,388.549c2.727-1.9,4.093-4.226,4.1-6.56l.033-11.594C747.431,372.729,746.065,375.059,743.337,376.955Z" transform="translate(-680.147 -360.039)" fill="#bbd8fc"/>
        <g id="그룹_1534" data-name="그룹 1534" transform="translate(0.033)">
          <path id="패스_1774" data-name="패스 1774" d="M742.1,347.642c6.59,3.8,6.979,9.846,1.15,13.9l-32.645,19.032c-6.929,4.026-18.2,4.027-25.17,0-5.884-3.4-6.828-8.575-2.822-12.528-4.084-3.957-3.208-9.15,2.652-12.555a24.967,24.967,0,0,1,11.422-3,12.5,12.5,0,0,1,3.514-2.913c4.829-2.806,11.763-3.653,17.883-2.55C725.06,343.629,735.5,343.832,742.1,347.642Z" transform="translate(-680.096 -344.623)" fill="#cee2ff"/>
        </g>
      </g>
    </g>
    <path id="패스_1775" data-name="패스 1775" d="M654,484.653l70.146-40.776-17.1-8.933" transform="translate(-327.404 -191.595)" fill="none" stroke="#f6ede3" stroke-linecap="round" stroke-linejoin="round" stroke-width="3" stroke-dasharray="1 8"/>
    <g id="그룹_1540" data-name="그룹 1540" transform="translate(172.888 385.195)">
      <g id="그룹_1539" data-name="그룹 1539" style="isolation: isolate">
        <g id="그룹_1537" data-name="그룹 1537" transform="translate(0 14.809)">
          <path id="패스_1776" data-name="패스 1776" d="M271.486,834.276l.027-9.484a6.064,6.064,0,0,0,2.062,4.349l-.027,9.484A6.063,6.063,0,0,1,271.486,834.276Z" transform="translate(-271.486 -824.792)" fill="#cee2ff"/>
        </g>
        <path id="패스_1777" data-name="패스 1777" d="M323.284,814.385l-26.7,15.568c-5.668,3.294-14.886,3.294-20.589,0-2.871-1.658-4.3-3.833-4.3-6.005l-.027,9.484c-.006,2.172,1.427,4.348,4.3,6.005,5.7,3.293,14.921,3.293,20.589,0l26.7-15.568c2.231-1.55,3.348-3.457,3.353-5.365l.027-9.484C326.632,810.928,325.514,812.834,323.284,814.385Z" transform="translate(-271.594 -800.548)" fill="#bbd8fc"/>
        <g id="그룹_1538" data-name="그룹 1538" transform="translate(0.027)">
          <path id="패스_1778" data-name="패스 1778" d="M322.275,790.408c5.391,3.112,5.709,8.054.941,11.367l-26.7,15.568c-5.668,3.294-14.886,3.294-20.589,0-4.814-2.779-5.585-7.014-2.309-10.248-3.341-3.237-2.624-7.485,2.169-10.271a20.424,20.424,0,0,1,9.343-2.45A10.233,10.233,0,0,1,288,791.994c3.95-2.3,9.621-2.988,14.628-2.085C308.333,787.125,316.876,787.291,322.275,790.408Z" transform="translate(-271.553 -787.938)" fill="#cee2ff"/>
        </g>
      </g>
    </g>
    <g id="그룹_1544" data-name="그룹 1544" transform="translate(368.948 315.482)">
      <g id="그룹_1543" data-name="그룹 1543" transform="translate(0 0)" style="isolation: isolate">
        <g id="그룹_1541" data-name="그룹 1541" transform="translate(0 15.71)">
          <path id="패스_1779" data-name="패스 1779" d="M759.4,663.608l.029-10.061a6.432,6.432,0,0,0,2.187,4.613l-.029,10.061A6.431,6.431,0,0,1,759.4,663.608Z" transform="translate(-759.398 -653.547)" fill="#cee2ff"/>
        </g>
        <path id="패스_1780" data-name="패스 1780" d="M814.346,642.507l-28.328,16.515c-6.013,3.494-15.791,3.494-21.841,0-3.045-1.758-4.566-4.067-4.559-6.371l-.029,10.061c-.006,2.3,1.514,4.612,4.559,6.371,6.05,3.493,15.829,3.493,21.841,0l28.328-16.515c2.367-1.644,3.552-3.667,3.558-5.692l.029-10.061C817.9,638.84,816.713,640.862,814.346,642.507Z" transform="translate(-759.512 -627.829)" fill="#bbd8fc"/>
        <g id="그룹_1542" data-name="그룹 1542" transform="translate(0.029)">
          <path id="패스_1781" data-name="패스 1781" d="M813.276,617.071c5.719,3.3,6.057,8.544,1,12.059l-28.328,16.515c-6.013,3.494-15.791,3.494-21.841,0-5.106-2.948-5.925-7.441-2.449-10.871-3.544-3.434-2.784-7.94,2.3-10.9a21.673,21.673,0,0,1,9.911-2.6,10.855,10.855,0,0,1,3.049-2.528c4.19-2.435,10.207-3.17,15.518-2.212C798.486,613.589,807.549,613.765,813.276,617.071Z" transform="translate(-759.469 -614.451)" fill="#cee2ff"/>
        </g>
      </g>
    </g>
    <g id="그룹_1548" data-name="그룹 1548" transform="translate(106.653 316.824)">
      <g id="그룹_1547" data-name="그룹 1547" transform="translate(0 0)" style="isolation: isolate">
        <g id="그룹_1545" data-name="그룹 1545" transform="translate(0 17.592)">
          <path id="패스_1782" data-name="패스 1782" d="M106.653,672.84l.032-11.267a7.2,7.2,0,0,0,2.449,5.166l-.032,11.267A7.2,7.2,0,0,1,106.653,672.84Z" transform="translate(-106.653 -661.573)" fill="#cee2ff"/>
        </g>
        <path id="패스_1783" data-name="패스 1783" d="M168.186,649.21,136.463,667.7c-6.733,3.913-17.684,3.913-24.458,0-3.411-1.969-5.113-4.554-5.106-7.134l-.032,11.266c-.007,2.581,1.7,5.165,5.106,7.134,6.775,3.911,17.726,3.911,24.459,0l31.723-18.494c2.65-1.842,3.977-4.106,3.984-6.374l.032-11.267C172.164,645.1,170.837,647.369,168.186,649.21Z" transform="translate(-106.781 -632.773)" fill="#bbd8fc"/>
        <g id="그룹_1546" data-name="그룹 1546" transform="translate(0.032)">
          <path id="패스_1784" data-name="패스 1784" d="M166.988,620.726c6.4,3.7,6.783,9.568,1.118,13.5l-31.723,18.494c-6.733,3.913-17.684,3.913-24.458,0-5.718-3.3-6.635-8.332-2.743-12.174-3.969-3.845-3.117-8.892,2.577-12.2a24.276,24.276,0,0,1,11.1-2.911,12.158,12.158,0,0,1,3.415-2.83c4.692-2.727,11.43-3.55,17.377-2.477C150.426,616.826,160.575,617.024,166.988,620.726Z" transform="translate(-106.733 -617.793)" fill="#cee2ff"/>
        </g>
      </g>
    </g>
    <g id="그룹_1552" data-name="그룹 1552" transform="translate(230.282 276.257)">
      <g id="그룹_1551" data-name="그룹 1551" transform="translate(0 0)" style="isolation: isolate">
        <g id="그룹_1549" data-name="그룹 1549" transform="translate(0 31.196)">
          <path id="패스_1785" data-name="패스 1785" d="M414.315,614.45l.057-19.978c-.009,3.172,1.44,6.348,4.343,9.161l-.057,19.978C415.755,620.8,414.306,617.623,414.315,614.45Z" transform="translate(-414.315 -594.472)" fill="#cee2ff"/>
        </g>
        <path id="패스_1786" data-name="패스 1786" d="M523.428,572.549l-56.253,32.795c-11.939,6.938-31.358,6.938-43.371,0-6.048-3.492-9.067-8.075-9.054-12.65l-.057,19.978c-.013,4.576,3.006,9.159,9.054,12.651,12.014,6.936,31.432,6.936,43.371,0l56.253-32.795c4.7-3.265,7.053-7.282,7.065-11.3l.057-19.978C530.482,565.267,528.128,569.283,523.428,572.549Z" transform="translate(-414.542 -543.401)" fill="#bbd8fc"/>
        <g id="그룹_1550" data-name="그룹 1550" transform="translate(0.057)">
          <path id="패스_1787" data-name="패스 1787" d="M521.3,522.04c11.356,6.557,12.027,16.967,1.983,23.946L467.033,578.78c-11.939,6.938-31.358,6.938-43.371,0-10.14-5.854-11.765-14.775-4.863-21.587-7.037-6.819-5.528-15.767,4.569-21.635,5.464-3.176,12.5-4.894,19.681-5.161a21.534,21.534,0,0,1,6.054-5.019c8.321-4.836,20.268-6.295,30.814-4.393C491.934,515.124,509.931,515.474,521.3,522.04Z" transform="translate(-414.456 -516.838)" fill="#cee2ff"/>
        </g>
      </g>
    </g>
    <g id="그룹_1561" data-name="그룹 1561" transform="translate(265.611 258.503)">
      <g id="그룹_1560" data-name="그룹 1560" transform="translate(0)" style="isolation: isolate">
        <g id="그룹_1553" data-name="그룹 1553" transform="translate(23.243 26.928)">
          <path id="패스_1788" data-name="패스 1788" d="M562.9,540.057c1.564-.9,2.831-.177,2.837,1.62a6.227,6.227,0,0,1-1.711,3.98l.018,6.57a2.444,2.444,0,0,1-1.1,1.917c-.611.353-1.109.065-1.111-.637l-.019-6.57c-1.014.089-1.724-.653-1.727-1.995A6.21,6.21,0,0,1,562.9,540.057Z" transform="translate(-560.078 -539.669)" fill="#7ba39a"/>
        </g>
        <path id="패스_1789" data-name="패스 1789" d="M532.75,491.109c-1.1-.64-2.625-.55-4.307.422l-20.175,11.648a13.3,13.3,0,0,0-6.034,10.45l.063,22.037c.005,1.907.679,3.248,1.764,3.88l9.919,5.764c-1.086-.631-1.759-1.972-1.765-3.88l-.062-22.036a13.3,13.3,0,0,1,6.033-10.45l20.175-11.648c1.682-.971,3.206-1.061,4.307-.422Z" transform="translate(-502.235 -483.449)" fill="#a4d9cd"/>
        <g id="그룹_1554" data-name="그룹 1554" transform="translate(9.919 13.015)">
          <path id="패스_1790" data-name="패스 1790" d="M553.127,505.875c3.342-1.93,6.062-.38,6.073,3.461l.063,22.037a13.292,13.292,0,0,1-6.034,10.446l-20.175,11.648c-3.342,1.93-6.062.384-6.073-3.457l-.062-22.036a13.3,13.3,0,0,1,6.033-10.45Zm-8.94,19.071a6.228,6.228,0,0,0,1.711-3.98c-.005-1.8-1.273-2.523-2.837-1.62a6.209,6.209,0,0,0-2.818,4.885c0,1.342.714,2.083,1.727,1.995l.019,6.57c0,.7.5.99,1.112.637a2.444,2.444,0,0,0,1.1-1.917l-.018-6.57" transform="translate(-526.919 -505.045)" fill="#c5e7df"/>
        </g>
        <g id="그룹_1559" data-name="그룹 1559" transform="translate(10.222)">
          <g id="그룹_1558" data-name="그룹 1558" style="isolation: isolate">
            <g id="그룹_1555" data-name="그룹 1555" transform="translate(15.865 8.72)">
              <path id="패스_1791" data-name="패스 1791" d="M569.812,500.291l-2.645-1.537-.012-4.4,2.645,1.537Z" transform="translate(-567.155 -494.356)" fill="#7ba39a"/>
            </g>
            <g id="그룹_1556" data-name="그룹 1556" transform="translate(14.036 4.705)">
              <path id="패스_1792" data-name="패스 1792" d="M562.6,484.365l2.645,1.537c1.125.654,1.824,2.042,1.829,4.014l-2.645-1.537C564.426,486.408,563.727,485.019,562.6,484.365Z" transform="translate(-562.602 -484.365)" fill="#7ba39a"/>
            </g>
            <g id="그룹_1557" data-name="그룹 1557" transform="translate(2.645 1.537)">
              <path id="패스_1793" data-name="패스 1793" d="M543.82,477.794c5.292-3.056,9.61-.592,9.628,5.486l.012,4.4-3.328,1.921-.012-4.4c-.011-3.972-2.833-5.576-6.289-3.581a13.785,13.785,0,0,0-6.249,10.819l.012,4.4-3.328,1.921-.012-4.4C534.238,488.283,538.531,480.847,543.82,477.794Z" transform="translate(-534.255 -476.481)" fill="#c5e7df"/>
            </g>
            <path id="패스_1794" data-name="패스 1794" d="M544.063,473.305c-1.746-1.015-4.162-.875-6.825.663-5.289,3.054-9.582,10.489-9.565,16.567l.012,4.4,2.645,1.537-.012-4.4c-.017-6.078,4.276-13.514,9.565-16.567,2.663-1.537,5.079-1.678,6.825-.663Z" transform="translate(-527.673 -472.656)" fill="#b6e1d7"/>
          </g>
        </g>
      </g>
    </g>
    <path id="패스_1795" data-name="패스 1795" d="M218.156,668.222l19.037,10.044,53.156-30.815" transform="translate(-66.697 -318.709)" fill="none" stroke="#f6ede3" stroke-linecap="round" stroke-linejoin="round" stroke-width="3" stroke-dasharray="1 8"/>
    <g id="그룹_1571" data-name="그룹 1571" transform="translate(184.015 372.762)">
      <path id="패스_1796" data-name="패스 1796" d="M307.527,798.194l-2.65,10-1.087,4.112-2.815-1.67-1.783-16.357a2.545,2.545,0,0,1,1.267-2.487l5.43-3.1Z" transform="translate(-299.177 -775.959)" fill="#bf8b81"/>
      <path id="패스_1797" data-name="패스 1797" d="M307.554,837.231l-1.087,4.112-2.815-1.669Z" transform="translate(-301.854 -804.991)" fill="#805d56"/>
      <path id="패스_1798" data-name="패스 1798" d="M304.157,791.723l-1.69-20.638L326.707,757v19.326Z" transform="translate(-301.145 -757)" fill="#e6e6e6"/>
      <path id="패스_1799" data-name="패스 1799" d="M306.441,793.634,304.751,773l24.24-14.085v19.326Z" transform="translate(-302.511 -758.143)" fill="#f2f2f2"/>
      <g id="그룹_1562" data-name="그룹 1562" transform="translate(4.108 4.2)">
        <path id="패스_1800" data-name="패스 1800" d="M323.149,773.517l-12.341,7.125a3.1,3.1,0,0,0-1.409,2.438l.044,15.594c0,.9.638,1.256,1.418.806L333.6,786.352a3.1,3.1,0,0,0,1.407-2.437l-.034-12.029-.01-3.4a1.036,1.036,0,0,0-1.553-.894Z" transform="translate(-309.399 -767.453)" fill="#ffb9ac"/>
      </g>
      <g id="그룹_1563" data-name="그룹 1563" transform="translate(4.108 8.541)">
        <path id="패스_1801" data-name="패스 1801" d="M310.743,783.7a2.962,2.962,0,0,0-1.344,2.325l.006,3.621,11.81-6.819-.006-3.621c0-.853-.608-1.2-1.351-.769Z" transform="translate(-309.399 -778.254)" fill="#ffb9ac"/>
      </g>
      <g id="그룹_1570" data-name="그룹 1570" transform="translate(12.819 13.826)">
        <g id="그룹_1564" data-name="그룹 1564" transform="translate(4.42 3.003)">
          <path id="패스_1802" data-name="패스 1802" d="M343.5,805.859l1.091-6.813.291-.168-1.24,7.744a.312.312,0,0,1-.138.21c-.069.04-.128.021-.141-.048l-1.281-6.289.293-.169Z" transform="translate(-342.076 -798.878)" fill="#fff"/>
        </g>
        <g id="그룹_1565" data-name="그룹 1565" transform="translate(0.965 4.998)">
          <path id="패스_1803" data-name="패스 1803" d="M334.9,810.824l1.092-6.814.29-.167-1.241,7.744a.312.312,0,0,1-.138.21c-.067.039-.126.019-.139-.05l-1.282-6.287.291-.168Z" transform="translate(-333.479 -803.843)" fill="#fff"/>
        </g>
        <g id="그룹_1566" data-name="그룹 1566" transform="translate(0.488 3.988)">
          <path id="패스_1804" data-name="패스 1804" d="M332.573,801.4,333,803.5l-.291.168-.415-2.034a.3.3,0,0,1,.11-.258.176.176,0,0,1,.029-.02C332.5,801.312,332.56,801.331,332.573,801.4Z" transform="translate(-332.291 -801.331)" fill="#fff"/>
        </g>
        <g id="그룹_1567" data-name="그룹 1567" transform="translate(0 2.18)">
          <path id="패스_1805" data-name="패스 1805" d="M339.12,796.851c.08-.046.144-.012.144.079a.314.314,0,0,1-.143.248l-.823.475-.291.168-2.217,1.28-.293.169-.655.378-.29.167-2.219,1.281-.291.168-.824.475c-.077.045-.141.008-.141-.084a.308.308,0,0,1,.141-.243l.765-.442.291-.168,2.337-1.349.29-.167.537-.31.292-.169,2.335-1.348.291-.168Z" transform="translate(-331.077 -796.83)" fill="#fff"/>
        </g>
        <g id="그룹_1568" data-name="그룹 1568" transform="translate(6.987)">
          <path id="패스_1806" data-name="패스 1806" d="M349.046,791.411c.077-.024.126.034.111.131l-.4,2.505-.291.168.413-2.577a.323.323,0,0,1,.141-.214A.136.136,0,0,1,349.046,791.411Z" transform="translate(-348.465 -791.406)" fill="#fff"/>
        </g>
        <g id="그룹_1569" data-name="그룹 1569" transform="translate(3.533 1.994)">
          <path id="패스_1807" data-name="패스 1807" d="M340.563,796.439l.426,2.092-.292.169-.273-1.339-.264,1.649-.29.167.413-2.577a.319.319,0,0,1,.138-.213C340.49,796.348,340.547,796.372,340.563,796.439Z" transform="translate(-339.87 -796.369)" fill="#fff"/>
        </g>
      </g>
    </g>
    <g id="그룹_1575" data-name="그룹 1575" transform="translate(119.464 300.127)">
      <path id="패스_1808" data-name="패스 1808" d="M148.529,625.55l-3.172,11.975-1.3,4.922-3.369-2-2.135-19.579a3.048,3.048,0,0,1,1.517-2.977l6.5-3.712Z" transform="translate(-138.534 -598.935)" fill="#b9a471"/>
      <path id="패스_1809" data-name="패스 1809" d="M148.562,672.278l-1.3,4.922-3.369-2Z" transform="translate(-141.739 -633.687)" fill="#8b7b55"/>
      <path id="패스_1810" data-name="패스 1810" d="M144.5,617.8l-2.023-24.7,29.015-16.86v23.134Z" transform="translate(-140.89 -576.24)" fill="#e6e6e6"/>
      <path id="패스_1811" data-name="패스 1811" d="M147.23,620.092l-2.023-24.7,29.015-16.86v23.134Z" transform="translate(-142.526 -577.609)" fill="#f2f2f2"/>
      <g id="그룹_1572" data-name="그룹 1572" transform="translate(4.917 5.028)">
        <path id="패스_1812" data-name="패스 1812" d="M167.229,596.012l-14.772,8.529a3.716,3.716,0,0,0-1.687,2.919l.053,18.666c0,1.073.764,1.5,1.7.964l27.219-15.715a3.709,3.709,0,0,0,1.684-2.917l-.041-14.4-.011-4.069a1.24,1.24,0,0,0-1.86-1.07Z" transform="translate(-150.77 -588.752)" fill="#f6db96"/>
      </g>
      <g id="그룹_1573" data-name="그룹 1573" transform="translate(4.917 10.223)">
        <path id="패스_1813" data-name="패스 1813" d="M152.379,608.2a3.547,3.547,0,0,0-1.609,2.783l.008,4.334,14.137-8.162-.008-4.334c0-1.022-.727-1.435-1.616-.921Z" transform="translate(-150.77 -601.682)" fill="#f6db96"/>
      </g>
      <g id="그룹_1574" data-name="그룹 1574" transform="translate(16.093 17.042)">
        <path id="패스_1814" data-name="패스 1814" d="M183.048,618.926c1.106-.639,2.013-.122,2.017,1.149l0,1.115a4.419,4.419,0,0,1-1.1,2.7c2.041-.917,3.593-.614,3.6,1.868l.007,2.411-8.987,5.189-.007-2.411a7.541,7.541,0,0,1,3.577-6.012c-.654-.006-1.109-.525-1.112-1.42l0-1.116A4.434,4.434,0,0,1,183.048,618.926Z" transform="translate(-178.582 -618.652)" fill="#fcc659"/>
      </g>
    </g>
    <path id="패스_1815" data-name="패스 1815" d="M369.149,750.168l24.428,13.608L445.35,732.74l-19.695-10.019,55.582-32.576L457.125,678.4" transform="translate(-157.016 -337.223)" fill="none" stroke="#f6ede3" stroke-linecap="round" stroke-linejoin="round" stroke-width="3" stroke-dasharray="1 8"/>
    <path id="패스_1816" data-name="패스 1816" d="M607.409,665.112l85.955,40.138,33.824-20.442-21.1-10.068" transform="translate(-299.535 -329.273)" fill="none" stroke="#f6ede3" stroke-linecap="round" stroke-linejoin="round" stroke-width="3" stroke-dasharray="1 8"/>
    <g id="그룹_1593" data-name="그룹 1593" transform="translate(351.577 166.179)">
      <g id="그룹_1576" data-name="그룹 1576" transform="translate(5.686 0)">
        <path id="패스_1817" data-name="패스 1817" d="M758.949,242.9l.04,41.024L730.359,300.3l-.04-41.024Z" transform="translate(-730.319 -242.898)" fill="#e6e6e6"/>
      </g>
      <g id="그룹_1577" data-name="그룹 1577" transform="translate(7.562 1.072)">
        <path id="패스_1818" data-name="패스 1818" d="M763.616,245.565l.039,41.024-28.63,16.377-.04-41.024Z" transform="translate(-734.986 -245.565)" fill="#f2f2f2"/>
      </g>
      <g id="그룹_1578" data-name="그룹 1578" transform="translate(13.482 20.033)">
        <path id="패스_1819" data-name="패스 1819" d="M767.084,292.751l.023,1.965-17.364,10.025-.023-1.965Z" transform="translate(-749.72 -292.751)" fill="#b3b3b3"/>
      </g>
      <g id="그룹_1579" data-name="그룹 1579" transform="translate(13.482 24.477)">
        <path id="패스_1820" data-name="패스 1820" d="M767.084,303.811l.023,1.965L749.743,315.8l-.023-1.965Z" transform="translate(-749.72 -303.811)" fill="#b3b3b3"/>
      </g>
      <g id="그룹_1585" data-name="그룹 1585" transform="translate(0 30.607)" style="isolation: isolate">
        <g id="그룹_1580" data-name="그룹 1580" transform="translate(15.919 1.061)">
          <path id="패스_1821" data-name="패스 1821" d="M757.464,341.3l-1.68-.976,15.857-18.612,1.68.976Z" transform="translate(-755.784 -321.708)" fill="#fff"/>
        </g>
        <g id="그룹_1581" data-name="그룹 1581" transform="translate(0 19.589)">
          <path id="패스_1822" data-name="패스 1822" d="M717.849,368.922l-1.68-.976v-.129l1.68.976Z" transform="translate(-716.169 -367.816)" fill="#f2f2f2"/>
        </g>
        <g id="그룹_1582" data-name="그룹 1582" transform="translate(1.68 2.037)">
          <path id="패스_1823" data-name="패스 1823" d="M752.124,324.138a1.628,1.628,0,0,1,.013.175l.052,18.521a3.843,3.843,0,0,1-1.744,3.018l-28.288,16.332c-.965.557-1.753.112-1.756-1l-.053-18.521v.129l15.918-.045Z" transform="translate(-720.349 -324.138)" fill="#fff"/>
        </g>
        <g id="그룹_1583" data-name="그룹 1583" transform="translate(0.222 19.674)">
          <path id="패스_1824" data-name="패스 1824" d="M732.417,368.027l-15.7.044,1.458.847v.129L734.1,369Z" transform="translate(-716.72 -368.027)" fill="#fff"/>
        </g>
        <path id="패스_1825" data-name="패스 1825" d="M717.9,387.313l-.053-18.521-1.68-.976.052,18.521a1.221,1.221,0,0,0,.51,1.119l1.68.976A1.22,1.22,0,0,1,717.9,387.313Z" transform="translate(-716.169 -348.227)" fill="#f2f2f2"/>
        <path id="패스_1826" data-name="패스 1826" d="M747.444,319.185a1.233,1.233,0,0,0-1.243.121l-28.288,16.333a3.849,3.849,0,0,0-1.744,3.017l1.68.976a3.85,3.85,0,0,1,1.744-3.018l28.288-16.332a1.231,1.231,0,0,1,1.242-.121Z" transform="translate(-716.169 -319.068)" fill="#e6e6e6"/>
        <g id="그룹_1584" data-name="그룹 1584" transform="translate(1.68 0.976)">
          <path id="패스_1827" data-name="패스 1827" d="M750.382,321.736c.91-.526,1.664-.155,1.743.822l-15.857,18.613-15.918.045v-.129a3.849,3.849,0,0,1,1.744-3.018Z" transform="translate(-720.349 -321.497)" fill="#f2f2f2"/>
        </g>
      </g>
      <g id="그룹_1592" data-name="그룹 1592" transform="translate(18.331 12.587)">
        <g id="그룹_1586" data-name="그룹 1586" transform="translate(3.661 2.487)">
          <path id="패스_1828" data-name="패스 1828" d="M772.075,286.193l.9-5.643.241-.139-1.027,6.415a.26.26,0,0,1-.115.174c-.057.033-.106.017-.117-.04L770.9,281.75l.242-.14Z" transform="translate(-770.899 -280.411)" fill="#b3b3b3"/>
        </g>
        <g id="그룹_1587" data-name="그룹 1587" transform="translate(0.8 4.14)">
          <path id="패스_1829" data-name="패스 1829" d="M764.953,290.306l.9-5.644.24-.138-1.028,6.415a.26.26,0,0,1-.115.174c-.055.032-.1.016-.115-.041l-1.062-5.208.241-.139Z" transform="translate(-763.778 -284.524)" fill="#b3b3b3"/>
        </g>
        <g id="그룹_1588" data-name="그룹 1588" transform="translate(0.404 3.304)">
          <path id="패스_1830" data-name="패스 1830" d="M763.028,282.5l.353,1.734-.241.139-.344-1.685a.254.254,0,0,1,.091-.214l.024-.016C762.968,282.427,763.017,282.442,763.028,282.5Z" transform="translate(-762.794 -282.443)" fill="#b3b3b3"/>
        </g>
        <g id="그룹_1589" data-name="그룹 1589" transform="translate(0 1.806)">
          <path id="패스_1831" data-name="패스 1831" d="M768.45,278.732c.066-.038.119-.01.119.065a.26.26,0,0,1-.119.206l-.682.393-.241.139-1.837,1.06-.242.14-.542.313-.24.138-1.838,1.062-.241.139-.682.394c-.064.037-.117.006-.117-.069a.254.254,0,0,1,.117-.2l.634-.366.241-.139,1.936-1.117.24-.139.445-.257.242-.14,1.934-1.117.241-.139Z" transform="translate(-761.788 -278.715)" fill="#b3b3b3"/>
        </g>
        <g id="그룹_1590" data-name="그룹 1590" transform="translate(5.788)">
          <path id="패스_1832" data-name="패스 1832" d="M776.673,274.225c.064-.02.1.028.092.108l-.332,2.075-.241.139.342-2.135a.266.266,0,0,1,.117-.177A.109.109,0,0,1,776.673,274.225Z" transform="translate(-776.192 -274.221)" fill="#b3b3b3"/>
        </g>
        <g id="그룹_1591" data-name="그룹 1591" transform="translate(2.927 1.652)">
          <path id="패스_1833" data-name="패스 1833" d="M769.646,278.391l.353,1.733-.242.14-.226-1.11-.219,1.367-.24.139.342-2.135a.264.264,0,0,1,.115-.176C769.586,278.315,769.633,278.335,769.646,278.391Z" transform="translate(-769.072 -278.332)" fill="#b3b3b3"/>
        </g>
      </g>
    </g>
    <g id="그룹_1645" data-name="그룹 1645" transform="translate(380.39 296.548)">
      <g id="그룹_1622" data-name="그룹 1622" transform="translate(17.113)">
        <g id="그룹_1597" data-name="그룹 1597" transform="translate(0 22.215)">
          <g id="그룹_1596" data-name="그룹 1596" style="isolation: isolate">
            <g id="그룹_1594" data-name="그룹 1594" transform="translate(0 5.307)">
              <path id="패스_1834" data-name="패스 1834" d="M848.883,635.876l-.008,2.687c0,1.356-.895,2.71-2.675,3.745a14.35,14.35,0,0,1-13.022,0c-1.815-1.048-2.722-2.424-2.718-3.8l.008-2.687c0,1.374.9,2.75,2.718,3.8a14.351,14.351,0,0,0,13.022,0C847.988,638.586,848.879,637.231,848.883,635.876Z" transform="translate(-830.46 -635.823)" fill="#f1cc7b"/>
            </g>
            <g id="그룹_1595" data-name="그룹 1595" transform="translate(0.008)">
              <path id="패스_1835" data-name="패스 1835" d="M846.176,624.178c3.608,2.083,3.627,5.459.043,7.542a14.351,14.351,0,0,1-13.022,0c-3.607-2.083-3.626-5.461-.043-7.544A14.351,14.351,0,0,1,846.176,624.178Z" transform="translate(-830.479 -622.616)" fill="#f6db96"/>
            </g>
          </g>
        </g>
        <g id="그룹_1601" data-name="그룹 1601" transform="translate(0 17.817)">
          <g id="그룹_1600" data-name="그룹 1600" style="isolation: isolate">
            <g id="그룹_1598" data-name="그룹 1598" transform="translate(0 5.307)">
              <path id="패스_1836" data-name="패스 1836" d="M848.883,624.932l-.008,2.687c0,1.356-.895,2.71-2.675,3.745a14.351,14.351,0,0,1-13.022,0c-1.815-1.048-2.722-2.424-2.718-3.8l.008-2.687c0,1.374.9,2.75,2.718,3.8a14.35,14.35,0,0,0,13.022,0C847.988,627.642,848.879,626.287,848.883,624.932Z" transform="translate(-830.46 -624.879)" fill="#f1cc7b"/>
            </g>
            <g id="그룹_1599" data-name="그룹 1599" transform="translate(0.008)">
              <path id="패스_1837" data-name="패스 1837" d="M846.176,613.234c3.608,2.083,3.627,5.459.043,7.542a14.35,14.35,0,0,1-13.022,0c-3.607-2.083-3.626-5.461-.043-7.544A14.35,14.35,0,0,1,846.176,613.234Z" transform="translate(-830.479 -611.672)" fill="#f6db96"/>
            </g>
          </g>
        </g>
        <g id="그룹_1605" data-name="그룹 1605" transform="translate(0 13.352)">
          <g id="그룹_1604" data-name="그룹 1604" style="isolation: isolate">
            <g id="그룹_1602" data-name="그룹 1602" transform="translate(0 5.307)">
              <path id="패스_1838" data-name="패스 1838" d="M848.883,613.82l-.008,2.687c0,1.356-.895,2.71-2.675,3.745a14.351,14.351,0,0,1-13.022,0c-1.815-1.048-2.722-2.424-2.718-3.8l.008-2.687c0,1.374.9,2.75,2.718,3.8a14.35,14.35,0,0,0,13.022,0C847.988,616.53,848.879,615.176,848.883,613.82Z" transform="translate(-830.46 -613.767)" fill="#f1cc7b"/>
            </g>
            <g id="그룹_1603" data-name="그룹 1603" transform="translate(0.008)">
              <path id="패스_1839" data-name="패스 1839" d="M846.176,602.122c3.608,2.083,3.627,5.459.043,7.542a14.35,14.35,0,0,1-13.022,0c-3.607-2.083-3.626-5.461-.043-7.544A14.351,14.351,0,0,1,846.176,602.122Z" transform="translate(-830.479 -600.56)" fill="#f6db96"/>
            </g>
          </g>
        </g>
        <g id="그룹_1609" data-name="그룹 1609" transform="translate(0 8.887)">
          <g id="그룹_1608" data-name="그룹 1608" style="isolation: isolate">
            <g id="그룹_1606" data-name="그룹 1606" transform="translate(0 5.307)">
              <path id="패스_1840" data-name="패스 1840" d="M848.883,602.708l-.008,2.687c0,1.356-.895,2.71-2.675,3.744a14.349,14.349,0,0,1-13.022,0c-1.815-1.048-2.722-2.424-2.718-3.8l.008-2.687c0,1.374.9,2.75,2.718,3.8a14.349,14.349,0,0,0,13.022,0C847.988,605.419,848.879,604.064,848.883,602.708Z" transform="translate(-830.46 -602.656)" fill="#f1cc7b"/>
            </g>
            <g id="그룹_1607" data-name="그룹 1607" transform="translate(0.008)">
              <path id="패스_1841" data-name="패스 1841" d="M846.176,591.011c3.608,2.083,3.627,5.459.043,7.542a14.349,14.349,0,0,1-13.022,0c-3.607-2.083-3.626-5.461-.043-7.544A14.35,14.35,0,0,1,846.176,591.011Z" transform="translate(-830.479 -589.449)" fill="#f6db96"/>
            </g>
          </g>
        </g>
        <g id="그룹_1615" data-name="그룹 1615" transform="translate(0 4.422)">
          <g id="그룹_1612" data-name="그룹 1612" style="isolation: isolate">
            <g id="그룹_1610" data-name="그룹 1610" transform="translate(0 5.307)">
              <path id="패스_1842" data-name="패스 1842" d="M848.883,591.6l-.008,2.687c0,1.356-.895,2.71-2.675,3.745a14.351,14.351,0,0,1-13.022,0c-1.815-1.048-2.722-2.424-2.718-3.8l.008-2.687c0,1.374.9,2.75,2.718,3.8a14.35,14.35,0,0,0,13.022,0C847.988,594.307,848.879,592.952,848.883,591.6Z" transform="translate(-830.46 -591.544)" fill="#f1cc7b"/>
            </g>
            <g id="그룹_1611" data-name="그룹 1611" transform="translate(0.008)">
              <path id="패스_1843" data-name="패스 1843" d="M846.176,579.9c3.608,2.083,3.627,5.459.043,7.542a14.35,14.35,0,0,1-13.022,0c-3.607-2.083-3.626-5.461-.043-7.544A14.351,14.351,0,0,1,846.176,579.9Z" transform="translate(-830.479 -578.337)" fill="#f6db96"/>
            </g>
          </g>
          <g id="그룹_1613" data-name="그룹 1613" transform="translate(2.85 1.646)">
            <path id="패스_1844" data-name="패스 1844" d="M845.858,583.732l3.918,3.429-.066.039-1.059.616-.066.038-4.893-1.863,3.232,2.828-.066.039-1.059.615-.066.039-5.933-2.258-.857.5-1.01-.583.65-.378-1.031-.392,1.125-.654,1.031.393,1.37-.8-.681-.6,1.125-.654,1.038.388,1.37-.8-.681-.6,1.125-.654.681.6.65-.378,1.011.583Zm-2.081,1.209,2.818,1.072-1.86-1.629-.958.557m-.037,2.73-1.86-1.628-.956.555,2.816,1.073" transform="translate(-837.552 -582.432)" fill="#b9a471"/>
          </g>
          <g id="그룹_1614" data-name="그룹 1614" transform="translate(2.939 1.486)">
            <path id="패스_1845" data-name="패스 1845" d="M846.081,583.335,850,586.764l-.066.038-1.059.616-.066.039-4.893-1.863,3.232,2.828-.066.038-1.059.616-.066.038-5.933-2.258-.857.5-1.01-.583.65-.378L837.775,586l1.125-.654,1.031.392,1.37-.8-.68-.6,1.125-.654,1.038.388,1.37-.8-.681-.6,1.125-.654.681.6.65-.378,1.01.583ZM844,584.544l2.817,1.072-1.86-1.628-.957.556m-.037,2.731-1.86-1.629-.956.555,2.816,1.073" transform="translate(-837.775 -582.035)" fill="#f1cc7b"/>
          </g>
        </g>
        <g id="그룹_1621" data-name="그룹 1621">
          <g id="그룹_1618" data-name="그룹 1618" style="isolation: isolate">
            <g id="그룹_1616" data-name="그룹 1616" transform="translate(0 5.307)">
              <path id="패스_1846" data-name="패스 1846" d="M848.883,580.593l-.008,2.687c0,1.356-.895,2.71-2.675,3.745a14.351,14.351,0,0,1-13.022,0c-1.815-1.048-2.722-2.424-2.718-3.8l.008-2.687c0,1.374.9,2.75,2.718,3.8a14.351,14.351,0,0,0,13.022,0C847.988,583.3,848.879,581.948,848.883,580.593Z" transform="translate(-830.46 -580.54)" fill="#f1cc7b"/>
            </g>
            <g id="그룹_1617" data-name="그룹 1617" transform="translate(0.008)">
              <path id="패스_1847" data-name="패스 1847" d="M846.176,568.9c3.608,2.083,3.627,5.459.043,7.542a14.35,14.35,0,0,1-13.022,0c-3.607-2.083-3.626-5.461-.043-7.544A14.351,14.351,0,0,1,846.176,568.9Z" transform="translate(-830.479 -567.333)" fill="#f6db96"/>
            </g>
          </g>
          <g id="그룹_1619" data-name="그룹 1619" transform="translate(2.85 1.646)">
            <path id="패스_1848" data-name="패스 1848" d="M845.858,572.728l3.918,3.429-.066.039-1.059.616-.066.038-4.893-1.863,3.232,2.828-.066.039-1.059.615-.066.039-5.933-2.258-.857.5-1.01-.583.65-.378-1.031-.392,1.125-.654,1.031.393,1.37-.8-.681-.6,1.125-.654,1.038.388,1.37-.8-.681-.6,1.125-.654.681.6.65-.378,1.011.583Zm-2.081,1.209,2.818,1.072-1.86-1.629-.958.557m-.037,2.73-1.86-1.628-.956.555,2.816,1.073" transform="translate(-837.552 -571.428)" fill="#b9a471"/>
          </g>
          <g id="그룹_1620" data-name="그룹 1620" transform="translate(2.939 1.486)">
            <path id="패스_1849" data-name="패스 1849" d="M846.081,572.331,850,575.76l-.066.038-1.059.616-.066.039-4.893-1.863,3.232,2.828-.066.038-1.059.616-.066.038-5.933-2.258-.857.5-1.01-.583.65-.378L837.775,575l1.125-.654,1.031.392,1.37-.8-.68-.6,1.125-.654,1.038.388,1.37-.8-.681-.6,1.125-.654.681.6.65-.378,1.01.583ZM844,573.54l2.817,1.072-1.86-1.628-.957.556m-.037,2.731-1.86-1.629-.956.555,2.816,1.073" transform="translate(-837.775 -571.031)" fill="#f1cc7b"/>
          </g>
        </g>
      </g>
      <g id="그룹_1626" data-name="그룹 1626" transform="translate(0 32.744)">
        <g id="그룹_1625" data-name="그룹 1625" style="isolation: isolate">
          <g id="그룹_1623" data-name="그룹 1623" transform="translate(0 5.307)">
            <path id="패스_1850" data-name="패스 1850" d="M806.3,662.079l-.008,2.687c0,1.356-.9,2.71-2.676,3.745a14.35,14.35,0,0,1-13.022,0c-1.815-1.048-2.722-2.424-2.718-3.8l.008-2.687c0,1.374.9,2.75,2.718,3.8a14.349,14.349,0,0,0,13.022,0C805.4,664.789,806.291,663.435,806.3,662.079Z" transform="translate(-787.872 -662.027)" fill="#f1cc7b"/>
          </g>
          <g id="그룹_1624" data-name="그룹 1624" transform="translate(0.008)">
            <path id="패스_1851" data-name="패스 1851" d="M803.589,650.382c3.607,2.083,3.626,5.459.042,7.542a14.35,14.35,0,0,1-13.022,0c-3.607-2.083-3.626-5.461-.042-7.543A14.349,14.349,0,0,1,803.589,650.382Z" transform="translate(-787.891 -648.819)" fill="#f6db96"/>
          </g>
        </g>
      </g>
      <g id="그룹_1630" data-name="그룹 1630" transform="translate(0 28.347)">
        <g id="그룹_1629" data-name="그룹 1629" style="isolation: isolate">
          <g id="그룹_1627" data-name="그룹 1627" transform="translate(0 5.307)">
            <path id="패스_1852" data-name="패스 1852" d="M806.3,651.135l-.008,2.688c0,1.356-.9,2.71-2.676,3.745a14.35,14.35,0,0,1-13.022,0c-1.815-1.048-2.722-2.424-2.718-3.8l.008-2.687c0,1.374.9,2.75,2.718,3.8a14.349,14.349,0,0,0,13.022,0C805.4,653.846,806.291,652.491,806.3,651.135Z" transform="translate(-787.872 -651.083)" fill="#f1cc7b"/>
          </g>
          <g id="그룹_1628" data-name="그룹 1628" transform="translate(0.008)">
            <path id="패스_1853" data-name="패스 1853" d="M803.589,639.438c3.607,2.083,3.626,5.459.042,7.542a14.349,14.349,0,0,1-13.022,0c-3.607-2.083-3.626-5.461-.042-7.544A14.351,14.351,0,0,1,803.589,639.438Z" transform="translate(-787.891 -637.876)" fill="#f6db96"/>
          </g>
        </g>
      </g>
      <g id="그룹_1634" data-name="그룹 1634" transform="translate(0 23.881)">
        <g id="그룹_1633" data-name="그룹 1633" style="isolation: isolate">
          <g id="그룹_1631" data-name="그룹 1631" transform="translate(0 5.307)">
            <path id="패스_1854" data-name="패스 1854" d="M806.3,640.024l-.008,2.687c0,1.356-.9,2.71-2.676,3.745a14.35,14.35,0,0,1-13.022,0c-1.815-1.048-2.722-2.424-2.718-3.8l.008-2.687c0,1.374.9,2.75,2.718,3.8a14.35,14.35,0,0,0,13.022,0C805.4,642.734,806.291,641.379,806.3,640.024Z" transform="translate(-787.872 -639.971)" fill="#f1cc7b"/>
          </g>
          <g id="그룹_1632" data-name="그룹 1632" transform="translate(0.008)">
            <path id="패스_1855" data-name="패스 1855" d="M803.589,628.326c3.607,2.083,3.626,5.459.042,7.542a14.35,14.35,0,0,1-13.022,0c-3.607-2.083-3.626-5.461-.042-7.544A14.351,14.351,0,0,1,803.589,628.326Z" transform="translate(-787.891 -626.764)" fill="#f6db96"/>
          </g>
        </g>
      </g>
      <g id="그룹_1638" data-name="그룹 1638" transform="translate(0 19.416)">
        <g id="그룹_1637" data-name="그룹 1637" style="isolation: isolate">
          <g id="그룹_1635" data-name="그룹 1635" transform="translate(0 5.307)">
            <path id="패스_1856" data-name="패스 1856" d="M806.3,628.912l-.008,2.687c0,1.356-.9,2.71-2.676,3.745a14.35,14.35,0,0,1-13.022,0c-1.815-1.048-2.722-2.424-2.718-3.8l.008-2.687c0,1.374.9,2.75,2.718,3.8a14.351,14.351,0,0,0,13.022,0C805.4,631.622,806.291,630.268,806.3,628.912Z" transform="translate(-787.872 -628.859)" fill="#f1cc7b"/>
          </g>
          <g id="그룹_1636" data-name="그룹 1636" transform="translate(0.008)">
            <path id="패스_1857" data-name="패스 1857" d="M803.589,617.214c3.607,2.083,3.626,5.459.042,7.542a14.35,14.35,0,0,1-13.022,0c-3.607-2.083-3.626-5.46-.042-7.544A14.351,14.351,0,0,1,803.589,617.214Z" transform="translate(-787.891 -615.652)" fill="#f6db96"/>
          </g>
        </g>
      </g>
      <g id="그룹_1644" data-name="그룹 1644" transform="translate(0 14.951)">
        <g id="그룹_1641" data-name="그룹 1641" style="isolation: isolate">
          <g id="그룹_1639" data-name="그룹 1639" transform="translate(0 5.307)">
            <path id="패스_1858" data-name="패스 1858" d="M806.3,617.8l-.008,2.687c0,1.356-.9,2.71-2.676,3.745a14.351,14.351,0,0,1-13.022,0c-1.815-1.048-2.722-2.424-2.718-3.8l.008-2.687c0,1.374.9,2.75,2.718,3.8a14.351,14.351,0,0,0,13.022,0C805.4,620.51,806.291,619.156,806.3,617.8Z" transform="translate(-787.872 -617.748)" fill="#f1cc7b"/>
          </g>
          <g id="그룹_1640" data-name="그룹 1640" transform="translate(0.008)">
            <path id="패스_1859" data-name="패스 1859" d="M803.589,606.1c3.607,2.083,3.626,5.459.042,7.542a14.35,14.35,0,0,1-13.022,0c-3.607-2.083-3.626-5.461-.042-7.544A14.351,14.351,0,0,1,803.589,606.1Z" transform="translate(-787.891 -604.541)" fill="#f6db96"/>
          </g>
        </g>
        <g id="그룹_1642" data-name="그룹 1642" transform="translate(2.85 1.646)">
          <path id="패스_1860" data-name="패스 1860" d="M803.27,609.935l3.918,3.429-.066.039-1.059.615-.066.039-4.893-1.863,3.232,2.828-.066.039-1.059.615-.066.039-5.933-2.259-.858.5-1.01-.583.65-.378-1.031-.393,1.125-.654,1.031.392,1.37-.8-.681-.6,1.125-.654,1.038.388,1.37-.8-.681-.6,1.125-.654.681.6.65-.378,1.01.583Zm-2.081,1.21,2.817,1.072-1.86-1.629-.957.557m-.036,2.73-1.86-1.629-.956.555,2.816,1.073" transform="translate(-794.964 -608.636)" fill="#b9a471"/>
        </g>
        <g id="그룹_1643" data-name="그룹 1643" transform="translate(2.94 1.486)">
          <path id="패스_1861" data-name="패스 1861" d="M803.494,609.539l3.918,3.429-.066.038-1.059.616-.066.038-4.893-1.863,3.232,2.828-.066.039-1.059.616-.066.038-5.933-2.258-.857.5-1.01-.583.65-.378-1.031-.392,1.125-.654,1.031.393,1.37-.8-.681-.6,1.125-.654,1.038.388,1.37-.8-.681-.6,1.125-.654.681.6.65-.378,1.01.583Zm-2.081,1.209,2.818,1.072-1.86-1.629-.958.557m-.037,2.73-1.86-1.628-.955.555,2.815,1.073" transform="translate(-795.188 -608.239)" fill="#f1cc7b"/>
        </g>
      </g>
    </g>
  </g>
</svg>
