<svg xmlns="http://www.w3.org/2000/svg" width="28" height="26.223" viewBox="0 0 28 26.223">
    <defs>
        <clipPath id="ll6hsdj6xa">
            <path data-name="사각형 11" style="fill:none" d="M0 0h28v26.223H0z"/>
        </clipPath>
    </defs>
    <g data-name="그룹 3" style="clip-path:url(#ll6hsdj6xa)">
        <path data-name="패스 1" d="M2263.643-151.016a7.368 7.368 0 0 1-7.36-7.361 7.369 7.369 0 0 1 7.36-7.361 7.369 7.369 0 0 1 7.361 7.361 7.368 7.368 0 0 1-7.361 7.361m0-13.463a6.109 6.109 0 0 0-6.1 6.1 6.109 6.109 0 0 0 6.1 6.1 6.109 6.109 0 0 0 6.1-6.1 6.109 6.109 0 0 0-6.1-6.1" transform="translate(-2249.646 177.239)" style="fill:#fff"/>
        <path data-name="패스 2" d="m2282.5-178.707-.165-1.248a6.067 6.067 0 0 0 2.246-.766 6.061 6.061 0 0 0 2.843-3.705 6.059 6.059 0 0 0-.609-4.631 6.109 6.109 0 0 0-8.335-2.233 6.041 6.041 0 0 0-1.906 1.723l-1.023-.733a7.3 7.3 0 0 1 2.3-2.079 7.309 7.309 0 0 1 5.585-.735 7.312 7.312 0 0 1 4.469 3.429 7.31 7.31 0 0 1 .735 5.586 7.312 7.312 0 0 1-3.429 4.47 7.325 7.325 0 0 1-2.71.924" transform="translate(-2260.893 193.37)" style="fill:#fff"/>
        <path data-name="패스 3" d="M2246.717-178.7a7.325 7.325 0 0 1-2.7-.922 7.371 7.371 0 0 1-2.694-10.056 7.369 7.369 0 0 1 10.055-2.693 7.321 7.321 0 0 1 3 9.457l-1.143-.528a6.067 6.067 0 0 0-2.491-7.839 6.107 6.107 0 0 0-8.335 2.233 6.109 6.109 0 0 0 2.233 8.336 6.074 6.074 0 0 0 2.238.764z" transform="translate(-2240.337 193.363)" style="fill:#fff"/>
        <path data-name="패스 4" d="M2269.959-141.256a4.026 4.026 0 0 1-2.856-1.182l.89-.889a2.785 2.785 0 0 0 3.934 0l.89.889a4.028 4.028 0 0 1-2.857 1.182" transform="translate(-2255.962 164.156)" style="fill:#fff"/>
        <path data-name="사각형 5" transform="translate(11.441 16.555)" style="fill:#fff" d="M0 0h1.259v1.581H0z"/>
        <path data-name="사각형 6" transform="translate(15.295 16.555)" style="fill:#fff" d="M0 0h1.259v1.581H0z"/>
        <path data-name="패스 5" d="M2253.787-169.192a4.026 4.026 0 0 1-2.857-1.182l.89-.889a2.785 2.785 0 0 0 3.933 0l.89.889a4.027 4.027 0 0 1-2.857 1.182" transform="translate(-2246.521 180.465)" style="fill:#fff"/>
        <path data-name="사각형 7" transform="translate(4.71 4.926)" style="fill:#fff" d="M0 0h1.259v1.581H0z"/>
        <path data-name="사각형 8" transform="translate(8.564 4.926)" style="fill:#fff" d="M0 0h1.259v1.581H0z"/>
        <path data-name="패스 6" d="M2286.131-169.192a4.027 4.027 0 0 1-2.856-1.182l.89-.889a2.765 2.765 0 0 0 1.967.815 2.764 2.764 0 0 0 1.967-.815l.89.889a4.026 4.026 0 0 1-2.857 1.182" transform="translate(-2265.403 180.465)" style="fill:#fff"/>
        <path data-name="사각형 9" transform="translate(22.027 4.926)" style="fill:#fff" d="M0 0h1.259v1.581H0z"/>
        <path data-name="사각형 10" transform="translate(18.173 4.926)" style="fill:#fff" d="M0 0h1.259v1.581H0z"/>
    </g>
</svg>
