<svg xmlns="http://www.w3.org/2000/svg" width="27" height="27.001" viewBox="0 0 27 27.001">
    <path data-name="패스 4" d="M329.731 529.123h-5.689l-.5-2.833a11.183 11.183 0 0 1-1.829-.759l-2.359 1.646-4.023-4.023 1.652-2.354a11.238 11.238 0 0 1-.759-1.829l-2.836-.5v-5.689l2.832-.5a10.975 10.975 0 0 1 .763-1.831l-1.65-2.358 4.023-4.028 2.358 1.656a11.051 11.051 0 0 1 1.829-.759l.5-2.836h5.691l.5 2.835a11.123 11.123 0 0 1 1.829.756l2.358-1.651 4.028 4.027-1.652 2.358a11.2 11.2 0 0 1 .759 1.831l2.832.5v5.689l-2.836.5a11.294 11.294 0 0 1-.755 1.825l1.652 2.359-4.027 4.022-2.358-1.646a10.994 10.994 0 0 1-1.831.759zm-4.549-1.359h3.41l.449-2.551.417-.113a9.676 9.676 0 0 0 2.307-.956l.375-.216 2.123 1.484 2.415-2.412-1.486-2.122.215-.375a9.869 9.869 0 0 0 .954-2.308l.113-.415 2.554-.454v-3.41l-2.549-.45-.114-.416a9.866 9.866 0 0 0-.958-2.31l-.215-.375 1.486-2.122-2.413-2.415-2.123 1.486-.374-.213a9.659 9.659 0 0 0-2.308-.954l-.42-.111-.45-2.556h-3.408l-.45 2.554-.417.113a9.737 9.737 0 0 0-2.307.958l-.375.216-2.125-1.492-2.41 2.413 1.486 2.125-.215.375a9.736 9.736 0 0 0-.962 2.307l-.113.417-2.55.45v3.41l2.554.454.113.415a9.846 9.846 0 0 0 .958 2.311l.215.374L317.1 523l2.411 2.411 2.122-1.482.374.213a9.907 9.907 0 0 0 2.31.958l.417.113zm1.7-6.071a6.069 6.069 0 1 1 6.073-6.069 6.076 6.076 0 0 1-6.071 6.069zm0-10.779a4.71 4.71 0 1 0 4.714 4.709 4.715 4.715 0 0 0-4.712-4.708z" transform="translate(-313.386 -502.122)" style="fill:#fff"/>
</svg>
