<svg xmlns="http://www.w3.org/2000/svg" width="27.899" height="23.913" viewBox="0 0 27.899 23.913">
    <path d="M91.377 84.911a1.263 1.263 0 0 0-2.136-.669l-2.628 2.628a.784.784 0 0 1-1.109 0l-1.021-1.021a.785.785 0 0 1 0-1.107l2.628-2.628a1.26 1.26 0 0 0-.658-2.134 6.087 6.087 0 0 0-5.716 1.992 6.151 6.151 0 0 0-1.337 5.439 2.7 2.7 0 0 0-.333.284l-.815.823-3.052-3.023 1.9-1.9a1.843 1.843 0 0 0 0-2.613l-.875-.879a1.5 1.5 0 0 0-1.979-.115 10.427 10.427 0 0 1-4.747 2.4 1.5 1.5 0 0 0-.854.426l-4.533 4.531a1.85 1.85 0 0 0 0 2.613l2 2a1.85 1.85 0 0 0 2.613 0L70.6 90.1l3.066 3.045-4.866 4.912a2.732 2.732 0 0 0 0 3.868l.73.728a2.713 2.713 0 0 0 1.934.8 2.721 2.721 0 0 0 1.936-.8l4.879-4.93 5.089 5.054a2.706 2.706 0 0 0 1.932.8 2.711 2.711 0 0 0 1.932-.8l.733-.73a2.744 2.744 0 0 0 0-3.871L82.861 93.1l.8-.809a2.933 2.933 0 0 0 .276-.323 6.2 6.2 0 0 0 1.422.167 6.1 6.1 0 0 0 4.321-1.8 6.141 6.141 0 0 0 1.697-5.424zm-23.488 6.206a.652.652 0 0 1-.92 0l-2-2a.66.66 0 0 1-.193-.461.641.641 0 0 1 .191-.459l4.531-4.533a.293.293 0 0 1 .173-.084 11.611 11.611 0 0 0 5.327-2.646.277.277 0 0 1 .179-.064.3.3 0 0 1 .21.086l.875.877a.651.651 0 0 1 0 .922l-1.9 1.9-.438.438zm3.562-1.866 2.905-2.908L77.4 89.37l-2.893 2.922zm5.984 7.63-4.879 4.928a1.53 1.53 0 0 1-2.173 0l-.733-.73a1.538 1.538 0 0 1 0-2.177l4.866-4.916 4.584-4.625.72-.728.019.039c.053.107.107.214.165.319l.012.023c.062.113.13.222.2.329l.056.084c.056.082.113.163.171.241l.064.084c.08.1.16.2.247.3l.019.019c.076.086.154.171.235.251l.091.088c.064.06.126.117.191.175.031.027.06.056.093.082.088.074.179.148.272.22l.014.012c.1.074.2.144.3.212l.086.056c.08.051.163.1.245.15l.084.047c.111.062.222.121.337.175l-.71.716-4.576 4.625zm9.692 2.144a1.541 1.541 0 0 1 0 2.175l-.733.733a1.529 1.529 0 0 1-1.086.451 1.531 1.531 0 0 1-1.089-.453l-5.091-5.056 2.893-2.922zm1.708-9.531a4.906 4.906 0 0 1-4.99 1.206 4.847 4.847 0 0 1-1.4-.712 4.949 4.949 0 0 1-.8-.726 4.769 4.769 0 0 1-.984-1.749v-.012a4.956 4.956 0 0 1 .977-4.737 4.9 4.9 0 0 1 3.7-1.687 5.006 5.006 0 0 1 .905.082.049.049 0 0 1 .043.041.065.065 0 0 1-.016.07l-2.632 2.63a1.983 1.983 0 0 0 0 2.8l1.021 1.021a1.983 1.983 0 0 0 2.8 0l2.628-2.628a.057.057 0 0 1 .066-.016.063.063 0 0 1 .047.051 4.944 4.944 0 0 1-1.366 4.365z" transform="translate(-63.576 -79.667)" style="fill:#fff"/>
</svg>
