<svg xmlns="http://www.w3.org/2000/svg" width="26" height="25.999" viewBox="0 0 26 25.999">
    <path data-name="패스 8" d="M2317.084 320.436a6.894 6.894 0 0 1-4.89-2.023l1.524-1.523a4.767 4.767 0 0 0 6.733 0l1.523 1.523a6.9 6.9 0 0 1-4.891 2.023" transform="translate(-2304.085 -300.335)" style="fill:#fff"/>
    <path data-name="패스 7" d="M2317.483 326.923a13 13 0 1 1 13-13 13.013 13.013 0 0 1-13 13m0-24.49a11.492 11.492 0 1 0 11.494 11.492 11.5 11.5 0 0 0-11.494-11.492" transform="translate(-2304.484 -300.924)" style="fill:#fff"/>
    <path data-name="사각형 18" transform="translate(8.509 8.957)" style="fill:#fff" d="M0 0h2.154v2.706H0z"/>
    <path data-name="사각형 19" transform="translate(15.335 8.957)" style="fill:#fff" d="M0 0h2.154v2.706H0z"/>
</svg>
