<?xml version="1.0" encoding="utf-8"?>
<!-- Generator: Adobe Illustrator 24.0.2, SVG Export Plug-In . SVG Version: 6.00 Build 0)  -->
<svg version="1.1" id="Layer_1" xmlns="http://www.w3.org/2000/svg" xmlns:xlink="http://www.w3.org/1999/xlink" x="0px" y="0px"
	 viewBox="0 0 18 18" style="enable-background:new 0 0 18 18;" xml:space="preserve">
<style type="text/css">
	.st0{fill:none;stroke:#FFFFFF;stroke-width:0.7087;stroke-miterlimit:10;}
</style>
<path class="st0" d="M15,8.2h-3.2c-0.8,0-1.5-0.7-1.5-1.5V3.5C10.3,2.7,11,2,11.8,2H15c0.8,0,1.5,0.7,1.5,1.5v3.2
	C16.5,7.5,15.8,8.2,15,8.2z"/>
<path class="st0" d="M6.7,8.2H3.5C2.7,8.2,2,7.5,2,6.7V3.5C2,2.7,2.7,2,3.5,2h3.2c0.8,0,1.5,0.7,1.5,1.5v3.2
	C8.2,7.5,7.5,8.2,6.7,8.2z"/>
<path class="st0" d="M6.7,16.5H3.5C2.7,16.5,2,15.8,2,15v-3.2c0-0.8,0.7-1.5,1.5-1.5h3.2c0.8,0,1.5,0.7,1.5,1.5V15
	C8.2,15.8,7.5,16.5,6.7,16.5z"/>
<circle class="st0" cx="13.4" cy="13.4" r="3.1"/>
</svg>
