<svg xmlns="http://www.w3.org/2000/svg" viewBox="0 0 297.41 337.29"><defs><style>.a{fill:#1e1e1e;}</style></defs><title>Asset 4</title><path class="a" d="M250.41,337.29H47a47,47,0,0,1-47-47V86.89a47,47,0,0,1,47-47H250.41a47.05,47.05,0,0,1,47,47v203.4A47.05,47.05,0,0,1,250.41,337.29ZM47,59.89a27,27,0,0,0-27,27v203.4a27,27,0,0,0,27,27H250.41a27,27,0,0,0,27-27V86.89a27,27,0,0,0-27-27Z"/><path class="a" d="M70.81,50.93a10,10,0,0,1-10-10V10a10,10,0,0,1,20,0V40.93A10,10,0,0,1,70.81,50.93Z"/><path class="a" d="M148.7,50.93a10,10,0,0,1-10-10V10a10,10,0,0,1,20,0V40.93A10,10,0,0,1,148.7,50.93Z"/><path class="a" d="M226.59,50.93a10,10,0,0,1-10-10V10a10,10,0,0,1,20,0V40.93A10,10,0,0,1,226.59,50.93Z"/><path class="a" d="M88.33,136.15H69.25a10,10,0,0,1,0-20H88.33a10,10,0,1,1,0,20Z"/><path class="a" d="M158.25,136.15H139.16a10,10,0,0,1,0-20h19.09a10,10,0,0,1,0,20Z"/><path class="a" d="M228.16,136.15H209.08a10,10,0,0,1,0-20h19.08a10,10,0,0,1,0,20Z"/><path class="a" d="M88.33,198.43H69.25a10,10,0,0,1,0-20H88.33a10,10,0,0,1,0,20Z"/><path class="a" d="M158.25,198.43H139.16a10,10,0,0,1,0-20h19.09a10,10,0,0,1,0,20Z"/><path class="a" d="M228.16,198.43H209.08a10,10,0,1,1,0-20h19.08a10,10,0,1,1,0,20Z"/><path class="a" d="M88.33,260.7H69.25a10,10,0,0,1,0-20H88.33a10,10,0,0,1,0,20Z"/><path class="a" d="M158.25,260.7H139.16a10,10,0,0,1,0-20h19.09a10,10,0,0,1,0,20Z"/><path class="a" d="M228.16,260.7H209.08a10,10,0,1,1,0-20h19.08a10,10,0,1,1,0,20Z"/></svg>