<svg xmlns="http://www.w3.org/2000/svg" viewBox="0 0 75.17 76.91"><defs><style>.cls-1{fill:none;stroke:#999;stroke-linecap:round;stroke-linejoin:round;stroke-width:3px;}</style></defs><title>Asset 1</title><g id="Layer_2" data-name="Layer 2"><g id="Layer_1-2" data-name="Layer 1"><path class="cls-1" d="M65,32.32a27.62,27.62,0,0,0-4.29-10.39l6.15-6.14L59.37,8.35l-6.15,6.13a27.81,27.81,0,0,0-10.36-4.29V1.5H32.31v8.69a27.85,27.85,0,0,0-10.37,4.29L15.8,8.35,8.35,15.79l6.14,6.14a27.8,27.8,0,0,0-4.3,10.39H1.5V44.6h8.69A27.75,27.75,0,0,0,14.49,55L8.35,61.12l7.45,7.45,6.14-6.14a27.69,27.69,0,0,0,10.37,4.29v8.69H42.86V66.72a27.64,27.64,0,0,0,10.36-4.29l6.15,6.14,7.46-7.45L60.68,55A27.57,27.57,0,0,0,65,44.6h8.7V32.32Z"/><path class="cls-1" d="M49.8,38.45A12.22,12.22,0,1,0,37.58,50.68,12.22,12.22,0,0,0,49.8,38.45Z"/></g></g></svg>