<?xml version="1.0" standalone="no"?>
<!DOCTYPE svg PUBLIC "-//W3C//DTD SVG 1.1//EN" "http://www.w3.org/Graphics/SVG/1.1/DTD/svg11.dtd" >
<svg xmlns="http://www.w3.org/2000/svg" xmlns:xlink="http://www.w3.org/1999/xlink" version="1.1">
<metadata></metadata>
<defs>
<font id="notokr-demilightregular" horiz-adv-x="920" >
<font-face units-per-em="1000" ascent="800" descent="-200" />
<missing-glyph horiz-adv-x="223" />
<glyph unicode=" "  horiz-adv-x="223" />
<glyph unicode="&#x09;" horiz-adv-x="223" />
<glyph unicode="&#xa0;" horiz-adv-x="223" />
<glyph unicode="!" horiz-adv-x="314" d="M129 216l-11 433l-2 98h82l-2 -98l-11 -433h-56zM157 -13q-25 0 -43 18t-18 46q0 29 18 47.5t43 18.5q26 0 44 -18.5t18 -47.5q0 -28 -18.5 -46t-43.5 -18z" />
<glyph unicode="&#x22;" horiz-adv-x="457" d="M108 493l-16 180l-2 97h88l-3 -97l-15 -180h-52zM295 493l-16 180l-2 97h88l-2 -97l-17 -180h-51z" />
<glyph unicode="#" horiz-adv-x="549" d="M101 0l28 230h-89v59h96l21 170h-95v58h102l26 207h54l-25 -207h152l27 207h54l-27 -207h90v-58h-96l-21 -170h95v-59h-102l-27 -230h-55l27 230h-152l-28 -230h-55zM191 289h152l21 170h-152z" />
<glyph unicode="$" horiz-adv-x="549" d="M466 641l-44 -49q-34 34 -64 49t-74 15q-52 0 -84 -31t-32 -81q0 -46 32.5 -78.5t78.5 -54t92 -46t78.5 -71t32.5 -113.5q0 -79 -46.5 -130t-125.5 -62v-111h-61v110q-108 11 -189 86l39 56q84 -75 173 -75q63 0 96.5 32t33.5 88q0 38 -17.5 68t-45 49.5t-61 36.5t-67 35 t-61 40t-45 56.5t-17.5 79.5q0 73 44.5 122.5t116.5 60.5v111h61v-110q87 -9 156 -83z" />
<glyph unicode="%" horiz-adv-x="914" d="M204 284q-76 0 -120 61t-44 171q0 109 44 169t120 60t120 -60t44 -169q0 -110 -44 -171t-120 -61zM204 336q46 0 73.5 46.5t27.5 133.5q0 86 -27.5 132t-73.5 46t-73.5 -46t-27.5 -132q0 -87 27.5 -133.5t73.5 -46.5zM225 -13l405 758h57l-405 -758h-57zM710 -13 q-76 0 -120 61t-44 171q0 108 44 168.5t120 60.5q75 0 119.5 -60.5t44.5 -168.5q0 -110 -44.5 -171t-119.5 -61zM710 38q46 0 73.5 47t27.5 134q0 86 -27.5 131.5t-73.5 45.5q-47 0 -74 -45t-27 -132q0 -88 27 -134.5t74 -46.5z" />
<glyph unicode="&#x26;" horiz-adv-x="669" d="M116 193q0 -62 43.5 -101.5t106.5 -39.5q74 0 145 64q-121 107 -196 228q-99 -79 -99 -151zM205 576q0 -61 36 -135q64 43 96.5 79t32.5 82q0 36 -17.5 60t-54.5 24q-42 0 -67.5 -31.5t-25.5 -78.5zM653 55l-22 -68q-76 21 -165 86q-93 -86 -209 -86q-97 0 -158.5 56.5 t-61.5 145.5q0 67 38 115.5t107 96.5q-48 96 -48 174q0 73 46 121.5t119 48.5q64 0 101 -39t37 -102q0 -34 -12.5 -64.5t-41 -59.5t-50 -46.5t-62.5 -47.5q74 -120 190 -216q71 92 107 222h75q-45 -157 -128 -264q76 -55 138 -73z" />
<glyph unicode="'" horiz-adv-x="270" d="M108 493l-16 180l-2 97h88l-3 -97l-15 -180h-52z" />
<glyph unicode="(" horiz-adv-x="331" d="M240 -196q-147 238 -147 506t147 506l50 -24q-129 -213 -129 -482t129 -482z" />
<glyph unicode=")" horiz-adv-x="331" d="M91 -196l-50 24q129 213 129 482t-129 482l50 24q147 -238 147 -506t-147 -506z" />
<glyph unicode="*" horiz-adv-x="459" d="M152 480l-40 29l62 104l-107 43l16 47l112 -29l10 120h50l9 -118l112 27l15 -47l-106 -43l62 -104l-40 -29l-77 95z" />
<glyph unicode="+" horiz-adv-x="549" d="M241 117v220h-203v61h203v220h67v-220h203v-61h-203v-220h-67z" />
<glyph unicode="," horiz-adv-x="270" d="M74 -185l-21 48q96 45 97 136q-4 -1 -12 -1q-26 0 -44 16t-18 44q0 27 18.5 43t44.5 16q34 0 53.5 -27t19.5 -74q0 -68 -37 -120.5t-101 -80.5z" />
<glyph unicode="-" horiz-adv-x="343" d="M46 247v64h253v-64h-253z" />
<glyph unicode="." horiz-adv-x="270" d="M134 -13q-25 0 -43 18t-18 46q0 29 18 47.5t43 18.5q26 0 44 -18.5t18 -47.5q0 -28 -18 -46t-44 -18z" />
<glyph unicode="/" horiz-adv-x="392" d="M11 -178l308 969h61l-309 -969h-60z" />
<glyph unicode="0" horiz-adv-x="549" d="M275 -13q-106 0 -165.5 97t-59.5 285q0 186 59.5 281t165.5 95q105 0 164 -95t59 -281q0 -188 -59 -285t-164 -97zM275 53q67 0 105.5 79t38.5 237q0 155 -38.5 232.5t-105.5 77.5q-68 0 -107 -77.5t-39 -232.5q0 -158 39 -237t107 -79z" />
<glyph unicode="1" horiz-adv-x="549" d="M89 0v68h164v561h-129v53q92 16 148 50h62v-664h149v-68h-394z" />
<glyph unicode="2" horiz-adv-x="549" d="M45 0v49q175 153 256.5 268.5t81.5 210.5q0 68 -35.5 109.5t-103.5 41.5q-81 0 -156 -87l-48 46q48 52 98.5 79.5t114.5 27.5q97 0 153.5 -58t56.5 -156q0 -105 -75 -218t-220 -249q58 6 120 6h210v-70h-453z" />
<glyph unicode="3" horiz-adv-x="549" d="M262 -13q-140 0 -232 100l42 53q83 -85 185 -85q68 0 110.5 39t42.5 103q0 152 -232 152v64q206 0 206 145q0 55 -34.5 88t-93.5 34q-83 -1 -154 -74l-45 53q94 86 202 87q93 -1 150.5 -49t57.5 -133q0 -66 -35 -111t-96 -67v-4q68 -16 112 -65t44 -122 q0 -95 -65.5 -151.5t-164.5 -56.5z" />
<glyph unicode="4" horiz-adv-x="549" d="M106 269h234v238q0 58 6 130h-5q-23 -45 -58 -106zM517 269v-65h-100v-204h-77v204h-321v53l311 475h87v-463h100z" />
<glyph unicode="5" horiz-adv-x="549" d="M259 -13q-134 0 -231 97l41 54q81 -83 183 -83q68 0 114.5 49.5t46.5 130.5q0 80 -42.5 126.5t-114.5 46.5q-58 0 -124 -44l-45 28l23 340h350v-70h-278l-20 -222q55 31 114 31q97 0 158 -59t61 -175q0 -114 -70 -182t-166 -68z" />
<glyph unicode="6" horiz-adv-x="549" d="M299 52q55 0 91.5 48t36.5 123q0 79 -34.5 124t-102.5 45q-85 0 -154 -97q8 -117 49.5 -180t113.5 -63zM492 672l-46 -51q-48 56 -118 56q-85 0 -138 -74t-56 -239q35 41 80 65t89 24q95 0 148.5 -58.5t53.5 -171.5q0 -103 -60.5 -169.5t-145.5 -66.5q-109 0 -175.5 93.5 t-66.5 267.5q0 203 76 300t192 97q97 0 167 -73z" />
<glyph unicode="7" horiz-adv-x="549" d="M200 0q9 215 55.5 364.5t152.5 297.5h-359v70h453v-49q-84 -109 -130.5 -216t-63 -208.5t-23.5 -258.5h-85z" />
<glyph unicode="8" horiz-adv-x="549" d="M277 -13q-101 0 -166.5 55t-65.5 140q0 68 39 120t97 84v4q-99 67 -99 168q0 82 56 133.5t141 51.5q91 0 145 -53.5t54 -139.5q0 -52 -30 -99.5t-69 -78.5v-5q124 -72 124 -192q0 -80 -63 -134t-163 -54zM327 394q80 68 80 152q0 58 -35 96.5t-95 38.5q-52 0 -86 -34.5 t-34 -88.5q0 -61 44 -96.5t126 -67.5zM278 48q65 0 106 36.5t41 92.5q0 30 -12 54.5t-27 41t-46.5 34.5t-52 27t-62.5 26q-106 -67 -106 -172q0 -60 45.5 -100t113.5 -40z" />
<glyph unicode="9" horiz-adv-x="549" d="M258 340q86 0 158 101q-6 115 -48.5 177.5t-116.5 62.5q-55 0 -91.5 -48t-36.5 -124q0 -78 34.5 -123.5t100.5 -45.5zM59 60l45 51q51 -56 125 -56q79 0 131 75.5t57 241.5q-76 -93 -172 -93q-93 0 -146.5 59.5t-53.5 170.5q0 103 60 169.5t146 66.5q110 0 176.5 -89 t66.5 -256q0 -210 -75 -311.5t-188 -101.5q-102 0 -172 73z" />
<glyph unicode=":" horiz-adv-x="270" d="M134 395q-25 0 -43 18t-18 46q0 29 18 47.5t43 18.5q26 0 44 -18.5t18 -47.5q0 -28 -18 -46t-44 -18zM134 -13q-25 0 -43 18t-18 46q0 29 18 47.5t43 18.5q26 0 44 -18.5t18 -47.5q0 -28 -18 -46t-44 -18z" />
<glyph unicode=";" horiz-adv-x="270" d="M134 395q-25 0 -43 18t-18 46q0 29 18 47.5t43 18.5q26 0 44 -18.5t18 -47.5q0 -28 -18 -46t-44 -18zM74 -185l-21 48q96 45 97 136q-4 -1 -12 -1q-26 0 -44 16t-18 44q0 27 18.5 43t44.5 16q34 0 53.5 -27t19.5 -74q0 -68 -37 -120.5t-101 -80.5z" />
<glyph unicode="&#x3c;" horiz-adv-x="549" d="M511 150l-473 186v67l473 187v-72l-241 -89l-149 -57v-4l149 -56l241 -90v-72z" />
<glyph unicode="=" horiz-adv-x="549" d="M38 455v62h473v-62h-473zM38 219v61h473v-61h-473z" />
<glyph unicode="&#x3e;" horiz-adv-x="549" d="M38 150v72l241 90l149 56v4l-149 57l-241 89v72l473 -187v-67z" />
<glyph unicode="?" horiz-adv-x="467" d="M179 216q-7 49 6.5 92.5t37.5 76.5t49 63t43 64t18 67q0 49 -29 81t-83 32q-75 0 -132 -65l-47 43q81 90 188 90q84 0 133.5 -48t49.5 -128q0 -40 -18.5 -78.5t-44 -70t-50.5 -63t-39.5 -72t-9.5 -84.5h-72zM218 -13q-26 0 -44 18t-18 46q0 29 18 47.5t44 18.5 q25 0 43 -18.5t18 -47.5q0 -28 -18 -46t-43 -18z" />
<glyph unicode="@" horiz-adv-x="935" d="M445 -170q-170 0 -279.5 105t-109.5 291q0 108 37.5 201.5t100.5 156t146.5 98t175.5 35.5q166 0 264 -100.5t98 -265.5q0 -135 -68 -214.5t-150 -79.5q-48 0 -78.5 21.5t-35.5 62.5h-2q-66 -77 -136 -77q-58 0 -95 42t-37 115q0 94 60 175t153 81q59 0 90 -54h2l11 45 h56l-43 -219q-34 -135 62 -135q57 0 104.5 65t47.5 169q0 141 -81 227t-228 86q-75 0 -145.5 -31t-125.5 -86t-88 -137.5t-33 -177.5q0 -159 93 -251t240 -92q95 0 182 51l23 -50q-98 -57 -211 -57zM423 122q52 0 107 68l33 181q-29 48 -75 48q-63 0 -104.5 -61.5 t-41.5 -131.5q0 -53 22 -78.5t59 -25.5z" />
<glyph unicode="A" horiz-adv-x="601" d="M184 296h231l-38 119q-28 84 -76 248h-4q-32 -115 -75 -248zM509 0l-73 231h-273l-75 -231h-83l250 732h91l251 -732h-88z" />
<glyph unicode="B" horiz-adv-x="652" d="M102 0v732h212q117 0 183.5 -43.5t66.5 -135.5q0 -56 -28.5 -99t-80.5 -60v-4q70 -13 111 -58t41 -118q0 -104 -75 -159t-202 -55h-228zM185 418h112q185 0 185 125q0 66 -44 94.5t-136 28.5h-117v-248zM185 66h132q209 0 209 151q0 137 -209 137h-132v-288z" />
<glyph unicode="C" horiz-adv-x="634" d="M374 -13q-139 0 -227 102.5t-88 276.5q0 173 90 276t231 103q118 0 199 -89l-46 -54q-63 70 -152 70q-108 0 -172.5 -82t-64.5 -222q0 -142 63 -225t171 -83q98 0 173 84l46 -52q-89 -105 -223 -105z" />
<glyph unicode="D" horiz-adv-x="683" d="M102 0v732h180q167 0 254.5 -94.5t87.5 -268.5q0 -175 -87 -272t-252 -97h-183zM185 68h90q131 0 197.5 79t66.5 222q0 142 -66 218.5t-198 76.5h-90v-596z" />
<glyph unicode="E" horiz-adv-x="584" d="M102 0v732h417v-70h-334v-241h281v-70h-281v-281h345v-70h-428z" />
<glyph unicode="F" horiz-adv-x="546" d="M102 0v732h416v-70h-333v-258h282v-70h-282v-334h-83z" />
<glyph unicode="G" horiz-adv-x="684" d="M385 -13q-146 0 -236 102t-90 277q0 174 92.5 276.5t239.5 102.5q122 0 209 -89l-46 -54q-66 70 -161 70q-114 0 -181.5 -81.5t-67.5 -222.5q0 -143 65.5 -225.5t183.5 -82.5q91 0 139 46v200h-159v69h236v-304q-81 -84 -224 -84z" />
<glyph unicode="H" horiz-adv-x="722" d="M102 0v732h83v-310h353v310h82v-732h-82v350h-353v-350h-83z" />
<glyph unicode="I" horiz-adv-x="287" d="M102 0v732h83v-732h-83z" />
<glyph unicode="J" horiz-adv-x="530" d="M234 -13q-133 0 -197 114l60 42q46 -83 130 -83q62 0 91.5 37.5t29.5 121.5v513h83v-521q0 -100 -48.5 -162t-148.5 -62z" />
<glyph unicode="K" horiz-adv-x="639" d="M102 0v732h83v-377h2l317 377h95l-230 -277l264 -455h-93l-224 390l-131 -154v-236h-83z" />
<glyph unicode="L" horiz-adv-x="536" d="M102 0v732h83v-662h323v-70h-406z" />
<glyph unicode="M" horiz-adv-x="804" d="M102 0v732h102l144 -400q9 -26 26.5 -78t26.5 -78h5q8 23 16.5 49t18.5 58t16 49l143 400h102v-732h-77v423q0 52 10 212h-4l-58 -166l-143 -394h-57l-144 394l-58 166h-4q10 -160 10 -212v-423h-75z" />
<glyph unicode="N" horiz-adv-x="718" d="M102 0v732h85l277 -474l79 -150h5q-11 161 -11 228v396h79v-732h-86l-275 474l-80 150h-5q10 -183 10 -223v-401h-78z" />
<glyph unicode="O" horiz-adv-x="737" d="M368 -13q-137 0 -223 104t-86 278q0 172 85.5 274t223.5 102t224 -101.5t86 -274.5q0 -174 -86 -278t-224 -104zM368 60q102 0 163.5 84t61.5 225q0 140 -61 221.5t-164 81.5q-102 0 -163 -82t-61 -221q0 -141 61.5 -225t162.5 -84z" />
<glyph unicode="P" horiz-adv-x="626" d="M102 0v732h203q131 0 201.5 -49.5t70.5 -162.5q0 -111 -71.5 -167.5t-196.5 -56.5h-124v-296h-83zM185 364h112q101 0 149.5 37.5t48.5 118.5q0 80 -49 112.5t-153 32.5h-108v-301z" />
<glyph unicode="Q" horiz-adv-x="737" d="M144 369q0 -143 61 -228t163 -85t163.5 85t61.5 228q0 140 -61 221.5t-164 81.5q-102 0 -163 -82t-61 -221zM675 -101l16 -65q-39 -15 -101 -15q-96 0 -164 46.5t-99 124.5q-121 16 -194.5 117.5t-73.5 261.5q0 172 85.5 274t223.5 102t224 -101.5t86 -274.5 q0 -158 -71.5 -259t-190.5 -119q50 -102 183 -102q38 0 76 10z" />
<glyph unicode="R" horiz-adv-x="627" d="M185 665v-281h128q183 0 183 145q0 73 -45.5 104.5t-137.5 31.5h-128zM598 0h-93l-183 316h-137v-316h-83v732h224q253 0 253 -203q0 -84 -45 -135.5t-125 -69.5z" />
<glyph unicode="S" horiz-adv-x="592" d="M302 -13q-152 0 -254 109l50 57q86 -93 205 -93q74 0 117.5 34.5t43.5 91.5q0 28 -8.5 49t-29 37t-37 25t-50.5 24l-106 47q-149 64 -149 186q0 83 64 137t162 54q128 0 213 -90l-44 -53q-73 70 -169 70q-64 0 -103 -30.5t-39 -81.5q0 -27 10 -47.5t31.5 -36t36.5 -23.5 t44 -20l106 -45q73 -32 112.5 -76.5t39.5 -119.5q0 -88 -67.5 -146.5t-178.5 -58.5z" />
<glyph unicode="T" horiz-adv-x="594" d="M255 0v662h-223v70h531v-70h-224v-662h-84z" />
<glyph unicode="U" horiz-adv-x="716" d="M358 -13q-118 0 -188.5 73t-70.5 237v435h83v-436q0 -236 176 -236q180 0 180 236v436h79v-435q0 -164 -70.5 -237t-188.5 -73z" />
<glyph unicode="V" horiz-adv-x="567" d="M237 0l-235 732h87l123 -404q9 -30 22.5 -77.5t25 -87t24.5 -77.5h4q16 48 39 128t34 114l121 404h84l-234 -732h-95z" />
<glyph unicode="W" horiz-adv-x="872" d="M185 0l-158 732h85l81 -407q23 -117 45 -237h4q20 93 53 237l104 407h77l105 -407q18 -77 54 -237h5q26 149 43 237l80 407h80l-154 -732h-98l-117 456q-6 28 -18 83t-18 83h-5q-6 -32 -19 -87.5t-18 -78.5l-114 -456h-97z" />
<glyph unicode="X" horiz-adv-x="563" d="M17 0l215 378l-201 354h92l104 -194q10 -18 58 -105h5q36 76 52 105l104 194h86l-201 -358l215 -374h-91l-112 204q-10 18 -31 57t-33 61h-4q-29 -59 -60 -118l-111 -204h-87z" />
<glyph unicode="Y" horiz-adv-x="523" d="M220 0v287l-220 445h88l98 -212q8 -18 22.5 -50t27 -59t24.5 -51h4q59 125 74 160l99 212h85l-220 -445v-287h-82z" />
<glyph unicode="Z" horiz-adv-x="601" d="M51 0v49l395 613h-359v70h461v-49l-394 -613h398v-70h-501z" />
<glyph unicode="[" horiz-adv-x="331" d="M106 -169v958h193v-47h-131v-864h131v-47h-193z" />
<glyph unicode="\" horiz-adv-x="392" d="M321 -178l-308 969h60l308 -969h-60z" />
<glyph unicode="]" horiz-adv-x="331" d="M32 -169v47h132v864h-132v47h193v-958h-193z" />
<glyph unicode="^" horiz-adv-x="549" d="M69 318l169 429h73l169 -429h-72l-76 204l-55 148h-5l-55 -148l-77 -204h-71z" />
<glyph unicode="_" horiz-adv-x="557" d="M13 -138v57h531v-57h-531z" />
<glyph unicode="`" horiz-adv-x="602" d="M321 639l-172 170l59 54l155 -183z" />
<glyph unicode="a" horiz-adv-x="559" d="M217 -13q-69 0 -113 40.5t-44 111.5q0 88 79.5 135t255.5 67q2 145 -115 145q-79 0 -164 -60l-33 57q108 71 210 71q94 0 138.5 -58t44.5 -161v-335h-67l-7 66h-3q-93 -79 -182 -79zM239 53q72 0 156 75v158q-139 -16 -197.5 -50.5t-58.5 -91.5q0 -46 28 -68.5t72 -22.5z " />
<glyph unicode="b" horiz-adv-x="614" d="M326 -13q-81 0 -156 69h-2l-9 -56h-64v796h81v-221l-4 -99q93 78 174 78q104 0 160 -74t56 -201q0 -134 -69 -213t-167 -79zM314 56q72 0 117.5 60.5t45.5 161.5q0 207 -150 207q-68 0 -151 -78v-292q66 -59 138 -59z" />
<glyph unicode="c" horiz-adv-x="506" d="M304 -13q-110 0 -180.5 76t-70.5 206q0 131 74.5 208t182.5 77q87 0 158 -65l-43 -54q-53 50 -112 50q-76 0 -126 -60t-50 -156t48 -155t126 -59q69 0 131 55l36 -54q-77 -69 -174 -69z" />
<glyph unicode="d" horiz-adv-x="615" d="M277 -13q-103 0 -163 74t-60 208q0 127 69 206t166 79q45 0 80 -15.5t75 -48.5l-4 94v212h81v-796h-67l-8 65h-2q-78 -78 -167 -78zM294 56q74 0 146 77v292q-68 60 -138 60t-116.5 -60.5t-46.5 -154.5q0 -100 40.5 -157t114.5 -57z" />
<glyph unicode="e" horiz-adv-x="549" d="M309 -13q-110 0 -183 76.5t-73 205.5q0 127 72 206t169 79q101 0 157 -67.5t56 -185.5q0 -32 -4 -49h-369q4 -90 54 -145t131 -55q72 0 137 44l30 -54q-86 -55 -177 -55zM133 311h302q0 86 -36.5 131.5t-103.5 45.5q-62 0 -108 -47.5t-54 -129.5z" />
<glyph unicode="f" horiz-adv-x="317" d="M347 791l-18 -63q-32 15 -62 15q-78 0 -78 -110v-93h116v-67h-116v-473h-82v473h-74v62l74 5v94q0 83 38.5 129t114.5 46q46 0 87 -18z" />
<glyph unicode="g" horiz-adv-x="557" d="M275 -251q-101 0 -162 38.5t-61 107.5q0 71 80 124v4q-49 30 -49 89q0 56 60 100v4q-29 23 -49.5 61.5t-20.5 83.5q0 86 58 139.5t142 53.5q37 0 75 -14h187v-63h-114q47 -45 47 -117q0 -85 -56 -137t-139 -52q-45 0 -83 20q-36 -31 -36 -68q0 -61 96 -61h108 q94 0 140 -31t46 -97q0 -76 -75 -130.5t-194 -54.5zM273 227q50 0 85.5 37.5t35.5 96.5q0 60 -35 96t-86 36q-52 0 -86.5 -35.5t-34.5 -96.5q0 -59 35.5 -96.5t85.5 -37.5zM286 -194q78 0 128 35t50 81q0 39 -27.5 55t-85.5 16h-99q-31 0 -69 9q-59 -42 -59 -97 q0 -45 43 -72t119 -27z" />
<glyph unicode="h" horiz-adv-x="602" d="M95 0v796h81v-221l-3 -113q46 44 88 68t93 24q165 0 165 -211v-343h-82v333q0 78 -25.5 114t-81.5 36q-41 0 -75 -20.5t-79 -67.5v-395h-81z" />
<glyph unicode="i" horiz-adv-x="269" d="M95 0v540h81v-540h-81zM136 656q-26 0 -42.5 15.5t-16.5 39.5q0 26 16.5 41t42.5 15q25 0 42 -15.5t17 -40.5q0 -24 -17.5 -39.5t-41.5 -15.5z" />
<glyph unicode="j" horiz-adv-x="270" d="M35 -245q-45 0 -77 14l16 62q35 -10 53 -10q39 0 53.5 27t14.5 82v610h81v-611q0 -174 -141 -174zM136 656q-25 0 -41.5 15.5t-16.5 39.5q0 26 16.5 41t41.5 15t42 -15t17 -41q0 -24 -17 -39.5t-42 -15.5z" />
<glyph unicode="k" horiz-adv-x="543" d="M95 0v796h79v-551h3l240 295h90l-180 -216l205 -324h-89l-163 267l-106 -124v-143h-79z" />
<glyph unicode="l" horiz-adv-x="279" d="M183 -13q-88 0 -88 112v697h81v-703q0 -38 25 -38q9 0 19 2l12 -63q-23 -7 -49 -7z" />
<glyph unicode="m" horiz-adv-x="919" d="M95 0v540h66l8 -80h3q85 94 168 94q115 0 149 -105q98 105 180 105q164 0 164 -211v-343h-82v333q0 78 -25.5 114t-79.5 36q-64 0 -142 -88v-395h-81v333q0 78 -25.5 114t-80.5 36q-65 0 -141 -88v-395h-81z" />
<glyph unicode="n" horiz-adv-x="605" d="M95 0v540h66l8 -79h3q95 93 182 93q165 0 165 -211v-343h-82v333q0 78 -25.5 114t-81.5 36q-41 0 -75 -20.5t-79 -67.5v-395h-81z" />
<glyph unicode="o" horiz-adv-x="602" d="M301 -13q-103 0 -175.5 76.5t-72.5 205.5q0 131 72 208t176 77t176.5 -77t72.5 -208q0 -129 -72.5 -205.5t-176.5 -76.5zM301 55q73 0 119 59t46 155t-46 156t-119 60t-118.5 -59.5t-45.5 -156.5q0 -96 45.5 -155t118.5 -59z" />
<glyph unicode="p" horiz-adv-x="615" d="M95 -232v772h66l8 -63h3q96 77 174 77q104 0 160 -74t56 -201q0 -134 -69 -213t-167 -79q-72 0 -152 63l2 -95v-187h-81zM314 56q72 0 117.5 60.5t45.5 161.5q0 207 -150 207q-67 0 -151 -78v-292q68 -59 138 -59z" />
<glyph unicode="q" horiz-adv-x="615" d="M440 -232v196l4 101q-80 -78 -167 -78q-103 0 -163 74t-60 208q0 127 69 206t166 79q80 0 156 -65h3l8 51h65v-772h-81zM294 56q74 0 146 77v292q-68 60 -138 60t-116.5 -60.5t-46.5 -154.5q0 -100 40.5 -157t114.5 -57z" />
<glyph unicode="r" horiz-adv-x="379" d="M95 0v540h66l8 -99h3q28 52 68 82.5t85 30.5q33 0 57 -12l-16 -71q-27 9 -51 9q-38 0 -75.5 -31t-63.5 -97v-352h-81z" />
<glyph unicode="s" horiz-adv-x="463" d="M233 -13q-111 0 -201 74l41 55q78 -65 163 -65q54 0 83 25.5t29 64.5q0 27 -21 49t-43.5 32.5t-61.5 24.5q-36 13 -59 24t-50 29.5t-40.5 44t-13.5 58.5q0 65 49 108t134 43q89 0 164 -60l-39 -53q-66 48 -125 48q-51 0 -78 -23.5t-27 -58.5q0 -25 20 -45t40.5 -28.5 t61.5 -23.5q31 -12 41 -16.5t36.5 -17t37 -22.5t25.5 -26.5t21 -37t6 -45.5q0 -68 -51.5 -113t-141.5 -45z" />
<glyph unicode="t" horiz-adv-x="369" d="M259 -13q-81 0 -115 45.5t-34 130.5v310h-82v62l85 5l9 153h69v-153h149v-67h-149v-313q0 -53 19 -79.5t66 -26.5q27 0 63 14l16 -61q-60 -20 -96 -20z" />
<glyph unicode="u" horiz-adv-x="602" d="M251 -13q-164 0 -164 210v343h81v-333q0 -78 25 -113.5t82 -35.5q42 0 76 22t76 73v387h81v-540h-67l-7 86h-3q-86 -99 -180 -99z" />
<glyph unicode="v" horiz-adv-x="511" d="M210 0l-197 540h85l107 -314q19 -64 51 -159h4q6 19 24 74t27 85l107 314h80l-193 -540h-95z" />
<glyph unicode="w" horiz-adv-x="791" d="M179 0l-152 540h83l85 -321q3 -14 33 -149h4q4 17 17 68.5t21 80.5l87 321h82l88 -321q37 -145 38 -149h4q4 17 16 68.5t19 80.5l83 321h78l-148 -540h-99l-82 301q-6 22 -38 156h-5q-23 -107 -39 -157l-79 -300h-96z" />
<glyph unicode="x" horiz-adv-x="486" d="M15 0l179 282l-165 258h88l76 -123q17 -30 55 -90h4q9 15 25.5 45t24.5 45l71 123h84l-164 -266l178 -274h-89l-83 131q-26 46 -59 98h-5q-7 -12 -57 -98l-77 -131h-86z" />
<glyph unicode="y" horiz-adv-x="512" d="M96 -236q-35 0 -62 11l17 66q22 -8 42 -8q84 0 126 122l12 42l-218 543h85l115 -309q7 -20 25.5 -72.5t28.5 -79.5h5q5 15 21 70t25 82l101 309h80l-206 -590q-65 -186 -197 -186z" />
<glyph unicode="z" horiz-adv-x="468" d="M34 0v44l292 429h-260v67h364v-43l-293 -430h302v-67h-405z" />
<glyph unicode="{" horiz-adv-x="331" d="M253 -169q-68 0 -98.5 31.5t-30.5 114.5q0 42 5 111.5t5 106.5q0 88 -96 89v52q96 1 96 86q0 38 -5 108.5t-5 111.5q0 83 30.5 115t98.5 32h46v-47h-30q-45 0 -61.5 -24t-16.5 -81q0 -33 3 -99t3 -106q0 -54 -14.5 -82t-49.5 -38v-4q35 -10 49.5 -39t14.5 -82 q0 -39 -3 -105t-3 -99q0 -57 16.5 -81t61.5 -24h30v-47h-46z" />
<glyph unicode="|" horiz-adv-x="265" d="M103 -279v1115h58v-1115h-58z" />
<glyph unicode="}" horiz-adv-x="331" d="M32 -169v47h30q45 0 61.5 24t16.5 81q0 33 -3 99t-3 105q0 53 14.5 82t49.5 39v4q-35 10 -49.5 38t-14.5 82q0 40 3 106t3 99q0 57 -16.5 81t-61.5 24h-30v47h46q68 0 98.5 -32t30.5 -115q0 -41 -5 -111.5t-5 -108.5q0 -85 96 -86v-52q-96 -1 -96 -89q0 -37 5 -106.5 t5 -111.5q0 -83 -30.5 -114.5t-98.5 -31.5h-46z" />
<glyph unicode="~" horiz-adv-x="549" d="M373 289q-37 0 -73.5 24t-68 48t-57.5 24q-49 0 -86 -69l-47 32q56 99 135 99q37 0 73.5 -24t68 -48t57.5 -24q50 0 86 68l46 -33q-55 -97 -134 -97z" />
<glyph unicode="&#xac00;" d="M103 725h407q0 -198 -100 -360t-307 -266l-41 58q173 86 267.5 215.5t107.5 291.5h-334v61zM886 455v-61h-147v-466h-73v894h73v-367h147z" />
<glyph unicode="&#xac01;" d="M94 764h410q0 -166 -110.5 -284t-309.5 -173l-29 59q165 44 262.5 132t108.5 205h-332v61zM168 194v60h578v-327h-73v267h-505zM880 592v-61h-134v-234h-73v525h73v-230h134z" />
<glyph unicode="&#xac04;" d="M93 752h414q0 -168 -112 -293t-308 -188l-30 59q163 52 261.5 146.5t110.5 215.5h-336v60zM265 232v-224h522v-61h-594v285h72zM746 546h134v-61h-134v-319h-73v656h73v-276z" />
<glyph unicode="&#xac07;" d="M94 763h410q0 -166 -110.5 -284.5t-310.5 -173.5l-28 59q166 45 263 133.5t108 205.5h-332v60zM260 202v-202h507v-60h-579v323h562v-61h-490zM746 598h134v-61h-134v-224h-73v509h73v-224z" />
<glyph unicode="&#xac08;" d="M95 776h411q0 -162 -112 -273.5t-310 -159.5l-28 61q166 38 262.5 119.5t106.5 191.5h-330v61zM257 107v-111h523v-60h-595v228h490v100h-492v60h563v-217h-489zM746 617h134v-61h-134v-191h-73v456h73v-204z" />
<glyph unicode="&#xac09;" d="M97 773h409q0 -164 -110.5 -276t-310.5 -161l-28 60q168 41 263.5 123t104.5 194h-328v60zM219 97v-102q177 0 276 20l8 -57q-102 -21 -303 -21h-52v213h217v92h-219v58h290v-203h-217zM474 240v60h272v-368h-72v308h-200zM881 612v-61h-135v-210h-73v481h73v-210h135z " />
<glyph unicode="&#xac0a;" d="M97 773h409q0 -164 -111 -274.5t-311 -158.5l-28 61q168 38 264 119.5t105 192.5h-328v60zM204 100v-102q143 0 228 16l7 -59q-89 -16 -260 -16h-46v216h209v88h-211v58h281v-201h-208zM533 245v-254h149v254h-149zM469 -65v366h277v-366h-277zM880 611v-61h-134v-207 h-73v479h73v-211h134z" />
<glyph unicode="&#xac10;" d="M94 763h411q0 -166 -111 -284.5t-311 -173.5l-28 59q166 46 263 134t108 205h-332v60zM258 209v-209h416v209h-416zM186 -60v330h560v-330h-560zM880 599v-61h-134v-226h-73v510h73v-223h134z" />
<glyph unicode="&#xac11;" d="M96 767h409q0 -164 -110.5 -277t-309.5 -163l-28 60q166 41 262 124.5t106 195.5h-329v60zM674 0v121h-417v-121h417zM674 179v117h72v-356h-562v356h73v-117h417zM880 607v-61h-134v-208h-73v484h73v-215h134z" />
<glyph unicode="&#xac12;" d="M96 768h409q0 -165 -110 -278t-309 -163l-28 60q165 40 261 124t106 196h-329v61zM389 -2v122h-166v-122h166zM389 177v112h68v-349h-303v349h69v-112h166zM694 298v-74q0 -71 41 -137.5t115 -100.5l-40 -55q-109 50 -151 169q-45 -119 -153 -169l-40 55q74 34 116 100.5 t42 135.5v76h70zM746 612h134v-61h-134v-216h-73v487h73v-210z" />
<glyph unicode="&#xac13;" d="M97 752h410q0 -168 -110.5 -291.5t-307.5 -183.5l-31 59q164 50 262 143t110 212h-333v61zM516 295v-41q0 -95 88.5 -167t210.5 -95l-30 -57q-102 21 -185 74.5t-120 129.5q-37 -78 -121 -131.5t-188 -74.5l-30 57q123 23 212.5 95t89.5 169v41h73zM772 569h109v-61h-109 v-279h-73v594h73v-254z" />
<glyph unicode="&#xac14;" d="M96 764h409q0 -166 -110.5 -285.5t-309.5 -174.5l-28 61q165 45 261.5 133t108.5 205h-331v61zM675 286v-68q0 -71 49.5 -134.5t132.5 -92.5l-37 -53q-64 24 -111 69.5t-69 102.5q-48 -130 -166 -180q-122 48 -165 178q-54 -122 -179 -170l-37 53q81 31 131.5 96 t50.5 131v68h70v-68q0 -64 33 -123t95 -94q62 38 96.5 99.5t34.5 117.5v68h71zM746 595h134v-61h-134v-212h-73v502h73v-229z" />
<glyph unicode="&#xac15;" d="M95 754h411q0 -167 -111 -289t-308 -181l-30 59q163 49 261 140.5t109 209.5h-332v61zM468 -12q100 0 159 30.5t59 82.5t-59 82t-159 30t-159 -30t-59 -82t59 -82.5t159 -30.5zM468 272q133 0 211 -46t78 -125t-78 -125.5t-211 -46.5t-211 46.5t-78 125.5t78 125t211 46z M746 586h134v-61h-134v-241h-73v537h73v-235z" />
<glyph unicode="&#xac16;" d="M96 764h409q0 -166 -110.5 -282.5t-310.5 -170.5l-27 60q168 44 263.5 130t105.5 202h-330v61zM762 203h-252q2 -75 87.5 -136.5t198.5 -81.5l-29 -56q-97 18 -178 67t-118 117q-36 -69 -117 -117.5t-179 -66.5l-28 57q115 19 199.5 79.5t86.5 137.5h-254v60h583v-60z M746 589h134v-61h-134v-220h-73v516h73v-235z" />
<glyph unicode="&#xac17;" d="M97 763h409q0 -166 -110 -279.5t-311 -163.5l-28 61q168 41 263.5 125t104.5 196h-328v61zM766 192h-260q4 -72 90.5 -131.5t199.5 -76.5l-29 -56q-98 17 -179.5 64t-118.5 113q-36 -66 -117 -113t-180 -64l-29 56q112 17 198.5 76t90.5 132h-260v60h261v109h73v-109h260 v-60zM746 609h134v-61h-134v-219h-73v493h73v-213z" />
<glyph unicode="&#xac19;" d="M95 759h413q0 -164 -110.5 -275t-310.5 -159l-29 60q168 39 263.5 121t104.5 192h-331v61zM260 95v-98h512v-57h-584v361h563v-57h-491v-94h480v-55h-480zM746 610h134v-61h-134v-207h-73v479h73v-211z" />
<glyph unicode="&#xac1a;" d="M99 762h408q0 -163 -114 -278t-308 -167l-29 61q162 43 261 128t109 196h-327v60zM378 216v-213h195v213h-195zM644 216v-213h138v-60h-610v60h134v213h-127v60h592v-60h-127zM746 604h134v-61h-134v-222h-73v501h73v-218z" />
<glyph unicode="&#xac1b;" d="M95 769h411q0 -167 -109.5 -279t-311.5 -162l-27 60q170 41 264 123.5t103 196.5h-330v61zM475 -17q84 0 131.5 19t47.5 53t-47.5 53.5t-131.5 19.5q-83 0 -130.5 -19.5t-47.5 -53.5t47 -53t131 -19zM475 182q116 0 182 -33.5t66 -93.5t-66 -93.5t-182 -33.5t-181.5 33.5 t-65.5 93.5t65.5 93.5t181.5 33.5zM512 392v-107h274v-59h-621v59h274v107h73zM746 619h134v-61h-134v-209h-73v473h73v-203z" />
<glyph unicode="&#xac1c;" d="M89 705h347q0 -394 -336 -585l-43 53q287 160 307 471h-275v61zM740 821h70v-894h-70v471h-129v-425h-69v824h69v-338h129v362z" />
<glyph unicode="&#xac1d;" d="M95 754h349q0 -158 -88.5 -278.5t-257.5 -191.5l-36 54q139 58 217 149t89 207h-273v60zM210 190v60h597v-323h-73v263h-524zM737 821h70v-527h-70v238h-126v-233h-69v505h69v-211h126v228z" />
<glyph unicode="&#xac20;" d="M611 483v-299h-69v620h69v-260h126v277h70v-668h-70v330h-126zM97 734h345q0 -160 -87.5 -282t-255.5 -195l-37 53q139 60 216.5 153t88.5 210h-270v61zM298 15h537v-61h-610v282h73v-221z" />
<glyph unicode="&#xac24;" d="M611 555v-188h-69v437h69v-189h126v207h70v-461h-70v194h-126zM98 767h344q0 -152 -88 -261.5t-255 -172.5l-35 55q138 49 215.5 130t87.5 189h-269v60zM294 0h548v-60h-620v225h513v94h-515v60h587v-211h-513v-108z" />
<glyph unicode="&#xac2c;" d="M97 754h347q0 -158 -87 -276.5t-255 -189.5l-37 54q138 57 215 146.5t88 205.5h-271v60zM295 201v-200h440v200h-440zM223 -59v320h584v-320h-584zM737 821h70v-513h-70v229h-126v-222h-69v489h69v-206h126v223z" />
<glyph unicode="&#xac2d;" d="M98 761h345q0 -157 -86.5 -272.5t-255.5 -183.5l-37 55q282 111 303 340h-269v61zM735 0v124h-438v-124h438zM735 183v112h72v-354h-582v354h72v-112h438zM737 822h70v-486h-70v206h-126v-200h-69v462h69v-201h126v219z" />
<glyph unicode="&#xac2f;" d="M611 521v-203h-69v486h69v-222h126v240h70v-586h-70v285h-126zM100 738h345q0 -332 -343 -482l-38 55q143 60 219 153.5t86 213.5h-269v60zM549 275v-41q0 -88 93 -157.5t214 -88.5l-29 -58q-102 19 -189 72t-126 127q-38 -75 -124.5 -127.5t-188.5 -71.5l-29 58 q120 19 213 88.5t93 157.5v41h73z" />
<glyph unicode="&#xac30;" d="M611 531v-220h-69v493h69v-212h126v229h70v-515h-70v225h-126zM97 754h347q0 -157 -88.5 -275.5t-255.5 -189.5l-37 55q138 57 216 146t88 203h-270v61zM692 272v-63q0 -71 50 -134t132 -90l-36 -56q-133 48 -182 172q-48 -129 -165 -179q-124 49 -166 177 q-54 -122 -180 -170l-36 56q81 29 131.5 93.5t50.5 130.5v63h70v-63q0 -63 33.5 -122t95.5 -94q62 38 96.5 99t34.5 117v63h71z" />
<glyph unicode="&#xac31;" d="M611 521v-219h-69v503h69v-223h126v240h70v-551h-70v250h-126zM98 747h346q0 -159 -88 -279.5t-256 -192.5l-39 55q140 58 218.5 149t88.5 208h-270v60zM515 -11q106 0 167 28t61 79q0 50 -61 78.5t-167 28.5t-168 -28.5t-62 -78.5t62 -78.5t168 -28.5zM515 261 q140 0 220.5 -44t80.5 -121q0 -78 -80.5 -121.5t-220.5 -43.5q-142 0 -222.5 43.5t-80.5 121.5q0 77 81 121t222 44z" />
<glyph unicode="&#xac38;" d="M103 725h407q0 -197 -100 -359.5t-307 -266.5l-41 58q172 86 267 216t108 291h-334v61zM884 517h-145v-207h145v-61h-145v-321h-73v894h73v-244h145v-61z" />
<glyph unicode="&#xac39;" d="M94 764h410q0 -167 -110.5 -285t-309.5 -172l-29 58q165 44 262.5 132.5t108.5 205.5h-332v61zM168 194v60h578v-327h-73v267h-505zM880 621h-134v-132h134v-60h-134v-132h-73v525h73v-140h134v-61z" />
<glyph unicode="&#xac3c;" d="M93 752h414q0 -169 -112 -293.5t-308 -188.5l-30 60q163 52 261.5 146.5t110.5 215.5h-336v60zM265 232v-224h522v-61h-594v285h72zM880 589h-134v-160h134v-61h-134v-203h-73v657h73v-172h134v-61z" />
<glyph unicode="&#xac40;" d="M95 776h411q0 -162 -112 -273.5t-310 -159.5l-28 61q166 38 262.5 119.5t106.5 191.5h-330v61zM257 107v-111h523v-60h-595v228h490v100h-492v60h563v-217h-489zM880 646h-134v-116h134v-60h-134v-105h-73v456h73v-115h134v-60z" />
<glyph unicode="&#xac4b;" d="M97 752h410q0 -168 -110.5 -292t-307.5 -184l-31 59q165 51 262.5 143.5t109.5 212.5h-333v61zM516 293v-41q0 -96 88.5 -167.5t210.5 -94.5l-31 -57q-101 21 -184 74.5t-120 129.5q-38 -78 -122 -132t-187 -74l-30 57q123 23 212.5 94.5t89.5 169.5v41h73zM880 603h-134 v-154h134v-61h-134v-161h-73v594h73v-157h134v-61z" />
<glyph unicode="&#xac4d;" d="M95 754h411q0 -168 -111 -290t-308 -180l-30 59q163 48 261 140t109 210h-332v61zM468 -12q100 0 159 30.5t59 82.5t-59 82t-159 30t-159 -30t-59 -82t59 -82.5t159 -30.5zM468 272q133 0 211 -46t78 -125t-78 -125.5t-211 -46.5t-211 46.5t-78 125.5t78 125t211 46z M879 616h-133v-136h133v-61h-133v-135h-73v537h73v-144h133v-61z" />
<glyph unicode="&#xac54;" d="M89 705h347q0 -395 -336 -585l-43 53q287 160 307 471h-275v61zM611 333h129v191h-129v-191zM740 821h70v-894h-70v345h-129v-300h-69v825h69v-212h129v236z" />
<glyph unicode="&#xac58;" d="M737 586h-126v-157h126v157zM611 369v-185h-69v620h69v-157h126v174h70v-668h-70v216h-126zM97 734h345q0 -159 -87.5 -281t-255.5 -196l-37 53q139 60 216.5 153t88.5 210h-270v61zM298 15h537v-61h-610v282h73v-221z" />
<glyph unicode="&#xac5c;" d="M737 638h-126v-110h126v110zM611 469v-102h-69v438h69v-109h126v126h70v-461h-70v108h-126zM98 769h344q0 -153 -87.5 -264t-255.5 -174l-35 55q139 50 215.5 132t87.5 190h-269v61zM294 -7h548v-60h-620v225h513v99h-515v59h587v-215h-513v-108z" />
<glyph unicode="&#xac70;" d="M94 725h406q0 -425 -403 -625l-42 57q350 172 372 508h-333v60zM714 822h73v-895h-73v472h-216v61h216v362z" />
<glyph unicode="&#xac71;" d="M112 763h401q0 -165 -110.5 -283t-305.5 -174l-30 58q163 46 260 134t109 205h-324v60zM194 195v60h594v-326h-73v266h-521zM715 822h73v-526h-73v227h-200v61h200v238z" />
<glyph unicode="&#xac74;" d="M514 542h201v280h73v-662h-73v321h-201v61zM114 752h403q0 -168 -112 -295.5t-305 -192.5l-31 60q159 53 258 149.5t111 218.5h-324v60zM300 8h511v-61h-584v280h73v-219z" />
<glyph unicode="&#xac77;" d="M715 313v206h-202v61h202v242h73v-509h-73zM110 763h402q0 -165 -111 -283.5t-307 -175.5l-29 59q163 46 260.5 134.5t108.5 205.5h-324v60zM287 0h519v-60h-592v321h576v-60h-503v-201z" />
<glyph unicode="&#xac78;" d="M715 361v181h-202v61h202v218h73v-460h-73zM115 776h392q0 -161 -108.5 -272t-304.5 -161l-26 60q162 40 256 120.5t105 191.5h-314v61zM289 -4h531v-60h-603v228h499v97h-501v60h573v-214h-499v-111z" />
<glyph unicode="&#xac7a;" d="M112 775h398q0 -162 -109.5 -273t-305.5 -160l-27 57q164 42 258.5 123t106.5 193h-321v60zM235 103v-104q141 0 233 16l8 -58q-95 -17 -265 -17h-46v218h213v92h-215v57h285v-204h-213zM571 251v-255h153v255h-153zM507 -60v367h281v-367h-281zM715 822h73v-474h-73v194 h-202v61h202v219z" />
<glyph unicode="&#xac80;" d="M110 763h402q0 -165 -111 -283.5t-305 -173.5l-31 57q163 46 260.5 134.5t108.5 205.5h-324v60zM284 212v-212h433v212h-433zM213 -60v331h575v-331h-575zM715 822h73v-513h-73v218h-202v61h202v234z" />
<glyph unicode="&#xac81;" d="M112 766h401q0 -164 -109.5 -278t-307.5 -166l-30 58q166 42 262 126t107 199h-323v61zM716 0v120h-431v-120h431zM716 178v117h71v-355h-574v355h72v-117h431zM714 822h73v-482h-73v193h-200v61h200v228z" />
<glyph unicode="&#xac83;" d="M715 213v292h-200v61h200v256h73v-609h-73zM113 751h399q0 -169 -108 -291t-302 -186l-32 58q162 51 257 143.5t107 214.5h-321v61zM538 293v-43q0 -95 89 -166.5t211 -94.5l-30 -57q-102 20 -185.5 73.5t-121.5 131.5q-37 -79 -121 -132.5t-187 -74.5l-30 57 q123 23 212.5 94.5t89.5 168.5v43h73z" />
<glyph unicode="&#xac84;" d="M715 309v219h-200v61h200v233h73v-513h-73zM115 763h397q0 -165 -111 -283.5t-305 -174.5l-31 58q163 46 260 134.5t109 205.5h-319v60zM686 285v-67q0 -71 49.5 -134.5t132.5 -92.5l-37 -55q-133 50 -181 173q-48 -131 -166 -180q-124 47 -167 177q-53 -120 -179 -170 l-37 55q82 30 132 94.5t50 132.5v67h70v-67q0 -65 33.5 -123.5t95.5 -93.5q63 39 98 100t35 117v67h71z" />
<glyph unicode="&#xac85;" d="M715 284v220h-200v61h200v256h73v-537h-73zM113 753h401q0 -168 -110.5 -288t-306.5 -179l-30 58q163 49 260 139t108 209h-322v61zM498 -10q102 0 162 30t60 83q0 52 -60 82t-162 30t-162.5 -30t-60.5 -82q0 -53 60 -83t163 -30zM498 274q135 0 214.5 -46t79.5 -125 q0 -80 -79 -126t-215 -46t-215 46t-79 126q0 79 79 125t215 46z" />
<glyph unicode="&#xac86;" d="M513 583h202v239h73v-514h-73v214h-202v61zM112 763h414q0 -166 -114 -282.5t-315 -169.5l-27 59q168 44 267.5 131t109.5 202h-335v60zM800 201h-255q0 -74 86 -135.5t201 -79.5l-28 -56q-98 17 -179.5 64.5t-118.5 114.5q-36 -67 -117 -114.5t-180 -64.5l-29 56 q116 17 202 78t86 137h-253v60h585v-60z" />
<glyph unicode="&#xac89;" d="M715 337v194h-197v61h197v230h73v-485h-73zM111 767h402q0 -165 -109.5 -279t-308.5 -167l-28 60q166 43 262 127t106 198h-324v61zM293 -3h516v-57h-589v360h572v-57h-499v-93h486v-56h-486v-97z" />
<glyph unicode="&#xac8a;" d="M513 585h202v237h73v-504h-73v206h-202v61zM111 763h402q0 -165 -111.5 -281.5t-305.5 -169.5l-29 59q162 43 259.5 129.5t109.5 201.5h-325v61zM399 214v-213h194v213h-194zM665 1h142v-60h-618v60h138v213h-131v60h600v-60h-131v-213z" />
<glyph unicode="&#xac8b;" d="M715 347v199h-203v61h203v215h73v-475h-73zM113 768h393q0 -165 -107 -276.5t-305 -163.5l-27 59q165 41 258 124t104 197h-316v60zM496 -18q81 0 127 19.5t46 53.5t-46.5 53t-126.5 19t-126 -19t-46 -53t46 -53.5t126 -19.5zM496 180q117 0 182.5 -32.5t65.5 -92.5 t-65.5 -93t-182.5 -33q-115 0 -181 33t-66 93t65.5 92.5t181.5 32.5zM534 282h274v-58h-622v58h275v106h73v-106z" />
<glyph unicode="&#xac8c;" d="M557 453v344h69v-824h-69v419h-193q-88 -166 -264 -271l-43 53q143 86 220 207t88 265h-272v61h344q0 -139 -46 -254h166zM742 821h70v-894h-70v894z" />
<glyph unicode="&#xac90;" d="M807 821v-673h-70v673h70zM560 472h-189q-89 -134 -272 -214l-37 55q140 58 219 151t90 210h-271v61h347q0 -111 -42 -203h155v270h69v-628h-69v298zM302 8h537v-61h-610v286h73v-225z" />
<glyph unicode="&#xac94;" d="M807 822v-461h-70v461h70zM560 540h-175q-88 -137 -282 -209l-37 55q285 102 306 322h-269v61h345q0 -93 -33 -169h145v203h69v-437h-69v174zM295 0h547v-60h-620v222h513v95h-515v59h587v-210h-512v-106z" />
<glyph unicode="&#xac9c;" d="M560 513h-178q-85 -141 -278 -225l-38 54q137 56 215.5 146t90.5 205h-270v61h345q0 -97 -35 -181h148v229h69v-485h-69v196zM295 203v-202h441v202h-441zM224 -59v322h583v-322h-583zM737 821h70v-514h-70v514z" />
<glyph unicode="&#xac9d;" d="M560 519h-179q-87 -137 -280 -213l-36 53q285 109 305 339h-267v60h342q0 -96 -34 -178h149v222h69v-465h-69v182zM735 0v121h-438v-121h438zM735 180v112h72v-352h-582v352h72v-112h438zM737 821h70v-491h-70v491z" />
<glyph unicode="&#xac9f;" d="M807 822v-598h-70v598h70zM560 495h-177q-86 -152 -281 -238l-39 55q139 60 217.5 153.5t90.5 212.5h-272v60h347q0 -96 -34 -183h148v247h69v-501h-69v194zM546 277v-41q0 -88 94 -157.5t215 -89.5l-29 -58q-103 19 -190 71.5t-127 127.5q-39 -75 -126 -127.5 t-189 -71.5l-29 58q121 20 214.5 89.5t93.5 157.5v41h73z" />
<glyph unicode="&#xaca0;" d="M807 821v-518h-70v518h70zM560 503h-184q-88 -136 -274 -216l-38 54q139 57 217.5 147t90.5 206h-271v60h347q0 -103 -40 -191h152v239h69v-485h-69v186zM692 272v-63q0 -71 50 -134t132 -91l-36 -55q-133 48 -182 172q-22 -58 -64 -106t-101 -73q-124 49 -166 177 q-54 -122 -180 -170l-36 55q81 30 131.5 94.5t50.5 130.5v63h70v-63q0 -63 33.5 -122t95.5 -94q61 39 96 100t35 116v63h71z" />
<glyph unicode="&#xaca1;" d="M807 822v-551h-70v551h70zM560 502h-180q-84 -141 -280 -227l-38 55q140 58 219 149t91 208h-272v60h347q0 -100 -36 -184h149v240h69v-500h-69v199zM516 -12q106 0 167.5 28.5t61.5 79.5q0 50 -61.5 78.5t-167.5 28.5t-168 -28.5t-62 -78.5q0 -51 62 -79.5t168 -28.5z M516 260q140 0 221 -43.5t81 -120.5q0 -78 -81 -121.5t-221 -43.5q-142 0 -222.5 43.5t-80.5 121.5q0 77 81 120.5t222 43.5z" />
<glyph unicode="&#xaca8;" d="M714 823h73v-895h-73v347h-253v61h253v178h-241q-83 -270 -377 -415l-40 58q350 172 374 508h-336v60h409q0 -74 -14 -150h225v248z" />
<glyph unicode="&#xaca9;" d="M194 187v61h594v-319h-73v258h-521zM715 822h73v-534h-73v121h-238v61h238v128h-226q-44 -105 -145 -181t-246 -116l-29 58q166 46 264.5 135t109.5 206h-329v61h407q0 -54 -12 -102h206v163z" />
<glyph unicode="&#xacaa;" d="M172 197v61h290v-330h-73v269h-217zM505 197v61h283v-330h-73v269h-210zM715 822h73v-520h-73v110h-240v61h240v129h-227q-44 -105 -144 -180.5t-245 -115.5l-31 58q165 45 264 133.5t111 205.5h-330v60h407q0 -55 -12 -101h207v160z" />
<glyph unicode="&#xacac;" d="M714 574h-230q-45 -105 -144.5 -185t-237.5 -125l-33 59q162 53 261.5 149t111.5 219h-327v61h405q0 -67 -15 -117h209v187h74v-667h-74v219h-242v61h242v139zM300 8h510v-61h-583v272h73v-211z" />
<glyph unicode="&#xacaf;" d="M715 610h-227q-43 -107 -143.5 -184.5t-247.5 -119.5l-30 58q164 45 261.5 133.5t108.5 205.5h-327v60h406q0 -45 -10 -93h209v152h73v-509h-73v107h-241v61h241v129zM287 0h519v-60h-592v321h576v-60h-503v-201z" />
<glyph unicode="&#xacb0;" d="M715 630h-227q-84 -211 -392 -286l-27 59q165 39 260 120t105 193h-319v60h399q0 -45 -9 -87h210v133h73v-459h-73v97h-241v58h241v112zM289 -4h531v-60h-603v228h499v97h-501v60h573v-214h-499v-111z" />
<glyph unicode="&#xacb8;" d="M284 211v-211h433v211h-433zM213 -60v330h575v-330h-575zM715 822h73v-514h-73v117h-241v61h241v123h-230q-42 -107 -142.5 -184.5t-246.5 -119.5l-30 58q163 45 261 134t109 206h-326v60h404q0 -45 -10 -93h211v152z" />
<glyph unicode="&#xacb9;" d="M716 0v120h-431v-120h431zM716 178v117h71v-355h-574v355h72v-117h431zM714 822h73v-482h-73v95h-238v61h238v121h-227q-41 -106 -141 -181t-250 -114l-30 58q167 42 263 126t107 199h-324v61h402q0 -48 -9 -88h209v144z" />
<glyph unicode="&#xacbb;" d="M715 589h-231q-42 -108 -140.5 -188t-241.5 -127l-32 59q162 51 258 143.5t107 213.5h-322v61h401q0 -52 -11 -101h212v172h73v-609h-73v187h-241v61h241v128zM538 292v-41q0 -95 89 -166t211 -94l-30 -58q-102 20 -185.5 73.5t-121.5 131.5q-37 -78 -121 -132.5 t-187 -75.5l-30 59q123 23 212.5 94.5t89.5 167.5v41h73z" />
<glyph unicode="&#xacbc;" d="M715 608h-229q-43 -107 -143.5 -184t-246.5 -118l-30 57q163 46 260.5 134.5t109.5 205.5h-321v60h400q0 -48 -11 -95h211v154h73v-512h-73v112h-241v61h241v125zM686 286v-68q0 -71 49.5 -134.5t132.5 -91.5l-37 -55q-133 50 -181 173q-48 -130 -166 -181 q-125 49 -167 178q-53 -120 -179 -170l-37 55q82 30 132 94.5t50 131.5v68h70v-68q0 -64 33.5 -123t95.5 -94q63 39 98 100t35 117v68h71z" />
<glyph unicode="&#xacbd;" d="M715 593h-230q-43 -107 -143 -185.5t-245 -122.5l-29 59q163 49 260 139t108 209h-323v61h402q0 -51 -11 -100h211v168h73v-539h-73v123h-241v61h241v127zM498 -10q102 0 162 30t60 82q0 51 -60 81t-162 30t-162.5 -29.5t-60.5 -81.5t60 -82t163 -30zM498 272 q136 0 215 -45.5t79 -124.5t-79 -125t-215 -46t-215 46t-79 125t79 124.5t215 45.5z" />
<glyph unicode="&#xacc1;" d="M715 619h-227q-41 -107 -142 -183t-251 -115l-29 60q167 42 263 126t106 199h-324v61h403q0 -47 -9 -89h210v144h73v-486h-73v109h-240v59h240v115zM293 -3h516v-57h-589v360h572v-57h-499v-93h486v-56h-486v-97z" />
<glyph unicode="&#xacc4;" d="M564 571v226h69v-824h-69v313h-169v61h169v164h-155q-69 -244 -310 -390l-43 53q286 172 307 472h-270v61h342q0 -70 -12 -136h141zM742 821h70v-894h-70v894z" />
<glyph unicode="&#xacc8;" d="M807 821v-666h-70v666h70zM566 560h-151q-74 -201 -317 -307l-36 53q140 61 218.5 155t89.5 213h-269v61h344q0 -62 -13 -114h134v181h70v-625h-70v186h-167v61h167v136zM301 8h536v-61h-609v288h73v-227z" />
<glyph unicode="&#xaccc;" d="M807 822v-465h-70v465h70zM566 623h-142q-67 -195 -322 -292l-36 55q139 49 216.5 131t88.5 191h-268v61h344q0 -42 -8 -87h127v121h70v-440h-70v95h-152v59h152v106zM295 -4h547v-60h-620v225h513v96h-515v59h587v-211h-512v-109z" />
<glyph unicode="&#xacd5;" d="M566 609h-145q-65 -202 -321 -301l-36 53q283 106 305 337h-266v60h341q0 -46 -8 -91h130v135h70v-468h-70v104h-150v59h150v112zM735 1v120h-438v-120h438zM735 180v111h72v-350h-582v350h72v-111h438zM737 821h70v-493h-70v493z" />
<glyph unicode="&#xacd7;" d="M807 822v-607h-70v607h70zM560 587h-137q-69 -216 -322 -331l-38 54q139 61 217 155t90 213h-271v61h346q0 -45 -8 -91h123v154h69v-512h-69v119h-146v60h146v118zM546 269v-38q0 -88 93.5 -156t215.5 -87l-29 -57q-103 18 -190 70t-127 126q-39 -74 -126 -126t-190 -70 l-28 57q77 12 146 45.5t115.5 86t46.5 111.5v38h73z" />
<glyph unicode="&#xace0;" d="M690 639v29h-548v61h621v-90q0 -232 -33 -410l-73 10q33 169 33 400zM447 117h416v-61h-808v61h319v322h73v-322z" />
<glyph unicode="&#xace1;" d="M687 704v9h-535v60h607v-69q0 -145 -22 -245l-73 8q23 99 23 237zM142 167v61h617v-301h-73v240h-544zM465 393h397v-60h-806v60h337v185h72v-185z" />
<glyph unicode="&#xace4;" d="M687 706v2h-536v61h608v-63q0 -155 -24 -271l-73 10q25 112 25 261zM231 218v-210h551v-61h-624v271h73zM465 372h397v-60h-807v60h338v188h72v-188z" />
<glyph unicode="&#xace7;" d="M687 704v16h-535v60h607v-76q0 -145 -24 -236l-72 8q24 91 24 228zM230 191v-190h541v-61h-614v311h601v-60h-528zM465 414h397v-61h-806v61h337v171h72v-171z" />
<glyph unicode="&#xace8;" d="M741 514l-71 7q17 85 17 204h-535v60h607v-59q0 -126 -18 -212zM226 105v-107h559v-59h-631v221h536v96h-539v59h612v-210h-537zM465 461h397v-60h-806v60h337v159h72v-159z" />
<glyph unicode="&#xacea;" d="M739 491l-71 8q19 95 19 221h-535v60h607v-56q0 -135 -20 -233zM213 98v-103q146 0 235 16l7 -57q-87 -16 -266 -16h-47v213h212v89h-214v56h285v-198h-212zM548 240v-245h159v245h-159zM485 -62v358h286v-358h-286zM465 441h396v-60h-805v60h337v166h72v-166z" />
<glyph unicode="&#xacec;" d="M687 712v12h-535v60h607v-72q0 -134 -19 -217l-72 7q19 84 19 210zM213 98v-103q135 0 224 15l6 -56q-83 -16 -256 -16h-45v213h212v89h-214v57h285v-199h-212zM673 313v-87q0 -73 41.5 -140.5t116.5 -100.5l-40 -52q-110 51 -152 171q-43 -119 -151 -171l-41 52 q75 34 116 102t41 139v87h69zM465 444h397v-61h-806v61h337v167h72v-167z" />
<glyph unicode="&#xacef;" d="M739 505l-71 7q19 99 19 219h-535v60h607v-55q0 -134 -20 -231zM209 103v-105q154 0 244 16l8 -56q-87 -16 -273 -16h-47v215h205v91h-208v56h277v-201h-206zM635 -21q39 0 62.5 17.5t23.5 47.5t-23.5 47t-62.5 17t-62.5 -17t-23.5 -47t23.5 -47.5t62.5 -17.5zM635 160 q66 0 107.5 -31.5t41.5 -84.5t-41.5 -84.5t-107.5 -31.5t-107.5 31.5t-41.5 84.5t41.5 84.5t107.5 31.5zM670 334v-84h153v-56h-374v56h150v84h71zM465 452h397v-60h-806v60h337v166h72v-166z" />
<glyph unicode="&#xacf0;" d="M687 705v16h-535v60h607v-76q0 -144 -24 -235l-72 8q24 91 24 227zM226 193v-193h465v193h-465zM154 -60v313h608v-313h-608zM465 416h397v-60h-806v60h337v176h72v-176z" />
<glyph unicode="&#xacf1;" d="M687 718v6h-536v61h608v-67q0 -138 -24 -232l-72 7q24 94 24 225zM683 0v125h-450v-125h450zM683 183v113h72v-356h-594v356h72v-113h450zM465 436h398v-60h-808v60h338v160h72v-160z" />
<glyph unicode="&#xacf3;" d="M687 715v3h-535v61h607v-64q0 -146 -24 -251l-71 8q23 104 23 243zM492 266v-42q0 -88 89.5 -152.5t214.5 -83.5l-28 -57q-106 18 -190.5 66.5t-122.5 121.5q-37 -73 -122 -121.5t-191 -66.5l-27 57q125 19 214.5 83.5t89.5 152.5v42h73zM465 400h397v-61h-806v61h337 v183h72v-183z" />
<glyph unicode="&#xacf5;" d="M687 700v16h-535v60h607v-76q0 -145 -25 -237l-71 9q24 91 24 228zM455 -13q109 0 173.5 28.5t64.5 76.5q0 49 -64.5 77.5t-173.5 28.5t-173 -28.5t-64 -77.5t64.5 -77t172.5 -28zM455 256q143 0 227 -44t84 -120q0 -75 -84 -119t-227 -44q-142 0 -226 44t-84 119 q0 76 84 120t226 44zM465 402h396v-60h-805v60h337v176h72v-176z" />
<glyph unicode="&#xacf6;" d="M687 711v12h-535v61h607v-73q0 -141 -24 -231l-72 9q24 89 24 222zM768 198h-269q9 -80 97 -137t207 -73l-27 -57q-106 17 -192.5 64t-123.5 118q-37 -71 -123.5 -118t-193.5 -64l-26 57q118 16 206.5 73t97.5 137h-270v60h617v-60zM465 422h397v-60h-806v60h337v168h72 v-168z" />
<glyph unicode="&#xacfc;" d="M519 321l-73 7q27 165 27 334h-378v61h450v-45q0 -188 -26 -357zM311 467v-275q172 5 295 21l5 -54q-204 -32 -557 -34l-9 62q56 0 194 2v278h72zM884 445v-62h-147v-456h-73v895h73v-377h147z" />
<glyph unicode="&#xacfd;" d="M521 465l-72 8q24 110 24 226h-368v61h440v-46q0 -138 -24 -249zM612 410l4 -54q-208 -36 -558 -36l-8 61q124 0 194 2v187h72v-184q174 7 296 24zM162 163v60h584v-290h-72v230h-512zM878 570v-61h-132v-240h-72v552h72v-251h132z" />
<glyph unicode="&#xad00;" d="M521 440l-72 8q24 118 24 243h-369v61h440v-46q0 -147 -23 -266zM611 384l5 -54q-216 -36 -558 -36l-8 61q56 0 194 2v196h72v-193q173 7 295 24zM260 210v-202h515v-61h-588v263h73zM746 527h133v-61h-133v-319h-72v675h72v-295z" />
<glyph unicode="&#xad04;" d="M522 500l-71 7q22 103 22 204h-368v60h440v-42q0 -128 -23 -229zM613 453l5 -53q-211 -34 -559 -34l-9 60q125 0 193 2v165h72v-163q185 7 298 23zM241 96v-101h540v-58h-612v214h505v90h-507v58h579v-203h-505zM746 605h132v-61h-132v-205h-72v483h72v-217z" />
<glyph unicode="&#xad06;" d="M522 500l-71 8q22 104 22 203h-369v60h441v-42q0 -127 -23 -229zM613 457l5 -53q-201 -34 -560 -34l-8 60q123 0 193 2v164h72v-162q185 7 298 23zM206 90v-95q148 0 228 16l6 -57q-83 -16 -259 -16h-45v205h209v84h-211v56h281v-193h-209zM531 226v-231h151v231h-151z M467 -62v345h279v-345h-279zM878 599v-61h-132v-211h-72v495h72v-223h132z" />
<glyph unicode="&#xad0c;" d="M521 486l-71 6q23 107 23 213h-368v60h440v-43q0 -132 -24 -236zM612 429l5 -54q-206 -35 -558 -35l-9 61q124 0 194 2v170h72v-168q186 7 296 24zM250 182v-181h426v181h-426zM179 -59v301h567v-301h-567zM878 585v-61h-132v-236h-72v534h72v-237h132z" />
<glyph unicode="&#xad0d;" d="M522 494l-71 7q22 105 22 207h-368v61h440v-42q0 -130 -23 -233zM614 444l5 -54q-211 -34 -561 -34l-8 61q125 0 193 2v164h72v-162q186 7 299 23zM674 0v119h-421v-119h421zM674 177v107h72v-345h-565v345h72v-107h421zM878 597v-61h-132v-215h-72v501h72v-225h132z" />
<glyph unicode="&#xad0f;" d="M519 472l-71 6q25 115 25 225h-368v60h440v-44q0 -137 -26 -247zM612 409l5 -54q-210 -35 -559 -35l-8 61q125 0 194 2v182h72v-180q174 7 296 24zM515 254v-37q0 -85 88 -147.5t211 -80.5l-28 -58q-104 17 -188 65t-121 118q-38 -70 -122 -118t-188 -65l-29 58 q124 18 212.5 80.5t88.5 147.5v37h76zM746 550h132v-62h-132v-276h-72v610h72v-272z" />
<glyph unicode="&#xad11;" d="M521 475l-71 6q23 107 23 223h-368v61h440v-47q0 -137 -24 -243zM612 416l5 -55q-211 -33 -558 -33l-9 61q125 0 194 2v180h72v-178q184 7 296 23zM461 -11q103 0 162 27t59 75q0 47 -59.5 74t-161.5 27t-161.5 -27t-59.5 -74q0 -48 59 -75t162 -27zM461 250 q138 0 216 -42t78 -117q0 -76 -78 -118.5t-216 -42.5q-137 0 -216 42.5t-79 118.5q0 75 79 117t216 42zM746 573h132v-61h-132v-250h-72v560h72v-249z" />
<glyph unicode="&#xad18;" d="M440 332l-68 6q21 141 21 320h-308v61h376v-60q0 -182 -21 -327zM268 468v-257q149 5 237 18l4 -53q-173 -31 -455 -31l-10 62q98 0 156 2v259h68zM738 822h70v-894h-70v451h-115v-403h-70v826h70v-362h115v382z" />
<glyph unicode="&#xad1c;" d="M620 473v-304h-69v637h69v-272h114v288h70v-680h-70v331h-114zM445 445l-68 8q20 103 20 238h-302v60h370v-59q0 -143 -20 -247zM506 383l6 -55q-170 -28 -458 -28l-9 61q41 0 161 2v185h69v-182q142 5 231 17zM281 8h549v-61h-623v266h74v-205z" />
<glyph unicode="&#xad20;" d="M620 538v-202h-69v470h69v-207h114v223h70v-493h-70v209h-114zM448 500l-69 5q18 93 18 205h-301v60h369v-52q0 -127 -17 -218zM506 444l5 -53q-174 -29 -455 -29l-10 61q101 0 161 2v163h69v-161q141 5 230 17zM277 -4h560v-58h-632v209h527v87h-529v57h601v-198h-527 v-97z" />
<glyph unicode="&#xad29;" d="M446 483l-68 6q19 95 19 219h-301v60h369v-56q0 -133 -19 -229zM506 427l5 -53q-174 -29 -456 -29l-9 60q41 0 161 2v169h69v-166q141 5 230 17zM731 0v114h-454v-114h454zM731 173v105h73v-339h-599v339h72v-105h454zM734 822h70v-505h-70v210h-114v-203h-69v481h69 v-217h114v234z" />
<glyph unicode="&#xad2c;" d="M620 513v-221h-69v513h69v-231h114v247h70v-536h-70v228h-114zM447 470l-68 8q18 96 18 222h-301v60h369v-57q0 -135 -18 -233zM506 410l6 -52q-151 -29 -456 -32l-9 61q100 0 160 2v174h69v-172q145 5 230 19zM689 251v-33q0 -73 49.5 -135.5t132.5 -89.5l-36 -55 q-132 48 -181 169q-46 -126 -167 -176q-61 25 -103 71.5t-62 104.5q-50 -121 -180 -169l-37 55q84 29 133 91.5t49 133.5v33h70v-33q0 -61 34.5 -121t95.5 -96q63 37 97 97t34 120v33h71z" />
<glyph unicode="&#xad2d;" d="M447 457l-68 6q18 99 18 230h-301v60h369v-58q0 -137 -18 -238zM506 401l5 -52q-158 -31 -456 -31l-9 60q101 0 161 2v175h69v-173q145 5 230 19zM498 -14q109 0 170 25t61 71q0 45 -61.5 70.5t-169.5 25.5t-169.5 -25.5t-61.5 -70.5q0 -46 61 -71t170 -25zM498 235 q145 0 225.5 -40t80.5 -113t-81 -113.5t-225 -40.5t-224.5 40.5t-80.5 113.5t80 113t225 40zM734 821h70v-566h-70v259h-114v-231h-69v522h69v-230h114v246z" />
<glyph unicode="&#xad34;" d="M540 324l-72 9q27 168 27 324h-380v61h452v-41q0 -184 -27 -353zM334 452v-263q194 7 317 23l6 -55q-219 -34 -588 -34l-11 61q60 0 204 2v266h72zM711 823h73v-897h-73v897z" />
<glyph unicode="&#xad35;" d="M532 463l-71 8q24 110 24 228h-364v61h435v-46q0 -140 -24 -251zM639 401l5 -54q-221 -35 -577 -35l-11 61q96 0 206 3v184h71v-182q188 7 306 23zM184 160v61h602v-294h-73v233h-529zM713 821h73v-555h-73v555z" />
<glyph unicode="&#xad38;" d="M786 821v-679h-73v679h73zM537 441l-72 10q25 110 25 241h-372v61h444v-52q0 -146 -25 -260zM639 377l5 -54q-227 -33 -578 -35l-10 62q98 0 208 3v191h71v-189q186 7 304 22zM287 8h525v-61h-598v255h73v-194z" />
<glyph unicode="&#xad3c;" d="M786 822v-490h-73v490h73zM531 499l-70 7q23 105 23 206h-363v60h434v-42q0 -128 -24 -231zM638 454l6 -53q-228 -36 -577 -36l-10 60q97 0 206 3v170h71v-168q191 7 304 24zM269 -4h553v-58h-624v209h516v87h-519v57h591v-198h-517v-97z" />
<glyph unicode="&#xad44;" d="M535 480l-72 7q21 105 21 218h-362v60h434v-47q0 -135 -21 -238zM638 424l6 -53q-208 -36 -578 -38l-10 61q132 0 206 2v168h71v-166q200 10 305 26zM274 179v-179h440v179h-440zM202 -60v299h584v-299h-584zM713 822h73v-536h-73v536z" />
<glyph unicode="&#xad45;" d="M534 487l-70 7q22 97 22 216h-364v59h433v-54q0 -132 -21 -228zM638 430l6 -53q-227 -33 -578 -35l-9 61q97 0 207 3v161h70v-159q186 7 304 22zM713 0v112h-443v-112h443zM713 171v106h73v-338h-588v338h72v-106h443zM713 821h73v-503h-73v503z" />
<glyph unicode="&#xad47;" d="M786 822v-629h-73v629h73zM485 700v2h-363v61h434v-63q0 -137 -22 -232l-71 9q22 93 22 223zM638 406l6 -54q-243 -35 -577 -35l-11 61q98 0 206 3v175h71v-172q187 7 305 22zM529 258v-32q0 -86 89.5 -150.5t211.5 -83.5l-28 -57q-103 18 -187.5 66.5t-122.5 119.5 q-37 -71 -121 -119.5t-188 -66.5l-28 57q122 19 211.5 83.5t89.5 150.5v32h73z" />
<glyph unicode="&#xad49;" d="M786 822v-565h-73v565h73zM485 705h-363v60h434v-61q0 -140 -22 -240l-70 8q21 100 21 233zM638 409l6 -53q-215 -35 -578 -35l-10 61q133 0 206 2v170h71v-168q183 5 305 23zM492 -13q103 0 162.5 27t59.5 75q0 47 -59.5 74t-162.5 27q-104 0 -164 -27t-60 -74 q0 -48 59.5 -75t164.5 -27zM492 248q139 0 218 -42t79 -117q0 -76 -79 -118t-218 -42q-140 0 -219.5 42.5t-79.5 117.5t79.5 117t219.5 42z" />
<glyph unicode="&#xad50;" d="M691 629v39h-552v61h624v-100q0 -231 -31 -394l-73 8q32 157 32 386zM551 117h311v-61h-808v61h204v298h72v-298h149v298h72v-298z" />
<glyph unicode="&#xad54;" d="M691 698v11h-543v61h615v-72q0 -154 -21 -261l-73 7q22 105 22 254zM231 214v-207h550v-60h-623v267h73zM563 365h298v-60h-806v60h212v189h72v-189h152v189h72v-189z" />
<glyph unicode="&#xad58;" d="M692 727v2h-543v60h615v-62q0 -127 -18 -211l-71 8q17 82 17 203zM226 105v-107h559v-59h-631v221h536v96h-539v59h612v-210h-537zM561 458h301v-61h-806v61h212v165h72v-165h150v165h71v-165z" />
<glyph unicode="&#xad61;" d="M691 720v5h-543v61h615v-66q0 -140 -23 -235l-72 8q23 95 23 227zM683 -1v125h-450v-125h450zM683 182v113h72v-356h-594v356h72v-113h450zM559 428h304v-61h-808v61h213v167h72v-167h147v167h72v-167z" />
<glyph unicode="&#xad63;" d="M695 703v18h-545v60h617v-78q0 -147 -23 -240l-71 8q22 91 22 232zM492 266v-42q0 -88 89.5 -153t214.5 -83l-29 -57q-105 18 -189.5 66.5t-122.5 121.5q-37 -73 -122 -121.5t-191 -66.5l-28 57q125 18 215 83t90 153v42h73zM560 394h302v-61h-807v61h214v186h72v-186 h147v186h72v-186z" />
<glyph unicode="&#xad6c;" d="M863 378v-61h-369v-391h-73v391h-366v61h600q27 128 27 307v17h-524v61h596v-78q0 -178 -26 -307h135z" />
<glyph unicode="&#xad6d;" d="M865 397h-370v-171h269v-299h-73v239h-551v60h283v171h-369v60h608q25 110 25 256v5h-528v60h600v-65q0 -148 -23 -256h129v-60z" />
<glyph unicode="&#xad70;" d="M231 226v-218h547v-61h-620v279h73zM736 425h130v-61h-367v-219h-73v219h-373v61h609q26 118 26 278v10h-530v61h601v-71q0 -161 -23 -278z" />
<glyph unicode="&#xad73;" d="M866 401h-371v-152h270v-60h-537v-189h544v-60h-617v309h268v152h-369v61h609q24 107 24 251v4h-528v61h600v-65q0 -147 -22 -251h129v-61z" />
<glyph unicode="&#xad74;" d="M866 436h-371v-120h268v-212h-537v-106h559v-59h-631v219h536v98h-539v60h271v120h-368v60h613q20 99 20 230h-528v60h600v-57q0 -135 -19 -233h126v-60z" />
<glyph unicode="&#xad75;" d="M214 93v-97q187 0 291 23l8 -57q-112 -24 -315 -24h-54v210h223v85h-225v58h295v-198h-223zM486 230v61h282v-359h-72v298h-210zM739 491h126v-60h-371v-134h-72v134h-368v60h612q21 102 21 235h-529v61h601v-57q0 -138 -20 -239z" />
<glyph unicode="&#xad76;" d="M549 240v-245h158v245h-158zM864 428h-370v-132h277v-358h-286v356h-60v-196h-212v-103q146 0 235 16l7 -57q-87 -16 -266 -16h-47v214h212v88h-214v56h281v132h-367v61h612q21 103 21 237h-529v60h601v-56q0 -139 -20 -241h125v-61z" />
<glyph unicode="&#xad7b;" d="M209 98v-100q154 0 244 16l8 -56q-87 -16 -273 -16h-47v209h205v89h-208v56h277v-198h-206zM635 -22q38 0 62 19t24 50t-24 50t-62 19t-62 -19t-24 -50t24 -50t62 -19zM635 167q66 0 107.5 -32.5t41.5 -87.5t-41.5 -87.5t-107.5 -32.5t-107.5 32.5t-41.5 87.5t41.5 87.5 t107.5 32.5zM670 340v-83h154v-57h-375v57h150v83h71zM739 492h126v-60h-373v-132h-73v132h-365v60h613q20 108 20 236h-529v60h600v-55q0 -139 -19 -241z" />
<glyph unicode="&#xad7c;" d="M691 0v189h-464v-189h464zM865 403h-370v-155h267v-308h-607v308h267v155h-368v61h608q25 108 25 253v3h-530v61h601v-64q0 -147 -22 -253h129v-61z" />
<glyph unicode="&#xad7d;" d="M685 -1v125h-453v-125h453zM685 183v118h73v-361h-598v361h72v-118h453zM736 469h130v-60h-373v-162h-72v162h-368v60h610q24 106 24 250v4h-531v61h602v-65q0 -145 -22 -250z" />
<glyph unicode="&#xad7f;" d="M495 224v-33q0 -77 89 -133t213 -71l-26 -56q-107 15 -192 58.5t-122 109.5q-38 -66 -123.5 -110t-190.5 -58l-25 56q122 15 212 71.5t90 132.5v33h75zM736 466h130v-61h-372v-143h-73v143h-367v61h609q24 111 24 257h-528v61h599v-60q0 -148 -22 -258z" />
<glyph unicode="&#xad81;" d="M693 93q0 49 -62.5 76.5t-172.5 27.5q-111 0 -173.5 -27.5t-62.5 -76.5q0 -50 62.5 -77t173.5 -27q110 0 172.5 27t62.5 77zM865 400h-370v-144q128 -5 199.5 -48t71.5 -115q0 -78 -81.5 -121t-226.5 -43q-146 0 -228 43t-82 121q0 72 72 115t202 48v144h-368v61h608 q25 110 25 257v4h-528v60h600v-64q0 -149 -24 -257h130v-61z" />
<glyph unicode="&#xad82;" d="M866 411h-370v-148h272v-60h-270q4 -55 49 -101.5t112 -75t144 -38.5l-27 -57q-106 17 -192.5 64.5t-123.5 118.5q-37 -71 -123.5 -118.5t-192.5 -64.5l-27 57q77 10 143.5 38.5t112 75t49.5 101.5h-271v60h272v148h-369v60h610q23 113 23 249h-528v61h599v-56 q0 -145 -22 -254h130v-60z" />
<glyph unicode="&#xad88;" d="M641 428l5 -53q-123 -18 -280 -26v-372h-73v369q-112 -4 -235 -4l-11 61q263 2 400 10q23 128 23 275h-345v61h416v-49q0 -156 -21 -283q19 2 59.5 5.5t61.5 5.5zM713 822h73v-895h-73v269h-207v59h207v567z" />
<glyph unicode="&#xad89;" d="M290 251v190q-112 -4 -233 -4l-10 60q266 2 404 10q22 103 22 211h-339v60h409v-44q0 -124 -19 -222q41 2 105 8l5 -53q-99 -14 -271 -23v-193h-73zM183 153v60h603v-283h-73v223h-530zM714 821h73v-572h-73v81h-201v57h201v434z" />
<glyph unicode="&#xad8c;" d="M514 334h198v488h73v-677h-73v129h-198v60zM303 203v207q-132 -6 -246 -6l-9 61q247 0 403 12q20 104 22 228h-345v61h416v-36q0 -133 -19 -248q70 8 103 13l6 -54q-123 -21 -258 -27v-211h-73zM254 8h554v-61h-627v273h73v-212z" />
<glyph unicode="&#xad90;" d="M513 428h200v393h73v-508h-73v62h-200v53zM289 315v155q-111 -4 -230 -4l-10 58q263 2 402 12q19 103 21 186h-335v60h405v-22q0 -116 -18 -217q59 5 107 12l5 -53q-139 -22 -274 -28v-159h-73zM265 -5h556v-57h-627v202h520v84h-522v56h594v-193h-521v-92z" />
<glyph unicode="&#xad9c;" d="M513 408h200v413h73v-539h-73v69h-200v57zM290 284v174q-105 -5 -233 -5l-10 61q249 0 406 12q20 101 20 197h-339v61h409v-43q0 -118 -17 -210q70 8 103 13l5 -54q-126 -20 -271 -28v-178h-73zM684 250v-31q0 -70 47.5 -131t129.5 -89l-37 -54q-128 47 -175 165 q-43 -124 -160 -173q-118 50 -159 172q-49 -117 -175 -164l-37 54q81 29 129 90t48 130v31h70v-31q0 -59 32.5 -117.5t91.5 -93.5q60 36 92 94t32 117v31h71z" />
<glyph unicode="&#xad9d;" d="M513 388h200v433h73v-570h-73v81h-200v56zM289 262v177q-111 -4 -230 -4l-10 60q246 0 403 11q22 102 22 212h-339v60h409v-45q0 -124 -19 -221q74 9 105 13l6 -52q-106 -19 -274 -30v-181h-73zM497 -14q105 0 164.5 27t59.5 74t-59.5 73.5t-164.5 26.5 q-106 0 -165.5 -26.5t-59.5 -73.5t59.5 -74t165.5 -27zM497 245q141 0 219.5 -41.5t78.5 -116.5q0 -76 -78.5 -117.5t-219.5 -41.5t-219.5 41.5t-78.5 117.5q0 75 78.5 116.5t219.5 41.5z" />
<glyph unicode="&#xada4;" d="M512 428l6 -53q-80 -16 -208 -25v-346h-70v343q-92 -4 -188 -4l-9 61q190 0 317 9q23 120 23 248h-293v61h362v-44q0 -143 -22 -260q52 5 82 10zM570 255v546h69v-823h-69v217h-171v60h171zM736 822h71v-895h-71v895z" />
<glyph unicode="&#xadb7;" d="M803 821v-647h-70v647h70zM401 373h167v431h69v-591h-69v103h-167v57zM249 206v214q-95 -4 -193 -4l-10 61q188 0 314 9q21 106 21 206h-283v60h352v-39q0 -122 -20 -222q38 4 90 11l6 -54q-84 -17 -207 -24v-218h-70zM530 225v-23q0 -82 88.5 -140.5t212.5 -74.5 l-27 -56q-105 16 -189 60t-122 112q-37 -67 -122 -111.5t-190 -60.5l-27 56q125 16 214 74.5t89 140.5v23h73z" />
<glyph unicode="&#xadc0;" d="M651 417l5 -56q-137 -18 -280 -24v-358h-73v355q-113 -4 -244 -4l-11 62q243 0 397 9q26 140 28 290h-346v61h418v-34q0 -163 -26 -313q66 5 132 12zM717 822h73v-894h-73v894z" />
<glyph unicode="&#xadc1;" d="M378 414v-169h401v-322h-73v261h-527v61h126v165q-106 -6 -246 -6l-10 61q246 0 401 12q21 103 21 238h-336v61h408v-57q0 -137 -19 -237q42 4 111 14l6 -54q-123 -20 -263 -28zM706 822h73v-528h-73v528z" />
<glyph unicode="&#xadc4;" d="M779 821v-670h-73v670h73zM328 188v199q-119 -5 -264 -5l-11 61q250 0 406 12q19 120 21 243h-344v61h416v-30q0 -142 -19 -269q70 8 105 13l5 -53q-111 -20 -242 -28v-204h-73zM258 8h549v-61h-622v270h73v-209z" />
<glyph unicode="&#xadc8;" d="M779 821v-467h-73v467h73zM267 -3h548v-59h-620v219h512v98h-515v58h111v131q-77 -3 -237 -5l-10 61q264 2 398 9q17 106 19 212h-336v60h407v-29q0 -128 -18 -238q40 2 110 8l5 -52q-95 -13 -265 -23v-134h403v-211h-512v-105z" />
<glyph unicode="&#xadd0;" d="M708 0v191h-436v-191h436zM379 405v-155h400v-310h-578v310h105v151q-111 -5 -246 -5l-11 61q247 0 404 11q18 103 18 242h-335v61h407v-61q0 -139 -16 -236q41 3 108 13l6 -53q-133 -22 -262 -29zM706 822h73v-519h-73v519z" />
<glyph unicode="&#xadd1;" d="M304 277v158q-109 -5 -244 -5l-11 61q246 0 403 10q21 101 21 221h-338v61h410v-51q0 -129 -19 -227q76 6 109 10l5 -53q-126 -18 -263 -24v-161h-73zM707 0v113h-440v-113h440zM707 171v104h72v-335h-585v335h73v-104h440zM706 821h73v-506h-73v506z" />
<glyph unicode="&#xadd3;" d="M778 822v-635h-73v635h73zM295 208v194q-104 -5 -230 -5l-10 61q243 0 397 11q21 111 21 242h-334v61h406v-53q0 -140 -19 -245q76 8 108 13l6 -54q-127 -20 -272 -28v-197h-73zM549 259v-42q0 -85 88 -147.5t210 -81.5l-29 -57q-103 18 -186 65.5t-120 118.5 q-37 -70 -121 -118t-188 -66l-28 57q124 18 212.5 81t88.5 148v42h73z" />
<glyph unicode="&#xaddc;" d="M862 372v-61h-217v-384h-72v384h-232v-384h-73v384h-213v61h595q29 140 29 322v8h-520v61h591v-69q0 -181 -26 -322h138z" />
<glyph unicode="&#xade0;" d="M228 226v-218h555v-61h-628v279h73zM737 436h129v-60h-230v-220h-71v220h-170v-220h-71v220h-270v60h611q23 115 23 270v7h-531v60h602v-67q0 -157 -22 -270z" />
<glyph unicode="&#xade4;" d="M571 316v123h-223v-123h223zM866 439h-222v-123h119v-212h-537v-106h559v-59h-631v219h536v98h-539v60h124v123h-221v60h613q20 99 20 227h-528v60h600v-57q0 -133 -18 -230h125v-60z" />
<glyph unicode="&#xadf8;" d="M681 638v26h-538v61h610v-87q0 -241 -35 -435l-73 7q36 184 36 428zM55 122h807v-61h-807v61z" />
<glyph unicode="&#xadf9;" d="M141 183v61h624v-320h-73v259h-551zM735 442h131v-60h-812v60h608q25 120 25 274v1h-528v61h600v-62q0 -155 -24 -274z" />
<glyph unicode="&#xadfc;" d="M234 243v-234h552v-61h-625v295h73zM735 408h131v-61h-813v61h609q26 125 26 291v9h-530v61h601v-70q0 -167 -24 -291z" />
<glyph unicode="&#xadff;" d="M228 196v-196h544v-60h-617v316h610v-60h-537zM734 448h131v-61h-811v61h607q26 112 26 262v5h-529v61h600v-66q0 -152 -24 -262z" />
<glyph unicode="&#xae00;" d="M226 110v-112h559v-59h-631v228h536v106h-539v59h612v-222h-537zM739 485h127v-60h-812v60h612q21 103 21 238h-528v61h600v-58q0 -138 -20 -241z" />
<glyph unicode="&#xae01;" d="M214 98v-101q187 0 291 23l8 -57q-106 -24 -315 -24h-54v214h223v91h-225v58h295v-204h-223zM486 241v61h282v-370h-72v309h-210zM736 466h129v-60h-811v60h608q25 109 25 254h-529v61h601v-61q0 -145 -23 -254z" />
<glyph unicode="&#xae08;" d="M227 196v-196h464v196h-464zM155 -60v315h607v-315h-607zM734 442h132v-61h-812v61h607q26 114 26 266v5h-528v61h600v-66q0 -153 -25 -266z" />
<glyph unicode="&#xae09;" d="M686 0v129h-453v-129h453zM686 188v122h73v-371h-599v371h73v-122h453zM734 454h132v-61h-813v61h608q26 112 26 261v4h-529v61h601v-65q0 -150 -25 -261z" />
<glyph unicode="&#xae0b;" d="M492 271v-44q0 -89 89 -154.5t213 -85.5l-27 -56q-105 18 -189.5 67.5t-122.5 123.5q-38 -74 -122 -123.5t-189 -67.5l-28 56q124 20 213.5 85.5t89.5 154.5v44h73zM730 419h132v-61h-807v61h602q28 127 28 292v4h-531v60h602v-64q0 -164 -26 -292z" />
<glyph unicode="&#xae0d;" d="M457 -10q110 0 173 28t63 79q0 50 -63 78.5t-173 28.5q-109 0 -172 -28.5t-63 -78.5q0 -51 62.5 -79t172.5 -28zM457 264q144 0 226.5 -44t82.5 -123t-82 -123t-227 -44t-227 44t-82 123t82.5 123t226.5 44zM734 437h131v-61h-811v61h606q27 117 27 271v6h-528v60h600 v-66q0 -155 -25 -271z" />
<glyph unicode="&#xae14;" d="M494 647v6h-374v61h446v-67q0 -186 -28 -331l-72 9q28 141 28 322zM69 151l-11 62q380 0 588 30l4 -55q-209 -35 -581 -37zM703 822h73v-895h-73v895z" />
<glyph unicode="&#xae30;" d="M107 725h416q0 -201 -102 -362.5t-315 -265.5l-39 59q358 172 382 509h-342v60zM713 822h73v-895h-73v895z" />
<glyph unicode="&#xae31;" d="M114 763h408q0 -167 -113 -285.5t-313 -173.5l-29 58q168 45 267.5 134t110.5 207h-331v60zM192 192v61h594v-328h-73v267h-521zM713 822h73v-526h-73v526z" />
<glyph unicode="&#xae34;" d="M785 821v-650h-73v650h73zM115 753h411q0 -170 -114 -296t-313 -188l-30 59q166 52 266 147t111 217h-331v61zM281 8h528v-61h-601v276h73v-215z" />
<glyph unicode="&#xae37;" d="M788 822v-512h-74v512h74zM110 763h407q0 -166 -111 -284t-311 -172l-30 59q167 44 265 131.5t110 204.5h-330v61zM287 0h518v-60h-591v323h576v-61h-503v-202z" />
<glyph unicode="&#xae38;" d="M786 821v-458h-73v458h73zM114 776h407q0 -165 -111.5 -274t-312.5 -156l-27 58q168 38 264 118.5t106 192.5h-326v61zM285 -5h533v-59h-606v227h501v97h-503v59h576v-212h-501v-112z" />
<glyph unicode="&#xae3a;" d="M113 773h408q0 -164 -112 -274t-311 -157l-29 60q168 38 265.5 118.5t107.5 193.5h-329v59zM240 100v-104q145 0 231 16l7 -58q-89 -16 -261 -16h-47v216h213v89h-215v59h284v-202h-212zM570 244v-249h152v249h-152zM506 -62v364h280v-364h-280zM712 822h74v-475h-74v475 z" />
<glyph unicode="&#xae40;" d="M112 763h410q0 -166 -113.5 -284t-313.5 -172l-30 59q168 44 268 132t112 205h-333v60zM281 212v-212h433v212h-433zM210 -60v331h576v-331h-576zM713 822h73v-507h-73v507z" />
<glyph unicode="&#xae41;" d="M113 768h409q0 -167 -110.5 -278.5t-316.5 -160.5l-27 58q173 40 269 123t106 198h-330v60zM713 0v121h-430v-121h430zM713 179v117h72v-356h-575v356h73v-117h430zM712 822h73v-487h-73v487z" />
<glyph unicode="&#xae43;" d="M784 822v-603h-73v603h73zM114 752h409q0 -170 -112.5 -293.5t-311.5 -184.5l-29 59q166 50 265.5 143t110.5 215h-332v61zM536 283v-36q0 -95 88.5 -166t211.5 -93l-30 -58q-104 21 -187.5 75t-120.5 132q-37 -79 -121.5 -132.5t-189.5 -74.5l-29 58q123 22 213 92.5 t90 166.5v36h75z" />
<glyph unicode="&#xae45;" d="M783 821v-540h-73v540h73zM112 754h410q0 -168 -115.5 -290.5t-310.5 -179.5l-32 57q164 48 265.5 140.5t114.5 211.5h-332v61zM489 -11q105 0 165.5 30t60.5 82t-61 82.5t-165 30.5t-165 -30.5t-61 -82.5t60.5 -82t165.5 -30zM489 273q139 0 219 -45.5t80 -126.5 q0 -80 -80.5 -126t-218.5 -46t-218.5 46t-80.5 126q0 81 80 126.5t219 45.5z" />
<glyph unicode="&#xae46;" d="M784 822v-504h-73v504h73zM113 763h410q0 -167 -113 -283t-314 -169l-28 59q168 44 267 130.5t109 202.5h-331v60zM541 203v-3q0 -76 87 -136.5t205 -77.5l-28 -56q-99 16 -181.5 62.5t-119.5 112.5q-36 -65 -117.5 -111.5t-181.5 -63.5l-26 56q116 17 202 77.5t86 136.5 v3h-254v61h583v-61h-255z" />
<glyph unicode="&#xae4a;" d="M785 821v-490h-73v490h73zM115 760h412q0 -165 -113.5 -279.5t-313.5 -165.5l-29 59q169 41 268.5 126t109.5 199h-334v61zM403 219v-218h199v218h-199zM674 1h137v-60h-614v60h134v218h-126v60h595v-60h-126v-218z" />
<glyph unicode="&#xae4c;" d="M80 724h244q0 -368 -212 -593l-59 42q185 189 202 490h-175v61zM352 724h215q0 -421 -199 -653l-59 40q177 202 190 552h-147v61zM892 449v-61h-137v-461h-73v894h73v-372h137z" />
<glyph unicode="&#xae4d;" d="M368 304l-53 43q89 69 132 154.5t51 194.5h-143v61h213q0 -142 -46 -253.5t-154 -199.5zM83 757h236q0 -134 -49 -231t-160 -173l-47 47q88 59 132.5 129t53.5 167h-166v61zM168 188v61h578v-324h-73v263h-505zM880 580v-61h-134v-229h-73v531h73v-241h134z" />
<glyph unicode="&#xae4e;" d="M367 316l-52 43q168 129 183 342h-143v60h213q0 -141 -46.5 -249.5t-154.5 -195.5zM83 761h236q0 -133 -49 -228.5t-159 -171.5l-48 47q88 57 132.5 127t53.5 166h-166v60zM140 198v60h284v-331h-72v271h-212zM468 198v60h278v-331h-72v271h-206zM880 592v-61h-134v-224 h-73v515h73v-230h134z" />
<glyph unicode="&#xae50;" d="M362 262l-50 47q172 139 186 375h-144v61h214q0 -149 -47 -269t-159 -214zM82 745h237q0 -139 -49.5 -247t-159.5 -193l-50 47q173 124 189 332h-167v61zM262 219v-211h520v-61h-593v272h73zM746 535h134v-61h-134v-307h-73v656h73v-288z" />
<glyph unicode="&#xae54;" d="M367 359l-52 44q87 61 130.5 134.5t51.5 173.5h-145v61h215q0 -135 -47 -234t-153 -179zM79 772h237q0 -125 -50.5 -211.5t-155.5 -158.5l-49 47q84 54 129 114.5t54 147.5h-165v61zM255 107v-108h528v-59h-600v223h492v99h-494v59h566v-214h-492zM747 622h133v-61h-133 v-196h-73v457h73v-200z" />
<glyph unicode="&#xae56;" d="M367 349l-52 43q88 63 131.5 139t51.5 177h-145v61h215q0 -136 -47 -238.5t-154 -181.5zM79 769h237q0 -125 -51 -212.5t-155 -158.5l-48 46q84 54 129 115t55 149h-167v61zM204 97v-103q144 0 229 16l7 -57q-89 -16 -260 -16h-46v215h209v89h-211v57h281v-201h-209z M534 242v-249h148v249h-148zM470 -63v361h276v-361h-276zM880 619v-61h-134v-210h-73v474h73v-203h134z" />
<glyph unicode="&#xae5c;" d="M368 310l-54 43q89 68 132.5 153.5t51.5 194.5h-144v61h214q0 -142 -46.5 -253t-153.5 -199zM82 762h237q0 -135 -49 -232.5t-159 -173.5l-48 47q88 57 132.5 128t53.5 170h-167v61zM259 201v-201h415v201h-415zM188 -60v320h558v-320h-558zM880 598v-61h-134v-233h-73 v518h73v-224h134z" />
<glyph unicode="&#xae5d;" d="M370 323l-53 43q88 68 130.5 150t50.5 189h-144v60h214q0 -140 -46 -248.5t-152 -193.5zM82 765h237q0 -133 -49 -228t-158 -169l-48 47q88 57 132 125.5t53 164.5h-167v60zM674 -1v118h-415v-118h415zM674 176v115h72v-352h-559v352h72v-115h415zM880 614v-61h-134v-216 h-73v485h73v-208h134z" />
<glyph unicode="&#xae5f;" d="M368 294l-54 43q89 71 132.5 157t51.5 196h-144v61h214q0 -143 -46 -255.5t-154 -201.5zM82 751h235q0 -135 -48 -233t-156 -175l-49 47q87 59 131 130.5t53 169.5h-166v61zM516 269v-25q0 -95 88.5 -163.5t212.5 -90.5l-30 -57q-103 21 -186.5 72.5t-121.5 127.5 q-38 -76 -121.5 -127.5t-187.5 -72.5l-30 57q124 22 213.5 90.5t89.5 163.5v25h73zM746 570h134v-61h-134v-284h-73v597h73v-252z" />
<glyph unicode="&#xae60;" d="M370 309l-54 45q168 129 183 346h-144v60h214q0 -142 -46 -252.5t-153 -198.5zM113 355l-48 48q88 58 132.5 128.5t53.5 168.5h-166v60h236q0 -134 -48.5 -231t-159.5 -174zM675 271v-58q0 -72 49.5 -134.5t132.5 -91.5l-37 -55q-65 24 -111.5 69.5t-69.5 104.5 q-48 -131 -166 -182q-122 49 -166 177q-24 -56 -70 -100.5t-108 -68.5l-37 55q82 30 132 94.5t50 131.5v58h70v-58q0 -64 33 -123t95 -94q62 38 97 99t35 118v58h71zM746 598h134v-61h-134v-226h-73v510h73v-223z" />
<glyph unicode="&#xae61;" d="M368 315l-53 43q88 68 131.5 152t51.5 191h-143v61h213q0 -141 -46.5 -250.5t-153.5 -196.5zM83 762h236q0 -135 -49 -232t-159 -174l-48 47q88 58 132.5 129t53.5 169h-166v61zM463 -11q103 0 161.5 28t58.5 79q0 50 -58.5 78t-161.5 28t-162 -28t-59 -78q0 -51 59 -79 t162 -28zM463 261q136 0 214 -43.5t78 -121.5t-78 -122.5t-214 -44.5q-137 0 -215 44t-78 123q0 78 78 121.5t215 43.5zM746 595h134v-61h-134v-242h-73v530h73v-227z" />
<glyph unicode="&#xae65;" d="M367 354l-52 44q87 62 130.5 135.5t51.5 172.5h-144v61h214q0 -134 -47 -234t-153 -179zM80 767h236q0 -125 -50.5 -211.5t-155.5 -158.5l-49 47q84 54 129 114.5t55 147.5h-165v61zM262 89v-94h510v-55h-582v348h562v-55h-490v-90h479v-54h-479zM746 611h134v-61h-134 v-212h-73v484h73v-211z" />
<glyph unicode="&#xae68;" d="M76 713h199q0 -358 -158 -561l-59 35q143 175 154 465h-136v61zM306 713h179q0 -83 -4.5 -149.5t-19 -155.5t-48.5 -171.5t-85 -150.5l-60 34q147 184 153 532h-115v61zM751 822h70v-894h-70v468h-116v-424h-69v829h69v-344h116v365z" />
<glyph unicode="&#xae69;" d="M326 299l-58 38q77 74 112.5 161.5t41.5 199.5h-118v60h186q0 -143 -36 -255t-128 -204zM78 758h201q0 -133 -37 -228.5t-130 -176.5l-55 42q76 62 111.5 133.5t42.5 169.5h-133v60zM203 190v60h609v-323h-73v263h-536zM742 821h70v-527h-70v238h-115v-232h-69v505h69 v-212h115v228z" />
<glyph unicode="&#xae6c;" d="M627 489v-303h-69v620h69v-256h115v272h70v-666h-70v333h-115zM330 279l-60 38q78 76 112 166t40 205h-117v60h184q0 -145 -34.5 -259.5t-124.5 -209.5zM77 748h204q0 -136 -36.5 -235t-130.5 -183l-55 42q77 65 112.5 140t41.5 176h-136v60zM292 8h547v-61h-620v281h73 v-220z" />
<glyph unicode="&#xae70;" d="M627 553v-190h-69v442h69v-191h115v208h70v-465h-70v196h-115zM326 346l-56 41q76 66 111 142t41 178h-117v61h185q0 -136 -36 -236.5t-128 -185.5zM77 768h203q0 -126 -37.5 -212t-129.5 -161l-52 43q74 57 109 118.5t42 150.5h-135v61zM300 -1h546v-59h-619v219h511v96 h-513v59h587v-210h-512v-105z" />
<glyph unicode="&#xae78;" d="M332 311l-61 38q76 73 110.5 158t40.5 195h-117v61h184q0 -142 -34 -251t-123 -201zM75 763h204q0 -132 -36 -225.5t-128 -172.5l-54 42q74 61 108.5 130t41.5 165h-136v61zM297 205v-205h443v205h-443zM226 -60v325h586v-325h-586zM742 822h70v-514h-70v223h-115v-216 h-69v491h69v-214h115v230z" />
<glyph unicode="&#xae79;" d="M337 328l-60 38q74 71 107 153.5t39 190.5h-117v60h184q0 -139 -33 -245t-120 -197zM78 770h204q0 -131 -37 -223.5t-130 -170.5l-53 41q75 62 110 130t42 163h-136v60zM739 -1v124h-439v-124h439zM739 182v111h72v-354h-584v354h73v-111h439zM741 822h70v-487h-70v206 h-113v-201h-69v465h69v-203h113v220z" />
<glyph unicode="&#xae7b;" d="M627 528v-214h-69v490h69v-215h115v232h70v-583h-70v290h-115zM329 283l-60 38q78 77 112.5 167.5t40.5 205.5h-118v60h185q0 -146 -34.5 -261t-125.5 -210zM77 754h203q0 -136 -35.5 -234t-127.5 -182l-55 42q75 65 109.5 139t40.5 175h-135v60zM555 275v-41 q0 -88 92.5 -157.5t212.5 -88.5l-29 -57q-102 19 -188.5 71.5t-124.5 126.5q-39 -75 -125 -127t-189 -71l-29 57q120 19 213 88.5t93 157.5v41h74z" />
<glyph unicode="&#xae7c;" d="M628 531v-221h-69v495h69v-213h114v228h70v-518h-70v229h-114zM332 313l-58 39q75 71 108.5 153.5t39.5 191.5h-117v61h184q0 -140 -34 -247t-123 -198zM116 361l-54 42q74 62 108.5 130.5t41.5 163.5h-136v61h204q0 -131 -36 -224.5t-128 -172.5zM697 267v-50 q0 -71 50 -134.5t132 -91.5l-36 -54q-65 23 -111.5 68.5t-69.5 103.5q-48 -129 -165 -180q-125 49 -166 178q-54 -122 -180 -170l-36 54q81 30 131.5 94.5t50.5 131.5v50h70v-50q0 -64 33 -123t95 -94q62 38 96.5 99.5t34.5 117.5v50h71z" />
<glyph unicode="&#xae7d;" d="M628 519v-212h-69v498h69v-225h114v242h70v-548h-70v245h-114zM329 299l-58 40q76 71 110.5 155.5t40.5 194.5h-118v61h185q0 -141 -35 -250t-125 -201zM77 750h204q0 -132 -36 -226t-128 -174l-55 42q75 61 109.5 130.5t41.5 166.5h-136v61zM519 -13q107 0 168.5 28 t61.5 79q0 49 -62 77.5t-168 28.5t-168 -28.5t-62 -77.5q0 -51 61.5 -79t168.5 -28zM519 258q141 0 222 -44t81 -120q0 -78 -80.5 -121.5t-222.5 -43.5t-222.5 43.5t-80.5 121.5q0 76 81 120t222 44z" />
<glyph unicode="&#xae84;" d="M80 724h244q0 -369 -212 -593l-59 42q185 189 202 490h-175v61zM352 724h215q0 -421 -199 -653l-59 41q177 201 190 551h-147v61zM891 518h-136v-208h136v-61h-136v-322h-73v894h73v-242h136v-61z" />
<glyph unicode="&#xae85;" d="M368 304l-53 43q89 70 132 155t51 194h-143v61h213q0 -142 -46 -253.5t-154 -199.5zM83 757h236q0 -134 -49 -231t-160 -173l-47 47q88 59 132.5 129t53.5 167h-166v61zM168 188v61h578v-324h-73v263h-505zM879 622h-133v-126h133v-61h-133v-145h-73v531h73v-138h133v-61 z" />
<glyph unicode="&#xae8c;" d="M367 359l-52 43q87 62 130.5 135.5t51.5 173.5h-145v61h215q0 -134 -47 -234t-153 -179zM79 772h237q0 -125 -50.5 -211.5t-155.5 -158.5l-49 46q84 55 129 115.5t54 147.5h-165v61zM255 107v-108h528v-59h-600v223h492v99h-494v59h566v-214h-492zM879 648h-132v-105h132 v-60h-132v-118h-73v456h73v-113h132v-60z" />
<glyph unicode="&#xaebc;" d="M80 724h244q0 -369 -212 -594l-59 43q185 189 202 490h-175v61zM712 821h73v-894h-73v480h-181q-45 -197 -165 -336l-59 40q177 202 190 552h-147v61h215q0 -139 -20 -256h167v353z" />
<glyph unicode="&#xaebd;" d="M80 759h236q0 -135 -49 -233t-159 -174l-48 46q89 59 133 130.5t53 169.5h-166v61zM189 188v61h596v-322h-72v261h-524zM713 821h72v-531h-72v234h-187q-49 -129 -163 -222l-52 43q168 134 182 353h-144v61h214q0 -94 -19 -174h169v236z" />
<glyph unicode="&#xaebe;" d="M80 761h236q0 -134 -48.5 -230.5t-158.5 -172.5l-49 46q88 59 132.5 129t53.5 168h-166v60zM164 196v60h291v-329h-73v269h-218zM501 196v60h284v-329h-72v269h-212zM713 822h72v-525h-72v227h-189q-50 -122 -160 -212l-52 44q166 128 181 345h-144v60h214 q0 -97 -20 -176h170v237z" />
<glyph unicode="&#xaec0;" d="M364 266l-51 46q168 136 183 374h-144v61h214q0 -108 -23 -199h170v272h72v-656h-72v324h-188q-49 -129 -161 -222zM83 747h236q0 -139 -47.5 -245t-156.5 -190l-49 46q89 65 132 144.5t51 183.5h-166v61zM285 8h523v-61h-596v267h73v-206z" />
<glyph unicode="&#xaec4;" d="M367 361l-52 43q87 61 129.5 135t50.5 174h-147v61h217q0 -92 -21 -168h168v216h73v-462h-73v186h-189q-49 -105 -156 -185zM84 774h233q0 -124 -50 -210t-154 -157l-49 46q83 53 127.5 113t53.5 147h-161v61zM281 -6h533v-60h-605v226h504v97h-506v59h578v-212h-504 v-110z" />
<glyph unicode="&#xaecc;" d="M80 761h236q0 -134 -49 -231t-159 -174l-48 47q88 59 132.5 129.5t53.5 167.5h-166v61zM278 211v-211h436v211h-436zM206 -60v330h579v-330h-579zM713 821h72v-507h-72v212h-188q-46 -121 -159 -216l-53 43q166 130 180 347h-143v61h213q0 -94 -19 -174h169v234z" />
<glyph unicode="&#xaecd;" d="M84 767h234q0 -132 -49 -227t-158 -171l-48 47q88 57 132 126.5t53 164.5h-164v60zM714 0v122h-431v-122h431zM714 180v116h71v-356h-574v356h72v-116h431zM713 822h72v-480h-72v191h-187q-47 -120 -156 -209l-53 44q164 128 179 339h-145v60h214q0 -94 -19 -173h167v228 z" />
<glyph unicode="&#xaecf;" d="M367 293l-53 45q88 70 130.5 156.5t50.5 196.5h-143v61h213q0 -106 -23 -192h171v262h72v-615h-72v292h-192q-49 -118 -154 -206zM84 752h234q0 -135 -49 -233t-159 -176l-48 47q89 59 133 130.5t53 170.5h-164v61zM535 287v-39q0 -95 88.5 -165.5t211.5 -93.5l-30 -58 q-102 20 -185.5 73.5t-121.5 130.5q-37 -78 -121 -131.5t-188 -74.5l-29 58q123 23 212.5 94t89.5 167v39h73z" />
<glyph unicode="&#xaed0;" d="M366 316l-52 45q165 129 179 340h-144v60h214q0 -98 -22 -179h172v239h73v-514h-73v215h-191q-47 -116 -156 -206zM107 358l-47 46q88 59 132.5 129.5t53.5 167.5h-166v60h236q0 -133 -49 -230t-160 -173zM684 278v-59q0 -72 49 -135.5t133 -91.5l-37 -55 q-133 50 -181 173q-48 -129 -166 -181q-124 51 -166 179q-25 -57 -71 -102t-108 -69l-37 55q81 29 131.5 94t50.5 133v59h70v-59q0 -65 33.5 -124t95.5 -94q63 38 97.5 99.5t34.5 118.5v59h71z" />
<glyph unicode="&#xaed1;" d="M364 311l-53 43q89 69 132 153.5t50 192.5h-144v61h214q0 -105 -23 -188h173v248h72v-547h-72v239h-194q-47 -113 -155 -202zM80 761h236q0 -134 -49 -231.5t-160 -174.5l-48 47q89 59 133.5 130t53.5 168h-166v61zM492 -13q104 0 164.5 30t60.5 82q0 51 -60.5 80.5 t-164.5 29.5q-103 0 -164 -29.5t-61 -80.5q0 -52 61 -82t164 -30zM492 267q137 0 217 -45t80 -123q0 -79 -79.5 -124.5t-217.5 -45.5t-218 45.5t-80 124.5q0 78 80 123t218 45z" />
<glyph unicode="&#xaed8;" d="M76 714h197q0 -364 -157 -571l-58 33q142 176 153 477h-135v61zM581 467v331h69v-825h-69v433h-134q-35 -194 -133 -324l-58 35q85 107 116.5 242.5t35.5 293.5h-105v61h167q0 -143 -13 -247h124zM745 822h70v-895h-70v895z" />
<glyph unicode="&#xaed9;" d="M321 300l-58 38q76 73 110.5 160.5t40.5 199.5h-111v60h178q0 -91 -13 -169h112v213h69v-502h-69v228h-126q-39 -131 -133 -228zM78 758h202q0 -130 -36.5 -225.5t-126.5 -178.5l-54 42q73 63 107.5 134t41.5 168h-134v60zM201 188v61h609v-322h-73v261h-536zM740 821h70 v-528h-70v528z" />
<glyph unicode="&#xaedc;" d="M811 821v-665h-70v665h70zM320 272l-58 39q78 77 112 169t40 209h-110v60h177q0 -106 -15 -189h115v243h69v-627h-69v324h-130q-39 -131 -131 -228zM79 749h201q0 -136 -36.5 -236.5t-128.5 -184.5l-55 42q76 66 111 141t41 178h-133v60zM293 18h543v-60h-616v267h73 v-207z" />
<glyph unicode="&#xaee8;" d="M321 309l-58 37q76 73 110.5 159t40.5 197h-110v60h176q0 -100 -15 -178h116v218h69v-486h-69v208h-131q-38 -123 -129 -215zM78 762h200q0 -132 -36 -226.5t-126 -173.5l-54 40q74 62 108.5 132t41.5 168h-134v60zM297 205v-205h442v205h-442zM226 -60v325h584v-325 h-584zM740 821h70v-515h-70v515z" />
<glyph unicode="&#xaeeb;" d="M810 820v-598h-70v598h70zM321 287l-58 38q77 76 111 165t40 202h-111v61h177q0 -93 -13 -172h113v221h69v-499h-69v217h-127q-37 -133 -132 -233zM78 753h202q0 -133 -36.5 -229.5t-127.5 -179.5l-55 41q75 64 110 136.5t41 170.5h-134v61zM552 273v-34q0 -88 93 -157.5 t214 -89.5l-30 -58q-103 19 -190 72.5t-125 129.5q-38 -76 -125 -129.5t-190 -72.5l-29 58q120 20 213.5 89.5t93.5 157.5v34h75z" />
<glyph unicode="&#xaeed;" d="M810 820v-545h-70v545h70zM324 299l-58 39q75 73 108.5 159.5t39.5 197.5h-110v60h177q0 -97 -14 -174h114v221h69v-495h-69v213h-129q-37 -127 -128 -221zM80 755h200q0 -131 -36.5 -225.5t-126.5 -175.5l-55 41q74 63 108.5 133t41.5 167h-132v60zM505 -13 q112 0 175.5 27.5t63.5 77.5t-63.5 77.5t-175.5 27.5t-175 -27.5t-63 -77.5t63 -77.5t175 -27.5zM505 255q148 0 230.5 -42.5t82.5 -120.5t-82.5 -120.5t-230.5 -42.5q-147 0 -230 42.5t-83 120.5t83 120.5t230 42.5z" />
<glyph unicode="&#xaef4;" d="M76 724h244q0 -364 -215 -591l-58 42q187 194 203 488h-174v61zM506 338h206v177h-165q-16 -106 -41 -177zM712 822h73v-895h-73v351h-228q-46 -116 -123 -206l-61 39q178 203 191 552h-144v61h213q0 -78 -7 -149h159v247z" />
<glyph unicode="&#xaef8;" d="M361 266l-52 45q168 139 181 375h-139v61h209q0 -53 -6 -103h159v176h72v-659h-72v207h-186v61h186v154h-167q-38 -191 -185 -317zM83 747h235q0 -139 -47 -245t-156 -190l-49 46q89 65 131.5 144t50.5 184h-165v61zM285 8h523v-61h-596v266h73v-205z" />
<glyph unicode="&#xaefc;" d="M366 362l-52 43q85 62 127.5 135.5t50.5 172.5h-145v61h215q0 -39 -5 -84h155v132h73v-462h-73v100h-176v59h176v113h-164q-37 -162 -182 -270zM84 774h233q0 -124 -50 -209.5t-154 -156.5l-49 47q83 53 127.5 112.5t53.5 145.5h-161v61zM281 -6h533v-60h-605v226h504v97 h-506v59h578v-212h-504v-110z" />
<glyph unicode="&#xaf07;" d="M366 293l-54 43q88 72 130.5 158.5t50.5 196.5h-142v61h211q0 -54 -6 -104h157v174h72v-616h-72v188h-181v61h181v133h-167q-38 -176 -180 -295zM84 752h234q0 -135 -49 -232.5t-159 -175.5l-48 47q89 59 133 130t53 170h-164v61zM535 276v-30q0 -94 88.5 -164t211.5 -92 l-30 -57q-102 20 -185.5 72t-121.5 128q-37 -77 -121 -129t-188 -73l-29 57q123 22 212.5 92.5t89.5 165.5v30h73z" />
<glyph unicode="&#xaf08;" d="M365 317l-53 43q87 69 129.5 152t49.5 189h-142v60h211q0 -44 -5 -92h158v152h73v-514h-73v109h-178v61h178v131h-167q-38 -173 -181 -291zM107 357l-47 47q88 59 132.5 129.5t53.5 167.5h-166v60h236q0 -133 -49 -230t-160 -174zM684 278v-60q0 -72 49.5 -135t132.5 -91 l-37 -55q-132 48 -181 173q-48 -129 -166 -181q-124 51 -166 179q-25 -57 -71 -102.5t-108 -68.5l-37 55q81 29 131.5 94t50.5 132v60h70v-60q0 -64 33.5 -123.5t95.5 -94.5q63 39 97.5 100.5t34.5 117.5v60h71z" />
<glyph unicode="&#xaf0d;" d="M354 328l-53 44q168 126 183 337h-135v60h205q0 -44 -5 -92h164v145h72v-489h-72v105h-181v60h181v120h-173q-38 -173 -186 -290zM82 769h235q0 -133 -48.5 -227t-157.5 -169l-48 47q87 57 131 125t53 164h-165v60zM285 -3h521v-57h-594v350h576v-57h-503v-90h490v-55 h-490v-91z" />
<glyph unicode="&#xaf10;" d="M76 714h197q0 -364 -157 -571l-58 33q142 176 153 477h-135v61zM434 345h148v169h-120q-8 -87 -28 -169zM582 575v223h69v-825h-69v311h-165q-38 -114 -103 -202l-58 35q85 107 116.5 242.5t35.5 293.5h-105v61h167q0 -74 -4 -139h116zM745 822h70v-895h-70v895z" />
<glyph unicode="&#xaf2c;" d="M696 665v2h-229v61h301v-63q0 -212 -36 -395l-73 9q37 175 37 386zM336 267l-73 12q58 199 60 388h-206v61h278v-29q0 -210 -59 -432zM513 121h349v-61h-807v61h386v292h72v-292z" />
<glyph unicode="&#xaf2d;" d="M743 473l-71 8q24 118 26 240h-227v61h297v-37q0 -147 -25 -272zM355 472l-71 10q39 128 41 239h-199v61h269v-30q0 -148 -40 -280zM143 173v61h617v-302h-72v241h-545zM512 393h350v-61h-806v61h384v183h72v-183z" />
<glyph unicode="&#xaf30;" d="M743 451l-71 9q26 131 26 255h-227v61h297v-40q0 -153 -25 -285zM355 450l-72 11q40 132 42 254h-199v61h269v-33q0 -155 -40 -293zM235 224v-216h543v-61h-616v277h73zM512 376h349v-61h-806v61h385v182h72v-182z" />
<glyph unicode="&#xaf32;" d="M743 491l-70 8q23 110 25 225h-227v60h297v-35q0 -139 -25 -258zM356 491l-72 12q39 115 41 221h-199v60h269v-33q0 -139 -39 -260zM222 264v-252q107 4 196 27l10 -60q-113 -28 -235 -28h-42v313h71zM608 -20q41 0 66.5 18t25.5 47t-25.5 46.5t-66.5 17.5t-66.5 -17.5 t-25.5 -46.5t25.5 -47t66.5 -18zM608 161q68 0 111.5 -32t43.5 -84t-43.5 -84t-111.5 -32q-67 0 -111 32t-44 84t44 84t111 32zM643 330v-81h165v-56h-401v56h165v81h71zM512 432h350v-61h-806v61h384v162h72v-162z" />
<glyph unicode="&#xaf34;" d="M744 515l-71 9q23 107 25 209h-227v60h297v-33q0 -132 -24 -245zM356 514l-72 11q39 112 41 208h-200v60h270v-31q0 -134 -39 -248zM230 102v-104h560v-60h-631v221h528v92h-531v59h602v-208h-528zM511 457h351v-61h-807v61h384v157h72v-157z" />
<glyph unicode="&#xaf3c;" d="M742 477l-70 9q23 116 25 237h-226v60h297v-36q0 -147 -26 -270zM355 477l-71 11q39 126 41 235h-199v60h269v-29q0 -147 -40 -277zM228 187v-187h462v187h-462zM157 -60v306h604v-306h-604zM512 409h350v-60h-806v60h384v174h72v-174z" />
<glyph unicode="&#xaf3d;" d="M742 482l-70 9q23 114 25 233h-226v61h297v-36q0 -145 -26 -267zM356 481l-73 12q37 114 42 231h-199v61h269v-29q0 -145 -39 -275zM683 0v122h-448v-122h448zM683 182v107h73v-349h-593v349h72v-107h448zM512 422h350v-61h-807v61h385v164h72v-164z" />
<glyph unicode="&#xaf3f;" d="M742 465l-71 8q26 130 26 243h-226v60h297v-37q0 -148 -26 -274zM355 464l-71 11q39 130 41 241h-199v60h269v-30q0 -149 -40 -282zM495 271v-45q0 -89 89.5 -154t215.5 -84l-28 -57q-106 18 -191 66.5t-123 121.5q-38 -73 -123 -121.5t-192 -66.5l-27 57q125 19 215 84 t90 154v45h74zM512 397h349v-61h-805v61h384v172h72v-172z" />
<glyph unicode="&#xaf41;" d="M742 476l-70 8q25 129 25 238h-226v60h297v-37q0 -146 -26 -269zM355 476l-71 11q39 126 41 235h-199v60h269v-30q0 -146 -40 -276zM457 -13q108 0 170.5 29t62.5 80t-62.5 79.5t-170.5 28.5q-109 0 -171.5 -28.5t-62.5 -79.5t62.5 -80t171.5 -29zM457 263q144 0 226 -44 t82 -123t-82 -123.5t-226 -44.5q-145 0 -227 44.5t-82 123.5t82 123t227 44zM512 403h349v-60h-805v60h384v176h72v-176z" />
<glyph unicode="&#xaf42;" d="M742 479l-70 9q23 116 25 235h-226v60h297v-36q0 -146 -26 -268zM355 479l-71 10q39 126 41 234h-199v60h269v-29q0 -146 -40 -275zM767 190h-266q17 -77 103 -131.5t198 -71.5l-28 -56q-106 17 -191.5 66.5t-123.5 123.5q-37 -74 -122.5 -123t-192.5 -67l-27 57 q111 17 197.5 71t103.5 131h-265v61h614v-61zM512 411h349v-61h-805v61h384v173h72v-173z" />
<glyph unicode="&#xaf43;" d="M743 493l-70 9q23 110 25 225h-227v60h297v-35q0 -140 -25 -259zM356 493l-72 12q39 115 41 222h-199v60h269v-33q0 -140 -39 -261zM755 187h-259q7 -72 95 -128.5t200 -71.5l-28 -55q-100 16 -184 61.5t-121 111.5q-38 -66 -122 -111.5t-184 -61.5l-28 55 q112 15 200.5 72t95.5 128h-259v60h260v94h74v-94h260v-60zM512 436h349v-61h-805v61h384v157h72v-157z" />
<glyph unicode="&#xaf48;" d="M543 333l-67 9q22 149 22 316h-166v61h234v-56q0 -183 -23 -330zM231 325l-68 15q47 145 47 318h-137v61h204v-57q0 -182 -46 -337zM379 454v-262q148 9 236 21l3 -56q-214 -34 -562 -34l-10 61q146 0 265 5v265h68zM883 444v-61h-141v-456h-73v895h73v-378h141z" />
<glyph unicode="&#xaf49;" d="M527 452l-69 9q27 114 27 238h-157v61h227v-48q0 -145 -28 -260zM241 451l-70 11q34 119 36 237h-130v61h199v-32q0 -147 -35 -277zM609 398l4 -54q-210 -34 -558 -34l-8 61q135 0 258 4v175h67v-172q138 7 237 20zM153 163v60h591v-290h-73v230h-518zM872 564v-61h-128 v-237h-73v555h73v-257h128z" />
<glyph unicode="&#xaf50;" d="M530 494l-69 10q24 103 24 206h-157v61h227v-44q0 -131 -25 -233zM242 493l-69 10q32 107 34 207h-130v61h199v-29q0 -134 -34 -249zM612 452l5 -53q-218 -35 -561 -35l-8 61q136 0 257 4v155h67v-152q140 7 240 20zM238 95v-99h538v-58h-611v212h506v88h-508v58h581 v-201h-506zM744 601h128v-61h-128v-204h-73v486h73v-221z" />
<glyph unicode="&#xaf5c;" d="M528 458l-69 8q26 114 26 237h-157v61h227v-48q0 -145 -27 -258zM242 457l-70 10q33 120 35 236h-130v61h199v-32q0 -146 -34 -275zM609 406l5 -53q-200 -35 -559 -35l-8 61q166 0 258 4v171h67v-168q152 7 237 20zM664 250v-38q0 -69 45.5 -130t124.5 -89l-36 -54 q-124 46 -170 163q-46 -122 -166 -171q-121 49 -166 170q-48 -116 -169 -162l-37 54q80 29 125.5 90.5t45.5 128.5v38h70v-38q0 -60 34.5 -118t96.5 -93q62 36 96.5 94t34.5 117v38h71zM744 581h128v-61h-128v-235h-73v537h73v-241z" />
<glyph unicode="&#xaf5d;" d="M527 459l-69 10q27 111 27 234h-157v61h227v-47q0 -145 -28 -258zM242 456l-70 11q33 120 35 236h-130v61h199v-32q0 -146 -34 -276zM608 408l6 -54q-193 -34 -558 -36l-9 61q165 0 258 4v173h67v-170q132 7 236 22zM459 -11q103 0 161.5 26t58.5 73q0 46 -58.5 72 t-161.5 26q-104 0 -162.5 -26t-58.5 -72q0 -47 58.5 -73t162.5 -26zM459 244q137 0 215 -41t78 -115t-78 -115.5t-215 -41.5q-138 0 -215.5 41.5t-77.5 115.5t77.5 115t215.5 41zM744 575h128v-61h-128v-255h-73v562h73v-246z" />
<glyph unicode="&#xaf64;" d="M432 651v5h-139v61h203v-66q0 -176 -19 -295l-64 10q19 122 19 285zM211 355l-65 10q36 150 36 291h-113v61h177v-41q0 -173 -35 -321zM334 445v-235q134 8 195 17l6 -53q-174 -31 -479 -31l-10 61q141 0 224 3v238h64zM740 822h70v-894h-70v456h-103v-411h-69v829h69 v-357h103v377z" />
<glyph unicode="&#xaf65;" d="M477 466l-62 6q19 114 19 230h-144v61h206v-47q0 -140 -19 -250zM214 464l-62 14q31 121 33 224h-115v61h177v-28q0 -143 -33 -271zM527 400l5 -53q-189 -30 -473 -30l-11 61q116 0 225 4v180h63v-178q132 8 191 16zM203 167v61h607v-302h-72v241h-535zM740 822h70v-553 h-70v243h-100v-237h-69v529h69v-231h100v249z" />
<glyph unicode="&#xaf79;" d="M640 511v-221h-69v514h69v-232h100v250h70v-562h-70v251h-100zM477 467l-62 5q19 109 19 231h-144v60h206v-47q0 -139 -19 -249zM214 465l-62 14q31 121 33 224h-115v60h177v-27q0 -144 -33 -271zM527 405l5 -54q-187 -33 -473 -33l-11 61q121 0 225 5v178h63v-175 q120 7 191 18zM508 -14q109 0 171 27.5t62 76.5t-61.5 76t-171.5 27q-109 0 -170.5 -27t-61.5 -76t62 -76.5t170 -27.5zM508 251q145 0 226 -42t81 -119q0 -76 -81.5 -119t-225.5 -43t-225.5 43t-81.5 119q0 77 81 119t226 42z" />
<glyph unicode="&#xaf80;" d="M566 331l-66 9q22 143 22 318h-173v61h240v-56q0 -184 -23 -332zM248 325l-69 12q42 158 42 321h-138v61h206v-46q0 -184 -41 -348zM397 457v-266q161 9 251 23l5 -55q-218 -36 -587 -36l-9 61q175 0 272 4v269h68zM708 822h73v-895h-73v895z" />
<glyph unicode="&#xaf84;" d="M785 822v-665h-73v665h73zM571 436l-68 8q27 116 27 239h-178v61h246v-48q0 -145 -27 -260zM262 435l-68 10q35 124 37 238h-137v61h205v-32q0 -147 -37 -277zM647 378l5 -54q-234 -37 -588 -37l-8 61q131 0 273 6v178h69v-175q130 6 249 21zM274 8h539v-61h-612v256h73 v-195z" />
<glyph unicode="&#xaf88;" d="M785 822v-492h-73v492h73zM572 494l-67 9q24 106 24 209h-176v60h243v-44q0 -131 -24 -234zM264 492l-69 10q33 110 35 210h-137v60h204v-29q0 -135 -33 -251zM646 451l5 -53q-230 -37 -587 -37l-11 61q147 0 276 4v161h68v-158q157 9 249 22zM262 -3h555v-59h-627v207 h523v89h-525v57h597v-200h-523v-94z" />
<glyph unicode="&#xaf90;" d="M570 463l-66 8q26 108 26 225h-178v61h246v-46q0 -139 -28 -248zM264 463l-69 9q34 119 36 224h-137v61h205v-31q0 -140 -35 -263zM648 411l5 -55q-229 -34 -589 -36l-8 61q131 0 273 6v172h69v-169q132 6 250 21zM273 179v-179h441v179h-441zM202 -60v299h583v-299h-583 zM712 822h73v-535h-73v535z" />
<glyph unicode="&#xaf91;" d="M570 469l-66 8q26 108 26 225h-178v61h246v-46q0 -139 -28 -248zM264 469l-69 9q34 119 36 224h-137v61h205v-31q0 -140 -35 -263zM648 423l5 -54q-243 -36 -589 -36l-8 61q154 0 273 5v169h69v-166q132 6 250 21zM713 0v115h-444v-115h444zM713 173v104h72v-337h-588 v337h72v-104h444zM712 821h73v-513h-73v513z" />
<glyph unicode="&#xaf95;" d="M785 821v-554h-73v554h73zM570 461l-66 8q26 108 26 225h-178v61h246v-46q0 -139 -28 -248zM264 461l-69 9q34 119 36 224h-137v61h205v-31q0 -140 -35 -263zM648 408l5 -54q-228 -35 -589 -37l-8 61q131 0 273 6v172h69v-169q132 6 250 21zM492 -13q104 0 164 27.5 t60 76.5t-59.5 76.5t-164.5 27.5q-106 0 -165.5 -27.5t-59.5 -76.5t60 -76.5t165 -27.5zM492 253q139 0 218 -42.5t79 -119.5q0 -76 -79 -119t-218 -43q-140 0 -219 43t-79 119q0 77 79 119.5t219 42.5z" />
<glyph unicode="&#xaf9c;" d="M699 665v2h-256v61h327v-63q0 -212 -35 -396l-72 10q36 175 36 386zM300 271l-71 21q62 188 62 375h-184v61h255v-42q0 -207 -62 -415zM613 121h249v-61h-807v61h297v279h71v-279h119v279h71v-279z" />
<glyph unicode="&#xafb8;" d="M862 384v-61h-367v-396h-73v396h-367v61h236q43 164 45 313h-216v61h288v-25q0 -175 -43 -349h298q34 150 36 313h-225v61h296v-37q0 -174 -34 -337h126z" />
<glyph unicode="&#xafb9;" d="M864 399h-369v-166h265v-303h-73v243h-542v60h277v166h-368v61h255q34 134 39 259h-214v61h285v-22q0 -153 -36 -298h281q31 128 33 259h-209v61h280v-32q0 -151 -30 -288h126v-61z" />
<glyph unicode="&#xafbc;" d="M235 228v-220h539v-61h-612v281h73zM736 425h128v-61h-362v-221h-72v221h-377v61h254q36 144 41 280h-215v61h286v-22q0 -162 -37 -319h280q33 138 35 280h-209v61h280v-32q0 -161 -32 -309z" />
<glyph unicode="&#xafc0;" d="M864 442h-370v-117h267v-219h-534v-108h563v-60h-636v226h534v102h-536v59h270v117h-368v61h258q32 115 36 226h-214v60h285v-26q0 -137 -32 -260h280q28 117 30 226h-209v60h280v-29q0 -135 -28 -257h124v-61z" />
<glyph unicode="&#xafc7;" d="M208 97v-99q165 0 251 16l8 -57q-89 -17 -280 -17h-48v210h211v89h-213v57h282v-199h-211zM637 -20q39 0 62.5 18t23.5 49q0 30 -24 48t-62 18t-62 -18t-24 -48q0 -31 23.5 -49t62.5 -18zM637 164q66 0 107.5 -31.5t41.5 -85.5t-41.5 -86t-107.5 -32t-107.5 32t-41.5 86 t41.5 85.5t107.5 31.5zM672 336v-84h153v-56h-374v56h150v84h71zM740 498h124v-60h-372v-135h-73v135h-366v60h258q33 116 37 229h-215v60h286v-25q0 -139 -33 -264h280q29 119 31 229h-209v60h280v-29q0 -137 -28 -260z" />
<glyph unicode="&#xafc8;" d="M690 0v192h-462v-192h462zM864 408h-370v-156h267v-312h-604v312h264v156h-367v61h258q31 125 36 249h-214v60h285v-21q0 -148 -34 -288h282q28 125 30 249h-209v60h280v-32q0 -146 -28 -277h124v-61z" />
<glyph unicode="&#xafc9;" d="M685 0v123h-454v-123h454zM685 182v118h73v-361h-599v361h72v-118h454zM740 480h126v-61h-373v-169h-72v169h-368v61h259q32 122 36 243h-215v60h286v-20q0 -145 -33 -283h281q28 121 30 243h-209v60h280v-30q0 -144 -28 -273z" />
<glyph unicode="&#xafcb;" d="M495 220v-34q0 -76 90 -130t215 -68l-28 -57q-107 14 -192.5 56t-122.5 107q-38 -64 -123.5 -106.5t-191.5 -56.5l-27 57q123 14 214 69t91 129v34h75zM738 460h127v-61h-372v-141h-72v141h-367v61h256q34 133 38 256h-214v61h285v-22q0 -152 -35 -295h281q30 127 32 256 h-209v61h280v-32q0 -150 -30 -285z" />
<glyph unicode="&#xafcd;" d="M690 100q0 51 -62.5 79.5t-170.5 28.5q-109 0 -171.5 -28.5t-62.5 -79.5t62.5 -79.5t171.5 -28.5q108 0 170.5 28.5t62.5 79.5zM864 400h-370v-134q126 -5 197.5 -48.5t71.5 -117.5q0 -79 -81.5 -123.5t-224.5 -44.5q-144 0 -225.5 44.5t-81.5 123.5q0 74 71.5 117.5 t199.5 48.5v134h-367v61h256q33 127 38 254h-214v60h285v-21q0 -150 -35 -293h282q29 127 31 254h-209v60h280v-32q0 -148 -29 -282h125v-61z" />
<glyph unicode="&#xafce;" d="M864 404h-368v-144h271v-61h-266q14 -79 101 -135t200 -73l-30 -57q-105 18 -190.5 67t-121.5 123q-37 -73 -122.5 -122t-191.5 -67l-29 58q114 17 201 72.5t101 133.5h-266v61h271v144h-370v61h258q31 127 36 252h-214v61h285v-22q0 -148 -34 -291h282q28 125 30 252 h-209v61h280v-32q0 -148 -28 -281h124v-61z" />
<glyph unicode="&#xafd4;" d="M648 426l4 -55q-108 -16 -270 -25v-379h-73v377q-112 -5 -256 -5l-10 61q53 0 175 2q35 140 35 283h-154v61h224v-46q0 -160 -32 -297q130 4 193 8q30 131 30 274h-146v61h216v-51q0 -155 -27 -278q31 3 91 9zM712 821h73v-895h-73v268h-209v59h209v568z" />
<glyph unicode="&#xafdc;" d="M513 429h196v392h73v-502h-73v56h-196v54zM289 320v152q-137 -5 -230 -5l-10 61q113 0 174 2q26 99 28 189h-143v60h213v-28q0 -118 -26 -221q66 2 180 8q24 91 26 181h-139v60h208v-32q0 -112 -22 -204q14 1 41.5 3t41.5 4l5 -53q-136 -17 -274 -23v-154h-73zM263 -5 h553v-57h-626v204h520v87h-522v57h594v-197h-519v-94z" />
<glyph unicode="&#xafe8;" d="M513 393h197v429h73v-556h-73v72h-197v55zM289 274v165q-104 -5 -230 -5l-10 61q111 0 172 1q28 109 30 211h-143v61h213v-30q0 -129 -27 -241q102 3 179 10q25 100 27 200h-138v61h208v-34q0 -120 -23 -220q55 6 84 10l5 -52q-105 -19 -274 -30v-168h-73zM687 241v-27 q0 -71 50 -133t133 -89l-36 -54q-65 23 -112 67t-70 101q-45 -127 -166 -176q-122 49 -165 175q-24 -56 -71 -100t-111 -67l-35 54q82 28 132 90t50 132v27h70v-27q0 -61 33.5 -120t95.5 -94q63 36 97 95t34 119v27h71z" />
<glyph unicode="&#xafe9;" d="M513 389h196v433h73v-570h-73v80h-196v57zM289 262v176q-104 -5 -230 -5l-10 61q111 0 171 2q29 111 31 215h-143v60h213v-29q0 -132 -28 -246q63 2 179 10q27 101 29 205h-139v60h208v-34q0 -122 -24 -224q44 5 84 9l6 -52q-109 -18 -274 -29v-179h-73zM489 -14 q105 0 165 26.5t60 73.5q0 48 -59.5 74t-165.5 26t-165.5 -26t-59.5 -74q0 -47 60 -73.5t165 -26.5zM489 244q140 0 219 -41.5t79 -116.5t-79 -116t-219 -41q-141 0 -219.5 41t-78.5 116t78.5 116.5t219.5 41.5z" />
<glyph unicode="&#xaff0;" d="M529 430l6 -53q-92 -15 -218 -25v-352h-70v347q-92 -5 -203 -5l-9 61q34 0 124 2q34 129 34 261h-118v61h184v-43q0 -149 -30 -277q77 3 151 9q29 120 29 250h-117v61h183v-48q0 -144 -26 -258q43 3 80 9zM572 262v539h69v-823h-69v225h-167v59h167zM736 822h71v-895h-71 v895z" />
<glyph unicode="&#xaff1;" d="M413 385h161v421h69v-548h-69v73h-161v54zM258 262v170q-76 -4 -204 -4l-10 60q83 0 131 1q25 103 27 205h-116v61h178v-32q0 -125 -24 -232q54 1 157 7q22 95 22 196h-118v61h181v-48q0 -117 -19 -203q10 1 33 3.5t35 4.5l5 -51q-85 -17 -208 -24v-175h-70zM179 157v60 h624v-287h-73v227h-551zM733 821h70v-566h-70v566z" />
<glyph unicode="&#xaff4;" d="M803 822v-680h-70v680h70zM413 343h161v464h69v-645h-69v125h-161v56zM258 240v166q-95 -5 -204 -5l-10 61q82 0 129 1q27 116 29 223h-116v60h178v-27q0 -135 -26 -255q108 4 156 8q25 103 25 214h-118v60h181v-45q0 -125 -21 -223q29 2 70 8l5 -52q-96 -18 -208 -24 v-170h-70zM268 8h564v-61h-637v257h73v-196z" />
<glyph unicode="&#xaff8;" d="M803 821v-505h-70v505h70zM413 432h161v374h69v-484h-69v55h-161v55zM258 315v153q-100 -4 -204 -4l-10 60q84 0 132 1q24 96 26 183h-116v60h178v-28q0 -116 -23 -214q53 1 156 7q22 89 22 175h-118v60h181v-44q0 -105 -19 -185q13 1 35.5 3.5t32.5 3.5l5 -50 q-83 -15 -208 -24v-157h-70zM269 -5h562v-57h-633v203h533v85h-536v56h608v-194h-534v-93z" />
<glyph unicode="&#xb000;" d="M413 389h161v417h69v-530h-69v58h-161v55zM258 270v167q-76 -4 -204 -4l-10 60q83 0 130 1q26 108 28 207h-116v60h179v-30q0 -127 -25 -236q71 1 157 8q22 96 22 198h-118v60h182v-45q0 -117 -19 -207q46 6 67 8l5 -51q-80 -16 -208 -25v-171h-70zM264 172v-172h468v172 h-468zM192 -60v291h611v-291h-611zM733 822h70v-555h-70v555z" />
<glyph unicode="&#xb001;" d="M413 410h161v396h69v-512h-69v61h-161v55zM258 289v157q-95 -5 -204 -5l-10 61q83 0 130 1q26 106 28 202h-116v61h179v-31q0 -125 -24 -231q71 1 157 8q21 93 21 193h-118v61h182v-48q0 -116 -19 -200q13 1 35.5 3.5l31.5 3.5l5 -51q-85 -17 -208 -24v-161h-70zM731 0 v103h-466v-103h466zM731 161v93h72v-314h-610v314h72v-93h466zM733 822h70v-531h-70v531z" />
<glyph unicode="&#xb004;" d="M803 822v-555h-70v555h70zM413 389h161v417h69v-531h-69v59h-161v55zM258 270v167q-76 -4 -204 -4l-10 60q83 0 130 1q26 108 28 207h-116v60h179v-30q0 -127 -25 -236q71 1 157 8q22 96 22 198h-118v60h182v-45q0 -117 -19 -207q46 6 67 8l5 -51q-80 -16 -208 -25v-171 h-70zM689 236v-28q0 -70 50 -130t133 -87l-35 -55q-134 46 -183 166q-47 -127 -166 -173q-120 47 -166 172q-51 -120 -182 -165l-36 55q84 27 134 87.5t50 129.5v28h70v-28q0 -59 34 -116.5t96 -92.5q61 35 95 93t34 116v28h72z" />
<glyph unicode="&#xb00c;" d="M654 421l4 -55q-123 -17 -266 -25v-366h-72v364q-140 -6 -264 -6l-10 62q55 0 179 2q36 143 36 289h-154v61h225v-46q0 -163 -32 -303q128 4 190 9q32 129 32 279h-145v61h215v-52q0 -156 -27 -283q60 6 89 9zM716 823h73v-895h-73v895z" />
<glyph unicode="&#xb010;" d="M787 822v-672h-73v672h73zM323 191v187q-112 -6 -258 -6l-11 61q113 0 175 2q31 125 33 255h-147v60h217v-34q0 -148 -31 -279q103 3 185 10q30 121 30 243h-146v60h216v-41q0 -140 -26 -255q60 6 89 10l6 -53q-100 -18 -259 -29v-191h-73zM247 8h568v-61h-640v276h72 v-215z" />
<glyph unicode="&#xb014;" d="M787 821v-465h-73v465h73zM265 -2h558v-58h-630v223h521v96h-523v58h126v122q-150 -5 -253 -5l-9 61q115 0 177 1q28 110 30 214h-147v61h217v-31q0 -131 -26 -243q101 2 182 7q25 104 27 206h-143v61h214v-36q0 -123 -24 -226q29 2 85 8l5 -52q-95 -13 -262 -23v-125 h397v-209h-522v-110z" />
<glyph unicode="&#xb01c;" d="M715 2v185h-450v-185h450zM391 408v-161h396v-305h-594v305h125v158q-114 -5 -254 -5l-10 61q114 0 177 1q29 116 31 235h-147v60h218v-33q0 -138 -28 -260q102 3 183 10q28 117 28 223h-146v60h216v-40q0 -130 -24 -237q30 3 88 11l5 -53q-112 -20 -264 -30zM714 821h73 v-534h-73v534z" />
<glyph unicode="&#xb01d;" d="M324 261v158q-124 -4 -260 -4l-10 61q115 0 177 1q29 113 31 227h-147v61h218v-33q0 -136 -28 -252q100 2 182 7q27 103 29 217h-146v61h216v-39q0 -129 -24 -234q57 4 88 7l5 -54q-137 -16 -259 -22v-162h-72zM715 0v111h-456v-111h456zM715 169v110h72v-339h-600v339 h72v-110h456zM714 821h73v-505h-73v505z" />
<glyph unicode="&#xb028;" d="M862 387v-61h-211v-398h-73v398h-240v-398h-73v398h-210v61h235q44 161 46 310h-216v61h288v-25q0 -174 -42 -346h297q34 153 36 310h-226v61h297v-36q0 -172 -34 -335h126z" />
<glyph unicode="&#xb044;" d="M696 650v8h-220v61h292v-69q0 -227 -39 -426l-74 9q41 188 41 417zM351 223l-74 12q59 212 62 423h-222v61h294v-32q0 -224 -60 -464zM55 124h807v-61h-807v61z" />
<glyph unicode="&#xb045;" d="M141 198v60h622v-328h-73v268h-549zM732 443h133v-60h-811v60h254q34 134 39 270h-217v61h288v-22q0 -158 -36 -309h277q32 133 34 270h-213v61h283v-33q0 -157 -31 -298z" />
<glyph unicode="&#xb048;" d="M233 245v-229h549v-61h-622v290h73zM730 406h134v-61h-811v61h251q39 155 43 294h-218v61h289v-18q0 -168 -40 -337h279q33 150 35 294h-212v61h283v-27q0 -167 -33 -328z" />
<glyph unicode="&#xb04a;" d="M222 278v-266q107 4 196 27l9 -60q-106 -28 -234 -28h-42v327h71zM609 -19q42 0 67.5 18.5t25.5 50.5q0 31 -25.5 50t-67.5 19t-67.5 -19t-25.5 -50q0 -32 25.5 -50.5t67.5 -18.5zM609 171q69 0 112.5 -33t43.5 -88q0 -56 -43.5 -89t-112.5 -33t-112 33t-43 89 q0 55 43 88t112 33zM644 348v-81h163v-56h-401v56h167v81h71zM734 458h130v-61h-810v61h255q36 135 38 259h-217v61h288v-27q0 -153 -34 -293h277q30 129 32 259h-213v61h284v-35q0 -151 -30 -285z" />
<glyph unicode="&#xb04c;" d="M227 114v-115h563v-59h-636v231h534v103h-536v59h609v-219h-534zM734 492h131v-61h-811v61h256q31 119 35 233h-218v61h289v-26q0 -141 -33 -268h277q29 121 31 233h-213v61h284v-29q0 -140 -28 -265z" />
<glyph unicode="&#xb04e;" d="M211 106v-109q154 0 237 16l7 -57q-87 -16 -266 -16h-47v220h214v92h-216v56h285v-202h-214zM548 252v-256h159v256h-159zM485 -60v368h286v-368h-286zM731 464h133v-60h-810v60h252q38 137 40 257h-218v61h289v-27q0 -152 -35 -291h276q31 132 33 257h-213v61h284v-31 q0 -151 -31 -287z" />
<glyph unicode="&#xb053;" d="M208 109v-111q159 0 251 16l8 -57q-89 -17 -279 -17h-49v223h211v98h-213v57h282v-209h-211zM637 -18q39 0 63 19.5t24 51.5q0 33 -24 52.5t-63 19.5t-62.5 -19.5t-23.5 -52.5q0 -32 24 -51.5t62 -19.5zM637 178q66 0 108 -34.5t42 -90.5t-42 -90t-108 -34q-65 0 -107 34 t-42 90t42 90.5t107 34.5zM672 359v-87h153v-56h-374v56h150v87h71zM735 472h129v-60h-810v60h257q37 131 39 253h-219v60h289v-26q0 -150 -35 -287h276q32 129 34 253h-214v60h284v-30q0 -149 -30 -283z" />
<glyph unicode="&#xb054;" d="M227 202v-201h464v201h-464zM155 -59v320h607v-320h-607zM732 455h132v-61h-810v61h255q33 132 38 265h-217v61h288v-23q0 -156 -35 -303h276q31 132 33 265h-212v61h282v-33q0 -154 -30 -293z" />
<glyph unicode="&#xb055;" d="M686 0v134h-454v-134h454zM686 194v127h73v-382h-599v382h72v-127h454zM733 468h131v-60h-811v60h256q33 129 38 257h-218v60h289v-22q0 -151 -35 -295h277q30 128 32 257h-212v60h282v-33q0 -150 -29 -284z" />
<glyph unicode="&#xb057;" d="M495 272v-46q0 -89 89.5 -154t214.5 -83l-28 -59q-105 18 -190 67t-123 122q-38 -73 -123 -122t-191 -67l-28 59q125 18 215 83t90 154v46h74zM732 431h132v-61h-810v61h252q37 151 41 284h-217v61h288v-18q0 -163 -38 -327h279q31 146 33 284h-211v61h282v-27 q0 -162 -31 -318z" />
<glyph unicode="&#xb059;" d="M457 -12q107 0 170.5 30.5t63.5 83.5t-63.5 83.5t-170.5 30.5q-108 0 -171.5 -30.5t-63.5 -83.5t63.5 -83.5t171.5 -30.5zM457 276q142 0 225 -46.5t83 -127.5t-83 -127.5t-225 -46.5q-143 0 -226 46.5t-83 127.5t83 127.5t226 46.5zM731 441h133v-61h-810v61h253 q35 137 40 275h-217v60h288v-22q0 -160 -36 -313h275q33 135 35 275h-212v60h282v-33q0 -158 -31 -302z" />
<glyph unicode="&#xb05d;" d="M230 101v-103h541v-58h-614v374h608v-58h-535v-99h512v-56h-512zM732 475h132v-61h-810v61h256q33 130 37 251h-217v60h288v-21q0 -148 -35 -290h276q31 124 33 251h-212v60h282v-34q0 -148 -30 -277z" />
<glyph unicode="&#xb07c;" d="M86 724h243q0 -364 -216 -592l-58 42q188 193 205 489h-174v61zM359 724h219q0 -419 -198 -653l-62 41q178 202 191 551h-150v61zM712 821h73v-894h-73v894z" />
<glyph unicode="&#xb07d;" d="M385 307l-53 44q87 69 128.5 153t48.5 192h-151v61h221q0 -142 -44.5 -252.5t-149.5 -197.5zM88 757h235q0 -134 -48.5 -231t-157.5 -173l-49 47q88 58 132 128.5t53 167.5h-165v61zM190 188v61h595v-322h-72v261h-523zM713 821h72v-531h-72v531z" />
<glyph unicode="&#xb080;" d="M785 820v-648h-72v648h72zM382 266l-52 45q90 74 132 166t49 207h-152v61h221q0 -149 -44 -267t-154 -212zM86 745h237q0 -140 -46.5 -245.5t-155.5 -189.5l-50 47q88 65 131 144t51 183h-167v61zM278 8h533v-61h-606v272h73v-211z" />
<glyph unicode="&#xb084;" d="M785 822v-457h-73v457h73zM379 359l-52 44q87 61 129.5 134.5t50.5 173.5h-150v61h220q0 -135 -46 -234.5t-152 -178.5zM84 772h237q0 -125 -51 -211.5t-156 -158.5l-48 47q84 53 129.5 114t54.5 148h-166v61zM281 -1h540v-59h-611v223h504v99h-507v59h578v-214h-504 v-108z" />
<glyph unicode="&#xb08c;" d="M382 314l-52 42q165 130 180 345h-152v61h221q0 -141 -45.5 -251.5t-151.5 -196.5zM87 762h236q0 -134 -49 -231.5t-159 -173.5l-48 47q88 58 132.5 129t53.5 168h-166v61zM277 201v-201h436v201h-436zM206 -60v320h579v-320h-579zM712 821h73v-518h-73v518z" />
<glyph unicode="&#xb08d;" d="M384 322l-54 44q88 68 130.5 151t49.5 190h-150v60h220q0 -142 -45 -250.5t-151 -194.5zM89 767h236q0 -134 -49 -229.5t-159 -170.5l-48 48q88 58 132.5 126.5t53.5 165.5h-166v60zM713 -1v119h-432v-119h432zM713 177v116h72v-354h-576v354h72v-116h432zM712 822h73 v-483h-73v483z" />
<glyph unicode="&#xb08f;" d="M784 822v-607h-72v607h72zM383 294l-52 44q87 71 129 156.5t49 195.5h-150v61h220q0 -143 -44.5 -255.5t-151.5 -201.5zM88 751h235q0 -135 -48.5 -232.5t-158.5 -174.5l-48 46q88 59 132 130t53 170h-165v61zM541 268v-32q0 -93 89.5 -161t214.5 -89l-29 -57 q-105 20 -190 71.5t-123 127.5q-37 -76 -121.5 -127.5t-189.5 -71.5l-29 57q124 21 213.5 89t89.5 161v32h75z" />
<glyph unicode="&#xb091;" d="M785 821v-534h-72v534h72zM384 312l-54 44q88 69 131 153t50 192h-151v61h220q0 -141 -45 -251t-151 -199zM88 762h236q0 -134 -49 -231.5t-160 -173.5l-47 47q88 59 132.5 129.5t53.5 167.5h-166v61zM489 -15q107 0 168.5 29t61.5 81q0 51 -62 80.5t-168 29.5 q-107 0 -169 -29t-62 -81t62 -81t169 -29zM489 264q141 0 222 -45t81 -124q0 -80 -80.5 -124.5t-222.5 -44.5q-143 0 -224 44.5t-81 124.5q0 79 81.5 124t223.5 45z" />
<glyph unicode="&#xb098;" d="M164 734v-517q217 0 414 40l8 -61q-201 -41 -425 -41h-70v579h73zM886 462v-62h-147v-472h-73v894h73v-360h147z" />
<glyph unicode="&#xb099;" d="M578 476l10 -60q-203 -40 -420 -40h-69v394h73v-333q210 0 406 39zM171 196v61h575v-330h-73v269h-502zM880 597v-61h-134v-227h-73v512h73v-224h134z" />
<glyph unicode="&#xb09a;" d="M576 490l10 -61q-203 -40 -418 -40h-69v381h73v-320q211 0 404 40zM151 210v61h277v-344h-72v283h-205zM472 210v61h274v-344h-72v283h-202zM880 603v-61h-134v-221h-73v500h73v-218h134z" />
<glyph unicode="&#xb09c;" d="M579 440l10 -60q-201 -41 -420 -41h-70v416h73v-354q217 0 407 39zM269 238v-230h510v-61h-582v291h72zM746 553h134v-62h-134v-317h-73v646h73v-267z" />
<glyph unicode="&#xb09f;" d="M577 488l10 -60q-203 -40 -419 -40h-69v385h73v-324q210 0 405 39zM260 207v-207h500v-60h-573v328h562v-61h-489zM746 610h134v-61h-134v-226h-73v498h73v-211z" />
<glyph unicode="&#xb0a0;" d="M577 517l10 -62q-203 -40 -419 -40h-69v368h73v-306q218 0 405 40zM257 111v-111h523v-60h-595v227h489v98h-491v60h563v-214h-489zM746 633h134v-61h-134v-203h-73v452h73v-188z" />
<glyph unicode="&#xb0a1;" d="M577 509l10 -60q-203 -40 -419 -40h-69v373h73v-312q210 0 405 39zM218 100v-102q171 0 276 20l8 -57q-101 -21 -302 -21h-52v214h217v93h-219v57h289v-204h-217zM474 244v60h272v-372h-72v312h-200zM881 620v-61h-135v-205h-73v467h73v-201h135z" />
<glyph unicode="&#xb0a2;" d="M577 511l10 -61q-201 -41 -419 -41h-69v373h73v-310q216 0 405 39zM206 104v-105q144 0 227 16l8 -58q-94 -17 -260 -17h-46v218h208v94h-210v57h280v-205h-207zM534 253v-257h148v257h-148zM470 -60v369h276v-369h-276zM881 622v-61h-135v-207h-73v467h73v-199h135z" />
<glyph unicode="&#xb0a8;" d="M578 488l10 -60q-203 -40 -420 -40h-69v388h73v-326q215 0 406 38zM257 207v-207h418v207h-418zM186 -60v326h560v-326h-560zM881 613v-61h-135v-235h-73v504h73v-208h135z" />
<glyph unicode="&#xb0a9;" d="M578 503l10 -61q-203 -40 -420 -40h-69v378h73v-317q211 0 406 40zM674 0v124h-416v-124h416zM674 185v124h72v-370h-560v370h72v-124h416zM881 619v-61h-134v-201h-74v465h74v-203h134z" />
<glyph unicode="&#xb0ab;" d="M578 464l10 -60q-203 -40 -420 -40h-69v396h73v-335q210 0 406 39zM516 289v-40q0 -95 88 -165t211 -93l-30 -57q-102 20 -185 72.5t-121 128.5q-37 -77 -121 -129.5t-188 -73.5l-30 57q124 22 213.5 92.5t89.5 167.5v40h73zM746 574h134v-61h-134v-280h-73v588h73v-247z " />
<glyph unicode="&#xb0ac;" d="M578 480l10 -60q-201 -41 -420 -41h-69v385h73v-323q216 0 406 39zM675 283v-68q0 -71 49.5 -134.5t132.5 -92.5l-37 -55q-65 25 -111.5 70.5t-69.5 103.5q-46 -130 -165 -180q-122 47 -165 177q-25 -57 -71 -102t-108 -69l-37 55q81 30 131.5 95t50.5 132v68h70v-68 q0 -64 33 -123t95 -94q62 38 96.5 99.5t34.5 117.5v68h71zM746 606h135v-61h-135v-225h-73v501h73v-215z" />
<glyph unicode="&#xb0ad;" d="M578 473l10 -60q-203 -40 -420 -40h-69v392h73v-331q210 0 406 39zM462 -12q101 0 161 31t60 83t-60.5 83t-160.5 31t-160.5 -31t-60.5 -83t60 -83t161 -31zM462 276q134 0 213.5 -47t79.5 -127t-79.5 -127t-213.5 -47t-213.5 47t-79.5 127q0 79 79.5 126.5t213.5 47.5z M746 596h134v-61h-134v-247h-72v533h72v-225z" />
<glyph unicode="&#xb0ae;" d="M578 488l10 -60q-203 -40 -420 -40h-69v384h73v-322q215 0 406 38zM762 206h-252q1 -75 87 -137t199 -82l-29 -56q-97 18 -177.5 66.5t-118.5 116.5q-36 -68 -116.5 -116.5t-178.5 -66.5l-29 57q74 12 138.5 43t105.5 77.5t42 97.5h-253v60h582v-60zM746 599h134v-61 h-134v-225h-73v510h73v-224z" />
<glyph unicode="&#xb0af;" d="M577 511l10 -61q-203 -40 -419 -40h-69v368h73v-307q212 0 405 40zM766 193h-260q5 -73 91.5 -131.5t198.5 -74.5l-27 -56q-99 17 -181 64t-119 113q-36 -66 -118 -113t-181 -64l-27 56q112 16 198 74.5t91 131.5h-260v59h261v103h73v-103h260v-59zM747 612h133v-61h-133 v-221h-74v491h74v-209z" />
<glyph unicode="&#xb0b1;" d="M577 503l10 -62q-203 -40 -419 -40h-69v374h73v-311q216 0 405 39zM261 95v-98h511v-57h-584v361h563v-57h-490v-94h479v-55h-479zM746 617h134v-61h-134v-211h-73v477h73v-205z" />
<glyph unicode="&#xb0b3;" d="M577 530l10 -61q-203 -40 -419 -40h-69v353h73v-291q216 0 405 39zM475 -16q80 0 126.5 20.5t46.5 56.5t-46.5 56.5t-126.5 20.5t-126 -20.5t-46 -56.5t46 -56.5t126 -20.5zM475 193q116 0 182 -34.5t66 -97.5t-66 -97.5t-182 -34.5t-181.5 34.5t-65.5 97.5t65.5 97.5 t181.5 34.5zM512 386v-92h274v-59h-622v59h275v92h73zM746 635h134v-61h-134v-216h-73v463h73v-186z" />
<glyph unicode="&#xb0b4;" d="M172 711v-485q165 2 298 28l8 -63q-149 -29 -322 -29h-56v549h72zM740 821h70v-893h-70v465h-134v-419h-69v827h69v-347h134v367z" />
<glyph unicode="&#xb0b5;" d="M470 471l8 -61q-143 -29 -322 -29h-56v379h72v-318q163 2 298 29zM209 191v61h598v-325h-73v264h-525zM737 822h70v-526h-70v236h-131v-230h-69v502h69v-211h131v229z" />
<glyph unicode="&#xb0b8;" d="M606 498v-311h-69v617h69v-245h131v262h70v-664h-70v341h-131zM471 432l7 -60q-146 -28 -322 -28h-56v400h72v-339q163 0 299 27zM298 18h536v-60h-608v292h72v-232z" />
<glyph unicode="&#xb0bc;" d="M605 561v-195h-69v438h69v-182h132v200h70v-461h-70v200h-132zM470 502l7 -60q-141 -27 -321 -27h-55v355h72v-294q169 2 297 26zM295 0h547v-60h-620v223h513v96h-515v59h587v-211h-512v-107z" />
<glyph unicode="&#xb0c4;" d="M470 466l8 -61q-149 -27 -322 -27h-56v386h72v-325q163 0 298 27zM293 207v-207h443v207h-443zM222 -60v327h585v-327h-585zM737 821h70v-511h-70v220h-132v-213h-69v487h69v-213h132v230z" />
<glyph unicode="&#xb0c5;" d="M471 482l8 -60q-147 -28 -323 -28h-55v369h72v-308q171 2 298 27zM735 0v121h-438v-121h438zM735 181v112h72v-354h-583v354h73v-112h438zM737 822h70v-487h-70v206h-132v-199h-69v463h69v-203h132v220z" />
<glyph unicode="&#xb0c7;" d="M605 521v-211h-69v495h69v-223h132v240h70v-588h-70v287h-132zM467 444l10 -58q-140 -37 -322 -37h-55v391h72v-332q164 2 295 36zM549 269v-35q0 -88 93 -157t214 -89l-29 -57q-102 18 -189 70.5t-126 127.5q-38 -75 -124.5 -127.5t-188.5 -70.5l-29 57q120 20 213 89 t93 157v35h73z" />
<glyph unicode="&#xb0c8;" d="M605 535v-219h-70v489h70v-209h132v226h70v-515h-70v228h-132zM470 458l7 -61q-145 -28 -321 -28h-55v382h72v-321q166 2 297 28zM695 279v-63q0 -71 50 -134.5t132 -90.5l-35 -55q-134 49 -183 173q-48 -129 -164 -181q-125 50 -167 177q-53 -120 -179 -169l-36 55 q81 29 131.5 93.5t50.5 131.5v63h70v-63q0 -64 33 -123t95 -94q62 38 96.5 99.5t34.5 117.5v63h71z" />
<glyph unicode="&#xb0c9;" d="M605 524v-212h-70v492h70v-219h132v236h70v-542h-70v245h-132zM472 453l7 -61q-146 -28 -323 -28h-55v385h72v-324q168 2 299 28zM514 -12q104 0 164.5 29t60.5 80t-60.5 79.5t-164.5 28.5t-164.5 -28.5t-60.5 -79.5t60.5 -80t164.5 -29zM514 264q138 0 217.5 -44.5 t79.5 -122.5q0 -79 -79.5 -123.5t-217.5 -44.5t-217.5 44.5t-79.5 123.5q0 78 79.5 122.5t217.5 44.5z" />
<glyph unicode="&#xb0d0;" d="M164 734v-517q218 0 414 41l8 -63q-201 -41 -424 -41h-71v580h73zM882 532h-143v-205h143v-61h-143v-338h-73v895h73v-230h143v-61z" />
<glyph unicode="&#xb0d1;" d="M578 477l10 -61q-203 -40 -420 -40h-69v395h73v-334q211 0 406 40zM171 196v61h575v-330h-73v269h-502zM879 630h-133v-129h133v-61h-133v-131h-73v513h73v-131h133v-61z" />
<glyph unicode="&#xb0d4;" d="M579 440l10 -60q-201 -41 -420 -41h-70v416h73v-354q217 0 407 39zM269 238v-230h510v-61h-582v291h72zM879 596h-133v-159h133v-61h-133v-202h-73v646h73v-163h133v-61z" />
<glyph unicode="&#xb0d8;" d="M577 516l10 -61q-203 -40 -419 -40h-69v368h73v-306q216 0 405 39zM257 111v-111h523v-60h-595v227h489v98h-491v60h563v-214h-489zM880 649h-134v-106h134v-60h-134v-114h-73v452h73v-112h134v-60z" />
<glyph unicode="&#xb0e0;" d="M578 488l10 -60q-203 -40 -420 -40h-69v388h73v-326q215 0 406 38zM257 207v-207h418v207h-418zM186 -60v326h560v-326h-560zM880 631h-134v-125h134v-61h-134v-128h-73v504h73v-129h134v-61z" />
<glyph unicode="&#xb0e5;" d="M578 474l10 -61q-203 -40 -420 -40h-69v393h73v-332q211 0 406 40zM462 -12q101 0 161 31t60 83t-60.5 83t-160.5 31t-160.5 -31t-60.5 -83t60 -83t161 -31zM462 276q134 0 213.5 -47t79.5 -127t-79.5 -127t-213.5 -47t-213.5 47t-79.5 127q0 79 79.5 126.5t213.5 47.5z M880 622h-134v-129h134v-61h-134v-144h-72v533h72v-138h134v-61z" />
<glyph unicode="&#xb108;" d="M177 722v-516q221 0 393 35l11 -61q-189 -36 -409 -36h-68v578h73zM715 822h73v-895h-73v536h-280v61h280v298z" />
<glyph unicode="&#xb109;" d="M572 454l9 -62q-183 -36 -407 -36h-66v409h72v-346q222 0 392 35zM193 187v61h595v-321h-73v260h-522zM715 821h73v-531h-73v292h-259v61h259v178z" />
<glyph unicode="&#xb10b;" d="M715 319v278h-260v61h260v163h73v-502h-73zM570 469l10 -63q-178 -35 -406 -35h-66v401h72v-339q222 0 390 36zM156 208v61h294v-341h-72v280h-222zM705 284v-69q0 -76 41.5 -140t118.5 -94l-39 -55q-116 46 -157 165q-46 -119 -161 -167l-39 56q77 31 120.5 96.5 t43.5 138.5v69h72z" />
<glyph unicode="&#xb10c;" d="M715 173v389h-261v61h261v198h73v-648h-73zM571 421l9 -63q-176 -35 -406 -35h-66v430h72v-368q223 0 391 36zM292 8h520v-61h-593v279h73v-218z" />
<glyph unicode="&#xb110;" d="M715 358v250h-261v61h261v153h73v-464h-73zM572 495l10 -62q-186 -35 -407 -35h-67v380h72v-318q222 0 392 35zM289 0h533v-60h-605v221h499v94h-501v60h573v-211h-499v-104z" />
<glyph unicode="&#xb112;" d="M571 482l11 -61q-182 -34 -407 -34h-67v389h72v-328q220 0 391 34zM235 99v-104q139 0 233 16l7 -57q-95 -17 -265 -17h-46v217h213v88h-215v58h286v-201h-213zM569 243v-253h154v253h-154zM505 -66v366h282v-366h-282zM714 821h73v-480h-73v262h-260v60h260v158z" />
<glyph unicode="&#xb113;" d="M571 489l11 -62q-187 -35 -407 -35h-67v384h72v-322q221 0 391 35zM235 99v-104q139 0 233 16l7 -57q-95 -17 -265 -17h-46v217h213v89h-215v57h286v-201h-213zM721 -4v136h-150v-136h150zM721 189v121h67v-373h-284v373h67v-121h150zM715 822h73v-477h-73v263h-261v61 h261v153z" />
<glyph unicode="&#xb118;" d="M572 465l8 -63q-176 -35 -406 -35h-66v401h72v-339q224 0 392 36zM287 202v-202h430v202h-430zM216 -60v321h572v-321h-572zM715 822h73v-516h-73v284h-260v61h260v171z" />
<glyph unicode="&#xb119;" d="M572 479l8 -62q-176 -35 -406 -35h-66v393h72v-331q222 0 392 35zM716 0v119h-430v-119h430zM716 178v120h72v-359h-574v359h72v-120h430zM715 821h73v-481h-73v258h-260v61h260v162z" />
<glyph unicode="&#xb11b;" d="M715 208v359h-261v61h261v193h73v-613h-73zM572 439l8 -63q-176 -35 -406 -35h-66v420h72v-358q224 0 392 36zM538 279v-41q0 -92 89.5 -160.5t212.5 -88.5l-29 -58q-104 20 -188 71t-122 127q-37 -76 -121.5 -127.5t-188.5 -71.5l-30 59q123 20 213.5 88t90.5 161v41h73 z" />
<glyph unicode="&#xb11c;" d="M714 302v283h-260v61h260v175h73v-519h-73zM571 461l9 -63q-176 -35 -406 -35h-66v400h72v-338q223 0 391 36zM689 283v-64q0 -71 49.5 -134.5t133.5 -92.5l-38 -53q-64 23 -111 68.5t-70 103.5q-21 -58 -63 -106t-102 -74q-122 46 -166 177q-25 -56 -71 -101t-108 -68 l-37 53q81 31 131.5 96t50.5 131v64h70v-64q0 -64 33 -123t95 -94q62 38 97 99.5t35 117.5v64h71z" />
<glyph unicode="&#xb11d;" d="M715 272v311h-259v61h259v178h73v-550h-73zM572 457l9 -62q-183 -36 -407 -36h-66v399h72v-336q222 0 392 35zM495 -13q104 0 164 29t60 81t-60 81.5t-164 29.5t-164 -29.5t-60 -81.5t60 -81t164 -29zM495 267q138 0 217 -45t79 -125q0 -79 -79 -124t-217 -45t-217 45 t-79 124q0 80 79 125t217 45z" />
<glyph unicode="&#xb123;" d="M715 341v279h-262v61h262v140h73v-480h-73zM571 517l10 -62q-186 -35 -407 -35h-67v359h73v-297q221 0 391 35zM496 -17q82 0 129 20.5t47 56.5t-47 56.5t-129 20.5q-83 0 -130 -20.5t-47 -56.5t47 -56.5t130 -20.5zM496 192q116 0 182 -34.5t66 -97.5q0 -62 -66 -96.5 t-182 -34.5q-117 0 -183 34.5t-66 96.5q0 63 66 97.5t183 34.5zM532 290h278v-58h-628v58h278v92h72v-92z" />
<glyph unicode="&#xb124;" d="M171 724v-504q171 2 300 28l10 -62q-144 -29 -325 -29h-56v567h71zM552 518v281h70v-825h-70v483h-204v61h204zM742 821h70v-894h-70v894z" />
<glyph unicode="&#xb125;" d="M562 308v267h-197v60h197v167h69v-494h-69zM475 448l8 -60q-146 -29 -324 -29h-56v399h72v-338q168 2 300 28zM210 191v61h600v-325h-73v264h-527zM740 821h70v-523h-70v523z" />
<glyph unicode="&#xb128;" d="M810 821v-660h-70v660h70zM562 185v365h-198v61h198v191h69v-617h-69zM474 411l9 -60q-142 -27 -324 -27h-56v419h72v-358q163 0 299 26zM309 8h532v-61h-605v292h73v-231z" />
<glyph unicode="&#xb12c;" d="M810 821v-464h-70v464h70zM562 365v236h-198v60h198v141h69v-437h-69zM476 491l8 -60q-149 -28 -324 -28h-57v368h72v-307q165 2 301 27zM298 -3h547v-57h-620v222h512v95h-514v59h587v-210h-512v-109z" />
<glyph unicode="&#xb134;" d="M562 321v263h-198v61h198v158h69v-482h-69zM474 461l7 -61q-142 -27 -322 -27h-56v391h72v-330q165 2 299 27zM301 208v-208h437v208h-437zM230 -60v327h580v-327h-580zM740 822h70v-511h-70v511z" />
<glyph unicode="&#xb135;" d="M562 336v257h-198v61h198v149h69v-467h-69zM474 462l10 -61q-145 -29 -324 -29h-57v391h72v-330q169 2 299 29zM738 0v120h-435v-120h435zM738 179v113h72v-353h-579v353h72v-113h435zM740 822h70v-492h-70v492z" />
<glyph unicode="&#xb137;" d="M810 821v-605h-70v605h70zM562 296v258h-197v61h197v187h69v-506h-69zM473 421l7 -61q-150 -30 -321 -30h-56v410h72v-349q164 2 298 30zM549 261v-33q0 -86 92.5 -153.5t213.5 -86.5l-28 -57q-102 18 -188.5 69.5t-126.5 124.5q-38 -73 -125 -124.5t-189 -69.5l-28 57 q121 19 213.5 86.5t92.5 153.5v33h73z" />
<glyph unicode="&#xb138;" d="M810 821v-526h-70v526h70zM562 308v262h-198v61h198v171h69v-494h-69zM473 448l8 -61q-146 -28 -322 -28h-56v402h72v-341q167 2 298 28zM695 270v-52q0 -70 50 -133.5t132 -92.5l-35 -55q-134 49 -183 173q-48 -130 -165 -179q-62 24 -103.5 70t-62.5 105 q-53 -121 -179 -169l-36 55q81 30 131.5 94.5t50.5 131.5v52h70v-52q0 -64 33 -122.5t95 -93.5q62 38 96.5 99t34.5 117v52h71z" />
<glyph unicode="&#xb139;" d="M810 822v-546h-70v546h70zM562 309v253h-198v61h198v180h69v-494h-69zM474 435l7 -61q-142 -27 -322 -27h-56v405h72v-344q165 2 299 27zM517 -9q103 0 163.5 28.5t60.5 79.5q0 50 -60.5 78.5t-163.5 28.5q-104 0 -164.5 -28.5t-60.5 -78.5q0 -51 60.5 -79.5t164.5 -28.5 zM517 265q137 0 217 -44.5t80 -121.5q0 -78 -80 -122.5t-217 -44.5q-138 0 -218 44.5t-80 122.5q0 77 80 121.5t218 44.5z" />
<glyph unicode="&#xb140;" d="M177 722v-524q224 0 384 33l9 -62q-169 -32 -400 -32h-66v585h73zM715 821h73v-894h-73v418h-273v61h273v142h-273v61h273v212z" />
<glyph unicode="&#xb141;" d="M557 419l10 -62q-165 -32 -395 -32h-64v441h72v-380q222 0 377 33zM192 175v61h596v-309h-73v248h-523zM715 821h73v-541h-73v208h-258v58h258v105h-258v59h258v111z" />
<glyph unicode="&#xb144;" d="M715 158v313h-260v60h260v111h-260v61h260v119h73v-664h-73zM563 389l8 -62q-184 -33 -398 -33h-65v462h72v-400q207 0 383 33zM292 8h520v-61h-593v267h73v-206z" />
<glyph unicode="&#xb148;" d="M715 347v173h-259v59h259v90h-259v58h259v94h73v-474h-73zM559 463l10 -60q-163 -31 -396 -31h-65v408h72v-347q230 0 379 30zM289 -1h531v-59h-603v215h499v90h-501v59h573v-205h-499v-100z" />
<glyph unicode="&#xb150;" d="M556 430l10 -59q-165 -33 -394 -33h-64v439h73v-378q209 0 375 31zM288 195v-195h429v195h-429zM217 -60v314h571v-314h-571zM715 822h73v-527h-73v206h-259v58h259v101h-259v58h259v104z" />
<glyph unicode="&#xb151;" d="M561 449l8 -61q-168 -31 -396 -31h-65v425h73v-364q226 0 380 31zM716 0v120h-424v-120h424zM716 179v110h72v-349h-569v349h73v-110h424zM715 822h73v-490h-73v182h-259v58h259v94h-259v58h259v98z" />
<glyph unicode="&#xb154;" d="M714 293v211h-258v58h258v95h-258v59h258v106h73v-529h-73zM558 430l8 -60q-161 -32 -394 -32h-64v431h73v-370q216 0 377 31zM689 271v-51q0 -71 49.5 -134.5t133.5 -92.5l-38 -55q-64 24 -111 70t-70 104q-46 -130 -165 -181q-125 49 -166 178q-25 -57 -71.5 -102 t-108.5 -69l-37 55q82 31 132.5 95.5t50.5 131.5v51h70v-51q0 -64 33 -123t95 -95q63 39 97.5 100.5t34.5 117.5v51h71z" />
<glyph unicode="&#xb155;" d="M715 271v224h-259v59h259v99h-259v59h259v109h73v-550h-73zM567 430l9 -61q-162 -33 -402 -33h-66v431h73v-370q236 0 386 33zM495 -13q104 0 164 29t60 80t-60 80t-164 29t-164 -29t-60 -80t60 -80t164 -29zM495 264q139 0 217.5 -44.5t78.5 -123.5t-78.5 -123.5 t-217.5 -44.5t-217.5 44.5t-78.5 123.5t78.5 123.5t217.5 44.5z" />
<glyph unicode="&#xb158;" d="M556 433l9 -61q-167 -32 -393 -32h-64v429h73v-368q221 0 375 32zM190 200v60h598v-333h-73v133l-536 -25l-10 58l546 22v85h-525zM715 822h73v-518h-73v197h-259v58h259v101h-259v58h259v104z" />
<glyph unicode="&#xb15c;" d="M171 719v-504q164 2 298 29l9 -63q-143 -29 -322 -29h-56v567h71zM552 610v189h70v-826h-70v384h-190v61h190v131h-190v61h190zM742 821h70v-894h-70v894z" />
<glyph unicode="&#xb160;" d="M810 822v-666h-70v666h70zM562 181v277h-189v59h189v99h-189v60h189v127h69v-622h-69zM470 383l9 -60q-141 -27 -320 -27h-56v446h72v-385q165 0 295 26zM309 8h532v-61h-605v274h73v-213z" />
<glyph unicode="&#xb178;" d="M495 106h371v-61h-812v61h368v246h-266v393h73v-333h543v-60h-277v-246z" />
<glyph unicode="&#xb179;" d="M149 163v60h613v-296h-73v236h-540zM495 379h368v-61h-808v61h368v125h-259v297h73v-237h534v-60h-276v-125z" />
<glyph unicode="&#xb17c;" d="M231 213v-205h546v-61h-619v266h73zM495 350h368v-61h-808v61h368v134h-258v303h72v-243h533v-60h-275v-134z" />
<glyph unicode="&#xb180;" d="M230 102v-104h562v-58h-634v216h530v89h-533v58h606v-201h-531zM495 442h370v-61h-811v61h369v102h-259v265h72v-204h534v-61h-275v-102z" />
<glyph unicode="&#xb182;" d="M211 94v-99q148 0 239 16l7 -56q-83 -16 -268 -16h-46v209h213v86h-216v56h285v-196h-214zM548 234v-239h159v239h-159zM485 -61v351h286v-351h-286zM496 425h368v-60h-810v60h369v105h-259v273h73v-213h532v-60h-273v-105z" />
<glyph unicode="&#xb188;" d="M230 180v-180h460v180h-460zM159 -60v299h602v-299h-602zM496 391h367v-61h-808v61h368v122h-258v292h73v-231h533v-61h-275v-122z" />
<glyph unicode="&#xb189;" d="M684 0v117h-447v-117h447zM684 176v104h72v-341h-591v341h72v-104h447zM496 409h367v-60h-808v60h368v111h-258v286h73v-226h532v-60h-274v-111z" />
<glyph unicode="&#xb18b;" d="M497 257v-30q0 -89 89 -154t214 -85l-28 -57q-106 18 -190.5 67t-121.5 123q-38 -73 -123 -122.5t-190 -67.5l-30 59q125 18 215 83t90 154v30h75zM497 382h366v-61h-808v61h369v127h-259v293h73v-233h529v-60h-270v-127z" />
<glyph unicode="&#xb18d;" d="M459 -13q108 0 169.5 27.5t61.5 76.5t-61.5 76.5t-169.5 27.5q-109 0 -171 -27.5t-62 -76.5t62 -76.5t171 -27.5zM459 254q143 0 224 -43t81 -120t-81 -119.5t-224 -42.5q-144 0 -225 42.5t-81 119.5t81 120t225 43zM496 385h367v-60h-808v60h368v123h-258v295h73v-235 h533v-60h-275v-123z" />
<glyph unicode="&#xb192;" d="M356 196v-196h206v196h-206zM634 196v-196h147v-60h-644v60h147v196h-139v60h628v-60h-139zM495 410h368v-60h-808v60h368v118h-258v273h73v-213h533v-60h-276v-118z" />
<glyph unicode="&#xb193;" d="M459 -18q192 0 192 67q0 68 -192 68q-193 0 -193 -68q0 -67 193 -67zM459 170q129 0 198 -30.5t69 -90.5q0 -59 -69 -89.5t-198 -30.5q-130 0 -199 30.5t-69 89.5q0 121 268 121zM495 358v-86h292v-58h-657v58h293v86h72zM497 454h367v-60h-810v60h370v93h-258v261h73 v-201h532v-60h-274v-93z" />
<glyph unicode="&#xb194;" d="M375 391v-201q139 5 233 18l4 -54q-207 -32 -558 -32l-11 61q136 0 259 4v204h-192v341h73v-280h380v-61h-188zM883 443v-62h-144v-454h-73v894h73v-378h144z" />
<glyph unicode="&#xb198;" d="M615 368l5 -53q-206 -39 -562 -39l-9 61q159 0 250 3v136h-179v286h73v-225h364v-61h-185v-132q142 7 243 24zM260 198v-190h515v-61h-588v251h73zM746 526h133v-61h-133v-322h-72v678h72v-295z" />
<glyph unicode="&#xb19c;" d="M616 457l5 -52q-202 -34 -563 -34l-7 61q155 0 242 3v108h-174v242h73v-181h361v-61h-187v-106q161 8 250 20zM243 96v-99h537v-59h-610v212h505v89h-507v57h579v-200h-504zM747 606h132v-61h-132v-208h-72v484h72v-215z" />
<glyph unicode="&#xb1a8;" d="M616 408l5 -52q-199 -38 -561 -40l-8 61q126 0 245 4v117h-179v266h73v-206h368v-60h-189v-113q128 5 246 23zM665 250v-33q0 -70 49.5 -132t132.5 -90l-37 -55q-130 48 -180 167q-45 -128 -166 -176q-121 47 -164 175q-53 -119 -180 -166l-36 55q83 29 132 90.5 t49 131.5v33h70v-35q0 -61 33.5 -120t95.5 -94q62 36 96 95t34 119v35h71zM746 575h133v-61h-133v-233h-72v540h72v-246z" />
<glyph unicode="&#xb1cc;" d="M393 390v-199q153 7 255 21l5 -55q-218 -34 -584 -34l-11 62q170 0 262 3v202h-190v342h72v-281h389v-61h-198zM708 822h73v-895h-73v895z" />
<glyph unicode="&#xb1d0;" d="M784 821v-662h-73v662h73zM637 369l4 -54q-231 -35 -575 -35l-9 61q106 0 258 5v134h-179v281h73v-220h365v-61h-186v-131q145 7 249 20zM280 8h528v-61h-601v262h73v-201z" />
<glyph unicode="&#xb1d4;" d="M783 822v-474h-73v474h73zM638 462l5 -53q-238 -36 -577 -36l-10 61q138 0 261 4v106h-181v240h73v-180h366v-60h-186v-102q126 4 249 20zM271 -2h544v-60h-616v216h511v88h-514v59h587v-203h-512v-100z" />
<glyph unicode="&#xb1dc;" d="M638 414l5 -53q-220 -39 -577 -39l-10 61q135 0 260 4v120h-181v270h73v-210h367v-60h-186v-116q124 6 249 23zM274 179v-179h439v179h-439zM203 -60v298h581v-298h-581zM711 822h73v-541h-73v541z" />
<glyph unicode="&#xb1dd;" d="M636 427l4 -54q-229 -36 -576 -36l-10 61q146 0 262 5v117h-181v263h73v-203h367v-60h-186v-114q129 6 247 21zM712 0v111h-433v-111h433zM712 170v105h72v-335h-577v335h72v-105h433zM711 822h73v-504h-73v504z" />
<glyph unicode="&#xb1df;" d="M784 821v-628h-73v628h73zM636 391l4 -54q-239 -35 -574 -35l-10 61q106 0 259 5v130h-181v269h74v-209h367v-60h-187v-127q125 4 248 20zM527 248v-32q0 -84 89 -146.5t212 -80.5l-28 -58q-103 17 -187.5 64.5t-122.5 116.5q-37 -69 -121 -116.5t-188 -64.5l-28 58 q124 18 212.5 80.5t88.5 146.5v32h73z" />
<glyph unicode="&#xb1e8;" d="M357 347v-236h209v236h-209zM638 111h228v-61h-812v61h230v236h-132v393h73v-332h546v-61h-133v-236z" />
<glyph unicode="&#xb1e9;" d="M149 161v61h613v-302h-73v241h-540zM354 504v-128h207v128h-207zM634 376h229v-60h-809v60h227v128h-119v297h73v-236h534v-61h-135v-128z" />
<glyph unicode="&#xb1ec;" d="M231 215v-207h546v-61h-619v268h73zM356 486v-138h206v138h-206zM634 348h229v-60h-808v60h228v138h-118v301h72v-241h532v-60h-135v-138z" />
<glyph unicode="&#xb1f0;" d="M230 100v-103h562v-59h-634v217h530v88h-533v58h606v-201h-531zM355 544v-106h206v106h-206zM634 438h231v-61h-811v61h228v106h-118v265h72v-205h534v-60h-136v-106z" />
<glyph unicode="&#xb1f9;" d="M684 0v117h-447v-117h447zM684 175v105h72v-341h-591v341h72v-105h447zM354 522v-115h208v115h-208zM635 407h228v-61h-808v61h226v115h-116v284h73v-224h532v-60h-135v-115z" />
<glyph unicode="&#xb1fb;" d="M496 255v-30q0 -88 89.5 -153t213.5 -85l-28 -57q-105 18 -189.5 67.5t-122.5 122.5q-38 -73 -123 -122t-190 -67l-29 58q80 12 148 43.5t112.5 82t44.5 110.5v30h74zM355 511v-130h207v130h-207zM634 381h229v-61h-808v61h227v130h-117v291h73v-231h529v-60h-133v-130z " />
<glyph unicode="&#xb1fd;" d="M458 -12q109 0 170.5 27.5t61.5 76.5t-61.5 76t-170.5 27t-170.5 -27t-61.5 -76t61.5 -76.5t170.5 -27.5zM458 254q144 0 225 -42.5t81 -119.5t-81 -120t-225 -43t-224.5 43t-80.5 120t80.5 119.5t224.5 42.5zM354 510v-124h208v124h-208zM635 386h228v-61h-808v61h226 v124h-116v293h73v-232h533v-61h-136v-124z" />
<glyph unicode="&#xb204;" d="M770 517v-61h-611v319h73v-258h538zM866 316v-61h-373v-328h-72v328h-368v61h813z" />
<glyph unicode="&#xb205;" d="M771 564v-61h-607v298h73v-237h534zM863 344h-368v-127h267v-300h-73v239h-540v61h274v127h-368v61h808v-61z" />
<glyph unicode="&#xb208;" d="M770 545v-60h-604v302h72v-242h532zM231 207v-199h546v-61h-619v260h73zM54 376h808v-61h-362v-188h-72v188h-374v61z" />
<glyph unicode="&#xb20b;" d="M771 571v-59h-606v290h74v-231h532zM863 353h-368v-115h270v-61h-540v-177h546v-61h-618v299h270v115h-368v61h808v-61z" />
<glyph unicode="&#xb20c;" d="M770 603v-61h-606v267h72v-206h534zM865 400h-371v-99h267v-201h-531v-103h562v-59h-634v217h530v88h-533v58h267v99h-368v61h811v-61z" />
<glyph unicode="&#xb214;" d="M771 574v-61h-606v292h73v-231h533zM690 0v181h-460v-181h460zM863 354h-369v-114h267v-300h-602v300h263v114h-368v60h809v-60z" />
<glyph unicode="&#xb215;" d="M770 580v-60h-605v286h73v-226h532zM684 0v113h-447v-113h447zM684 172v109h72v-342h-591v342h72v-109h447zM55 422h808v-60h-368v-137h-72v137h-368v60z" />
<glyph unicode="&#xb217;" d="M771 582v-61h-605v282h73v-221h532zM495 223v-38q0 -76 90 -129.5t214 -67.5l-26 -57q-106 13 -192 56t-123 107q-38 -65 -124.5 -107.5t-193.5 -55.5l-26 57q124 14 215 68.5t91 128.5v38h75zM54 428h812v-61h-372v-108h-72v108h-368v61z" />
<glyph unicode="&#xb219;" d="M771 569v-60h-606v294h73v-234h533zM690 91q0 49 -61.5 76.5t-169.5 27.5q-109 0 -171 -27.5t-62 -76.5t62 -76.5t171 -27.5q108 0 169.5 27.5t61.5 76.5zM863 354h-368v-101q127 -5 198 -47.5t71 -114.5q0 -77 -81 -119.5t-224 -42.5q-144 0 -225 42.5t-81 119.5 q0 72 71 114.5t199 47.5v101h-368v60h808v-60z" />
<glyph unicode="&#xb220;" d="M571 537v-60h-439v296h73v-236h366zM636 380l4 -55q-144 -17 -265 -22v-348h-73v345q-115 -4 -245 -4l-10 63q376 0 589 21zM709 821h73v-893h-73v230h-208v59h208v604z" />
<glyph unicode="&#xb234;" d="M523 376h187v447h73v-563h-73v62h-187v54zM561 620v-60h-418v236h73v-176h345zM294 266v150q-113 -4 -236 -4l-9 60q373 0 576 30l7 -53q-102 -18 -266 -29v-154h-72zM686 229v-19q0 -70 49.5 -130.5t132.5 -86.5l-34 -54q-133 45 -183 164q-20 -57 -62.5 -102.5 t-103.5 -69.5q-122 47 -165 172q-52 -118 -183 -164l-35 54q83 27 133 87.5t50 129.5v19h70v-19q0 -60 34 -117.5t96 -92.5q62 34 96 92.5t34 117.5v19h71z" />
<glyph unicode="&#xb23c;" d="M474 547v-60h-366v265h73v-205h293zM510 403l6 -54q-107 -17 -206 -24v-325h-70v321q-102 -6 -187 -6l-9 62q293 2 466 26zM570 250v551h69v-826h-69v217h-172v58h172zM736 822h71v-895h-71v895z" />
<glyph unicode="&#xb258;" d="M570 532v-61h-432v291h73v-230h359zM647 365l4 -55q-129 -18 -267 -24v-331h-72v327q-119 -4 -253 -4l-10 61q383 2 598 26zM714 822h73v-895h-73v895z" />
<glyph unicode="&#xb25c;" d="M778 822v-678h-72v678h72zM560 557v-60h-418v266h73v-206h345zM326 174v161q-155 -5 -261 -5l-10 63q361 0 583 22l5 -55q-115 -15 -244 -21v-165h-73zM259 8h547v-61h-620v260h73v-199z" />
<glyph unicode="&#xb260;" d="M778 821v-486h-72v486h72zM558 606v-59h-418v242h73v-183h345zM267 -3h544v-59h-617v210h512v87h-514v58h123v116q-110 -5 -248 -5l-10 60q384 2 583 21l5 -53q-130 -14 -257 -20v-119h390v-199h-511v-97z" />
<glyph unicode="&#xb268;" d="M560 576v-60h-420v261h73v-201h347zM706 0v174h-439v-174h439zM387 366v-133h390v-293h-581v293h118v129q-111 -5 -248 -5l-10 61q377 0 583 29l6 -53q-120 -20 -258 -28zM706 822h72v-545h-72v545z" />
<glyph unicode="&#xb269;" d="M560 595v-60h-420v246h73v-186h347zM326 238v148q-116 -5 -258 -5l-11 60q369 0 582 30l5 -53q-104 -18 -245 -27v-153h-73zM707 0v103h-440v-103h440zM707 161v103h71v-324h-584v324h73v-103h440zM706 822h72v-517h-72v517z" />
<glyph unicode="&#xb274;" d="M766 516v-61h-608v320h73v-259h535zM862 322v-61h-214v-333h-72v333h-236v-333h-72v333h-214v61h808z" />
<glyph unicode="&#xb275;" d="M771 570v-61h-606v290h73v-229h533zM570 210v141h-222v-141h222zM863 351h-221v-141h121v-290h-73v230h-550v60h135v141h-220v61h808v-61z" />
<glyph unicode="&#xb27c;" d="M770 603v-60h-606v266h73v-206h533zM571 301v103h-223v-103h223zM865 404h-221v-103h117v-201h-531v-103h562v-59h-634v217h530v88h-533v58h120v103h-221v61h811v-61z" />
<glyph unicode="&#xb284;" d="M770 584v-60h-605v276h73v-216h532zM570 239v124h-221v-124h221zM692 0v180h-464v-180h464zM862 363h-220v-124h121v-299h-607v299h120v124h-221v60h807v-60z" />
<glyph unicode="&#xb285;" d="M771 583v-60h-605v279h73v-219h532zM686 -4v104h-453v-104h453zM686 158v107h74v-330h-602v330h75v-107h453zM54 432h809v-60h-244v-136h-72v136h-175v-136h-73v136h-245v60z" />
<glyph unicode="&#xb289;" d="M771 570v-61h-606v294h73v-233h533zM585 243v112h-254v-112q60 11 127 11q69 0 127 -11zM690 91q0 49 -61.5 76.5t-170.5 27.5t-170.5 -27.5t-61.5 -76.5t62 -76.5t170 -27.5t170 27.5t62 76.5zM863 355h-206v-132q107 -43 107 -132q0 -77 -81.5 -119.5t-224.5 -42.5 q-144 0 -224.5 42.5t-80.5 119.5q0 89 106 132v132h-204v60h808v-60z" />
<glyph unicode="&#xb290;" d="M772 415v-61h-617v389h73v-328h544zM54 114h812v-61h-812v61z" />
<glyph unicode="&#xb291;" d="M770 569v-60h-605v291h74v-231h531zM143 160v60h619v-301h-71v241h-548zM55 403h807v-60h-807v60z" />
<glyph unicode="&#xb294;" d="M770 548v-60h-606v301h73v-241h533zM232 210v-200h544v-61h-617v261h73zM53 364h811v-61h-811v61z" />
<glyph unicode="&#xb298;" d="M770 603v-61h-606v267h72v-206h534zM230 99v-101h562v-58h-634v215h530v92h-533v58h606v-206h-531zM53 450h812v-61h-812v61z" />
<glyph unicode="&#xb299;" d="M770 596v-61h-605v272h72v-211h533zM214 101v-103q187 0 291 23l8 -58q-107 -23 -315 -23h-54v215h223v88h-225v57h295v-199h-223zM486 239v61h282v-364h-72v303h-210zM54 446h810v-61h-810v61z" />
<glyph unicode="&#xb29a;" d="M770 598v-61h-605v270h73v-209h532zM215 99v-102q155 0 238 16l7 -57q-87 -16 -266 -16h-47v212h214v89h-216v57h284v-199h-214zM553 241v-245h159v245h-159zM490 -60v358h286v-358h-286zM54 445h810v-61h-810v61z" />
<glyph unicode="&#xb2a0;" d="M771 574v-61h-606v292h73v-231h533zM230 181v-181h460v181h-460zM159 -60v300h602v-300h-602zM54 411h809v-60h-809v60z" />
<glyph unicode="&#xb2a1;" d="M770 579v-60h-605v287h73v-227h532zM684 0v117h-447v-117h447zM684 175v104h72v-340h-591v340h72v-104h447zM55 418h808v-60h-808v60z" />
<glyph unicode="&#xb2a3;" d="M767 569v-60h-602v293h73v-233h529zM497 261v-31q0 -89 89.5 -154t213.5 -84l-28 -57q-105 18 -190 67.5t-123 122.5q-37 -73 -122 -122t-190 -67l-30 57q125 19 215 83.5t90 153.5v31h75zM55 398h808v-61h-808v61z" />
<glyph unicode="&#xb2a5;" d="M771 568v-60h-606v295h73v-235h533zM458 -11q109 0 170.5 27.5t61.5 76.5t-61.5 76.5t-170.5 27.5t-170.5 -27.5t-61.5 -76.5t61.5 -76.5t170.5 -27.5zM458 255q144 0 225 -42.5t81 -119.5t-81 -119.5t-225 -42.5t-224.5 42.5t-80.5 119.5t80.5 119.5t224.5 42.5zM55 399 h808v-60h-808v60z" />
<glyph unicode="&#xb2a6;" d="M770 573v-61h-603v288h73v-227h530zM767 196h-269q11 -79 99 -135t206 -72l-28 -57q-106 17 -192 64t-123 118q-38 -71 -124 -118t-192 -64l-28 57q118 16 206 72t99 135h-270v60h616v-60zM55 415h807v-61h-807v61z" />
<glyph unicode="&#xb2aa;" d="M768 583v-61h-602v278h73v-217h529zM356 202v-202h206v202h-206zM634 202v-202h146v-60h-644v60h148v202h-139v60h628v-60h-139zM55 422h808v-61h-808v61z" />
<glyph unicode="&#xb2ac;" d="M578 477v-60h-447v327h73v-267h374zM69 141l-11 61q383 2 591 28l4 -56q-225 -33 -584 -33zM710 822h73v-894h-73v894z" />
<glyph unicode="&#xb2b0;" d="M785 822v-660h-73v660h73zM574 548v-61h-435v284h73v-223h362zM637 388l5 -54q-232 -35 -576 -35l-10 61q371 2 581 28zM284 8h526v-61h-599v263h73v-202z" />
<glyph unicode="&#xb2b4;" d="M783 822v-478h-73v478h73zM571 600v-59h-433v241h72v-182h361zM639 469l4 -53q-232 -35 -577 -35l-9 60q371 2 582 28zM271 0h544v-61h-616v216h512v88h-515v59h587v-203h-512v-99z" />
<glyph unicode="&#xb2c8;" d="M185 734v-511q224 0 430 42l8 -62q-202 -43 -438 -43h-73v574h73zM711 821h73v-893h-73v893z" />
<glyph unicode="&#xb2c9;" d="M610 481l12 -61q-209 -41 -440 -41h-72v392h73v-330q226 0 427 40zM191 195v61h595v-330h-73v269h-522zM713 820h73v-517h-73v517z" />
<glyph unicode="&#xb2cc;" d="M786 821v-650h-73v650h73zM612 447l10 -61q-195 -40 -440 -40h-72v409h73v-348q242 0 429 40zM278 8h536v-61h-609v289h73v-228z" />
<glyph unicode="&#xb2d0;" d="M786 822v-448h-73v448h73zM611 519l11 -59q-193 -41 -441 -41h-71v360h73v-299q241 0 428 39zM285 -1h533v-59h-606v227h501v100h-503v59h576v-215h-501v-112z" />
<glyph unicode="&#xb2d2;" d="M612 510l9 -59q-192 -41 -439 -41h-72v368h73v-307q239 0 429 39zM241 105v-109q144 0 229 16l7 -57q-94 -17 -261 -17h-45v221h212v93h-214v57h284v-204h-212zM570 254v-261h152v261h-152zM506 -62v371h280v-371h-280zM713 822h73v-468h-73v468z" />
<glyph unicode="&#xb2d8;" d="M610 488l12 -60q-201 -41 -440 -41h-72v383h73v-322q234 0 427 40zM281 211v-211h433v211h-433zM210 -60v330h575v-330h-575zM712 822h73v-507h-73v507z" />
<glyph unicode="&#xb2d9;" d="M610 499l11 -60q-200 -42 -440 -42h-71v380h72v-318q233 0 428 40zM714 0v125h-428v-125h428zM714 184v126h72v-371h-572v371h72v-126h428zM713 821h73v-469h-73v469z" />
<glyph unicode="&#xb2db;" d="M786 822v-607h-72v607h72zM611 462l11 -60q-196 -40 -441 -40h-71v397h73v-336q242 0 428 39zM536 292v-39q0 -98 89 -170t214 -94l-30 -57q-105 21 -189.5 75t-121.5 132q-38 -79 -122.5 -133t-189.5 -74l-30 57q125 23 215 94.5t90 169.5v39h75z" />
<glyph unicode="&#xb2dd;" d="M784 821v-537h-73v537h73zM612 467l10 -61q-195 -40 -440 -40h-72v395h73v-333q247 0 429 39zM489 -11q104 0 165 30.5t61 83.5q0 54 -61 84.5t-165 30.5q-105 0 -166 -30.5t-61 -84.5q0 -53 61 -83.5t166 -30.5zM489 278q138 0 218 -46.5t80 -128.5q0 -81 -80 -127.5 t-218 -46.5q-139 0 -219 46.5t-80 127.5q0 82 80 128.5t219 46.5z" />
<glyph unicode="&#xb2e2;" d="M785 820v-484h-73v484h73zM614 491l12 -61q-201 -42 -444 -42h-72v381h73v-319q238 0 431 41zM395 222v-222h199v222h-199zM666 0h135v-60h-613v60h135v222h-127v60h595v-60h-125v-222z" />
<glyph unicode="&#xb2e4;" d="M166 674v-461q248 0 413 31l8 -63q-171 -31 -425 -31h-69v585h415v-61h-342zM889 465v-61h-150v-478h-73v896h73v-357h150z" />
<glyph unicode="&#xb2e5;" d="M574 458l9 -61q-156 -31 -418 -31h-68v392h394v-61h-322v-270q255 0 405 31zM168 184v60h578v-318h-73v258h-505zM880 593v-61h-134v-237h-73v526h73v-228h134z" />
<glyph unicode="&#xb2e6;" d="M574 461l9 -61q-163 -31 -418 -31h-68v391h393v-61h-321v-269q255 0 405 31zM148 204v61h281v-337h-72v276h-209zM472 204v61h274v-337h-72v276h-202zM880 591v-61h-134v-222h-73v513h73v-230h134z" />
<glyph unicode="&#xb2e8;" d="M574 426l9 -61q-156 -31 -418 -31h-68v410h394v-60h-322v-289q255 0 405 31zM266 238v-230h521v-61h-594v291h73zM746 552h135v-61h-135v-317h-73v649h73v-271z" />
<glyph unicode="&#xb2eb;" d="M574 464l9 -61q-163 -31 -418 -31h-68v391h393v-60h-321v-270q255 0 405 31zM265 206v-206h507v-60h-579v327h562v-61h-490zM746 609h134v-61h-134v-229h-73v503h73v-213z" />
<glyph unicode="&#xb2ec;" d="M574 497l9 -59q-162 -33 -419 -33h-68v365h394v-60h-322v-244q253 0 406 31zM257 108v-108h523v-60h-595v225h490v99h-492v60h563v-216h-489zM746 630h134v-61h-134v-198h-73v451h73v-192z" />
<glyph unicode="&#xb2ed;" d="M574 478l9 -58q-162 -33 -419 -33h-68v377h394v-60h-322v-256q252 0 406 30zM219 98v-101q171 0 276 20l8 -57q-102 -20 -303 -20h-52v212h217v90h-219v58h290v-202h-217zM474 240v60h272v-366h-72v306h-200zM880 608v-61h-134v-207h-73v482h73v-214h134z" />
<glyph unicode="&#xb2ee;" d="M574 479l9 -59q-161 -33 -419 -33h-68v377h394v-60h-322v-256q255 0 406 31zM204 99v-101q142 0 229 16l7 -58q-92 -16 -260 -16h-46v214h209v88h-211v57h281v-200h-209zM534 243v-247h148v247h-148zM470 -60v359h276v-359h-276zM880 613v-61h-134v-210h-73v480h73v-209 h134z" />
<glyph unicode="&#xb2ef;" d="M574 480l9 -60q-158 -32 -419 -32h-68v376h394v-60h-322v-255q253 0 406 31zM204 100v-102q144 0 228 17l6 -57q-87 -17 -259 -17h-46v210h208v89h-210v58h280v-198h-207zM679 -1v133h-149v-133h149zM679 189v119h67v-368h-282v368h66v-119h149zM880 616v-61h-134v-211 h-73v478h73v-206h134z" />
<glyph unicode="&#xb2f3;" d="M574 485l9 -60q-158 -32 -419 -32h-68v375h394v-60h-322v-254q255 0 406 31zM202 100v-102q148 0 232 17l7 -57q-93 -18 -263 -18h-46v214h208v90h-210v56h279v-200h-207zM622 -20q40 0 64 19t24 50q0 32 -24 51t-64 19q-41 0 -65.5 -19t-24.5 -51q0 -31 24.5 -50 t65.5 -19zM622 171q66 0 108.5 -33.5t42.5 -88.5t-42.5 -88t-108.5 -33q-67 0 -109.5 33t-42.5 88t42.5 88.5t109.5 33.5zM658 348v-83h153v-57h-372v57h148v83h71zM746 625h134v-61h-134v-188h-73v445h73v-196z" />
<glyph unicode="&#xb2f4;" d="M574 459l9 -60q-163 -31 -418 -31h-68v393h393v-60h-321v-272q254 0 405 30zM259 206v-206h415v206h-415zM188 -60v326h558v-326h-558zM880 600v-61h-134v-223h-73v506h73v-222h134z" />
<glyph unicode="&#xb2f5;" d="M574 469l9 -61q-163 -31 -418 -31h-68v385h393v-60h-321v-264q255 0 405 31zM674 3v119h-415v-119h415zM674 181v115h72v-354h-559v354h72v-115h415zM880 609v-61h-134v-203h-73v477h73v-213h134z" />
<glyph unicode="&#xb2f7;" d="M574 436l9 -60q-156 -31 -419 -31h-68v407h394v-61h-322v-285q262 0 406 30zM516 279v-36q0 -94 88.5 -163t212.5 -91l-30 -58q-103 21 -186.5 72.5t-121.5 127.5q-38 -76 -121.5 -127.5t-187.5 -72.5l-30 58q124 22 213.5 91t89.5 163v36h73zM746 568h134v-61h-134v-276 h-73v591h73v-254z" />
<glyph unicode="&#xb2f8;" d="M574 461l9 -61q-169 -31 -418 -31h-68v393h393v-60h-321v-272q250 0 405 31zM675 278v-59q0 -71 49.5 -134t132.5 -92l-37 -54q-64 24 -111 69t-70 104q-46 -128 -165 -181q-122 48 -165 178q-54 -122 -179 -170l-37 54q81 30 131.5 95t50.5 131v59h70v-59q0 -64 33 -123 t95 -94q62 38 96.5 99.5t34.5 117.5v59h71zM746 602h134v-61h-134v-228h-73v509h73v-220z" />
<glyph unicode="&#xb2f9;" d="M574 454l9 -61q-156 -31 -419 -31h-68v390h394v-60h-322v-269q256 0 406 31zM463 -11q102 0 161.5 29t59.5 80t-59.5 80t-161.5 29t-161.5 -29t-59.5 -80t59.5 -80t161.5 -29zM463 267q136 0 214 -45t78 -124t-78 -124t-214 -45t-214.5 45t-78.5 124t78.5 124t214.5 45z M747 585h133v-61h-133v-238h-73v536h73v-237z" />
<glyph unicode="&#xb2fa;" d="M574 466l9 -61q-161 -31 -418 -31h-68v387h393v-60h-321v-266q250 0 405 31zM762 201h-254q4 -74 89.5 -134.5t196.5 -79.5l-27 -57q-98 17 -179 65.5t-118 117.5q-36 -68 -116.5 -116t-178.5 -66l-28 56q113 19 197.5 79t88.5 135h-253v60h582v-60zM746 591h134v-61 h-134v-225h-73v517h73v-231z" />
<glyph unicode="&#xb2fb;" d="M574 491l9 -60q-164 -32 -419 -32h-68v371h394v-59h-322v-251q253 0 406 31zM766 185h-258q9 -70 94 -126.5t194 -72.5l-27 -56q-99 18 -181.5 65.5t-118.5 113.5q-36 -66 -118 -113.5t-182 -65.5l-27 56q108 16 194 72.5t95 126.5h-259v59h261v100h73v-100h260v-59z M746 613h134v-61h-134v-234h-73v504h73v-209z" />
<glyph unicode="&#xb2ff;" d="M574 508l9 -60q-158 -32 -419 -32h-68v357h394v-60h-322v-236q253 0 406 31zM475 -20q80 0 126.5 20t46.5 56t-46.5 56t-126.5 20t-126 -20t-46 -56t46 -56t126 -20zM475 186q116 0 182 -34t66 -96t-66 -96t-182 -34t-181.5 34t-65.5 96t65.5 96t181.5 34zM512 375v-88 h274v-58h-622v58h275v88h73zM746 623h135v-61h-135v-214h-73v474h73v-199z" />
<glyph unicode="&#xb300;" d="M159 651v-439q186 0 313 27l7 -60q-129 -28 -334 -28h-58v561h334v-61h-262zM741 821h70v-894h-70v473h-134v-427h-69v828h69v-340h134v360z" />
<glyph unicode="&#xb301;" d="M480 445l7 -61q-130 -27 -335 -27h-56v395h337v-60h-266v-274q187 0 313 27zM209 185v60h598v-318h-73v258h-525zM737 821h70v-531h-70v239h-130v-234h-69v509h69v-214h130v231z" />
<glyph unicode="&#xb304;" d="M607 502v-316h-69v618h69v-241h130v258h70v-664h-70v345h-130zM480 415l7 -61q-130 -27 -335 -27h-56v407h337v-60h-266v-286q187 0 313 27zM300 8h534v-61h-607v289h73v-228z" />
<glyph unicode="&#xb308;" d="M607 558v-197h-69v443h69v-186h130v204h70v-470h-70v206h-130zM481 488l7 -60q-139 -27 -336 -27h-56v365h337v-61h-266v-244q179 0 314 27zM294 0h548v-60h-620v221h513v93h-515v59h587v-209h-513v-104z" />
<glyph unicode="&#xb310;" d="M480 455l8 -61q-130 -27 -336 -27h-56v389h338v-61h-267v-267q187 0 313 27zM291 203v-204h445v204h-445zM220 -60v321h587v-321h-587zM737 821h70v-515h-70v233h-130v-225h-69v490h69v-204h130v221z" />
<glyph unicode="&#xb311;" d="M480 457l8 -61q-130 -27 -336 -27h-56v386h338v-61h-267v-264q187 0 313 27zM735 1v120h-438v-120h438zM735 180v111h72v-351h-583v351h73v-111h438zM737 821h70v-488h-70v213h-130v-205h-69v463h69v-197h130v214z" />
<glyph unicode="&#xb313;" d="M607 523v-215h-69v497h69v-221h130v238h70v-592h-70v293h-130zM480 434l8 -60q-135 -28 -336 -28h-56v397h338v-60h-267v-276q181 0 313 27zM549 270v-35q0 -88 92.5 -157t212.5 -89l-31 -58q-102 19 -188 71.5t-124 127.5q-39 -75 -124.5 -127.5t-186.5 -71.5l-32 58 q121 20 213.5 89t92.5 157v35h75z" />
<glyph unicode="&#xb314;" d="M607 535v-226h-69v495h69v-208h130v225h70v-518h-70v232h-130zM480 447l8 -61q-131 -27 -336 -27h-56v393h338v-61h-267v-271q185 0 313 27zM695 270v-61q0 -71 49.5 -134t132.5 -92l-35 -54q-66 24 -113 69t-70 103q-48 -129 -165 -180q-125 49 -167 177 q-25 -56 -71.5 -101t-108.5 -68l-37 54q83 31 133 95t50 131v61h70v-61q0 -64 33.5 -122.5t95.5 -93.5q62 38 97 99t35 117v61h71z" />
<glyph unicode="&#xb315;" d="M607 521v-224h-69v508h69v-223h130v240h70v-553h-70v252h-130zM480 439l8 -60q-136 -28 -336 -28h-56v396h334v-60h-262v-275q180 0 312 27zM514 -12q105 0 165 28t60 78t-60 78t-165 28q-104 0 -164.5 -28t-60.5 -78t60.5 -78t164.5 -28zM514 259q139 0 218 -43.5 t79 -121.5t-79 -121.5t-218 -43.5t-218 43.5t-79 121.5t79 121.5t218 43.5z" />
<glyph unicode="&#xb31c;" d="M166 674v-461q248 0 413 31l8 -62q-171 -31 -425 -31h-69v584h415v-61h-342zM882 535h-143v-205h143v-61h-143v-343h-73v896h73v-226h143v-61z" />
<glyph unicode="&#xb354;" d="M172 675v-466q241 0 396 30l9 -61q-164 -30 -410 -30h-67v588h406v-61h-334zM715 821h73v-895h-73v507h-263v61h263v327z" />
<glyph unicode="&#xb355;" d="M563 422l8 -60q-151 -31 -402 -31h-66v428h408v-61h-336v-306q241 0 388 30zM193 180v61h595v-314h-73v253h-522zM715 821h73v-534h-73v241h-258v61h258v232z" />
<glyph unicode="&#xb356;" d="M565 434l8 -61q-163 -29 -404 -29h-66v417h412v-60h-340v-296q241 0 390 29zM160 201v61h296v-335h-73v274h-223zM498 201v61h289v-335h-73v274h-216zM715 822h73v-515h-73v228h-258v60h258v227z" />
<glyph unicode="&#xb358;" d="M456 572h259v250h73v-654h-73v343h-259v61zM567 393l8 -61q-160 -30 -403 -30h-67v444h410v-61h-337v-322q243 0 389 30zM292 1h520v-60h-593v275h73v-215z" />
<glyph unicode="&#xb35b;" d="M457 602h258v220h73v-514h-73v233h-258v61zM562 442l10 -61q-156 -29 -401 -29h-66v415h408v-60h-335v-294q243 0 384 29zM283 0h523v-60h-596v320h581v-60h-508v-200z" />
<glyph unicode="&#xb35c;" d="M456 622h258v200h73v-474h-73v216h-258v58zM563 470l8 -59q-156 -29 -402 -29h-66v385h408v-59h-336v-267q244 0 388 29zM288 -1h535v-59h-606v215h499v89h-502v59h573v-204h-499v-100z" />
<glyph unicode="&#xb35e;" d="M566 457l9 -59q-158 -29 -404 -29h-66v397h408v-60h-335v-278q245 0 388 29zM235 100v-102q139 0 233 16l7 -58q-90 -16 -265 -16h-46v214h213v88h-215v57h286v-199h-213zM569 243v-250h154v250h-154zM505 -63v362h282v-362h-282zM714 822h73v-483h-73v208h-259v58h259 v217z" />
<glyph unicode="&#xb35f;" d="M566 455l8 -59q-156 -29 -403 -29h-66v399h408v-60h-335v-279q244 0 388 28zM233 102v-104q141 0 233 16l8 -57q-89 -17 -265 -17h-46v217h213v89h-215v57h285v-201h-213zM720 -1v136h-150v-136h150zM720 193v120h67v-372h-284v372h67v-120h150zM714 822h73v-475h-73v201 h-259v58h259v216z" />
<glyph unicode="&#xb364;" d="M563 442l8 -61q-155 -30 -402 -30h-66v412h408v-61h-336v-290q239 0 388 30zM282 198v-198h435v198h-435zM210 -60v318h578v-318h-578zM715 822h73v-519h-73v239h-258v60h258v220z" />
<glyph unicode="&#xb365;" d="M562 454l8 -61q-155 -30 -401 -30h-66v403h408v-61h-336v-281q238 0 387 30zM716 0v120h-430v-120h430zM716 179v115h72v-355h-574v355h72v-115h430zM715 822h73v-486h-73v210h-258v61h258v215z" />
<glyph unicode="&#xb367;" d="M456 586h259v236h73v-616h-73v319h-259v61zM563 427l8 -61q-153 -30 -402 -30h-66v426h407v-60h-335v-305q246 0 388 30zM844 -12l-29 -57h-1q-105 20 -189.5 72.5t-122.5 128.5q-38 -76 -122.5 -129t-188.5 -72l-29 57q122 22 212.5 91.5t90.5 160.5v36h75v-36 q0 -93 90 -162t214 -90z" />
<glyph unicode="&#xb369;" d="M457 594h258v227h73v-547h-73v259h-258v61zM563 429l8 -61q-160 -29 -402 -29h-66v420h408v-61h-336v-298q241 0 388 29zM495 -14q104 0 164 29t60 80q0 52 -60 81t-164 29t-164 -29t-60 -81q0 -51 60 -80t164 -29zM495 264q139 0 217.5 -44.5t78.5 -124.5 q0 -79 -79 -123t-217 -44t-217 44t-79 123q0 80 78.5 124.5t217.5 44.5z" />
<glyph unicode="&#xb36b;" d="M458 617h257v205h73v-511h-73v248h-257v58zM562 467l7 -59q-155 -29 -400 -29h-66v395h408v-60h-336v-275q248 0 387 28zM805 180h-264q1 -64 91 -121t203 -72l-24 -56q-100 15 -184.5 60t-122.5 107q-38 -63 -124.5 -107.5t-188.5 -59.5l-25 56q114 13 206.5 70 t93.5 123h-264v58h265v94h74v-94h264v-58z" />
<glyph unicode="&#xb36e;" d="M457 607h258v215h73v-500h-73v224h-258v61zM565 444l9 -61q-155 -30 -403 -30h-66v414h410v-61h-337v-292q240 0 387 30zM399 211v-211h194v211h-194zM665 0h142v-60h-618v60h138v211h-130v60h599v-60h-131v-211z" />
<glyph unicode="&#xb370;" d="M161 650v-444q185 0 310 26l7 -60q-126 -27 -332 -27h-57v565h336v-60h-264zM563 478v321h69v-825h-69v443h-199v61h199zM741 821h70v-894h-70v894z" />
<glyph unicode="&#xb371;" d="M381 587h188v216h69v-516h-69v239h-188v61zM482 423l6 -59q-126 -25 -333 -25h-57v413h338v-60h-266v-293q186 0 312 24zM209 176v61h600v-312h-73v251h-527zM739 822h70v-542h-70v542z" />
<glyph unicode="&#xb374;" d="M809 822v-663h-70v663h70zM380 571h187v231h69v-618h-69v327h-187v60zM481 400l7 -60q-140 -27 -333 -27h-57v427h338v-60h-266v-307q175 0 311 27zM302 9h535v-61h-608v286h73v-225z" />
<glyph unicode="&#xb378;" d="M809 822v-477h-70v477h70zM380 622h189v181h69v-449h-69v210h-189v58zM481 477l7 -60q-126 -24 -333 -24h-57v376h338v-60h-265v-256q189 0 310 24zM294 -1h550v-59h-622v215h516v89h-518v59h589v-204h-515v-100z" />
<glyph unicode="&#xb380;" d="M381 603h188v199h69v-491h-69v231h-188v61zM481 438l7 -60q-128 -24 -333 -24h-57v404h338v-60h-266v-284q185 0 311 24zM299 201v-201h439v201h-439zM228 -60v320h581v-320h-581zM739 821h70v-518h-70v518z" />
<glyph unicode="&#xb381;" d="M380 611h189v191h69v-468h-69v216h-189v61zM481 454l7 -60q-122 -24 -333 -24h-57v393h338v-61h-266v-272q191 0 311 24zM738 -1v121h-437v-121h437zM738 179v110h71v-350h-580v350h72v-110h437zM739 822h70v-494h-70v494z" />
<glyph unicode="&#xb383;" d="M809 822v-604h-70v604h70zM379 589h190v214h69v-506h-69v231h-190v61zM481 419l7 -60q-131 -24 -333 -24h-57v415h337v-60h-264v-295q183 0 310 24zM551 264v-37q0 -86 93 -153.5t214 -86.5l-28 -56q-103 18 -189.5 69t-126.5 125q-38 -74 -125 -125t-190 -69l-28 56 q120 19 213 86.5t93 153.5v37h74z" />
<glyph unicode="&#xb384;" d="M809 821v-528h-70v528h70zM381 593h188v210h69v-497h-69v226h-188v61zM481 426l7 -60q-131 -24 -333 -24h-57v410h338v-60h-266v-290q184 0 311 24zM695 267v-51q0 -71 50 -134.5t132 -91.5l-35 -54q-66 23 -112.5 68.5t-70.5 104.5q-48 -130 -164 -181q-125 50 -167 177 q-25 -57 -71 -101.5t-108 -67.5l-37 54q82 30 132.5 94.5t50.5 131.5v51h70v-51q0 -64 33 -123t95 -94q63 38 97.5 99.5t34.5 117.5v51h70z" />
<glyph unicode="&#xb385;" d="M809 822v-544h-70v544h70zM380 590h189v213h69v-493h-69v220h-189v60zM481 424l8 -60q-128 -26 -334 -26h-57v412h341v-60h-269v-292q187 0 311 26zM516 -12q104 0 164 28t60 78q0 49 -60.5 77.5t-163.5 28.5q-105 0 -165.5 -28.5t-60.5 -77.5q0 -50 60.5 -78t165.5 -28z M516 258q138 0 217.5 -43.5t79.5 -120.5q0 -78 -79 -121.5t-218 -43.5t-219 43.5t-80 121.5q0 77 80 120.5t219 43.5z" />
<glyph unicode="&#xb38c;" d="M175 679v-482q245 0 396 29l9 -60q-164 -30 -410 -30h-68v603h410v-60h-337zM715 822h73v-895h-73v394h-257v61h257v142h-257v61h257v237z" />
<glyph unicode="&#xb390;" d="M471 640h244v182h73v-663h-73v249h-244v60h244v113h-244v59zM547 359l9 -60q-151 -28 -387 -28h-64v476h392v-61h-319v-355q227 0 369 28zM291 8h521v-61h-593v252h72v-191z" />
<glyph unicode="&#xb394;" d="M474 681h240v141h73v-482h-73v133h-240v58h240v91h-240v59zM541 451l9 -59q-146 -28 -384 -28h-63v408h392v-59h-320v-289q233 0 366 27zM288 -3h532v-59h-603v213h499v92h-502v58h573v-205h-499v-99z" />
<glyph unicode="&#xb3a0;" d="M476 660h238v161h73v-529h-73v148h-238v59h238v102h-238v59zM540 414l9 -59q-149 -29 -383 -29h-63v434h391v-61h-319v-313q217 0 365 28zM689 267v-48q0 -72 49.5 -135t133.5 -91l-38 -55q-65 24 -111.5 70t-68.5 104q-22 -59 -64 -107.5t-102 -74.5q-124 50 -166 179 q-53 -122 -180 -171l-36 55q81 29 131.5 94t50.5 132v48h70v-48q0 -64 33 -123.5t95 -94.5q62 39 97 100.5t35 117.5v48h71z" />
<glyph unicode="&#xb3a1;" d="M475 655h239v166h73v-559h-73v173h-239v59h239v102h-239v59zM542 410l9 -59q-147 -29 -383 -29h-63v438h391v-61h-318v-317q218 0 364 28zM494 -15q104 0 164.5 29t60.5 80q0 52 -60 81t-165 29q-103 0 -163 -29.5t-60 -80.5t60 -80t163 -29zM494 262q139 0 218 -44.5 t79 -123.5q0 -78 -79 -122t-218 -44q-138 0 -216.5 44t-78.5 122q0 79 78.5 123.5t216.5 44.5z" />
<glyph unicode="&#xb3a8;" d="M161 654v-449q191 0 307 26l9 -61q-121 -26 -332 -26h-56v570h337v-60h-265zM563 567v232h69v-824h-69v343h-193v61h193v127h-193v61h193zM741 822h70v-894h-70v894z" />
<glyph unicode="&#xb3ac;" d="M809 822v-665h-70v665h70zM392 632h175v171h69v-622h-69v234h-175v60h175v98h-175v59zM465 369l7 -60q-131 -26 -319 -26h-55v459h320v-60h-248v-339q170 0 295 26zM302 9h535v-61h-608v261h73v-200z" />
<glyph unicode="&#xb3c4;" d="M495 103h371v-61h-813v61h369v237h-264v409h603v-61h-530v-287h540v-61h-276v-237z" />
<glyph unicode="&#xb3c5;" d="M144 162v60h619v-304h-73v244h-546zM495 374h367v-60h-808v60h369v112h-266v300h604v-61h-531v-179h539v-60h-274v-112z" />
<glyph unicode="&#xb3c8;" d="M232 204v-196h545v-61h-618v257h73zM495 348h368v-60h-809v60h368v122h-265v306h605v-61h-532v-184h540v-61h-275v-122z" />
<glyph unicode="&#xb3cb;" d="M230 171v-171h544v-61h-617v292h608v-60h-535zM495 387h368v-61h-809v61h369v108h-263v290h599v-61h-527v-168h537v-61h-274v-108z" />
<glyph unicode="&#xb3cc;" d="M227 92v-95h558v-58h-629v207h530v86h-533v57h605v-197h-531zM495 429h368v-60h-809v60h369v89h-260v269h594v-60h-521v-149h531v-60h-272v-89z" />
<glyph unicode="&#xb3ce;" d="M211 93v-98q148 0 239 16l7 -57q-89 -16 -268 -16h-46v209h213v86h-216v57h285v-197h-214zM547 235v-242h160v242h-160zM485 -62v352h285v-352h-285zM496 427h366v-60h-808v60h369v92h-265v263h601v-60h-529v-143h537v-60h-271v-92z" />
<glyph unicode="&#xb3d0;" d="M212 94v-98q147 0 228 15l7 -56q-86 -15 -259 -15h-45v207h212v87h-215v56h285v-196h-213zM674 305v-69q0 -75 40.5 -143.5t114.5 -102.5l-43 -52q-107 53 -147 176q-44 -123 -151 -176l-42 52q75 35 116 103.5t41 142.5v69h71zM496 424h366v-60h-808v60h369v93h-265v265 h601v-60h-529v-145h537v-60h-271v-93z" />
<glyph unicode="&#xb3d4;" d="M226 175v-175h466v175h-466zM155 -60v294h608v-294h-608zM495 388h367v-60h-808v60h368v107h-265v291h604v-61h-531v-170h539v-60h-274v-107z" />
<glyph unicode="&#xb3d5;" d="M686 0v117h-454v-117h454zM686 176v103h73v-340h-599v340h72v-103h454zM495 398h368v-60h-809v60h368v107h-265v284h605v-61h-532v-162h540v-61h-275v-107z" />
<glyph unicode="&#xb3d7;" d="M497 253v-30q0 -88 89 -152.5t213 -83.5l-28 -57q-105 18 -189.5 66.5t-122.5 121.5q-37 -73 -122 -121.5t-190 -66.5l-28 57q125 19 214 83.5t89 152.5v30h75zM496 370h367v-61h-809v61h369v112h-266v301h606v-61h-533v-180h541v-60h-275v-112z" />
<glyph unicode="&#xb3d9;" d="M458 -14q109 0 170.5 27t61.5 76t-61.5 75.5t-170.5 26.5t-170.5 -27t-61.5 -75q0 -49 61.5 -76t170.5 -27zM458 250q144 0 225 -42.5t81 -118.5q0 -77 -81 -119t-225 -42t-224.5 42t-80.5 119q0 76 80.5 118.5t224.5 42.5zM495 378h368v-61h-809v61h368v107h-265v296 h605v-61h-533v-175h539v-60h-273v-107z" />
<glyph unicode="&#xb3db;" d="M755 172h-258q13 -67 100 -119.5t196 -67.5l-25 -55q-101 15 -185.5 60t-123.5 109q-37 -66 -121.5 -110t-189.5 -59l-25 55q114 16 199.5 66.5t96.5 120.5h-259v60h261v87h73v-87h261v-60zM496 418h368v-60h-809v60h368v100h-263v265h600v-60h-528v-145h536v-60h-272 v-100z" />
<glyph unicode="&#xb3dd;" d="M229 82v-88h546v-56h-619v337h611v-56h-538v-83h517v-54h-517zM495 415h368v-61h-809v61h368v101h-263v269h604v-60h-532v-149h540v-60h-276v-101z" />
<glyph unicode="&#xb3e0;" d="M364 372v-183q144 7 244 21l5 -55q-207 -34 -557 -34l-11 62q158 0 246 3v186h-185v357h442v-60h-369v-236h376v-61h-191zM884 448v-61h-146v-460h-73v894h73v-373h146z" />
<glyph unicode="&#xb3e4;" d="M612 367l5 -53q-206 -38 -557 -38l-10 61q155 0 243 4v119h-176v301h413v-61h-339v-179h346v-61h-171v-116q126 5 246 23zM257 194v-186h515v-61h-588v247h73zM744 515h134v-61h-134v-311h-73v679h73v-307z" />
<glyph unicode="&#xb3e8;" d="M616 442l4 -52q-217 -35 -561 -35l-8 59q127 0 242 4v96h-172v260h413v-59h-341v-141h348v-60h-175v-93q152 7 250 21zM242 90v-93h538v-59h-610v207h506v87h-508v57h579v-199h-505zM747 600h132v-61h-132v-209h-72v492h72v-222z" />
<glyph unicode="&#xb3fc;" d="M320 372v-180q120 5 190 15l5 -54q-176 -30 -461 -30l-10 62q105 0 206 4v183h-159v356h378v-60h-306v-235h313v-61h-156zM735 821h70v-894h-70v459h-116v-411h-69v826h69v-354h116v374z" />
<glyph unicode="&#xb410;" d="M619 507v-232h-70v530h70v-237h114v254h70v-553h-70v238h-114zM505 386l5 -53q-162 -30 -451 -30l-10 61q132 0 208 3v112h-152v286h367v-60h-296v-165h300v-61h-150v-109q126 8 179 16zM689 231v-24q0 -70 49.5 -130t132.5 -85l-34 -55q-137 46 -183 165 q-46 -125 -167 -173q-121 47 -165 170q-52 -117 -182 -162l-35 55q82 26 132 86.5t50 128.5v24h70v-24q0 -59 34 -116.5t96 -91.5q63 35 97 92t34 116v24h71z" />
<glyph unicode="&#xb418;" d="M386 371v-180q151 7 260 20l6 -54q-230 -34 -582 -34l-10 62q134 0 253 4v182h-185v366h451v-61h-379v-244h383v-61h-197zM707 822h72v-896h-72v896z" />
<glyph unicode="&#xb41c;" d="M784 821v-668h-73v668h73zM635 355l6 -54q-233 -33 -572 -33l-11 61q137 0 257 4v133h-176v297h424v-61h-351v-176h357v-60h-181v-130q156 7 247 19zM283 8h531v-61h-604v249h73v-188z" />
<glyph unicode="&#xb420;" d="M785 821v-483h-73v483h73zM639 449l5 -52q-231 -35 -574 -35l-11 60q137 0 257 4v98h-175v260h418v-59h-344v-143h354v-58h-180v-95q127 4 250 20zM273 -2h545v-60h-617v211h513v88h-515v59h586v-204h-512v-94z" />
<glyph unicode="&#xb428;" d="M638 407l5 -53q-213 -36 -573 -36l-10 60q165 0 256 4v110h-177v280h431v-61h-358v-159h364v-60h-187v-107q149 7 249 22zM276 173v-173h439v173h-439zM205 -60v292h581v-292h-581zM713 822h73v-544h-73v544z" />
<glyph unicode="&#xb429;" d="M636 421l5 -53q-205 -36 -572 -38l-11 61q165 0 256 4v101h-175v280h420v-61h-348v-159h356v-60h-180v-98q139 7 249 23zM713 0v109h-437v-109h437zM713 168v98h72v-326h-582v326h73v-98h437zM712 821h73v-515h-73v515z" />
<glyph unicode="&#xb42b;" d="M785 822v-633h-73v633h73zM637 390l5 -52q-233 -39 -573 -39l-11 61q120 0 259 6v113h-178v291h425v-60h-353v-170h359v-61h-180v-110q132 6 247 21zM527 244v-33q0 -83 88.5 -143.5t212.5 -78.5l-27 -58q-104 17 -188.5 63.5t-122.5 115.5q-37 -69 -120.5 -115.5 t-188.5 -63.5l-28 58q124 18 212.5 78.5t88.5 143.5v33h73z" />
<glyph unicode="&#xb434;" d="M362 331v-219h202v219h-202zM637 112h229v-61h-813v61h236v219h-131v413h603v-61h-530v-292h539v-60h-133v-219z" />
<glyph unicode="&#xb450;" d="M762 486v-61h-595v344h582v-61h-508v-222h521zM865 304v-61h-371v-313h-73v313h-367v61h811z" />
<glyph unicode="&#xb451;" d="M769 552v-60h-612v295h604v-61h-531v-174h539zM862 333h-367v-123h268v-284h-73v224h-546v60h279v123h-369v60h808v-60z" />
<glyph unicode="&#xb454;" d="M769 523v-60h-612v313h604v-61h-531v-192h539zM231 200v-192h546v-61h-619v253h73zM54 363h808v-61h-358v-181h-73v181h-377v61z" />
<glyph unicode="&#xb458;" d="M767 578v-60h-604v269h594v-60h-521v-149h531zM863 381h-368v-92h263v-197h-531v-95h558v-58h-629v207h530v86h-534v57h271v92h-369v60h809v-60z" />
<glyph unicode="&#xb460;" d="M769 555v-60h-612v291h604v-61h-531v-170h539zM692 0v176h-466v-176h466zM862 345h-367v-110h268v-295h-608v295h268v110h-368v60h807v-60z" />
<glyph unicode="&#xb461;" d="M770 565v-60h-613v284h605v-61h-532v-163h540zM686 0v113h-454v-113h454zM686 171v108h73v-340h-599v340h72v-108h454zM54 416h809v-60h-368v-134h-72v134h-369v60z" />
<glyph unicode="&#xb463;" d="M770 558v-61h-613v290h605v-60h-532v-169h540zM495 210v-30q0 -75 90 -127t215 -65l-25 -58q-107 13 -193.5 54.5t-124.5 104.5q-38 -63 -124.5 -104.5t-193.5 -54.5l-25 58q126 13 216 65t90 127v30h75zM53 407h813v-61h-372v-99h-73v99h-368v61z" />
<glyph unicode="&#xb465;" d="M768 547v-60h-611v294h605v-61h-533v-173h539zM690 89q0 49 -61.5 76t-169.5 27q-109 0 -171 -27t-62 -76t62 -76t171 -27q108 0 169.5 27t61.5 76zM863 340h-368v-91q127 -5 198 -47t71 -113q0 -76 -81 -118.5t-224 -42.5q-144 0 -225 42.5t-81 118.5q0 71 71 113 t199 47v91h-369v61h809v-61z" />
<glyph unicode="&#xb46c;" d="M572 520v-61h-440v314h428v-61h-356v-192h368zM642 371l5 -54q-127 -16 -272 -22v-340h-72v336q-115 -4 -243 -4l-10 62q391 2 592 22zM713 822h73v-895h-73v224h-208v59h208v612z" />
<glyph unicode="&#xb480;" d="M523 365h187v458h73v-569h-73v58h-187v53zM544 595v-58h-405v260h401v-58h-328v-144h332zM294 261v145q-85 -4 -236 -4l-9 59q379 0 575 27l4 -51q-109 -19 -262 -28v-148h-72zM686 225v-18q0 -68 49.5 -128t132.5 -87l-35 -55q-131 47 -182 166q-20 -57 -62.5 -102.5 t-103.5 -69.5q-122 47 -166 171q-50 -118 -181 -165l-35 55q82 27 132 87t50 128v18h70v-18q0 -59 34 -116t96 -92q62 35 96 92.5t34 115.5v18h71z" />
<glyph unicode="&#xb488;" d="M466 515v-61h-363v294h361v-61h-290v-172h292zM510 381l5 -54q-107 -16 -204 -21v-306h-70v301q-115 -5 -189 -5l-10 61q290 2 468 24zM570 234v568h69v-828h-69v202h-171v58h171zM736 822h71v-895h-71v895z" />
<glyph unicode="&#xb49d;" d="M803 821v-593h-70v593h70zM410 364h163v442h70v-547h-70v52h-163v53zM480 588v-58h-358v244h357v-57h-287v-129h288zM255 248v152q-99 -4 -197 -4l-9 60q313 0 471 26l5 -52q-77 -16 -200 -25v-157h-70zM504 -16q111 0 172.5 25t61.5 69t-61 68.5t-173 24.5t-173 -24.5 t-61 -68.5t61.5 -69t172.5 -25zM504 228q148 0 229 -39t81 -111t-81 -111t-229 -39t-229 39t-81 111t81 111t229 39z" />
<glyph unicode="&#xb4a4;" d="M577 510v-60h-442v322h431v-61h-358v-201h369zM647 357l4 -55q-121 -17 -264 -25v-322h-73v319q-121 -4 -255 -4l-10 63q402 2 598 24zM712 822h73v-895h-73v895z" />
<glyph unicode="&#xb4a8;" d="M778 822v-680h-72v680h72zM567 534v-61h-422v298h416v-61h-343v-176h349zM319 173v150q-112 -5 -253 -5l-10 62q374 0 584 23l6 -54q-109 -14 -254 -23v-153h-73zM256 7h550v-60h-622v257h72v-197z" />
<glyph unicode="&#xb4ac;" d="M778 822v-489h-72v489h72zM558 594v-58h-411v262h407v-59h-334v-145h338zM266 -3h546v-59h-618v212h513v89h-515v58h121v108q-116 -4 -245 -4l-10 59q384 0 583 27l5 -51q-112 -18 -260 -27v-112h392v-201h-512v-99z" />
<glyph unicode="&#xb4b5;" d="M562 573v-60h-416v277h411v-61h-338v-156h343zM317 251v125q-117 -4 -250 -4l-9 61q381 0 583 19l4 -52q-95 -12 -255 -21v-128h-73zM707 -1v104h-443v-104h443zM707 161v97h71v-318h-586v318h72v-97h443zM706 822h72v-523h-72v523z" />
<glyph unicode="&#xb4b7;" d="M778 821v-646h-72v646h72zM568 559v-61h-423v279h420v-61h-347v-157h350zM300 191v157q-111 -4 -232 -4l-10 62q371 0 583 21l5 -54q-125 -15 -273 -22v-160h-73zM546 249v-40q0 -82 89 -143t212 -79l-28 -55q-104 17 -188 62.5t-122 113.5q-38 -69 -121.5 -115 t-187.5 -62l-27 56q123 17 211.5 78.5t88.5 143.5v40h73z" />
<glyph unicode="&#xb4b9;" d="M779 821v-570h-73v570h73zM564 558v-60h-418v280h412v-61h-339v-159h345zM489 -12q103 0 163 26.5t60 73.5t-60 73.5t-163 26.5q-104 0 -163.5 -26.5t-59.5 -73.5t59.5 -73.5t163.5 -26.5zM383 356v-118q51 8 106 8q139 0 217.5 -41.5t78.5 -116.5t-78.5 -116.5 t-217.5 -41.5t-217.5 41.5t-78.5 116.5q0 93 118 133v132q-129 -3 -243 -3l-10 62q371 0 584 21l5 -55q-118 -14 -264 -22z" />
<glyph unicode="&#xb4c0;" d="M761 492v-61h-594v343h581v-61h-507v-221h520zM864 307v-61h-215v-319h-72v319h-236v-319h-72v319h-215v61h810z" />
<glyph unicode="&#xb4c4;" d="M769 526v-60h-612v310h605v-61h-532v-189h539zM230 191v-183h549v-61h-622v244h73zM54 367h808v-61h-209v-187h-72v187h-172v-186h-72v186h-283v61z" />
<glyph unicode="&#xb4c8;" d="M767 582v-60h-604v268h594v-60h-521v-148h531zM572 289v95h-221v-95h221zM863 384h-218v-95h113v-197h-531v-95h558v-58h-629v207h530v86h-534v57h126v95h-224v60h809v-60z" />
<glyph unicode="&#xb4d0;" d="M769 558v-61h-612v290h604v-61h-531v-168h539zM570 235v112h-219v-112h219zM692 0v176h-466v-176h466zM862 347h-220v-112h121v-295h-608v295h124v112h-224v61h807v-61z" />
<glyph unicode="&#xb4d5;" d="M768 553v-60h-611v290h605v-61h-533v-169h539zM582 240v100h-246v-100q53 10 122 10q62 0 124 -10zM690 89q0 49 -62 76t-170 27t-170 -27t-62 -76t62 -76t170 -27t170 27t62 76zM863 340h-209v-120q110 -42 110 -131q0 -76 -81.5 -118.5t-224.5 -42.5 q-144 0 -224.5 42.5t-80.5 118.5q0 90 111 132v119h-210v61h809v-61z" />
<glyph unicode="&#xb4dc;" d="M770 389v-60h-612v409h602v-61h-529v-288h539zM53 112h812v-61h-812v61z" />
<glyph unicode="&#xb4dd;" d="M769 549v-61h-612v299h604v-60h-531v-178h539zM144 151v61h619v-290h-73v229h-546zM54 385h808v-61h-808v61z" />
<glyph unicode="&#xb4e0;" d="M769 532v-60h-612v311h604v-61h-531v-190h539zM232 208v-199h544v-61h-617v260h73zM54 368h808v-60h-808v60z" />
<glyph unicode="&#xb4e3;" d="M768 559v-60h-608v294h598v-60h-526v-174h536zM230 175v-175h544v-60h-617v296h608v-61h-535zM55 397h808v-60h-808v60z" />
<glyph unicode="&#xb4e4;" d="M767 580v-60h-604v270h594v-60h-521v-150h531zM227 95v-97h558v-59h-629v211h530v92h-533v58h605v-205h-531zM55 443h808v-60h-808v60z" />
<glyph unicode="&#xb4e6;" d="M767 576v-60h-609v279h601v-60h-528v-159h536zM211 95v-100q154 0 239 15l7 -56q-83 -16 -268 -16h-46v210h213v90h-216v56h285v-199h-214zM547 239v-246h160v246h-160zM485 -62v356h285v-356h-285zM55 436h807v-61h-807v61z" />
<glyph unicode="&#xb4ec;" d="M769 557v-60h-612v296h604v-61h-531v-175h539zM226 178v-176h466v176h-466zM155 -58v295h608v-295h-608zM55 402h807v-61h-807v61z" />
<glyph unicode="&#xb4ed;" d="M770 570v-60h-613v283h605v-60h-532v-163h540zM686 1v118h-454v-118h454zM686 178v102h73v-340h-599v340h72v-102h454zM54 414h809v-60h-809v60z" />
<glyph unicode="&#xb4ef;" d="M771 543v-61h-614v307h606v-60h-533v-186h541zM497 255v-30q0 -89 89 -153t214 -82l-29 -58q-105 18 -189.5 66.5t-122.5 121.5q-37 -73 -122 -121.5t-190 -66.5l-28 58q80 12 147.5 43t111.5 81.5t44 110.5v30h75zM54 387h809v-60h-809v60z" />
<glyph unicode="&#xb4f1;" d="M768 542v-60h-611v302h605v-61h-533v-181h539zM458 -13q109 0 170.5 27t61.5 76t-61.5 75.5t-170.5 26.5t-170.5 -27t-61.5 -75q0 -49 61.5 -76t170.5 -27zM458 251q144 0 225 -42.5t81 -118.5q0 -77 -81 -119t-225 -42t-224.5 42t-80.5 119q0 76 80.5 118.5t224.5 42.5z M54 393h809v-61h-809v61z" />
<glyph unicode="&#xb4f8;" d="M580 442v-61h-449v354h438v-61h-365v-232h376zM69 141l-11 61q382 2 590 26l5 -55q-239 -34 -584 -32zM707 822h72v-895h-72v895z" />
<glyph unicode="&#xb514;" d="M185 674v-462q264 0 426 31l8 -63q-181 -31 -435 -31h-72v587h421v-62h-348zM711 821h73v-895h-73v895z" />
<glyph unicode="&#xb515;" d="M621 443l7 -60q-170 -32 -446 -32h-73v399h420v-61h-347v-277q277 0 439 31zM191 179v60h595v-312h-73v252h-522zM713 821h73v-531h-73v531z" />
<glyph unicode="&#xb518;" d="M785 822v-651h-73v651h73zM602 418l8 -61q-174 -32 -431 -32h-71v424h415v-61h-342v-302q260 0 421 32zM278 8h536v-61h-609v278h73v-217z" />
<glyph unicode="&#xb51b;" d="M786 821v-512h-73v512h73zM619 466l8 -61q-170 -33 -445 -33h-73v386h420v-60h-347v-265q271 0 437 33zM284 1h527v-61h-600v323h581v-61h-508v-201z" />
<glyph unicode="&#xb51c;" d="M785 822v-456h-73v456h73zM619 504l8 -58q-170 -34 -446 -34h-72v357h421v-59h-348v-238q273 0 437 32zM283 -6h534v-60h-605v225h501v101h-504v59h576v-215h-502v-110z" />
<glyph unicode="&#xb524;" d="M619 468l8 -61q-165 -32 -445 -32h-73v381h420v-60h-347v-260q276 0 437 32zM282 200v-200h433v200h-433zM211 -60v319h575v-319h-575zM713 821h73v-515h-73v515z" />
<glyph unicode="&#xb525;" d="M619 478l8 -61q-165 -32 -445 -32h-73v379h420v-60h-347v-258q276 0 437 32zM714 0v120h-429v-120h429zM714 179v118h72v-358h-573v358h72v-118h429zM713 822h73v-482h-73v482z" />
<glyph unicode="&#xb527;" d="M786 822v-605h-73v605h73zM619 441l7 -61q-169 -32 -445 -32h-72v399h420v-61h-347v-277q272 0 437 32zM536 286v-36q0 -64 43.5 -120t110.5 -91.5t146 -49.5l-30 -58q-103 21 -187 75t-121 133q-37 -79 -121.5 -133t-189.5 -75l-30 58q124 23 214 93.5t90 167.5v36h75z " />
<glyph unicode="&#xb528;" d="M786 821v-522h-73v522h73zM620 463l8 -60q-175 -33 -446 -33h-73v387h423v-61h-350v-265q273 0 438 32zM684 279v-63q0 -70 50 -132.5t133 -90.5l-37 -55q-65 24 -111.5 68.5t-69.5 102.5q-50 -129 -166 -179q-125 49 -167 176q-54 -120 -180 -168l-37 55q82 29 132.5 93 t50.5 130v63h70v-63q0 -63 33.5 -121.5t95.5 -93.5q63 38 98 98.5t35 116.5v63h70z" />
<glyph unicode="&#xb529;" d="M786 822v-554h-73v554h73zM619 455l8 -61q-170 -33 -445 -33h-73v390h420v-60h-347v-269q277 0 437 33zM489 -13q105 0 165.5 30t60.5 82t-60.5 81.5t-165.5 29.5t-165.5 -29.5t-60.5 -81.5t60.5 -82t165.5 -30zM489 269q139 0 219 -45.5t80 -124.5q0 -80 -80 -125.5 t-219 -45.5q-138 0 -218 45.5t-80 125.5q0 79 80 124.5t218 45.5z" />
<glyph unicode="&#xb52a;" d="M786 821v-517h-73v517h73zM620 469l7 -61q-178 -32 -446 -32h-72v382h423v-61h-350v-260q271 0 438 32zM796 197h-256q7 -74 93 -133t198 -76l-28 -57q-99 17 -181 64.5t-119 115.5q-37 -68 -118.5 -115.5t-180.5 -64.5l-28 57q113 18 197.5 76.5t91.5 132.5h-253v61h584 v-61z" />
<glyph unicode="&#xb530;" d="M155 667v-441q88 2 162 19l7 -61q-89 -19 -203 -19h-38v563h224v-61h-152zM430 667v-441q121 2 195 21l9 -61q-88 -21 -233 -21h-43v563h237v-61h-165zM886 467v-61h-133v-479h-73v896h73v-356h133z" />
<glyph unicode="&#xb531;" d="M633 439l8 -60q-90 -21 -233 -21h-43v393h235v-61h-165v-271q115 2 198 20zM326 440l9 -62q-91 -20 -208 -20h-38v393h221v-61h-151v-271q97 4 167 21zM175 183v60h587v-317h-73v257h-514zM881 579v-61h-119v-233h-73v537h73v-243h119z" />
<glyph unicode="&#xb534;" d="M633 407l8 -60q-85 -20 -233 -20h-43v409h235v-60h-165v-288q119 2 198 19zM327 406l8 -62q-85 -19 -208 -19h-38v411h221v-60h-151v-290q85 2 168 20zM269 224v-216h528v-61h-601v277h73zM762 551h120v-61h-120v-321h-73v653h73v-271z" />
<glyph unicode="&#xb538;" d="M633 493l8 -60q-87 -19 -234 -19h-42v350h235v-60h-165v-230q119 2 198 19zM326 491l9 -61q-91 -19 -208 -19h-38v353h224v-60h-154v-233q86 2 167 20zM257 104v-105h539v-59h-611v220h506v97h-508v58h579v-211h-505zM762 624h120v-61h-120v-206h-73v465h73v-198z" />
<glyph unicode="&#xb540;" d="M633 446l8 -61q-85 -20 -233 -20h-43v390h235v-61h-165v-268q115 2 198 20zM326 447l9 -63q-91 -19 -208 -19h-38v390h221v-61h-151v-268q97 4 167 21zM261 198v-198h430v198h-430zM190 -60v318h572v-318h-572zM881 597v-61h-119v-230h-73v515h73v-224h119z" />
<glyph unicode="&#xb541;" d="M634 459l8 -61q-90 -20 -234 -20h-43v381h235v-61h-165v-259q121 2 199 20zM332 457l8 -61q-97 -21 -212 -21h-39v384h221v-61h-151v-262q90 2 173 21zM689 0v120h-429v-120h429zM689 179v119h73v-359h-575v359h73v-119h429zM881 610v-61h-119v-211h-74v482h74v-210h119z " />
<glyph unicode="&#xb543;" d="M633 425l8 -60q-90 -21 -233 -21h-43v400h235v-60h-165v-279q115 2 198 20zM326 423l9 -61q-91 -20 -208 -20h-38v402h221v-60h-151v-281q86 2 167 20zM521 276v-31q0 -95 90.5 -165t214.5 -91l-29 -59q-105 22 -190.5 75t-123.5 131q-38 -78 -123 -131t-190 -75l-30 59 q124 21 215 91t91 165v31h75zM762 567h120v-61h-120v-293h-73v610h73v-256z" />
<glyph unicode="&#xb544;" d="M633 446l8 -61q-85 -20 -233 -20h-43v390h235v-61h-165v-268q115 2 198 20zM326 444l9 -61q-91 -20 -208 -20h-38v392h221v-61h-151v-270q92 2 167 20zM683 278v-58q0 -71 49.5 -134.5t132.5 -92.5l-37 -54q-131 50 -180 173q-48 -129 -166 -180q-61 24 -103.5 71 t-62.5 106q-53 -120 -179 -170l-36 54q81 31 131 95.5t50 131.5v58h70v-58q0 -64 33 -122.5t95 -94.5q62 38 97 99.5t35 117.5v58h71zM762 594h119v-61h-119v-226h-73v514h73v-227z" />
<glyph unicode="&#xb545;" d="M633 439l8 -61q-85 -20 -233 -20h-43v391h235v-60h-165v-270q115 2 198 20zM326 437l9 -61q-91 -20 -208 -20h-38v393h221v-60h-151v-272q92 2 167 20zM474 -13q103 0 163 29.5t60 81.5t-60 81.5t-163 29.5t-163 -29.5t-60 -81.5t60 -81.5t163 -29.5zM474 267 q138 0 216.5 -45t78.5 -124t-79 -124.5t-216 -45.5t-216 45.5t-79 124.5t78.5 124t216.5 45zM762 583h119v-61h-119v-241h-73v540h73v-238z" />
<glyph unicode="&#xb54b;" d="M633 509l8 -60q-86 -20 -234 -20h-42v339h235v-60h-165v-219q120 2 198 20zM327 507l9 -61q-92 -20 -209 -20h-38v342h222v-60h-152v-222q98 4 168 21zM478 -20q81 0 128 20.5t47 56.5q0 35 -47 55.5t-128 20.5q-82 0 -129 -20.5t-47 -55.5q0 -36 47 -56.5t129 -20.5z M478 187q116 0 182 -34t66 -96t-66 -96.5t-182 -34.5t-182 34t-66 97q0 62 66 96t182 34zM515 380v-88h277v-58h-629v58h279v88h73zM762 628h119v-61h-119v-212h-73v467h73v-194z" />
<glyph unicode="&#xb54c;" d="M150 647v-422q68 2 131 17l8 -61q-80 -18 -172 -18h-34v545h192v-61h-125zM381 647v-423q89 4 150 22l7 -61q-78 -22 -188 -22h-36v545h197v-61h-130zM754 821h69v-893h-69v465h-114v-420h-68v828h68v-347h114v367z" />
<glyph unicode="&#xb54d;" d="M527 426l8 -61q-76 -18 -184 -18h-35v402h195v-60h-127v-281q75 2 143 18zM280 425l8 -60q-76 -18 -170 -18h-34v402h186v-60h-119v-281q68 2 129 17zM198 180v61h621v-311h-73v250h-548zM750 822h69v-534h-69v240h-108v-233h-68v510h68v-217h108v234z" />
<glyph unicode="&#xb550;" d="M642 498v-311h-68v617h68v-246h108v263h69v-664h-69v341h-108zM527 406l8 -61q-76 -18 -184 -18h-35v407h195v-61h-127v-285q75 2 143 18zM280 405l8 -60q-76 -18 -170 -18h-34v407h186v-61h-119v-285q68 2 129 17zM296 8h549v-61h-622v287h73v-226z" />
<glyph unicode="&#xb554;" d="M642 559v-193h-68v439h68v-186h108v203h69v-463h-69v200h-108zM527 478l8 -60q-76 -18 -184 -18h-35v369h195v-60h-127v-249q75 2 143 18zM280 477l8 -60q-76 -17 -171 -17h-33v369h186v-60h-119v-249q67 2 129 17zM294 -1h560v-59h-631v219h524v94h-527v59h599v-209 h-525v-104z" />
<glyph unicode="&#xb55c;" d="M527 448l8 -61q-80 -18 -184 -18h-35v387h195v-61h-127v-265q75 2 143 18zM280 448l8 -61q-80 -18 -170 -18h-34v387h186v-61h-119v-264q68 2 129 17zM292 202v-202h455v202h-455zM221 -60v321h598v-321h-598zM750 821h69v-517h-69v231h-108v-225h-68v494h68v-209h108 v226z" />
<glyph unicode="&#xb55d;" d="M527 458l8 -61q-76 -18 -184 -18h-35v381h195v-60h-127v-260q75 2 143 18zM280 457l8 -60q-76 -18 -170 -18h-34v381h186v-60h-119v-260q68 2 129 17zM747 0v121h-451v-121h451zM747 180v111h72v-352h-595v352h72v-111h451zM750 821h69v-489h-69v215h-108v-209h-68v466 h68v-196h108v213z" />
<glyph unicode="&#xb55f;" d="M642 517v-228h-68v516h68v-227h108v244h69v-607h-69v302h-108zM527 423l8 -61q-80 -18 -184 -18h-35v401h195v-61h-127v-279q75 2 143 18zM280 422l8 -60q-76 -18 -170 -18h-34v401h186v-61h-119v-279q68 2 129 17zM551 263v-35q0 -57 45.5 -109t115 -85t146.5 -45 l-27 -58q-104 18 -191 69t-126 124q-39 -73 -126 -124t-190 -69l-28 58q78 12 147 45t114.5 84.5t45.5 109.5v35h74z" />
<glyph unicode="&#xb560;" d="M642 535v-225h-68v494h68v-208h108v225h69v-520h-69v234h-108zM527 436l8 -61q-76 -18 -184 -18h-35v395h195v-61h-127v-273q75 2 143 18zM280 435l8 -60q-76 -18 -170 -18h-34v395h186v-61h-119v-273q68 2 129 17zM702 267v-50q0 -71 49.5 -134t131.5 -92l-36 -55 q-133 50 -181 172q-22 -59 -64 -106.5t-102 -72.5q-62 24 -104 70.5t-62 105.5q-52 -119 -180 -169l-36 55q82 30 132 94t50 132v50h70v-50q0 -64 33.5 -122.5t95.5 -93.5q62 38 97 99t35 117v50h71z" />
<glyph unicode="&#xb561;" d="M641 522v-220h-67v503h67v-222h109v239h69v-547h-69v247h-109zM527 439l8 -61q-76 -18 -184 -18h-35v388h195v-60h-128v-267q75 2 144 18zM285 436l9 -60q-78 -18 -176 -18h-34v390h189v-60h-122v-269q69 2 134 17zM514 -13q109 0 172.5 29t63.5 80t-63 80t-173 29 t-173 -29t-63 -80t63.5 -80t172.5 -29zM514 263q145 0 227 -44t82 -123t-82 -123t-227 -44q-144 0 -226.5 44t-82.5 123t82 123t227 44z" />
<glyph unicode="&#xb5a0;" d="M155 669v-449q84 2 152 19l9 -61q-83 -19 -196 -19h-37v571h218v-61h-146zM423 669v-449q129 2 208 22l8 -60q-92 -23 -244 -23h-44v571h242v-61h-170zM724 821h73v-893h-73v503h-177v61h177v329z" />
<glyph unicode="&#xb5a1;" d="M637 428l7 -61q-98 -21 -246 -21h-45v406h247v-60h-175v-285q124 2 212 21zM313 427l7 -62q-88 -19 -202 -19h-38v406h224v-60h-152v-285q92 4 161 20zM188 182v61h609v-316h-72v255h-537zM724 821h73v-535h-73v244h-171v60h171v231z" />
<glyph unicode="&#xb5a4;" d="M555 575h169v246h73v-652h-73v345h-169v61zM637 398l7 -60q-93 -21 -246 -21h-45v430h247v-61h-175v-308q128 2 212 20zM315 397l9 -61q-89 -19 -206 -19h-38v430h225v-61h-153v-308q93 4 163 19zM278 8h541v-61h-614v277h73v-216z" />
<glyph unicode="&#xb5a8;" d="M552 624h172v198h73v-463h-73v207h-172v58zM637 479l7 -59q-93 -21 -247 -21h-44v369h247v-60h-175v-250q123 2 212 21zM314 478l7 -60q-88 -19 -203 -19h-38v369h221v-60h-149v-250q92 4 162 20zM278 -1h553v-59h-626v219h519v95h-521v59h594v-210h-519v-104z" />
<glyph unicode="&#xb5aa;" d="M637 476l7 -59q-93 -21 -247 -21h-44v371h247v-59h-175v-253q125 2 212 21zM314 475l7 -60q-88 -19 -203 -19h-38v371h221v-59h-149v-253q93 4 162 20zM243 107v-109q140 0 234 16l8 -58q-91 -16 -266 -16h-47v222h215v92h-217v57h287v-204h-214zM579 255v-259h154v259 h-154zM514 -60v371h283v-371h-283zM724 822h73v-466h-73v209h-172v57h172v200z" />
<glyph unicode="&#xb5ab;" d="M637 476l7 -59q-98 -21 -247 -21h-44v371h247v-59h-175v-252q129 2 212 20zM314 475l7 -59q-87 -20 -203 -20h-38v371h221v-59h-149v-252q88 2 162 19zM242 102v-105q143 0 234 17l8 -58q-91 -16 -266 -16h-46v217h214v88h-217v58h287v-201h-214zM730 -1v135h-150v-135 h150zM730 192v121h67v-373h-284v373h67v-121h150zM724 822h73v-466h-73v209h-172v57h172v200z" />
<glyph unicode="&#xb5b0;" d="M637 437l7 -60q-93 -21 -246 -21h-45v401h247v-61h-175v-279q128 2 212 20zM314 434l7 -62q-88 -19 -203 -19h-38v404h221v-61h-149v-282q92 4 162 20zM279 201v-201h447v201h-447zM208 -60v321h589v-321h-589zM724 821h73v-513h-73v230h-171v60h171v223z" />
<glyph unicode="&#xb5b1;" d="M637 452l7 -61q-93 -20 -246 -20h-45v394h247v-61h-175v-272q130 2 212 20zM313 448l7 -61q-88 -19 -202 -19h-38v397h224v-61h-152v-275q90 4 161 19zM725 0v122h-442v-122h442zM725 181v116h72v-358h-587v358h73v-116h442zM724 821h73v-483h-73v210h-171v61h171v212z " />
<glyph unicode="&#xb5b3;" d="M553 586h171v235h73v-615h-73v319h-171v61zM637 424l7 -61q-98 -21 -246 -21h-45v411h247v-60h-175v-290q125 2 212 21zM314 423l7 -62q-88 -19 -203 -19h-38v411h224v-60h-152v-290q93 4 162 20zM535 277v-41q0 -91 91 -159t215 -88l-29 -58q-105 19 -191 70.5 t-124 127.5q-39 -76 -124.5 -128t-189.5 -70l-29 58q123 21 214.5 89.5t91.5 157.5v41h75z" />
<glyph unicode="&#xb5b4;" d="M553 592h171v229h73v-514h-73v224h-171v61zM637 431l8 -61q-99 -21 -247 -21h-45v406h248v-60h-176v-285q125 2 212 21zM314 427l7 -61q-88 -19 -203 -19h-38v408h224v-60h-152v-287q88 2 162 19zM686 267v-48q0 -72 49.5 -135t131.5 -91l-36 -55q-132 49 -181 174 q-48 -130 -165 -182q-125 50 -167 178q-25 -56 -71 -101t-107 -69l-37 55q81 29 131.5 94t50.5 132v48h69v-48q0 -64 33.5 -123.5t95.5 -94.5q63 39 97.5 100.5t34.5 117.5v48h71z" />
<glyph unicode="&#xb5b5;" d="M553 593h170v228h73v-546h-73v257h-170v61zM636 433l8 -61q-98 -21 -246 -21h-45v404h247v-60h-175v-283q124 2 211 21zM314 429l8 -61q-87 -20 -204 -20h-38v407h222v-60h-150v-286q93 4 162 20zM501 -13q105 0 166 28.5t61 78.5q0 49 -61 77.5t-166 28.5t-165.5 -28.5 t-60.5 -77.5q0 -50 60.5 -78.5t165.5 -28.5zM501 259q141 0 220.5 -43.5t79.5 -121.5t-80 -122t-220 -44t-219 44t-79 122t79 121.5t219 43.5z" />
<glyph unicode="&#xb5bb;" d="M556 633h168v188h73v-475h-73v229h-168v58zM636 491l7 -59q-93 -21 -246 -21h-44v365h247v-60h-175v-246q125 2 211 21zM314 490l7 -60q-88 -19 -203 -19h-38v365h221v-60h-149v-246q93 4 162 20zM496 -19q83 0 128.5 19.5t45.5 55.5q0 37 -45.5 56.5t-128.5 19.5 t-129 -19.5t-46 -56.5q0 -36 46 -55.5t129 -19.5zM496 185q120 0 185.5 -33.5t65.5 -95.5t-66 -95t-185 -33q-120 0 -185.5 33t-65.5 95q0 63 65.5 96t185.5 33zM533 287h280v-58h-633v58h281v88h72v-88z" />
<glyph unicode="&#xb5bc;" d="M150 648v-423q65 2 127 17l7 -61q-75 -18 -167 -18h-34v546h181v-61h-114zM373 648v-421q86 2 160 22l8 -61q-85 -22 -198 -22h-36v543h204v-61h-138zM590 485v315h67v-825h-67v449h-137v61h137zM754 821h69v-893h-69v893z" />
<glyph unicode="&#xb5bd;" d="M463 595h128v208h68v-513h-68v244h-128v61zM537 427l9 -60q-91 -21 -202 -21h-37v408h202v-60h-135v-287q82 2 163 20zM272 424l7 -61q-72 -17 -162 -17h-33v408h180v-60h-113v-287q73 5 121 17zM203 182v61h616v-316h-73v255h-543zM750 821h69v-538h-69v538z" />
<glyph unicode="&#xb5c0;" d="M819 821v-668h-69v668h69zM464 568h127v233h68v-623h-68v329h-127v61zM537 396l9 -61q-86 -20 -202 -20h-37v424h202v-61h-135v-302q88 2 163 20zM272 392l7 -60q-68 -17 -162 -17h-33v424h180v-61h-113v-302q73 5 121 16zM297 8h549v-61h-622v283h73v-222z" />
<glyph unicode="&#xb5c4;" d="M818 822v-476h-69v476h69zM466 620h126v183h67v-446h-67v204h-126v59zM534 473l10 -60q-86 -20 -202 -20h-37v372h205v-59h-138v-253q90 2 162 20zM270 469l7 -60q-67 -16 -161 -16h-32v372h180v-59h-113v-252q65 2 119 15zM292 -2h558v-60h-630v217h527v94h-529v58h600 v-208h-526v-101z" />
<glyph unicode="&#xb5cc;" d="M463 597h128v204h68v-488h-68v224h-128v60zM537 439l9 -60q-91 -21 -202 -21h-37v401h202v-61h-135v-279q82 2 163 20zM272 436l7 -61q-72 -17 -162 -17h-33v401h180v-61h-113v-278q62 2 121 16zM292 200v-200h455v200h-455zM221 -60v319h598v-319h-598zM750 822h69v-521 h-69v521z" />
<glyph unicode="&#xb5cd;" d="M463 610h128v191h68v-464h-68v212h-128v61zM537 456l9 -61q-91 -20 -202 -20h-37v390h202v-61h-135v-268q82 2 163 20zM272 453l7 -61q-68 -17 -162 -17h-33v390h180v-61h-113v-268q73 5 121 17zM747 0v122h-451v-122h451zM747 180v110h72v-351h-595v351h72v-110h451z M750 822h69v-492h-69v492z" />
<glyph unicode="&#xb5cf;" d="M819 822v-607h-69v607h69zM463 586h128v216h68v-504h-68v227h-128v61zM536 417l9 -61q-90 -21 -201 -21h-37v413h202v-61h-135v-291q83 2 162 21zM272 412l7 -61q-72 -17 -162 -17h-33v414h180v-61h-113v-291q62 2 121 16zM551 264v-37q0 -86 93 -153.5t214 -86.5 l-28 -56q-103 18 -189.5 69t-126.5 124q-39 -73 -125.5 -124t-189.5 -69l-29 56q121 19 214 86.5t93 153.5v37h74z" />
<glyph unicode="&#xb5d0;" d="M819 821v-519h-69v519h69zM463 596h128v205h68v-487h-68v221h-128v61zM537 429l9 -61q-86 -20 -202 -20h-37v407h202v-60h-135v-286q88 2 163 20zM272 425l7 -60q-68 -17 -162 -17h-33v407h180v-60h-113v-286q73 5 121 16zM702 267v-50q0 -71 49.5 -134t131.5 -91 l-36 -55q-133 50 -181 172q-48 -129 -165 -180q-125 49 -167 177q-52 -119 -180 -169l-36 55q82 30 132 94t50 131v50h70v-50q0 -64 33.5 -122.5t95.5 -93.5q62 38 97 99t35 117v50h71z" />
<glyph unicode="&#xb5d1;" d="M819 821v-555h-69v555h69zM463 591h128v210h68v-503h-68v232h-128v61zM537 428l9 -60q-91 -21 -202 -21h-37v406h202v-60h-135v-285q82 2 163 20zM275 425l8 -61q-70 -17 -166 -17h-33v406h180v-60h-113v-285q75 5 124 17zM514 -13q110 0 173 28t63 78q0 51 -63 78.5 t-173 27.5t-173 -27.5t-63 -78.5q0 -50 63 -78t173 -28zM514 258q145 0 227 -43.5t82 -121.5t-82 -121t-227 -43t-227 43t-82 121t82 121.5t227 43.5z" />
<glyph unicode="&#xb5d8;" d="M156 671v-463q75 2 153 19l8 -61q-87 -19 -196 -19h-37v585h221v-61h-149zM426 671v-463q125 2 204 21l8 -60q-92 -22 -241 -22h-43v585h241v-61h-169zM724 821h73v-894h-73v397h-171v61h171v141h-171v61h171v234z" />
<glyph unicode="&#xb5ec;" d="M570 655h154v166h73v-525h-73v157h-154v59h154v84h-154v59zM630 418l7 -60q-92 -21 -246 -21h-44v417h245v-60h-173v-296q128 2 211 20zM307 417l7 -61q-87 -19 -197 -19h-37v417h219v-60h-147v-296q83 2 155 19zM686 267v-48q0 -72 49 -135t132 -92l-36 -55 q-132 49 -181 174q-48 -131 -165 -181q-124 49 -167 177q-25 -56 -71 -101t-107 -69l-37 55q81 30 131.5 94.5t50.5 132.5v48h69v-48q0 -65 33.5 -123.5t95.5 -94.5q63 39 97.5 100.5t34.5 117.5v48h71z" />
<glyph unicode="&#xb610;" d="M801 403v-61h-322v394h311v-61h-238v-272h249zM434 429l8 -62q-112 -25 -268 -25h-48v393h298v-61h-225v-270q138 2 235 25zM494 104h372v-61h-812v61h367v193h73v-193z" />
<glyph unicode="&#xb611;" d="M444 579l9 -60q-119 -26 -274 -26h-48v292h300v-60h-227v-172q136 2 240 26zM143 144v60h617v-284h-73v224h-544zM496 365h367v-60h-808v60h367v128h63v292h299v-60h-227v-171h233v-61h-294v-128z" />
<glyph unicode="&#xb614;" d="M444 570l9 -60q-123 -25 -274 -25h-48v296h300v-61h-227v-175q132 2 240 25zM235 212v-204h540v-61h-613v265h73zM496 355h367v-61h-809v61h368v130h63v296h299v-61h-227v-174h233v-61h-294v-130z" />
<glyph unicode="&#xb618;" d="M444 615l9 -59q-119 -26 -274 -26h-48v259h300v-59h-227v-141q136 2 240 26zM227 92v-95h558v-58h-629v207h530v86h-533v57h605v-197h-531zM495 426h368v-60h-808v60h367v107h63v256h299v-59h-227v-141h233v-59h-295v-104z" />
<glyph unicode="&#xb625;" d="M445 574l9 -60q-121 -26 -275 -26h-48v292h300v-60h-227v-172q137 2 241 26zM458 -15q109 0 170.5 26.5t61.5 74.5t-61.5 74t-170.5 26t-170.5 -26t-61.5 -74t61.5 -74.5t170.5 -26.5zM458 244q145 0 225.5 -41.5t80.5 -116.5q0 -76 -81 -117.5t-225 -41.5t-224.5 42 t-80.5 117t80.5 116.5t224.5 41.5zM495 376h370v-60h-811v60h367v114h64v290h299v-60h-227v-171h233v-61h-295v-112z" />
<glyph unicode="&#xb62c;" d="M601 451v-61h-243v341h233v-60h-161v-220h171zM319 469l6 -60q-83 -19 -200 -19h-38v341h226v-60h-154v-221q85 2 160 19zM373 351v-170q162 8 251 20l5 -55q-228 -34 -576 -32l-9 62q165 0 256 3v172h73zM884 446v-61h-131v-457h-73v893h73v-375h131z" />
<glyph unicode="&#xb634;" d="M316 600l9 -57q-82 -20 -202 -20h-36v249h218v-58h-146v-134q91 4 157 20zM615 451l5 -52q-220 -35 -568 -35l-7 59q127 0 242 4v100h62v245h229v-58h-157v-134h166v-57h-227v-93q154 7 255 21zM234 96v-99h549v-59h-621v213h513v92h-516v58h588v-205h-513zM748 609h128 v-61h-128v-206h-73v480h73v-213z" />
<glyph unicode="&#xb648;" d="M520 456v-59h-206v333h199v-60h-132v-214h139zM280 473l8 -60q-73 -19 -169 -19h-33v336h189v-60h-122v-216q76 5 127 19zM327 362v-150q118 5 203 16l4 -53q-179 -30 -478 -30l-10 61q97 0 211 3v153h70zM753 821h69v-894h-69v469h-111v-424h-68v829h68v-344h111v364z " />
<glyph unicode="&#xb664;" d="M629 447v-60h-245v344h237v-60h-166v-224h174zM349 466l6 -60q-88 -19 -211 -19h-38v344h229v-60h-157v-224q97 2 171 19zM400 358v-169q160 7 264 22l6 -55q-215 -34 -603 -34l-10 62q176 0 270 3v171h73zM722 821h73v-894h-73v894z" />
<glyph unicode="&#xb668;" d="M789 820v-662h-73v662h73zM336 544l8 -60q-84 -20 -201 -20h-37v292h221v-61h-149v-171q91 4 158 20zM648 360l5 -54q-220 -33 -588 -33l-11 61q176 0 272 3v127h46v292h235v-61h-163v-171h171v-60h-216v-124q158 8 249 20zM277 1h538v-60h-611v259h73v-199z" />
<glyph unicode="&#xb69c;" d="M800 481v-61h-314v350h304v-61h-232v-228h242zM445 505l6 -61q-122 -24 -274 -24h-48v349h303v-61h-230v-227q133 2 243 24zM864 312l1 -61h-371v-324h-73v324h-368v61h811z" />
<glyph unicode="&#xb69d;" d="M790 548v-61h-305v301h299v-60h-225v-180h231zM443 573l8 -60q-117 -26 -272 -26h-47v301h300v-60h-226v-181q133 2 237 26zM863 340h-368v-122h265v-291h-73v230h-543v61h279v122h-368v60h808v-60z" />
<glyph unicode="&#xb6a0;" d="M792 525v-60h-307v313h299v-60h-227v-193h235zM444 551l7 -60q-117 -26 -272 -26h-47v313h300v-60h-228v-193q134 2 240 26zM230 209v-201h543v-61h-616v262h73zM54 370h808v-61h-361v-183h-73v183h-374v61z" />
<glyph unicode="&#xb6a4;" d="M793 578v-59h-308v271h299v-60h-227v-152h236zM448 605l8 -60q-119 -26 -276 -26h-48v271h300v-60h-228v-152q137 2 244 27zM863 383h-368v-94h263v-197h-531v-95h558v-58h-629v207h530v86h-533v57h270v94h-368v60h808v-60z" />
<glyph unicode="&#xb6ab;" d="M792 584v-59h-307v264h298v-59h-226v-146h235zM448 611l8 -60q-119 -26 -276 -26h-48v264h300v-59h-228v-146q138 2 244 27zM208 93v-96q165 0 251 16l8 -57q-90 -16 -280 -16h-48v206h211v86h-213v57h282v-196h-211zM637 -20q39 0 62.5 17.5t23.5 47.5t-23.5 48 t-62.5 18t-62.5 -18t-23.5 -48t23.5 -47.5t62.5 -17.5zM637 163q66 0 107.5 -31.5t41.5 -86.5q0 -53 -41.5 -84.5t-107.5 -31.5t-107.5 31.5t-41.5 84.5q0 55 41.5 86.5t107.5 31.5zM672 327v-81h154v-55h-375v55h150v81h71zM55 459h807v-60h-368v-112h-73v112h-366v60z" />
<glyph unicode="&#xb6ac;" d="M792 553v-61h-307v296h298v-61h-226v-174h235zM447 579l8 -61q-119 -26 -275 -26h-48v296h301v-61h-229v-175q137 2 243 27zM692 0v177h-466v-177h466zM862 347h-367v-111h268v-296h-608v296h268v111h-368v61h807v-61z" />
<glyph unicode="&#xb6b1;" d="M793 551v-61h-308v290h299v-60h-227v-169h236zM448 577l8 -61q-119 -26 -276 -26h-48v290h301v-60h-229v-170q137 2 244 27zM690 87q0 48 -61.5 74.5t-170.5 26.5t-170.5 -26.5t-61.5 -74.5t61.5 -74.5t170.5 -26.5t170.5 26.5t61.5 74.5zM862 350h-367v-105 q127 -5 198 -46.5t71 -111.5q0 -76 -80.5 -117.5t-224.5 -41.5q-145 0 -225.5 41.5t-80.5 117.5q0 70 71 111.5t199 46.5v105h-369v60h808v-60z" />
<glyph unicode="&#xb6d4;" d="M514 504v-60h-204v304h197v-61h-132v-183h139zM282 523l6 -60q-69 -18 -174 -18h-34v303h193v-61h-128v-183q75 2 137 19zM539 381l5 -54q-85 -16 -220 -25v-302h-70v297q-99 -4 -204 -4l-9 61q316 0 498 27zM588 232v570h69v-827h-69v197h-175v60h175zM750 822h69v-895 h-69v895z" />
<glyph unicode="&#xb6f0;" d="M625 497v-60h-241v318h234v-61h-162v-197h169zM347 516l6 -60q-85 -19 -207 -19h-38v318h228v-61h-156v-197q88 2 167 19zM664 348l5 -55q-124 -18 -273 -26v-312h-73v309q-94 -3 -265 -3l-11 62q402 0 617 25zM720 821h73v-894h-73v894z" />
<glyph unicode="&#xb6f4;" d="M794 822v-679h-73v679h73zM628 530v-60h-243v295h231v-60h-159v-175h171zM349 550l7 -61q-87 -19 -202 -19h-37v295h222v-60h-151v-175q87 2 161 20zM342 167v156q-125 -5 -278 -5l-10 61q386 0 606 24l4 -54q-106 -14 -249 -23v-159h-73zM254 8h566v-61h-639v258h73 v-197z" />
<glyph unicode="&#xb6f8;" d="M794 821v-473h-73v473h73zM626 589v-59h-244v254h234v-59h-163v-136h173zM346 608l7 -59q-87 -19 -202 -19h-37v254h222v-59h-151v-136q86 2 161 19zM261 -4h567v-58h-638v215h533v92h-536v57h145v99q-94 -3 -264 -3l-11 60q414 0 605 20l6 -52q-123 -16 -263 -22v-102 h389v-204h-533v-102z" />
<glyph unicode="&#xb700;" d="M626 554v-60h-244v278h234v-60h-162v-158h172zM347 574l6 -61q-85 -19 -202 -19h-37v278h222v-60h-150v-158q87 2 161 20zM722 0v167h-454v-167h454zM403 362v-135h391v-287h-597v287h134v132q-123 -4 -263 -4l-9 60q371 0 602 21l6 -53q-127 -15 -264 -21zM721 821h73 v-542h-73v542z" />
<glyph unicode="&#xb701;" d="M629 573v-60h-247v261h236v-61h-165v-140h176zM349 589l7 -59q-86 -20 -205 -20h-37v264h222v-61h-151v-143q88 2 164 19zM337 243v133q-158 -5 -270 -5l-10 62q372 0 604 21l5 -54q-124 -13 -257 -21v-136h-72zM721 0v110h-451v-110h451zM721 169v103h73v-332h-597v332 h73v-103h451zM721 821h73v-513h-73v513z" />
<glyph unicode="&#xb705;" d="M795 822v-568h-73v568h73zM626 548v-60h-244v279h234v-60h-162v-159h172zM346 568l7 -61q-85 -19 -202 -19h-37v279h222v-60h-150v-159q88 2 160 20zM500 -13q105 0 165.5 26.5t60.5 73.5t-60.5 73.5t-165.5 26.5t-165.5 -26.5t-60.5 -73.5t60.5 -73.5t165.5 -26.5z M403 355v-116q45 6 97 6q141 0 220.5 -41.5t79.5 -116.5t-79.5 -116.5t-220.5 -41.5q-140 0 -219.5 41.5t-79.5 116.5q0 98 130 137v128q-123 -4 -263 -4l-10 61q383 0 604 20l5 -53q-101 -12 -264 -21z" />
<glyph unicode="&#xb728;" d="M799 380v-60h-322v407h312v-61h-239v-286h249zM436 406l7 -61q-111 -25 -268 -25h-47v405h300v-60h-227v-284q136 2 235 25zM54 113h810v-61h-810v61z" />
<glyph unicode="&#xb729;" d="M790 541v-60h-305v305h299v-60h-225v-185h231zM443 567l8 -60q-117 -26 -272 -26h-47v305h300v-60h-226v-185q133 2 237 26zM144 163v61h616v-297h-73v236h-543zM55 388h808v-60h-808v60z" />
<glyph unicode="&#xb72c;" d="M789 520v-60h-304v316h299v-60h-225v-196h230zM443 546l8 -60q-117 -26 -272 -26h-47v316h300v-60h-226v-196q133 2 237 26zM232 211v-203h542v-61h-615v264h73zM54 360h808v-61h-808v61z" />
<glyph unicode="&#xb72f;" d="M789 546v-60h-304v301h299v-60h-225v-181h230zM443 571l8 -59q-112 -26 -272 -26h-47v301h300v-60h-226v-181q132 2 237 25zM227 172v-172h544v-60h-616v292h608v-60h-536zM55 397h807v-61h-807v61z" />
<glyph unicode="&#xb730;" d="M793 575v-60h-308v271h299v-59h-227v-152h236zM448 601l8 -60q-119 -26 -276 -26h-48v271h300v-59h-228v-152q136 2 244 26zM227 92v-95h558v-58h-629v207h530v86h-533v57h605v-197h-531zM55 436h808v-60h-808v60z" />
<glyph unicode="&#xb738;" d="M792 548v-61h-307v297h298v-60h-226v-176h235zM447 573l8 -60q-119 -26 -275 -26h-48v297h301v-60h-229v-177q136 2 243 26zM226 175v-175h466v175h-466zM155 -60v295h608v-295h-608zM55 397h807v-61h-807v61z" />
<glyph unicode="&#xb739;" d="M793 552v-60h-308v295h299v-60h-227v-175h236zM447 578l8 -60q-119 -26 -275 -26h-48v295h301v-60h-229v-175q136 2 243 26zM686 0v118h-454v-118h454zM686 177v105h73v-343h-599v343h72v-105h454zM54 410h809v-61h-809v61z" />
<glyph unicode="&#xb73b;" d="M792 537v-61h-307v303h299v-61h-227v-181h235zM447 563l8 -61q-119 -26 -275 -26h-48v303h301v-61h-229v-182q137 2 243 27zM497 254v-30q0 -88 89 -152t214 -83l-29 -58q-105 18 -189.5 67t-122.5 122q-37 -73 -121.5 -122t-189.5 -67l-28 58q125 19 213.5 83t88.5 152 v30h75zM55 390h808v-61h-808v61z" />
<glyph unicode="&#xb744;" d="M626 439v-61h-246v350h238v-61h-166v-228h174zM345 459l7 -62q-88 -19 -210 -19h-40v350h230v-61h-158v-228q91 2 171 20zM66 143l-9 61q396 0 605 27l6 -54q-227 -36 -602 -34zM719 822h73v-894h-73v894z" />
<glyph unicode="&#xb748;" d="M792 820v-665h-73v665h73zM622 517v-61h-243v296h234v-60h-162v-175h171zM344 537l8 -60q-84 -21 -201 -21h-38v296h223v-60h-151v-176q93 4 159 21zM655 380l4 -54q-223 -34 -595 -34l-11 61q395 0 602 27zM283 8h535v-61h-608v257h73v-196z" />
<glyph unicode="&#xb74c;" d="M791 822v-472h-73v472h73zM628 585v-59h-246v260h235v-60h-163v-141h174zM346 605l7 -60q-87 -19 -204 -19h-38v260h225v-60h-153v-141q90 2 163 20zM658 466l4 -51q-235 -28 -597 -26l-10 59q392 0 603 18zM258 -4h566v-58h-638v216h533v93h-535v57h607v-205h-533v-103z " />
<glyph unicode="&#xb754;" d="M790 821v-542h-73v542h73zM630 549v-61h-247v287h236v-60h-164v-166h175zM351 568l7 -59q-93 -21 -207 -21h-38v287h226v-60h-154v-167q84 2 166 20zM657 423l5 -53q-227 -36 -594 -36l-11 61q388 0 600 28zM719 0v175h-454v-175h454zM193 235h598v-295h-598v295z" />
<glyph unicode="&#xb755;" d="M630 559v-60h-247v279h236v-60h-164v-159h175zM351 578l7 -59q-93 -20 -207 -20h-38v279h226v-60h-154v-159q82 2 166 19zM657 443l5 -53q-227 -36 -594 -36l-11 60q388 0 600 29zM718 0v113h-450v-113h450zM718 172v105h73v-338h-595v338h72v-105h450zM718 820h73v-503 h-73v503z" />
<glyph unicode="&#xb760;" d="M165 668v-446q93 2 181 22l7 -60q-99 -23 -220 -23h-41v568h242v-61h-169zM459 668v-446q126 2 212 23l9 -61q-100 -23 -249 -23h-44v568h251v-61h-179zM723 821h73v-893h-73v893z" />
<glyph unicode="&#xb764;" d="M796 821v-648h-73v648h73zM662 415l6 -59q-97 -21 -242 -21h-44v404h246v-60h-174v-284q124 2 208 20zM339 416l9 -60q-96 -21 -219 -21h-40v404h242v-60h-170v-284q93 2 178 21zM294 8h536v-61h-609v283h73v-222z" />
<glyph unicode="&#xb768;" d="M797 822v-452h-73v452h73zM663 497l8 -59q-84 -18 -245 -18h-44v345h249v-59h-177v-227q129 1 209 18zM340 501l8 -60q-95 -21 -219 -21h-40v345h242v-59h-170v-227q94 2 179 22zM276 -1h554v-59h-626v225h521v99h-523v59h595v-215h-521v-109z" />
<glyph unicode="&#xb770;" d="M662 464l7 -61q-97 -21 -243 -21h-43v371h245v-60h-173v-250q123 2 207 21zM339 463l8 -60q-99 -22 -218 -22h-40v372h242v-60h-170v-251q95 4 178 21zM279 203v-203h446v203h-446zM208 -60v323h589v-323h-589zM724 821h73v-505h-73v505z" />
<glyph unicode="&#xb771;" d="M662 475l7 -60q-97 -21 -243 -21h-43v364h245v-60h-174v-244q119 2 208 21zM348 474l8 -61q-103 -21 -227 -21h-40v366h242v-60h-170v-246q98 2 187 22zM724 0v124h-443v-124h443zM724 183v122h72v-366h-587v366h72v-122h443zM724 821h73v-472h-73v472z" />
<glyph unicode="&#xb773;" d="M797 821v-603h-73v603h73zM662 439l7 -60q-98 -20 -243 -20h-43v394h245v-61h-173v-273q123 2 207 20zM339 437l9 -60q-96 -21 -219 -21h-40v397h242v-61h-170v-276q93 2 178 21zM535 281v-44q0 -92 91 -160t215 -88l-29 -58q-105 19 -191 70.5t-124 127.5 q-38 -75 -124 -127t-191 -71l-29 58q123 20 215 89t92 159v44h75z" />
<glyph unicode="&#xb775;" d="M797 822v-542h-73v542h73zM662 444l7 -61q-98 -20 -243 -20h-43v383h245v-60h-175v-262q125 2 209 20zM339 441l9 -61q-99 -21 -219 -21h-40v387h242v-60h-172v-266q104 4 180 21zM503 -14q105 0 165.5 29.5t60.5 81.5t-60.5 81.5t-165.5 29.5q-104 0 -164.5 -29.5 t-60.5 -81.5t60.5 -81.5t164.5 -29.5zM503 266q140 0 219 -45t79 -124q0 -80 -79.5 -125t-218.5 -45t-218.5 45.5t-79.5 124.5t79.5 124t218.5 45z" />
<glyph unicode="&#xb77c;" d="M162 422v-217q257 0 424 33l6 -62q-177 -32 -431 -32h-70v339h329v194h-332v61h403v-316h-329zM889 463v-61h-150v-475h-73v896h73v-360h150z" />
<glyph unicode="&#xb77d;" d="M583 418l7 -61q-174 -29 -426 -29h-70v254h328v126h-330v61h402v-245h-328v-135q247 0 417 29zM168 169v61h578v-303h-73v242h-505zM881 590v-61h-135v-251h-73v543h73v-231h135z" />
<glyph unicode="&#xb780;" d="M583 394l7 -61q-180 -30 -426 -30h-70v265h328v134h-330v60h402v-252h-328v-146q241 0 417 30zM273 213v-205h515v-61h-588v266h73zM746 544h135v-61h-135v-321h-73v659h73v-277z" />
<glyph unicode="&#xb784;" d="M583 474l7 -59q-177 -28 -426 -28h-70v230h328v104h-330v58h402v-217h-328v-116q245 0 417 28zM259 101v-104h523v-59h-594v219h487v94h-490v58h561v-208h-487zM746 621h135v-61h-135v-208h-73v469h73v-200z" />
<glyph unicode="&#xb78c;" d="M583 427l7 -61q-180 -30 -426 -30h-70v253h328v123h-330v61h402v-242h-328v-134q241 0 417 30zM257 183v-183h418v183h-418zM186 -60v303h560v-303h-560zM881 589v-61h-135v-241h-73v534h73v-232h135z" />
<glyph unicode="&#xb78d;" d="M583 442l7 -62q-174 -29 -426 -29h-70v249h328v116h-330v60h402v-234h-328v-130q248 0 417 30zM674 0v114h-414v-114h414zM674 173v114h72v-348h-559v348h73v-114h414zM881 603v-62h-135v-213h-73v492h73v-217h135z" />
<glyph unicode="&#xb78f;" d="M94 573h328v130h-330v61h402v-248h-328v-139q241 0 417 30l7 -61q-180 -30 -426 -30h-70v257zM516 263v-27q0 -92 89 -160t212 -87l-29 -58q-103 19 -187 69.5t-122 125.5q-38 -75 -122 -125.5t-187 -69.5l-30 58q124 19 213.5 87t89.5 160v27h73zM746 574h135v-62h-135 v-291h-73v600h73v-247z" />
<glyph unicode="&#xb790;" d="M422 594v121h-330v61h402v-240h-328v-129q262 0 417 30l7 -62q-160 -29 -426 -29h-70v248h328zM675 262v-43q0 -71 49.5 -134t132.5 -92l-37 -55q-65 24 -111.5 69.5t-69.5 104.5q-48 -130 -165 -182q-123 49 -167 178q-24 -56 -70.5 -101.5t-107.5 -68.5l-37 55 q82 31 132 95t50 131v43h70v-43q0 -63 33.5 -122.5t95.5 -94.5q62 38 96.5 99.5t34.5 117.5v43h71zM746 598h135v-61h-135v-240h-73v524h73v-223z" />
<glyph unicode="&#xb791;" d="M583 425l7 -61q-180 -30 -426 -30h-70v251h328v120h-330v61h402v-239h-328v-132q241 0 417 30zM462 -14q104 0 162.5 27.5t58.5 76.5t-58.5 76t-162.5 27q-103 0 -162 -27.5t-59 -75.5q0 -49 59.5 -76.5t161.5 -27.5zM462 252q137 0 215 -43t78 -119t-78 -119t-215 -43 t-214.5 43t-77.5 119t77.5 119t214.5 43zM746 595h135v-61h-135v-253h-73v541h73v-227z" />
<glyph unicode="&#xb792;" d="M94 592h330v120h-332v61h403v-239h-329v-127q248 0 417 30l7 -62q-174 -29 -426 -29h-70v246zM762 189h-254q7 -71 93 -129t196 -74l-28 -56q-99 17 -180.5 63.5t-117.5 112.5q-36 -66 -117.5 -112.5t-181.5 -63.5l-27 56q111 17 196 74t92 129h-254v60h583v-60zM746 596 h135v-61h-135v-235h-73v521h73v-225z" />
<glyph unicode="&#xb796;" d="M583 434l7 -61q-174 -29 -426 -29h-70v247h328v121h-330v61h402v-240h-328v-128q247 0 417 29zM377 195v-196h196v196h-196zM645 195v-196h137v-59h-610v59h133v196h-126v59h592v-59h-126zM746 600h135v-61h-135v-232h-73v514h73v-221z" />
<glyph unicode="&#xb797;" d="M94 621h327v103h-329v59h402v-217h-326v-115q243 0 415 28l7 -59q-177 -28 -426 -28h-70v229zM475 -19q178 0 178 69q0 33 -46.5 51t-131.5 18t-131 -18t-46 -51q0 -69 177 -69zM475 171q119 0 183.5 -31t64.5 -90t-64.5 -90.5t-183.5 -31.5t-183 31t-64 91q0 59 64 90 t183 31zM512 362v-89h274v-57h-622v57h275v89h73zM746 615h134v-61h-134v-227h-73v494h73v-206z" />
<glyph unicode="&#xb798;" d="M155 414v-208q173 0 321 25l6 -60q-148 -26 -339 -26h-58v330h261v187h-264v61h335v-309h-262zM741 822h70v-894h-70v477h-134v-431h-69v828h69v-336h134v356z" />
<glyph unicode="&#xb799;" d="M485 397l8 -60q-141 -28 -339 -28h-58v257h263v129h-265v60h336v-246h-264v-140q182 0 319 28zM209 156v60h598v-289h-73v229h-525zM737 821h70v-559h-70v258h-130v-250h-69v534h69v-223h130v240z" />
<glyph unicode="&#xb79c;" d="M607 491v-308h-69v622h69v-253h130v270h70v-667h-70v336h-130zM485 378l8 -60q-148 -28 -339 -28h-58v260h263v134h-265v60h336v-251h-264v-142q186 0 319 27zM300 8h534v-61h-607v268h73v-207z" />
<glyph unicode="&#xb7a0;" d="M607 556v-202h-69v452h69v-190h130v206h70v-478h-70v212h-130zM485 466l8 -59q-141 -26 -339 -26h-58v229h263v102h-265v60h336v-218h-264v-114q188 0 319 26zM294 -3h547v-59h-619v215h513v91h-515v58h587v-204h-513v-101z" />
<glyph unicode="&#xb7a8;" d="M485 415l8 -60q-142 -27 -339 -27h-58v251h263v123h-265v60h336v-239h-264v-135q180 0 319 27zM294 183v-183h442v183h-442zM223 -60v302h584v-302h-584zM737 822h70v-535h-70v243h-130v-231h-69v505h69v-213h130v231z" />
<glyph unicode="&#xb7a9;" d="M485 444l8 -60q-141 -28 -339 -28h-58v241h263v111h-265v60h336v-227h-264v-125q182 0 319 28zM735 0v118h-438v-118h438zM735 177v106h72v-344h-583v344h73v-106h438zM737 822h70v-496h-70v220h-130v-211h-69v470h69v-198h130v215z" />
<glyph unicode="&#xb7ab;" d="M607 524v-235h-69v516h69v-221h130v238h70v-611h-70v313h-130zM485 392l8 -60q-141 -28 -339 -28h-58v256h263v130h-265v60h336v-247h-264v-139q182 0 319 28zM549 252v-24q0 -86 92.5 -153.5t213.5 -86.5l-30 -57q-102 18 -189 69.5t-125 124.5q-39 -73 -125.5 -124.5 t-187.5 -69.5l-30 57q121 19 213.5 86.5t92.5 153.5v24h75z" />
<glyph unicode="&#xb7ac;" d="M607 527v-232h-69v509h69v-216h130v232h70v-531h-70v238h-130zM96 578h263v121h-265v59h336v-237h-264v-132q180 0 319 27l8 -60q-142 -27 -339 -27h-58v249zM695 256v-41q0 -70 49.5 -132.5t132.5 -90.5l-35 -54q-135 49 -183 170q-47 -127 -165 -178q-124 49 -166 175 q-25 -55 -71.5 -99.5t-108.5 -68.5l-37 55q82 29 132.5 92.5t50.5 129.5v42h70v-41q0 -63 33.5 -120.5t95.5 -93.5q61 37 96 98t35 116v41h71z" />
<glyph unicode="&#xb7ad;" d="M607 519v-218h-69v503h69v-224h130v241h70v-552h-70v250h-130zM485 410l8 -60q-148 -28 -339 -28h-58v251h263v120h-265v60h336v-237h-264v-133q186 0 319 27zM514 -13q104 0 164.5 27.5t60.5 75.5t-60.5 75t-164.5 27q-105 0 -165 -27t-60 -75q0 -49 60 -76t165 -27z M514 250q139 0 218 -42.5t79 -117.5q0 -76 -79 -118.5t-218 -42.5t-218 42.5t-79 118.5q0 75 79.5 117.5t217.5 42.5z" />
<glyph unicode="&#xb7b4;" d="M162 422v-217q257 0 424 33l6 -62q-177 -32 -431 -32h-70v339h329v194h-332v61h403v-316h-329zM884 527h-145v-202h145v-61h-145v-337h-73v896h73v-235h145v-61z" />
<glyph unicode="&#xb7b5;" d="M583 417l7 -60q-174 -29 -426 -29h-70v254h328v126h-330v61h402v-245h-328v-135q245 0 417 28zM168 169v61h578v-303h-73v242h-505zM881 614h-135v-126h135v-61h-135v-149h-73v543h73v-146h135v-61z" />
<glyph unicode="&#xb7b8;" d="M583 393l7 -61q-180 -30 -426 -30h-70v266h328v134h-330v60h402v-252h-328v-147q241 0 417 30zM273 213v-205h515v-61h-588v266h73zM881 590h-135v-150h135v-61h-135v-217h-73v659h73v-170h135v-61z" />
<glyph unicode="&#xb7c7;" d="M94 573h328v130h-330v61h402v-248h-328v-139q241 0 417 30l7 -61q-180 -30 -426 -30h-70v257zM516 265v-27q0 -93 88.5 -160.5t212.5 -88.5l-29 -57q-104 20 -187.5 70.5t-121.5 125.5q-38 -75 -121.5 -125.5t-187.5 -70.5l-30 57q124 21 213.5 88.5t89.5 160.5v27h73z M881 598h-135v-128h135v-61h-135v-188h-73v600h73v-162h135v-61z" />
<glyph unicode="&#xb7c9;" d="M583 424l7 -60q-180 -30 -426 -30h-70v251h328v120h-330v61h402v-239h-328v-132q239 0 417 29zM462 -14q104 0 162.5 27.5t58.5 76.5t-58.5 76t-162.5 27q-103 0 -162 -27.5t-59 -75.5q0 -49 59.5 -76.5t161.5 -27.5zM462 252q137 0 215 -43t78 -119t-78 -119t-215 -43 t-214.5 43t-77.5 119t77.5 119t214.5 43zM881 617h-135v-127h135v-61h-135v-149h-73v542h73v-144h135v-61z" />
<glyph unicode="&#xb7ec;" d="M160 428v-224q241 0 400 29l7 -60q-170 -30 -412 -30h-67v345h325v189h-327v61h399v-310h-325zM715 823h73v-896h-73v486h-176v61h176v349z" />
<glyph unicode="&#xb7ed;" d="M560 412l6 -61q-164 -27 -407 -27h-67v257h322v126h-324v61h395v-245h-321v-138q236 0 396 27zM192 162v61h596v-297h-73v236h-523zM715 821h73v-546h-73v270h-171v61h171v215z" />
<glyph unicode="&#xb7f0;" d="M715 165v357h-172v63h172v235h73v-655h-73zM559 374l7 -60q-149 -26 -408 -26h-66v271h320v139h-323v60h395v-258h-320v-151q251 0 395 25zM287 8h529v-61h-602v266h73v-205z" />
<glyph unicode="&#xb7f4;" d="M715 351v225h-172v60h172v185h73v-470h-73zM561 471l6 -60q-168 -25 -408 -25h-67v228h321v106h-323v59h395v-220h-320v-115q236 0 396 27zM284 -2h540v-60h-612v214h504v96h-506v58h578v-208h-504v-100z" />
<glyph unicode="&#xb7fc;" d="M560 421l6 -61q-165 -26 -407 -26h-67v255h322v127h-324v60h395v-245h-321v-136q235 0 396 26zM278 186v-186h439v186h-439zM206 -60v305h582v-305h-582zM715 821h73v-525h-73v262h-171v60h171v203z" />
<glyph unicode="&#xb7fd;" d="M560 442l6 -61q-165 -26 -407 -26h-67v248h322v120h-324v61h395v-238h-321v-130q235 0 396 26zM716 0v115h-435v-115h435zM716 174v112h72v-347h-579v347h72v-112h435zM715 820h73v-491h-73v243h-171v61h171v187z" />
<glyph unicode="&#xb7ff;" d="M715 205v344h-171v60h171v212h73v-616h-73zM92 573h322v132h-324v61h395v-251h-321v-140q233 0 395 29l7 -60q-167 -30 -407 -30h-67v259zM538 265v-31q0 -92 91 -159.5t215 -86.5l-28 -57q-106 19 -191 69.5t-124 125.5q-38 -75 -123 -125.5t-191 -69.5l-28 57 q124 19 215 86.5t91 159.5v31h73z" />
<glyph unicode="&#xb800;" d="M715 292v269h-171v61h171v198h73v-528h-73zM92 592h322v125h-324v61h395v-243h-321v-135q235 0 396 26l6 -61q-165 -26 -407 -26h-67v253zM686 262v-43q0 -71 49.5 -134.5t133.5 -92.5l-37 -53q-65 23 -112 68t-70 103q-21 -59 -63.5 -106.5t-102.5 -72.5 q-62 24 -104 70.5t-63 106.5q-25 -57 -71 -101.5t-108 -67.5l-36 53q81 31 131 96t50 131v43h70v-43q0 -64 33.5 -122.5t95.5 -94.5q63 39 98 100t35 117v43h71z" />
<glyph unicode="&#xb801;" d="M715 267v283h-171v61h171v210h73v-554h-73zM560 412l6 -61q-172 -27 -407 -27h-67v258h322v128h-324v60h395v-246h-321v-139q229 0 396 27zM496 -14q104 0 163.5 28t59.5 79q0 50 -59.5 78t-163.5 28q-105 0 -164.5 -28t-59.5 -78q0 -51 59.5 -79t164.5 -28zM496 257 q139 0 217.5 -43t78.5 -121t-79 -121.5t-217 -43.5q-139 0 -217.5 43.5t-78.5 121.5t78.5 121t217.5 43z" />
<glyph unicode="&#xb807;" d="M715 328v254h-172v61h172v178h73v-493h-73zM560 477l6 -59q-174 -29 -408 -29h-66v227h320v106h-323v58h395v-219h-320v-113q234 0 396 29zM498 -18q85 0 131.5 19t46.5 54q0 34 -46.5 53t-131.5 19t-131.5 -19t-46.5 -53q0 -35 46.5 -54t131.5 -19zM498 180 q119 0 183.5 -32t64.5 -93t-64.5 -93.5t-183.5 -32.5t-183.5 32.5t-64.5 93.5t64.5 93t183.5 32zM535 277h274v-58h-623v58h276v88h73v-88z" />
<glyph unicode="&#xb808;" d="M155 416v-206q174 0 324 25l7 -60q-158 -26 -343 -26h-58v327h247v185h-250v61h320v-306h-247zM561 498v302h69v-825h-69v462h-116v61h116zM741 822h70v-895h-70v895z" />
<glyph unicode="&#xb809;" d="M562 270v258h-115v61h115v215h69v-534h-69zM482 394l8 -59q-139 -28 -337 -28h-57v258h245v128h-247v60h317v-245h-245v-141q178 0 316 27zM212 158v61h595v-291h-73v230h-522zM737 821h70v-557h-70v557z" />
<glyph unicode="&#xb80c;" d="M807 822v-674h-70v674h70zM562 172v337h-115v61h115v236h69v-634h-69zM482 376l8 -60q-140 -27 -337 -27h-57v264h244v136h-246v59h317v-252h-244v-147q179 0 315 27zM300 8h534v-61h-607v268h73v-207z" />
<glyph unicode="&#xb810;" d="M807 822v-474h-70v474h70zM562 355v221h-115v61h115v170h69v-452h-69zM481 463l8 -59q-141 -26 -336 -26h-57v231h245v106h-247v59h317v-221h-245v-116q178 0 315 26zM294 -3h547v-59h-619v215h513v95h-515v57h587v-208h-513v-100z" />
</font>
</defs>
</svg>
