<?xml version="1.0" encoding="utf-8"?>
<!-- Generator: Adobe Illustrator 24.0.2, SVG Export Plug-In . SVG Version: 6.00 Build 0)  -->
<svg version="1.1" xmlns="http://www.w3.org/2000/svg" xmlns:xlink="http://www.w3.org/1999/xlink" x="0px" y="0px"
	 viewBox="0 0 135.202 96" style="enable-background:new 0 0 135.202 96;" xml:space="preserve">
<style type="text/css">
	.st0{display:none;}
	
		.st1{display:inline;fill-rule:evenodd;clip-rule:evenodd;fill:#FFFFFF;stroke:#474747;stroke-width:2;stroke-linecap:round;stroke-linejoin:round;stroke-miterlimit:10;}
	
		.st2{display:inline;fill-rule:evenodd;clip-rule:evenodd;fill:#FFFFFF;stroke:#ACACAC;stroke-width:2;stroke-linecap:round;stroke-linejoin:round;stroke-miterlimit:10;}
	.st3{display:inline;}
	.st4{enable-background:new    ;}
	.st5{fill:#FFFFFF;stroke:#474747;stroke-width:2;stroke-linecap:round;stroke-linejoin:round;stroke-miterlimit:10;}
	.st6{fill:none;stroke:#474747;stroke-width:2;stroke-linecap:round;stroke-linejoin:round;stroke-miterlimit:10;}
	.st7{fill:none;stroke:#ACACAC;stroke-width:2;stroke-linecap:round;stroke-linejoin:round;stroke-miterlimit:10;}
	.st8{fill:none;stroke:#474748;stroke-width:2;stroke-miterlimit:10;}
	.st9{fill:#FFFFFF;}
</style>
<g id="Layer_1" class="st0">
	<path class="st1" d="M14.902,15.321c-0.709-0.657-1.699-1.222-3.078-1.557l0.014,0.017l-0.899-0.988c0,0-0.003,0.002-0.005,0.003
		c-0.14-0.195-0.21-0.41-0.279-0.619l0,0c0.178-0.141,0.342-0.288,0.487-0.43c0.526-0.515,1.279-1.46,1.361-2.254
		c0.411-0.426,0.8-0.944,1.004-1.498c0.167-0.452,0.223-0.982-0.058-1.403c-0.105-0.157-0.239-0.274-0.393-0.359
		C13.248,5.022,13.529,1,8.837,1C3.313,1,4.442,4.56,4.442,5.461c0,0.323,0.017,0.611,0.138,0.792
		C4.441,6.336,4.318,6.447,4.221,6.591C3.94,7.012,3.996,7.543,4.163,7.994c0.205,0.554,0.593,1.072,1.005,1.498
		c0.083,0.794,0.835,1.739,1.36,2.254c0.156,0.153,0.334,0.311,0.526,0.46c-0.004-0.002-0.008-0.006-0.012-0.008
		c-0.079,0.208-0.175,0.411-0.309,0.594c0.002,0.001,0.006,0.005,0.013,0.009c-0.009-0.006-0.014-0.009-0.014-0.009l-0.899,0.988
		l0.014-0.017c-1.379,0.335-2.368,0.9-3.077,1.557c-2.069,1.915-1.753,4.606-1.753,4.606h15.637
		C16.654,19.928,16.971,17.237,14.902,15.321"/>
	<path class="st1" d="M36.116,15.321c-0.709-0.657-1.699-1.222-3.078-1.557l0.014,0.017l-0.899-0.988c0,0-0.003,0.002-0.005,0.003
		c-0.14-0.195-0.21-0.41-0.279-0.619l0,0c0.178-0.141,0.342-0.288,0.487-0.43c0.526-0.515,1.279-1.46,1.361-2.254
		c0.411-0.426,0.8-0.944,1.004-1.498c0.167-0.452,0.223-0.982-0.058-1.403c-0.105-0.157-0.239-0.274-0.393-0.359
		C34.462,5.022,34.743,1,30.051,1c-5.524,0-4.395,3.56-4.395,4.461c0,0.323,0.017,0.611,0.138,0.792
		c-0.139,0.083-0.262,0.194-0.359,0.339c-0.281,0.421-0.225,0.951-0.058,1.403c0.205,0.554,0.593,1.072,1.005,1.498
		c0.083,0.794,0.835,1.739,1.36,2.254c0.156,0.153,0.334,0.311,0.526,0.46c-0.004-0.002-0.008-0.006-0.012-0.008
		c-0.079,0.208-0.175,0.411-0.309,0.594c0.002,0.001,0.006,0.005,0.013,0.009c-0.009-0.006-0.014-0.009-0.014-0.009l-0.899,0.988
		l0.014-0.017c-1.379,0.335-2.368,0.9-3.077,1.557c-2.069,1.915-1.753,4.606-1.753,4.606h15.637
		C37.868,19.928,38.184,17.237,36.116,15.321"/>
	<path class="st1" d="M14.902,62.567c-0.709-0.657-1.699-1.222-3.078-1.557l0.014,0.017l-0.899-0.988c0,0-0.003,0.002-0.005,0.003
		c-0.14-0.195-0.21-0.41-0.279-0.619l0,0c0.178-0.141,0.342-0.288,0.487-0.43c0.526-0.515,1.279-1.46,1.361-2.254
		c0.411-0.426,0.8-0.944,1.004-1.498c0.167-0.452,0.223-0.982-0.058-1.403c-0.105-0.157-0.239-0.274-0.393-0.359
		c0.19-1.211,0.471-5.233-4.221-5.233c-5.524,0-4.395,3.56-4.395,4.461c0,0.323,0.017,0.611,0.138,0.792
		c-0.139,0.083-0.262,0.194-0.359,0.339c-0.281,0.421-0.225,0.951-0.058,1.403c0.205,0.554,0.593,1.072,1.005,1.498
		c0.083,0.794,0.835,1.739,1.36,2.254c0.156,0.153,0.334,0.311,0.526,0.46c-0.004-0.002-0.008-0.006-0.012-0.008
		c-0.079,0.208-0.175,0.411-0.309,0.594c0.002,0.001,0.006,0.005,0.013,0.009c-0.009-0.006-0.014-0.009-0.014-0.009l-0.899,0.988
		l0.014-0.017c-1.379,0.335-2.368,0.9-3.077,1.557c-2.069,1.915-1.753,4.606-1.753,4.606h15.637
		C16.654,67.174,16.971,64.483,14.902,62.567"/>
	<path class="st1" d="M36.116,62.567c-0.709-0.657-1.699-1.222-3.078-1.557l0.014,0.017l-0.899-0.988c0,0-0.003,0.002-0.005,0.003
		c-0.14-0.195-0.21-0.41-0.279-0.619l0,0c0.178-0.141,0.342-0.288,0.487-0.43c0.526-0.515,1.279-1.46,1.361-2.254
		c0.411-0.426,0.8-0.944,1.004-1.498c0.167-0.452,0.223-0.982-0.058-1.403c-0.105-0.157-0.239-0.274-0.393-0.359
		c0.19-1.211,0.471-5.233-4.221-5.233c-5.524,0-4.395,3.56-4.395,4.461c0,0.323,0.017,0.611,0.138,0.792
		c-0.139,0.083-0.262,0.194-0.359,0.339c-0.281,0.421-0.225,0.951-0.058,1.403c0.205,0.554,0.593,1.072,1.005,1.498
		c0.083,0.794,0.835,1.739,1.36,2.254c0.156,0.153,0.334,0.311,0.526,0.46c-0.004-0.002-0.008-0.006-0.012-0.008
		c-0.079,0.208-0.175,0.411-0.309,0.594c0.002,0.001,0.006,0.005,0.013,0.009c-0.009-0.006-0.014-0.009-0.014-0.009l-0.899,0.988
		l0.014-0.017c-1.379,0.335-2.368,0.9-3.077,1.557c-2.069,1.915-1.753,4.606-1.753,4.606h15.637
		C37.868,67.174,38.184,64.483,36.116,62.567"/>
	<path class="st1" d="M57.329,15.321c-0.709-0.657-1.699-1.222-3.078-1.557l0.014,0.017l-0.899-0.988c0,0-0.003,0.002-0.005,0.003
		c-0.14-0.195-0.21-0.41-0.279-0.619l0,0c0.178-0.141,0.342-0.288,0.487-0.43c0.526-0.515,1.279-1.46,1.361-2.254
		c0.411-0.426,0.8-0.944,1.004-1.498c0.167-0.452,0.223-0.982-0.058-1.403c-0.105-0.157-0.239-0.274-0.393-0.359
		C55.675,5.022,55.956,1,51.264,1C45.74,1,46.87,4.56,46.87,5.461c0,0.323,0.017,0.611,0.138,0.792
		c-0.139,0.083-0.262,0.194-0.359,0.339c-0.281,0.421-0.225,0.951-0.058,1.403c0.205,0.554,0.593,1.072,1.005,1.498
		c0.083,0.794,0.835,1.739,1.36,2.254c0.156,0.153,0.334,0.311,0.526,0.46c-0.004-0.002-0.008-0.006-0.012-0.008
		c-0.079,0.208-0.175,0.411-0.309,0.594c0.002,0.001,0.006,0.005,0.013,0.009c-0.009-0.006-0.014-0.009-0.014-0.009l-0.899,0.988
		l0.014-0.017c-1.379,0.335-2.368,0.9-3.077,1.557c-2.069,1.915-1.753,4.606-1.753,4.606h15.637
		C59.082,19.928,59.398,17.237,57.329,15.321"/>
	<path class="st1" d="M99.756,15.321c-0.709-0.657-1.699-1.222-3.078-1.557l0.014,0.017l-0.899-0.988c0,0-0.003,0.002-0.005,0.003
		c-0.14-0.195-0.21-0.41-0.279-0.619l0,0c0.178-0.141,0.342-0.288,0.487-0.43c0.526-0.515,1.279-1.46,1.361-2.254
		c0.411-0.426,0.8-0.944,1.004-1.498c0.167-0.452,0.223-0.982-0.058-1.403c-0.105-0.157-0.239-0.274-0.393-0.359
		C98.102,5.022,98.383,1,93.691,1c-5.524,0-4.395,3.56-4.395,4.461c0,0.323,0.017,0.611,0.138,0.792
		c-0.139,0.083-0.262,0.194-0.359,0.339c-0.281,0.421-0.225,0.951-0.058,1.403c0.205,0.554,0.593,1.072,1.005,1.498
		c0.083,0.794,0.835,1.739,1.36,2.254c0.156,0.153,0.334,0.311,0.526,0.46c-0.004-0.002-0.008-0.006-0.012-0.008
		c-0.079,0.208-0.175,0.411-0.309,0.594c0.002,0.001,0.006,0.005,0.013,0.009c-0.009-0.006-0.014-0.009-0.014-0.009l-0.899,0.988
		l0.014-0.017c-1.379,0.335-2.368,0.9-3.077,1.557c-2.069,1.915-1.753,4.606-1.753,4.606h15.637
		C101.509,19.928,101.825,17.237,99.756,15.321"/>
	<path class="st1" d="M120.97,15.321c-0.709-0.657-1.699-1.222-3.078-1.557l0.014,0.017l-0.899-0.988c0,0-0.003,0.002-0.005,0.003
		c-0.14-0.195-0.21-0.41-0.279-0.619l0,0c0.178-0.141,0.342-0.288,0.487-0.43c0.526-0.515,1.279-1.46,1.361-2.254
		c0.411-0.426,0.8-0.944,1.004-1.498c0.167-0.452,0.223-0.982-0.058-1.403c-0.105-0.157-0.239-0.274-0.393-0.359
		C119.316,5.022,119.597,1,114.905,1c-5.524,0-4.395,3.56-4.395,4.461c0,0.323,0.017,0.611,0.138,0.792
		c-0.139,0.083-0.262,0.194-0.359,0.339c-0.281,0.421-0.225,0.951-0.058,1.403c0.205,0.554,0.593,1.072,1.005,1.498
		c0.083,0.794,0.835,1.739,1.36,2.254c0.156,0.153,0.334,0.311,0.526,0.46c-0.004-0.002-0.008-0.006-0.012-0.008
		c-0.079,0.208-0.175,0.411-0.309,0.594c0.002,0.001,0.006,0.005,0.013,0.009c-0.009-0.006-0.014-0.009-0.014-0.009l-0.899,0.988
		l0.014-0.017c-1.379,0.335-2.368,0.9-3.077,1.557c-2.069,1.915-1.753,4.606-1.753,4.606h15.637
		C122.722,19.928,123.039,17.237,120.97,15.321"/>
	<path class="st1" d="M142.184,15.321c-0.709-0.657-1.699-1.222-3.078-1.557l0.014,0.017l-0.899-0.988c0,0-0.003,0.002-0.005,0.003
		c-0.14-0.195-0.21-0.41-0.279-0.619l0,0c0.178-0.141,0.342-0.288,0.487-0.43c0.526-0.515,1.279-1.46,1.361-2.254
		c0.411-0.426,0.8-0.944,1.004-1.498c0.167-0.452,0.223-0.982-0.058-1.403c-0.105-0.157-0.239-0.274-0.393-0.359
		C140.53,5.022,140.81,1,136.118,1c-5.524,0-4.395,3.56-4.395,4.461c0,0.323,0.017,0.611,0.138,0.792
		c-0.139,0.083-0.262,0.194-0.359,0.339c-0.281,0.421-0.225,0.951-0.058,1.403c0.205,0.554,0.593,1.072,1.005,1.498
		c0.083,0.794,0.835,1.739,1.36,2.254c0.156,0.153,0.334,0.311,0.526,0.46c-0.004-0.002-0.008-0.006-0.012-0.008
		c-0.079,0.208-0.175,0.411-0.309,0.594c0.002,0.001,0.006,0.005,0.013,0.009c-0.009-0.006-0.014-0.009-0.014-0.009l-0.899,0.988
		l0.014-0.017c-1.379,0.335-2.368,0.9-3.077,1.557c-2.069,1.915-1.753,4.606-1.753,4.606h15.637
		C143.936,19.928,144.252,17.237,142.184,15.321"/>
	<path class="st1" d="M36.116,38.944c-0.709-0.657-1.699-1.222-3.078-1.557l0.014,0.017l-0.899-0.988c0,0-0.003,0.002-0.005,0.003
		c-0.14-0.195-0.21-0.41-0.279-0.619l0,0c0.178-0.141,0.342-0.288,0.487-0.43c0.526-0.515,1.279-1.46,1.361-2.254
		c0.411-0.426,0.8-0.944,1.004-1.498c0.167-0.452,0.223-0.982-0.058-1.403c-0.105-0.157-0.239-0.274-0.393-0.359
		c0.19-1.211,0.471-5.233-4.221-5.233c-5.524,0-4.395,3.56-4.395,4.461c0,0.323,0.017,0.611,0.138,0.792
		c-0.139,0.083-0.262,0.194-0.359,0.339c-0.281,0.421-0.225,0.951-0.058,1.403c0.205,0.554,0.593,1.072,1.005,1.498
		c0.083,0.794,0.835,1.739,1.36,2.254c0.156,0.153,0.334,0.311,0.526,0.46c-0.004-0.002-0.008-0.006-0.012-0.008
		c-0.079,0.208-0.175,0.411-0.309,0.594c0.002,0.001,0.006,0.005,0.013,0.009c-0.009-0.006-0.014-0.009-0.014-0.009l-0.899,0.988
		l0.014-0.017c-1.379,0.335-2.368,0.9-3.077,1.557c-2.069,1.915-1.753,4.606-1.753,4.606h15.637
		C37.868,43.551,38.184,40.86,36.116,38.944"/>
	<path class="st1" d="M57.329,38.944c-0.709-0.657-1.699-1.222-3.078-1.557l0.014,0.017l-0.899-0.988c0,0-0.003,0.002-0.005,0.003
		c-0.14-0.195-0.21-0.41-0.279-0.619l0,0c0.178-0.141,0.342-0.288,0.487-0.43c0.526-0.515,1.279-1.46,1.361-2.254
		c0.411-0.426,0.8-0.944,1.004-1.498c0.167-0.452,0.223-0.982-0.058-1.403c-0.105-0.157-0.239-0.274-0.393-0.359
		c0.19-1.211,0.471-5.233-4.221-5.233c-5.524,0-4.395,3.56-4.395,4.461c0,0.323,0.017,0.611,0.138,0.792
		c-0.139,0.083-0.262,0.194-0.359,0.339c-0.281,0.421-0.225,0.951-0.058,1.403c0.205,0.554,0.593,1.072,1.005,1.498
		c0.083,0.794,0.835,1.739,1.36,2.254c0.156,0.153,0.334,0.311,0.526,0.46c-0.004-0.002-0.008-0.006-0.012-0.008
		c-0.079,0.208-0.175,0.411-0.309,0.594c0.002,0.001,0.006,0.005,0.013,0.009c-0.009-0.006-0.014-0.009-0.014-0.009l-0.899,0.988
		l0.014-0.017c-1.379,0.335-2.368,0.9-3.077,1.557c-2.069,1.915-1.753,4.606-1.753,4.606h15.637
		C59.082,43.551,59.398,40.86,57.329,38.944"/>
	<path class="st1" d="M78.543,38.944c-0.709-0.657-1.699-1.222-3.078-1.557l0.014,0.017l-0.899-0.988c0,0-0.003,0.002-0.005,0.003
		c-0.14-0.195-0.21-0.41-0.279-0.619l0,0c0.178-0.141,0.342-0.288,0.487-0.43c0.526-0.515,1.279-1.46,1.361-2.254
		c0.411-0.426,0.8-0.944,1.004-1.498c0.167-0.452,0.223-0.982-0.058-1.403c-0.105-0.157-0.239-0.274-0.393-0.359
		c0.19-1.211,0.471-5.233-4.221-5.233c-5.524,0-4.395,3.56-4.395,4.461c0,0.323,0.017,0.611,0.138,0.792
		c-0.139,0.083-0.262,0.194-0.359,0.339c-0.281,0.421-0.225,0.951-0.058,1.403c0.205,0.554,0.593,1.072,1.005,1.498
		c0.083,0.794,0.835,1.739,1.36,2.254c0.156,0.153,0.334,0.311,0.526,0.46c-0.004-0.002-0.008-0.006-0.012-0.008
		c-0.079,0.208-0.175,0.411-0.309,0.594c0.002,0.001,0.006,0.005,0.013,0.009c-0.009-0.006-0.014-0.009-0.014-0.009l-0.899,0.988
		l0.014-0.017c-1.379,0.335-2.368,0.9-3.077,1.557c-2.069,1.915-1.753,4.606-1.753,4.606h15.637
		C80.295,43.551,80.611,40.86,78.543,38.944"/>
	<path class="st1" d="M99.756,38.944c-0.709-0.657-1.699-1.222-3.078-1.557l0.014,0.017l-0.899-0.988c0,0-0.003,0.002-0.005,0.003
		c-0.14-0.195-0.21-0.41-0.279-0.619l0,0c0.178-0.141,0.342-0.288,0.487-0.43c0.526-0.515,1.279-1.46,1.361-2.254
		c0.411-0.426,0.8-0.944,1.004-1.498c0.167-0.452,0.223-0.982-0.058-1.403c-0.105-0.157-0.239-0.274-0.393-0.359
		c0.19-1.211,0.471-5.233-4.221-5.233c-5.524,0-4.395,3.56-4.395,4.461c0,0.323,0.017,0.611,0.138,0.792
		c-0.139,0.083-0.262,0.194-0.359,0.339c-0.281,0.421-0.225,0.951-0.058,1.403c0.205,0.554,0.593,1.072,1.005,1.498
		c0.083,0.794,0.835,1.739,1.36,2.254c0.156,0.153,0.334,0.311,0.526,0.46c-0.004-0.002-0.008-0.006-0.012-0.008
		c-0.079,0.208-0.175,0.411-0.309,0.594c0.002,0.001,0.006,0.005,0.013,0.009c-0.009-0.006-0.014-0.009-0.014-0.009l-0.899,0.988
		l0.014-0.017c-1.379,0.335-2.368,0.9-3.077,1.557c-2.069,1.915-1.753,4.606-1.753,4.606h15.637
		C101.509,43.551,101.825,40.86,99.756,38.944"/>
	<path class="st1" d="M78.543,62.567c-0.709-0.657-1.699-1.222-3.078-1.557l0.014,0.017l-0.899-0.988c0,0-0.003,0.002-0.005,0.003
		c-0.14-0.195-0.21-0.41-0.279-0.619l0,0c0.178-0.141,0.342-0.288,0.487-0.43c0.526-0.515,1.279-1.46,1.361-2.254
		c0.411-0.426,0.8-0.944,1.004-1.498c0.167-0.452,0.223-0.982-0.058-1.403c-0.105-0.157-0.239-0.274-0.393-0.359
		c0.19-1.211,0.471-5.233-4.221-5.233c-5.524,0-4.395,3.56-4.395,4.461c0,0.323,0.017,0.611,0.138,0.792
		c-0.139,0.083-0.262,0.194-0.359,0.339c-0.281,0.421-0.225,0.951-0.058,1.403c0.205,0.554,0.593,1.072,1.005,1.498
		c0.083,0.794,0.835,1.739,1.36,2.254c0.156,0.153,0.334,0.311,0.526,0.46c-0.004-0.002-0.008-0.006-0.012-0.008
		c-0.079,0.208-0.175,0.411-0.309,0.594c0.002,0.001,0.006,0.005,0.013,0.009c-0.009-0.006-0.014-0.009-0.014-0.009l-0.899,0.988
		l0.014-0.017c-1.379,0.335-2.368,0.9-3.077,1.557c-2.069,1.915-1.753,4.606-1.753,4.606h15.637
		C80.295,67.174,80.611,64.483,78.543,62.567"/>
	<path class="st1" d="M99.756,62.567c-0.709-0.657-1.699-1.222-3.078-1.557l0.014,0.017l-0.899-0.988c0,0-0.003,0.002-0.005,0.003
		c-0.14-0.195-0.21-0.41-0.279-0.619l0,0c0.178-0.141,0.342-0.288,0.487-0.43c0.526-0.515,1.279-1.46,1.361-2.254
		c0.411-0.426,0.8-0.944,1.004-1.498c0.167-0.452,0.223-0.982-0.058-1.403c-0.105-0.157-0.239-0.274-0.393-0.359
		c0.19-1.211,0.471-5.233-4.221-5.233c-5.524,0-4.395,3.56-4.395,4.461c0,0.323,0.017,0.611,0.138,0.792
		c-0.139,0.083-0.262,0.194-0.359,0.339c-0.281,0.421-0.225,0.951-0.058,1.403c0.205,0.554,0.593,1.072,1.005,1.498
		c0.083,0.794,0.835,1.739,1.36,2.254c0.156,0.153,0.334,0.311,0.526,0.46c-0.004-0.002-0.008-0.006-0.012-0.008
		c-0.079,0.208-0.175,0.411-0.309,0.594c0.002,0.001,0.006,0.005,0.013,0.009c-0.009-0.006-0.014-0.009-0.014-0.009l-0.899,0.988
		l0.014-0.017c-1.379,0.335-2.368,0.9-3.077,1.557c-2.069,1.915-1.753,4.606-1.753,4.606h15.637
		C101.509,67.174,101.825,64.483,99.756,62.567"/>
	<path class="st1" d="M120.97,38.944c-0.709-0.657-1.699-1.222-3.078-1.557l0.014,0.017l-0.899-0.988c0,0-0.003,0.002-0.005,0.003
		c-0.14-0.195-0.21-0.41-0.279-0.619l0,0c0.178-0.141,0.342-0.288,0.487-0.43c0.526-0.515,1.279-1.46,1.361-2.254
		c0.411-0.426,0.8-0.944,1.004-1.498c0.167-0.452,0.223-0.982-0.058-1.403c-0.105-0.157-0.239-0.274-0.393-0.359
		c0.19-1.211,0.471-5.233-4.221-5.233c-5.524,0-4.395,3.56-4.395,4.461c0,0.323,0.017,0.611,0.138,0.792
		c-0.139,0.083-0.262,0.194-0.359,0.339c-0.281,0.421-0.225,0.951-0.058,1.403c0.205,0.554,0.593,1.072,1.005,1.498
		c0.083,0.794,0.835,1.739,1.36,2.254c0.156,0.153,0.334,0.311,0.526,0.46c-0.004-0.002-0.008-0.006-0.012-0.008
		c-0.079,0.208-0.175,0.411-0.309,0.594c0.002,0.001,0.006,0.005,0.013,0.009c-0.009-0.006-0.014-0.009-0.014-0.009l-0.899,0.988
		l0.014-0.017c-1.379,0.335-2.368,0.9-3.077,1.557c-2.069,1.915-1.753,4.606-1.753,4.606h15.637
		C122.722,43.551,123.039,40.86,120.97,38.944"/>
	<path class="st1" d="M142.184,38.944c-0.709-0.657-1.699-1.222-3.078-1.557l0.014,0.017l-0.899-0.988c0,0-0.003,0.002-0.005,0.003
		c-0.14-0.195-0.21-0.41-0.279-0.619l0,0c0.178-0.141,0.342-0.288,0.487-0.43c0.526-0.515,1.279-1.46,1.361-2.254
		c0.411-0.426,0.8-0.944,1.004-1.498c0.167-0.452,0.223-0.982-0.058-1.403c-0.105-0.157-0.239-0.274-0.393-0.359
		c0.19-1.211,0.471-5.233-4.221-5.233c-5.524,0-4.395,3.56-4.395,4.461c0,0.323,0.017,0.611,0.138,0.792
		c-0.139,0.083-0.262,0.194-0.359,0.339c-0.281,0.421-0.225,0.951-0.058,1.403c0.205,0.554,0.593,1.072,1.005,1.498
		c0.083,0.794,0.835,1.739,1.36,2.254c0.156,0.153,0.334,0.311,0.526,0.46c-0.004-0.002-0.008-0.006-0.012-0.008
		c-0.079,0.208-0.175,0.411-0.309,0.594c0.002,0.001,0.006,0.005,0.013,0.009c-0.009-0.006-0.014-0.009-0.014-0.009l-0.899,0.988
		l0.014-0.017c-1.379,0.335-2.368,0.9-3.077,1.557c-2.069,1.915-1.753,4.606-1.753,4.606h15.637
		C143.936,43.551,144.252,40.86,142.184,38.944"/>
	<path class="st1" d="M142.184,62.567c-0.709-0.657-1.699-1.222-3.078-1.557l0.014,0.017l-0.899-0.988c0,0-0.003,0.002-0.005,0.003
		c-0.14-0.195-0.21-0.41-0.279-0.619l0,0c0.178-0.141,0.342-0.288,0.487-0.43c0.526-0.515,1.279-1.46,1.361-2.254
		c0.411-0.426,0.8-0.944,1.004-1.498c0.167-0.452,0.223-0.982-0.058-1.403c-0.105-0.157-0.239-0.274-0.393-0.359
		c0.19-1.211,0.471-5.233-4.221-5.233c-5.524,0-4.395,3.56-4.395,4.461c0,0.323,0.017,0.611,0.138,0.792
		c-0.139,0.083-0.262,0.194-0.359,0.339c-0.281,0.421-0.225,0.951-0.058,1.403c0.205,0.554,0.593,1.072,1.005,1.498
		c0.083,0.794,0.835,1.739,1.36,2.254c0.156,0.153,0.334,0.311,0.526,0.46c-0.004-0.002-0.008-0.006-0.012-0.008
		c-0.079,0.208-0.175,0.411-0.309,0.594c0.002,0.001,0.006,0.005,0.013,0.009c-0.009-0.006-0.014-0.009-0.014-0.009l-0.899,0.988
		l0.014-0.017c-1.379,0.335-2.368,0.9-3.077,1.557c-2.069,1.915-1.753,4.606-1.753,4.606h15.637
		C143.936,67.174,144.252,64.483,142.184,62.567"/>
	<path class="st2" d="M78.543,15.321c-0.709-0.657-1.699-1.222-3.078-1.557l0.014,0.017l-0.899-0.988c0,0-0.003,0.002-0.005,0.003
		c-0.14-0.195-0.21-0.41-0.279-0.619l0,0c0.178-0.141,0.342-0.288,0.487-0.43c0.526-0.515,1.279-1.46,1.361-2.254
		c0.411-0.426,0.8-0.944,1.004-1.498c0.167-0.452,0.223-0.982-0.058-1.403c-0.105-0.157-0.239-0.274-0.393-0.359
		C76.889,5.022,77.17,1,72.478,1c-5.524,0-4.395,3.56-4.395,4.461c0,0.323,0.017,0.611,0.138,0.792
		c-0.139,0.083-0.262,0.194-0.359,0.339c-0.281,0.421-0.225,0.951-0.058,1.403c0.205,0.554,0.593,1.072,1.005,1.498
		c0.083,0.794,0.835,1.739,1.36,2.254c0.156,0.153,0.334,0.311,0.526,0.46c-0.004-0.002-0.008-0.006-0.012-0.008
		c-0.079,0.208-0.175,0.411-0.309,0.594c0.002,0.001,0.006,0.005,0.013,0.009c-0.009-0.006-0.014-0.009-0.014-0.009l-0.899,0.988
		l0.014-0.017c-1.379,0.335-2.368,0.9-3.077,1.557c-2.069,1.915-1.753,4.606-1.753,4.606h15.637
		C80.295,19.928,80.611,17.237,78.543,15.321"/>
	<path class="st2" d="M14.902,38.944c-0.709-0.657-1.699-1.222-3.078-1.557l0.014,0.017l-0.899-0.988c0,0-0.003,0.002-0.005,0.003
		c-0.14-0.195-0.21-0.41-0.279-0.619l0,0c0.178-0.141,0.342-0.288,0.487-0.43c0.526-0.515,1.279-1.46,1.361-2.254
		c0.411-0.426,0.8-0.944,1.004-1.498c0.167-0.452,0.223-0.982-0.058-1.403c-0.105-0.157-0.239-0.274-0.393-0.359
		c0.19-1.211,0.471-5.233-4.221-5.233c-5.524,0-4.395,3.56-4.395,4.461c0,0.323,0.017,0.611,0.138,0.792
		c-0.139,0.083-0.262,0.194-0.359,0.339c-0.281,0.421-0.225,0.951-0.058,1.403c0.205,0.554,0.593,1.072,1.005,1.498
		c0.083,0.794,0.835,1.739,1.36,2.254c0.156,0.153,0.334,0.311,0.526,0.46c-0.004-0.002-0.008-0.006-0.012-0.008
		c-0.079,0.208-0.175,0.411-0.309,0.594c0.002,0.001,0.006,0.005,0.013,0.009c-0.009-0.006-0.014-0.009-0.014-0.009l-0.899,0.988
		l0.014-0.017c-1.379,0.335-2.368,0.9-3.077,1.557c-2.069,1.915-1.753,4.606-1.753,4.606h15.637
		C16.654,43.551,16.971,40.86,14.902,38.944"/>
	<path class="st2" d="M57.329,62.567c-0.709-0.657-1.699-1.222-3.078-1.557l0.014,0.017l-0.899-0.988c0,0-0.003,0.002-0.005,0.003
		c-0.14-0.195-0.21-0.41-0.279-0.619l0,0c0.178-0.141,0.342-0.288,0.487-0.43c0.526-0.515,1.279-1.46,1.361-2.254
		c0.411-0.426,0.8-0.944,1.004-1.498c0.167-0.452,0.223-0.982-0.058-1.403c-0.105-0.157-0.239-0.274-0.393-0.359
		c0.19-1.211,0.471-5.233-4.221-5.233c-5.524,0-4.395,3.56-4.395,4.461c0,0.323,0.017,0.611,0.138,0.792
		c-0.139,0.083-0.262,0.194-0.359,0.339c-0.281,0.421-0.225,0.951-0.058,1.403c0.205,0.554,0.593,1.072,1.005,1.498
		c0.083,0.794,0.835,1.739,1.36,2.254c0.156,0.153,0.334,0.311,0.526,0.46c-0.004-0.002-0.008-0.006-0.012-0.008
		c-0.079,0.208-0.175,0.411-0.309,0.594c0.002,0.001,0.006,0.005,0.013,0.009c-0.009-0.006-0.014-0.009-0.014-0.009l-0.899,0.988
		l0.014-0.017c-1.379,0.335-2.368,0.9-3.077,1.557c-2.069,1.915-1.753,4.606-1.753,4.606h15.637
		C59.082,67.174,59.398,64.483,57.329,62.567"/>
	<path class="st2" d="M120.97,62.567c-0.709-0.657-1.699-1.222-3.078-1.557l0.014,0.017l-0.899-0.988c0,0-0.003,0.002-0.005,0.003
		c-0.14-0.195-0.21-0.41-0.279-0.619l0,0c0.178-0.141,0.342-0.288,0.487-0.43c0.526-0.515,1.279-1.46,1.361-2.254
		c0.411-0.426,0.8-0.944,1.004-1.498c0.167-0.452,0.223-0.982-0.058-1.403c-0.105-0.157-0.239-0.274-0.393-0.359
		c0.19-1.211,0.471-5.233-4.221-5.233c-5.524,0-4.395,3.56-4.395,4.461c0,0.323,0.017,0.611,0.138,0.792
		c-0.139,0.083-0.262,0.194-0.359,0.339c-0.281,0.421-0.225,0.951-0.058,1.403c0.205,0.554,0.593,1.072,1.005,1.498
		c0.083,0.794,0.835,1.739,1.36,2.254c0.156,0.153,0.334,0.311,0.526,0.46c-0.004-0.002-0.008-0.006-0.012-0.008
		c-0.079,0.208-0.175,0.411-0.309,0.594c0.002,0.001,0.006,0.005,0.013,0.009c-0.009-0.006-0.014-0.009-0.014-0.009l-0.899,0.988
		l0.014-0.017c-1.379,0.335-2.368,0.9-3.077,1.557c-2.069,1.915-1.753,4.606-1.753,4.606h15.637
		C122.722,67.174,123.039,64.483,120.97,62.567"/>
	<g class="st3">
		<g class="st4">
			<g>
				<polygon class="st5" points="78.011,79.766 69.424,84.756 60.785,79.768 69.371,74.778 				"/>
			</g>
			<g>
				<polygon class="st5" points="78.011,79.766 77.976,90.01 69.389,95 69.424,84.756 				"/>
			</g>
			<g>
				<polygon class="st5" points="69.424,84.756 69.389,95 60.75,90.012 60.785,79.768 				"/>
			</g>
		</g>
	</g>
	<g class="st3">
		<g class="st4">
			<g>
				<polygon class="st5" points="99.637,79.766 91.051,84.756 82.411,79.768 90.998,74.778 				"/>
			</g>
			<g>
				<polygon class="st5" points="99.637,79.766 99.603,90.01 91.016,95 91.051,84.756 				"/>
			</g>
			<g>
				<polygon class="st5" points="91.051,84.756 91.016,95 82.377,90.012 82.411,79.768 				"/>
			</g>
		</g>
	</g>
	<g class="st3">
		<g class="st4">
			<g>
				<polygon class="st5" points="121.264,79.766 112.678,84.756 104.038,79.768 112.625,74.778 				"/>
			</g>
			<g>
				<polygon class="st5" points="121.264,79.766 121.229,90.01 112.643,95 112.678,84.756 				"/>
			</g>
			<g>
				<polygon class="st5" points="112.678,84.756 112.643,95 104.003,90.012 104.038,79.768 				"/>
			</g>
		</g>
	</g>
	<g class="st3">
		<g class="st4">
			<g>
				<polygon class="st5" points="142.891,79.766 134.304,84.756 125.665,79.768 134.251,74.778 				"/>
			</g>
			<g>
				<polygon class="st5" points="142.891,79.766 142.856,90.01 134.269,95 134.304,84.756 				"/>
			</g>
			<g>
				<polygon class="st5" points="134.304,84.756 134.269,95 125.63,90.012 125.665,79.768 				"/>
			</g>
		</g>
	</g>
	<g class="st3">
		<g class="st4">
			<g>
				<polygon class="st5" points="159.821,78.328 153.709,81.88 147.56,78.33 153.671,74.778 				"/>
			</g>
			<g>
				<polygon class="st5" points="159.821,78.328 159.796,85.62 153.684,89.171 153.709,81.88 				"/>
			</g>
			<g>
				<polygon class="st5" points="153.709,81.88 153.684,89.171 147.535,85.621 147.56,78.33 				"/>
			</g>
		</g>
	</g>
</g>
<g id="Layer_2" class="st0">
	<g class="st3">
		<path class="st6" d="M66.756,13.912c-4.725-0.202-12.536-0.115-19.708,4.297l17.5,17.5c4.412-7.172,4.499-14.984,4.297-19.708
			c-0.023-0.546-0.253-1.063-0.639-1.449l0,0C67.818,14.165,67.302,13.936,66.756,13.912z"/>
		<path class="st7" d="M18.48,69.357c0,0,1.474,5.799-5.687,7.289c0,0-4.659,0.777-6.824,1.922c-0.397,0.21-0.883,0.143-1.201-0.174
			l0,0c-0.318-0.318-0.384-0.804-0.174-1.201c1.146-2.164,1.922-6.824,1.922-6.824c1.49-7.161,7.289-5.687,7.289-5.687L18.48,69.357
			z"/>
		<path class="st6" d="M62.748,38.803L44.36,20.415c0,0-5.932,2.755-9.216,7.099c-2.861,3.783-18.205,24.064-22.116,29.233
			c-0.521,0.688-0.453,1.654,0.157,2.264l10.967,10.967c0.61,0.61,1.576,0.678,2.264,0.157c5.169-3.911,25.449-19.255,29.233-22.116
			C59.993,44.735,62.748,38.803,62.748,38.803z"/>
		<polygon class="st6" points="23.579,37.089 13.433,35.988 1,44.259 12.944,51.146 		"/>
		<polygon class="st6" points="46.041,59.551 47.142,69.697 38.871,82.13 31.984,70.186 		"/>
		<path class="st7" d="M39.715,43.447c-2.43-2.43-2.43-6.371,0-8.801c2.43-2.43,6.371-2.43,8.801,0c2.43,2.43,2.43,6.371,0,8.801
			C46.086,45.877,42.146,45.877,39.715,43.447z"/>
	</g>
</g>
<g id="Layer_3">
	<path class="st8" d="M31.34,20.005c11.946-1.828,23.916-3.55,35.885-5.211c0.007,10.49,0,20.972,0.007,31.462
		c-11.962,0.045-23.923,0.227-35.892,0.265C31.332,37.678,31.332,28.841,31.34,20.005z"/>
	<path class="st8" d="M1,24.237c8.996-1.388,18.03-2.587,27.063-3.717c0.007,8.7,0.007,17.392,0.015,26.092
		C19.052,46.605,10.026,46.742,1,46.719V24.237z"/>
	<path class="st8" d="M1,49.457c9.018-0.03,18.037,0.115,27.055,0.1c0,8.721,0.023,17.445,0.008,26.168
		C19.052,74.389,10.026,73.222,1,71.999V49.457z"/>
	<path class="st8" d="M31.287,49.806c11.984,0,23.961,0,35.938,0c0.015,10.46,0,20.919,0,31.386
		c-11.946-1.789-23.916-3.452-35.885-5.074C31.325,67.351,31.302,58.581,31.287,49.806z"/>
	<g>
		<path d="M135.202,72.399c0,0.132-0.047,0.326-0.132,0.585c-0.085,0.302-0.562,0.798-1.422,1.488
			c-0.605,0.43-1.384,0.864-2.329,1.294l-1.294,0.647c-2.546,1.205-4.965,2.891-7.251,5.046c-0.515,0.562-1.55,0.841-3.104,0.841
			c-2.376,0-3.907-0.841-4.597-2.523c-0.345-0.647-1.252-0.992-2.717-1.035c-1.081-0.043-2.74-0.066-4.984-0.066
			c-3.666,0-6.104,0.26-7.313,0.779l-0.453-0.845c0.647-0.345,0.973-0.86,0.973-1.55c0-0.562-0.217-1.252-0.647-2.073
			c-0.132-0.128-0.283-0.298-0.453-0.515c-0.174-0.217-0.295-0.38-0.357-0.488c-0.066-0.105-0.097-0.182-0.097-0.225
			c0.171-0.302,0.43-0.453,0.775-0.453c0.174,0,0.302,0.043,0.388,0.128c0.95,0.996,2.438,1.492,4.469,1.492
			c0.601,0,1.271,0,2.004,0c3.368-0.434,5.608-1.577,6.732-3.43c0.473-0.822,0.864-1.232,1.167-1.232
			c0.345,0,0.515,0.519,0.515,1.554c0,0.907-0.302,2.263-0.907,4.077c-0.128,0.477-0.194,0.864-0.194,1.167
			c0,0.085,0.023,0.248,0.066,0.484c0.043,0.236,0.345,0.357,0.907,0.357c0.043-0.477,0.213-1.469,0.515-2.977
			c0.391-1.814,0.585-3.066,0.585-3.756c0-0.519-0.109-1.337-0.326-2.461c-0.167-1.178-0.256-2.298-0.26-3.356l0.647-0.008
			c0,0.822,0.151,1.682,0.453,2.589c0.302,0.907,0.453,1.984,0.453,3.236c0,1.209-0.109,2.612-0.322,4.205
			c-0.089,0.434-0.132,0.845-0.132,1.232c0,1.077,0.26,1.918,0.779,2.523c0.69,0.907,1.55,1.36,2.589,1.36
			c0.085,0,0.43-0.023,1.035-0.066c0.605-0.043,1.422-0.496,2.457-1.36c1.512-1.205,2.655-2.039,3.43-2.492
			c0.779-0.45,2.093-1,3.949-1.647c2.415-0.779,3.624-1.597,3.624-2.461c0-0.043-0.031-0.194-0.097-0.453
			c-0.066-0.26-0.345-0.55-0.841-0.872c-0.496-0.326-1.167-0.628-2.004-0.907c-0.845-0.279-1.457-0.876-1.845-1.779
			c-0.391-0.907-0.585-1.748-0.585-2.527c0-0.128,0.012-0.442,0.035-0.938c0.019-0.496,0.202-0.915,0.55-1.26
			c0.039,0.818,0.147,1.574,0.322,2.263c0.302,1.167,0.775,2.031,1.422,2.589c0.434,0.477,0.95,0.884,1.554,1.229
			c0.864,0.477,1.457,0.907,1.779,1.294C135.04,71.496,135.202,71.927,135.202,72.399z"/>
		<path d="M129.439,58.745c0,0.217-0.019,0.612-0.062,1.198c-0.043,0.581-0.194,1.12-0.453,1.616
			c-0.26,0.496-0.496,0.779-0.713,0.841c-0.217,0.066-0.515,0.302-0.907,0.713c-0.388,0.411-0.744,0.853-1.066,1.325
			c-0.326,0.477-0.822,0.895-1.488,1.263c-0.67,0.368-1.391,0.55-2.17,0.55c-0.515,0-1.004-0.054-1.453-0.163
			c-0.453-0.109-0.876-0.484-1.263-1.132c-0.345-0.388-0.628-0.907-0.841-1.554c-0.477-0.733-0.907-1.101-1.294-1.101
			c-0.089,0-0.283,0.043-0.581,0.132c-0.302,0.085-0.585,0.69-0.845,1.81c-0.128,0.345-0.194,0.713-0.194,1.101l-0.647,0.008
			c0-0.023,0-0.05,0-0.074c0-0.085,0.012-0.442,0.035-1.066c0.019-0.624,0.291-1.263,0.806-1.911
			c0.434-0.473,1.081-0.709,1.942-0.709c0.043-0.907,0.496-1.577,1.36-2.008c0.384-0.205,0.783-0.349,1.198-0.43
			c0.283-0.062,0.577-0.089,0.876-0.089c1.248,0,2.24,0.326,2.977,0.973c0-0.43-0.694-0.95-2.074-1.554
			c0.043-0.43,0.12-0.81,0.229-1.132c0.105-0.326,0.194-0.647,0.26-0.973c0.062-0.322,0.097-0.57,0.097-0.744
			c0-0.171,0-0.388,0-0.647c0-0.085,0-0.248,0-0.484s0-0.422,0-0.55c0-0.128-0.054-0.411-0.163-0.841s-0.174-0.69-0.194-0.775
			c-0.023-0.089-0.078-0.399-0.163-0.942c-0.085-0.539-0.151-0.895-0.194-1.066c-0.26-1.209-0.853-2.515-1.779-3.914
			c-0.93-1.403-1.868-2.364-2.818-2.884c0.647,0.519,1.403,1.577,2.267,3.174c1.593,3.062,2.395,5.783,2.395,8.154
			c0,0.864-0.132,1.682-0.391,2.457c-0.194,0.845-0.655,1.368-1.384,1.581c-0.24,0.07-0.515,0.105-0.814,0.105
			c-0.605,0-1.004-0.271-1.198-0.81c-0.194-0.539-0.291-1.585-0.291-3.139s-0.155-2.934-0.453-4.143
			c-0.647-2.891-1.488-4.852-2.527-5.887l-0.322-0.198c-0.69-3.104-1.446-5.131-2.267-6.081c-1.035-1.209-1.55-2.287-1.55-3.236
			c0-0.477,0.085-1.035,0.256-1.682c0.043-0.128,0.081-0.256,0.112-0.372c0.101-0.357,0.147-0.663,0.147-0.922
			c0-0.217-0.054-0.477-0.159-0.779c-0.109-0.302-0.639-0.558-1.589-0.775c-0.388-0.085-0.957-0.326-1.713-0.713
			c-0.756-0.388-1.221-0.581-1.391-0.581c-0.151-0.019-0.271-0.116-0.353-0.291c-0.112-0.229-0.167-0.585-0.167-1.07
			c0-0.558,0.14-1.132,0.422-1.713c0.279-0.585,0.806-0.876,1.585-0.876c0.818,0,1.403,0.368,1.748,1.101
			c0.171,0.562,0.26,1.058,0.26,1.488c0,0.26-0.047,0.496-0.132,0.713c-0.128,0.345-0.194,0.562-0.194,0.647
			c0,0.388,0.194,0.581,0.581,0.581c0.217,0,0.477-0.054,0.779-0.163c0.298-0.105,0.453-0.57,0.453-1.391
			c0-2.155-0.477-3.624-1.426-4.399c-0.515-0.519-1.143-0.822-1.876-0.907c-2.329,0.174-3.496,1.446-3.496,3.818
			c0,0.388,0.043,0.822,0.132,1.294c0,0.345-0.023,0.519-0.066,0.519c-0.039-0.027-0.081-0.054-0.128-0.078
			c-0.326-0.167-0.864-0.248-1.62-0.248c-0.26,0-0.496,0-0.713,0h-0.194c-0.171,0-0.302-0.062-0.388-0.194v-0.388
			c0-1.252-0.217-2.298-0.647-3.139c-0.43-0.841-0.992-1.263-1.682-1.263c-0.647,0-1.167,0.368-1.554,1.101
			c-0.43,0.864-0.647,1.686-0.647,2.461c0,0.345,0.054,0.775,0.163,1.294c0.109,0.519,0.26,0.961,0.453,1.325
			c0.194,0.368,0.376,0.55,0.55,0.55c0.256,0,0.496-0.171,0.709-0.515l0.066-0.26c0-0.043-0.109-0.066-0.322-0.066h-0.066
			c-0.132,0-0.314-0.194-0.55-0.581c-0.236-0.388-0.357-0.841-0.357-1.36c0-1.205,0.519-1.81,1.554-1.81
			c0.473,0,0.853,0.256,1.132,0.775c0.279,0.519,0.422,1.015,0.422,1.488c-0.047,0.477-0.089,0.756-0.132,0.841
			c-0.562,0.434-0.961,0.81-1.198,1.132c-0.236,0.326-0.593,0.616-1.066,0.876c-0.477,0.26-0.713,0.411-0.713,0.453
			c-0.43,0.43-0.647,0.864-0.647,1.294c0,0.217,0.085,0.345,0.26,0.388c0.733,0.477,1.271,0.981,1.616,1.519
			c0.345,0.543,1.143,0.81,2.395,0.81c1.124,0,2.31-0.194,3.562-0.581c0.043-0.043,0.345-0.132,0.907-0.26
			c0.558-0.128,1-0.26,1.325-0.388c0.322-0.132,0.69-0.314,1.101-0.55c0.407-0.236,0.678-0.465,0.806-0.682
			c0.132-0.213,0.302-0.322,0.519-0.322c0.043,0,0.14,0.031,0.291,0.097s0.229,0.186,0.229,0.357c0,0.097-0.016,0.186-0.05,0.264
			c-0.097,0.233-0.341,0.384-0.729,0.45c-0.95,0.345-2.263,0.884-3.945,1.616c-1.469,0.647-2.697,0.973-3.69,0.973
			c-0.519,0-1.209-0.066-2.073-0.198l-0.128-0.062c-0.043,0-0.066,0.043-0.066,0.128c0,0.132,0.194,0.368,0.585,0.713
			c0.647,0.562,1.488,0.841,2.523,0.841c0.43,0,0.884-0.066,1.36-0.194c0.988-0.302,1.918-0.713,2.783-1.229
			c1.337-0.864,2.178-1.294,2.523-1.294c0.26,0,0.411,0.151,0.453,0.45c0,0.217-0.12,0.411-0.357,0.585
			c-0.236,0.171-0.465,0.279-0.678,0.322l-0.779,0.388c-0.733,0.349-1.574,0.907-2.523,1.686c-1.682,1.252-2.891,1.876-3.624,1.876
			c-0.26,0-0.543-0.066-0.841-0.194c-0.519-0.302-1.318-1.252-2.395-2.849c-0.434-0.562-0.736-0.841-0.907-0.841
			c-0.043,0-0.066,0.128-0.066,0.388c0,0.992-0.581,2.418-1.748,4.271c-0.345,0.647-0.605,1.403-0.775,2.267
			c-0.043,0.26-0.066,0.515-0.066,0.775c0,0.519,0.174,1.081,0.519,1.682c-0.605,0.132-1.422,1.275-2.461,3.43
			c-1.035,2.159-1.616,3.973-1.748,5.438c-0.043,0.26-0.062,0.736-0.062,1.422v1.748c0,0.95-0.089,1.512-0.26,1.686
			c-0.085,0.388-0.236,0.581-0.453,0.581c-0.174,0-0.411-0.151-0.713-0.453c-0.86-0.864-1.294-2.244-1.294-4.143
			c0-0.515,0.066-1.054,0.198-1.616v-0.453c0-0.174-0.023-0.26-0.066-0.26h-0.066c-0.477,0.69-0.713,1.597-0.713,2.717
			c0,1.167,0.326,2.461,0.973,3.883c0.128,0.349,0.461,0.701,1.004,1.07c0.539,0.368,0.829,0.636,0.872,0.81
			c0.519,0.558,1.845,1.694,3.98,3.395c2.136,1.705,3.333,2.686,3.593,2.946c0.43,0.388,0.647,0.93,0.647,1.62
			c0,0.515-0.182,1.023-0.55,1.519c-0.368,0.496-0.938,0.767-1.713,0.81c0.054,0.097,0.116,0.205,0.19,0.326l-0.736,0.279
			c-0.132-0.229-0.275-0.453-0.426-0.67c-3.066-4.876-5.201-7.961-6.407-9.255c-1.209-1.294-2.267-1.942-3.17-1.942
			c-0.391,0-0.756,0.132-1.101,0.388c-0.089,0.047-0.151,0.066-0.194,0.066c-0.349,0-0.519-0.581-0.519-1.748
			c0-1.337,0.43-2.717,1.294-4.143c0.388-0.601,0.667-1.139,0.841-1.616c1.294-3.539,2.008-5.457,2.136-5.759
			c0.818-2.027,1.705-3.496,2.655-4.403c2.849-3.624,4.422-6.127,4.724-7.507C96.174,33.29,96,29.36,95.915,24.314v-0.647
			c0-1.984,0.314-3.744,0.938-5.275c0.628-1.531,1.953-2.837,3.98-3.914c0.992-0.519,2.461-0.779,4.403-0.779
			c1.205,0,2.449,0.174,3.721,0.519c1.271,0.345,2.364,0.884,3.267,1.616c1.469,0.992,2.655,2.523,3.562,4.597
			c0.775,1.767,1.163,3.43,1.163,4.984l-0.062,1.616c0,6,2.093,11.197,6.279,15.6c1.337,1.512,2.589,3.601,3.752,6.275
			C128.598,52.788,129.439,56.071,129.439,58.745z M116.498,36.708c0.128-0.151,0.194-0.357,0.194-0.616
			c0-0.473-0.248-0.756-0.744-0.841s-0.899-0.326-1.198-0.713c-0.174-0.26-0.302-0.43-0.388-0.515l-0.198,0.128
			c-0.085,0.174-0.128,0.368-0.128,0.581c0,0.26,0.171,0.694,0.519,1.294c0.601,0.605,1.12,0.907,1.55,0.907
			C116.239,36.933,116.367,36.859,116.498,36.708z M111.968,18.81c0-0.043-0.047-0.097-0.132-0.159
			c-0.085-0.066-0.205-0.14-0.357-0.229c-0.151-0.085-0.248-0.171-0.291-0.26c-0.43-0.388-0.756-0.581-0.969-0.581
			c-0.345,0-0.519,0.217-0.519,0.647l0.066,0.388c0,0.132-0.089,0.326-0.26,0.585c-0.174,0.256-0.26,0.411-0.26,0.45
			c0,0.047,0.043,0.109,0.132,0.198c0.085,0.085,0.151,0.128,0.194,0.128s0.085-0.031,0.128-0.097
			c0.043-0.066,0.163-0.171,0.357-0.326c0.194-0.147,0.399-0.291,0.616-0.419c0.043,0,0.159,0,0.357,0
			c0.194,0,0.376-0.023,0.546-0.066C111.751,19.027,111.879,18.942,111.968,18.81z M109.766,27.872l0.066-0.062
			c0-0.345-0.054-0.616-0.163-0.81s-0.236-0.333-0.388-0.422c-0.151-0.085-0.271-0.128-0.357-0.128
			c-0.302,0-0.453,0.043-0.453,0.128c0,0.043,0.043,0.089,0.128,0.132c0.477,0.128,0.779,0.539,0.907,1.229v0.066
			C109.592,28.003,109.677,27.961,109.766,27.872z M100.511,28.519c0.128,0,0.194-0.236,0.194-0.709c0-0.217-0.085-0.465-0.26-0.744
			c-0.171-0.283-0.302-0.422-0.388-0.422c-0.217,0-0.326,0.085-0.326,0.26c0.043,0.171,0.132,0.26,0.26,0.26
			c0.132,0,0.194,0.085,0.194,0.256v0.585C100.186,28.348,100.294,28.519,100.511,28.519z M91.969,46.835
			c0.043-0.085,0.062-0.151,0.062-0.194c0-0.217-0.019-0.322-0.062-0.322c-0.174,0-0.314,0.182-0.422,0.546
			c-0.109,0.368-0.314,0.705-0.616,1.004c-0.085,0.174-0.128,0.302-0.128,0.388c0,0.089,0.043,0.132,0.128,0.132
			c0.132,0,0.283-0.085,0.453-0.26c0.302-0.302,0.496-0.647,0.585-1.035V46.835z"/>
		<path class="st9" d="M122.579,58.486c1.38,0.605,2.074,1.124,2.074,1.554c-0.736-0.647-1.729-0.973-2.977-0.973
			c-0.298,0-0.593,0.027-0.876,0.089l-0.058-0.256c0.729-0.213,1.19-0.736,1.384-1.581c0.26-0.775,0.391-1.593,0.391-2.457
			c0-2.372-0.802-5.093-2.395-8.154c-0.864-1.597-1.62-2.655-2.267-3.174c0.95,0.519,1.887,1.481,2.818,2.884
			c0.926,1.399,1.519,2.705,1.779,3.914c0.043,0.171,0.109,0.527,0.194,1.066c0.085,0.543,0.14,0.853,0.163,0.942
			c0.019,0.085,0.085,0.345,0.194,0.775s0.163,0.713,0.163,0.841c0,0.128,0,0.314,0,0.55s0,0.399,0,0.484c0,0.26,0,0.477,0,0.647
			c0,0.174-0.035,0.422-0.097,0.744c-0.066,0.326-0.155,0.647-0.26,0.973C122.699,57.676,122.622,58.055,122.579,58.486z"/>
		<path class="st9" d="M120.742,58.9l0.058,0.256c-0.415,0.081-0.814,0.225-1.198,0.43c-0.864,0.43-1.318,1.101-1.36,2.008
			c-0.86,0-1.508,0.236-1.942,0.709c-0.515,0.647-0.787,1.287-0.806,1.911c-0.023,0.624-0.035,0.981-0.035,1.066
			c0,0.023,0,0.05,0,0.074c0.004,1.058,0.093,2.178,0.26,3.356c0.217,1.124,0.326,1.942,0.326,2.461c0,0.69-0.194,1.942-0.585,3.756
			c-0.302,1.508-0.473,2.5-0.515,2.977c-0.562,0-0.864-0.12-0.907-0.357c-0.043-0.236-0.066-0.399-0.066-0.484
			c0-0.302,0.066-0.69,0.194-1.167c0.605-1.814,0.907-3.17,0.907-4.077c0-1.035-0.171-1.554-0.515-1.554
			c-0.302,0-0.694,0.411-1.167,1.232c-1.124,1.853-3.364,2.996-6.732,3.43c-0.733,0-1.403,0-2.004,0
			c-2.031,0-3.519-0.496-4.469-1.492c-0.085-0.085-0.213-0.128-0.388-0.128c-0.345,0-0.605,0.151-0.775,0.453
			c0,0.043,0.031,0.12,0.097,0.225c0.062,0.109,0.182,0.271,0.357,0.488c0.171,0.217,0.322,0.388,0.453,0.515
			c0.43,0.822,0.647,1.512,0.647,2.073c0,0.69-0.326,1.205-0.973,1.55c0-1.205-0.085-2.124-0.26-2.748
			c-0.171-0.628-0.527-1.318-1.066-2.074c-0.407-0.566-0.721-1.027-0.942-1.387c-0.074-0.12-0.136-0.229-0.19-0.326
			c0.775-0.043,1.345-0.314,1.713-0.81c0.368-0.496,0.55-1.004,0.55-1.519c0-0.69-0.217-1.232-0.647-1.62
			c-0.26-0.26-1.457-1.24-3.593-2.946c-2.136-1.701-3.461-2.837-3.98-3.395c-0.043-0.174-0.333-0.442-0.872-0.81
			c-0.543-0.368-0.876-0.721-1.004-1.07c-0.647-1.422-0.973-2.717-0.973-3.883c0-1.12,0.236-2.027,0.713-2.717h0.066
			c0.043,0,0.066,0.085,0.066,0.26v0.453c-0.132,0.562-0.198,1.101-0.198,1.616c0,1.899,0.434,3.279,1.294,4.143
			c0.302,0.302,0.539,0.453,0.713,0.453c0.217,0,0.368-0.194,0.453-0.581c0.171-0.174,0.26-0.736,0.26-1.686v-1.748
			c0-0.686,0.019-1.163,0.062-1.422c0.132-1.465,0.713-3.279,1.748-5.438c1.039-2.155,1.856-3.298,2.461-3.43
			c-0.345-0.601-0.519-1.163-0.519-1.682c0-0.26,0.023-0.515,0.066-0.775c0.171-0.864,0.43-1.62,0.775-2.267
			c1.167-1.853,1.748-3.279,1.748-4.271c0-0.26,0.023-0.388,0.066-0.388c0.171,0,0.473,0.279,0.907,0.841
			c1.077,1.597,1.876,2.546,2.395,2.849c0.298,0.128,0.581,0.194,0.841,0.194c0.733,0,1.942-0.624,3.624-1.876
			c0.95-0.779,1.791-1.337,2.523-1.686l0.779-0.388c0.213-0.043,0.442-0.151,0.678-0.322c0.236-0.174,0.357-0.368,0.357-0.585
			c-0.043-0.298-0.194-0.45-0.453-0.45c-0.345,0-1.186,0.43-2.523,1.294c-0.864,0.515-1.794,0.926-2.783,1.229
			c-0.477,0.128-0.93,0.194-1.36,0.194c-1.035,0-1.876-0.279-2.523-0.841c-0.391-0.345-0.585-0.581-0.585-0.713
			c0-0.085,0.023-0.128,0.066-0.128l0.128,0.062c0.864,0.132,1.554,0.198,2.073,0.198c0.992,0,2.221-0.326,3.69-0.973
			c1.682-0.733,2.996-1.271,3.945-1.616c0.388-0.066,0.632-0.217,0.729-0.45l1.066,0.078c-0.031,0.116-0.07,0.244-0.112,0.372
			c-0.171,0.647-0.256,1.205-0.256,1.682c0,0.95,0.515,2.027,1.55,3.236c0.822,0.95,1.577,2.977,2.267,6.081l0.322,0.198
			c1.039,1.035,1.88,2.996,2.527,5.887c0.298,1.209,0.453,2.589,0.453,4.143s0.097,2.601,0.291,3.139
			c0.194,0.539,0.593,0.81,1.198,0.81C120.227,59.005,120.502,58.97,120.742,58.9z"/>
		<path class="st9" d="M116.692,36.092c0,0.26-0.066,0.465-0.194,0.616c-0.132,0.151-0.26,0.225-0.391,0.225
			c-0.43,0-0.95-0.302-1.55-0.907c-0.349-0.601-0.519-1.035-0.519-1.294c0-0.213,0.043-0.407,0.128-0.581l0.198-0.128
			c0.085,0.085,0.213,0.256,0.388,0.515c0.298,0.388,0.701,0.628,1.198,0.713S116.692,35.619,116.692,36.092z"/>
		<path class="st9" d="M111.836,18.651c0.085,0.062,0.132,0.116,0.132,0.159c-0.089,0.132-0.217,0.217-0.391,0.26
			c-0.171,0.043-0.353,0.066-0.546,0.066c-0.198,0-0.314,0-0.357,0c-0.217,0.128-0.422,0.271-0.616,0.419
			c-0.194,0.155-0.314,0.26-0.357,0.326c-0.043,0.066-0.085,0.097-0.128,0.097s-0.109-0.043-0.194-0.128
			c-0.089-0.089-0.132-0.151-0.132-0.198c0-0.039,0.085-0.194,0.26-0.45c0.171-0.26,0.26-0.453,0.26-0.585l-0.066-0.388
			c0-0.43,0.174-0.647,0.519-0.647c0.213,0,0.539,0.194,0.969,0.581c0.043,0.089,0.14,0.174,0.291,0.26
			C111.631,18.512,111.751,18.585,111.836,18.651z"/>
		<path class="st9" d="M111.968,28.713c0,0.822-0.155,1.287-0.453,1.391c-0.302,0.109-0.562,0.163-0.779,0.163
			c-0.388,0-0.581-0.194-0.581-0.581c0-0.085,0.066-0.302,0.194-0.647c0.085-0.217,0.132-0.453,0.132-0.713
			c0-0.43-0.089-0.926-0.26-1.488c-0.345-0.733-0.93-1.101-1.748-1.101c-0.779,0-1.306,0.291-1.585,0.876
			c-0.283,0.581-0.422,1.155-0.422,1.713c0,0.484,0.054,0.841,0.167,1.07l-1.136,0.225c-0.074-0.178-0.221-0.283-0.442-0.314
			l0.054-0.345c0.047,0.023,0.089,0.05,0.128,0.078c0.043,0,0.066-0.174,0.066-0.519c-0.089-0.473-0.132-0.907-0.132-1.294
			c0-2.372,1.167-3.643,3.496-3.818c0.733,0.085,1.36,0.388,1.876,0.907C111.491,25.089,111.968,26.558,111.968,28.713z"/>
		<path class="st9" d="M111.677,31.755c0.105,0.302,0.159,0.562,0.159,0.779c0,0.26-0.047,0.566-0.147,0.922l-1.066-0.078
			c0.035-0.078,0.05-0.167,0.05-0.264c0-0.171-0.078-0.291-0.229-0.357s-0.248-0.097-0.291-0.097c-0.217,0-0.388,0.109-0.519,0.322
			c-0.128,0.217-0.399,0.446-0.806,0.682c-0.411,0.236-0.779,0.419-1.101,0.55c-0.326,0.128-0.767,0.26-1.325,0.388
			c-0.562,0.128-0.864,0.217-0.907,0.26c-1.252,0.388-2.438,0.581-3.562,0.581c-1.252,0-2.05-0.267-2.395-0.81
			c-0.345-0.539-0.884-1.043-1.616-1.519c-0.174-0.043-0.26-0.171-0.26-0.388c0-0.43,0.217-0.864,0.647-1.294
			c0-0.043,0.236-0.194,0.713-0.453c0.473-0.26,0.829-0.55,1.066-0.876c0.236-0.322,0.636-0.698,1.198-1.132
			c0.043-0.085,0.085-0.364,0.132-0.841c0-0.473-0.143-0.969-0.422-1.488c-0.279-0.519-0.659-0.775-1.132-0.775
			c-1.035,0-1.554,0.605-1.554,1.81c0,0.519,0.12,0.973,0.357,1.36c0.236,0.388,0.419,0.581,0.55,0.581h0.066
			c0.213,0,0.322,0.023,0.322,0.066l-0.066,0.26c-0.213,0.345-0.453,0.515-0.709,0.515c-0.174,0-0.357-0.182-0.55-0.55
			c-0.194-0.364-0.345-0.806-0.453-1.325c-0.109-0.519-0.163-0.95-0.163-1.294c0-0.775,0.217-1.597,0.647-2.461
			c0.388-0.733,0.907-1.101,1.554-1.101c0.69,0,1.252,0.422,1.682,1.263c0.43,0.841,0.647,1.887,0.647,3.139v0.388
			c0.085,0.132,0.217,0.194,0.388,0.194h0.194c0.217,0,0.453,0,0.713,0c0.756,0,1.294,0.081,1.62,0.248l-0.054,0.345
			c-0.043-0.004-0.093-0.008-0.143-0.008c-0.128,0-0.345,0.085-0.647,0.256c0.043,0,0.109,0,0.198,0
			c0.171,0,0.333,0.066,0.484,0.198c0.151,0.128,0.291,0.194,0.419,0.194h0.066c0.043-0.089,0.066-0.174,0.066-0.26V29.62
			l1.136-0.225c0.081,0.174,0.202,0.271,0.353,0.291c0.171,0,0.636,0.194,1.391,0.581c0.756,0.388,1.325,0.628,1.713,0.713
			C111.038,31.197,111.568,31.453,111.677,31.755z M101.449,29.813c0.109-0.26,0.314-0.388,0.616-0.388
			c-0.779,0-1.167,0.174-1.167,0.519c0,0.171,0.066,0.256,0.194,0.256h0.066C101.244,30.201,101.341,30.073,101.449,29.813z"/>
		<path d="M109.832,27.81l-0.066,0.062c-0.089,0.089-0.174,0.132-0.26,0.132v-0.066c-0.128-0.69-0.43-1.101-0.907-1.229
			c-0.085-0.043-0.128-0.089-0.128-0.132c0-0.085,0.151-0.128,0.453-0.128c0.085,0,0.205,0.043,0.357,0.128
			c0.151,0.089,0.279,0.229,0.388,0.422S109.832,27.465,109.832,27.81z"/>
		<path d="M100.705,27.81c0,0.473-0.066,0.709-0.194,0.709c-0.217,0-0.326-0.171-0.326-0.515v-0.585
			c0-0.171-0.062-0.256-0.194-0.256c-0.128,0-0.217-0.089-0.26-0.26c0-0.174,0.109-0.26,0.326-0.26c0.085,0,0.217,0.14,0.388,0.422
			C100.62,27.344,100.705,27.593,100.705,27.81z"/>
		<path d="M99.604,78.612l0.453,0.845c-0.95,0.345-1.639,0.709-2.07,1.097c-1.252,1.039-2.484,1.554-3.69,1.554
			c-0.736,0-2.17-0.388-4.306-1.163c-2.136-0.779-4.023-1.36-5.662-1.748l-3.752-0.647c-1.426-0.26-2.387-0.562-2.884-0.907
			c-0.496-0.345-0.744-0.864-0.744-1.554c0-0.473,0.174-1.174,0.519-2.104c0.345-0.926,0.519-1.585,0.519-1.973
			c0-0.388-0.047-0.853-0.132-1.391c-0.085-0.539-0.194-1.023-0.322-1.457c-0.132-0.43-0.194-0.86-0.194-1.294
			c0-0.043,0-0.194,0-0.453c0-0.256,0.128-0.492,0.388-0.709c0.298-0.345,1.004-0.527,2.104-0.55c1.097-0.023,1.884-0.205,2.36-0.55
			c0.775-0.43,1.314-0.864,1.616-1.294c0.302-0.43,0.453-1.077,0.453-1.942c0.132,0.519,0.194,0.992,0.194,1.422
			c0,1.167-0.473,2.05-1.422,2.655c-0.69,0.388-1.512,0.581-2.457,0.581l-1.167-0.062c-0.95,0-1.422,0.364-1.422,1.097
			c0,0.562,0.236,1.275,0.709,2.139c0.345,0.775,0.519,1.422,0.519,1.942c0,0.558-0.217,1.291-0.647,2.198
			c-0.345,0.779-0.519,1.337-0.519,1.682c0,0.477,0.496,0.864,1.488,1.167c0.43,0.089,1.488,0.302,3.174,0.647
			c1.682,0.345,2.953,0.605,3.818,0.775c0.605,0.217,1.574,0.519,2.911,0.907c2.201,0.69,3.756,1.035,4.662,1.035h0.515
			c1.077-0.171,1.911-0.55,2.492-1.132c0.585-0.581,0.876-1.283,0.876-2.104c0-0.601-0.109-1.283-0.326-2.039
			c-0.217-0.752-0.442-1.38-0.678-1.876c-0.12-0.248-0.248-0.488-0.384-0.721l0.736-0.279c0.221,0.36,0.535,0.822,0.942,1.387
			c0.539,0.756,0.895,1.446,1.066,2.074C99.519,76.488,99.604,77.407,99.604,78.612z"/>
		<path d="M92.031,46.642c0,0.043-0.019,0.109-0.062,0.194v0.26c-0.089,0.388-0.283,0.733-0.585,1.035
			c-0.171,0.174-0.322,0.26-0.453,0.26c-0.085,0-0.128-0.043-0.128-0.132c0-0.085,0.043-0.213,0.128-0.388
			c0.302-0.298,0.508-0.636,0.616-1.004c0.109-0.364,0.248-0.546,0.422-0.546C92.012,46.32,92.031,46.425,92.031,46.642z"/>
	</g>
</g>
</svg>
