<svg id="Layer_1" data-name="Layer 1" xmlns="http://www.w3.org/2000/svg" viewBox="0 0 160.821 96"><defs><style>.cls-1,.cls-2,.cls-4{fill:#fff;stroke-linecap:round;stroke-linejoin:round;stroke-width:2px;}.cls-1,.cls-4{stroke:#474747;}.cls-1,.cls-2{fill-rule:evenodd;}.cls-2{stroke:#acacac;}.cls-3{isolation:isolate;}</style></defs><title>mainnet</title><path class="cls-1" d="M14.9,15.321a6.773,6.773,0,0,0-3.078-1.557l.014.017-.9-.989,0,0a2.193,2.193,0,0,1-.279-.619h0a6.05,6.05,0,0,0,.487-.43,4.523,4.523,0,0,0,1.362-2.254,4.532,4.532,0,0,0,1-1.5,1.552,1.552,0,0,0-.059-1.4,1.115,1.115,0,0,0-.392-.358C13.248,5.022,13.529,1,8.837,1,3.313,1,4.442,4.56,4.442,5.461a1.508,1.508,0,0,0,.138.791,1.135,1.135,0,0,0-.359.339,1.548,1.548,0,0,0-.058,1.4,4.52,4.52,0,0,0,1,1.5,4.527,4.527,0,0,0,1.36,2.254,6.134,6.134,0,0,0,.527.46L7.043,12.2a2.488,2.488,0,0,1-.309.594l.012.009-.014-.01-.9.989.014-.017A6.767,6.767,0,0,0,2.77,15.321a5.824,5.824,0,0,0-1.753,4.607H16.654A5.821,5.821,0,0,0,14.9,15.321" transform="translate(0)"/><path class="cls-1" d="M36.116,15.321a6.771,6.771,0,0,0-3.079-1.557l.015.017-.9-.989,0,0a2.162,2.162,0,0,1-.278-.619h0a6.227,6.227,0,0,0,.487-.43,4.529,4.529,0,0,0,1.361-2.254,4.517,4.517,0,0,0,1-1.5,1.548,1.548,0,0,0-.058-1.4,1.118,1.118,0,0,0-.393-.358C34.462,5.022,34.743,1,30.051,1c-5.525,0-4.395,3.56-4.395,4.461a1.508,1.508,0,0,0,.138.791,1.124,1.124,0,0,0-.359.339,1.548,1.548,0,0,0-.058,1.4,4.5,4.5,0,0,0,1.005,1.5,4.513,4.513,0,0,0,1.36,2.254,6.271,6.271,0,0,0,.526.46l-.011-.008a2.456,2.456,0,0,1-.31.594l.013.009-.014-.01-.9.989.014-.017a6.768,6.768,0,0,0-3.077,1.557,5.824,5.824,0,0,0-1.753,4.607H37.868a5.825,5.825,0,0,0-1.752-4.607" transform="translate(0)"/><path class="cls-1" d="M14.9,62.567a6.773,6.773,0,0,0-3.078-1.557l.014.017-.9-.989,0,0a2.193,2.193,0,0,1-.279-.619h0a6.05,6.05,0,0,0,.487-.43,4.522,4.522,0,0,0,1.362-2.255,4.518,4.518,0,0,0,1-1.5,1.552,1.552,0,0,0-.059-1.4,1.118,1.118,0,0,0-.392-.359c.19-1.21.471-5.232-4.221-5.232-5.524,0-4.395,3.56-4.395,4.461a1.508,1.508,0,0,0,.138.791,1.124,1.124,0,0,0-.359.339,1.548,1.548,0,0,0-.058,1.4,4.505,4.505,0,0,0,1,1.5,4.526,4.526,0,0,0,1.36,2.255,6.134,6.134,0,0,0,.527.46l-.012-.008a2.488,2.488,0,0,1-.309.594l.012.009-.014-.01-.9.989.014-.017A6.767,6.767,0,0,0,2.77,62.567a5.824,5.824,0,0,0-1.753,4.607H16.654A5.821,5.821,0,0,0,14.9,62.567" transform="translate(0)"/><path class="cls-1" d="M36.116,62.567a6.771,6.771,0,0,0-3.079-1.557l.015.017-.9-.989,0,0a2.162,2.162,0,0,1-.278-.619h0a6.227,6.227,0,0,0,.487-.43,4.527,4.527,0,0,0,1.361-2.255,4.5,4.5,0,0,0,1-1.5,1.548,1.548,0,0,0-.058-1.4,1.121,1.121,0,0,0-.393-.359c.191-1.21.472-5.232-4.22-5.232-5.525,0-4.395,3.56-4.395,4.461a1.508,1.508,0,0,0,.138.791,1.114,1.114,0,0,0-.359.339,1.548,1.548,0,0,0-.058,1.4,4.49,4.49,0,0,0,1.005,1.5,4.511,4.511,0,0,0,1.36,2.255,6.271,6.271,0,0,0,.526.46l-.011-.008a2.456,2.456,0,0,1-.31.594l.013.009-.014-.01-.9.989.014-.017a6.768,6.768,0,0,0-3.077,1.557,5.824,5.824,0,0,0-1.753,4.607H37.868a5.825,5.825,0,0,0-1.752-4.607" transform="translate(0)"/><path class="cls-1" d="M57.329,15.321a6.773,6.773,0,0,0-3.078-1.557l.014.017-.9-.989,0,0a2.193,2.193,0,0,1-.279-.619h0a6.05,6.05,0,0,0,.487-.43,4.523,4.523,0,0,0,1.362-2.254,4.532,4.532,0,0,0,1-1.5,1.548,1.548,0,0,0-.059-1.4,1.115,1.115,0,0,0-.392-.358C55.675,5.022,55.956,1,51.264,1,45.74,1,46.87,4.56,46.87,5.461a1.508,1.508,0,0,0,.137.791,1.121,1.121,0,0,0-.358.339,1.548,1.548,0,0,0-.059,1.4,4.535,4.535,0,0,0,1,1.5,4.522,4.522,0,0,0,1.361,2.254,5.968,5.968,0,0,0,.526.46L49.47,12.2a2.488,2.488,0,0,1-.309.594l.013.009-.015-.01-.9.989.014-.017A6.768,6.768,0,0,0,45.2,15.321a5.822,5.822,0,0,0-1.754,4.607H59.082a5.824,5.824,0,0,0-1.753-4.607" transform="translate(0)"/><path class="cls-1" d="M99.756,15.321a6.767,6.767,0,0,0-3.078-1.557l.014.017-.9-.989,0,0a2.162,2.162,0,0,1-.278-.619h0a6.415,6.415,0,0,0,.487-.43,4.529,4.529,0,0,0,1.361-2.254,4.517,4.517,0,0,0,1-1.5,1.548,1.548,0,0,0-.058-1.4,1.126,1.126,0,0,0-.393-.358C98.1,5.022,98.383,1,93.691,1,88.167,1,89.3,4.56,89.3,5.461a1.508,1.508,0,0,0,.137.791,1.121,1.121,0,0,0-.358.339,1.552,1.552,0,0,0-.059,1.4,4.535,4.535,0,0,0,1.005,1.5,4.522,4.522,0,0,0,1.361,2.254,6.115,6.115,0,0,0,.526.46L91.9,12.2a2.418,2.418,0,0,1-.309.594l.013.009-.014-.01-.9.989.014-.017a6.768,6.768,0,0,0-3.077,1.557,5.82,5.82,0,0,0-1.753,4.607h15.637a5.824,5.824,0,0,0-1.753-4.607" transform="translate(0)"/><path class="cls-1" d="M120.97,15.321a6.773,6.773,0,0,0-3.078-1.557l.014.017-.9-.989,0,0a2.193,2.193,0,0,1-.279-.619h0a6.227,6.227,0,0,0,.487-.43,4.514,4.514,0,0,0,1.361-2.254,4.5,4.5,0,0,0,1-1.5,1.548,1.548,0,0,0-.058-1.4,1.115,1.115,0,0,0-.392-.358C119.316,5.022,119.6,1,114.905,1c-5.525,0-4.395,3.56-4.395,4.461a1.508,1.508,0,0,0,.138.791,1.135,1.135,0,0,0-.359.339,1.548,1.548,0,0,0-.058,1.4,4.52,4.52,0,0,0,1.005,1.5,4.52,4.52,0,0,0,1.36,2.254,6.134,6.134,0,0,0,.527.46l-.012-.008a2.488,2.488,0,0,1-.309.594l.012.009-.014-.01-.9.989.014-.017a6.767,6.767,0,0,0-3.078,1.557,5.824,5.824,0,0,0-1.753,4.607h15.637a5.821,5.821,0,0,0-1.752-4.607" transform="translate(0)"/><path class="cls-1" d="M142.184,15.321a6.771,6.771,0,0,0-3.079-1.557l.015.017-.9-.989,0,0a2.162,2.162,0,0,1-.278-.619h0a6.227,6.227,0,0,0,.487-.43,4.529,4.529,0,0,0,1.361-2.254,4.517,4.517,0,0,0,1-1.5,1.548,1.548,0,0,0-.058-1.4,1.118,1.118,0,0,0-.393-.358C140.53,5.022,140.81,1,136.118,1c-5.524,0-4.394,3.56-4.394,4.461a1.5,1.5,0,0,0,.138.791,1.124,1.124,0,0,0-.359.339,1.548,1.548,0,0,0-.058,1.4,4.517,4.517,0,0,0,1,1.5,4.522,4.522,0,0,0,1.361,2.254,6.115,6.115,0,0,0,.526.46l-.012-.008a2.418,2.418,0,0,1-.309.594l.013.009-.014-.01-.9.989.014-.017a6.768,6.768,0,0,0-3.077,1.557,5.82,5.82,0,0,0-1.753,4.607h15.637a5.825,5.825,0,0,0-1.752-4.607" transform="translate(0)"/><path class="cls-1" d="M36.116,38.944a6.771,6.771,0,0,0-3.079-1.557l.015.017-.9-.989,0,0a2.162,2.162,0,0,1-.278-.619h0a6.227,6.227,0,0,0,.487-.43,4.527,4.527,0,0,0,1.361-2.255,4.5,4.5,0,0,0,1-1.5,1.548,1.548,0,0,0-.058-1.4,1.108,1.108,0,0,0-.393-.358c.191-1.211.472-5.233-4.22-5.233-5.525,0-4.395,3.56-4.395,4.461a1.508,1.508,0,0,0,.138.791,1.124,1.124,0,0,0-.359.339,1.548,1.548,0,0,0-.058,1.4,4.49,4.49,0,0,0,1.005,1.5,4.511,4.511,0,0,0,1.36,2.255,6.271,6.271,0,0,0,.526.46l-.011-.008a2.456,2.456,0,0,1-.31.594l.013.009-.014-.01-.9.989.014-.017a6.768,6.768,0,0,0-3.077,1.557,5.824,5.824,0,0,0-1.753,4.607H37.868a5.825,5.825,0,0,0-1.752-4.607" transform="translate(0)"/><path class="cls-1" d="M57.329,38.944a6.773,6.773,0,0,0-3.078-1.557l.014.017-.9-.989,0,0a2.193,2.193,0,0,1-.279-.619h0a6.05,6.05,0,0,0,.487-.43,4.522,4.522,0,0,0,1.362-2.255,4.518,4.518,0,0,0,1-1.5,1.548,1.548,0,0,0-.059-1.4,1.106,1.106,0,0,0-.392-.358c.19-1.211.471-5.233-4.221-5.233-5.524,0-4.394,3.56-4.394,4.461a1.508,1.508,0,0,0,.137.791,1.121,1.121,0,0,0-.358.339,1.548,1.548,0,0,0-.059,1.4,4.52,4.52,0,0,0,1,1.5,4.52,4.52,0,0,0,1.361,2.255,5.968,5.968,0,0,0,.526.46l-.012-.008a2.488,2.488,0,0,1-.309.594l.013.009-.015-.01-.9.989.014-.017A6.768,6.768,0,0,0,45.2,38.944a5.822,5.822,0,0,0-1.754,4.607H59.082a5.824,5.824,0,0,0-1.753-4.607" transform="translate(0)"/><path class="cls-1" d="M78.543,38.944a6.773,6.773,0,0,0-3.078-1.557l.014.017-.9-.989,0,0A2.162,2.162,0,0,1,74.3,35.8h0a6.227,6.227,0,0,0,.487-.43,4.513,4.513,0,0,0,1.361-2.255,4.5,4.5,0,0,0,1-1.5,1.548,1.548,0,0,0-.058-1.4,1.108,1.108,0,0,0-.393-.358c.191-1.211.472-5.233-4.22-5.233-5.525,0-4.395,3.56-4.395,4.461a1.508,1.508,0,0,0,.138.791,1.135,1.135,0,0,0-.359.339,1.548,1.548,0,0,0-.058,1.4,4.49,4.49,0,0,0,1,1.5,4.518,4.518,0,0,0,1.36,2.255,6.134,6.134,0,0,0,.527.46l-.012-.008a2.488,2.488,0,0,1-.309.594l.012.009-.014-.01-.9.989.015-.017a6.767,6.767,0,0,0-3.078,1.557,5.824,5.824,0,0,0-1.753,4.607H80.3a5.825,5.825,0,0,0-1.752-4.607" transform="translate(0)"/><path class="cls-1" d="M99.756,38.944a6.767,6.767,0,0,0-3.078-1.557l.014.017-.9-.989,0,0a2.162,2.162,0,0,1-.278-.619h0A6.415,6.415,0,0,0,96,35.37a4.527,4.527,0,0,0,1.361-2.255,4.5,4.5,0,0,0,1-1.5,1.548,1.548,0,0,0-.058-1.4,1.117,1.117,0,0,0-.393-.358c.19-1.211.471-5.233-4.221-5.233-5.524,0-4.394,3.56-4.394,4.461a1.508,1.508,0,0,0,.137.791,1.121,1.121,0,0,0-.358.339,1.552,1.552,0,0,0-.059,1.4,4.52,4.52,0,0,0,1.005,1.5,4.52,4.52,0,0,0,1.361,2.255,6.115,6.115,0,0,0,.526.46l-.012-.008a2.418,2.418,0,0,1-.309.594l.013.009-.014-.01-.9.989.014-.017a6.768,6.768,0,0,0-3.077,1.557,5.82,5.82,0,0,0-1.753,4.607h15.637a5.824,5.824,0,0,0-1.753-4.607" transform="translate(0)"/><path class="cls-1" d="M78.543,62.567a6.773,6.773,0,0,0-3.078-1.557l.014.017-.9-.989,0,0a2.162,2.162,0,0,1-.278-.619h0a6.227,6.227,0,0,0,.487-.43,4.513,4.513,0,0,0,1.361-2.255,4.5,4.5,0,0,0,1-1.5,1.548,1.548,0,0,0-.058-1.4,1.121,1.121,0,0,0-.393-.359c.191-1.21.472-5.232-4.22-5.232-5.525,0-4.395,3.56-4.395,4.461a1.508,1.508,0,0,0,.138.791,1.124,1.124,0,0,0-.359.339,1.548,1.548,0,0,0-.058,1.4,4.49,4.49,0,0,0,1,1.5,4.518,4.518,0,0,0,1.36,2.255,6.134,6.134,0,0,0,.527.46l-.012-.008a2.488,2.488,0,0,1-.309.594l.012.009-.014-.01-.9.989.015-.017a6.767,6.767,0,0,0-3.078,1.557,5.824,5.824,0,0,0-1.753,4.607H80.3a5.825,5.825,0,0,0-1.752-4.607" transform="translate(0)"/><path class="cls-1" d="M99.756,62.567a6.767,6.767,0,0,0-3.078-1.557l.014.017-.9-.989,0,0a2.162,2.162,0,0,1-.278-.619h0a6.415,6.415,0,0,0,.487-.43,4.527,4.527,0,0,0,1.361-2.255,4.5,4.5,0,0,0,1-1.5,1.548,1.548,0,0,0-.058-1.4,1.129,1.129,0,0,0-.393-.359c.19-1.21.471-5.232-4.221-5.232-5.524,0-4.394,3.56-4.394,4.461a1.508,1.508,0,0,0,.137.791,1.111,1.111,0,0,0-.358.339,1.552,1.552,0,0,0-.059,1.4,4.52,4.52,0,0,0,1.005,1.5,4.52,4.52,0,0,0,1.361,2.255,6.115,6.115,0,0,0,.526.46l-.012-.008a2.418,2.418,0,0,1-.309.594l.013.009-.014-.01-.9.989.014-.017a6.768,6.768,0,0,0-3.077,1.557,5.82,5.82,0,0,0-1.753,4.607h15.637a5.824,5.824,0,0,0-1.753-4.607" transform="translate(0)"/><path class="cls-1" d="M120.97,38.944a6.773,6.773,0,0,0-3.078-1.557l.014.017-.9-.989,0,0a2.193,2.193,0,0,1-.279-.619h0a6.227,6.227,0,0,0,.487-.43,4.513,4.513,0,0,0,1.361-2.255,4.488,4.488,0,0,0,1-1.5,1.548,1.548,0,0,0-.058-1.4,1.106,1.106,0,0,0-.392-.358c.19-1.211.471-5.233-4.221-5.233-5.525,0-4.395,3.56-4.395,4.461a1.508,1.508,0,0,0,.138.791,1.135,1.135,0,0,0-.359.339,1.548,1.548,0,0,0-.058,1.4,4.505,4.505,0,0,0,1.005,1.5,4.518,4.518,0,0,0,1.36,2.255,6.134,6.134,0,0,0,.527.46l-.012-.008a2.488,2.488,0,0,1-.309.594l.012.009-.014-.01-.9.989.014-.017a6.767,6.767,0,0,0-3.078,1.557,5.824,5.824,0,0,0-1.753,4.607h15.637a5.821,5.821,0,0,0-1.752-4.607" transform="translate(0)"/><path class="cls-1" d="M142.184,38.944a6.771,6.771,0,0,0-3.079-1.557l.015.017-.9-.989,0,0a2.162,2.162,0,0,1-.278-.619h0a6.227,6.227,0,0,0,.487-.43,4.527,4.527,0,0,0,1.361-2.255,4.5,4.5,0,0,0,1-1.5,1.548,1.548,0,0,0-.058-1.4,1.108,1.108,0,0,0-.393-.358c.191-1.211.471-5.233-4.221-5.233-5.524,0-4.394,3.56-4.394,4.461a1.5,1.5,0,0,0,.138.791,1.124,1.124,0,0,0-.359.339,1.548,1.548,0,0,0-.058,1.4,4.5,4.5,0,0,0,1,1.5,4.52,4.52,0,0,0,1.361,2.255,6.115,6.115,0,0,0,.526.46l-.012-.008a2.418,2.418,0,0,1-.309.594l.013.009-.014-.01-.9.989.014-.017a6.768,6.768,0,0,0-3.077,1.557,5.82,5.82,0,0,0-1.753,4.607h15.637a5.825,5.825,0,0,0-1.752-4.607" transform="translate(0)"/><path class="cls-1" d="M142.184,62.567A6.771,6.771,0,0,0,139.1,61.01l.015.017-.9-.989,0,0a2.162,2.162,0,0,1-.278-.619h0a6.227,6.227,0,0,0,.487-.43,4.527,4.527,0,0,0,1.361-2.255,4.5,4.5,0,0,0,1-1.5,1.548,1.548,0,0,0-.058-1.4,1.121,1.121,0,0,0-.393-.359c.191-1.21.471-5.232-4.221-5.232-5.524,0-4.394,3.56-4.394,4.461a1.5,1.5,0,0,0,.138.791,1.114,1.114,0,0,0-.359.339,1.548,1.548,0,0,0-.058,1.4,4.5,4.5,0,0,0,1,1.5,4.52,4.52,0,0,0,1.361,2.255,6.115,6.115,0,0,0,.526.46l-.012-.008a2.418,2.418,0,0,1-.309.594l.013.009-.014-.01-.9.989.014-.017a6.768,6.768,0,0,0-3.077,1.557,5.82,5.82,0,0,0-1.753,4.607h15.637a5.825,5.825,0,0,0-1.752-4.607" transform="translate(0)"/><path class="cls-2" d="M78.543,15.321a6.773,6.773,0,0,0-3.078-1.557l.014.017-.9-.989,0,0a2.162,2.162,0,0,1-.278-.619h0a6.227,6.227,0,0,0,.487-.43,4.514,4.514,0,0,0,1.361-2.254,4.517,4.517,0,0,0,1-1.5,1.548,1.548,0,0,0-.058-1.4,1.118,1.118,0,0,0-.393-.358C76.889,5.022,77.17,1,72.478,1c-5.525,0-4.395,3.56-4.395,4.461a1.508,1.508,0,0,0,.138.791,1.135,1.135,0,0,0-.359.339,1.548,1.548,0,0,0-.058,1.4,4.5,4.5,0,0,0,1,1.5,4.52,4.52,0,0,0,1.36,2.254,6.134,6.134,0,0,0,.527.46l-.012-.008a2.488,2.488,0,0,1-.309.594l.012.009-.014-.01-.9.989.015-.017a6.767,6.767,0,0,0-3.078,1.557,5.824,5.824,0,0,0-1.753,4.607H80.3a5.825,5.825,0,0,0-1.752-4.607" transform="translate(0)"/><path class="cls-2" d="M14.9,38.944a6.773,6.773,0,0,0-3.078-1.557l.014.017-.9-.989,0,0a2.193,2.193,0,0,1-.279-.619h0a6.05,6.05,0,0,0,.487-.43,4.522,4.522,0,0,0,1.362-2.255,4.518,4.518,0,0,0,1-1.5,1.552,1.552,0,0,0-.059-1.4,1.106,1.106,0,0,0-.392-.358c.19-1.211.471-5.233-4.221-5.233-5.524,0-4.395,3.56-4.395,4.461a1.508,1.508,0,0,0,.138.791,1.135,1.135,0,0,0-.359.339,1.548,1.548,0,0,0-.058,1.4,4.505,4.505,0,0,0,1,1.5,4.526,4.526,0,0,0,1.36,2.255,6.134,6.134,0,0,0,.527.46l-.012-.008a2.488,2.488,0,0,1-.309.594l.012.009-.014-.01-.9.989.014-.017A6.767,6.767,0,0,0,2.77,38.944a5.824,5.824,0,0,0-1.753,4.607H16.654A5.821,5.821,0,0,0,14.9,38.944" transform="translate(0)"/><path class="cls-2" d="M57.329,62.567a6.773,6.773,0,0,0-3.078-1.557l.014.017-.9-.989,0,0a2.193,2.193,0,0,1-.279-.619h0a6.05,6.05,0,0,0,.487-.43,4.522,4.522,0,0,0,1.362-2.255,4.518,4.518,0,0,0,1-1.5,1.548,1.548,0,0,0-.059-1.4,1.118,1.118,0,0,0-.392-.359c.19-1.21.471-5.232-4.221-5.232-5.524,0-4.394,3.56-4.394,4.461a1.508,1.508,0,0,0,.137.791,1.111,1.111,0,0,0-.358.339,1.548,1.548,0,0,0-.059,1.4,4.52,4.52,0,0,0,1,1.5,4.52,4.52,0,0,0,1.361,2.255,5.968,5.968,0,0,0,.526.46l-.012-.008a2.488,2.488,0,0,1-.309.594l.013.009-.015-.01-.9.989.014-.017A6.768,6.768,0,0,0,45.2,62.567a5.822,5.822,0,0,0-1.754,4.607H59.082a5.824,5.824,0,0,0-1.753-4.607" transform="translate(0)"/><path class="cls-2" d="M120.97,62.567a6.773,6.773,0,0,0-3.078-1.557l.014.017-.9-.989,0,0a2.193,2.193,0,0,1-.279-.619h0a6.227,6.227,0,0,0,.487-.43,4.513,4.513,0,0,0,1.361-2.255,4.488,4.488,0,0,0,1-1.5,1.548,1.548,0,0,0-.058-1.4,1.118,1.118,0,0,0-.392-.359c.19-1.21.471-5.232-4.221-5.232-5.525,0-4.395,3.56-4.395,4.461a1.508,1.508,0,0,0,.138.791,1.124,1.124,0,0,0-.359.339,1.548,1.548,0,0,0-.058,1.4,4.505,4.505,0,0,0,1.005,1.5,4.518,4.518,0,0,0,1.36,2.255,6.134,6.134,0,0,0,.527.46l-.012-.008a2.488,2.488,0,0,1-.309.594l.012.009-.014-.01-.9.989.014-.017a6.767,6.767,0,0,0-3.078,1.557,5.824,5.824,0,0,0-1.753,4.607h15.637a5.821,5.821,0,0,0-1.752-4.607" transform="translate(0)"/><g class="cls-3"><polygon class="cls-4" points="78.011 79.766 69.424 84.756 60.785 79.768 69.371 74.778 78.011 79.766"/><polygon class="cls-4" points="78.011 79.766 77.976 90.01 69.389 95 69.424 84.756 78.011 79.766"/><polygon class="cls-4" points="69.424 84.756 69.389 95 60.75 90.012 60.785 79.768 69.424 84.756"/></g><g class="cls-3"><polygon class="cls-4" points="99.637 79.766 91.051 84.756 82.411 79.768 90.998 74.778 99.637 79.766"/><polygon class="cls-4" points="99.637 79.766 99.603 90.01 91.016 95 91.051 84.756 99.637 79.766"/><polygon class="cls-4" points="91.051 84.756 91.016 95 82.377 90.012 82.411 79.768 91.051 84.756"/></g><g class="cls-3"><polygon class="cls-4" points="121.264 79.766 112.678 84.756 104.038 79.768 112.625 74.778 121.264 79.766"/><polygon class="cls-4" points="121.264 79.766 121.229 90.01 112.643 95 112.678 84.756 121.264 79.766"/><polygon class="cls-4" points="112.678 84.756 112.643 95 104.003 90.012 104.038 79.768 112.678 84.756"/></g><g class="cls-3"><polygon class="cls-4" points="142.891 79.766 134.304 84.756 125.665 79.768 134.251 74.778 142.891 79.766"/><polygon class="cls-4" points="142.891 79.766 142.856 90.01 134.269 95 134.304 84.756 142.891 79.766"/><polygon class="cls-4" points="134.304 84.756 134.269 95 125.63 90.012 125.665 79.768 134.304 84.756"/></g><g class="cls-3"><polygon class="cls-4" points="159.821 78.328 153.709 81.88 147.56 78.33 153.671 74.778 159.821 78.328"/><polygon class="cls-4" points="159.821 78.328 159.796 85.62 153.684 89.171 153.709 81.88 159.821 78.328"/><polygon class="cls-4" points="153.709 81.88 153.684 89.171 147.535 85.621 147.56 78.33 153.709 81.88"/></g></svg>