<?xml version="1.0" encoding="utf-8"?>
<!-- Generator: Adobe Illustrator 24.0.2, SVG Export Plug-In . SVG Version: 6.00 Build 0)  -->
<svg version="1.1" xmlns="http://www.w3.org/2000/svg" xmlns:xlink="http://www.w3.org/1999/xlink" x="0px" y="0px"
	 viewBox="0 0 60 60" style="enable-background:new 0 0 60 60;" xml:space="preserve">
<style type="text/css">
	.st0{display:none;}
	.st1{display:inline;}
	.st2{fill:#474747;}
	.st3{fill:#ACACAC;}
</style>
<g id="Layer_1" class="st0">
	<g id="Clock_1" class="st1">
		<path class="st2" d="M56.332,30c0,14.543-11.789,26.332-26.332,26.332C15.457,56.332,3.668,44.543,3.668,30S15.457,3.668,30,3.668
			C44.543,3.668,56.332,15.457,56.332,30z M30,7.179C17.396,7.179,7.179,17.396,7.179,30S17.396,52.821,30,52.821
			S52.821,42.604,52.821,30S42.604,7.179,30,7.179z M20.024,45.524l-0.878,1.52c-0.242,0.42-0.099,0.957,0.321,1.199l0,0
			c0.42,0.242,0.957,0.099,1.199-0.321l0.878-1.52c0.242-0.42,0.099-0.957-0.321-1.199l0,0
			C20.803,44.96,20.266,45.104,20.024,45.524z M39.334,12.078l-0.878,1.52c-0.242,0.42-0.099,0.957,0.321,1.199l0,0
			c0.42,0.242,0.957,0.099,1.199-0.321l0.878-1.52c0.242-0.42,0.099-0.957-0.321-1.199l0,0
			C40.113,11.514,39.576,11.658,39.334,12.078z M13.598,38.456l-1.52,0.878c-0.42,0.242-0.564,0.779-0.321,1.199l0,0
			c0.242,0.42,0.779,0.564,1.199,0.321l1.52-0.878c0.42-0.242,0.564-0.779,0.321-1.199l0,0
			C14.555,38.357,14.018,38.214,13.598,38.456z M47.044,19.146l-1.52,0.878c-0.42,0.242-0.564,0.779-0.321,1.199l0,0
			c0.242,0.42,0.779,0.564,1.199,0.321l1.52-0.878c0.42-0.242,0.564-0.779,0.321-1.199l0,0
			C48.001,19.048,47.464,18.904,47.044,19.146z M11.568,29.122H9.812c-0.485,0-0.878,0.393-0.878,0.878l0,0
			c0,0.485,0.393,0.878,0.878,0.878h1.755c0.485,0,0.878-0.393,0.878-0.878l0,0C12.446,29.515,12.053,29.122,11.568,29.122z
			 M50.188,29.122h-1.755c-0.485,0-0.878,0.393-0.878,0.878l0,0c0,0.485,0.393,0.878,0.878,0.878h1.755
			c0.485,0,0.878-0.393,0.878-0.878l0,0C51.065,29.515,50.672,29.122,50.188,29.122z M14.476,20.024l-1.52-0.878
			c-0.42-0.242-0.957-0.099-1.199,0.321l0,0c-0.242,0.42-0.099,0.957,0.321,1.199l1.52,0.878c0.42,0.242,0.957,0.099,1.199-0.321
			l0,0C15.04,20.803,14.896,20.266,14.476,20.024z M47.922,39.334l-1.52-0.878c-0.42-0.242-0.957-0.099-1.199,0.321l0,0
			c-0.242,0.42-0.098,0.957,0.321,1.199l1.52,0.878c0.42,0.242,0.957,0.099,1.199-0.321l0,0
			C48.486,40.113,48.342,39.576,47.922,39.334z M21.544,13.598l-0.878-1.52c-0.242-0.42-0.779-0.564-1.199-0.321l0,0
			c-0.42,0.242-0.564,0.779-0.321,1.199l0.878,1.52c0.242,0.42,0.779,0.564,1.199,0.321l0,0
			C21.643,14.555,21.786,14.018,21.544,13.598z M40.854,47.044l-0.878-1.52c-0.242-0.42-0.779-0.564-1.199-0.321l0,0
			c-0.42,0.242-0.564,0.779-0.321,1.199l0.878,1.52c0.242,0.42,0.779,0.564,1.199,0.321l0,0
			C40.952,48.001,41.096,47.464,40.854,47.044z M30.878,11.568V9.812c0-0.485-0.393-0.878-0.878-0.878l0,0
			c-0.485,0-0.878,0.393-0.878,0.878v1.755c0,0.485,0.393,0.878,0.878,0.878l0,0C30.485,12.446,30.878,12.053,30.878,11.568z
			 M30.878,50.188v-1.755c0-0.485-0.393-0.878-0.878-0.878l0,0c-0.485,0-0.878,0.393-0.878,0.878v1.755
			c0,0.485,0.393,0.878,0.878,0.878l0,0C30.485,51.065,30.878,50.672,30.878,50.188z"/>
		<path class="st3" d="M30,14.201L30,14.201c-0.97,0-1.755,0.786-1.755,1.755v16.677c0,0.97,0.786,1.755,1.755,1.755l0,0
			c0.97,0,1.755-0.786,1.755-1.755V15.956C31.755,14.987,30.97,14.201,30,14.201z"/>
		<path class="st3" d="M41.41,30L41.41,30c0-0.97-0.786-1.755-1.755-1.755H27.367c-0.97,0-1.755,0.786-1.755,1.755l0,0
			c0,0.97,0.786,1.755,1.755,1.755h12.288C40.624,31.755,41.41,30.97,41.41,30z"/>
	</g>
</g>
<g id="Layer_2" class="st0">
	<g class="st1">
		<g>
			<g>
				<path class="st2" d="M11.715,14.757c-0.178,0-0.358-0.047-0.522-0.145c-0.437-0.263-0.806-0.58-1.097-0.944
					c-0.604-0.626-0.935-1.447-0.935-2.319c0-1.843,1.499-3.342,3.342-3.342c1.698,0,3.104,1.273,3.315,2.914
					c1.247,0.144,3.104-0.297,5.013-1.68c2.486-1.8,5.546-2.151,7.675-2.127c0.56,0.006,1.009,0.465,1.003,1.025
					c-0.006,0.56-0.463,1.007-1.025,1.003c-3.48-0.038-5.544,1.075-6.464,1.742c-2.123,1.537-4.133,2.091-5.712,2.091
					c-0.717,0-1.346-0.114-1.856-0.302c-0.455-0.167-0.728-0.633-0.651-1.112c0.011-0.071,0.017-0.142,0.017-0.211
					c0-0.725-0.59-1.315-1.315-1.315s-1.315,0.59-1.315,1.315c0,0.352,0.137,0.682,0.386,0.93c0.031,0.031,0.059,0.063,0.086,0.097
					c0.143,0.185,0.338,0.353,0.578,0.497c0.48,0.289,0.635,0.911,0.346,1.391C12.394,14.582,12.059,14.757,11.715,14.757z"/>
				<g>
					<g>
						<path class="st2" d="M20.703,29.81c-0.374,0-0.734-0.208-0.91-0.566l-7.193-14.606L5.406,29.244
							c-0.247,0.502-0.855,0.709-1.357,0.462c-0.502-0.247-0.709-0.855-0.462-1.357l8.103-16.453
							c0.171-0.346,0.523-0.566,0.909-0.566s0.739,0.219,0.909,0.566l8.103,16.453c0.247,0.502,0.041,1.11-0.462,1.357
							C21.006,29.777,20.853,29.81,20.703,29.81z"/>
						<path class="st2" d="M12.599,29.775c-0.56,0-1.014-0.454-1.014-1.014V12.343c0-0.56,0.454-1.014,1.014-1.014
							c0.56,0,1.014,0.454,1.014,1.014v16.418C13.613,29.321,13.159,29.775,12.599,29.775z"/>
						<path class="st3" d="M12.599,38.766c-5.483,0-9.943-4.46-9.943-9.943c0-0.56,0.454-1.014,1.014-1.014h17.859
							c0.56,0,1.014,0.454,1.014,1.014C22.543,34.306,18.082,38.766,12.599,38.766z"/>
					</g>
				</g>
			</g>
			<g>
				<path class="st2" d="M48.285,14.757c-0.344,0-0.679-0.175-0.87-0.491c-0.289-0.48-0.134-1.103,0.346-1.391
					c0.241-0.145,0.435-0.312,0.578-0.497c0.027-0.034,0.055-0.067,0.086-0.097c0.249-0.248,0.386-0.579,0.386-0.93
					c0-0.725-0.59-1.315-1.315-1.315c-0.725,0-1.315,0.59-1.315,1.315c0,0.069,0.006,0.14,0.017,0.211
					c0.077,0.479-0.196,0.945-0.651,1.112c-1.635,0.601-4.482,0.447-7.569-1.789c-0.921-0.667-2.985-1.779-6.464-1.742
					c-0.004,0-0.008,0-0.011,0c-0.555,0-1.007-0.447-1.013-1.003c-0.006-0.56,0.443-1.019,1.003-1.025
					c2.13-0.024,5.19,0.327,7.675,2.127c1.436,1.04,3.439,1.884,5.013,1.687c0.208-1.645,1.616-2.921,3.316-2.921
					c1.843,0,3.342,1.499,3.342,3.342c0,0.872-0.332,1.693-0.935,2.319c-0.292,0.364-0.661,0.681-1.097,0.944
					C48.643,14.711,48.463,14.757,48.285,14.757z"/>
				<g>
					<g>
						<path class="st2" d="M55.504,29.81c-0.374,0-0.734-0.208-0.91-0.566l-7.193-14.606l-7.193,14.606
							c-0.247,0.502-0.855,0.709-1.357,0.462c-0.502-0.247-0.709-0.855-0.462-1.357l8.103-16.453
							c0.171-0.346,0.523-0.566,0.909-0.566s0.739,0.219,0.909,0.566l8.103,16.453c0.247,0.502,0.041,1.11-0.462,1.357
							C55.807,29.777,55.654,29.81,55.504,29.81z"/>
						<path class="st2" d="M47.401,29.775c-0.56,0-1.014-0.454-1.014-1.014V12.343c0-0.56,0.454-1.014,1.014-1.014
							c0.56,0,1.014,0.454,1.014,1.014v16.418C48.414,29.321,47.961,29.775,47.401,29.775z"/>
						<path class="st3" d="M47.401,38.766c-5.483,0-9.943-4.46-9.943-9.943c0-0.56,0.454-1.014,1.014-1.014H56.33
							c0.56,0,1.014,0.454,1.014,1.014C57.344,34.306,52.883,38.766,47.401,38.766z"/>
					</g>
				</g>
			</g>
			<path class="st2" d="M40.66,53.275H19.261c-0.56,0-1.014-0.454-1.014-1.014v-4.771c0-0.56,0.454-1.014,1.014-1.014H40.66
				c0.56,0,1.014,0.454,1.014,1.014v4.771C41.674,52.821,41.22,53.275,40.66,53.275z M20.275,51.247h19.372v-2.743H20.275V51.247z"
				/>
			<path class="st2" d="M40.649,48.505c-0.136,0-0.274-0.028-0.407-0.086l-8.444-3.703H27.58l-7.878,3.692
				c-0.507,0.238-1.111,0.019-1.348-0.488c-0.238-0.507-0.019-1.111,0.488-1.348l8.083-3.788c0.135-0.063,0.282-0.096,0.43-0.096
				h4.657c0.14,0,0.279,0.029,0.407,0.085l8.639,3.788c0.513,0.225,0.746,0.823,0.521,1.336
				C41.412,48.278,41.04,48.505,40.649,48.505z"/>
			<path class="st2" d="M32.213,44.695h-4.505c-0.56,0-1.014-0.454-1.014-1.014V16.745l-2.165-2.308
				c-0.276-0.295-0.351-0.726-0.191-1.096c0.161-0.371,0.526-0.611,0.93-0.611h9.383c0.404,0,0.77,0.24,0.93,0.611
				c0.161,0.371,0.086,0.802-0.191,1.096l-2.165,2.308v26.937C33.227,44.241,32.773,44.695,32.213,44.695z M28.722,42.668h2.477
				V16.344c0-0.258,0.098-0.506,0.274-0.694l0.838-0.893H27.61l0.838,0.893c0.176,0.188,0.274,0.436,0.274,0.694V42.668z"/>
			<path class="st2" d="M29.961,14.662c-2.188,0-3.968-1.78-3.968-3.968s1.78-3.968,3.968-3.968c2.188,0,3.968,1.78,3.968,3.968
				S32.149,14.662,29.961,14.662z M29.961,8.753c-1.07,0-1.941,0.871-1.941,1.941s0.871,1.941,1.941,1.941
				c1.07,0,1.941-0.871,1.941-1.941S31.031,8.753,29.961,8.753z"/>
			<path class="st2" d="M29.961,14.662c-2.188,0-3.968-1.78-3.968-3.968s1.78-3.968,3.968-3.968c2.188,0,3.968,1.78,3.968,3.968
				S32.149,14.662,29.961,14.662z M29.961,8.753c-1.07,0-1.941,0.871-1.941,1.941s0.871,1.941,1.941,1.941
				c1.07,0,1.941-0.871,1.941-1.941S31.031,8.753,29.961,8.753z"/>
		</g>
	</g>
</g>
<g id="Layer_3">
	<g>
		<g>
			<path class="st2" d="M38.15,14.925H21.85V6.286H38.15V14.925z M24.126,12.649h11.747V8.563H24.126V12.649z"/>
		</g>
		<g>
			<path class="st2" d="M46.885,27.855h-16.3v-8.639h16.3V27.855z M32.862,25.578h11.747v-4.086H32.862V25.578z"/>
		</g>
		<g>
			<path class="st2" d="M21.675,40.784H6.286v-8.639h15.389V40.784z M8.563,38.507h10.836v-4.086H8.563V38.507z"/>
		</g>
		<g>
			<path class="st2" d="M38.15,53.714H21.85v-8.64H38.15V53.714z M24.126,51.437h11.747V47.35H24.126V51.437z"/>
		</g>
		<g>
			<path class="st2" d="M53.714,40.784H38.325v-8.639h15.389V40.784z M40.601,38.507h10.836v-4.086H40.601V38.507z"/>
		</g>
		<g>
			<path class="st3" d="M12.559,53.714c-2.382,0-4.32-1.938-4.32-4.32s1.938-4.32,4.32-4.32c2.381,0,4.319,1.938,4.319,4.32
				S14.94,53.714,12.559,53.714z"/>
		</g>
		<g>
			<rect x="33.611" y="13.787" class="st2" width="2.277" height="3.883"/>
		</g>
		<g>
			<rect x="24.101" y="22.397" class="st2" width="4.733" height="2.277"/>
		</g>
		<g>
			<rect x="18.255" y="48.256" class="st2" width="4.733" height="2.277"/>
		</g>
		<g>
			<path class="st3" d="M47.441,53.714c-2.381,0-4.319-1.938-4.319-4.32s1.938-4.32,4.319-4.32c2.382,0,4.32,1.938,4.32,4.32
				S49.824,53.714,47.441,53.714z"/>
		</g>
		<g>
			<rect x="37.012" y="48.256" class="st2" width="4.733" height="2.277"/>
		</g>
		<g>
			<rect x="40.919" y="26.716" class="st2" width="2.277" height="3.761"/>
		</g>
		<g>
			<rect x="28.862" y="39.646" class="st2" width="2.277" height="3.761"/>
		</g>
		<g>
			<rect x="23.19" y="35.326" class="st2" width="3.629" height="2.277"/>
		</g>
		<g>
			<rect x="33.182" y="35.326" class="st2" width="3.628" height="2.277"/>
		</g>
		<g>
			<path class="st3" d="M20.92,27.855c-2.382,0-4.32-1.938-4.32-4.319c0-2.382,1.938-4.32,4.32-4.32c2.381,0,4.319,1.938,4.319,4.32
				C25.239,25.917,23.301,27.855,20.92,27.855z"/>
		</g>
		<g>
			<path class="st3" d="M30,40.784c-2.382,0-4.319-1.938-4.319-4.319c0-2.382,1.938-4.32,4.319-4.32c2.382,0,4.32,1.938,4.32,4.32
				C34.32,38.846,32.382,40.784,30,40.784z"/>
		</g>
	</g>
</g>
<g id="Layer_4">
</g>
</svg>
