<?xml version="1.0" encoding="utf-8"?>
<!-- Generator: Adobe Illustrator 24.0.2, SVG Export Plug-In . SVG Version: 6.00 Build 0)  -->
<svg version="1.1" id="Layer_1" xmlns="http://www.w3.org/2000/svg" xmlns:xlink="http://www.w3.org/1999/xlink" x="0px" y="0px"
	 viewBox="0 0 60 60" style="enable-background:new 0 0 60 60;" xml:space="preserve">
<style type="text/css">
	.st0{fill:#474747;}
	.st1{fill:#ACACAC;}
</style>
<g id="Clock_1">
	<path class="st0" d="M56.332,30c0,14.543-11.789,26.332-26.332,26.332C15.457,56.332,3.668,44.543,3.668,30S15.457,3.668,30,3.668
		C44.543,3.668,56.332,15.457,56.332,30z M30,7.179C17.396,7.179,7.179,17.396,7.179,30S17.396,52.821,30,52.821
		S52.821,42.604,52.821,30S42.604,7.179,30,7.179z M20.024,45.524l-0.878,1.52c-0.242,0.42-0.099,0.957,0.321,1.199l0,0
		c0.42,0.242,0.957,0.099,1.199-0.321l0.878-1.52c0.242-0.42,0.099-0.957-0.321-1.199l0,0C20.803,44.96,20.266,45.104,20.024,45.524
		z M39.334,12.078l-0.878,1.52c-0.242,0.42-0.099,0.957,0.321,1.199l0,0c0.42,0.242,0.957,0.099,1.199-0.321l0.878-1.52
		c0.242-0.42,0.099-0.957-0.321-1.199l0,0C40.113,11.514,39.576,11.658,39.334,12.078z M13.598,38.456l-1.52,0.878
		c-0.42,0.242-0.564,0.779-0.321,1.199l0,0c0.242,0.42,0.779,0.564,1.199,0.321l1.52-0.878c0.42-0.242,0.564-0.779,0.321-1.199l0,0
		C14.555,38.357,14.018,38.214,13.598,38.456z M47.044,19.146l-1.52,0.878c-0.42,0.242-0.564,0.779-0.321,1.199l0,0
		c0.242,0.42,0.779,0.564,1.199,0.321l1.52-0.878c0.42-0.242,0.564-0.779,0.321-1.199l0,0
		C48.001,19.048,47.464,18.904,47.044,19.146z M11.568,29.122H9.812c-0.485,0-0.878,0.393-0.878,0.878l0,0
		c0,0.485,0.393,0.878,0.878,0.878h1.755c0.485,0,0.878-0.393,0.878-0.878l0,0C12.446,29.515,12.053,29.122,11.568,29.122z
		 M50.188,29.122h-1.755c-0.485,0-0.878,0.393-0.878,0.878l0,0c0,0.485,0.393,0.878,0.878,0.878h1.755
		c0.485,0,0.878-0.393,0.878-0.878l0,0C51.065,29.515,50.672,29.122,50.188,29.122z M14.476,20.024l-1.52-0.878
		c-0.42-0.242-0.957-0.099-1.199,0.321l0,0c-0.242,0.42-0.099,0.957,0.321,1.199l1.52,0.878c0.42,0.242,0.957,0.099,1.199-0.321l0,0
		C15.04,20.803,14.896,20.266,14.476,20.024z M47.922,39.334l-1.52-0.878c-0.42-0.242-0.957-0.099-1.199,0.321l0,0
		c-0.242,0.42-0.098,0.957,0.321,1.199l1.52,0.878c0.42,0.242,0.957,0.099,1.199-0.321l0,0
		C48.486,40.113,48.342,39.576,47.922,39.334z M21.544,13.598l-0.878-1.52c-0.242-0.42-0.779-0.564-1.199-0.321l0,0
		c-0.42,0.242-0.564,0.779-0.321,1.199l0.878,1.52c0.242,0.42,0.779,0.564,1.199,0.321l0,0
		C21.643,14.555,21.786,14.018,21.544,13.598z M40.854,47.044l-0.878-1.52c-0.242-0.42-0.779-0.564-1.199-0.321l0,0
		c-0.42,0.242-0.564,0.779-0.321,1.199l0.878,1.52c0.242,0.42,0.779,0.564,1.199,0.321l0,0
		C40.952,48.001,41.096,47.464,40.854,47.044z M30.878,11.568V9.812c0-0.485-0.393-0.878-0.878-0.878l0,0
		c-0.485,0-0.878,0.393-0.878,0.878v1.755c0,0.485,0.393,0.878,0.878,0.878l0,0C30.485,12.446,30.878,12.053,30.878,11.568z
		 M30.878,50.188v-1.755c0-0.485-0.393-0.878-0.878-0.878l0,0c-0.485,0-0.878,0.393-0.878,0.878v1.755
		c0,0.485,0.393,0.878,0.878,0.878l0,0C30.485,51.065,30.878,50.672,30.878,50.188z"/>
	<path class="st1" d="M30,14.201L30,14.201c-0.97,0-1.755,0.786-1.755,1.755v16.677c0,0.97,0.786,1.755,1.755,1.755l0,0
		c0.97,0,1.755-0.786,1.755-1.755V15.956C31.755,14.987,30.97,14.201,30,14.201z"/>
	<path class="st1" d="M41.41,30L41.41,30c0-0.97-0.786-1.755-1.755-1.755H27.367c-0.97,0-1.755,0.786-1.755,1.755l0,0
		c0,0.97,0.786,1.755,1.755,1.755h12.288C40.624,31.755,41.41,30.97,41.41,30z"/>
</g>
</svg>
