<?xml version="1.0" encoding="utf-8"?>
<!-- Generator: Adobe Illustrator 24.0.2, SVG Export Plug-In . SVG Version: 6.00 Build 0)  -->
<svg version="1.1" xmlns="http://www.w3.org/2000/svg" xmlns:xlink="http://www.w3.org/1999/xlink" x="0px" y="0px"
	 viewBox="0 0 69.902 96" style="enable-background:new 0 0 69.902 96;" xml:space="preserve">
<style type="text/css">
	.st0{display:none;}
	
		.st1{display:inline;fill-rule:evenodd;clip-rule:evenodd;fill:#FFFFFF;stroke:#474747;stroke-width:2;stroke-linecap:round;stroke-linejoin:round;stroke-miterlimit:10;}
	
		.st2{display:inline;fill-rule:evenodd;clip-rule:evenodd;fill:#FFFFFF;stroke:#ACACAC;stroke-width:2;stroke-linecap:round;stroke-linejoin:round;stroke-miterlimit:10;}
	.st3{display:inline;}
	.st4{enable-background:new    ;}
	.st5{fill:#FFFFFF;stroke:#474747;stroke-width:2;stroke-linecap:round;stroke-linejoin:round;stroke-miterlimit:10;}
	.st6{fill:none;stroke:#474747;stroke-width:2;stroke-linecap:round;stroke-linejoin:round;stroke-miterlimit:10;}
	.st7{fill:none;stroke:#ACACAC;stroke-width:2;stroke-linecap:round;stroke-linejoin:round;stroke-miterlimit:10;}
</style>
<g id="Layer_1" class="st0">
	<path class="st1" d="M14.902,15.321c-0.709-0.657-1.699-1.222-3.078-1.557l0.014,0.017l-0.899-0.988c0,0-0.003,0.002-0.005,0.003
		c-0.14-0.195-0.21-0.41-0.279-0.619l0,0c0.178-0.141,0.342-0.288,0.487-0.43c0.526-0.515,1.279-1.46,1.361-2.254
		c0.411-0.426,0.8-0.944,1.004-1.498c0.167-0.452,0.223-0.982-0.058-1.403c-0.105-0.157-0.239-0.274-0.393-0.359
		C13.248,5.022,13.529,1,8.837,1C3.313,1,4.442,4.56,4.442,5.461c0,0.323,0.017,0.611,0.138,0.792
		C4.441,6.336,4.318,6.447,4.221,6.591C3.94,7.012,3.996,7.543,4.163,7.994c0.205,0.554,0.593,1.072,1.005,1.498
		c0.083,0.794,0.835,1.739,1.36,2.254c0.156,0.153,0.334,0.311,0.526,0.46c-0.004-0.002-0.008-0.006-0.012-0.008
		c-0.079,0.208-0.175,0.411-0.309,0.594c0.002,0.001,0.006,0.005,0.013,0.009c-0.009-0.006-0.014-0.009-0.014-0.009l-0.899,0.988
		l0.014-0.017c-1.379,0.335-2.368,0.9-3.077,1.557c-2.069,1.915-1.753,4.606-1.753,4.606h15.637
		C16.654,19.928,16.971,17.237,14.902,15.321"/>
	<path class="st1" d="M36.116,15.321c-0.709-0.657-1.699-1.222-3.078-1.557l0.014,0.017l-0.899-0.988c0,0-0.003,0.002-0.005,0.003
		c-0.14-0.195-0.21-0.41-0.279-0.619l0,0c0.178-0.141,0.342-0.288,0.487-0.43c0.526-0.515,1.279-1.46,1.361-2.254
		c0.411-0.426,0.8-0.944,1.004-1.498c0.167-0.452,0.223-0.982-0.058-1.403c-0.105-0.157-0.239-0.274-0.393-0.359
		C34.462,5.022,34.743,1,30.051,1c-5.524,0-4.395,3.56-4.395,4.461c0,0.323,0.017,0.611,0.138,0.792
		c-0.139,0.083-0.262,0.194-0.359,0.339c-0.281,0.421-0.225,0.951-0.058,1.403c0.205,0.554,0.593,1.072,1.005,1.498
		c0.083,0.794,0.835,1.739,1.36,2.254c0.156,0.153,0.334,0.311,0.526,0.46c-0.004-0.002-0.008-0.006-0.012-0.008
		c-0.079,0.208-0.175,0.411-0.309,0.594c0.002,0.001,0.006,0.005,0.013,0.009c-0.009-0.006-0.014-0.009-0.014-0.009l-0.899,0.988
		l0.014-0.017c-1.379,0.335-2.368,0.9-3.077,1.557c-2.069,1.915-1.753,4.606-1.753,4.606h15.637
		C37.868,19.928,38.184,17.237,36.116,15.321"/>
	<path class="st1" d="M14.902,62.567c-0.709-0.657-1.699-1.222-3.078-1.557l0.014,0.017l-0.899-0.988c0,0-0.003,0.002-0.005,0.003
		c-0.14-0.195-0.21-0.41-0.279-0.619l0,0c0.178-0.141,0.342-0.288,0.487-0.43c0.526-0.515,1.279-1.46,1.361-2.254
		c0.411-0.426,0.8-0.944,1.004-1.498c0.167-0.452,0.223-0.982-0.058-1.403c-0.105-0.157-0.239-0.274-0.393-0.359
		c0.19-1.211,0.471-5.233-4.221-5.233c-5.524,0-4.395,3.56-4.395,4.461c0,0.323,0.017,0.611,0.138,0.792
		c-0.139,0.083-0.262,0.194-0.359,0.339c-0.281,0.421-0.225,0.951-0.058,1.403c0.205,0.554,0.593,1.072,1.005,1.498
		c0.083,0.794,0.835,1.739,1.36,2.254c0.156,0.153,0.334,0.311,0.526,0.46c-0.004-0.002-0.008-0.006-0.012-0.008
		c-0.079,0.208-0.175,0.411-0.309,0.594c0.002,0.001,0.006,0.005,0.013,0.009c-0.009-0.006-0.014-0.009-0.014-0.009l-0.899,0.988
		l0.014-0.017c-1.379,0.335-2.368,0.9-3.077,1.557c-2.069,1.915-1.753,4.606-1.753,4.606h15.637
		C16.654,67.174,16.971,64.483,14.902,62.567"/>
	<path class="st1" d="M36.116,62.567c-0.709-0.657-1.699-1.222-3.078-1.557l0.014,0.017l-0.899-0.988c0,0-0.003,0.002-0.005,0.003
		c-0.14-0.195-0.21-0.41-0.279-0.619l0,0c0.178-0.141,0.342-0.288,0.487-0.43c0.526-0.515,1.279-1.46,1.361-2.254
		c0.411-0.426,0.8-0.944,1.004-1.498c0.167-0.452,0.223-0.982-0.058-1.403c-0.105-0.157-0.239-0.274-0.393-0.359
		c0.19-1.211,0.471-5.233-4.221-5.233c-5.524,0-4.395,3.56-4.395,4.461c0,0.323,0.017,0.611,0.138,0.792
		c-0.139,0.083-0.262,0.194-0.359,0.339c-0.281,0.421-0.225,0.951-0.058,1.403c0.205,0.554,0.593,1.072,1.005,1.498
		c0.083,0.794,0.835,1.739,1.36,2.254c0.156,0.153,0.334,0.311,0.526,0.46c-0.004-0.002-0.008-0.006-0.012-0.008
		c-0.079,0.208-0.175,0.411-0.309,0.594c0.002,0.001,0.006,0.005,0.013,0.009c-0.009-0.006-0.014-0.009-0.014-0.009l-0.899,0.988
		l0.014-0.017c-1.379,0.335-2.368,0.9-3.077,1.557c-2.069,1.915-1.753,4.606-1.753,4.606h15.637
		C37.868,67.174,38.184,64.483,36.116,62.567"/>
	<path class="st1" d="M57.329,15.321c-0.709-0.657-1.699-1.222-3.078-1.557l0.014,0.017l-0.899-0.988c0,0-0.003,0.002-0.005,0.003
		c-0.14-0.195-0.21-0.41-0.279-0.619l0,0c0.178-0.141,0.342-0.288,0.487-0.43c0.526-0.515,1.279-1.46,1.361-2.254
		c0.411-0.426,0.8-0.944,1.004-1.498c0.167-0.452,0.223-0.982-0.058-1.403c-0.105-0.157-0.239-0.274-0.393-0.359
		C55.675,5.022,55.956,1,51.264,1C45.74,1,46.87,4.56,46.87,5.461c0,0.323,0.017,0.611,0.138,0.792
		c-0.139,0.083-0.262,0.194-0.359,0.339c-0.281,0.421-0.225,0.951-0.058,1.403c0.205,0.554,0.593,1.072,1.005,1.498
		c0.083,0.794,0.835,1.739,1.36,2.254c0.156,0.153,0.334,0.311,0.526,0.46c-0.004-0.002-0.008-0.006-0.012-0.008
		c-0.079,0.208-0.175,0.411-0.309,0.594c0.002,0.001,0.006,0.005,0.013,0.009c-0.009-0.006-0.014-0.009-0.014-0.009l-0.899,0.988
		l0.014-0.017c-1.379,0.335-2.368,0.9-3.077,1.557c-2.069,1.915-1.753,4.606-1.753,4.606h15.637
		C59.082,19.928,59.398,17.237,57.329,15.321"/>
	<path class="st1" d="M99.756,15.321c-0.709-0.657-1.699-1.222-3.078-1.557l0.014,0.017l-0.899-0.988c0,0-0.003,0.002-0.005,0.003
		c-0.14-0.195-0.21-0.41-0.279-0.619l0,0c0.178-0.141,0.342-0.288,0.487-0.43c0.526-0.515,1.279-1.46,1.361-2.254
		c0.411-0.426,0.8-0.944,1.004-1.498c0.167-0.452,0.223-0.982-0.058-1.403c-0.105-0.157-0.239-0.274-0.393-0.359
		C98.102,5.022,98.383,1,93.691,1c-5.524,0-4.395,3.56-4.395,4.461c0,0.323,0.017,0.611,0.138,0.792
		c-0.139,0.083-0.262,0.194-0.359,0.339c-0.281,0.421-0.225,0.951-0.058,1.403c0.205,0.554,0.593,1.072,1.005,1.498
		c0.083,0.794,0.835,1.739,1.36,2.254c0.156,0.153,0.334,0.311,0.526,0.46c-0.004-0.002-0.008-0.006-0.012-0.008
		c-0.079,0.208-0.175,0.411-0.309,0.594c0.002,0.001,0.006,0.005,0.013,0.009c-0.009-0.006-0.014-0.009-0.014-0.009l-0.899,0.988
		l0.014-0.017c-1.379,0.335-2.368,0.9-3.077,1.557c-2.069,1.915-1.753,4.606-1.753,4.606h15.637
		C101.509,19.928,101.825,17.237,99.756,15.321"/>
	<path class="st1" d="M120.97,15.321c-0.709-0.657-1.699-1.222-3.078-1.557l0.014,0.017l-0.899-0.988c0,0-0.003,0.002-0.005,0.003
		c-0.14-0.195-0.21-0.41-0.279-0.619l0,0c0.178-0.141,0.342-0.288,0.487-0.43c0.526-0.515,1.279-1.46,1.361-2.254
		c0.411-0.426,0.8-0.944,1.004-1.498c0.167-0.452,0.223-0.982-0.058-1.403c-0.105-0.157-0.239-0.274-0.393-0.359
		C119.316,5.022,119.597,1,114.905,1c-5.524,0-4.395,3.56-4.395,4.461c0,0.323,0.017,0.611,0.138,0.792
		c-0.139,0.083-0.262,0.194-0.359,0.339c-0.281,0.421-0.225,0.951-0.058,1.403c0.205,0.554,0.593,1.072,1.005,1.498
		c0.083,0.794,0.835,1.739,1.36,2.254c0.156,0.153,0.334,0.311,0.526,0.46c-0.004-0.002-0.008-0.006-0.012-0.008
		c-0.079,0.208-0.175,0.411-0.309,0.594c0.002,0.001,0.006,0.005,0.013,0.009c-0.009-0.006-0.014-0.009-0.014-0.009l-0.899,0.988
		l0.014-0.017c-1.379,0.335-2.368,0.9-3.077,1.557c-2.069,1.915-1.753,4.606-1.753,4.606h15.637
		C122.722,19.928,123.039,17.237,120.97,15.321"/>
	<path class="st1" d="M142.184,15.321c-0.709-0.657-1.699-1.222-3.078-1.557l0.014,0.017l-0.899-0.988c0,0-0.003,0.002-0.005,0.003
		c-0.14-0.195-0.21-0.41-0.279-0.619l0,0c0.178-0.141,0.342-0.288,0.487-0.43c0.526-0.515,1.279-1.46,1.361-2.254
		c0.411-0.426,0.8-0.944,1.004-1.498c0.167-0.452,0.223-0.982-0.058-1.403c-0.105-0.157-0.239-0.274-0.393-0.359
		C140.53,5.022,140.81,1,136.118,1c-5.524,0-4.395,3.56-4.395,4.461c0,0.323,0.017,0.611,0.138,0.792
		c-0.139,0.083-0.262,0.194-0.359,0.339c-0.281,0.421-0.225,0.951-0.058,1.403c0.205,0.554,0.593,1.072,1.005,1.498
		c0.083,0.794,0.835,1.739,1.36,2.254c0.156,0.153,0.334,0.311,0.526,0.46c-0.004-0.002-0.008-0.006-0.012-0.008
		c-0.079,0.208-0.175,0.411-0.309,0.594c0.002,0.001,0.006,0.005,0.013,0.009c-0.009-0.006-0.014-0.009-0.014-0.009l-0.899,0.988
		l0.014-0.017c-1.379,0.335-2.368,0.9-3.077,1.557c-2.069,1.915-1.753,4.606-1.753,4.606h15.637
		C143.936,19.928,144.252,17.237,142.184,15.321"/>
	<path class="st1" d="M36.116,38.944c-0.709-0.657-1.699-1.222-3.078-1.557l0.014,0.017l-0.899-0.988c0,0-0.003,0.002-0.005,0.003
		c-0.14-0.195-0.21-0.41-0.279-0.619l0,0c0.178-0.141,0.342-0.288,0.487-0.43c0.526-0.515,1.279-1.46,1.361-2.254
		c0.411-0.426,0.8-0.944,1.004-1.498c0.167-0.452,0.223-0.982-0.058-1.403c-0.105-0.157-0.239-0.274-0.393-0.359
		c0.19-1.211,0.471-5.233-4.221-5.233c-5.524,0-4.395,3.56-4.395,4.461c0,0.323,0.017,0.611,0.138,0.792
		c-0.139,0.083-0.262,0.194-0.359,0.339c-0.281,0.421-0.225,0.951-0.058,1.403c0.205,0.554,0.593,1.072,1.005,1.498
		c0.083,0.794,0.835,1.739,1.36,2.254c0.156,0.153,0.334,0.311,0.526,0.46c-0.004-0.002-0.008-0.006-0.012-0.008
		c-0.079,0.208-0.175,0.411-0.309,0.594c0.002,0.001,0.006,0.005,0.013,0.009c-0.009-0.006-0.014-0.009-0.014-0.009l-0.899,0.988
		l0.014-0.017c-1.379,0.335-2.368,0.9-3.077,1.557c-2.069,1.915-1.753,4.606-1.753,4.606h15.637
		C37.868,43.551,38.184,40.86,36.116,38.944"/>
	<path class="st1" d="M57.329,38.944c-0.709-0.657-1.699-1.222-3.078-1.557l0.014,0.017l-0.899-0.988c0,0-0.003,0.002-0.005,0.003
		c-0.14-0.195-0.21-0.41-0.279-0.619l0,0c0.178-0.141,0.342-0.288,0.487-0.43c0.526-0.515,1.279-1.46,1.361-2.254
		c0.411-0.426,0.8-0.944,1.004-1.498c0.167-0.452,0.223-0.982-0.058-1.403c-0.105-0.157-0.239-0.274-0.393-0.359
		c0.19-1.211,0.471-5.233-4.221-5.233c-5.524,0-4.395,3.56-4.395,4.461c0,0.323,0.017,0.611,0.138,0.792
		c-0.139,0.083-0.262,0.194-0.359,0.339c-0.281,0.421-0.225,0.951-0.058,1.403c0.205,0.554,0.593,1.072,1.005,1.498
		c0.083,0.794,0.835,1.739,1.36,2.254c0.156,0.153,0.334,0.311,0.526,0.46c-0.004-0.002-0.008-0.006-0.012-0.008
		c-0.079,0.208-0.175,0.411-0.309,0.594c0.002,0.001,0.006,0.005,0.013,0.009c-0.009-0.006-0.014-0.009-0.014-0.009l-0.899,0.988
		l0.014-0.017c-1.379,0.335-2.368,0.9-3.077,1.557c-2.069,1.915-1.753,4.606-1.753,4.606h15.637
		C59.082,43.551,59.398,40.86,57.329,38.944"/>
	<path class="st1" d="M78.543,38.944c-0.709-0.657-1.699-1.222-3.078-1.557l0.014,0.017l-0.899-0.988c0,0-0.003,0.002-0.005,0.003
		c-0.14-0.195-0.21-0.41-0.279-0.619l0,0c0.178-0.141,0.342-0.288,0.487-0.43c0.526-0.515,1.279-1.46,1.361-2.254
		c0.411-0.426,0.8-0.944,1.004-1.498c0.167-0.452,0.223-0.982-0.058-1.403c-0.105-0.157-0.239-0.274-0.393-0.359
		c0.19-1.211,0.471-5.233-4.221-5.233c-5.524,0-4.395,3.56-4.395,4.461c0,0.323,0.017,0.611,0.138,0.792
		c-0.139,0.083-0.262,0.194-0.359,0.339c-0.281,0.421-0.225,0.951-0.058,1.403c0.205,0.554,0.593,1.072,1.005,1.498
		c0.083,0.794,0.835,1.739,1.36,2.254c0.156,0.153,0.334,0.311,0.526,0.46c-0.004-0.002-0.008-0.006-0.012-0.008
		c-0.079,0.208-0.175,0.411-0.309,0.594c0.002,0.001,0.006,0.005,0.013,0.009c-0.009-0.006-0.014-0.009-0.014-0.009l-0.899,0.988
		l0.014-0.017c-1.379,0.335-2.368,0.9-3.077,1.557c-2.069,1.915-1.753,4.606-1.753,4.606h15.637
		C80.295,43.551,80.611,40.86,78.543,38.944"/>
	<path class="st1" d="M99.756,38.944c-0.709-0.657-1.699-1.222-3.078-1.557l0.014,0.017l-0.899-0.988c0,0-0.003,0.002-0.005,0.003
		c-0.14-0.195-0.21-0.41-0.279-0.619l0,0c0.178-0.141,0.342-0.288,0.487-0.43c0.526-0.515,1.279-1.46,1.361-2.254
		c0.411-0.426,0.8-0.944,1.004-1.498c0.167-0.452,0.223-0.982-0.058-1.403c-0.105-0.157-0.239-0.274-0.393-0.359
		c0.19-1.211,0.471-5.233-4.221-5.233c-5.524,0-4.395,3.56-4.395,4.461c0,0.323,0.017,0.611,0.138,0.792
		c-0.139,0.083-0.262,0.194-0.359,0.339c-0.281,0.421-0.225,0.951-0.058,1.403c0.205,0.554,0.593,1.072,1.005,1.498
		c0.083,0.794,0.835,1.739,1.36,2.254c0.156,0.153,0.334,0.311,0.526,0.46c-0.004-0.002-0.008-0.006-0.012-0.008
		c-0.079,0.208-0.175,0.411-0.309,0.594c0.002,0.001,0.006,0.005,0.013,0.009c-0.009-0.006-0.014-0.009-0.014-0.009l-0.899,0.988
		l0.014-0.017c-1.379,0.335-2.368,0.9-3.077,1.557c-2.069,1.915-1.753,4.606-1.753,4.606h15.637
		C101.509,43.551,101.825,40.86,99.756,38.944"/>
	<path class="st1" d="M78.543,62.567c-0.709-0.657-1.699-1.222-3.078-1.557l0.014,0.017l-0.899-0.988c0,0-0.003,0.002-0.005,0.003
		c-0.14-0.195-0.21-0.41-0.279-0.619l0,0c0.178-0.141,0.342-0.288,0.487-0.43c0.526-0.515,1.279-1.46,1.361-2.254
		c0.411-0.426,0.8-0.944,1.004-1.498c0.167-0.452,0.223-0.982-0.058-1.403c-0.105-0.157-0.239-0.274-0.393-0.359
		c0.19-1.211,0.471-5.233-4.221-5.233c-5.524,0-4.395,3.56-4.395,4.461c0,0.323,0.017,0.611,0.138,0.792
		c-0.139,0.083-0.262,0.194-0.359,0.339c-0.281,0.421-0.225,0.951-0.058,1.403c0.205,0.554,0.593,1.072,1.005,1.498
		c0.083,0.794,0.835,1.739,1.36,2.254c0.156,0.153,0.334,0.311,0.526,0.46c-0.004-0.002-0.008-0.006-0.012-0.008
		c-0.079,0.208-0.175,0.411-0.309,0.594c0.002,0.001,0.006,0.005,0.013,0.009c-0.009-0.006-0.014-0.009-0.014-0.009l-0.899,0.988
		l0.014-0.017c-1.379,0.335-2.368,0.9-3.077,1.557c-2.069,1.915-1.753,4.606-1.753,4.606h15.637
		C80.295,67.174,80.611,64.483,78.543,62.567"/>
	<path class="st1" d="M99.756,62.567c-0.709-0.657-1.699-1.222-3.078-1.557l0.014,0.017l-0.899-0.988c0,0-0.003,0.002-0.005,0.003
		c-0.14-0.195-0.21-0.41-0.279-0.619l0,0c0.178-0.141,0.342-0.288,0.487-0.43c0.526-0.515,1.279-1.46,1.361-2.254
		c0.411-0.426,0.8-0.944,1.004-1.498c0.167-0.452,0.223-0.982-0.058-1.403c-0.105-0.157-0.239-0.274-0.393-0.359
		c0.19-1.211,0.471-5.233-4.221-5.233c-5.524,0-4.395,3.56-4.395,4.461c0,0.323,0.017,0.611,0.138,0.792
		c-0.139,0.083-0.262,0.194-0.359,0.339c-0.281,0.421-0.225,0.951-0.058,1.403c0.205,0.554,0.593,1.072,1.005,1.498
		c0.083,0.794,0.835,1.739,1.36,2.254c0.156,0.153,0.334,0.311,0.526,0.46c-0.004-0.002-0.008-0.006-0.012-0.008
		c-0.079,0.208-0.175,0.411-0.309,0.594c0.002,0.001,0.006,0.005,0.013,0.009c-0.009-0.006-0.014-0.009-0.014-0.009l-0.899,0.988
		l0.014-0.017c-1.379,0.335-2.368,0.9-3.077,1.557c-2.069,1.915-1.753,4.606-1.753,4.606h15.637
		C101.509,67.174,101.825,64.483,99.756,62.567"/>
	<path class="st1" d="M120.97,38.944c-0.709-0.657-1.699-1.222-3.078-1.557l0.014,0.017l-0.899-0.988c0,0-0.003,0.002-0.005,0.003
		c-0.14-0.195-0.21-0.41-0.279-0.619l0,0c0.178-0.141,0.342-0.288,0.487-0.43c0.526-0.515,1.279-1.46,1.361-2.254
		c0.411-0.426,0.8-0.944,1.004-1.498c0.167-0.452,0.223-0.982-0.058-1.403c-0.105-0.157-0.239-0.274-0.393-0.359
		c0.19-1.211,0.471-5.233-4.221-5.233c-5.524,0-4.395,3.56-4.395,4.461c0,0.323,0.017,0.611,0.138,0.792
		c-0.139,0.083-0.262,0.194-0.359,0.339c-0.281,0.421-0.225,0.951-0.058,1.403c0.205,0.554,0.593,1.072,1.005,1.498
		c0.083,0.794,0.835,1.739,1.36,2.254c0.156,0.153,0.334,0.311,0.526,0.46c-0.004-0.002-0.008-0.006-0.012-0.008
		c-0.079,0.208-0.175,0.411-0.309,0.594c0.002,0.001,0.006,0.005,0.013,0.009c-0.009-0.006-0.014-0.009-0.014-0.009l-0.899,0.988
		l0.014-0.017c-1.379,0.335-2.368,0.9-3.077,1.557c-2.069,1.915-1.753,4.606-1.753,4.606h15.637
		C122.722,43.551,123.039,40.86,120.97,38.944"/>
	<path class="st1" d="M142.184,38.944c-0.709-0.657-1.699-1.222-3.078-1.557l0.014,0.017l-0.899-0.988c0,0-0.003,0.002-0.005,0.003
		c-0.14-0.195-0.21-0.41-0.279-0.619l0,0c0.178-0.141,0.342-0.288,0.487-0.43c0.526-0.515,1.279-1.46,1.361-2.254
		c0.411-0.426,0.8-0.944,1.004-1.498c0.167-0.452,0.223-0.982-0.058-1.403c-0.105-0.157-0.239-0.274-0.393-0.359
		c0.19-1.211,0.471-5.233-4.221-5.233c-5.524,0-4.395,3.56-4.395,4.461c0,0.323,0.017,0.611,0.138,0.792
		c-0.139,0.083-0.262,0.194-0.359,0.339c-0.281,0.421-0.225,0.951-0.058,1.403c0.205,0.554,0.593,1.072,1.005,1.498
		c0.083,0.794,0.835,1.739,1.36,2.254c0.156,0.153,0.334,0.311,0.526,0.46c-0.004-0.002-0.008-0.006-0.012-0.008
		c-0.079,0.208-0.175,0.411-0.309,0.594c0.002,0.001,0.006,0.005,0.013,0.009c-0.009-0.006-0.014-0.009-0.014-0.009l-0.899,0.988
		l0.014-0.017c-1.379,0.335-2.368,0.9-3.077,1.557c-2.069,1.915-1.753,4.606-1.753,4.606h15.637
		C143.936,43.551,144.252,40.86,142.184,38.944"/>
	<path class="st1" d="M142.184,62.567c-0.709-0.657-1.699-1.222-3.078-1.557l0.014,0.017l-0.899-0.988c0,0-0.003,0.002-0.005,0.003
		c-0.14-0.195-0.21-0.41-0.279-0.619l0,0c0.178-0.141,0.342-0.288,0.487-0.43c0.526-0.515,1.279-1.46,1.361-2.254
		c0.411-0.426,0.8-0.944,1.004-1.498c0.167-0.452,0.223-0.982-0.058-1.403c-0.105-0.157-0.239-0.274-0.393-0.359
		c0.19-1.211,0.471-5.233-4.221-5.233c-5.524,0-4.395,3.56-4.395,4.461c0,0.323,0.017,0.611,0.138,0.792
		c-0.139,0.083-0.262,0.194-0.359,0.339c-0.281,0.421-0.225,0.951-0.058,1.403c0.205,0.554,0.593,1.072,1.005,1.498
		c0.083,0.794,0.835,1.739,1.36,2.254c0.156,0.153,0.334,0.311,0.526,0.46c-0.004-0.002-0.008-0.006-0.012-0.008
		c-0.079,0.208-0.175,0.411-0.309,0.594c0.002,0.001,0.006,0.005,0.013,0.009c-0.009-0.006-0.014-0.009-0.014-0.009l-0.899,0.988
		l0.014-0.017c-1.379,0.335-2.368,0.9-3.077,1.557c-2.069,1.915-1.753,4.606-1.753,4.606h15.637
		C143.936,67.174,144.252,64.483,142.184,62.567"/>
	<path class="st2" d="M78.543,15.321c-0.709-0.657-1.699-1.222-3.078-1.557l0.014,0.017l-0.899-0.988c0,0-0.003,0.002-0.005,0.003
		c-0.14-0.195-0.21-0.41-0.279-0.619l0,0c0.178-0.141,0.342-0.288,0.487-0.43c0.526-0.515,1.279-1.46,1.361-2.254
		c0.411-0.426,0.8-0.944,1.004-1.498c0.167-0.452,0.223-0.982-0.058-1.403c-0.105-0.157-0.239-0.274-0.393-0.359
		C76.889,5.022,77.17,1,72.478,1c-5.524,0-4.395,3.56-4.395,4.461c0,0.323,0.017,0.611,0.138,0.792
		c-0.139,0.083-0.262,0.194-0.359,0.339c-0.281,0.421-0.225,0.951-0.058,1.403c0.205,0.554,0.593,1.072,1.005,1.498
		c0.083,0.794,0.835,1.739,1.36,2.254c0.156,0.153,0.334,0.311,0.526,0.46c-0.004-0.002-0.008-0.006-0.012-0.008
		c-0.079,0.208-0.175,0.411-0.309,0.594c0.002,0.001,0.006,0.005,0.013,0.009c-0.009-0.006-0.014-0.009-0.014-0.009l-0.899,0.988
		l0.014-0.017c-1.379,0.335-2.368,0.9-3.077,1.557c-2.069,1.915-1.753,4.606-1.753,4.606h15.637
		C80.295,19.928,80.611,17.237,78.543,15.321"/>
	<path class="st2" d="M14.902,38.944c-0.709-0.657-1.699-1.222-3.078-1.557l0.014,0.017l-0.899-0.988c0,0-0.003,0.002-0.005,0.003
		c-0.14-0.195-0.21-0.41-0.279-0.619l0,0c0.178-0.141,0.342-0.288,0.487-0.43c0.526-0.515,1.279-1.46,1.361-2.254
		c0.411-0.426,0.8-0.944,1.004-1.498c0.167-0.452,0.223-0.982-0.058-1.403c-0.105-0.157-0.239-0.274-0.393-0.359
		c0.19-1.211,0.471-5.233-4.221-5.233c-5.524,0-4.395,3.56-4.395,4.461c0,0.323,0.017,0.611,0.138,0.792
		c-0.139,0.083-0.262,0.194-0.359,0.339c-0.281,0.421-0.225,0.951-0.058,1.403c0.205,0.554,0.593,1.072,1.005,1.498
		c0.083,0.794,0.835,1.739,1.36,2.254c0.156,0.153,0.334,0.311,0.526,0.46c-0.004-0.002-0.008-0.006-0.012-0.008
		c-0.079,0.208-0.175,0.411-0.309,0.594c0.002,0.001,0.006,0.005,0.013,0.009c-0.009-0.006-0.014-0.009-0.014-0.009l-0.899,0.988
		l0.014-0.017c-1.379,0.335-2.368,0.9-3.077,1.557c-2.069,1.915-1.753,4.606-1.753,4.606h15.637
		C16.654,43.551,16.971,40.86,14.902,38.944"/>
	<path class="st2" d="M57.329,62.567c-0.709-0.657-1.699-1.222-3.078-1.557l0.014,0.017l-0.899-0.988c0,0-0.003,0.002-0.005,0.003
		c-0.14-0.195-0.21-0.41-0.279-0.619l0,0c0.178-0.141,0.342-0.288,0.487-0.43c0.526-0.515,1.279-1.46,1.361-2.254
		c0.411-0.426,0.8-0.944,1.004-1.498c0.167-0.452,0.223-0.982-0.058-1.403c-0.105-0.157-0.239-0.274-0.393-0.359
		c0.19-1.211,0.471-5.233-4.221-5.233c-5.524,0-4.395,3.56-4.395,4.461c0,0.323,0.017,0.611,0.138,0.792
		c-0.139,0.083-0.262,0.194-0.359,0.339c-0.281,0.421-0.225,0.951-0.058,1.403c0.205,0.554,0.593,1.072,1.005,1.498
		c0.083,0.794,0.835,1.739,1.36,2.254c0.156,0.153,0.334,0.311,0.526,0.46c-0.004-0.002-0.008-0.006-0.012-0.008
		c-0.079,0.208-0.175,0.411-0.309,0.594c0.002,0.001,0.006,0.005,0.013,0.009c-0.009-0.006-0.014-0.009-0.014-0.009l-0.899,0.988
		l0.014-0.017c-1.379,0.335-2.368,0.9-3.077,1.557c-2.069,1.915-1.753,4.606-1.753,4.606h15.637
		C59.082,67.174,59.398,64.483,57.329,62.567"/>
	<path class="st2" d="M120.97,62.567c-0.709-0.657-1.699-1.222-3.078-1.557l0.014,0.017l-0.899-0.988c0,0-0.003,0.002-0.005,0.003
		c-0.14-0.195-0.21-0.41-0.279-0.619l0,0c0.178-0.141,0.342-0.288,0.487-0.43c0.526-0.515,1.279-1.46,1.361-2.254
		c0.411-0.426,0.8-0.944,1.004-1.498c0.167-0.452,0.223-0.982-0.058-1.403c-0.105-0.157-0.239-0.274-0.393-0.359
		c0.19-1.211,0.471-5.233-4.221-5.233c-5.524,0-4.395,3.56-4.395,4.461c0,0.323,0.017,0.611,0.138,0.792
		c-0.139,0.083-0.262,0.194-0.359,0.339c-0.281,0.421-0.225,0.951-0.058,1.403c0.205,0.554,0.593,1.072,1.005,1.498
		c0.083,0.794,0.835,1.739,1.36,2.254c0.156,0.153,0.334,0.311,0.526,0.46c-0.004-0.002-0.008-0.006-0.012-0.008
		c-0.079,0.208-0.175,0.411-0.309,0.594c0.002,0.001,0.006,0.005,0.013,0.009c-0.009-0.006-0.014-0.009-0.014-0.009l-0.899,0.988
		l0.014-0.017c-1.379,0.335-2.368,0.9-3.077,1.557c-2.069,1.915-1.753,4.606-1.753,4.606h15.637
		C122.722,67.174,123.039,64.483,120.97,62.567"/>
	<g class="st3">
		<g class="st4">
			<g>
				<polygon class="st5" points="78.011,79.766 69.424,84.756 60.785,79.768 69.371,74.778 				"/>
			</g>
			<g>
				<polygon class="st5" points="78.011,79.766 77.976,90.01 69.389,95 69.424,84.756 				"/>
			</g>
			<g>
				<polygon class="st5" points="69.424,84.756 69.389,95 60.75,90.012 60.785,79.768 				"/>
			</g>
		</g>
	</g>
	<g class="st3">
		<g class="st4">
			<g>
				<polygon class="st5" points="99.637,79.766 91.051,84.756 82.411,79.768 90.998,74.778 				"/>
			</g>
			<g>
				<polygon class="st5" points="99.637,79.766 99.603,90.01 91.016,95 91.051,84.756 				"/>
			</g>
			<g>
				<polygon class="st5" points="91.051,84.756 91.016,95 82.377,90.012 82.411,79.768 				"/>
			</g>
		</g>
	</g>
	<g class="st3">
		<g class="st4">
			<g>
				<polygon class="st5" points="121.264,79.766 112.678,84.756 104.038,79.768 112.625,74.778 				"/>
			</g>
			<g>
				<polygon class="st5" points="121.264,79.766 121.229,90.01 112.643,95 112.678,84.756 				"/>
			</g>
			<g>
				<polygon class="st5" points="112.678,84.756 112.643,95 104.003,90.012 104.038,79.768 				"/>
			</g>
		</g>
	</g>
	<g class="st3">
		<g class="st4">
			<g>
				<polygon class="st5" points="142.891,79.766 134.304,84.756 125.665,79.768 134.251,74.778 				"/>
			</g>
			<g>
				<polygon class="st5" points="142.891,79.766 142.856,90.01 134.269,95 134.304,84.756 				"/>
			</g>
			<g>
				<polygon class="st5" points="134.304,84.756 134.269,95 125.63,90.012 125.665,79.768 				"/>
			</g>
		</g>
	</g>
	<g class="st3">
		<g class="st4">
			<g>
				<polygon class="st5" points="159.821,78.328 153.709,81.88 147.56,78.33 153.671,74.778 				"/>
			</g>
			<g>
				<polygon class="st5" points="159.821,78.328 159.796,85.62 153.684,89.171 153.709,81.88 				"/>
			</g>
			<g>
				<polygon class="st5" points="153.709,81.88 153.684,89.171 147.535,85.621 147.56,78.33 				"/>
			</g>
		</g>
	</g>
</g>
<g id="Layer_2">
	<g>
		<path class="st6" d="M66.756,13.912c-4.725-0.202-12.536-0.115-19.708,4.297l17.5,17.5c4.412-7.172,4.499-14.984,4.297-19.708
			c-0.023-0.546-0.253-1.063-0.639-1.449l0,0C67.818,14.165,67.302,13.936,66.756,13.912z"/>
		<path class="st7" d="M18.48,69.357c0,0,1.474,5.799-5.687,7.289c0,0-4.659,0.777-6.824,1.922c-0.397,0.21-0.883,0.143-1.201-0.174
			l0,0c-0.318-0.318-0.384-0.804-0.174-1.201c1.146-2.164,1.922-6.824,1.922-6.824c1.49-7.161,7.289-5.687,7.289-5.687L18.48,69.357
			z"/>
		<path class="st6" d="M62.748,38.803L44.36,20.415c0,0-5.932,2.755-9.216,7.099c-2.861,3.783-18.205,24.064-22.116,29.233
			c-0.521,0.688-0.453,1.654,0.157,2.264l10.967,10.967c0.61,0.61,1.576,0.678,2.264,0.157c5.169-3.911,25.449-19.255,29.233-22.116
			C59.993,44.735,62.748,38.803,62.748,38.803z"/>
		<polygon class="st6" points="23.579,37.089 13.433,35.988 1,44.259 12.944,51.146 		"/>
		<polygon class="st6" points="46.041,59.551 47.142,69.697 38.871,82.13 31.984,70.186 		"/>
		<path class="st7" d="M39.715,43.447c-2.43-2.43-2.43-6.371,0-8.801c2.43-2.43,6.371-2.43,8.801,0c2.43,2.43,2.43,6.371,0,8.801
			C46.086,45.877,42.146,45.877,39.715,43.447z"/>
	</g>
</g>
</svg>
