<?xml version="1.0" encoding="utf-8"?>
<!-- Generator: Adobe Illustrator 24.0.2, SVG Export Plug-In . SVG Version: 6.00 Build 0)  -->
<svg version="1.1" xmlns="http://www.w3.org/2000/svg" xmlns:xlink="http://www.w3.org/1999/xlink" x="0px" y="0px"
	 viewBox="0 0 60 60" style="enable-background:new 0 0 60 60;" xml:space="preserve">
<style type="text/css">
	.st0{display:none;}
	.st1{display:inline;}
	.st2{fill:none;stroke:#474747;stroke-width:2;stroke-linecap:round;stroke-linejoin:round;stroke-miterlimit:10;}
	.st3{fill:#ACACAC;}
	.st4{fill:#FFFFFF;stroke:#474747;stroke-width:2;stroke-linecap:round;stroke-linejoin:round;stroke-miterlimit:10;}
	.st5{fill:#ACACAC;stroke:#474747;stroke-width:2;stroke-miterlimit:10;}
	
		.st6{display:inline;fill:#FFFFFF;stroke:#474747;stroke-width:2;stroke-linecap:round;stroke-linejoin:round;stroke-miterlimit:10;}
	.st7{display:inline;fill:#ACACAC;}
	.st8{display:inline;fill:#474747;}
	.st9{fill:#474747;}
	.st10{fill:#F16840;}
	.st11{fill:none;stroke:#FFFFFF;stroke-width:2;stroke-linecap:round;stroke-linejoin:round;stroke-miterlimit:10;}
	.st12{fill:#FFFFFF;stroke:#474747;stroke-width:2.2;stroke-linecap:round;stroke-linejoin:round;stroke-miterlimit:10;}
	.st13{fill:#ACACAC;stroke:#ACACAC;stroke-miterlimit:10;}
</style>
<g id="Layer_1" class="st0">
	<g class="st1">
		<path class="st2" d="M22.879,6.068c1.941,0.97,3.855,1.98,5.851,3.034c3.616,1.909,7.332,3.871,11.361,5.645
			c0.013,1.465,0.034,2.89,0.054,4.287c0.137,9.439,0.245,16.894-2.102,22.571c-1.53,3.701-4.649,8.42-15.164,12.532
			C12.364,50.026,9.244,45.307,7.715,41.606c-2.347-5.678-2.239-13.134-2.102-22.572c0.02-1.397,0.041-2.822,0.054-4.286
			c4.03-1.774,7.745-3.736,11.361-5.645C19.024,8.048,20.938,7.038,22.879,6.068 M22.879,1c-7.25,3.467-13.87,7.565-21.75,10.718
			c0,23.956-3.152,38.299,21.75,47.282c24.903-8.984,21.75-23.326,21.75-47.282C36.748,8.565,30.128,4.467,22.879,1L22.879,1z"/>
		<path class="st3" d="M22.933,8.982c-0.019-0.01-0.039-0.02-0.058-0.029c-1.601,0.809-3.189,1.648-4.859,2.53l-0.022,0.012
			c-3.179,1.678-6.458,3.409-9.99,5.005c-0.012,1.068-0.027,2.114-0.042,3.144c-0.06,4.13-0.11,7.847,0.07,11.161h14.902V8.982z"/>
		<path class="st3" d="M22.933,51.294c9.02-3.652,11.675-7.705,12.973-10.846c1.116-2.7,1.61-5.917,1.812-9.642H22.933V51.294z"/>
	</g>
</g>
<g id="Layer_2" class="st0">
	<g class="st1">
		
			<rect x="10.039" y="41.253" transform="matrix(0.7906 0.6123 -0.6123 0.7906 30.4292 -0.5229)" class="st4" width="11.88" height="5.953"/>
		<path class="st4" d="M2.757,34.218l8.813,2.914l9.667-12.482l-3.177-0.682c-4.438-0.952-9.066,0.199-12.541,3.119l-3.558,2.99
			C0.515,31.294,0.963,33.625,2.757,34.218z"/>
		<path class="st4" d="M28.983,54.53l-5.025-7.804l9.667-12.482l1.455,2.905c2.032,4.058,2.075,8.828,0.117,12.922l-2.005,4.193
			C32.375,55.97,30.006,56.119,28.983,54.53z"/>
		<path class="st4" d="M40.803,31.254C36.29,37.082,28.36,44.925,23.694,47.138c-1.093,0.518-2.387,0.358-3.343-0.383l-7.907-6.124
			c-0.956-0.74-1.435-1.952-1.207-3.139c0.972-5.074,6.583-14.714,11.097-20.542c3.273-4.226,8.299-7.901,13.252-10.826
			c2.968-1.757,5.911-3.242,8.43-4.411c3.208-1.487,6.758,1.263,6.117,4.737c-0.502,2.731-1.204,5.952-2.159,9.268
			C46.378,21.243,44.076,27.028,40.803,31.254z"/>
		<path class="st5" d="M47.974,15.718c-2.48-0.689-4.911-1.882-7.124-3.596s-3.977-3.769-5.264-5.998
			c2.968-1.757,5.911-3.242,8.43-4.411c3.208-1.487,6.758,1.263,6.117,4.737C49.631,9.182,48.929,12.402,47.974,15.718z"/>
		<circle class="st3" cx="33.758" cy="21.278" r="6.344"/>
		<path class="st3" d="M12.717,55.674c-1.498,1.934-6.571,5.246-8.505,3.749s0.005-7.239,1.503-9.172s4.279-2.287,6.213-0.789
			C13.861,50.959,14.215,53.74,12.717,55.674z"/>
	</g>
</g>
<g id="Layer_3" class="st0">
	<polygon class="st6" points="51.057,44.46 51.057,15.617 26.079,1.195 1.1,15.617 1.1,44.46 26.079,58.881 	"/>
	<polygon class="st7" points="3.553,17.912 3.553,43.13 25.243,55.653 25.243,30.435 	"/>
	<polygon class="st7" points="48.398,17.912 48.398,43.13 26.708,55.653 26.708,30.435 	"/>
	<path class="st8" d="M38.367,26.475h1.799c-2.155,4.917-1.807,4.122-2.096,4.781c-1.226-1.99-0.597-0.969-2.946-4.781h1.886
		c-0.711-4.027-3.81-7.499-8.053-8.507c0.981-0.604,0.632-0.39,1.531-0.943C34.672,18.504,37.69,22.177,38.367,26.475z
		 M15.924,30.305h1.886c-2.35-3.812-1.72-2.791-2.946-4.781c-0.289,0.659,0.06-0.136-2.096,4.781h1.799
		c0.677,4.297,3.695,7.97,7.88,9.45c0.877-0.54,0.556-0.342,1.531-0.943C19.734,37.804,16.635,34.332,15.924,30.305z M28.382,38.932
		v-1.886c-3.812,2.35-2.791,1.72-4.781,2.946c0.659,0.289-0.136-0.059,4.781,2.096V40.29c4.297-0.677,7.97-3.695,9.45-7.88
		c-0.54-0.876-0.342-0.556-0.943-1.531C35.881,35.122,32.409,38.222,28.382,38.932z M24.552,17.847v1.886
		c3.812-2.35,2.791-1.72,4.781-2.946c-0.659-0.289,0.136,0.06-4.781-2.096v1.799c-4.297,0.677-7.97,3.695-9.45,7.88
		c0.553,0.899,0.338,0.55,0.943,1.531C17.032,21.742,20.436,18.574,24.552,17.847z"/>
</g>
<g id="Layer_4" class="st0">
	<g class="st1">
		<g>
			<g>
				<path class="st9" d="M38.001,10.303h-19.44V0h19.44V10.303z M21.276,7.588h14.01V2.715h-14.01V7.588z"/>
			</g>
			<g>
				<path class="st9" d="M48.417,25.723H28.979V15.419h19.439V25.723z M31.694,23.008h14.009v-4.873H31.694V23.008z"/>
			</g>
			<g>
				<path class="st9" d="M18.353,41.142H0V30.839h18.353V41.142z M2.715,38.427h12.923v-4.873H2.715V38.427z"/>
			</g>
			<g>
				<path class="st9" d="M38.001,56.563h-19.44V46.258h19.44V56.563z M21.276,53.848h14.01v-4.874h-14.01V53.848z"/>
			</g>
			<g>
				<path class="st9" d="M56.561,41.142H38.209V30.839h18.353V41.142z M40.924,38.427h12.923v-4.873H40.924V38.427z"/>
			</g>
			<g>
				<path class="st3" d="M7.48,56.563c-2.841,0-5.152-2.311-5.152-5.152c0-2.841,2.311-5.152,5.152-5.152
					c2.84,0,5.151,2.311,5.151,5.152C12.631,54.252,10.32,56.563,7.48,56.563z"/>
			</g>
			<g>
				<rect x="32.588" y="8.946" class="st9" width="2.715" height="4.631"/>
			</g>
			<g>
				<rect x="21.245" y="19.214" class="st9" width="5.644" height="2.715"/>
			</g>
			<g>
				<rect x="14.274" y="50.053" class="st9" width="5.644" height="2.715"/>
			</g>
			<g>
				<path class="st10" d="M49.081,56.563c-2.84,0-5.151-2.311-5.151-5.152c0-2.841,2.311-5.152,5.151-5.152
					c2.841,0,5.152,2.311,5.152,5.152C54.234,54.252,51.923,56.563,49.081,56.563z"/>
			</g>
			<g>
				<rect x="36.643" y="50.053" class="st9" width="5.644" height="2.715"/>
			</g>
			<g>
				<rect x="41.303" y="24.365" class="st9" width="2.715" height="4.485"/>
			</g>
			<g>
				<rect x="26.923" y="39.784" class="st9" width="2.715" height="4.485"/>
			</g>
			<g>
				<rect x="20.159" y="34.633" class="st9" width="4.328" height="2.715"/>
			</g>
			<g>
				<rect x="32.075" y="34.633" class="st9" width="4.327" height="2.715"/>
			</g>
			<g>
				<path class="st3" d="M17.451,25.723c-2.841,0-5.152-2.311-5.152-5.151c0-2.841,2.311-5.152,5.152-5.152
					c2.84,0,5.151,2.311,5.151,5.152C22.603,23.412,20.292,25.723,17.451,25.723z"/>
			</g>
			<g>
				<path class="st3" d="M28.281,41.142c-2.84,0-5.151-2.311-5.151-5.151c0-2.841,2.311-5.152,5.151-5.152
					c2.841,0,5.152,2.311,5.152,5.152C33.433,38.831,31.122,41.142,28.281,41.142z"/>
			</g>
		</g>
		<circle class="st3" cx="49.88" cy="51.445" r="8.555"/>
		<line class="st11" x1="46.662" y1="50.835" x2="49.193" y2="53.872"/>
		<line class="st11" x1="53.039" y1="48.811" x2="49.294" y2="53.872"/>
	</g>
</g>
<g id="Layer_5" class="st0">
	<g class="st1">
		<g>
			<line class="st12" x1="10.951" y1="10.951" x2="49.049" y2="49.049"/>
			<line class="st12" x1="3.061" y1="30" x2="56.939" y2="30"/>
			<line class="st12" x1="10.951" y1="49.049" x2="49.049" y2="10.951"/>
			<line class="st12" x1="30" y1="56.939" x2="30" y2="3.061"/>
			<circle class="st12" cx="30" cy="30" r="18.435"/>
			<ellipse class="st12" cx="30" cy="30" rx="9.843" ry="18.435"/>
			<line class="st12" x1="30" y1="11.565" x2="30" y2="48.435"/>
			<line class="st12" x1="11.565" y1="30" x2="48.435" y2="30"/>
			<line class="st12" x1="14.07" y1="20.725" x2="45.93" y2="20.725"/>
			<line class="st12" x1="14.07" y1="39.275" x2="45.93" y2="39.275"/>
		</g>
		<g>
			<circle class="st13" cx="30" cy="3.061" r="2.561"/>
			<circle class="st13" cx="10.951" cy="10.951" r="2.561"/>
			<circle class="st13" cx="3.061" cy="30" r="2.561"/>
			<circle class="st13" cx="10.951" cy="49.049" r="2.561"/>
			<circle class="st13" cx="30" cy="56.939" r="2.561"/>
			<circle class="st13" cx="49.049" cy="49.049" r="2.561"/>
			<circle class="st13" cx="56.939" cy="30" r="2.561"/>
			<circle class="st13" cx="49.049" cy="10.951" r="2.561"/>
		</g>
	</g>
</g>
<g id="Layer_6">
	<g>
		<path class="st4" d="M48.2,18.059v33.733c0,3.104-2.539,5.643-5.643,5.643H6.643C3.54,57.435,1,54.895,1,51.791V6.643
			C1,3.539,3.54,1,6.643,1h24.37L48.2,18.059z"/>
		<path class="st2" d="M31.27,1.385c-1.481,0-2.693,1.212-2.693,2.693v13.083c0,1.481,1.212,2.693,2.693,2.693h13.083
			c1.481,0,2.693-1.212,2.693-2.693L31.27,1.385z"/>
		
			<ellipse transform="matrix(0.2289 -0.9734 0.9734 0.2289 -15.0429 76.8958)" class="st3" cx="41.017" cy="47.943" rx="12.057" ry="12.056"/>
		<line class="st2" x1="7.926" y1="26.396" x2="39.222" y2="26.396"/>
		<line class="st2" x1="7.926" y1="33.749" x2="28.576" y2="33.749"/>
		<line class="st2" x1="7.926" y1="41.103" x2="22.32" y2="41.103"/>
		<line class="st2" x1="7.926" y1="48.457" x2="22.32" y2="48.457"/>
		<line class="st11" x1="35.887" y1="47.345" x2="40.162" y2="52.475"/>
		<line class="st11" x1="46.661" y1="43.925" x2="40.333" y2="52.475"/>
	</g>
</g>
</svg>
