<?xml version="1.0" encoding="utf-8"?>
<!-- Generator: Adobe Illustrator 24.0.2, SVG Export Plug-In . SVG Version: 6.00 Build 0)  -->
<svg version="1.1" id="Layer_1" xmlns="http://www.w3.org/2000/svg" xmlns:xlink="http://www.w3.org/1999/xlink" x="0px" y="0px"
	 viewBox="0 0 235 130" style="enable-background:new 0 0 235 130;" xml:space="preserve">
<style type="text/css">
	.st0{fill:#E73829;}
	.st1{fill:#F29600;}
</style>
<g id="Signature_Typa">
	<g>
		<path class="st0" d="M92.33,48.73l-8.62,18.49c-0.67,1.43-2.37,2.05-3.81,1.38c-1.04-0.48-1.65-1.52-1.65-2.6
			c0-0.41,0.08-0.82,0.27-1.21l8.62-18.49c0.67-1.44,2.37-2.05,3.81-1.38C92.38,45.59,93,47.3,92.33,48.73"/>
		<path class="st0" d="M104.1,48.73l-8.62,18.49c-0.67,1.43-2.37,2.05-3.81,1.38c-1.04-0.48-1.65-1.52-1.65-2.6
			c0-0.41,0.08-0.82,0.27-1.21l8.62-18.49c0.67-1.44,2.37-2.05,3.81-1.38C104.14,45.59,104.77,47.3,104.1,48.73"/>
		<path class="st0" d="M153.96,48.73l-8.62,18.49c-0.67,1.43-2.37,2.05-3.81,1.38c-1.04-0.48-1.65-1.52-1.65-2.6
			c0-0.41,0.08-0.82,0.27-1.21l8.62-18.49c0.67-1.44,2.37-2.05,3.81-1.38C154.01,45.59,154.63,47.3,153.96,48.73"/>
		<path class="st0" d="M165.73,48.73l-8.62,18.49c-0.67,1.43-2.37,2.05-3.81,1.38c-1.04-0.48-1.65-1.52-1.65-2.6
			c0-0.41,0.08-0.82,0.27-1.21l8.62-18.49c0.67-1.44,2.37-2.05,3.81-1.38C165.78,45.59,166.4,47.3,165.73,48.73"/>
		<path class="st0" d="M78.54,54.31l0.14,0.25C78.63,54.47,78.59,54.39,78.54,54.31z"/>
		<path class="st1" d="M78.52,54.28c0.01,0.01,0.01,0.02,0.02,0.03l-0.04-0.07c-0.02-0.04-0.03-0.07-0.04-0.11l-0.14-0.25
			c-0.02-0.03-0.04-0.06-0.06-0.09l-3.92-7.37c-0.74-1.4-2.48-1.93-3.87-1.18c-1.4,0.74-1.93,2.48-1.19,3.88l4.09,7.7
			c-0.01-0.02-0.01-0.05-0.02-0.07l0.15,0.28c0.52,0.73,1.38,1.22,2.35,1.22c1.59,0,2.88-1.29,2.88-2.88
			C78.73,54.97,78.65,54.61,78.52,54.28z"/>
		<path class="st1" d="M140.6,54.28c0.01,0.01,0.01,0.02,0.02,0.03l-0.04-0.07c-0.02-0.04-0.03-0.07-0.04-0.11l-0.14-0.25
			c-0.02-0.03-0.04-0.06-0.06-0.09l-3.92-7.37c-0.74-1.4-2.48-1.93-3.87-1.18c-1.4,0.74-1.93,2.48-1.19,3.88l4.09,7.7
			c-0.01-0.02-0.01-0.05-0.02-0.07l0.15,0.28c0.52,0.73,1.38,1.22,2.35,1.22c1.59,0,2.88-1.29,2.88-2.88
			C140.82,54.97,140.74,54.61,140.6,54.28z"/>
		<path class="st0" d="M117.85,43.31c-7.34,0-13.3,5.95-13.3,13.3s5.95,13.29,13.3,13.29c7.34,0,13.3-5.95,13.3-13.29
			S125.19,43.31,117.85,43.31z M117.85,64.9c-4.58,0-8.3-3.71-8.3-8.3s3.71-8.3,8.3-8.3c4.58,0,8.3,3.71,8.3,8.3
			S122.43,64.9,117.85,64.9z"/>
	</g>
	<g>
		<path class="st0" d="M77.46,73.74c0-0.29,0.11-0.54,0.32-0.76c0.22-0.21,0.48-0.32,0.78-0.32h0.01l11-0.06h0.02
			c0.3,0,0.56,0.11,0.78,0.32c0.22,0.21,0.32,0.46,0.32,0.76c0,0.29-0.11,0.54-0.32,0.76c-0.22,0.21-0.48,0.32-0.78,0.32h-0.01
			l-4.38,0.02l-0.06,12.3v0.01c0,0.29-0.11,0.53-0.32,0.74c-0.22,0.21-0.48,0.31-0.78,0.31c-0.3,0-0.56-0.1-0.78-0.31
			c-0.22-0.21-0.32-0.45-0.32-0.74v-0.02L83,74.78l-4.43,0.03h-0.01c-0.3,0-0.56-0.11-0.78-0.32
			C77.57,74.29,77.46,74.04,77.46,73.74z"/>
		<path class="st0" d="M101.2,72.46c1.12,0,2.16,0.21,3.1,0.64c0.94,0.43,1.76,1.01,2.46,1.75c0.7,0.74,1.24,1.59,1.62,2.55
			c0.38,0.96,0.57,1.98,0.57,3.06c0,1.08-0.19,2.09-0.57,3.04c-0.38,0.95-0.91,1.78-1.6,2.5c-0.69,0.72-1.51,1.29-2.45,1.69
			c-0.94,0.41-1.98,0.61-3.12,0.61c-1.16,0-2.21-0.21-3.16-0.62c-0.95-0.41-1.76-0.98-2.44-1.7c-0.68-0.72-1.2-1.56-1.57-2.52
			c-0.37-0.95-0.55-1.98-0.55-3.07c0-1.06,0.19-2.07,0.58-3.02c0.39-0.95,0.93-1.8,1.62-2.53c0.69-0.74,1.51-1.32,2.44-1.74
			C99.07,72.67,100.09,72.46,101.2,72.46z M101.25,74.63c-1.09,0-2.05,0.28-2.88,0.83c-0.83,0.55-1.49,1.28-1.96,2.18
			c-0.47,0.9-0.71,1.89-0.71,2.96c0,0.73,0.14,1.43,0.43,2.09c0.29,0.66,0.68,1.26,1.19,1.77c0.51,0.52,1.09,0.93,1.76,1.22
			c0.66,0.3,1.37,0.44,2.13,0.44c0.76,0,1.47-0.15,2.14-0.46c0.67-0.31,1.27-0.72,1.78-1.24c0.52-0.52,0.92-1.11,1.22-1.76
			c0.29-0.65,0.44-1.32,0.44-2.01c0-1.11-0.25-2.12-0.74-3.03c-0.5-0.91-1.16-1.64-2-2.18C103.21,74.9,102.27,74.63,101.25,74.63z"
			/>
		<path class="st0" d="M112.31,86.78c0-0.29,0-0.65,0.01-1.07c0.01-0.42,0.01-0.95,0.01-1.6l0.01-10.5c0-0.29,0.1-0.54,0.31-0.74
			c0.21-0.2,0.47-0.3,0.78-0.3c0.3,0,0.56,0.1,0.78,0.31s0.33,0.46,0.33,0.75c0.01,0.91,0.01,1.82,0.01,2.74
			c0,0.92,0,1.83,0.01,2.73l7.54-6.15c0.23-0.2,0.47-0.3,0.74-0.3c0.32,0,0.58,0.11,0.78,0.34c0.21,0.23,0.31,0.48,0.31,0.75
			c0,0.29-0.12,0.55-0.37,0.76l-6.14,4.97l6.63,6.93c0.21,0.22,0.32,0.45,0.32,0.69c0,0.29-0.11,0.53-0.34,0.73
			c-0.23,0.2-0.49,0.31-0.79,0.31c-0.12,0-0.26-0.02-0.4-0.06c-0.14-0.04-0.26-0.11-0.37-0.21l-6.71-7l-1.2,1
			c-0.01,1.34-0.01,2.49-0.02,3.46c-0.01,0.97-0.02,1.59-0.02,1.86c0,0.31-0.12,0.55-0.36,0.72c-0.24,0.17-0.49,0.26-0.77,0.26
			c-0.41,0-0.69-0.14-0.85-0.41C112.38,87.47,112.31,87.15,112.31,86.78z"/>
		<path class="st0" d="M127.44,73.69c0-0.29,0.11-0.53,0.32-0.73c0.22-0.2,0.48-0.31,0.78-0.31l9.44,0.01h0.01
			c0.3,0,0.56,0.11,0.78,0.32c0.22,0.21,0.32,0.46,0.32,0.76c0,0.29-0.11,0.55-0.32,0.76c-0.22,0.21-0.48,0.32-0.78,0.32h-0.01
			l-8.34-0.01l0.01,4.39l7.42,0.05c0.32,0,0.58,0.11,0.79,0.32c0.21,0.21,0.31,0.49,0.31,0.83c0,0.29-0.11,0.53-0.34,0.72
			c-0.23,0.2-0.48,0.29-0.76,0.29h-0.01l-7.4-0.05l0.01,4.53l8.3-0.01h0.01c0.3,0,0.56,0.11,0.78,0.32
			c0.22,0.21,0.32,0.46,0.32,0.76s-0.11,0.54-0.32,0.76c-0.22,0.21-0.48,0.32-0.78,0.32h-0.01l-9.4,0.01c-0.3,0-0.56-0.11-0.78-0.32
			c-0.22-0.21-0.32-0.46-0.32-0.74L127.44,73.69z"/>
		<path class="st0" d="M142.45,73.69c0-0.3,0.11-0.55,0.34-0.74c0.22-0.2,0.49-0.29,0.8-0.29c0.35,0,0.63,0.14,0.85,0.41l8.31,10.99
			V73.72c0-0.29,0.11-0.53,0.32-0.73c0.22-0.2,0.48-0.31,0.78-0.31c0.3,0,0.56,0.1,0.78,0.31c0.22,0.2,0.32,0.45,0.32,0.73
			l-0.01,13.44c0,0.3-0.11,0.55-0.34,0.74c-0.22,0.2-0.49,0.29-0.8,0.29c-0.35,0-0.63-0.14-0.85-0.43l-8.3-10.98v10.35
			c0,0.29-0.11,0.53-0.32,0.73c-0.22,0.2-0.48,0.31-0.78,0.31c-0.3,0-0.56-0.1-0.78-0.31c-0.22-0.2-0.32-0.45-0.32-0.73V73.69z"/>
	</g>
</g>
</svg>
